<svg xmlns="http://www.w3.org/2000/svg" width="341.484" height="405" viewBox="0 0 341.484 405">
  <g id="Grupo_875349" data-name="Grupo 875349" transform="translate(-618.943 -1308)">
    <ellipse id="Shadow" cx="122.994" cy="71.011" rx="122.994" ry="71.011" transform="translate(666.691 1570.979)" fill="#e1e1e1"/>
    <g id="Grupo_875350" data-name="Grupo 875350" transform="translate(618.943 1308)">
      <path id="Trazado_603412" data-name="Trazado 603412" d="M942.4,1013.586c34.889,82.767,3.227,178.018-76.018,221.17-1.556.917-6.164,3.162-7.893,4-1.442.777-3.824,1.8-5.375,2.439l-5.445,2.3c-2.6,1.089-5.689,1.985-8.343,3-3.215,1.143-8.063,2.421-11.332,3.4-1.719.416-6.842,1.561-8.656,1.992a171.73,171.73,0,0,1-93.734-7.167c-37.67-13.8-69.879-41.707-89.357-76.757-.857-1.775-3.358-6.275-4.163-8.05-.608-1.353-1.917-4.134-2.529-5.492-1.031-2.03-2.562-6.3-3.462-8.383-1.054-2.625-2.054-5.892-3.017-8.558-.752-2.181-1.866-6.518-2.558-8.71-.363-1.88-1.75-6.956-2.058-8.843-.242-1.456-.825-4.494-1.071-5.958-.771-4.595-1.505-10.368-1.806-15.016-4.883-56.305,21.006-114.005,66.837-147.141a4.758,4.758,0,0,1,5.962,7.4A178.89,178.89,0,0,0,658.4,992.566c-1.117,1.634-3.524,5.45-4.584,7.008-.777,1.409-3.348,5.743-4.191,7.24-2.852,5.316-5.4,10.787-7.805,16.315-1.1,3-2.4,6.1-3.427,9.1-.628,1.872-1.918,6.162-2.511,7.945a163.717,163.717,0,0,0-6.222,41.036c-.154,3.1-.1,7.941.025,11.1-.023,1.5.248,4.014.34,5.537,5.466,80.637,73.132,146.414,154.139,149.255,101.232,4.471,182.043-86.651,164.1-186.749a151.124,151.124,0,0,0-14.476-42.748,4.758,4.758,0,1,1,8.618-4.02Z" transform="translate(-615 -950.884)" fill="#fda829"/>
    </g>
    <g id="Plants" transform="translate(820.23 1535.385)">
      <g id="Grupo_875325" data-name="Grupo 875325" transform="translate(10.098)">
        <g id="Grupo_875323" data-name="Grupo 875323">
          <path id="Trazado_612617" data-name="Trazado 612617" d="M894.081,1671.18c.011-9.73-1.933-27.668,6.3-44.49,5.968-12.188,16.647-24.03,26.578-22.852,9.25,1.1,10.089,15.315,1.243,25.052s-20.1,23.2-22.558,44.724l-6.37,15.973Z" transform="translate(-893.889 -1603.756)" fill="#81ad20"/>
        </g>
        <g id="Grupo_875324" data-name="Grupo 875324" transform="translate(2.622 5.956)">
          <path id="Trazado_612618" data-name="Trazado 612618" d="M898.186,1679.808a.677.677,0,0,0,.56-.693c-1.121-27.671,7.885-50.641,26.043-66.427a.676.676,0,0,0-.886-1.02c-18.479,16.065-27.646,39.407-26.508,67.5a.678.678,0,0,0,.7.649A.646.646,0,0,0,898.186,1679.808Z" transform="translate(-897.299 -1611.503)" fill="#fff"/>
        </g>
      </g>
      <g id="Grupo_875327" data-name="Grupo 875327" transform="translate(0 52.362)">
        <path id="Trazado_612619" data-name="Trazado 612619" d="M889.283,1721.716a34.4,34.4,0,0,0,17.112,4.761c10.413.248,14.259-5.231,14.259-5.231s-5.3-9.025-11.447-10.932c0,0,10.085.685,18.669,4.887,0,0,6.239-.74,7.444-10.574,0,0-4.456-5.224-17.246-6.655,0,0,7.275-2.9,18.5-1.591.857.214,2.679-12.537,2.968-18.346s-1.98-5.444-6.557-6.031-19.725.687-22.165,3.488-2.732,11.3-2.732,11.3-3.276-4.348-3.2-8.63a15.938,15.938,0,0,0-9.372,1.485c-4.732,2.4-6.254,4.313-6.487,7.95s-.542,9.074.917,13.3c0,0-4.314-6.952-4.092-13a64.168,64.168,0,0,0-4.4,9.212C879.412,1702.4,881.825,1715.218,889.283,1721.716Z" transform="translate(-880.754 -1671.863)" fill="#81ad20"/>
        <g id="Grupo_875326" data-name="Grupo 875326" transform="translate(7.853 3.04)">
          <path id="Trazado_612620" data-name="Trazado 612620" d="M891.821,1723.283a.675.675,0,0,0,.467-.443c5.927-18.174,33.817-42.1,44.474-45.7a.675.675,0,0,0,.424-.856.654.654,0,0,0-.856-.424c-10.863,3.664-39.29,28.048-45.328,46.561a.676.676,0,0,0,.819.863Z" transform="translate(-890.969 -1675.817)" fill="#fff"/>
        </g>
      </g>
    </g>
    <g id="Character" transform="translate(690.615 1308)">
      <g id="Grupo_875334" data-name="Grupo 875334" transform="translate(54.521 141.945)">
        <g id="Grupo_875328" data-name="Grupo 875328" transform="translate(56.885 161.141)">
          <path id="Trazado_612621" data-name="Trazado 612621" d="M883.166,1719.006c.909.368,1.1,2.12,1.162,5.6.046,2.631.505,7.232-2.593,8.078s-7.6.277-9.515-2.245c-2.393-3.147-4-5.906-7.425-9.758-2.975-3.341-6.2-6.47-7.331-11.087-1.018-4.172-.051-5.951,2.8-7.093,3.929-1.571,9.919,3.985,12.949,4.907C875.827,1708.2,882.257,1718.639,883.166,1719.006Z" transform="translate(-857.071 -1702.219)" fill="#1a2e35"/>
        </g>
        <g id="Grupo_875329" data-name="Grupo 875329" transform="translate(71.193 172.9)">
          <path id="Trazado_612622" data-name="Trazado 612622" d="M887.541,1719.327l-.1,4.265s-4.511,3.307-10.783.048c-.178-.415-.982-6.125-.982-6.125Z" transform="translate(-875.68 -1717.514)" fill="#ffa8a7"/>
        </g>
        <g id="Grupo_875330" data-name="Grupo 875330" transform="translate(0 201.697)">
          <path id="Trazado_612623" data-name="Trazado 612623" d="M830.973,1755s1.14,3.736,1.727,6.994c.465,2.59,1.12,6.916.173,8.835s-4.5,3.091-9.955,2.926c-3.535-.106-9.1,2.17-12.921,4.192-3.946,2.087-12.071,2.77-16.182,2.193-4.845-.679-9.814-3.61-10.554-5.639s.351-4.1,11.908-8.715c.105-.042,16.031-4.827,21.708-10.815Z" transform="translate(-783.081 -1754.97)" fill="#1a2e35"/>
        </g>
        <g id="Grupo_875331" data-name="Grupo 875331" transform="translate(33.783 197.087)">
          <path id="Trazado_612624" data-name="Trazado 612624" d="M841.234,1749s-.087,3.164-.112,4.973-2.222,4.455-7.746,4.134c-3.88-.227-6.568-1.332-6.342-4.526l.1-4.61Z" transform="translate(-827.022 -1748.974)" fill="#ffa8a7"/>
        </g>
        <g id="Grupo_875332" data-name="Grupo 875332" transform="translate(21.847)">
          <path id="Trazado_612625" data-name="Trazado 612625" d="M876.751,1610.809c-1.638-13.978-4.535-22.324-4.535-22.324s1.954-19.128,3.094-37.279c1.23-19.607,2.372-29.7-1.483-58.019,0,0-60.113-5.4-61.753,17.26s.688,80.488,1.212,90.47,2.047,18.835,3.743,35.034c1.672,15.987,6.521,53.761,6.521,53.761,7.145,4.073,14.1.029,14.1.029s5.478-45.259,5.27-56.769a98.281,98.281,0,0,0-3.795-25.2s1.622-18.679,3.048-34.925,2.725-24.036,3.131-31.108l1.378-.644s.757,28.1,1.28,38.083,1.894,19.573,4.361,38.149c2.139,16.114,8.822,50.258,8.822,50.258,7.146,4.074,11.562-.251,11.562-.251S878.389,1624.786,876.751,1610.809Z" transform="translate(-811.497 -1492.625)" fill="#37474f"/>
        </g>
        <g id="Grupo_875333" data-name="Grupo 875333" transform="translate(55.649 35.24)">
          <path id="Trazado_612626" data-name="Trazado 612626" d="M855.463,1552.34s15.532-7.224,23.375-13.878c0,0-7.365,9.9-16.837,14.146,0,0-4.119,34.793-4.086,34.1l-1.151-34.393Z" transform="translate(-855.463 -1538.462)" fill="#1a2e35"/>
        </g>
      </g>
      <g id="Grupo_875348" data-name="Grupo 875348">
        <path id="Trazado_612627" data-name="Trazado 612627" d="M841.46,1386.96l2.341,20.755,19.6-.988-2.178-24.222Z" transform="translate(-742.055 -1325.224)" fill="#ffa8a7"/>
        <g id="Grupo_875339" data-name="Grupo 875339" transform="translate(0 46.326)">
          <path id="Trazado_612628" data-name="Trazado 612628" d="M878.978,1398.62c7.3-.337,11,.758,14.28,7.052s4.561,25.1,5.7,34.8,1.425,16.538-2.566,17.536-19.527,1.425-19.527,1.425Z" transform="translate(-750.24 -1375.262)" fill="#37474f"/>
          <path id="Trazado_612629" data-name="Trazado 612629" d="M876.183,1409.35c-1.057-5.809-8.695-11.912-15.843-10.75q-2.492.4-4.854.82c-.857,3.491-10.426,5.675-19.566,3.523-2.755.723-11.825,2.422-14.119,3.183-6.57,2.181-9.282,8.647-10.3,30.073,0,0,.526,48.518.27,58.183,16.22,6.845,33.246,7.028,42.7,5.185,19.681-3.838,22.226-11.909,22.226-11.909l-2.93-22.2S878.574,1422.49,876.183,1409.35Z" transform="translate(-735.128 -1375.237)" fill="#455a64"/>
          <path id="Trazado_612630" data-name="Trazado 612630" d="M840.873,1396.164l.147,1.305a29.088,29.088,0,0,0,12.035,0c6.368-1.415,7.654-3.215,7.654-3.215l-.134-1.481s1.585-.588,2.419,1.852a26.663,26.663,0,0,1,.921,2.976s.733,4.459-6.754,6.73a23.142,23.142,0,0,1-18.642-2.037l-2.936.62s2.539-5.853,3.307-7.039a1.95,1.95,0,0,1,1.835-1.018Z" transform="translate(-740.697 -1373.909)" fill="#37474f"/>
          <g id="Grupo_875336" data-name="Grupo 875336" transform="translate(1.474)">
            <path id="Trazado_612631" data-name="Trazado 612631" d="M752.949,1368.255l-38.866,20.283,19.313,52.8,36.27-20.319Z" transform="translate(-714.083 -1368.255)" fill="#455a64"/>
            <path id="Trazado_612632" data-name="Trazado 612632" d="M752.511,1374.979,719.905,1392l17.091,45.4,30.429-17.046Z" transform="translate(-715.429 -1369.81)" fill="#f5f5f5"/>
            <path id="Trazado_612633" data-name="Trazado 612633" d="M748.175,1380.734l-.632-1.615c-.349-.892-3.062-.36-6.061,1.189l-5.742,2.964c-3,1.548-5.147,3.527-4.8,4.418l.631,1.615Z" transform="translate(-717.972 -1370.667)" opacity="0.15"/>
            <g id="Grupo_875335" data-name="Grupo 875335" transform="translate(9.639 3.098)">
              <path id="Trazado_612634" data-name="Trazado 612634" d="M746.553,1372.792c-.215-.557-1.4-.466-2.638.2l-2.248,1.214s-1.385-3.488-6.557-1.074-3.99,6.457-3.99,6.457l-2.386,1.315c-1.318.727-2.256,1.775-2.1,2.342l.29,1.026,20.022-10.446S746.77,1373.351,746.553,1372.792Z" transform="translate(-726.621 -1372.285)" fill="#e26c1e"/>
              <path id="Trazado_612635" data-name="Trazado 612635" d="M745.617,1375.76c-1.863.916-2.6,1.358-2.059,2.732.612,1.571,1.182,2.7,1.182,2.7l-8.856,4.633s-.737-2-1.06-2.768-.971-1.139-2.38-.4l-.525-.555,13.967-7.12Z" transform="translate(-727.846 -1372.908)" fill="#27debf"/>
              <path id="Trazado_612636" data-name="Trazado 612636" d="M745.617,1375.76c-1.863.916-2.6,1.358-2.059,2.732.612,1.571,1.182,2.7,1.182,2.7l-8.856,4.633s-.737-2-1.06-2.768-.971-1.139-2.38-.4l-.525-.555,13.967-7.12Z" transform="translate(-727.846 -1372.908)" fill="#c4581c"/>
              <path id="Trazado_612637" data-name="Trazado 612637" d="M748.669,1380.844l-.631-1.615c-.349-.892-3.063-.36-6.061,1.188l-5.742,2.965c-3,1.548-5.147,3.527-4.8,4.418l.631,1.615Z" transform="translate(-727.725 -1373.79)" fill="#e26c1e"/>
            </g>
          </g>
          <g id="Grupo_875338" data-name="Grupo 875338" transform="translate(41.828 30.891)">
            <g id="Grupo_875337" data-name="Grupo 875337">
              <path id="Trazado_612638" data-name="Trazado 612638" d="M811.415,1408.434c-8.972.78-12.795,2.416-19.531,14.562-7.311,13.183-21.362,37.041-23.145,40.053-2.479,4.19-2.948,10.564-.808,14.414,2,3.594,8.339,5.239,15.529-2.882,8.548-9.656,24.454-33.24,24.454-33.24S821.426,1423.514,811.415,1408.434Z" transform="translate(-766.571 -1408.434)" fill="#ffa8a7"/>
            </g>
          </g>
          <path id="Trazado_612639" data-name="Trazado 612639" d="M759.073,1481.634c-6.878-.833-22.942-22.628-27.51-29.747a50.782,50.782,0,0,0-13.917-14.685c-7.281-5.378-6.221-13.642-3.044-21.217,1.1-2.622,4.83-.916,4.83-.916l1.315,3.593,2.276,6.224c1.542,1.432,2.42,1.9,2.523,1.472.194-.8-1.133-4.151-1.1-7.639.039-4.2,2.978-1.438,3.856.033a52.26,52.26,0,0,1,3.1,6.934c1.467,3.756.86,7.559,2.646,10.12s25.752,25.523,25.752,25.523Z" transform="translate(-712.166 -1378.951)" fill="#ffa8a7"/>
          <path id="Trazado_612640" data-name="Trazado 612640" d="M808.372,1407.822c-5.436-.135-11.97.733-17.029,7.306s-25.31,42.321-25.31,42.321l-11.365-10.186s-7.146,4.125-8.739,12.351a123.091,123.091,0,0,0,10.291,13.966c4.8,5.273,10.162,8.927,14.553,7.308s8.878-5.1,18.337-18.266,19.78-28.711,19.78-28.711S815.409,1418.727,808.372,1407.822Z" transform="translate(-719.971 -1377.399)" fill="#37474f"/>
        </g>
        <g id="Grupo_875340" data-name="Grupo 875340" transform="translate(81.216 36.328)">
          <path id="Trazado_612641" data-name="Trazado 612641" d="M822.182,1355.251s-4.893,7.425-4.336,8.155,4.159,1.387,4.159,1.387Z" transform="translate(-817.802 -1355.251)" fill="#f28f8f"/>
        </g>
        <g id="Grupo_875341" data-name="Grupo 875341" transform="translate(82.056 29.437)">
          <path id="Trazado_612642" data-name="Trazado 612642" d="M824.725,1357.95a5.831,5.831,0,1,1,5.831-5.832A5.838,5.838,0,0,1,824.725,1357.95Zm0-10.366a4.535,4.535,0,1,0,4.534,4.534A4.538,4.538,0,0,0,824.725,1347.584Z" transform="translate(-818.894 -1346.288)" fill="#1a2e35"/>
        </g>
        <g id="Grupo_875342" data-name="Grupo 875342" transform="translate(85.205 14.817)">
          <path id="Trazado_612643" data-name="Trazado 612643" d="M836.97,1328.241c-9.9,2.089-12.762,6.442-13.7,22.173-.975,16.438.7,21.6,2.862,23.818,1.458,1.494,9.559,1.764,13.646.637,5.115-1.411,16.674-5.507,22.088-13.775,6.367-9.728,8.04-22.912,1.222-28.321C853.5,1325.163,841,1327.391,836.97,1328.241Z" transform="translate(-822.991 -1327.272)" fill="#ffa8a7"/>
        </g>
        <path id="Trazado_612644" data-name="Trazado 612644" d="M838.436,1388.872l-.46-3.028a19.59,19.59,0,0,1-10.153,2.3C829.713,1389.078,834.642,1389.344,838.436,1388.872Z" transform="translate(-738.903 -1325.996)" fill="#f28f8f"/>
        <path id="Trazado_612645" data-name="Trazado 612645" d="M819.6,1352.288l17.607,2.278-.71,1.237-16.9-2.193Z" transform="translate(-737.002 -1318.238)" fill="#1a2e35"/>
        <g id="Grupo_875347" data-name="Grupo 875347" transform="translate(79.849)">
          <g id="Grupo_875344" data-name="Grupo 875344">
            <g id="Grupo_875343" data-name="Grupo 875343">
              <path id="Trazado_612646" data-name="Trazado 612646" d="M819.975,1330.135a5.484,5.484,0,0,0,2.236-.135,3.528,3.528,0,0,0,1.207,4.128,4.988,4.988,0,0,0,4.441.59,4.292,4.292,0,0,0-.486,3.062,4.964,4.964,0,0,0,5.13,3.7c.1,2.3.133,4.551,2.59,5.6,0,0,1.565-6.076,6.687-5.312,5.155.769,5.85,7.339,2.6,11.331-3.229,3.966-6.238,2.481-6.276,2.462.3.15.4,2.087.507,2.454a17.861,17.861,0,0,0,1.316,3.322,15.879,15.879,0,0,0,4.634,5.432c2.682,1.976,5.957,3.388,9.292,2.587a10,10,0,0,0,6.769-5.448,5.85,5.85,0,0,1,1.1-1.968,6.48,6.48,0,0,1,2.524-1.092,7.418,7.418,0,0,0,4.191-10.463,6.8,6.8,0,0,0,2.6-11.871,8.155,8.155,0,0,0,3.506-8.848,8.288,8.288,0,0,0-5.854-5.613c-2-.577-1.231-.892-1.849-2.85a7.179,7.179,0,0,0-9.121-4.706,6.918,6.918,0,0,0-4.945-5.32,6.823,6.823,0,0,0-3.5-.135c-.823.213-2.512.976-2.82,1.762-1.041-1.024-1.379-2.377-2.652-3.308a7.505,7.505,0,0,0-11.056,2.364,9.228,9.228,0,0,0-6.916-2.909,7.564,7.564,0,0,0-6.305,3.85,6.424,6.424,0,0,0,.849,7.2,7.376,7.376,0,0,0-3.825,3.31,4.637,4.637,0,0,0,.54,5.169,4,4,0,0,0,1.934,1.439A5.581,5.581,0,0,0,819.975,1330.135Z" transform="translate(-816.024 -1308)" fill="#1a2e35"/>
            </g>
          </g>
          <g id="Grupo_875346" data-name="Grupo 875346" transform="translate(15.615 35.668)">
            <g id="Grupo_875345" data-name="Grupo 875345">
              <path id="Trazado_612647" data-name="Trazado 612647" d="M839.682,1361.27l.182-6.876a3.439,3.439,0,0,0-.182,6.876Z" transform="translate(-836.334 -1354.392)" fill="#1a2e35"/>
            </g>
          </g>
        </g>
      </g>
    </g>
  </g>
</svg>
