<svg xmlns="http://www.w3.org/2000/svg" width="282.021" height="290.364" viewBox="0 0 282.021 290.364">
  <g id="Grupo_875405" data-name="Grupo 875405" transform="translate(-742.764 -472.746)">
    <g id="Grupo_875403" data-name="Grupo 875403" transform="translate(742.764 472.746)">
      <path id="Trazado_612672" data-name="Trazado 612672" d="M743.147,560.448c32.17-69.784,110.613-104.722,183.586-79.545,1.477.453,5.554,2.07,7.083,2.678,1.323.462,3.34,1.379,4.642,1.989l4.59,2.116c2.186,1.013,4.537,2.449,6.708,3.541,2.577,1.372,6.181,3.7,8.684,5.2,1.254.846,4.932,3.423,6.251,4.321a145.561,145.561,0,0,1,52.584,164.087c-.627,1.566-2.028,5.741-2.685,7.274-.5,1.164-1.507,3.6-2.011,4.765-.688,1.823-2.5,5.25-3.3,7.023-1.051,2.18-2.539,4.7-3.667,6.842-.944,1.733-3.041,4.939-4.027,6.64-.979,1.313-3.386,5.118-4.4,6.4-.78.992-2.363,3.113-3.146,4.114-2.458,3.138-5.683,6.931-8.446,9.8-32.758,35.563-84.147,52.488-131.518,42.645a4.07,4.07,0,0,1,1.238-8.037,153.115,153.115,0,0,0,38.371-.294c1.676-.237,5.475-.918,7.072-1.146,1.339-.322,5.559-1.2,6.992-1.529,5-1.265,9.93-2.81,14.81-4.479,2.526-1.038,5.234-2,7.729-3.086,1.545-.684,5-2.343,6.468-3a140.062,140.062,0,0,0,29.516-19.74c2.048-1.691,5.074-4.518,7-6.416.958-.848,2.393-2.472,3.3-3.409,47.794-49.966,50.322-130.659,5.392-183.479-55.567-66.539-159.752-65.036-212.644,4.041a129.262,129.262,0,0,0-18.659,33.8,4.071,4.071,0,1,1-7.511-3.127Z" transform="translate(-742.764 -472.746)" fill="#fda829"/>
    </g>
    <circle id="Elipse_4841" data-name="Elipse 4841" cx="121.733" cy="121.733" r="121.733" transform="translate(755.172 492.95)" fill="#148d80"/>
    <g id="Grupo_875404" data-name="Grupo 875404" transform="translate(778.695 539.287)">
      <path id="Trazado_612673" data-name="Trazado 612673" d="M858.437,664.477a2.179,2.179,0,0,0,1.546-.641l1.657-1.657a2.186,2.186,0,0,0-3.091-3.091l-1.657,1.657a2.186,2.186,0,0,0,1.546,3.732Z" transform="translate(-830.635 -624.278)" fill="#fff"/>
      <path id="Trazado_612674" data-name="Trazado 612674" d="M872.3,651.782l1.349-1.349a2.186,2.186,0,0,0-3.091-3.091l-1.349,1.349a2.186,2.186,0,1,0,3.091,3.091Z" transform="translate(-836.271 -618.901)" fill="#fff"/>
      <path id="Trazado_612675" data-name="Trazado 612675" d="M906.542,664.477a2.186,2.186,0,0,0,1.546-3.732l-1.656-1.657a2.186,2.186,0,1,0-3.093,3.091L905,663.836A2.181,2.181,0,0,0,906.542,664.477Z" transform="translate(-851.894 -624.277)" fill="#fff"/>
      <path id="Trazado_612676" data-name="Trazado 612676" d="M894.489,652.422a2.186,2.186,0,0,0,1.546-3.732l-1.349-1.349a2.186,2.186,0,0,0-3.091,3.091l1.349,1.349A2.179,2.179,0,0,0,894.489,652.422Z" transform="translate(-846.517 -618.901)" fill="#fff"/>
      <path id="Trazado_612677" data-name="Trazado 612677" d="M881,677.908a2.186,2.186,0,1,0,4.372,0v-1.844a2.186,2.186,0,0,0-4.372,0Z" transform="translate(-841.963 -631.339)" fill="#fff"/>
      <path id="Trazado_612678" data-name="Trazado 612678" d="M883.189,663.082a2.186,2.186,0,0,0,2.186-2.186v-1.5a2.186,2.186,0,0,0-4.372,0v1.5A2.186,2.186,0,0,0,883.189,663.082Z" transform="translate(-841.963 -623.709)" fill="#fff"/>
      <path id="Trazado_612679" data-name="Trazado 612679" d="M1113.486,659.088a2.185,2.185,0,0,0,0,3.091l1.657,1.657a2.186,2.186,0,0,0,3.091-3.091l-1.657-1.657A2.185,2.185,0,0,0,1113.486,659.088Z" transform="translate(-948.072 -624.278)" fill="#fff"/>
      <path id="Trazado_612680" data-name="Trazado 612680" d="M1101.74,647.341a2.186,2.186,0,0,0,0,3.091l1.349,1.349a2.186,2.186,0,0,0,3.091-3.091l-1.349-1.349A2.185,2.185,0,0,0,1101.74,647.341Z" transform="translate(-942.695 -618.901)" fill="#fff"/>
      <path id="Trazado_612681" data-name="Trazado 612681" d="M1068.694,659.088l-1.656,1.657a2.186,2.186,0,0,0,3.093,3.091l1.656-1.657a2.186,2.186,0,1,0-3.093-3.091Z" transform="translate(-926.813 -624.277)" fill="#fff"/>
      <path id="Trazado_612682" data-name="Trazado 612682" d="M1080.7,647.342l-1.349,1.349a2.186,2.186,0,0,0,3.093,3.091l1.349-1.349a2.186,2.186,0,0,0-3.093-3.091Z" transform="translate(-932.449 -618.901)" fill="#fff"/>
      <path id="Trazado_612683" data-name="Trazado 612683" d="M1093.335,673.877a2.186,2.186,0,0,0-2.186,2.186v1.844a2.186,2.186,0,1,0,4.372,0v-1.844A2.186,2.186,0,0,0,1093.335,673.877Z" transform="translate(-938.141 -631.339)" fill="#fff"/>
      <path id="Trazado_612684" data-name="Trazado 612684" d="M1095.521,659.392a2.186,2.186,0,0,0-4.372,0v1.5a2.186,2.186,0,1,0,4.372,0Z" transform="translate(-938.141 -623.709)" fill="#fff"/>
      <path id="Trazado_612685" data-name="Trazado 612685" d="M999.226,704.644a20.635,20.635,0,0,0,5.749-19.118l-.7-3.263-1.776.015a25.356,25.356,0,0,0-25.082,25.284v26.417H966.836V705.487C969.525,703.111,977.8,694.993,977.8,685c0-11.673-11.306-20.8-11.787-21.181l-1.356-1.078-1.355,1.078c-.481.382-11.787,9.508-11.787,21.181,0,9.99,8.276,18.109,10.965,20.484v28.492H951.9V707.562a25.356,25.356,0,0,0-25.082-25.284l-1.777-.015-.7,3.263a20.734,20.734,0,0,0,23.2,24.854v23.6h-31.1V620.752l11.877-11.877h29.326v7.135a4.763,4.763,0,0,0,4.758,4.758h3.615a4.763,4.763,0,0,0,4.758-4.758v-7.135H973.9a3.168,3.168,0,0,0,3.168-3.168v-7.1a3.168,3.168,0,0,0-3.168-3.168H840.551a3.169,3.169,0,0,0-3.168,3.168v7.1a3.169,3.169,0,0,0,3.168,3.168h3.127v7.135a4.763,4.763,0,0,0,4.758,4.758h3.615a4.763,4.763,0,0,0,4.758-4.758v-7.135h29.326l11.877,11.877V733.979h-31.1v-23.6a20.736,20.736,0,0,0,23.2-24.854l-.7-3.263-1.776.015a25.356,25.356,0,0,0-25.082,25.284v26.417H851.974V705.487c2.69-2.375,10.965-10.494,10.965-20.484,0-11.673-11.306-20.8-11.786-21.181l-1.357-1.078-1.355,1.078c-.481.382-11.787,9.508-11.787,21.181,0,9.99,8.276,18.109,10.965,20.484v28.492H837.034V707.562a25.356,25.356,0,0,0-25.082-25.284l-1.777-.015-.7,3.263a20.734,20.734,0,0,0,23.2,24.854v23.6h-7.87a3.168,3.168,0,0,0-3.168,3.168v2.776a3.168,3.168,0,0,0,3.168,3.168H989.646a3.168,3.168,0,0,0,3.168-3.168v-2.776a3.168,3.168,0,0,0-3.168-3.168h-7.871v-23.6A20.618,20.618,0,0,0,999.226,704.644Z" transform="translate(-809.017 -595.441)" fill="#fff"/>
    </g>
  </g>
</svg>
