<svg xmlns="http://www.w3.org/2000/svg" width="578" height="63.166" viewBox="0 0 578 63.166">
  <g id="Grupo_874774" data-name="Grupo 874774" transform="translate(-446.211 -864.729)">
    <g id="Grupo_874705" data-name="Grupo 874705" transform="translate(446.211 886.738)">
      <g id="Grupo_874698" data-name="Grupo 874698" transform="translate(0 5.189)">
        <path id="Trazado_603817" data-name="Trazado 603817" d="M450.336,909.676a2.245,2.245,0,0,0,1.71-.634,3.679,3.679,0,0,0,.969-1.891l1.95-.011a5.126,5.126,0,0,1-1.615,3.146,4.3,4.3,0,0,1-3.134,1.184,3.86,3.86,0,0,1-2.728-1.028,4.457,4.457,0,0,1-1.22-2.788,9.365,9.365,0,0,1,.012-2.165l.167-1.3a8.281,8.281,0,0,1,1.848-4.617,4.713,4.713,0,0,1,3.786-1.531,3.447,3.447,0,0,1,2.781,1.316,5.028,5.028,0,0,1,.9,3.386l-1.95-.012q.072-2.811-1.854-2.883-2.811-.108-3.4,4.007a18.962,18.962,0,0,0-.3,3.469Q448.385,909.641,450.336,909.676Z" transform="translate(-446.211 -898.034)" fill="#12263f"/>
      </g>
      <g id="Grupo_874699" data-name="Grupo 874699" transform="translate(11.103 5.179)">
        <path id="Trazado_603818" data-name="Trazado 603818" d="M465.99,911.217a3.026,3.026,0,0,1-.06-.706l.047-.706a3.882,3.882,0,0,1-2.967,1.663,3.02,3.02,0,0,1-2.422-1.01,3.627,3.627,0,0,1-.772-2.674,4.281,4.281,0,0,1,1.657-3.218,6.258,6.258,0,0,1,4-1.208h1.436l.2-1.376q.216-2.141-1.615-2.141a2.286,2.286,0,0,0-1.573.556,2.489,2.489,0,0,0-.8,1.454l-2.046.012a3.966,3.966,0,0,1,1.49-2.752,4.651,4.651,0,0,1,3.14-1.089,3.493,3.493,0,0,1,2.686,1.071,3.677,3.677,0,0,1,.759,2.925l-1.053,6.376a6.728,6.728,0,0,0-.084,1.3l.072,1.317-.024.2Zm-2.548-1.663a3.275,3.275,0,0,0,2.679-1.52l.538-3.1-.945-.011a4.993,4.993,0,0,0-2.165.448,2.7,2.7,0,0,0-1.334,1.244,2.988,2.988,0,0,0-.269,1.729A1.307,1.307,0,0,0,463.442,909.554Z" transform="translate(-459.807 -898.021)" fill="#12263f"/>
      </g>
      <g id="Grupo_874700" data-name="Grupo 874700" transform="translate(22.919 5.431)">
        <path id="Trazado_603819" data-name="Trazado 603819" d="M480.223,910.137a3.816,3.816,0,0,1-3.1,1.387,2.539,2.539,0,0,1-2.112-1,4.487,4.487,0,0,1-.736-2.74l.06-1.089,1.4-8.361h2.046l-1.387,8.406-.047.874a2.556,2.556,0,0,0,.281,1.444,1.121,1.121,0,0,0,.987.593,3.09,3.09,0,0,0,2.848-1.713l1.65-9.6h2.069l-2.237,12.944H480Z" transform="translate(-474.277 -898.33)" fill="#12263f"/>
      </g>
      <g id="Grupo_874701" data-name="Grupo 874701" transform="translate(34.368)">
        <path id="Trazado_603820" data-name="Trazado 603820" d="M493.608,896.884a2.99,2.99,0,0,1,2.656,1.507l1.245-6.71h2.069L496.4,910.054h-1.877l.227-1.388a3.643,3.643,0,0,1-3.075,1.628,2.944,2.944,0,0,1-2.494-1.256,6.022,6.022,0,0,1-.88-3.53,19.27,19.27,0,0,1,.275-2.823,11.057,11.057,0,0,1,.849-2.978A4.275,4.275,0,0,1,493.608,896.884Zm-3.253,9.139q.06,2.381,1.974,2.416a2.366,2.366,0,0,0,1.3-.341,4.365,4.365,0,0,0,1.256-1.25l1.125-6.555a2.173,2.173,0,0,0-2-1.556q-2.834-.143-3.421,4.163A18.916,18.916,0,0,0,490.355,906.022Z" transform="translate(-488.297 -891.68)" fill="#12263f"/>
      </g>
      <g id="Grupo_874702" data-name="Grupo 874702" transform="translate(45.908 5.179)">
        <path id="Trazado_603821" data-name="Trazado 603821" d="M508.611,911.217a3.073,3.073,0,0,1-.06-.706l.048-.706a3.882,3.882,0,0,1-2.967,1.663,3.02,3.02,0,0,1-2.422-1.01,3.627,3.627,0,0,1-.772-2.674,4.278,4.278,0,0,1,1.657-3.218,6.256,6.256,0,0,1,4-1.208h1.435l.2-1.376q.216-2.141-1.614-2.141a2.284,2.284,0,0,0-1.573.556,2.484,2.484,0,0,0-.8,1.454l-2.046.012a3.968,3.968,0,0,1,1.489-2.752,4.653,4.653,0,0,1,3.141-1.089,3.491,3.491,0,0,1,2.685,1.071,3.671,3.671,0,0,1,.759,2.925l-1.053,6.376a6.66,6.66,0,0,0-.083,1.3l.072,1.317-.025.2Zm-2.549-1.663a3.276,3.276,0,0,0,2.68-1.52l.538-3.1-.945-.011a5,5,0,0,0-2.166.448,2.7,2.7,0,0,0-1.334,1.244,3,3,0,0,0-.27,1.729A1.307,1.307,0,0,0,506.062,909.554Z" transform="translate(-502.428 -898.021)" fill="#12263f"/>
      </g>
      <g id="Grupo_874703" data-name="Grupo 874703" transform="translate(57.127)">
        <path id="Trazado_603822" data-name="Trazado 603822" d="M518.235,910.054h-2.069l3.194-18.374h2.069Z" transform="translate(-516.166 -891.68)" fill="#12263f"/>
      </g>
      <g id="Grupo_874704" data-name="Grupo 874704" transform="translate(135.802 6.71)">
        <path id="Trazado_603823" data-name="Trazado 603823" d="M620.653,906.788h-8.146l.335-1.914H621Zm.862-4.964h-8.146l.335-1.926h8.158Z" transform="translate(-612.507 -899.897)" fill="#12263f"/>
      </g>
    </g>
    <g id="Grupo_874741" data-name="Grupo 874741" transform="translate(611.836 902.595)">
      <g id="Grupo_874706" data-name="Grupo 874706" transform="translate(0 2.249)">
        <path id="Trazado_603824" data-name="Trazado 603824" d="M660.043,915.729h-4.438l-2.692,15.54h-2.141l2.691-15.54h-4.438l.335-1.877h11.017Z" transform="translate(-649.026 -913.852)" fill="#12263f"/>
      </g>
      <g id="Grupo_874707" data-name="Grupo 874707" transform="translate(10.68 1.996)">
        <path id="Trazado_603825" data-name="Trazado 603825" d="M664.173,931.212H662.1l2.248-12.944h2.07Zm.657-16.365a1.5,1.5,0,0,1,.336-.9,1.1,1.1,0,0,1,.849-.407,1.025,1.025,0,0,1,.849.347,1.236,1.236,0,0,1,.31.921,1.463,1.463,0,0,1-.341.9,1.1,1.1,0,0,1-.855.389,1.006,1.006,0,0,1-.849-.347A1.248,1.248,0,0,1,664.831,914.848Z" transform="translate(-662.104 -913.542)" fill="#12263f"/>
      </g>
      <g id="Grupo_874708" data-name="Grupo 874708" transform="translate(16.902 6.481)">
        <path id="Trazado_603826" data-name="Trazado 603826" d="M673.827,932.459a3.759,3.759,0,0,1-3.253-1.567,6.067,6.067,0,0,1-.79-4.211l.155-1.28a8.713,8.713,0,0,1,1.837-4.719,4.528,4.528,0,0,1,3.726-1.645,3.383,3.383,0,0,1,2.769,1.263,5.322,5.322,0,0,1,.88,3.415l-.108,1.435-.18,1.232-6.938-.011a11.019,11.019,0,0,0-.144,1.686,2.97,2.97,0,0,0,.6,1.9,2.044,2.044,0,0,0,1.638.7,3.453,3.453,0,0,0,1.513-.305,5.373,5.373,0,0,0,1.574-1.154l.969,1.352a4.529,4.529,0,0,1-1.89,1.472A5.8,5.8,0,0,1,673.827,932.459Zm1.543-11.616q-2.118-.1-2.967,2.56l-.323,1.16,4.964.011.06-.311a8.952,8.952,0,0,0,.072-1.148Q677.129,920.939,675.37,920.843Z" transform="translate(-669.723 -919.034)" fill="#12263f"/>
      </g>
      <g id="Grupo_874709" data-name="Grupo 874709" transform="translate(27.208 6.471)">
        <path id="Trazado_603827" data-name="Trazado 603827" d="M686.519,919.261l-.251,1.209a4.066,4.066,0,0,1,3.182-1.436,3.1,3.1,0,0,1,1.657.491,2.522,2.522,0,0,1,1.011,1.375,4.414,4.414,0,0,1,3.529-1.878,2.827,2.827,0,0,1,2.058.826,3.509,3.509,0,0,1,.873,2.2,8.906,8.906,0,0,1-.011,1.663l-1.424,8.505H695.1l1.412-8.53.036-1a2,2,0,0,0-.448-1.322,1.548,1.548,0,0,0-1.214-.472,2.214,2.214,0,0,0-1.7.765,3.405,3.405,0,0,0-.921,1.878v.06l-1.472,8.625h-2.082l1.423-8.517a6.729,6.729,0,0,0,.025-.981q-.085-1.759-1.628-1.819a2.791,2.791,0,0,0-2.452,1.6l-1.675,9.714h-2.058l2.249-12.944Z" transform="translate(-682.344 -919.022)" fill="#12263f"/>
      </g>
      <g id="Grupo_874710" data-name="Grupo 874710" transform="translate(44.448 6.471)">
        <path id="Trazado_603828" data-name="Trazado 603828" d="M709.448,932.468a3.192,3.192,0,0,1-2.775-1.5l-1.16,6.22h-2.058l3.111-17.919,1.854-.012-.239,1.448a3.81,3.81,0,0,1,3.146-1.687,2.945,2.945,0,0,1,2.572,1.286,5.857,5.857,0,0,1,.777,3.5,26.334,26.334,0,0,1-.275,2.715,11.886,11.886,0,0,1-.706,2.811Q712.379,932.551,709.448,932.468Zm3.17-9.163q-.18-2.369-2.033-2.4a3,3,0,0,0-2.513,1.52l-1.161,6.758a2.147,2.147,0,0,0,1.986,1.483,2.718,2.718,0,0,0,2.3-.992,6.28,6.28,0,0,0,1.184-3.278A20,20,0,0,0,712.618,923.305Z" transform="translate(-703.455 -919.022)" fill="#12263f"/>
      </g>
      <g id="Grupo_874711" data-name="Grupo 874711" transform="translate(57.761 6.481)">
        <path id="Trazado_603829" data-name="Trazado 603829" d="M719.961,925.173a8.356,8.356,0,0,1,1.908-4.492,4.715,4.715,0,0,1,3.822-1.645,3.773,3.773,0,0,1,2.393.831,4.379,4.379,0,0,1,1.37,2.2,7.754,7.754,0,0,1,.221,3.086l-.144,1.221a8.208,8.208,0,0,1-1.914,4.461,4.743,4.743,0,0,1-3.816,1.628,3.8,3.8,0,0,1-2.392-.826,4.334,4.334,0,0,1-1.37-2.189,7.684,7.684,0,0,1-.221-3.074Zm1.855,2.069a4.64,4.64,0,0,0,.5,2.488,1.858,1.858,0,0,0,1.609.933,2.74,2.74,0,0,0,2.3-.987,6.1,6.1,0,0,0,1.221-3.14l.179-1.4.06-.862a4.59,4.59,0,0,0-.509-2.5,1.878,1.878,0,0,0-1.609-.933,2.7,2.7,0,0,0-2.351,1.166,6.968,6.968,0,0,0-1.214,3.4l-.144,1.184Z" transform="translate(-719.757 -919.034)" fill="#12263f"/>
      </g>
      <g id="Grupo_874712" data-name="Grupo 874712" transform="translate(75.273 6.481)">
        <path id="Trazado_603830" data-name="Trazado 603830" d="M746.561,919.036a2.985,2.985,0,0,1,2.679,1.519l.4-1.28h1.9L748.427,937.2h-2.069l1.173-6.112a3.6,3.6,0,0,1-2.895,1.376,3.006,3.006,0,0,1-2.59-1.292,5.81,5.81,0,0,1-.843-3.458,21.7,21.7,0,0,1,.269-2.751,11.605,11.605,0,0,1,.808-2.991A4.331,4.331,0,0,1,746.561,919.036Zm-3.3,9.163q.12,2.428,2.01,2.464a3.043,3.043,0,0,0,2.476-1.423l1.2-6.974A2.174,2.174,0,0,0,747,920.843a2.718,2.718,0,0,0-2.309,1A6.325,6.325,0,0,0,743.5,925.1,19.358,19.358,0,0,0,743.26,928.2Z" transform="translate(-741.201 -919.034)" fill="#12263f"/>
      </g>
      <g id="Grupo_874713" data-name="Grupo 874713" transform="translate(87.133 6.722)">
        <path id="Trazado_603831" data-name="Trazado 603831" d="M761.669,931.137a3.814,3.814,0,0,1-3.1,1.387,2.538,2.538,0,0,1-2.111-1,4.482,4.482,0,0,1-.736-2.74l.06-1.089,1.4-8.361h2.046l-1.387,8.406-.048.874a2.563,2.563,0,0,0,.282,1.444,1.121,1.121,0,0,0,.986.593,3.088,3.088,0,0,0,2.847-1.713l1.651-9.6h2.069l-2.237,12.944h-1.95Z" transform="translate(-755.724 -919.33)" fill="#12263f"/>
      </g>
      <g id="Grupo_874714" data-name="Grupo 874714" transform="translate(98.748 6.481)">
        <path id="Trazado_603832" data-name="Trazado 603832" d="M774.052,932.459a3.759,3.759,0,0,1-3.254-1.567,6.071,6.071,0,0,1-.79-4.211l.156-1.28A8.713,8.713,0,0,1,772,920.681a4.53,4.53,0,0,1,3.726-1.645A3.387,3.387,0,0,1,778.5,920.3a5.332,5.332,0,0,1,.879,3.415l-.109,1.435-.179,1.232-6.938-.011a11.017,11.017,0,0,0-.144,1.686,2.965,2.965,0,0,0,.6,1.9,2.047,2.047,0,0,0,1.639.7,3.453,3.453,0,0,0,1.513-.305,5.381,5.381,0,0,0,1.573-1.154l.969,1.352a4.529,4.529,0,0,1-1.89,1.472A5.8,5.8,0,0,1,774.052,932.459Zm1.543-11.616q-2.118-.1-2.968,2.56l-.323,1.16,4.965.011.059-.311a8.963,8.963,0,0,0,.072-1.148Q777.354,920.939,775.6,920.843Z" transform="translate(-769.948 -919.034)" fill="#12263f"/>
      </g>
      <g id="Grupo_874715" data-name="Grupo 874715" transform="translate(115.364 1.292)">
        <path id="Trazado_603833" data-name="Trazado 603833" d="M795.606,917.884a2.991,2.991,0,0,1,2.656,1.507l1.245-6.71h2.069l-3.182,18.374h-1.877l.227-1.388a3.643,3.643,0,0,1-3.075,1.628,2.943,2.943,0,0,1-2.494-1.256,6.028,6.028,0,0,1-.88-3.529,19.28,19.28,0,0,1,.275-2.823,11.06,11.06,0,0,1,.849-2.978A4.275,4.275,0,0,1,795.606,917.884Zm-3.253,9.139q.06,2.381,1.974,2.416a2.365,2.365,0,0,0,1.3-.341,4.364,4.364,0,0,0,1.256-1.25l1.125-6.555a2.173,2.173,0,0,0-2-1.556q-2.835-.143-3.421,4.163A19.011,19.011,0,0,0,792.353,927.022Z" transform="translate(-790.295 -912.68)" fill="#12263f"/>
      </g>
      <g id="Grupo_874716" data-name="Grupo 874716" transform="translate(127.446 6.481)">
        <path id="Trazado_603834" data-name="Trazado 603834" d="M809.194,932.459a3.759,3.759,0,0,1-3.253-1.567,6.071,6.071,0,0,1-.79-4.211l.155-1.28a8.707,8.707,0,0,1,1.837-4.719,4.528,4.528,0,0,1,3.726-1.645,3.386,3.386,0,0,1,2.77,1.263,5.332,5.332,0,0,1,.879,3.415l-.108,1.435-.18,1.232-6.938-.011a11.128,11.128,0,0,0-.144,1.686,2.97,2.97,0,0,0,.6,1.9,2.046,2.046,0,0,0,1.639.7,3.45,3.45,0,0,0,1.512-.305,5.384,5.384,0,0,0,1.574-1.154l.969,1.352a4.53,4.53,0,0,1-1.89,1.472A5.8,5.8,0,0,1,809.194,932.459Zm1.543-11.616q-2.118-.1-2.967,2.56l-.323,1.16,4.964.011.06-.311a8.963,8.963,0,0,0,.072-1.148Q812.5,920.939,810.737,920.843Z" transform="translate(-805.09 -919.034)" fill="#12263f"/>
      </g>
      <g id="Grupo_874717" data-name="Grupo 874717" transform="translate(137.753 6.471)">
        <path id="Trazado_603835" data-name="Trazado 603835" d="M821.886,919.261l-.251,1.209a4.065,4.065,0,0,1,3.182-1.436,3.106,3.106,0,0,1,1.657.491,2.526,2.526,0,0,1,1.011,1.375,4.413,4.413,0,0,1,3.529-1.878,2.83,2.83,0,0,1,2.058.826,3.513,3.513,0,0,1,.873,2.2,8.917,8.917,0,0,1-.012,1.663l-1.423,8.505h-2.046l1.412-8.53.036-1a2,2,0,0,0-.449-1.322,1.547,1.547,0,0,0-1.214-.472,2.217,2.217,0,0,0-1.7.765,3.412,3.412,0,0,0-.921,1.878v.06l-1.471,8.625h-2.082L825.5,923.7a6.621,6.621,0,0,0,.024-.981q-.083-1.759-1.627-1.819a2.793,2.793,0,0,0-2.452,1.6l-1.675,9.714h-2.057l2.249-12.944Z" transform="translate(-817.711 -919.022)" fill="#12263f"/>
      </g>
      <g id="Grupo_874718" data-name="Grupo 874718" transform="translate(156.487 6.481)">
        <path id="Trazado_603836" data-name="Trazado 603836" d="M840.856,925.173a8.361,8.361,0,0,1,1.908-4.492,4.718,4.718,0,0,1,3.823-1.645,3.773,3.773,0,0,1,2.393.831,4.372,4.372,0,0,1,1.369,2.2,7.736,7.736,0,0,1,.222,3.086l-.144,1.221a8.206,8.206,0,0,1-1.914,4.461,4.743,4.743,0,0,1-3.816,1.628,3.8,3.8,0,0,1-2.392-.826,4.334,4.334,0,0,1-1.369-2.189,7.67,7.67,0,0,1-.221-3.074Zm1.855,2.069a4.639,4.639,0,0,0,.5,2.488,1.858,1.858,0,0,0,1.609.933,2.74,2.74,0,0,0,2.3-.987,6.1,6.1,0,0,0,1.221-3.14l.179-1.4.06-.862a4.6,4.6,0,0,0-.508-2.5,1.881,1.881,0,0,0-1.61-.933,2.7,2.7,0,0,0-2.351,1.166,6.961,6.961,0,0,0-1.214,3.4l-.144,1.184Z" transform="translate(-840.652 -919.034)" fill="#12263f"/>
      </g>
      <g id="Grupo_874719" data-name="Grupo 874719" transform="translate(167.914 6.459)">
        <path id="Trazado_603837" data-name="Trazado 603837" d="M861.821,921.245a4.543,4.543,0,0,0-.921-.108,2.972,2.972,0,0,0-2.584,1.806l-1.6,9.271h-2.069l2.248-12.944,2-.012-.287,1.328a3.076,3.076,0,0,1,2.56-1.579,4.36,4.36,0,0,1,.885.18Z" transform="translate(-854.644 -919.007)" fill="#12263f"/>
      </g>
      <g id="Grupo_874720" data-name="Grupo 874720" transform="translate(175.715 6.47)">
        <path id="Trazado_603838" data-name="Trazado 603838" d="M870.38,932.217a3.072,3.072,0,0,1-.06-.706l.048-.706a3.882,3.882,0,0,1-2.967,1.663,3.019,3.019,0,0,1-2.422-1.01,3.623,3.623,0,0,1-.772-2.674,4.276,4.276,0,0,1,1.657-3.218,6.254,6.254,0,0,1,4-1.208H871.3l.2-1.376q.214-2.141-1.615-2.141a2.29,2.29,0,0,0-1.574.556,2.492,2.492,0,0,0-.795,1.454l-2.046.012a3.963,3.963,0,0,1,1.49-2.752,4.65,4.65,0,0,1,3.14-1.089,3.493,3.493,0,0,1,2.685,1.071,3.674,3.674,0,0,1,.759,2.925l-1.053,6.376a6.659,6.659,0,0,0-.083,1.3l.072,1.316-.024.2Zm-2.549-1.663a3.276,3.276,0,0,0,2.68-1.52l.538-3.1-.945-.011a5,5,0,0,0-2.166.448,2.7,2.7,0,0,0-1.334,1.244,2.989,2.989,0,0,0-.27,1.729A1.307,1.307,0,0,0,867.831,930.554Z" transform="translate(-864.197 -919.021)" fill="#12263f"/>
      </g>
      <g id="Grupo_874721" data-name="Grupo 874721" transform="translate(193.009 6.481)">
        <path id="Trazado_603839" data-name="Trazado 603839" d="M889.478,932.459a3.759,3.759,0,0,1-3.253-1.567,6.071,6.071,0,0,1-.79-4.211l.156-1.28a8.7,8.7,0,0,1,1.836-4.719,4.528,4.528,0,0,1,3.726-1.645,3.386,3.386,0,0,1,2.77,1.263,5.327,5.327,0,0,1,.879,3.415l-.108,1.435-.18,1.232-6.938-.011a11,11,0,0,0-.143,1.686,2.965,2.965,0,0,0,.6,1.9,2.047,2.047,0,0,0,1.639.7,3.449,3.449,0,0,0,1.512-.305,5.373,5.373,0,0,0,1.574-1.154l.969,1.352a4.532,4.532,0,0,1-1.891,1.472A5.8,5.8,0,0,1,889.478,932.459Zm1.543-11.616q-2.117-.1-2.967,2.56l-.323,1.16,4.964.011.06-.311a8.811,8.811,0,0,0,.072-1.148Q892.78,920.939,891.021,920.843Z" transform="translate(-885.374 -919.034)" fill="#12263f"/>
      </g>
      <g id="Grupo_874722" data-name="Grupo 874722" transform="translate(203.548 6.483)">
        <path id="Trazado_603840" data-name="Trazado 603840" d="M902.467,919.264l-.275,1.412a4.068,4.068,0,0,1,3.206-1.639,2.5,2.5,0,0,1,1.956.838,3.691,3.691,0,0,1,.82,2.248,9.928,9.928,0,0,1-.036,1.615l-1.412,8.482h-2.057l1.423-8.517.047-.945q0-1.83-1.507-1.866a2.828,2.828,0,0,0-2.3,1.4l-.358.514-1.628,9.415H898.28l2.249-12.944Z" transform="translate(-898.28 -919.037)" fill="#12263f"/>
      </g>
      <g id="Grupo_874723" data-name="Grupo 874723" transform="translate(220.771 1.292)">
        <path id="Trazado_603841" data-name="Trazado 603841" d="M921.44,931.054h-2.069l3.194-18.374h2.069Z" transform="translate(-919.371 -912.68)" fill="#12263f"/>
      </g>
      <g id="Grupo_874724" data-name="Grupo 874724" transform="translate(226.334 1.292)">
        <path id="Trazado_603842" data-name="Trazado 603842" d="M928.252,931.054h-2.069l3.194-18.374h2.069Z" transform="translate(-926.183 -912.68)" fill="#12263f"/>
      </g>
      <g id="Grupo_874725" data-name="Grupo 874725" transform="translate(232.213 6.481)">
        <path id="Trazado_603843" data-name="Trazado 603843" d="M937.485,932.459a3.759,3.759,0,0,1-3.253-1.567,6.071,6.071,0,0,1-.79-4.211l.156-1.28a8.7,8.7,0,0,1,1.836-4.719,4.528,4.528,0,0,1,3.726-1.645,3.386,3.386,0,0,1,2.77,1.263,5.332,5.332,0,0,1,.879,3.415l-.108,1.435-.18,1.232-6.938-.011a11.112,11.112,0,0,0-.144,1.686,2.97,2.97,0,0,0,.6,1.9,2.046,2.046,0,0,0,1.639.7,3.449,3.449,0,0,0,1.512-.305,5.373,5.373,0,0,0,1.574-1.154l.969,1.352a4.529,4.529,0,0,1-1.89,1.472A5.8,5.8,0,0,1,937.485,932.459Zm1.543-11.616q-2.118-.1-2.967,2.56l-.323,1.16,4.964.011.06-.311a8.8,8.8,0,0,0,.072-1.148Q940.787,920.939,939.028,920.843Z" transform="translate(-933.381 -919.034)" fill="#12263f"/>
      </g>
      <g id="Grupo_874726" data-name="Grupo 874726" transform="translate(242.753 6.483)">
        <path id="Trazado_603844" data-name="Trazado 603844" d="M950.475,919.264l-.275,1.412a4.067,4.067,0,0,1,3.206-1.639,2.5,2.5,0,0,1,1.955.838,3.681,3.681,0,0,1,.82,2.248,9.832,9.832,0,0,1-.036,1.615l-1.411,8.482h-2.058L954.1,923.7l.047-.945q0-1.83-1.507-1.866a2.828,2.828,0,0,0-2.3,1.4l-.359.514-1.627,9.415h-2.069l2.249-12.944Z" transform="translate(-946.288 -919.037)" fill="#12263f"/>
      </g>
      <g id="Grupo_874727" data-name="Grupo 874727" transform="translate(254.752 6.47)">
        <path id="Trazado_603845" data-name="Trazado 603845" d="M967.164,932.217a3.031,3.031,0,0,1-.06-.706l.047-.706a3.882,3.882,0,0,1-2.967,1.663,3.02,3.02,0,0,1-2.422-1.01,3.623,3.623,0,0,1-.772-2.674,4.278,4.278,0,0,1,1.657-3.218,6.256,6.256,0,0,1,4-1.208h1.436l.2-1.376q.214-2.141-1.615-2.141a2.29,2.29,0,0,0-1.574.556,2.5,2.5,0,0,0-.794,1.454l-2.046.012a3.963,3.963,0,0,1,1.49-2.752,4.649,4.649,0,0,1,3.14-1.089,3.491,3.491,0,0,1,2.685,1.071,3.674,3.674,0,0,1,.76,2.925l-1.053,6.376a6.661,6.661,0,0,0-.084,1.3l.072,1.316-.024.2Zm-2.548-1.663a3.276,3.276,0,0,0,2.679-1.52l.538-3.1-.945-.011a5,5,0,0,0-2.166.448,2.7,2.7,0,0,0-1.333,1.244,2.976,2.976,0,0,0-.27,1.729A1.307,1.307,0,0,0,964.616,930.554Z" transform="translate(-960.981 -919.021)" fill="#12263f"/>
      </g>
      <g id="Grupo_874728" data-name="Grupo 874728" transform="translate(265.803 6.459)">
        <path id="Trazado_603846" data-name="Trazado 603846" d="M981.691,921.245a4.543,4.543,0,0,0-.921-.108,2.973,2.973,0,0,0-2.584,1.806l-1.6,9.271h-2.069l2.249-12.944,2-.012-.287,1.328a3.076,3.076,0,0,1,2.56-1.579,4.361,4.361,0,0,1,.885.18Z" transform="translate(-974.514 -919.007)" fill="#12263f"/>
      </g>
      <g id="Grupo_874729" data-name="Grupo 874729" transform="translate(273.454 6.483)">
        <path id="Trazado_603847" data-name="Trazado 603847" d="M990.324,928.81q.154-1.137-1.268-1.891l-1.6-.837a4.752,4.752,0,0,1-1.741-1.472,2.95,2.95,0,0,1-.436-1.806,3.744,3.744,0,0,1,1.34-2.715,4.387,4.387,0,0,1,3.038-1.053,3.6,3.6,0,0,1,2.715,1.142,3.776,3.776,0,0,1,.91,2.793h-2.046a2.247,2.247,0,0,0-.431-1.525,1.612,1.612,0,0,0-1.267-.581,2.233,2.233,0,0,0-1.52.521,2.127,2.127,0,0,0-.718,1.345,1.532,1.532,0,0,0,.946,1.592l2.021,1.028a3.464,3.464,0,0,1,2.117,3.3,3.779,3.779,0,0,1-1.411,2.806,4.641,4.641,0,0,1-3.146,1,3.939,3.939,0,0,1-2.895-1.166,3.818,3.818,0,0,1-1.04-2.949l2.082.011a2.411,2.411,0,0,0,.49,1.7,1.845,1.845,0,0,0,1.459.581,2.614,2.614,0,0,0,1.645-.5A1.929,1.929,0,0,0,990.324,928.81Z" transform="translate(-983.884 -919.036)" fill="#12263f"/>
      </g>
      <g id="Grupo_874730" data-name="Grupo 874730" transform="translate(284.699 6.481)">
        <path id="Trazado_603848" data-name="Trazado 603848" d="M1001.758,932.459a3.759,3.759,0,0,1-3.254-1.567,6.067,6.067,0,0,1-.789-4.211l.155-1.28a8.713,8.713,0,0,1,1.836-4.719,4.529,4.529,0,0,1,3.726-1.645,3.386,3.386,0,0,1,2.77,1.263,5.326,5.326,0,0,1,.879,3.415l-.108,1.435-.179,1.232-6.938-.011a11.015,11.015,0,0,0-.144,1.686,2.97,2.97,0,0,0,.6,1.9,2.047,2.047,0,0,0,1.639.7,3.455,3.455,0,0,0,1.513-.305,5.372,5.372,0,0,0,1.573-1.154l.969,1.352a4.532,4.532,0,0,1-1.891,1.472A5.793,5.793,0,0,1,1001.758,932.459Zm1.543-11.616q-2.117-.1-2.966,2.56l-.323,1.16,4.964.011.06-.311a8.811,8.811,0,0,0,.072-1.148Q1005.059,920.939,1003.3,920.843Z" transform="translate(-997.654 -919.034)" fill="#12263f"/>
      </g>
      <g id="Grupo_874731" data-name="Grupo 874731" transform="translate(301.767)">
        <path id="Trazado_603849" data-name="Trazado 603849" d="M1025.6,911.1l.274,1.483a14.207,14.207,0,0,0-3.54,5.4,29.273,29.273,0,0,0-1.747,8.11l-.084,1.52a16.258,16.258,0,0,0,.377,4.378,7.181,7.181,0,0,0,1.477,3.062l-.538,1.328a8.432,8.432,0,0,1-1.926-2.62,12.765,12.765,0,0,1-1.1-3.649,19.86,19.86,0,0,1-.216-4.127q.048-1.1.191-2.105l.144-.873a23.3,23.3,0,0,1,2.495-7.333A11.877,11.877,0,0,1,1025.6,911.1Z" transform="translate(-1018.554 -911.098)" fill="#12263f"/>
      </g>
      <g id="Grupo_874732" data-name="Grupo 874732" transform="translate(308.619 6.483)">
        <path id="Trazado_603850" data-name="Trazado 603850" d="M1033.385,928.81q.155-1.137-1.268-1.891l-1.6-.837a4.757,4.757,0,0,1-1.74-1.472,2.95,2.95,0,0,1-.437-1.806,3.747,3.747,0,0,1,1.34-2.715,4.391,4.391,0,0,1,3.039-1.053,3.6,3.6,0,0,1,2.715,1.142,3.772,3.772,0,0,1,.909,2.793h-2.046a2.246,2.246,0,0,0-.43-1.525,1.614,1.614,0,0,0-1.268-.581,2.229,2.229,0,0,0-1.519.521,2.127,2.127,0,0,0-.718,1.345,1.532,1.532,0,0,0,.945,1.592l2.022,1.028a3.465,3.465,0,0,1,2.117,3.3,3.777,3.777,0,0,1-1.412,2.806,4.64,4.64,0,0,1-3.146,1,3.938,3.938,0,0,1-2.895-1.166,3.818,3.818,0,0,1-1.041-2.949l2.082.011a2.411,2.411,0,0,0,.491,1.7,1.844,1.844,0,0,0,1.459.581,2.614,2.614,0,0,0,1.644-.5A1.927,1.927,0,0,0,1033.385,928.81Z" transform="translate(-1026.945 -919.036)" fill="#12263f"/>
      </g>
      <g id="Grupo_874733" data-name="Grupo 874733" transform="translate(320.11 6.481)">
        <path id="Trazado_603851" data-name="Trazado 603851" d="M1045.12,932.459a3.759,3.759,0,0,1-3.253-1.567,6.066,6.066,0,0,1-.79-4.211l.155-1.28a8.714,8.714,0,0,1,1.836-4.719,4.531,4.531,0,0,1,3.727-1.645,3.383,3.383,0,0,1,2.769,1.263,5.326,5.326,0,0,1,.88,3.415l-.108,1.435-.18,1.232-6.938-.011a11.011,11.011,0,0,0-.144,1.686,2.971,2.971,0,0,0,.6,1.9,2.045,2.045,0,0,0,1.638.7,3.453,3.453,0,0,0,1.513-.305,5.383,5.383,0,0,0,1.574-1.154l.969,1.352a4.53,4.53,0,0,1-1.89,1.472A5.8,5.8,0,0,1,1045.12,932.459Zm1.543-11.616q-2.118-.1-2.967,2.56l-.323,1.16,4.964.011.06-.311a8.952,8.952,0,0,0,.072-1.148Q1048.422,920.939,1046.663,920.843Z" transform="translate(-1041.016 -919.034)" fill="#12263f"/>
      </g>
      <g id="Grupo_874734" data-name="Grupo 874734" transform="translate(330.153 6.481)">
        <path id="Trazado_603852" data-name="Trazado 603852" d="M1059.439,919.036a2.943,2.943,0,0,1,2.74,1.7l.43-1.459h1.878l-2.213,13.051a6.9,6.9,0,0,1-.9,2.691,4.7,4.7,0,0,1-1.812,1.759,4.914,4.914,0,0,1-2.536.55,5.164,5.164,0,0,1-2.045-.5,4.839,4.839,0,0,1-1.663-1.2l.982-1.423a3.676,3.676,0,0,0,2.644,1.316,2.882,2.882,0,0,0,2.148-.73,4.043,4.043,0,0,0,1.118-2.345l.311-1.507a3.637,3.637,0,0,1-2.991,1.52,2.927,2.927,0,0,1-2.53-1.292,5.965,5.965,0,0,1-.844-3.481,20.011,20.011,0,0,1,.227-2.584,9.148,9.148,0,0,1,1.693-4.564A3.971,3.971,0,0,1,1059.439,919.036Zm-3.23,9.154q.06,2.378,1.962,2.413a3.075,3.075,0,0,0,2.572-1.613l1.112-6.487a2.2,2.2,0,0,0-1.985-1.589q-2.871-.108-3.433,4.229A18.943,18.943,0,0,0,1056.209,928.191Z" transform="translate(-1053.314 -919.034)" fill="#12263f"/>
      </g>
      <g id="Grupo_874735" data-name="Grupo 874735" transform="translate(342.879 6.722)">
        <path id="Trazado_603853" data-name="Trazado 603853" d="M1074.843,931.137a3.816,3.816,0,0,1-3.1,1.387,2.535,2.535,0,0,1-2.111-1,4.477,4.477,0,0,1-.737-2.74l.06-1.089,1.4-8.361h2.045l-1.387,8.406-.047.874a2.569,2.569,0,0,0,.28,1.444,1.123,1.123,0,0,0,.987.593,3.089,3.089,0,0,0,2.848-1.713l1.65-9.6h2.069l-2.237,12.944h-1.95Z" transform="translate(-1068.897 -919.33)" fill="#12263f"/>
      </g>
      <g id="Grupo_874736" data-name="Grupo 874736" transform="translate(353.766 6.483)">
        <path id="Trazado_603854" data-name="Trazado 603854" d="M1086.415,919.264l-.274,1.412a4.065,4.065,0,0,1,3.205-1.639,2.5,2.5,0,0,1,1.956.838,3.68,3.68,0,0,1,.82,2.248,9.928,9.928,0,0,1-.036,1.615l-1.412,8.482h-2.057l1.423-8.517.048-.945q0-1.83-1.508-1.866a2.828,2.828,0,0,0-2.3,1.4l-.359.514-1.627,9.415h-2.069l2.248-12.944Z" transform="translate(-1082.229 -919.037)" fill="#12263f"/>
      </g>
      <g id="Grupo_874737" data-name="Grupo 874737" transform="translate(365.87 1.292)">
        <path id="Trazado_603855" data-name="Trazado 603855" d="M1102.362,917.884a2.991,2.991,0,0,1,2.656,1.507l1.244-6.71h2.069l-3.182,18.374h-1.878l.227-1.388a3.643,3.643,0,0,1-3.074,1.628,2.945,2.945,0,0,1-2.495-1.256,6.029,6.029,0,0,1-.879-3.529,19.158,19.158,0,0,1,.275-2.823,11,11,0,0,1,.849-2.978A4.273,4.273,0,0,1,1102.362,917.884Zm-3.254,9.139q.06,2.381,1.974,2.416a2.365,2.365,0,0,0,1.3-.341,4.354,4.354,0,0,0,1.256-1.25l1.125-6.555a2.172,2.172,0,0,0-2-1.556q-2.836-.143-3.422,4.163A19,19,0,0,0,1099.108,927.022Z" transform="translate(-1097.051 -912.68)" fill="#12263f"/>
      </g>
      <g id="Grupo_874738" data-name="Grupo 874738" transform="translate(377.867 6.481)">
        <path id="Trazado_603856" data-name="Trazado 603856" d="M1111.946,925.173a8.355,8.355,0,0,1,1.908-4.492,4.716,4.716,0,0,1,3.823-1.645,3.77,3.77,0,0,1,2.392.831,4.367,4.367,0,0,1,1.369,2.2,7.734,7.734,0,0,1,.222,3.086l-.144,1.221a8.211,8.211,0,0,1-1.914,4.461,4.743,4.743,0,0,1-3.816,1.628,3.794,3.794,0,0,1-2.392-.826,4.329,4.329,0,0,1-1.37-2.189,7.684,7.684,0,0,1-.222-3.074Zm1.855,2.069a4.634,4.634,0,0,0,.5,2.488,1.859,1.859,0,0,0,1.609.933,2.739,2.739,0,0,0,2.3-.987,6.089,6.089,0,0,0,1.22-3.14l.18-1.4.06-.862a4.583,4.583,0,0,0-.508-2.5,1.878,1.878,0,0,0-1.609-.933,2.7,2.7,0,0,0-2.351,1.166,6.969,6.969,0,0,0-1.214,3.4l-.143,1.184Z" transform="translate(-1111.742 -919.034)" fill="#12263f"/>
      </g>
      <g id="Grupo_874739" data-name="Grupo 874739" transform="translate(389.6 6.483)">
        <path id="Trazado_603857" data-name="Trazado 603857" d="M1132.549,928.81q.156-1.137-1.268-1.891l-1.6-.837a4.757,4.757,0,0,1-1.74-1.472,2.951,2.951,0,0,1-.437-1.806,3.746,3.746,0,0,1,1.34-2.715,4.391,4.391,0,0,1,3.039-1.053,3.6,3.6,0,0,1,2.715,1.142,3.772,3.772,0,0,1,.909,2.793h-2.046a2.246,2.246,0,0,0-.43-1.525,1.615,1.615,0,0,0-1.268-.581,2.23,2.23,0,0,0-1.519.521,2.128,2.128,0,0,0-.718,1.345,1.532,1.532,0,0,0,.945,1.592l2.022,1.028a3.465,3.465,0,0,1,2.118,3.3,3.778,3.778,0,0,1-1.412,2.806,4.64,4.64,0,0,1-3.146,1,3.939,3.939,0,0,1-2.895-1.166,3.818,3.818,0,0,1-1.041-2.949l2.082.011a2.415,2.415,0,0,0,.491,1.7,1.844,1.844,0,0,0,1.459.581,2.614,2.614,0,0,0,1.644-.5A1.926,1.926,0,0,0,1132.549,928.81Z" transform="translate(-1126.109 -919.036)" fill="#12263f"/>
      </g>
      <g id="Grupo_874740" data-name="Grupo 874740" transform="translate(398.913 0.024)">
        <path id="Trazado_603858" data-name="Trazado 603858" d="M1144.607,923.771a26.016,26.016,0,0,1-1.387,5.419,17.534,17.534,0,0,1-2.339,4.361,10.878,10.878,0,0,1-3.08,2.853l-.287-1.375a16.4,16.4,0,0,0,4.533-8.7,32.694,32.694,0,0,0,.838-6.423q.119-5.084-1.842-7.453l.538-1.328a8.944,8.944,0,0,1,2.572,4.247,18.324,18.324,0,0,1,.67,6.161q-.06,1.112-.192,2.105Z" transform="translate(-1137.514 -911.127)" fill="#12263f"/>
      </g>
    </g>
    <g id="Grupo_874765" data-name="Grupo 874765" transform="translate(694.71 864.728)">
      <g id="Grupo_874742" data-name="Grupo 874742" transform="translate(0 2.249)">
        <path id="Trazado_603859" data-name="Trazado 603859" d="M754.409,881.514l6.064-14.032h2.416L754.9,884.9h-1.866l-2.524-17.417h2.261Z" transform="translate(-750.509 -867.482)" fill="#12263f"/>
      </g>
      <g id="Grupo_874743" data-name="Grupo 874743" transform="translate(12.36 6.481)">
        <path id="Trazado_603860" data-name="Trazado 603860" d="M765.848,878.8a8.351,8.351,0,0,1,1.908-4.491,4.716,4.716,0,0,1,3.822-1.646,3.773,3.773,0,0,1,2.393.832,4.372,4.372,0,0,1,1.37,2.2,7.751,7.751,0,0,1,.221,3.086l-.144,1.22a8.215,8.215,0,0,1-1.913,4.462,4.741,4.741,0,0,1-3.816,1.627,3.787,3.787,0,0,1-2.393-.826,4.337,4.337,0,0,1-1.37-2.189A7.705,7.705,0,0,1,765.7,880Zm1.854,2.069a4.638,4.638,0,0,0,.5,2.488,1.858,1.858,0,0,0,1.609.933,2.743,2.743,0,0,0,2.3-.987,6.1,6.1,0,0,0,1.22-3.14l.18-1.4.06-.862a4.585,4.585,0,0,0-.509-2.5,1.877,1.877,0,0,0-1.609-.933,2.7,2.7,0,0,0-2.35,1.167,6.962,6.962,0,0,0-1.214,3.4l-.144,1.184Z" transform="translate(-765.644 -872.665)" fill="#12263f"/>
      </g>
      <g id="Grupo_874744" data-name="Grupo 874744" transform="translate(23.953 1.292)">
        <path id="Trazado_603861" data-name="Trazado 603861" d="M781.909,884.684H779.84l3.194-18.374H785.1Z" transform="translate(-779.84 -866.31)" fill="#12263f"/>
      </g>
      <g id="Grupo_874745" data-name="Grupo 874745" transform="translate(29.867 6.722)">
        <path id="Trazado_603862" data-name="Trazado 603862" d="M793.029,884.767a3.817,3.817,0,0,1-3.1,1.388,2.542,2.542,0,0,1-2.112-1.005,4.486,4.486,0,0,1-.736-2.739l.06-1.089,1.4-8.362h2.045l-1.387,8.406-.047.875a2.561,2.561,0,0,0,.281,1.443,1.119,1.119,0,0,0,.986.593,3.089,3.089,0,0,0,2.848-1.713l1.65-9.6h2.069L794.751,885.9H792.8Z" transform="translate(-787.083 -872.96)" fill="#12263f"/>
      </g>
      <g id="Grupo_874746" data-name="Grupo 874746" transform="translate(40.522 6.471)">
        <path id="Trazado_603863" data-name="Trazado 603863" d="M804.3,872.892l-.251,1.208a4.065,4.065,0,0,1,3.182-1.436,3.1,3.1,0,0,1,1.657.491,2.521,2.521,0,0,1,1.011,1.376,4.408,4.408,0,0,1,3.529-1.878,2.821,2.821,0,0,1,2.057.826,3.507,3.507,0,0,1,.874,2.2,8.906,8.906,0,0,1-.012,1.663l-1.423,8.505h-2.046l1.412-8.529.036-1.005a2,2,0,0,0-.448-1.321,1.549,1.549,0,0,0-1.215-.473,2.217,2.217,0,0,0-1.7.765,3.413,3.413,0,0,0-.921,1.878v.06l-1.471,8.624h-2.082l1.423-8.517a6.61,6.61,0,0,0,.024-.981q-.083-1.758-1.627-1.818a2.79,2.79,0,0,0-2.452,1.6l-1.675,9.713H800.13l2.249-12.944Z" transform="translate(-800.13 -872.653)" fill="#12263f"/>
      </g>
      <g id="Grupo_874747" data-name="Grupo 874747" transform="translate(59.34 6.481)">
        <path id="Trazado_603864" data-name="Trazado 603864" d="M827.278,886.089a3.757,3.757,0,0,1-3.253-1.567,6.069,6.069,0,0,1-.79-4.211l.155-1.28a8.7,8.7,0,0,1,1.837-4.719,4.529,4.529,0,0,1,3.726-1.646,3.387,3.387,0,0,1,2.769,1.263,5.327,5.327,0,0,1,.88,3.415l-.108,1.436-.18,1.232L825.376,880a11.123,11.123,0,0,0-.144,1.686,2.967,2.967,0,0,0,.6,1.9,2.046,2.046,0,0,0,1.639.7,3.448,3.448,0,0,0,1.512-.3,5.387,5.387,0,0,0,1.574-1.155l.969,1.352a4.522,4.522,0,0,1-1.89,1.472A5.783,5.783,0,0,1,827.278,886.089Zm1.543-11.616q-2.118-.1-2.967,2.56l-.323,1.16,4.964.012.06-.311a8.961,8.961,0,0,0,.072-1.148Q830.58,874.569,828.821,874.473Z" transform="translate(-823.174 -872.665)" fill="#12263f"/>
      </g>
      <g id="Grupo_874748" data-name="Grupo 874748" transform="translate(69.881 6.483)">
        <path id="Trazado_603865" data-name="Trazado 603865" d="M840.268,872.895l-.275,1.411a4.067,4.067,0,0,1,3.206-1.639,2.5,2.5,0,0,1,1.955.838,3.685,3.685,0,0,1,.82,2.249,9.821,9.821,0,0,1-.036,1.615l-1.411,8.482h-2.058l1.423-8.517.048-.945q0-1.83-1.508-1.866a2.829,2.829,0,0,0-2.3,1.4l-.359.514-1.627,9.414h-2.069l2.249-12.944Z" transform="translate(-836.081 -872.667)" fill="#12263f"/>
      </g>
      <g id="Grupo_874749" data-name="Grupo 874749" transform="translate(87.498 1.292)">
        <path id="Trazado_603866" data-name="Trazado 603866" d="M862.965,871.514a2.989,2.989,0,0,1,2.656,1.508l1.245-6.711h2.069l-3.182,18.374h-1.878l.228-1.387a3.644,3.644,0,0,1-3.075,1.627,2.942,2.942,0,0,1-2.494-1.256,6.025,6.025,0,0,1-.88-3.529,19.262,19.262,0,0,1,.275-2.823,11.053,11.053,0,0,1,.849-2.979A4.276,4.276,0,0,1,862.965,871.514Zm-3.253,9.14q.06,2.38,1.974,2.416a2.375,2.375,0,0,0,1.3-.341,4.364,4.364,0,0,0,1.256-1.25l1.125-6.555a2.171,2.171,0,0,0-2-1.555q-2.835-.145-3.421,4.162A18.917,18.917,0,0,0,859.712,880.653Z" transform="translate(-857.654 -866.31)" fill="#12263f"/>
      </g>
      <g id="Grupo_874750" data-name="Grupo 874750" transform="translate(99.579 6.481)">
        <path id="Trazado_603867" data-name="Trazado 603867" d="M876.552,886.089a3.757,3.757,0,0,1-3.254-1.567,6.069,6.069,0,0,1-.79-4.211l.156-1.28a8.711,8.711,0,0,1,1.837-4.719,4.529,4.529,0,0,1,3.725-1.646,3.389,3.389,0,0,1,2.77,1.263,5.323,5.323,0,0,1,.879,3.415l-.108,1.436-.179,1.232L874.651,880a11.012,11.012,0,0,0-.144,1.686,2.962,2.962,0,0,0,.6,1.9,2.048,2.048,0,0,0,1.639.7,3.458,3.458,0,0,0,1.514-.3,5.383,5.383,0,0,0,1.572-1.155l.969,1.352a4.524,4.524,0,0,1-1.891,1.472A5.781,5.781,0,0,1,876.552,886.089Zm1.543-11.616q-2.117-.1-2.967,2.56l-.323,1.16,4.964.012.06-.311a8.809,8.809,0,0,0,.072-1.148Q879.854,874.569,878.095,874.473Z" transform="translate(-872.448 -872.665)" fill="#12263f"/>
      </g>
      <g id="Grupo_874751" data-name="Grupo 874751" transform="translate(110.287 1.292)">
        <path id="Trazado_603868" data-name="Trazado 603868" d="M887.63,884.684h-2.069l3.194-18.374h2.069Z" transform="translate(-885.561 -866.31)" fill="#12263f"/>
      </g>
      <g id="Grupo_874752" data-name="Grupo 874752" transform="translate(120.938 1.292)">
        <path id="Trazado_603869" data-name="Trazado 603869" d="M903.758,884.923a3.012,3.012,0,0,1-2.811-1.783l-.443,1.543h-1.9L901.8,866.31h2.057l-1.3,6.855a3.633,3.633,0,0,1,3.086-1.663,2.963,2.963,0,0,1,2.542,1.239,5.894,5.894,0,0,1,.807,3.534,25.694,25.694,0,0,1-.287,2.859,11.677,11.677,0,0,1-.706,2.7Q906.689,885.008,903.758,884.923Zm3.194-9.139a3.02,3.02,0,0,0-.55-1.831,1.837,1.837,0,0,0-1.423-.6,3.13,3.13,0,0,0-2.667,1.783l-1.053,6.184a2.211,2.211,0,0,0,2.082,1.747,2.6,2.6,0,0,0,2.249-.987,6.491,6.491,0,0,0,1.119-3.314A25.13,25.13,0,0,0,906.952,875.785Z" transform="translate(-898.603 -866.31)" fill="#12263f"/>
      </g>
      <g id="Grupo_874753" data-name="Grupo 874753" transform="translate(133.152 6.471)">
        <path id="Trazado_603870" data-name="Trazado 603870" d="M919.742,885.847a3.021,3.021,0,0,1-.06-.706l.047-.706a3.884,3.884,0,0,1-2.967,1.663,3.019,3.019,0,0,1-2.421-1.011,3.627,3.627,0,0,1-.773-2.674,4.277,4.277,0,0,1,1.658-3.218,6.25,6.25,0,0,1,4-1.209h1.436l.2-1.376q.216-2.141-1.615-2.141a2.28,2.28,0,0,0-1.572.557,2.488,2.488,0,0,0-.8,1.453l-2.046.012a3.962,3.962,0,0,1,1.49-2.751,4.646,4.646,0,0,1,3.14-1.089,3.487,3.487,0,0,1,2.686,1.071,3.671,3.671,0,0,1,.76,2.924l-1.053,6.376a6.741,6.741,0,0,0-.084,1.3l.072,1.316-.024.2Zm-2.548-1.663a3.275,3.275,0,0,0,2.679-1.519l.538-3.1-.945-.012A4.992,4.992,0,0,0,917.3,880a2.7,2.7,0,0,0-1.334,1.245,2.98,2.98,0,0,0-.269,1.728A1.306,1.306,0,0,0,917.194,884.184Z" transform="translate(-913.559 -872.652)" fill="#12263f"/>
      </g>
      <g id="Grupo_874754" data-name="Grupo 874754" transform="translate(144.37 1.292)">
        <path id="Trazado_603871" data-name="Trazado 603871" d="M929.366,884.684H927.3l3.194-18.374h2.069Z" transform="translate(-927.297 -866.31)" fill="#12263f"/>
      </g>
      <g id="Grupo_874755" data-name="Grupo 874755" transform="translate(150.327 1.292)">
        <path id="Trazado_603872" data-name="Trazado 603872" d="M939.9,871.514a2.989,2.989,0,0,1,2.656,1.508l1.244-6.711h2.069l-3.182,18.374h-1.878l.227-1.387a3.643,3.643,0,0,1-3.074,1.627,2.94,2.94,0,0,1-2.494-1.256,6.019,6.019,0,0,1-.88-3.529,19.152,19.152,0,0,1,.275-2.823,11,11,0,0,1,.849-2.979A4.274,4.274,0,0,1,939.9,871.514Zm-3.254,9.14q.06,2.38,1.974,2.416a2.373,2.373,0,0,0,1.3-.341,4.344,4.344,0,0,0,1.256-1.25l1.125-6.555a2.17,2.17,0,0,0-2-1.555q-2.836-.145-3.422,4.162A19.014,19.014,0,0,0,936.649,880.653Z" transform="translate(-934.592 -866.31)" fill="#12263f"/>
      </g>
      <g id="Grupo_874756" data-name="Grupo 874756" transform="translate(162.409 6.481)">
        <path id="Trazado_603873" data-name="Trazado 603873" d="M953.49,886.089a3.757,3.757,0,0,1-3.254-1.567,6.069,6.069,0,0,1-.79-4.211l.155-1.28a8.71,8.71,0,0,1,1.837-4.719,4.53,4.53,0,0,1,3.726-1.646,3.389,3.389,0,0,1,2.77,1.263,5.327,5.327,0,0,1,.879,3.415l-.108,1.436-.18,1.232L951.588,880a11.025,11.025,0,0,0-.144,1.686,2.967,2.967,0,0,0,.6,1.9,2.045,2.045,0,0,0,1.639.7,3.452,3.452,0,0,0,1.513-.3,5.386,5.386,0,0,0,1.573-1.155l.969,1.352a4.521,4.521,0,0,1-1.89,1.472A5.782,5.782,0,0,1,953.49,886.089Zm1.543-11.616q-2.118-.1-2.967,2.56l-.323,1.16,4.965.012.06-.311a8.983,8.983,0,0,0,.072-1.148Q956.792,874.569,955.033,874.473Z" transform="translate(-949.386 -872.665)" fill="#12263f"/>
      </g>
      <g id="Grupo_874757" data-name="Grupo 874757" transform="translate(179.476)">
        <path id="Trazado_603874" data-name="Trazado 603874" d="M977.335,864.728l.275,1.483a14.2,14.2,0,0,0-3.541,5.4,29.278,29.278,0,0,0-1.747,8.111l-.083,1.519a16.261,16.261,0,0,0,.376,4.378,7.19,7.19,0,0,0,1.477,3.062L973.555,890a8.43,8.43,0,0,1-1.926-2.62,12.789,12.789,0,0,1-1.1-3.649,19.849,19.849,0,0,1-.216-4.126q.048-1.1.192-2.105l.143-.874a23.327,23.327,0,0,1,2.494-7.333A11.886,11.886,0,0,1,977.335,864.728Z" transform="translate(-970.286 -864.728)" fill="#12263f"/>
      </g>
      <g id="Grupo_874758" data-name="Grupo 874758" transform="translate(186.19 1.292)">
        <path id="Trazado_603875" data-name="Trazado 603875" d="M980.576,884.684h-2.069L981.7,866.31h2.069Z" transform="translate(-978.507 -866.31)" fill="#12263f"/>
      </g>
      <g id="Grupo_874759" data-name="Grupo 874759" transform="translate(191.752 1.996)">
        <path id="Trazado_603876" data-name="Trazado 603876" d="M987.388,884.842h-2.07l2.249-12.944h2.069Zm.657-16.364a1.5,1.5,0,0,1,.335-.9,1.106,1.106,0,0,1,.849-.407,1.026,1.026,0,0,1,.849.347,1.235,1.235,0,0,1,.311.921,1.462,1.462,0,0,1-.341.9,1.091,1.091,0,0,1-.855.389,1.006,1.006,0,0,1-.849-.347A1.25,1.25,0,0,1,988.046,868.478Z" transform="translate(-985.318 -867.172)" fill="#12263f"/>
      </g>
      <g id="Grupo_874760" data-name="Grupo 874760" transform="translate(197.927 3.589)">
        <path id="Trazado_603877" data-name="Trazado 603877" d="M997.7,869.123l-.55,3.133h1.9l-.3,1.711h-1.89l-1.364,8.051-.024.479q-.048,1.017.729,1.017a3.6,3.6,0,0,0,.862-.12l-.18,1.806a3.625,3.625,0,0,1-1.352.216,1.8,1.8,0,0,1-1.639-.9,4.154,4.154,0,0,1-.407-2.536l1.316-8.015H992.88l.311-1.711h1.9l.55-3.133Z" transform="translate(-992.88 -869.123)" fill="#12263f"/>
      </g>
      <g id="Grupo_874761" data-name="Grupo 874761" transform="translate(204.362 6.459)">
        <path id="Trazado_603878" data-name="Trazado 603878" d="M1007.937,874.875a4.591,4.591,0,0,0-.921-.107,2.971,2.971,0,0,0-2.584,1.806l-1.6,9.27h-2.069l2.249-12.944,2-.011-.287,1.328a3.075,3.075,0,0,1,2.56-1.579,4.355,4.355,0,0,1,.885.18Z" transform="translate(-1000.76 -872.637)" fill="#12263f"/>
      </g>
      <g id="Grupo_874762" data-name="Grupo 874762" transform="translate(212.352 6.481)">
        <path id="Trazado_603879" data-name="Trazado 603879" d="M1010.748,878.8a8.352,8.352,0,0,1,1.908-4.491,4.716,4.716,0,0,1,3.822-1.646,3.772,3.772,0,0,1,2.392.832,4.374,4.374,0,0,1,1.37,2.2,7.737,7.737,0,0,1,.22,3.086l-.143,1.22a8.222,8.222,0,0,1-1.914,4.462,4.74,4.74,0,0,1-3.816,1.627,3.789,3.789,0,0,1-2.393-.826,4.337,4.337,0,0,1-1.369-2.189A7.707,7.707,0,0,1,1010.6,880Zm1.854,2.069a4.637,4.637,0,0,0,.5,2.488,1.857,1.857,0,0,0,1.609.933,2.741,2.741,0,0,0,2.3-.987,6.1,6.1,0,0,0,1.22-3.14l.18-1.4.06-.862a4.591,4.591,0,0,0-.508-2.5,1.878,1.878,0,0,0-1.609-.933,2.7,2.7,0,0,0-2.35,1.167,6.978,6.978,0,0,0-1.214,3.4l-.144,1.184Z" transform="translate(-1010.544 -872.665)" fill="#12263f"/>
      </g>
      <g id="Grupo_874763" data-name="Grupo 874763" transform="translate(223.839 6.483)">
        <path id="Trazado_603880" data-name="Trazado 603880" d="M1031.051,882.44q.156-1.136-1.268-1.89l-1.6-.838a4.764,4.764,0,0,1-1.74-1.471,2.953,2.953,0,0,1-.437-1.806,3.745,3.745,0,0,1,1.34-2.715,4.391,4.391,0,0,1,3.039-1.053,3.606,3.606,0,0,1,2.715,1.142,3.773,3.773,0,0,1,.909,2.794h-2.046a2.249,2.249,0,0,0-.43-1.525,1.611,1.611,0,0,0-1.268-.58,2.228,2.228,0,0,0-1.519.52,2.129,2.129,0,0,0-.718,1.346,1.531,1.531,0,0,0,.945,1.591l2.022,1.029a3.464,3.464,0,0,1,2.118,3.3,3.779,3.779,0,0,1-1.412,2.805,4.64,4.64,0,0,1-3.146,1,3.941,3.941,0,0,1-2.895-1.166,3.817,3.817,0,0,1-1.041-2.949l2.082.012a2.415,2.415,0,0,0,.491,1.7,1.846,1.846,0,0,0,1.459.58,2.614,2.614,0,0,0,1.644-.5A1.926,1.926,0,0,0,1031.051,882.44Z" transform="translate(-1024.611 -872.666)" fill="#12263f"/>
      </g>
      <g id="Grupo_874764" data-name="Grupo 874764" transform="translate(233.153 0.024)">
        <path id="Trazado_603881" data-name="Trazado 603881" d="M1043.109,877.4a26.03,26.03,0,0,1-1.387,5.418,17.547,17.547,0,0,1-2.338,4.361,10.877,10.877,0,0,1-3.081,2.852l-.287-1.375a16.411,16.411,0,0,0,4.533-8.7,32.671,32.671,0,0,0,.838-6.424q.119-5.084-1.842-7.453l.538-1.328a8.946,8.946,0,0,1,2.572,4.247,18.314,18.314,0,0,1,.67,6.16q-.06,1.113-.192,2.106Z" transform="translate(-1036.016 -864.757)" fill="#12263f"/>
      </g>
    </g>
    <g id="Grupo_874772" data-name="Grupo 874772" transform="translate(517.96 871.025)">
      <g id="Grupo_874766" data-name="Grupo 874766" transform="translate(0 8.33)">
        <path id="Trazado_603882" data-name="Trazado 603882" d="M543.89,882.64l.383,2.066a19.793,19.793,0,0,0-4.932,7.515,40.779,40.779,0,0,0-2.433,11.3l-.117,2.117a22.677,22.677,0,0,0,.525,6.1A10.016,10.016,0,0,0,539.374,916l-.75,1.85a11.74,11.74,0,0,1-2.683-3.65,17.788,17.788,0,0,1-1.534-5.083,27.677,27.677,0,0,1-.3-5.749q.066-1.532.266-2.932l.2-1.217a32.465,32.465,0,0,1,3.475-10.214A16.552,16.552,0,0,1,543.89,882.64Z" transform="translate(-534.071 -882.64)" fill="#12263f"/>
      </g>
      <g id="Grupo_874767" data-name="Grupo 874767" transform="translate(42.807 8.363)">
        <path id="Trazado_603883" data-name="Trazado 603883" d="M596.372,900.294a36.313,36.313,0,0,1-1.933,7.549,24.48,24.48,0,0,1-3.258,6.074,15.16,15.16,0,0,1-4.291,3.974l-.4-1.917q4.532-4.2,6.316-12.115a45.5,45.5,0,0,0,1.166-8.949q.167-7.081-2.566-10.382l.75-1.85a12.46,12.46,0,0,1,3.583,5.916,25.492,25.492,0,0,1,.933,8.582q-.083,1.551-.267,2.933Z" transform="translate(-586.49 -882.68)" fill="#12263f"/>
      </g>
      <g id="Grupo_874770" data-name="Grupo 874770" transform="translate(23.441)">
        <g id="Grupo_874768" data-name="Grupo 874768">
          <path id="Trazado_603884" data-name="Trazado 603884" d="M565.252,887.978h6.627l-.335,1.878h-8.768l3.014-17.417h2.153Z" transform="translate(-562.776 -872.439)" fill="#12263f"/>
        </g>
        <g id="Grupo_874769" data-name="Grupo 874769" transform="translate(0.032 33.633)">
          <path id="Trazado_603885" data-name="Trazado 603885" d="M569.255,923.4q.156-1.135-1.268-1.89l-1.6-.838a4.76,4.76,0,0,1-1.741-1.471,2.952,2.952,0,0,1-.436-1.806,3.744,3.744,0,0,1,1.339-2.715,4.386,4.386,0,0,1,3.039-1.053,3.6,3.6,0,0,1,2.715,1.142,3.773,3.773,0,0,1,.909,2.794h-2.046a2.249,2.249,0,0,0-.43-1.525,1.611,1.611,0,0,0-1.268-.58,2.229,2.229,0,0,0-1.519.52,2.129,2.129,0,0,0-.718,1.346,1.531,1.531,0,0,0,.945,1.591l2.022,1.029a3.464,3.464,0,0,1,2.118,3.3,3.778,3.778,0,0,1-1.412,2.805,4.64,4.64,0,0,1-3.146,1,3.939,3.939,0,0,1-2.895-1.166,3.82,3.82,0,0,1-1.041-2.949l2.082.012a2.416,2.416,0,0,0,.491,1.7,1.846,1.846,0,0,0,1.459.58,2.616,2.616,0,0,0,1.645-.5A1.929,1.929,0,0,0,569.255,923.4Z" transform="translate(-562.815 -913.624)" fill="#12263f"/>
        </g>
      </g>
      <g id="Grupo_874771" data-name="Grupo 874771" transform="translate(14.641 24.14)">
        <rect id="Rect치ngulo_293151" data-name="Rect치ngulo 293151" width="27.765" height="1.633" fill="#12263f"/>
      </g>
    </g>
    <g id="Grupo_874773" data-name="Grupo 874773" transform="translate(606.098 895.165)">
      <rect id="Rect치ngulo_293152" data-name="Rect치ngulo 293152" width="418.114" height="1.633" fill="#12263f"/>
    </g>
  </g>
</svg>
