<svg xmlns="http://www.w3.org/2000/svg" width="475" height="249.257" viewBox="0 0 475 249.257">
  <g id="Grupo_874697" data-name="Grupo 874697" transform="translate(-820 -7693)">
    <g id="Grupo_874686" data-name="Grupo 874686" transform="translate(10 997)">
      <g id="Grupo_874640" data-name="Grupo 874640" transform="translate(810 6695.817)">
        <rect id="Rectángulo_5140" data-name="Rectángulo 5140" width="4" height="23" transform="translate(0 0.183)" fill="#81ad20"/>
        <text id="Imagen:_Diagrama_de_laguna_para_riego_de_alivio" data-name="Imagen: Diagrama de laguna para riego de alivio" transform="translate(13 15.184)" fill="#12263f" font-size="13" font-family="Roboto-Bold, Roboto" font-weight="700"><tspan x="0" y="0">Imagen: </tspan><tspan y="0" font-family="Roboto-Regular, Roboto" font-weight="400">Diagrama de laguna para riego de alivio</tspan></text>
      </g>
    </g>
    <g id="Grupo_874696" data-name="Grupo 874696" transform="translate(327.21 6507.509)">
      <path id="Trazado_603759" data-name="Trazado 603759" d="M1366.1,1225.968v79.465c-4.456-1.728-8.736-4.64-12.619-7.445-7.338-5.3-16.337-10.775-24.869-7.746-5.315,1.883-9.071,6.727-14.2,9.09-4.5,2.082-9.663,2.072-14.628,2.019-8.726-.087-17.977-.325-25.33-5.028-2.456-1.568-4.625-3.6-7.081-5.135l68.938-77.47.238-.238C1347.525,1202.686,1366.1,1210.578,1366.1,1225.968Z" transform="translate(-398.314)" fill="#84c442"/>
      <path id="Trazado_603760" data-name="Trazado 603760" d="M973.753,1391.2v129.315H516.371c-47.272,0,68.487-112.095,68.487-112.095H654.5l4.072,31.474a23.648,23.648,0,0,0,22.632,16.7l134.969-.17c.4,0,.8,0,1.194-.019a37.071,37.071,0,0,0,33.052-23.238l21.51-52.7h-.024l3.121-3.509c2.456,1.534,4.625,3.567,7.081,5.135,7.353,4.7,16.6,4.941,25.33,5.028,4.965.053,10.124.063,14.628-2.019,5.125-2.364,8.882-7.207,14.2-9.09,8.532-3.029,17.531,2.446,24.869,7.746C965.016,1386.563,969.3,1389.475,973.753,1391.2Z" transform="translate(-5.963 -85.77)" fill="#7b5c3e"/>
      <path id="Trazado_603761" data-name="Trazado 603761" d="M750.721,1392.011H687.51l22.656-22.656a42.029,42.029,0,0,1,8.862-6.776,17.757,17.757,0,0,1,25.777,10.212Z" transform="translate(-99.879 -78.095)" fill="#bcad32"/>
      <path id="Trazado_603762" data-name="Trazado 603762" d="M735.541,1386.11l2.485,19.22h-59.78l-8.736,8.736h69.647l4.072,31.474a23.647,23.647,0,0,0,22.631,16.7l134.969-.17c.4,0,.8,0,1.194-.019a37.071,37.071,0,0,0,33.052-23.238l21.51-52.7Z" transform="translate(-90.615 -91.413)" fill="#86c3d1"/>
      <g id="Grupo_874687" data-name="Grupo 874687" transform="translate(890.47 1254.582)">
        <path id="Trazado_603763" data-name="Trazado 603763" d="M1314.639,1335.082a33.294,33.294,0,0,1-3.159,8.627h0a8.339,8.339,0,0,0,2.634-1.677c-.123.936-.583,1.66-.765,2.6a9.892,9.892,0,0,0,2.707-2.1,10.484,10.484,0,0,1-.191,2.341,4.442,4.442,0,0,0,1.8-2.362,6.932,6.932,0,0,0,1.161,2.382,14.33,14.33,0,0,0,.843-2.407c.639.706,1.061,1.587,1.937,2,.005-.878.01-1.567.015-2.446a9.925,9.925,0,0,0,2.393,1.421c-.172-.586-.538-1.327-.752-2a4.252,4.252,0,0,0,2.28,1.129,36.307,36.307,0,0,1-3.024-4.958c-.754-1.234-.914-2.658-1.492-3.891Z" transform="translate(-1311.48 -1319.043)" fill="#005d41"/>
        <path id="Trazado_603764" data-name="Trazado 603764" d="M1315.86,1327.824a22.757,22.757,0,0,1-2.857,7.126,18.847,18.847,0,0,0,2.409-1.273,17.762,17.762,0,0,1-.658,2.163,3.788,3.788,0,0,0,2.13-2.2c.288.646.7,1.527,1.05,2.115a11.376,11.376,0,0,0,.822-2.142,10.994,10.994,0,0,0,1.071,2.016c.179-.584.385-1.57.564-2.1a4.341,4.341,0,0,0,1.628,1.65,7.382,7.382,0,0,0-.22-2.11,7.741,7.741,0,0,0,2.159,1.185,22.969,22.969,0,0,1-2.243-6.4Z" transform="translate(-1312.264 -1315.998)" fill="#006c47"/>
        <path id="Trazado_603765" data-name="Trazado 603765" d="M1318.136,1314.525a12.791,12.791,0,0,1-.818,4.212,13.459,13.459,0,0,1-1.96,4.291,20.352,20.352,0,0,0,2.176-1.3,8.312,8.312,0,0,1-.277,1.9c.563-.787,1.181-1.486,1.742-2.272a19.148,19.148,0,0,0,.54,2.639,25,25,0,0,1,1.043-2.8,5.547,5.547,0,0,0,1.6,2.266c-.227-1.085-.166-1.524-.278-2.227a4.76,4.76,0,0,0,2.213,1.741,40.113,40.113,0,0,1-1.667-4.9,40.529,40.529,0,0,0-1.582-4.432Z" transform="translate(-1313.476 -1308.695)" fill="#007b4e"/>
        <path id="Trazado_603766" data-name="Trazado 603766" d="M1320.4,1303.579a4.81,4.81,0,0,0-.659,1.847,44.331,44.331,0,0,1-1.4,4.763,10.6,10.6,0,0,1-1.156,2.218,5.162,5.162,0,0,0,1.793-1.277,6.758,6.758,0,0,1-.188,2.02,11.644,11.644,0,0,0,1.215-2.218c.2.85.356,1.5.527,2.287a5.989,5.989,0,0,0,.733-2.367,12.755,12.755,0,0,0,1.11,2.085,7.668,7.668,0,0,0-.084-2.166,11.794,11.794,0,0,0,1.6,1.591,17.746,17.746,0,0,1-1.546-3.829c-.282-1.1-.616-2.178-.9-3.274-.1-.389-.452-1.8-.767-1.8A.349.349,0,0,0,1320.4,1303.579Z" transform="translate(-1314.414 -1303.457)" fill="#008e6c"/>
      </g>
      <g id="Grupo_874688" data-name="Grupo 874688" transform="translate(909.222 1251.47)">
        <path id="Trazado_603767" data-name="Trazado 603767" d="M1353.277,1328.669a33.259,33.259,0,0,1-3.159,8.627h0a8.361,8.361,0,0,0,2.634-1.677c-.124.935-.584,1.66-.765,2.6a9.919,9.919,0,0,0,2.707-2.1,10.512,10.512,0,0,1-.192,2.341,4.446,4.446,0,0,0,1.8-2.363,6.933,6.933,0,0,0,1.16,2.382,14.283,14.283,0,0,0,.843-2.407c.64.706,1.061,1.587,1.937,2,.005-.878.011-1.567.016-2.446a9.915,9.915,0,0,0,2.393,1.421c-.172-.586-.539-1.328-.752-2a4.247,4.247,0,0,0,2.28,1.129,36.289,36.289,0,0,1-3.024-4.957c-.753-1.234-.914-2.658-1.492-3.891Z" transform="translate(-1350.118 -1312.631)" fill="#005d41"/>
        <path id="Trazado_603768" data-name="Trazado 603768" d="M1354.5,1321.412a22.759,22.759,0,0,1-2.857,7.125,18.926,18.926,0,0,0,2.409-1.273,17.658,17.658,0,0,1-.658,2.163,3.789,3.789,0,0,0,2.13-2.2c.288.646.7,1.527,1.05,2.116a11.3,11.3,0,0,0,.822-2.141,11.048,11.048,0,0,0,1.071,2.016c.18-.584.386-1.57.565-2.1a4.335,4.335,0,0,0,1.628,1.65,7.356,7.356,0,0,0-.22-2.109,7.762,7.762,0,0,0,2.16,1.185,22.981,22.981,0,0,1-2.243-6.4Z" transform="translate(-1350.902 -1309.586)" fill="#006c47"/>
        <path id="Trazado_603769" data-name="Trazado 603769" d="M1356.774,1308.113a12.8,12.8,0,0,1-.818,4.212,13.477,13.477,0,0,1-1.96,4.291,20.4,20.4,0,0,0,2.176-1.3,8.287,8.287,0,0,1-.277,1.9c.563-.787,1.181-1.486,1.742-2.272a19.215,19.215,0,0,0,.54,2.638,25.094,25.094,0,0,1,1.043-2.8,5.549,5.549,0,0,0,1.6,2.266c-.228-1.086-.166-1.524-.278-2.228a4.76,4.76,0,0,0,2.213,1.742,40.31,40.31,0,0,1-1.667-4.9,40.408,40.408,0,0,0-1.582-4.432Z" transform="translate(-1352.114 -1302.283)" fill="#007b4e"/>
        <path id="Trazado_603770" data-name="Trazado 603770" d="M1359.034,1297.167a4.821,4.821,0,0,0-.659,1.847,44.159,44.159,0,0,1-1.4,4.763,10.607,10.607,0,0,1-1.156,2.219,5.169,5.169,0,0,0,1.794-1.277,6.773,6.773,0,0,1-.188,2.02,11.636,11.636,0,0,0,1.215-2.217c.2.85.356,1.5.526,2.286a5.976,5.976,0,0,0,.733-2.366,12.755,12.755,0,0,0,1.11,2.085,7.689,7.689,0,0,0-.085-2.167,11.859,11.859,0,0,0,1.6,1.592,17.793,17.793,0,0,1-1.546-3.829c-.282-1.1-.616-2.179-.9-3.274-.1-.388-.452-1.8-.767-1.8A.35.35,0,0,0,1359.034,1297.167Z" transform="translate(-1353.052 -1297.045)" fill="#008e6c"/>
      </g>
      <g id="Grupo_874689" data-name="Grupo 874689" transform="translate(900.177 1258.35)">
        <path id="Trazado_603771" data-name="Trazado 603771" d="M1335.159,1348.052a38.735,38.735,0,0,1-3.679,10.048h0a9.738,9.738,0,0,0,3.068-1.953c-.144,1.09-.68,1.934-.892,3.023a11.52,11.52,0,0,0,3.152-2.444,12.184,12.184,0,0,1-.223,2.726,5.173,5.173,0,0,0,2.1-2.751,8.072,8.072,0,0,0,1.352,2.774,16.708,16.708,0,0,0,.982-2.8c.745.823,1.235,1.848,2.256,2.331.006-1.022.012-1.825.018-2.849a11.563,11.563,0,0,0,2.786,1.655c-.2-.683-.627-1.546-.876-2.327a4.952,4.952,0,0,0,2.655,1.316,42.259,42.259,0,0,1-3.521-5.774c-.878-1.437-1.065-3.1-1.738-4.532Z" transform="translate(-1331.48 -1329.373)" fill="#005d41"/>
        <path id="Trazado_603772" data-name="Trazado 603772" d="M1336.582,1339.6a26.5,26.5,0,0,1-3.328,8.3,21.984,21.984,0,0,0,2.806-1.483,20.656,20.656,0,0,1-.766,2.519,4.412,4.412,0,0,0,2.48-2.563c.336.753.819,1.779,1.223,2.464a13.18,13.18,0,0,0,.958-2.495,12.84,12.84,0,0,0,1.246,2.349c.209-.68.449-1.828.658-2.441a5.062,5.062,0,0,0,1.9,1.922,8.565,8.565,0,0,0-.256-2.457,9.035,9.035,0,0,0,2.516,1.38,26.77,26.77,0,0,1-2.613-7.451Z" transform="translate(-1332.393 -1325.826)" fill="#006c47"/>
        <path id="Trazado_603773" data-name="Trazado 603773" d="M1339.232,1324.111a14.909,14.909,0,0,1-.952,4.906,15.709,15.709,0,0,1-2.283,5,23.87,23.87,0,0,0,2.534-1.518,9.684,9.684,0,0,1-.323,2.214c.655-.916,1.375-1.73,2.029-2.646.3.956.191,2.183.629,3.073a29.014,29.014,0,0,1,1.215-3.266,6.456,6.456,0,0,0,1.858,2.638c-.265-1.264-.193-1.775-.323-2.594a5.545,5.545,0,0,0,2.577,2.029,46.813,46.813,0,0,1-1.941-5.707,47.076,47.076,0,0,0-1.843-5.162Z" transform="translate(-1333.805 -1317.322)" fill="#007b4e"/>
        <path id="Trazado_603774" data-name="Trazado 603774" d="M1341.863,1311.363a5.606,5.606,0,0,0-.767,2.151,51.583,51.583,0,0,1-1.632,5.548,12.327,12.327,0,0,1-1.347,2.583,6.014,6.014,0,0,0,2.089-1.487,7.9,7.9,0,0,1-.219,2.352,13.533,13.533,0,0,0,1.415-2.583c.232.99.414,1.741.614,2.664a6.972,6.972,0,0,0,.854-2.757,14.9,14.9,0,0,0,1.292,2.428,8.938,8.938,0,0,0-.1-2.523,13.789,13.789,0,0,0,1.863,1.854,20.66,20.66,0,0,1-1.8-4.46c-.329-1.276-.718-2.537-1.05-3.813-.119-.452-.526-2.1-.893-2.1A.409.409,0,0,0,1341.863,1311.363Z" transform="translate(-1334.896 -1311.221)" fill="#008e6c"/>
      </g>
      <g id="Grupo_874690" data-name="Grupo 874690" transform="translate(913.766 1225.462)">
        <path id="Trazado_603775" data-name="Trazado 603775" d="M1362.639,1275.082a33.292,33.292,0,0,1-3.159,8.627h0a8.336,8.336,0,0,0,2.634-1.677c-.123.936-.583,1.66-.765,2.6a9.891,9.891,0,0,0,2.707-2.1,10.492,10.492,0,0,1-.191,2.341,4.442,4.442,0,0,0,1.8-2.362,6.932,6.932,0,0,0,1.161,2.382,14.33,14.33,0,0,0,.843-2.407c.639.706,1.061,1.587,1.937,2,.005-.878.01-1.567.015-2.446a9.921,9.921,0,0,0,2.393,1.421c-.172-.586-.538-1.327-.752-2a4.253,4.253,0,0,0,2.28,1.13,36.321,36.321,0,0,1-3.024-4.958c-.754-1.234-.914-2.658-1.492-3.892Z" transform="translate(-1359.48 -1259.043)" fill="#005d41"/>
        <path id="Trazado_603776" data-name="Trazado 603776" d="M1363.86,1267.824a22.754,22.754,0,0,1-2.857,7.126,18.847,18.847,0,0,0,2.409-1.273,17.762,17.762,0,0,1-.658,2.163,3.788,3.788,0,0,0,2.13-2.2c.288.646.7,1.527,1.05,2.115a11.376,11.376,0,0,0,.822-2.142,10.994,10.994,0,0,0,1.071,2.016c.179-.584.385-1.57.564-2.1a4.342,4.342,0,0,0,1.628,1.65,7.383,7.383,0,0,0-.22-2.11,7.744,7.744,0,0,0,2.159,1.185,22.972,22.972,0,0,1-2.243-6.4Z" transform="translate(-1360.264 -1255.998)" fill="#006c47"/>
        <path id="Trazado_603777" data-name="Trazado 603777" d="M1366.136,1254.525a12.794,12.794,0,0,1-.818,4.212,13.457,13.457,0,0,1-1.96,4.291,20.366,20.366,0,0,0,2.176-1.3,8.318,8.318,0,0,1-.277,1.9c.563-.787,1.181-1.486,1.742-2.272a19.15,19.15,0,0,0,.54,2.639,25.013,25.013,0,0,1,1.043-2.8,5.547,5.547,0,0,0,1.6,2.266c-.227-1.085-.166-1.524-.278-2.227a4.76,4.76,0,0,0,2.213,1.741,40.112,40.112,0,0,1-1.667-4.9,40.558,40.558,0,0,0-1.582-4.432Z" transform="translate(-1361.476 -1248.695)" fill="#007b4e"/>
        <path id="Trazado_603778" data-name="Trazado 603778" d="M1368.4,1243.579a4.81,4.81,0,0,0-.659,1.847,44.331,44.331,0,0,1-1.4,4.763,10.609,10.609,0,0,1-1.156,2.218,5.159,5.159,0,0,0,1.793-1.277,6.759,6.759,0,0,1-.188,2.02,11.642,11.642,0,0,0,1.215-2.218c.2.85.356,1.5.527,2.287a5.989,5.989,0,0,0,.733-2.367,12.75,12.75,0,0,0,1.11,2.085,7.671,7.671,0,0,0-.084-2.166,11.8,11.8,0,0,0,1.6,1.591,17.746,17.746,0,0,1-1.546-3.829c-.282-1.1-.616-2.178-.9-3.274-.1-.389-.452-1.8-.767-1.8A.349.349,0,0,0,1368.4,1243.579Z" transform="translate(-1362.414 -1243.457)" fill="#008e6c"/>
      </g>
      <g id="Grupo_874691" data-name="Grupo 874691" transform="translate(932.519 1222.35)">
        <path id="Trazado_603779" data-name="Trazado 603779" d="M1401.277,1268.669a33.263,33.263,0,0,1-3.159,8.627h0a8.361,8.361,0,0,0,2.634-1.677c-.124.935-.584,1.66-.765,2.6a9.922,9.922,0,0,0,2.707-2.1,10.5,10.5,0,0,1-.192,2.341,4.445,4.445,0,0,0,1.8-2.363,6.931,6.931,0,0,0,1.16,2.382,14.283,14.283,0,0,0,.843-2.407c.64.706,1.061,1.587,1.937,2,.005-.878.011-1.567.016-2.446a9.914,9.914,0,0,0,2.393,1.421c-.172-.586-.539-1.327-.752-2a4.247,4.247,0,0,0,2.28,1.129,36.27,36.27,0,0,1-3.024-4.957c-.753-1.234-.914-2.658-1.492-3.891Z" transform="translate(-1398.118 -1252.631)" fill="#005d41"/>
        <path id="Trazado_603780" data-name="Trazado 603780" d="M1402.5,1261.412a22.762,22.762,0,0,1-2.857,7.125,18.926,18.926,0,0,0,2.409-1.273,17.679,17.679,0,0,1-.658,2.163,3.789,3.789,0,0,0,2.13-2.2c.288.646.7,1.527,1.05,2.116a11.3,11.3,0,0,0,.822-2.141,11.048,11.048,0,0,0,1.071,2.016c.18-.584.386-1.57.565-2.1a4.334,4.334,0,0,0,1.628,1.65,7.356,7.356,0,0,0-.22-2.109,7.763,7.763,0,0,0,2.16,1.185,22.985,22.985,0,0,1-2.243-6.4Z" transform="translate(-1398.902 -1249.586)" fill="#006c47"/>
        <path id="Trazado_603781" data-name="Trazado 603781" d="M1404.774,1248.113a12.8,12.8,0,0,1-.818,4.212,13.477,13.477,0,0,1-1.96,4.291,20.4,20.4,0,0,0,2.176-1.3,8.3,8.3,0,0,1-.277,1.9c.563-.787,1.181-1.486,1.742-2.272a19.193,19.193,0,0,0,.54,2.638,25.094,25.094,0,0,1,1.043-2.8,5.549,5.549,0,0,0,1.6,2.266c-.228-1.086-.166-1.524-.278-2.228a4.76,4.76,0,0,0,2.213,1.742,40.315,40.315,0,0,1-1.667-4.9,40.419,40.419,0,0,0-1.582-4.432Z" transform="translate(-1400.114 -1242.283)" fill="#007b4e"/>
        <path id="Trazado_603782" data-name="Trazado 603782" d="M1407.034,1237.167a4.823,4.823,0,0,0-.659,1.847,44.157,44.157,0,0,1-1.4,4.763,10.607,10.607,0,0,1-1.156,2.219,5.17,5.17,0,0,0,1.794-1.277,6.773,6.773,0,0,1-.188,2.02,11.629,11.629,0,0,0,1.215-2.217c.2.85.356,1.5.527,2.286a5.98,5.98,0,0,0,.733-2.366,12.759,12.759,0,0,0,1.11,2.085,7.689,7.689,0,0,0-.085-2.167,11.859,11.859,0,0,0,1.6,1.592,17.793,17.793,0,0,1-1.546-3.829c-.282-1.1-.616-2.179-.9-3.274-.1-.388-.452-1.8-.767-1.8A.351.351,0,0,0,1407.034,1237.167Z" transform="translate(-1401.052 -1237.045)" fill="#008e6c"/>
      </g>
      <g id="Grupo_874692" data-name="Grupo 874692" transform="translate(923.473 1229.23)">
        <path id="Trazado_603783" data-name="Trazado 603783" d="M1383.159,1288.052a38.735,38.735,0,0,1-3.679,10.048h0a9.74,9.74,0,0,0,3.068-1.953c-.144,1.09-.68,1.934-.892,3.023a11.522,11.522,0,0,0,3.152-2.444,12.19,12.19,0,0,1-.223,2.726,5.173,5.173,0,0,0,2.1-2.751,8.072,8.072,0,0,0,1.352,2.774,16.709,16.709,0,0,0,.982-2.8c.745.823,1.235,1.848,2.256,2.331.006-1.022.012-1.825.018-2.849a11.563,11.563,0,0,0,2.786,1.655c-.2-.683-.627-1.546-.876-2.327a4.953,4.953,0,0,0,2.655,1.316,42.268,42.268,0,0,1-3.521-5.774c-.878-1.437-1.065-3.1-1.738-4.532Z" transform="translate(-1379.48 -1269.373)" fill="#005d41"/>
        <path id="Trazado_603784" data-name="Trazado 603784" d="M1384.582,1279.6a26.5,26.5,0,0,1-3.328,8.3,21.984,21.984,0,0,0,2.806-1.483,20.7,20.7,0,0,1-.766,2.519,4.412,4.412,0,0,0,2.48-2.563c.336.753.819,1.779,1.223,2.464a13.19,13.19,0,0,0,.958-2.495,12.843,12.843,0,0,0,1.246,2.349c.209-.68.449-1.828.658-2.441a5.061,5.061,0,0,0,1.9,1.922,8.565,8.565,0,0,0-.256-2.457,9.035,9.035,0,0,0,2.516,1.38,26.77,26.77,0,0,1-2.613-7.451Z" transform="translate(-1380.393 -1265.826)" fill="#006c47"/>
        <path id="Trazado_603785" data-name="Trazado 603785" d="M1387.232,1264.111a14.906,14.906,0,0,1-.952,4.906,15.709,15.709,0,0,1-2.283,5,23.862,23.862,0,0,0,2.534-1.518,9.684,9.684,0,0,1-.323,2.214c.655-.916,1.375-1.73,2.029-2.646.3.956.191,2.183.629,3.073a29.037,29.037,0,0,1,1.215-3.266,6.455,6.455,0,0,0,1.858,2.638c-.265-1.264-.193-1.775-.323-2.594a5.546,5.546,0,0,0,2.577,2.029,46.792,46.792,0,0,1-1.941-5.707,47.076,47.076,0,0,0-1.843-5.162Z" transform="translate(-1381.805 -1257.322)" fill="#007b4e"/>
        <path id="Trazado_603786" data-name="Trazado 603786" d="M1389.863,1251.363a5.609,5.609,0,0,0-.767,2.151,51.614,51.614,0,0,1-1.632,5.548,12.333,12.333,0,0,1-1.347,2.583,6.014,6.014,0,0,0,2.089-1.487,7.9,7.9,0,0,1-.219,2.353,13.524,13.524,0,0,0,1.415-2.583c.232.99.414,1.741.614,2.664a6.972,6.972,0,0,0,.854-2.757,14.9,14.9,0,0,0,1.292,2.428,8.942,8.942,0,0,0-.1-2.523,13.8,13.8,0,0,0,1.863,1.854,20.671,20.671,0,0,1-1.8-4.46c-.329-1.276-.718-2.537-1.05-3.813-.119-.452-.527-2.1-.893-2.1A.41.41,0,0,0,1389.863,1251.363Z" transform="translate(-1382.896 -1251.221)" fill="#008e6c"/>
      </g>
      <g id="Grupo_874693" data-name="Grupo 874693" transform="translate(493.441 1269.057)">
        <path id="Trazado_603787" data-name="Trazado 603787" d="M539.73,1344.412h6.958v1.316h-8.856v-1.248l6.65-9.872h-6.556v-1.325h8.479v1.206Z" transform="translate(-516.287 -1333.282)" fill="#12263f"/>
        <path id="Trazado_603788" data-name="Trazado 603788" d="M559.037,1344.228a5.093,5.093,0,0,1,1.111-3.381,3.728,3.728,0,0,1,3.017-1.329,3.766,3.766,0,0,1,3.039,1.324,5.077,5.077,0,0,1,1.115,3.385v.188a5.068,5.068,0,0,1-1.111,3.385,4.135,4.135,0,0,1-6.056,0,5.058,5.058,0,0,1-1.116-3.38Zm1.684.188a4.384,4.384,0,0,0,.62,2.427,2.239,2.239,0,0,0,3.672,0,4.365,4.365,0,0,0,.624-2.427v-.188a4.356,4.356,0,0,0-.628-2.419,2.06,2.06,0,0,0-1.842-.966,2.031,2.031,0,0,0-1.825.966,4.4,4.4,0,0,0-.62,2.419Z" transform="translate(-527.201 -1336.491)" fill="#12263f"/>
        <path id="Trazado_603789" data-name="Trazado 603789" d="M581.853,1339.688l.12,1.376a3.353,3.353,0,0,1,1.158-1.141,3.089,3.089,0,0,1,1.586-.406,3.018,3.018,0,0,1,2.316.876,3.847,3.847,0,0,1,.821,2.705v5.839H586.17v-5.8a2.5,2.5,0,0,0-.483-1.735,1.936,1.936,0,0,0-1.474-.513,2.614,2.614,0,0,0-1.321.312,2.269,2.269,0,0,0-.859.876v6.864h-1.684v-9.249Z" transform="translate(-538.169 -1336.491)" fill="#12263f"/>
        <path id="Trazado_603790" data-name="Trazado 603790" d="M606.2,1348.938q-.086-.419-.132-.74a5.394,5.394,0,0,1-.056-.646,3.925,3.925,0,0,1-1.226,1.116,3.141,3.141,0,0,1-1.628.449,3.023,3.023,0,0,1-2.2-.74,2.72,2.72,0,0,1-.757-2.039,2.388,2.388,0,0,1,1.073-2.072,5.008,5.008,0,0,1,2.911-.748h1.829v-.915a1.694,1.694,0,0,0-.5-1.286,1.944,1.944,0,0,0-1.4-.475,2.035,2.035,0,0,0-1.325.411,1.231,1.231,0,0,0-.5.983l-1.6.017-.017-.051a2.213,2.213,0,0,1,.944-1.847,3.918,3.918,0,0,1,2.595-.837,3.819,3.819,0,0,1,2.53.8,2.832,2.832,0,0,1,.958,2.3v4.453a8.712,8.712,0,0,0,.051.958,4.952,4.952,0,0,0,.188.906Zm-2.8-1.231a3,3,0,0,0,1.649-.47,2.233,2.233,0,0,0,.958-1.077v-1.5H604.12a2.45,2.45,0,0,0-1.628.513,1.533,1.533,0,0,0-.611,1.206,1.269,1.269,0,0,0,.384.974A1.612,1.612,0,0,0,603.4,1347.707Z" transform="translate(-548.384 -1336.491)" fill="#12263f"/>
        <path id="Trazado_603791" data-name="Trazado 603791" d="M493.441,1383.615a6.17,6.17,0,0,1,.953-3.6,3.07,3.07,0,0,1,2.671-1.367,3.313,3.313,0,0,1,1.44.3,2.952,2.952,0,0,1,1.073.872v-5.086h1.684v13.335h-1.291l-.256-1.171a3,3,0,0,1-1.12,1.009,3.344,3.344,0,0,1-1.547.342,3.174,3.174,0,0,1-2.649-1.226,5.1,5.1,0,0,1-.958-3.227Zm1.684.18a3.927,3.927,0,0,0,.572,2.244,2,2,0,0,0,1.778.842,2.232,2.232,0,0,0,1.265-.342,2.554,2.554,0,0,0,.838-.958v-4.317a2.6,2.6,0,0,0-.842-.91,2.23,2.23,0,0,0-1.244-.338,1.926,1.926,0,0,0-1.791,1,5.166,5.166,0,0,0-.577,2.6Z" transform="translate(-493.441 -1354.616)" fill="#12263f"/>
        <path id="Trazado_603792" data-name="Trazado 603792" d="M518.147,1392.4a3.913,3.913,0,0,1-3.107-1.274,4.9,4.9,0,0,1-1.116-3.351v-.377a4.8,4.8,0,0,1,1.15-3.3,3.606,3.606,0,0,1,2.808-1.3,3.358,3.358,0,0,1,2.782,1.154,4.757,4.757,0,0,1,.927,3.069v.889h-5.915l-.026.043a3.821,3.821,0,0,0,.616,2.261,2.15,2.15,0,0,0,1.881.867,4.233,4.233,0,0,0,1.5-.244,3.342,3.342,0,0,0,1.107-.671l.659,1.094a4.035,4.035,0,0,1-1.308.808A5.2,5.2,0,0,1,518.147,1392.4Zm-.265-8.275a1.829,1.829,0,0,0-1.457.68,3.212,3.212,0,0,0-.705,1.74l.017.043h4.172v-.137a2.692,2.692,0,0,0-.5-1.666A1.791,1.791,0,0,0,517.882,1384.125Z" transform="translate(-503.983 -1358.767)" fill="#12263f"/>
        <path id="Trazado_603793" data-name="Trazado 603793" d="M546.956,1384.459l-.864-.052a1.928,1.928,0,0,0-1.124.316,2.026,2.026,0,0,0-.705.889v6.607h-1.684v-9.249h1.5l.163,1.351a3.211,3.211,0,0,1,.97-1.12,2.267,2.267,0,0,1,1.329-.4,2.1,2.1,0,0,1,.359.03,2.363,2.363,0,0,1,.282.064Z" transform="translate(-518.73 -1358.767)" fill="#12263f"/>
        <path id="Trazado_603794" data-name="Trazado 603794" d="M558.285,1392.4a3.914,3.914,0,0,1-3.108-1.274,4.9,4.9,0,0,1-1.115-3.351v-.377a4.8,4.8,0,0,1,1.15-3.3,3.605,3.605,0,0,1,2.808-1.3,3.356,3.356,0,0,1,2.782,1.154,4.755,4.755,0,0,1,.927,3.069v.889h-5.915l-.026.043a3.82,3.82,0,0,0,.616,2.261,2.149,2.149,0,0,0,1.881.867,4.234,4.234,0,0,0,1.5-.244,3.346,3.346,0,0,0,1.107-.671l.658,1.094a4.027,4.027,0,0,1-1.307.808A5.2,5.2,0,0,1,558.285,1392.4Zm-.265-8.275a1.83,1.83,0,0,0-1.457.68,3.212,3.212,0,0,0-.705,1.74l.017.043h4.172v-.137a2.693,2.693,0,0,0-.5-1.666A1.792,1.792,0,0,0,558.02,1384.125Z" transform="translate(-524.64 -1358.767)" fill="#12263f"/>
        <path id="Trazado_603795" data-name="Trazado 603795" d="M577.01,1391.083a1.979,1.979,0,0,0,1.359-.517,1.634,1.634,0,0,0,.581-1.269h1.522l.026.051a2.654,2.654,0,0,1-1.026,2.124,3.919,3.919,0,0,1-5.47-.4,5.114,5.114,0,0,1-1.06-3.3v-.359a5.092,5.092,0,0,1,1.065-3.287,3.629,3.629,0,0,1,3-1.329,3.489,3.489,0,0,1,2.534.957,3.036,3.036,0,0,1,.953,2.351l-.017.052h-1.53a2.042,2.042,0,0,0-.551-1.441,1.814,1.814,0,0,0-1.389-.594,1.943,1.943,0,0,0-1.807.962,4.5,4.5,0,0,0-.569,2.329v.359a4.581,4.581,0,0,0,.56,2.35A1.942,1.942,0,0,0,577.01,1391.083Z" transform="translate(-534.356 -1358.767)" fill="#12263f"/>
        <path id="Trazado_603796" data-name="Trazado 603796" d="M597.982,1392.22q-.085-.419-.133-.739a5.43,5.43,0,0,1-.056-.646,3.92,3.92,0,0,1-1.226,1.116,3.135,3.135,0,0,1-1.628.449,3.024,3.024,0,0,1-2.2-.739,2.721,2.721,0,0,1-.757-2.039,2.389,2.389,0,0,1,1.073-2.073,5.013,5.013,0,0,1,2.911-.748h1.829v-.915a1.7,1.7,0,0,0-.5-1.286,1.946,1.946,0,0,0-1.4-.475,2.038,2.038,0,0,0-1.325.411,1.231,1.231,0,0,0-.5.983l-1.6.017-.017-.051a2.214,2.214,0,0,1,.944-1.847,3.916,3.916,0,0,1,2.594-.837,3.82,3.82,0,0,1,2.53.8,2.83,2.83,0,0,1,.958,2.3v4.453a8.731,8.731,0,0,0,.051.958,4.958,4.958,0,0,0,.188.906Zm-2.8-1.231a2.994,2.994,0,0,0,1.649-.47,2.232,2.232,0,0,0,.958-1.077v-1.5H595.9a2.449,2.449,0,0,0-1.628.513,1.533,1.533,0,0,0-.611,1.206,1.27,1.27,0,0,0,.384.975A1.613,1.613,0,0,0,595.187,1390.99Z" transform="translate(-544.155 -1358.767)" fill="#12263f"/>
        <path id="Trazado_603797" data-name="Trazado 603797" d="M616.84,1384.459l-.863-.052a1.928,1.928,0,0,0-1.124.316,2.023,2.023,0,0,0-.705.889v6.607h-1.684v-9.249h1.5l.163,1.351a3.211,3.211,0,0,1,.97-1.12,2.269,2.269,0,0,1,1.329-.4,2.1,2.1,0,0,1,.359.03,2.386,2.386,0,0,1,.282.064Z" transform="translate(-554.697 -1358.767)" fill="#12263f"/>
        <path id="Trazado_603798" data-name="Trazado 603798" d="M624.141,1387.767a6.174,6.174,0,0,1,.953-3.6,3.063,3.063,0,0,1,2.663-1.367,3.247,3.247,0,0,1,1.547.354,3.115,3.115,0,0,1,1.12,1.022l.205-1.206h1.342v9.3a3.528,3.528,0,0,1-1.034,2.731,4.247,4.247,0,0,1-2.983.953,6.243,6.243,0,0,1-1.441-.184,5.6,5.6,0,0,1-1.363-.5l.256-1.307a4.89,4.89,0,0,0,1.176.415,6.04,6.04,0,0,0,1.355.158,2.453,2.453,0,0,0,1.791-.56,2.32,2.32,0,0,0,.56-1.706v-1.051a2.98,2.98,0,0,1-1.086.881,3.388,3.388,0,0,1-1.461.3,3.163,3.163,0,0,1-2.646-1.227,5.115,5.115,0,0,1-.953-3.227Zm1.684.179a3.933,3.933,0,0,0,.573,2.24,1.988,1.988,0,0,0,1.77.846,2.229,2.229,0,0,0,1.274-.346,2.628,2.628,0,0,0,.846-.979v-4.257a2.619,2.619,0,0,0-.846-.936,2.218,2.218,0,0,0-1.257-.347,1.918,1.918,0,0,0-1.782,1,5.161,5.161,0,0,0-.577,2.6Z" transform="translate(-560.707 -1358.767)" fill="#12263f"/>
        <path id="Trazado_603799" data-name="Trazado 603799" d="M650.607,1392.22q-.085-.419-.133-.739a5.443,5.443,0,0,1-.056-.646,3.92,3.92,0,0,1-1.226,1.116,3.135,3.135,0,0,1-1.628.449,3.024,3.024,0,0,1-2.2-.739,2.721,2.721,0,0,1-.757-2.039,2.389,2.389,0,0,1,1.073-2.073,5.013,5.013,0,0,1,2.911-.748h1.829v-.915a1.7,1.7,0,0,0-.5-1.286,1.946,1.946,0,0,0-1.4-.475,2.038,2.038,0,0,0-1.325.411,1.231,1.231,0,0,0-.5.983l-1.6.017-.017-.051a2.214,2.214,0,0,1,.944-1.847,3.916,3.916,0,0,1,2.594-.837,3.82,3.82,0,0,1,2.53.8,2.83,2.83,0,0,1,.958,2.3v4.453a8.716,8.716,0,0,0,.051.958,4.963,4.963,0,0,0,.188.906Zm-2.8-1.231a2.993,2.993,0,0,0,1.649-.47,2.232,2.232,0,0,0,.958-1.077v-1.5H648.53a2.449,2.449,0,0,0-1.628.513,1.533,1.533,0,0,0-.611,1.206,1.27,1.27,0,0,0,.384.975A1.613,1.613,0,0,0,647.812,1390.99Z" transform="translate(-571.239 -1358.767)" fill="#12263f"/>
      </g>
      <g id="Grupo_874694" data-name="Grupo 874694" transform="translate(703.331 1321.071)">
        <path id="Trazado_603800" data-name="Trazado 603800" d="M933.413,1451.522h-4.685l-1.111,3.206H925.9l4.488-12.446h1.445l4.394,12.446h-1.718Zm-4.2-1.41h3.719l-1.812-5.343h-.051Z" transform="translate(-925.899 -1441.393)" fill="#12263f"/>
        <path id="Trazado_603801" data-name="Trazado 603801" d="M949.853,1453.484a6.174,6.174,0,0,1,.953-3.6,3.063,3.063,0,0,1,2.663-1.367,3.246,3.246,0,0,1,1.547.354,3.109,3.109,0,0,1,1.12,1.022l.205-1.206h1.342v9.3a3.528,3.528,0,0,1-1.034,2.731,4.247,4.247,0,0,1-2.983.953,6.242,6.242,0,0,1-1.44-.184,5.62,5.62,0,0,1-1.363-.5l.256-1.307a4.9,4.9,0,0,0,1.176.414,6.032,6.032,0,0,0,1.355.158,2.455,2.455,0,0,0,1.791-.56,2.321,2.321,0,0,0,.56-1.705v-1.051a2.985,2.985,0,0,1-1.086.881,3.389,3.389,0,0,1-1.461.3,3.163,3.163,0,0,1-2.646-1.226,5.115,5.115,0,0,1-.953-3.227Zm1.684.18a3.93,3.93,0,0,0,.573,2.239,1.988,1.988,0,0,0,1.769.846,2.227,2.227,0,0,0,1.274-.346,2.625,2.625,0,0,0,.847-.979v-4.257a2.613,2.613,0,0,0-.847-.936,2.217,2.217,0,0,0-1.256-.347,1.917,1.917,0,0,0-1.782,1,5.161,5.161,0,0,0-.577,2.6Z" transform="translate(-938.227 -1444.603)" fill="#12263f"/>
        <path id="Trazado_603802" data-name="Trazado 603802" d="M976.806,1456.75a3.131,3.131,0,0,1-1.12,1.146,3.065,3.065,0,0,1-1.581.4,2.972,2.972,0,0,1-2.359-.966,4.485,4.485,0,0,1-.846-3.009v-5.454h1.684v5.471a3.443,3.443,0,0,0,.436,2.034,1.621,1.621,0,0,0,1.359.556,2.766,2.766,0,0,0,1.483-.364,2.276,2.276,0,0,0,.885-1.031v-6.667h1.684v9.249h-1.513Z" transform="translate(-949.059 -1444.783)" fill="#12263f"/>
        <path id="Trazado_603803" data-name="Trazado 603803" d="M996.819,1457.938q-.086-.419-.132-.74a5.394,5.394,0,0,1-.056-.646,3.925,3.925,0,0,1-1.226,1.116,3.14,3.14,0,0,1-1.628.449,3.023,3.023,0,0,1-2.2-.74,2.72,2.72,0,0,1-.757-2.039,2.388,2.388,0,0,1,1.073-2.072,5.008,5.008,0,0,1,2.911-.748h1.829v-.915a1.694,1.694,0,0,0-.5-1.286,1.944,1.944,0,0,0-1.4-.475,2.035,2.035,0,0,0-1.326.411,1.231,1.231,0,0,0-.5.983l-1.6.017-.017-.051a2.215,2.215,0,0,1,.944-1.847,3.918,3.918,0,0,1,2.595-.837,3.818,3.818,0,0,1,2.53.8,2.832,2.832,0,0,1,.958,2.3v4.453a8.712,8.712,0,0,0,.051.958,4.947,4.947,0,0,0,.188.906Zm-2.8-1.231a3,3,0,0,0,1.649-.47,2.233,2.233,0,0,0,.958-1.077v-1.5h-1.889a2.45,2.45,0,0,0-1.628.513,1.532,1.532,0,0,0-.611,1.206,1.269,1.269,0,0,0,.384.974A1.612,1.612,0,0,0,994.024,1456.707Z" transform="translate(-959.31 -1444.603)" fill="#12263f"/>
        <path id="Trazado_603804" data-name="Trazado 603804" d="M1022.232,1453.786h-1.684v-13.335h1.684Z" transform="translate(-974.611 -1440.451)" fill="#12263f"/>
        <path id="Trazado_603805" data-name="Trazado 603805" d="M1031.319,1453.786h-1.683v-13.335h1.683Z" transform="translate(-979.288 -1440.451)" fill="#12263f"/>
        <path id="Trazado_603806" data-name="Trazado 603806" d="M1044.278,1456.75a3.133,3.133,0,0,1-1.12,1.146,3.063,3.063,0,0,1-1.581.4,2.972,2.972,0,0,1-2.36-.966,4.487,4.487,0,0,1-.846-3.009v-5.454h1.684v5.471a3.447,3.447,0,0,0,.435,2.034,1.622,1.622,0,0,0,1.359.556,2.768,2.768,0,0,0,1.483-.364,2.279,2.279,0,0,0,.885-1.031v-6.667h1.684v9.249h-1.513Z" transform="translate(-983.784 -1444.783)" fill="#12263f"/>
        <path id="Trazado_603807" data-name="Trazado 603807" d="M1061.149,1455.392l.145.649h.051l.163-.649,2.129-6.523h1.718l-3.4,9.249h-1.274l-3.445-9.249h1.727Z" transform="translate(-993.492 -1444.783)" fill="#12263f"/>
        <path id="Trazado_603808" data-name="Trazado 603808" d="M1078.943,1454.148h-1.684V1444.9h1.684Zm-.026-12.993h1.966l.017.052-2.3,2.222h-1.265Z" transform="translate(-1003.798 -1440.813)" fill="#12263f"/>
        <path id="Trazado_603809" data-name="Trazado 603809" d="M1091.5,1457.938q-.085-.419-.132-.74a5.2,5.2,0,0,1-.056-.646,3.925,3.925,0,0,1-1.227,1.116,3.138,3.138,0,0,1-1.628.449,3.022,3.022,0,0,1-2.2-.74,2.72,2.72,0,0,1-.757-2.039,2.387,2.387,0,0,1,1.073-2.072,5.008,5.008,0,0,1,2.911-.748h1.829v-.915a1.694,1.694,0,0,0-.5-1.286,1.945,1.945,0,0,0-1.4-.475,2.033,2.033,0,0,0-1.325.411,1.231,1.231,0,0,0-.5.983l-1.6.017-.017-.051a2.213,2.213,0,0,1,.944-1.847,3.918,3.918,0,0,1,2.595-.837,3.819,3.819,0,0,1,2.53.8,2.832,2.832,0,0,1,.957,2.3v4.453a8.606,8.606,0,0,0,.052.958,4.986,4.986,0,0,0,.188.906Zm-2.8-1.231a3,3,0,0,0,1.65-.47,2.234,2.234,0,0,0,.958-1.077v-1.5h-1.889a2.451,2.451,0,0,0-1.629.513,1.533,1.533,0,0,0-.611,1.206,1.267,1.267,0,0,0,.385.974A1.61,1.61,0,0,0,1088.706,1456.707Z" transform="translate(-1008.039 -1444.603)" fill="#12263f"/>
      </g>
      <g id="Grupo_874695" data-name="Grupo 874695" transform="translate(580.17 1330.293)">
        <path id="Trazado_603810" data-name="Trazado 603810" d="M672.137,1473.728v-12.446h3.915a5.119,5.119,0,0,1,5.4,5.377v1.7a5.106,5.106,0,0,1-5.4,5.368Zm1.684-11.121v9.8h2.231a3.432,3.432,0,0,0,2.722-1.137,4.261,4.261,0,0,0,1-2.915v-1.718a4.238,4.238,0,0,0-1-2.9,3.433,3.433,0,0,0-2.722-1.136Z" transform="translate(-672.137 -1460.393)" fill="#fff"/>
        <path id="Trazado_603811" data-name="Trazado 603811" d="M700.465,1469.176l-.863-.051a1.931,1.931,0,0,0-1.124.316,2.023,2.023,0,0,0-.705.89v6.607h-1.684v-9.249h1.5l.163,1.351a3.209,3.209,0,0,1,.97-1.12,2.268,2.268,0,0,1,1.329-.4,2.078,2.078,0,0,1,.359.03,2.391,2.391,0,0,1,.282.064Z" transform="translate(-684.464 -1463.603)" fill="#fff"/>
        <path id="Trazado_603812" data-name="Trazado 603812" d="M711.795,1477.117a3.913,3.913,0,0,1-3.107-1.274,4.9,4.9,0,0,1-1.116-3.351v-.377a4.8,4.8,0,0,1,1.15-3.3,3.607,3.607,0,0,1,2.809-1.3,3.357,3.357,0,0,1,2.782,1.154,4.756,4.756,0,0,1,.927,3.069v.889h-5.915l-.026.043a3.825,3.825,0,0,0,.615,2.261,2.151,2.151,0,0,0,1.881.867,4.232,4.232,0,0,0,1.5-.244,3.346,3.346,0,0,0,1.107-.671l.658,1.094a4.04,4.04,0,0,1-1.307.807A5.214,5.214,0,0,1,711.795,1477.117Zm-.265-8.275a1.83,1.83,0,0,0-1.457.68,3.214,3.214,0,0,0-.706,1.74l.017.043h4.171v-.137a2.692,2.692,0,0,0-.5-1.666A1.792,1.792,0,0,0,711.53,1468.842Z" transform="translate(-690.374 -1463.603)" fill="#fff"/>
        <path id="Trazado_603813" data-name="Trazado 603813" d="M728.767,1467.688l.12,1.376a3.353,3.353,0,0,1,1.158-1.141,3.089,3.089,0,0,1,1.586-.406,3.018,3.018,0,0,1,2.316.876,3.847,3.847,0,0,1,.821,2.705v5.839h-1.684v-5.8a2.5,2.5,0,0,0-.483-1.735,1.937,1.937,0,0,0-1.474-.513,2.614,2.614,0,0,0-1.321.312,2.27,2.27,0,0,0-.859.876v6.864h-1.684v-9.249Z" transform="translate(-700.508 -1463.603)" fill="#fff"/>
        <path id="Trazado_603814" data-name="Trazado 603814" d="M753.113,1476.938c-.057-.279-.1-.526-.133-.74a5.4,5.4,0,0,1-.056-.646,3.924,3.924,0,0,1-1.226,1.116,3.141,3.141,0,0,1-1.628.449,3.023,3.023,0,0,1-2.2-.74,2.72,2.72,0,0,1-.757-2.039,2.388,2.388,0,0,1,1.073-2.072,5.008,5.008,0,0,1,2.911-.748h1.829v-.915a1.694,1.694,0,0,0-.5-1.286,1.944,1.944,0,0,0-1.4-.475,2.035,2.035,0,0,0-1.326.411,1.231,1.231,0,0,0-.5.983l-1.6.017-.017-.051a2.213,2.213,0,0,1,.944-1.847,3.917,3.917,0,0,1,2.595-.837,3.817,3.817,0,0,1,2.53.8,2.831,2.831,0,0,1,.958,2.3v4.453a8.727,8.727,0,0,0,.051.958,4.942,4.942,0,0,0,.188.906Zm-2.8-1.231a3,3,0,0,0,1.649-.47,2.233,2.233,0,0,0,.958-1.077v-1.5h-1.889a2.449,2.449,0,0,0-1.628.513,1.533,1.533,0,0,0-.611,1.206,1.269,1.269,0,0,0,.384.974A1.612,1.612,0,0,0,750.318,1475.707Z" transform="translate(-710.724 -1463.603)" fill="#fff"/>
        <path id="Trazado_603815" data-name="Trazado 603815" d="M767.641,1463.537v10.01a3.069,3.069,0,0,1-.735,2.2,2.683,2.683,0,0,1-2.043.774,2.788,2.788,0,0,1-.483-.038,3.9,3.9,0,0,1-.466-.115l.119-1.326a1.774,1.774,0,0,0,.342.073,2.859,2.859,0,0,0,.367.03,1.118,1.118,0,0,0,.885-.376,1.844,1.844,0,0,0,.329-1.223v-10.01Zm-.052-2.4h-1.684v-1.684h1.684Z" transform="translate(-719.371 -1459.451)" fill="#fff"/>
        <path id="Trazado_603816" data-name="Trazado 603816" d="M780.341,1477.117a3.913,3.913,0,0,1-3.107-1.274,4.9,4.9,0,0,1-1.116-3.351v-.377a4.8,4.8,0,0,1,1.15-3.3,3.606,3.606,0,0,1,2.808-1.3,3.357,3.357,0,0,1,2.782,1.154,4.756,4.756,0,0,1,.927,3.069v.889h-5.915l-.026.043a3.826,3.826,0,0,0,.615,2.261,2.152,2.152,0,0,0,1.881.867,4.234,4.234,0,0,0,1.5-.244,3.339,3.339,0,0,0,1.107-.671l.659,1.094a4.04,4.04,0,0,1-1.307.807A5.214,5.214,0,0,1,780.341,1477.117Zm-.265-8.275a1.829,1.829,0,0,0-1.457.68,3.213,3.213,0,0,0-.706,1.74l.017.043H782.1v-.137a2.7,2.7,0,0,0-.5-1.666A1.792,1.792,0,0,0,780.076,1468.842Z" transform="translate(-725.652 -1463.603)" fill="#fff"/>
      </g>
    </g>
  </g>
</svg>
