<svg xmlns="http://www.w3.org/2000/svg" width="14" height="15.635" viewBox="0 0 14 15.635">
  <path id="snowflake-regular" d="M40.759,8.99a.733.733,0,0,1-.518.9l-.961.257,1.007.581a.732.732,0,1,1-.733,1.268l-1.007-.581.257.961a.733.733,0,1,1-1.416.379l-.637-2.376L34.518,9.088v2.58l1.74,1.74a.733.733,0,0,1-1.036,1.036l-.7-.7V14.9a.733.733,0,0,1-1.466,0V13.74l-.7.7a.733.733,0,0,1-1.036-1.036l1.74-1.739V9.088l-2.234,1.29-.637,2.376a.733.733,0,1,1-1.416-.379l.257-.961L28.016,12a.734.734,0,1,1-.733-1.271l1.007-.581-.961-.257a.733.733,0,1,1,.379-1.416l2.376.637L32.319,7.79,30.084,6.529l-2.376.635a.733.733,0,0,1-.379-1.417l.961-.257-1.007-.58a.733.733,0,1,1,.733-1.27l1.007.581-.257-.96a.733.733,0,1,1,1.416-.38l.637,2.376,2.234,1.289V3.967L31.311,2.228a.733.733,0,0,1,1.036-1.036l.7.7V.733a.733.733,0,0,1,1.466,0V1.9l.7-.7a.733.733,0,1,1,1.036,1.036l-1.74,1.739v2.58l2.234-1.29.637-2.376A.733.733,0,1,1,38.8,3.26l-.257.961,1.007-.581a.734.734,0,1,1,.734,1.271l-1.007.581.961.257a.733.733,0,0,1-.379,1.416l-2.376-.637L35.25,7.79l2.234,1.29,2.376-.637A.765.765,0,0,1,40.759,8.99Z" transform="translate(-26.785)" fill="#81ad20"/>
</svg>
