<svg xmlns="http://www.w3.org/2000/svg" xmlns:xlink="http://www.w3.org/1999/xlink" width="383.596" height="318.886" viewBox="0 0 383.596 318.886">
  <defs>
    <clipPath id="clip-path">
      <path id="Trazado_603256" data-name="Trazado 603256" d="M1282.222,997.987c-.007.208-.018.416-.031.623-.011.182-.021.364-.036.546-.016.21-.037.419-.058.628-.018.18-.035.36-.057.54-.026.212-.056.422-.086.633-.025.177-.049.356-.078.533-.034.213-.074.425-.114.638-.032.176-.063.351-.1.526-.043.21-.091.418-.139.627-.04.176-.077.353-.121.528-.052.213-.111.424-.169.637-.047.172-.09.344-.14.516-.062.216-.131.431-.2.646-.052.167-.1.335-.157.5-.075.224-.157.447-.237.672-.056.157-.109.314-.168.471-.125.33-.257.659-.393.988-.023.056-.043.112-.067.168q-.244.576-.512,1.149c-.055.118-.115.235-.172.352-.127.265-.255.53-.39.793-.076.147-.157.293-.235.44-.124.232-.247.465-.377.7-.076.135-.157.27-.235.4-.151.261-.3.524-.463.785-.094.152-.19.3-.285.454q-.229.363-.468.725c-.1.157-.21.313-.316.47-.162.237-.328.473-.5.709-.11.153-.22.307-.333.461-.179.243-.364.484-.55.725-.108.14-.214.279-.324.418q-.5.635-1.039,1.264c-.06.069-.123.138-.183.207q-.457.529-.94,1.053-.177.192-.358.383-.441.469-.9.934c-.107.109-.213.218-.322.326q-.616.609-1.264,1.211c-.16.149-.325.295-.488.441-.208.188-.414.376-.626.563-.173.151-.351.3-.526.45-.214.182-.426.366-.645.547-.183.152-.372.3-.559.454-.219.177-.436.354-.66.529-.194.153-.393.3-.591.455-.224.172-.447.344-.676.515-.2.15-.41.3-.615.45-.233.169-.466.339-.7.507-.21.148-.424.3-.637.442-.24.166-.481.332-.725.5-.219.147-.443.293-.666.438-.248.163-.495.325-.747.487-.227.144-.458.288-.688.432-.256.159-.512.318-.771.476-.408.248-.82.495-1.24.738-.9.521-1.816,1.023-2.745,1.517q-.367.195-.738.386-1.251.648-2.534,1.263c-.114.055-.225.112-.339.165-.958.453-1.933.888-2.917,1.312-.252.108-.506.215-.76.321q-1.259.529-2.543,1.029c-.186.072-.369.147-.555.219q-1.517.577-3.069,1.113c-.248.086-.5.168-.746.252-.7.236-1.406.461-2.115.684q-1,.316-2.015.613-.858.253-1.722.494-1.025.284-2.063.55c-.58.149-1.161.3-1.745.44-.7.17-1.407.33-2.114.488-.585.131-1.169.261-1.759.385-.719.149-1.444.288-2.169.426-.644.123-1.287.249-1.936.362-.291.051-.584.1-.876.149q-1.49.249-2.993.468l-.5.075q-1.711.24-3.436.435c-.29.033-.58.064-.871.1-.709.077-1.421.143-2.133.209q-1.333.124-2.671.222c-.56.041-1.119.081-1.68.116-.928.057-1.857.1-2.788.141-.525.023-1.051.049-1.577.065-.806.025-1.613.036-2.42.048-.567.007-1.132.022-1.7.023-.865,0-1.73-.013-2.6-.027-.509-.008-1.019-.008-1.528-.021-.795-.021-1.588-.059-2.383-.094-.55-.023-1.1-.039-1.651-.069-.858-.046-1.712-.112-2.568-.174-.484-.035-.969-.06-1.451-.1-1.032-.086-2.059-.191-3.085-.3-.3-.032-.607-.055-.909-.089q-1.989-.223-3.963-.5c-.211-.03-.419-.068-.63-.1-1.131-.165-2.26-.34-3.38-.533-.467-.081-.929-.175-1.394-.261-.858-.157-1.716-.314-2.567-.488-.445-.091-.884-.195-1.327-.29-.936-.2-1.868-.409-2.793-.631-.514-.123-1.022-.256-1.533-.385q-1.266-.322-2.521-.667c-.713-.2-1.426-.4-2.131-.609-.267-.08-.535-.157-.8-.238q-1.6-.49-3.167-1.022c-.2-.068-.4-.141-.6-.211q-1.3-.449-2.573-.93-.437-.163-.871-.331c-.677-.261-1.344-.535-2.01-.809-.46-.19-.922-.375-1.377-.571-.65-.278-1.288-.57-1.927-.861-.42-.193-.846-.379-1.263-.577-.7-.331-1.379-.676-2.061-1.022-.342-.173-.692-.34-1.03-.517q-1.519-.8-2.988-1.64c-16.354-9.442-24.521-21.836-24.486-34.211,0,0-.222,76.709-.222,76.73-.178,29.832,37.312,43.2,61.462,46.944a131.648,131.648,0,0,0,71.55-8.586c7.842-3.356,15.437-7.59,21.518-13.573,6.451-6.347,11.336-15.073,11.363-24.308l.222-76.73C1282.243,997.367,1282.233,997.677,1282.222,997.987Z" transform="translate(-1116.128 -996.579)" fill="none"/>
    </clipPath>
    <clipPath id="clip-path-2">
      <path id="Trazado_603293" data-name="Trazado 603293" d="M1253.96,914.333c0,.115-.01.229-.017.344s-.012.2-.019.3c-.01.116-.021.232-.032.347-.01.1-.019.2-.031.3-.015.116-.031.233-.048.349-.014.1-.027.2-.043.295-.019.118-.042.236-.064.353-.017.1-.035.194-.054.291-.024.115-.051.232-.077.347-.022.1-.043.195-.067.291-.028.118-.061.235-.093.352-.026.1-.05.19-.077.285-.035.119-.073.238-.111.357-.029.092-.056.185-.087.277-.041.124-.087.248-.131.371-.031.087-.06.173-.093.261-.069.182-.142.364-.217.546-.013.031-.024.062-.037.093-.089.212-.184.424-.282.635-.031.065-.064.13-.1.194-.07.146-.141.292-.215.438-.042.081-.087.161-.13.243-.069.128-.136.258-.208.385-.042.075-.086.149-.13.224-.083.145-.168.29-.256.433-.052.084-.1.168-.158.252-.084.134-.17.267-.258.4-.057.087-.116.174-.175.26-.09.131-.182.262-.276.391-.06.086-.122.17-.184.255q-.149.2-.3.4c-.059.077-.118.154-.178.231-.186.234-.376.466-.575.7-.032.039-.068.077-.1.115q-.253.293-.52.583l-.2.212q-.244.259-.5.517c-.06.06-.118.12-.179.18q-.34.337-.7.669c-.089.081-.18.163-.27.244-.114.1-.228.208-.345.311-.1.084-.194.166-.291.249-.118.1-.236.2-.356.3-.1.085-.206.167-.309.251-.121.1-.241.2-.365.293-.107.084-.217.168-.326.251s-.248.19-.373.285-.227.165-.34.249c-.129.094-.258.187-.389.28-.115.082-.234.163-.352.245-.133.092-.266.183-.4.274s-.245.162-.367.243-.273.179-.413.268-.253.16-.381.239-.282.176-.426.263c-.226.137-.453.274-.685.408-.5.288-1,.566-1.517.839l-.408.213q-.691.358-1.4.7c-.063.031-.125.062-.188.092q-.794.375-1.612.725c-.139.06-.279.119-.419.177q-.7.293-1.406.569c-.1.039-.2.081-.307.12q-.839.32-1.7.616l-.412.139c-.387.131-.777.255-1.169.379q-.554.174-1.115.339c-.316.093-.633.185-.951.273q-.568.157-1.14.3-.481.125-.965.243c-.387.094-.778.182-1.169.27-.323.072-.646.144-.972.212-.4.083-.8.16-1.2.235-.356.068-.712.138-1.07.2l-.484.082q-.824.139-1.654.259c-.092.014-.184.028-.277.041-.63.089-1.263.168-1.9.241l-.482.052c-.391.042-.785.078-1.179.115q-.736.068-1.476.123c-.309.023-.618.045-.928.064-.513.032-1.026.057-1.541.078-.291.012-.581.027-.872.036-.445.015-.892.02-1.338.027-.312,0-.625.012-.938.013-.479,0-.957-.007-1.435-.015-.281,0-.562,0-.844-.012-.439-.011-.878-.032-1.316-.052-.3-.013-.609-.021-.913-.038-.474-.026-.947-.061-1.42-.1-.267-.019-.535-.034-.8-.056-.57-.048-1.138-.106-1.705-.165-.167-.018-.335-.031-.5-.049q-1.1-.122-2.191-.277c-.116-.017-.232-.038-.348-.055-.625-.091-1.249-.187-1.868-.295-.258-.044-.513-.1-.77-.144-.474-.087-.949-.174-1.419-.27-.246-.05-.489-.107-.734-.16-.516-.111-1.033-.226-1.544-.349-.284-.069-.565-.141-.848-.213-.466-.119-.931-.241-1.393-.369-.395-.11-.788-.22-1.178-.337l-.442-.132q-.882-.271-1.75-.565c-.111-.038-.221-.078-.333-.117q-.718-.248-1.423-.513c-.161-.06-.321-.121-.481-.183-.374-.144-.743-.3-1.11-.447-.254-.1-.51-.208-.762-.316-.358-.154-.711-.316-1.064-.476-.234-.106-.468-.21-.7-.319-.385-.183-.763-.375-1.14-.565-.189-.1-.382-.188-.569-.286-.559-.294-1.111-.595-1.651-.907-9.038-5.218-13.552-12.068-13.533-18.908,0,0-.123,42.4-.123,42.408-.1,16.488,20.621,23.874,33.969,25.945a72.763,72.763,0,0,0,39.544-4.745,38.064,38.064,0,0,0,11.893-7.5c3.565-3.508,6.265-8.331,6.28-13.434l.122-42.408C1253.972,913.99,1253.967,914.161,1253.96,914.333Z" transform="translate(-1162.163 -913.554)" fill="none"/>
    </clipPath>
  </defs>
  <g id="Grupo_874505" data-name="Grupo 874505" transform="translate(-988.778 -757.388)">
    <g id="Grupo_874474" data-name="Grupo 874474" transform="translate(1094.486 820.371)">
      <g id="Grupo_874375" data-name="Grupo 874375" transform="translate(0 65.914)">
        <path id="Trazado_603190" data-name="Trazado 603190" d="M1282.222,997.987c-.007.208-.018.416-.031.623-.011.182-.021.364-.036.546-.016.21-.037.419-.058.628-.018.18-.035.36-.057.54-.026.212-.056.422-.086.633-.025.177-.049.356-.078.533-.034.213-.074.425-.114.638-.032.176-.063.351-.1.526-.043.21-.091.418-.139.627-.04.176-.077.353-.121.528-.052.213-.111.424-.169.637-.047.172-.09.344-.14.516-.062.216-.131.431-.2.646-.052.167-.1.335-.157.5-.075.224-.157.447-.237.672-.056.157-.109.314-.168.471-.125.33-.257.659-.393.988-.023.056-.043.112-.067.168q-.244.576-.512,1.149c-.055.118-.115.235-.172.352-.127.265-.255.53-.39.793-.076.147-.157.293-.235.44-.124.232-.247.465-.377.7-.076.135-.157.27-.235.4-.151.261-.3.524-.463.785-.094.152-.19.3-.285.454q-.229.363-.468.725c-.1.157-.21.313-.316.47-.162.237-.328.473-.5.709-.11.153-.22.307-.333.461-.179.243-.364.484-.55.725-.108.14-.214.279-.324.418q-.5.635-1.039,1.264c-.06.069-.123.138-.183.207q-.457.529-.94,1.053-.177.192-.358.383-.441.469-.9.934c-.107.109-.213.218-.322.326q-.616.609-1.264,1.211c-.16.149-.325.295-.488.441-.208.188-.414.376-.626.563-.173.151-.351.3-.526.45-.214.182-.426.366-.645.547-.183.152-.372.3-.559.454-.219.177-.436.354-.66.529-.194.153-.393.3-.591.455-.224.172-.447.344-.676.515-.2.15-.41.3-.615.45-.233.169-.466.339-.7.507-.21.148-.424.3-.637.442-.24.166-.481.332-.725.5-.219.147-.443.293-.666.438-.248.163-.495.325-.747.487-.227.144-.458.288-.688.432-.256.159-.512.318-.771.476-.408.248-.82.495-1.24.738-.9.521-1.816,1.023-2.745,1.517q-.367.195-.738.386-1.251.648-2.534,1.263c-.114.055-.225.112-.339.165-.958.453-1.933.888-2.917,1.312-.252.108-.506.215-.76.321q-1.259.529-2.543,1.029c-.186.072-.369.147-.555.219q-1.517.577-3.069,1.113c-.248.086-.5.168-.746.252-.7.236-1.406.461-2.115.684q-1,.316-2.015.613-.858.253-1.722.494-1.025.284-2.063.55c-.58.149-1.161.3-1.745.44-.7.17-1.407.33-2.114.488-.585.131-1.169.261-1.759.385-.719.149-1.444.288-2.169.426-.644.123-1.287.249-1.936.362-.291.051-.584.1-.876.149q-1.49.249-2.993.468l-.5.075q-1.711.24-3.436.435c-.29.033-.58.064-.871.1-.709.077-1.421.143-2.133.209q-1.333.124-2.671.222c-.56.041-1.119.081-1.68.116-.928.057-1.857.1-2.788.141-.525.023-1.051.049-1.577.065-.806.025-1.613.036-2.42.048-.567.007-1.132.022-1.7.023-.865,0-1.73-.013-2.6-.027-.509-.008-1.019-.008-1.528-.021-.795-.021-1.588-.059-2.383-.094-.55-.023-1.1-.039-1.651-.069-.858-.046-1.712-.112-2.568-.174-.484-.035-.969-.06-1.451-.1-1.032-.086-2.059-.191-3.085-.3-.3-.032-.607-.055-.909-.089q-1.989-.223-3.963-.5c-.211-.03-.419-.068-.63-.1-1.131-.165-2.26-.34-3.38-.533-.467-.081-.929-.175-1.394-.261-.858-.157-1.716-.314-2.567-.488-.445-.091-.884-.195-1.327-.29-.936-.2-1.868-.409-2.793-.631-.514-.123-1.022-.256-1.533-.385q-1.266-.322-2.521-.667c-.713-.2-1.426-.4-2.131-.609-.267-.08-.535-.157-.8-.238q-1.6-.49-3.167-1.022c-.2-.068-.4-.141-.6-.211q-1.3-.449-2.573-.93-.437-.163-.871-.331c-.677-.261-1.344-.535-2.01-.809-.46-.19-.922-.375-1.377-.571-.65-.278-1.288-.57-1.927-.861-.42-.193-.846-.379-1.263-.577-.7-.331-1.379-.676-2.061-1.022-.342-.173-.692-.34-1.03-.517q-1.519-.8-2.988-1.64c-16.354-9.442-24.521-21.836-24.486-34.211,0,0-.222,76.709-.222,76.73-.178,29.832,37.312,43.2,61.462,46.944a131.648,131.648,0,0,0,71.55-8.586c7.842-3.356,15.437-7.59,21.518-13.573,6.451-6.347,11.336-15.073,11.363-24.308l.222-76.73C1282.243,997.367,1282.233,997.677,1282.222,997.987Z" transform="translate(-1116.128 -931.867)" fill="#914b23"/>
        <g id="Grupo_874371" data-name="Grupo 874371" transform="translate(0 64.712)">
          <g id="Grupo_874370" data-name="Grupo 874370" clip-path="url(#clip-path)">
            <g id="Grupo_874369" data-name="Grupo 874369" transform="translate(-7.937 9.045)" style="mix-blend-mode: multiply;isolation: isolate">
              <path id="Trazado_603191" data-name="Trazado 603191" d="M1281.643,1040.472l-24.59,3s2.968,5.009,5.766,7.519,9,11.231,10.832,12.027,7.841,1.583,10.644-1.3S1283.4,1046.219,1281.643,1040.472Z" transform="translate(-1135.381 -1014.092)" fill="#d3cac1"/>
              <path id="Trazado_603192" data-name="Trazado 603192" d="M1216.593,1148.068l24.727-1.526s-2.663-5.177-5.306-7.85-8.308-11.748-10.093-12.654-7.733-2.049-10.7.663S1215.179,1142.227,1216.593,1148.068Z" transform="translate(-1127.062 -1030.402)" fill="#d3cac1"/>
              <path id="Trazado_603193" data-name="Trazado 603193" d="M1174.95,1052.2l-16.407-9.672a30.43,30.43,0,0,0,0,7.284c.533,2.84.234,11.061.981,12.406s4.043,4.633,7.1,4.185S1173.336,1056.533,1174.95,1052.2Z" transform="translate(-1116.329 -1014.489)" fill="#d3cac1"/>
              <path id="Trazado_603194" data-name="Trazado 603194" d="M1312.865,1048.465c-3.562-1.333-5.762,1.083-7.342,3.979s-.366,10.137,1.69,11.965,8.759,1.882,9.869-1.583S1316.961,1050,1312.865,1048.465Z" transform="translate(-1144.594 -1015.562)" fill="#d3cac1"/>
              <path id="Trazado_603195" data-name="Trazado 603195" d="M1128.456,1022.8c-2.109-.789-3.411.642-4.348,2.357s-.216,6,1,7.084,5.186,1.115,5.843-.937S1130.882,1023.708,1128.456,1022.8Z" transform="translate(-1109.649 -1010.64)" fill="#d3cac1"/>
              <path id="Trazado_603196" data-name="Trazado 603196" d="M1179.993,1085.809c-2.59-.969-4.19.788-5.339,2.894s-.266,7.373,1.23,8.7,6.369,1.37,7.177-1.15S1182.973,1086.922,1179.993,1085.809Z" transform="translate(-1119.382 -1022.787)" fill="#d3cac1"/>
              <path id="Trazado_603197" data-name="Trazado 603197" d="M1127.865,1059.812c-.964-.362-1.559.293-1.988,1.077a3.7,3.7,0,0,0,.458,3.24c.557.5,2.373.51,2.673-.428S1128.975,1060.226,1127.865,1059.812Z" transform="translate(-1110.034 -1017.804)" fill="#d3cac1"/>
              <path id="Trazado_603198" data-name="Trazado 603198" d="M1256.918,1104.927c-.965-.361-1.561.292-1.989,1.077a3.7,3.7,0,0,0,.458,3.24c.558.5,2.373.51,2.674-.428S1258.027,1105.341,1256.918,1104.927Z" transform="translate(-1134.934 -1026.509)" fill="#d3cac1"/>
              <path id="Trazado_603199" data-name="Trazado 603199" d="M1191.748,1136.45c-.965-.362-1.561.292-1.989,1.077a3.7,3.7,0,0,0,.458,3.24c.558.5,2.373.51,2.673-.428S1192.857,1136.865,1191.748,1136.45Z" transform="translate(-1122.36 -1032.591)" fill="#d3cac1"/>
              <path id="Trazado_603200" data-name="Trazado 603200" d="M1135.213,1094.736c-.965-.361-1.561.293-1.989,1.077a3.705,3.705,0,0,0,.458,3.24c.558.5,2.373.51,2.673-.429S1136.322,1095.151,1135.213,1094.736Z" transform="translate(-1111.452 -1024.542)" fill="#d3cac1"/>
              <path id="Trazado_603201" data-name="Trazado 603201" d="M1205.477,1079.024c-.965-.362-1.561.292-1.989,1.077a3.7,3.7,0,0,0,.458,3.24c.557.5,2.372.51,2.673-.428S1206.586,1079.438,1205.477,1079.024Z" transform="translate(-1125.009 -1021.511)" fill="#d3cac1"/>
              <path id="Trazado_603202" data-name="Trazado 603202" d="M1318.432,1088.229c-.965-.361-1.561.293-1.989,1.078a3.7,3.7,0,0,0,.458,3.24c.558.5,2.373.51,2.673-.429S1319.541,1088.643,1318.432,1088.229Z" transform="translate(-1146.802 -1023.287)" fill="#d3cac1"/>
              <path id="Trazado_603203" data-name="Trazado 603203" d="M1196.947,1105.779c-.965-.362-1.561.292-1.989,1.077a3.7,3.7,0,0,0,.458,3.24c.558.5,2.373.51,2.673-.428S1198.056,1106.194,1196.947,1105.779Z" transform="translate(-1123.363 -1026.673)" fill="#d3cac1"/>
              <path id="Trazado_603204" data-name="Trazado 603204" d="M1155.836,1113.213c-.965-.362-1.561.292-1.989,1.076a3.7,3.7,0,0,0,.458,3.24c.557.5,2.373.51,2.673-.428S1156.945,1113.627,1155.836,1113.213Z" transform="translate(-1115.431 -1028.107)" fill="#d3cac1"/>
              <path id="Trazado_603205" data-name="Trazado 603205" d="M1279.318,1085.854c-.965-.362-1.561.292-1.989,1.077a3.7,3.7,0,0,0,.458,3.24c.558.5,2.373.51,2.673-.428S1280.426,1086.268,1279.318,1085.854Z" transform="translate(-1139.256 -1022.829)" fill="#d3cac1"/>
              <path id="Trazado_603206" data-name="Trazado 603206" d="M1233.385,1098.587c-3.515-1.314-5.685,1.069-7.245,3.927s-.361,10.005,1.668,11.808,8.644,1.857,9.739-1.562S1237.428,1100.1,1233.385,1098.587Z" transform="translate(-1129.279 -1025.234)" fill="#d3cac1"/>
              <path id="Trazado_603207" data-name="Trazado 603207" d="M1262.725,1086.3c-2.59-.969-4.19.788-5.339,2.894s-.266,7.372,1.229,8.7,6.37,1.368,7.177-1.152S1265.7,1087.409,1262.725,1086.3Z" transform="translate(-1135.344 -1022.881)" fill="#d3cac1"/>
              <path id="Trazado_603208" data-name="Trazado 603208" d="M1242.184,1052.922l-29.744-4.882s2.445,8.177,4.249,11.225,7.88,15.122,11.009,16.727,7.858-2.054,7.937-4.89-1.883-8.02-.659-9.73S1242.9,1057.586,1242.184,1052.922Z" transform="translate(-1126.774 -1015.553)" fill="#d3cac1"/>
              <path id="Trazado_603209" data-name="Trazado 603209" d="M1111.389,1041.423l-3.633,34.34s9.193-3.333,12.56-5.6,16.778-10,18.409-13.689-2.865-8.851-6.114-8.757-9.048,2.679-11.084,1.391S1116.676,1040.3,1111.389,1041.423Z" transform="translate(-1106.576 -1014.254)" fill="#d3cac1"/>
              <path id="Trazado_603210" data-name="Trazado 603210" d="M1133.06,1128.442s.549-15.123-2.076-18.63-.875-10.95-3.5-13.062-5.337.362-8.063,0-6.157,1.556-8.962,3.077-4.165,13.061-4.165,13.061Z" transform="translate(-1106.294 -1024.784)" fill="#d3cac1"/>
              <path id="Trazado_603211" data-name="Trazado 603211" d="M1281.888,1015.829s10.348,11.042,14.686,11.649,8.39,7.092,11.737,6.716,3.5-4.044,5.68-5.724,3.232-5.466,4.129-8.529-6.338-12.156-6.338-12.156Z" transform="translate(-1140.173 -1007.786)" fill="#d3cac1"/>
              <path id="Trazado_603212" data-name="Trazado 603212" d="M1178.427,1147.9s.358-10.14-2.182-12.105-3.7-10.053-6.49-10.735-4.964,5.339-6.766,6.849-3.938-1.364-6.639-.286-3.732,6.91-3.732,6.91Z" transform="translate(-1115.231 -1030.402)" fill="#d3cac1"/>
              <path id="Trazado_603213" data-name="Trazado 603213" d="M1300.077,1131.474s-5.969-8.205-9.18-8.188-9.11-5.634-11.727-4.452-.617,7.264-1.106,9.564-3.943,1.354-5.4,3.867,1.32,7.741,1.32,7.741Z" transform="translate(-1138.311 -1029.18)" fill="#d3cac1"/>
              <g id="Grupo_874355" data-name="Grupo 874355" transform="translate(25.31 22.768)">
                <path id="Trazado_603214" data-name="Trazado 603214" d="M1142.66,1040.131c-.532-.2-.86.161-1.1.594a2.043,2.043,0,0,0,.253,1.787c.308.274,1.308.282,1.474-.236S1143.272,1040.359,1142.66,1040.131Z" transform="translate(-1138.388 -1036.784)" fill="#d3cac1"/>
                <path id="Trazado_603215" data-name="Trazado 603215" d="M1138.859,1041.756c-.532-.2-.86.161-1.1.594a2.041,2.041,0,0,0,.252,1.787c.308.273,1.308.282,1.475-.236S1139.471,1041.983,1138.859,1041.756Z" transform="translate(-1137.654 -1037.097)" fill="#d3cac1"/>
                <path id="Trazado_603216" data-name="Trazado 603216" d="M1140.04,1036.068c-.676-.252-1.093.206-1.393.755a2.594,2.594,0,0,0,.32,2.27c.391.346,1.662.357,1.872-.3S1140.816,1036.359,1140.04,1036.068Z" transform="translate(-1137.819 -1035.997)" fill="#d3cac1"/>
              </g>
              <g id="Grupo_874356" data-name="Grupo 874356" transform="translate(15.891 60.314)">
                <path id="Trazado_603217" data-name="Trazado 603217" d="M1130.99,1086.653c-.532-.2-.86.162-1.1.595a2.044,2.044,0,0,0,.253,1.788c.307.272,1.308.28,1.474-.237S1131.6,1086.881,1130.99,1086.653Z" transform="translate(-1126.717 -1083.306)" fill="#d3cac1"/>
                <path id="Trazado_603218" data-name="Trazado 603218" d="M1127.188,1088.278c-.532-.2-.859.161-1.1.594a2.039,2.039,0,0,0,.253,1.788c.307.273,1.308.281,1.474-.236S1127.8,1088.506,1127.188,1088.278Z" transform="translate(-1125.984 -1083.619)" fill="#d3cac1"/>
                <path id="Trazado_603219" data-name="Trazado 603219" d="M1128.37,1082.59c-.676-.252-1.094.206-1.393.755a2.6,2.6,0,0,0,.32,2.271c.391.345,1.662.356,1.872-.3S1129.147,1082.881,1128.37,1082.59Z" transform="translate(-1126.149 -1082.519)" fill="#d3cac1"/>
              </g>
              <g id="Grupo_874357" data-name="Grupo 874357" transform="translate(112.396 64.923)">
                <path id="Trazado_603220" data-name="Trazado 603220" d="M1250.565,1092.364c-.532-.2-.86.161-1.1.594a2.043,2.043,0,0,0,.252,1.788c.307.272,1.308.281,1.474-.236S1251.178,1092.593,1250.565,1092.364Z" transform="translate(-1246.293 -1089.017)" fill="#d3cac1"/>
                <path id="Trazado_603221" data-name="Trazado 603221" d="M1246.764,1093.987c-.532-.2-.86.161-1.1.595a2.043,2.043,0,0,0,.252,1.788c.307.272,1.309.28,1.474-.237S1247.376,1094.217,1246.764,1093.987Z" transform="translate(-1245.559 -1089.33)" fill="#d3cac1"/>
                <path id="Trazado_603222" data-name="Trazado 603222" d="M1247.945,1088.3c-.676-.253-1.092.206-1.392.755a2.591,2.591,0,0,0,.32,2.269c.39.347,1.662.357,1.871-.3S1248.723,1088.592,1247.945,1088.3Z" transform="translate(-1245.725 -1088.23)" fill="#d3cac1"/>
              </g>
              <g id="Grupo_874358" data-name="Grupo 874358" transform="translate(137.701 72.846)">
                <path id="Trazado_603223" data-name="Trazado 603223" d="M1281.92,1102.181c-.532-.2-.86.162-1.1.594a2.043,2.043,0,0,0,.253,1.788c.307.273,1.308.281,1.475-.237S1282.532,1102.41,1281.92,1102.181Z" transform="translate(-1277.648 -1098.834)" fill="#d3cac1"/>
                <path id="Trazado_603224" data-name="Trazado 603224" d="M1278.119,1103.8c-.532-.2-.861.163-1.1.595a2.043,2.043,0,0,0,.253,1.788c.307.273,1.308.28,1.474-.236S1278.731,1104.034,1278.119,1103.8Z" transform="translate(-1276.914 -1099.147)" fill="#d3cac1"/>
                <path id="Trazado_603225" data-name="Trazado 603225" d="M1279.3,1098.119c-.676-.253-1.093.206-1.392.755a2.59,2.59,0,0,0,.32,2.269c.39.347,1.662.357,1.872-.3S1280.078,1098.409,1279.3,1098.119Z" transform="translate(-1277.08 -1098.047)" fill="#d3cac1"/>
              </g>
              <g id="Grupo_874359" data-name="Grupo 874359" transform="translate(56.873 78.316)">
                <path id="Trazado_603226" data-name="Trazado 603226" d="M1181.769,1108.958c-.532-.2-.86.161-1.1.594a2.041,2.041,0,0,0,.252,1.788c.307.273,1.309.281,1.474-.236S1182.382,1109.187,1181.769,1108.958Z" transform="translate(-1177.497 -1105.611)" fill="#d3cac1"/>
                <path id="Trazado_603227" data-name="Trazado 603227" d="M1177.968,1110.582c-.532-.2-.86.162-1.1.595a2.045,2.045,0,0,0,.253,1.788c.307.272,1.308.281,1.474-.236S1178.581,1110.812,1177.968,1110.582Z" transform="translate(-1176.764 -1105.924)" fill="#d3cac1"/>
                <path id="Trazado_603228" data-name="Trazado 603228" d="M1179.149,1104.9c-.676-.254-1.093.2-1.392.755a2.59,2.59,0,0,0,.32,2.269c.391.347,1.661.357,1.872-.3S1179.926,1105.186,1179.149,1104.9Z" transform="translate(-1176.929 -1104.824)" fill="#d3cac1"/>
              </g>
              <g id="Grupo_874360" data-name="Grupo 874360" transform="translate(88.626 62.976)">
                <path id="Trazado_603229" data-name="Trazado 603229" d="M1221.113,1089.951c-.532-.2-.861.161-1.1.595a2.04,2.04,0,0,0,.253,1.788c.307.272,1.308.28,1.474-.236S1221.725,1090.18,1221.113,1089.951Z" transform="translate(-1216.84 -1086.604)" fill="#d3cac1"/>
                <path id="Trazado_603230" data-name="Trazado 603230" d="M1217.311,1091.576c-.532-.2-.86.161-1.1.594a2.041,2.041,0,0,0,.253,1.788c.307.274,1.308.281,1.474-.237S1217.924,1091.8,1217.311,1091.576Z" transform="translate(-1216.107 -1086.918)" fill="#d3cac1"/>
                <path id="Trazado_603231" data-name="Trazado 603231" d="M1218.493,1085.889c-.676-.253-1.094.206-1.393.755a2.591,2.591,0,0,0,.32,2.269c.39.347,1.662.357,1.872-.3S1219.27,1086.179,1218.493,1085.889Z" transform="translate(-1216.272 -1085.818)" fill="#d3cac1"/>
              </g>
              <g id="Grupo_874361" data-name="Grupo 874361" transform="translate(45.339 52.885)">
                <path id="Trazado_603232" data-name="Trazado 603232" d="M1167.477,1077.447c-.532-.2-.859.162-1.1.595a2.04,2.04,0,0,0,.253,1.788c.307.272,1.307.281,1.474-.236S1168.09,1077.677,1167.477,1077.447Z" transform="translate(-1163.205 -1074.101)" fill="#d3cac1"/>
                <path id="Trazado_603233" data-name="Trazado 603233" d="M1163.677,1079.071c-.533-.2-.861.162-1.1.595a2.043,2.043,0,0,0,.253,1.788c.307.272,1.309.28,1.474-.237S1164.288,1079.3,1163.677,1079.071Z" transform="translate(-1162.471 -1074.414)" fill="#d3cac1"/>
                <path id="Trazado_603234" data-name="Trazado 603234" d="M1164.857,1073.386c-.676-.253-1.093.206-1.392.755a2.589,2.589,0,0,0,.32,2.27c.391.347,1.662.357,1.871-.3S1165.635,1073.676,1164.857,1073.386Z" transform="translate(-1162.637 -1073.314)" fill="#d3cac1"/>
              </g>
              <g id="Grupo_874362" data-name="Grupo 874362" transform="translate(87.489 87.38)">
                <path id="Trazado_603235" data-name="Trazado 603235" d="M1219.7,1120.189c-.533-.2-.861.161-1.1.594a2.04,2.04,0,0,0,.252,1.787c.307.274,1.309.282,1.474-.236S1220.316,1120.417,1219.7,1120.189Z" transform="translate(-1215.432 -1116.842)" fill="#d3cac1"/>
                <path id="Trazado_603236" data-name="Trazado 603236" d="M1215.9,1121.813c-.532-.2-.86.162-1.1.595a2.039,2.039,0,0,0,.252,1.786c.307.273,1.308.282,1.474-.235S1216.516,1122.042,1215.9,1121.813Z" transform="translate(-1214.699 -1117.156)" fill="#d3cac1"/>
                <path id="Trazado_603237" data-name="Trazado 603237" d="M1217.084,1116.127c-.675-.253-1.093.2-1.393.755a2.6,2.6,0,0,0,.321,2.27c.39.346,1.661.357,1.872-.3S1217.861,1116.417,1217.084,1116.127Z" transform="translate(-1214.864 -1116.056)" fill="#d3cac1"/>
              </g>
              <g id="Grupo_874363" data-name="Grupo 874363" transform="translate(70.635 43.961)">
                <path id="Trazado_603238" data-name="Trazado 603238" d="M1198.821,1066.39c-.532-.2-.86.161-1.1.595a2.037,2.037,0,0,0,.252,1.786c.307.273,1.308.282,1.474-.236S1199.433,1066.619,1198.821,1066.39Z" transform="translate(-1194.549 -1063.044)" fill="#d3cac1"/>
                <path id="Trazado_603239" data-name="Trazado 603239" d="M1195.02,1068.016c-.532-.2-.861.161-1.1.594a2.041,2.041,0,0,0,.252,1.787c.307.273,1.308.282,1.474-.236S1195.632,1068.243,1195.02,1068.016Z" transform="translate(-1193.815 -1063.357)" fill="#d3cac1"/>
                <path id="Trazado_603240" data-name="Trazado 603240" d="M1196.2,1062.328c-.675-.252-1.092.206-1.392.755a2.6,2.6,0,0,0,.321,2.27c.39.346,1.661.357,1.872-.3S1196.978,1062.619,1196.2,1062.328Z" transform="translate(-1193.98 -1062.257)" fill="#d3cac1"/>
              </g>
              <g id="Grupo_874364" data-name="Grupo 874364" transform="translate(34.976 62.615)">
                <path id="Trazado_603241" data-name="Trazado 603241" d="M1154.637,1089.5c-.532-.2-.86.162-1.1.594a2.041,2.041,0,0,0,.253,1.787c.307.274,1.308.282,1.474-.236S1155.249,1089.732,1154.637,1089.5Z" transform="translate(-1150.365 -1086.157)" fill="#d3cac1"/>
                <path id="Trazado_603242" data-name="Trazado 603242" d="M1150.836,1091.128c-.533-.2-.86.162-1.1.595a2.039,2.039,0,0,0,.252,1.786c.307.273,1.308.282,1.474-.237S1151.448,1091.357,1150.836,1091.128Z" transform="translate(-1149.631 -1086.47)" fill="#d3cac1"/>
                <path id="Trazado_603243" data-name="Trazado 603243" d="M1152.017,1085.441c-.676-.253-1.093.206-1.393.755a2.59,2.59,0,0,0,.32,2.269c.391.348,1.662.359,1.872-.3S1152.793,1085.732,1152.017,1085.441Z" transform="translate(-1149.796 -1085.37)" fill="#d3cac1"/>
              </g>
              <g id="Grupo_874365" data-name="Grupo 874365" transform="translate(161.581 71.856)">
                <path id="Trazado_603244" data-name="Trazado 603244" d="M1311.509,1100.955c-.532-.2-.86.161-1.1.595a2.039,2.039,0,0,0,.252,1.786c.307.273,1.308.282,1.475-.236S1312.122,1101.183,1311.509,1100.955Z" transform="translate(-1307.237 -1097.607)" fill="#d3cac1"/>
                <path id="Trazado_603245" data-name="Trazado 603245" d="M1307.708,1102.579c-.532-.2-.86.161-1.1.594a2.041,2.041,0,0,0,.253,1.787c.307.273,1.309.281,1.474-.237S1308.32,1102.808,1307.708,1102.579Z" transform="translate(-1306.503 -1097.92)" fill="#d3cac1"/>
                <path id="Trazado_603246" data-name="Trazado 603246" d="M1308.889,1096.892c-.675-.253-1.093.206-1.392.755a2.59,2.59,0,0,0,.32,2.269c.39.347,1.662.358,1.872-.3S1309.667,1097.183,1308.889,1096.892Z" transform="translate(-1306.669 -1096.82)" fill="#d3cac1"/>
              </g>
              <g id="Grupo_874366" data-name="Grupo 874366" transform="translate(121.671 100.046)">
                <path id="Trazado_603247" data-name="Trazado 603247" d="M1262.058,1135.883c-.532-.2-.86.162-1.1.594a2.038,2.038,0,0,0,.253,1.787c.307.274,1.307.282,1.474-.237S1262.671,1136.111,1262.058,1135.883Z" transform="translate(-1257.786 -1132.536)" fill="#d3cac1"/>
                <path id="Trazado_603248" data-name="Trazado 603248" d="M1258.257,1137.508c-.532-.2-.86.162-1.1.595a2.041,2.041,0,0,0,.253,1.786c.308.274,1.309.282,1.474-.236S1258.869,1137.736,1258.257,1137.508Z" transform="translate(-1257.053 -1132.849)" fill="#d3cac1"/>
                <path id="Trazado_603249" data-name="Trazado 603249" d="M1259.438,1131.821c-.676-.253-1.093.205-1.392.755a2.589,2.589,0,0,0,.321,2.269c.391.348,1.662.358,1.872-.3S1260.216,1132.111,1259.438,1131.821Z" transform="translate(-1257.218 -1131.749)" fill="#d3cac1"/>
              </g>
              <g id="Grupo_874367" data-name="Grupo 874367" transform="translate(119.191 44.282)">
                <path id="Trazado_603250" data-name="Trazado 603250" d="M1258.985,1066.788c-.532-.2-.86.162-1.1.595a2.036,2.036,0,0,0,.253,1.786c.307.274,1.307.282,1.474-.236S1259.6,1067.017,1258.985,1066.788Z" transform="translate(-1254.713 -1063.441)" fill="#d3cac1"/>
                <path id="Trazado_603251" data-name="Trazado 603251" d="M1255.184,1068.413c-.532-.2-.86.161-1.1.594a2.041,2.041,0,0,0,.253,1.787c.307.274,1.309.282,1.474-.236S1255.8,1068.642,1255.184,1068.413Z" transform="translate(-1253.979 -1063.755)" fill="#d3cac1"/>
                <path id="Trazado_603252" data-name="Trazado 603252" d="M1256.365,1062.726c-.676-.253-1.093.206-1.392.755a2.592,2.592,0,0,0,.321,2.269c.391.347,1.662.358,1.872-.3S1257.143,1063.017,1256.365,1062.726Z" transform="translate(-1254.145 -1062.655)" fill="#d3cac1"/>
              </g>
              <g id="Grupo_874368" data-name="Grupo 874368" transform="translate(157.389 53.874)">
                <path id="Trazado_603253" data-name="Trazado 603253" d="M1306.315,1078.674c-.532-.2-.86.161-1.1.594a2.039,2.039,0,0,0,.252,1.787c.307.273,1.307.282,1.474-.236S1306.928,1078.9,1306.315,1078.674Z" transform="translate(-1302.043 -1075.326)" fill="#d3cac1"/>
                <path id="Trazado_603254" data-name="Trazado 603254" d="M1302.514,1080.3c-.532-.2-.86.161-1.1.595a2.039,2.039,0,0,0,.253,1.786c.307.273,1.309.282,1.475-.236S1303.126,1080.527,1302.514,1080.3Z" transform="translate(-1301.309 -1075.64)" fill="#d3cac1"/>
                <path id="Trazado_603255" data-name="Trazado 603255" d="M1303.7,1074.611c-.676-.253-1.093.206-1.392.755a2.59,2.59,0,0,0,.32,2.269c.39.348,1.662.358,1.871-.3S1304.473,1074.9,1303.7,1074.611Z" transform="translate(-1301.475 -1074.54)" fill="#d3cac1"/>
              </g>
            </g>
          </g>
        </g>
        <g id="Grupo_874374" data-name="Grupo 874374">
          <g id="Grupo_874373" data-name="Grupo 874373">
            <path id="Trazado_603257" data-name="Trazado 603257" d="M1282.222,977.042c-.007.207-.018.416-.031.623-.011.182-.021.364-.036.546-.016.209-.037.418-.058.628-.018.18-.035.36-.057.54-.026.211-.056.422-.086.633-.025.178-.049.356-.078.533-.034.213-.074.425-.114.638-.032.175-.063.351-.1.526-.043.21-.091.418-.139.627-.04.176-.077.353-.121.528-.052.213-.111.424-.169.637-.047.172-.09.344-.14.516-.062.216-.131.431-.2.646-.052.168-.1.336-.157.5-.075.224-.157.447-.237.671-.056.157-.109.315-.168.471-.125.33-.257.659-.393.988-.023.056-.043.112-.067.168q-.244.576-.512,1.149c-.055.118-.115.235-.172.352-.127.265-.255.529-.39.792-.076.147-.157.293-.235.44-.124.232-.247.465-.377.7-.076.135-.157.27-.235.4-.151.261-.3.524-.463.785-.094.152-.19.3-.285.454q-.229.363-.468.725-.156.235-.316.47-.243.355-.5.709c-.11.153-.22.307-.333.461-.179.242-.364.484-.55.725-.108.14-.214.279-.324.418q-.5.636-1.039,1.264c-.06.069-.123.138-.183.207q-.457.529-.94,1.053c-.118.127-.238.256-.358.382q-.441.47-.9.935c-.107.109-.213.218-.322.326q-.616.609-1.264,1.211c-.16.148-.325.294-.488.441-.208.188-.414.376-.626.563-.173.151-.351.3-.526.45-.214.182-.426.365-.645.547-.183.152-.372.3-.559.453-.219.177-.436.354-.66.529-.194.153-.393.3-.591.455-.224.172-.447.344-.676.514-.2.151-.41.3-.615.449-.233.17-.466.34-.7.508-.21.148-.424.3-.637.442-.24.166-.481.333-.725.5-.219.147-.443.293-.666.438-.248.163-.495.325-.747.486-.227.145-.458.289-.688.432-.256.159-.512.318-.771.475-.408.249-.82.5-1.24.739-.9.521-1.816,1.023-2.745,1.517q-.367.195-.738.386-1.251.648-2.534,1.263c-.114.055-.225.111-.339.166-.958.453-1.933.888-2.917,1.312-.252.108-.506.215-.76.321q-1.259.529-2.543,1.029c-.186.072-.369.147-.555.218q-1.517.579-3.069,1.114c-.248.086-.5.168-.746.252-.7.236-1.406.461-2.115.684q-1,.315-2.015.613-.858.253-1.722.494-1.025.284-2.063.55c-.58.149-1.161.3-1.745.44-.7.17-1.407.33-2.114.488-.585.131-1.169.261-1.759.384-.719.15-1.444.289-2.169.427-.644.123-1.287.249-1.936.362-.291.051-.584.1-.876.149q-1.49.249-2.993.468c-.167.024-.333.051-.5.074q-1.711.241-3.436.436c-.29.033-.58.064-.871.1-.709.077-1.421.143-2.133.209q-1.333.123-2.671.222c-.56.041-1.119.081-1.68.116-.928.057-1.857.1-2.788.141-.525.023-1.051.049-1.577.065-.806.025-1.613.036-2.42.047-.567.008-1.132.023-1.7.024-.865,0-1.73-.013-2.6-.027-.509-.008-1.019-.008-1.528-.021-.795-.021-1.588-.06-2.383-.094-.55-.024-1.1-.039-1.651-.069-.858-.047-1.712-.112-2.568-.174-.484-.035-.969-.061-1.451-.1-1.032-.086-2.059-.19-3.085-.3-.3-.032-.607-.055-.909-.089q-1.989-.223-3.963-.5c-.211-.03-.419-.068-.63-.1-1.131-.166-2.26-.34-3.38-.533-.467-.08-.929-.174-1.394-.26-.858-.157-1.716-.314-2.567-.488-.445-.091-.884-.194-1.327-.29-.936-.2-1.868-.409-2.793-.631-.514-.123-1.022-.256-1.533-.385q-1.266-.322-2.521-.667c-.713-.2-1.426-.4-2.131-.609-.267-.08-.535-.157-.8-.239q-1.6-.489-3.167-1.021c-.2-.069-.4-.142-.6-.212q-1.3-.45-2.573-.93-.437-.164-.871-.331c-.677-.262-1.344-.535-2.01-.809-.46-.19-.922-.376-1.377-.572-.65-.278-1.288-.57-1.927-.862-.42-.192-.846-.378-1.263-.576-.7-.331-1.379-.676-2.061-1.023-.342-.173-.692-.339-1.03-.516q-1.519-.8-2.988-1.641c-16.354-9.441-24.521-21.835-24.486-34.21,0,0-.222,18.685-.222,18.706-.178,29.832,37.312,43.2,61.462,46.944a131.649,131.649,0,0,0,71.55-8.585c7.842-3.356,15.437-7.591,21.518-13.573,6.451-6.348,11.336-15.073,11.363-24.308l.222-18.706C1282.243,976.422,1282.233,976.732,1282.222,977.042Z" transform="translate(-1116.128 -927.826)" fill="#78afa5"/>
            <g id="Grupo_874372" data-name="Grupo 874372" transform="translate(0.223)">
              <path id="Trazado_603258" data-name="Trazado 603258" d="M1257.809,930.47c32.5,18.763,32.674,49.182.387,67.946s-84.808,18.763-117.305,0-32.67-49.185-.382-67.947S1225.311,911.707,1257.809,930.47Z" transform="translate(-1116.404 -916.396)" fill="#94ccc3"/>
              <path id="Trazado_603259" data-name="Trazado 603259" d="M1204.253,997.748c-18.537,0-36.415-4.183-49.047-11.476-9.26-5.347-14.793-11.831-14.8-17.345-.007-5.427,5.4-11.813,14.466-17.081,12.521-7.276,30.32-11.449,48.836-11.449,18.537,0,36.414,4.184,49.049,11.479,9.262,5.347,14.8,11.832,14.8,17.345.008,5.427-5.4,11.811-14.464,17.079C1240.573,993.576,1222.771,997.748,1204.253,997.748Z" transform="translate(-1121.035 -921.027)" fill="#78afa5"/>
              <path id="Trazado_603260" data-name="Trazado 603260" d="M1258.243,999.839c-13.638,7.925-33.029,12.47-53.2,12.47-20.192,0-39.663-4.556-53.423-12.5a54.605,54.605,0,0,1-7.244-4.955,39.829,39.829,0,0,0,11.6,9.512c12.633,7.293,30.51,11.476,49.047,11.476,18.518,0,36.321-4.172,48.841-11.448a39.2,39.2,0,0,0,11.249-9.25A53.943,53.943,0,0,1,1258.243,999.839Z" transform="translate(-1121.801 -931.534)" fill="#abe0da"/>
              <path id="Trazado_603261" data-name="Trazado 603261" d="M1246.188,993.322c-9.43,5.481-22.838,8.623-36.785,8.623-13.962,0-27.426-3.15-36.941-8.643a37.858,37.858,0,0,1-5.009-3.426,27.537,27.537,0,0,0,8.018,6.577c8.735,5.043,21.1,7.936,33.914,7.936s25.115-2.885,33.772-7.916a27.1,27.1,0,0,0,7.778-6.4A37.234,37.234,0,0,1,1246.188,993.322Z" transform="translate(-1126.254 -930.574)" fill="#abe0da"/>
              <path id="Trazado_603262" data-name="Trazado 603262" d="M1258.243,946.968c-13.638-7.925-33.029-12.47-53.2-12.47-20.192,0-39.663,4.556-53.423,12.5a54.673,54.673,0,0,0-7.244,4.954,39.841,39.841,0,0,1,11.6-9.511c12.633-7.293,30.51-11.476,49.047-11.476,18.518,0,36.321,4.172,48.841,11.449a39.2,39.2,0,0,1,11.249,9.25A53.9,53.9,0,0,0,1258.243,946.968Z" transform="translate(-1121.801 -919.207)" fill="#abe0da"/>
            </g>
            <path id="Trazado_603263" data-name="Trazado 603263" d="M1258.2,1006.252c-32.286,18.763-84.807,18.763-117.305,0-15.6-9.008-23.75-20.7-24.435-32.507-.738,12.877,7.41,25.906,24.435,35.735,32.5,18.763,85.019,18.763,117.305,0,16.785-9.754,24.791-22.658,24.05-35.438C1281.576,985.743,1273.569,997.318,1258.2,1006.252Z" transform="translate(-1116.183 -927.461)" fill="#abe0da"/>
          </g>
        </g>
      </g>
      <g id="Grupo_874388" data-name="Grupo 874388" transform="translate(37.153 37.066)">
        <g id="Grupo_874387" data-name="Grupo 874387">
          <path id="Trazado_603264" data-name="Trazado 603264" d="M1253.96,914.333c0,.115-.01.229-.017.344s-.012.2-.019.3c-.01.116-.021.232-.032.347-.01.1-.019.2-.031.3-.015.116-.031.233-.048.349-.014.1-.027.2-.043.295-.019.118-.042.236-.064.353-.017.1-.035.194-.054.291-.024.115-.051.232-.077.347-.022.1-.043.195-.067.291-.028.118-.061.235-.093.352-.026.1-.05.19-.077.285-.035.119-.073.238-.111.357-.029.092-.056.185-.087.277-.041.124-.087.248-.131.371-.031.087-.06.173-.093.261-.069.182-.142.364-.217.546-.013.031-.024.062-.037.093-.089.212-.184.424-.282.635-.031.065-.064.13-.1.194-.07.146-.141.292-.215.438-.042.081-.087.161-.13.243-.069.128-.136.258-.208.385-.042.075-.086.149-.13.224-.083.145-.168.29-.256.433-.052.084-.1.168-.158.252-.084.134-.17.267-.258.4-.057.087-.116.174-.175.26-.09.131-.182.262-.276.391-.06.086-.122.17-.184.255q-.149.2-.3.4c-.059.077-.118.154-.178.231-.186.234-.376.466-.575.7-.032.039-.068.077-.1.115q-.253.293-.52.583l-.2.212q-.244.259-.5.517c-.06.06-.118.12-.179.18q-.34.337-.7.669c-.089.081-.18.163-.27.244-.114.1-.228.208-.345.311-.1.084-.194.166-.291.249-.118.1-.236.2-.356.3-.1.085-.206.167-.309.251-.121.1-.241.2-.365.293-.107.084-.217.168-.326.251s-.248.19-.373.285-.227.165-.34.249c-.129.094-.258.187-.389.28-.115.082-.234.163-.352.245-.133.092-.266.183-.4.274s-.245.162-.367.243-.273.179-.413.268-.253.16-.381.239-.282.176-.426.263c-.226.137-.453.274-.685.408-.5.288-1,.566-1.517.839l-.408.213q-.691.358-1.4.7c-.063.031-.125.062-.188.092q-.794.375-1.612.725c-.139.06-.279.119-.419.177q-.7.293-1.406.569c-.1.039-.2.081-.307.12q-.839.32-1.7.616l-.412.139c-.387.131-.777.255-1.169.379q-.554.174-1.115.339c-.316.093-.633.185-.951.273q-.568.157-1.14.3-.481.125-.965.243c-.387.094-.778.182-1.169.27-.323.072-.646.144-.972.212-.4.083-.8.16-1.2.235-.356.068-.712.138-1.07.2l-.484.082q-.824.139-1.654.259c-.092.014-.184.028-.277.041-.63.089-1.263.168-1.9.241l-.482.052c-.391.042-.785.078-1.179.115q-.736.068-1.476.123c-.309.023-.618.045-.928.064-.513.032-1.026.057-1.541.078-.291.012-.581.027-.872.036-.445.015-.892.02-1.338.027-.312,0-.625.012-.938.013-.479,0-.957-.007-1.435-.015-.281,0-.562,0-.844-.012-.439-.011-.878-.032-1.316-.052-.3-.013-.609-.021-.913-.038-.474-.026-.947-.061-1.42-.1-.267-.019-.535-.034-.8-.056-.57-.048-1.138-.106-1.705-.165-.167-.018-.335-.031-.5-.049q-1.1-.122-2.191-.277c-.116-.017-.232-.038-.348-.055-.625-.091-1.249-.187-1.868-.295-.258-.044-.513-.1-.77-.144-.474-.087-.949-.174-1.419-.27-.246-.05-.489-.107-.734-.16-.516-.111-1.033-.226-1.544-.349-.284-.069-.565-.141-.848-.213-.466-.119-.931-.241-1.393-.369-.395-.11-.788-.22-1.178-.337l-.442-.132q-.882-.271-1.75-.565c-.111-.038-.221-.078-.333-.117q-.718-.248-1.423-.513c-.161-.06-.321-.121-.481-.183-.374-.144-.743-.3-1.11-.447-.254-.1-.51-.208-.762-.316-.358-.154-.711-.316-1.064-.476-.234-.106-.468-.21-.7-.319-.385-.183-.763-.375-1.14-.565-.189-.1-.382-.188-.569-.286-.559-.294-1.111-.595-1.651-.907-9.038-5.218-13.552-12.068-13.533-18.908,0,0-.123,42.4-.123,42.408-.1,16.488,20.621,23.874,33.969,25.945a72.763,72.763,0,0,0,39.544-4.745,38.064,38.064,0,0,0,11.893-7.5c3.565-3.508,6.265-8.331,6.28-13.434l.122-42.408C1253.972,913.99,1253.967,914.161,1253.96,914.333Z" transform="translate(-1162.163 -887)" fill="#914b23"/>
          <g id="Grupo_874384" data-name="Grupo 874384" transform="translate(0 26.554)">
            <g id="Grupo_874383" data-name="Grupo 874383" clip-path="url(#clip-path-2)">
              <g id="Grupo_874382" data-name="Grupo 874382" transform="translate(0.974 29.497)" style="mix-blend-mode: multiply;isolation: isolate">
                <path id="Trazado_603265" data-name="Trazado 603265" d="M1256.385,952.966l-19.17,2.344a30.9,30.9,0,0,0,4.5,5.861c2.182,1.956,7.015,8.755,8.446,9.376s6.113,1.233,8.3-1.016S1257.759,957.446,1256.385,952.966Z" transform="translate(-1177.618 -950.655)" fill="#d3cac1"/>
                <path id="Trazado_603266" data-name="Trazado 603266" d="M1276.087,966.012c-2.776-1.038-4.49.845-5.723,3.1s-.285,7.9,1.319,9.328,6.828,1.466,7.694-1.235S1279.281,967.206,1276.087,966.012Z" transform="translate(-1183.905 -953.116)" fill="#d3cac1"/>
                <path id="Trazado_603267" data-name="Trazado 603267" d="M1167.942,964.161c-2.019-.755-3.266.614-4.162,2.257s-.207,5.747.96,6.783,4.966,1.067,5.6-.9S1170.266,965.029,1167.942,964.161Z" transform="translate(-1163.371 -952.774)" fill="#d3cac1"/>
                <path id="Trazado_603268" data-name="Trazado 603268" d="M1223.464,982.769c-.753-.282-1.217.228-1.55.839a2.887,2.887,0,0,0,.357,2.526c.434.386,1.849.4,2.084-.333S1224.328,983.092,1223.464,982.769Z" transform="translate(-1174.637 -956.39)" fill="#d3cac1"/>
                <path id="Trazado_603269" data-name="Trazado 603269" d="M1176.711,983.44c-.753-.282-1.217.228-1.55.839a2.889,2.889,0,0,0,.357,2.526c.435.387,1.85.4,2.085-.334S1177.575,983.763,1176.711,983.44Z" transform="translate(-1165.616 -956.52)" fill="#d3cac1"/>
                <path id="Trazado_603270" data-name="Trazado 603270" d="M1240.925,967.9c-.753-.282-1.217.228-1.55.839a2.889,2.889,0,0,0,.357,2.526c.435.387,1.85.4,2.085-.334S1241.789,968.221,1240.925,967.9Z" transform="translate(-1178.005 -953.521)" fill="#d3cac1"/>
                <path id="Trazado_603271" data-name="Trazado 603271" d="M1205.118,977.829c-2.741-1.023-4.433.834-5.648,3.063s-.281,7.8,1.3,9.205,6.739,1.446,7.592-1.219S1208.269,979.007,1205.118,977.829Z" transform="translate(-1170.228 -955.397)" fill="#d3cac1"/>
                <path id="Trazado_603272" data-name="Trazado 603272" d="M1227.989,968.244c-2.019-.755-3.266.614-4.162,2.257s-.208,5.747.959,6.783,4.966,1.066,5.6-.9S1230.312,969.112,1227.989,968.244Z" transform="translate(-1174.956 -953.562)" fill="#d3cac1"/>
                <path id="Trazado_603273" data-name="Trazado 603273" d="M1194.686,953.907l-23.189-3.8s1.906,6.375,3.314,8.751,6.144,11.788,8.584,13.04,6.126-1.6,6.187-3.814-1.468-6.251-.514-7.585S1195.24,957.543,1194.686,953.907Z" transform="translate(-1164.938 -950.103)" fill="#d3cac1"/>
                <path id="Trazado_603274" data-name="Trazado 603274" d="M1256.128,991.807s-4.415-6.564-6.917-6.641-6.936-4.65-9.009-3.8-.689,5.642-1.135,7.419-3.11.942-4.32,2.859.807,6.068.807,6.068Z" transform="translate(-1177.067 -956.114)" fill="#d3cac1"/>
                <g id="Grupo_874376" data-name="Grupo 874376" transform="translate(41.351 15.859)">
                  <path id="Trazado_603275" data-name="Trazado 603275" d="M1218.51,972.976c-.415-.155-.672.126-.855.463a1.591,1.591,0,0,0,.2,1.394c.239.212,1.019.219,1.149-.185S1218.987,973.154,1218.51,972.976Z" transform="translate(-1215.179 -970.366)" fill="#d3cac1"/>
                  <path id="Trazado_603276" data-name="Trazado 603276" d="M1215.547,974.242c-.414-.154-.671.127-.855.464a1.593,1.593,0,0,0,.2,1.394c.24.211,1.02.218,1.149-.185S1216.024,974.421,1215.547,974.242Z" transform="translate(-1214.608 -970.611)" fill="#d3cac1"/>
                  <path id="Trazado_603277" data-name="Trazado 603277" d="M1216.467,969.809c-.526-.2-.851.161-1.085.589a2.019,2.019,0,0,0,.25,1.769c.3.27,1.3.278,1.459-.235S1217.073,970.035,1216.467,969.809Z" transform="translate(-1214.736 -969.753)" fill="#d3cac1"/>
                </g>
                <g id="Grupo_874377" data-name="Grupo 874377" transform="translate(61.08 22.033)">
                  <path id="Trazado_603278" data-name="Trazado 603278" d="M1242.955,980.625c-.415-.155-.672.127-.856.463a1.592,1.592,0,0,0,.2,1.394c.239.213,1.019.219,1.148-.185S1243.432,980.8,1242.955,980.625Z" transform="translate(-1239.624 -978.017)" fill="#d3cac1"/>
                  <path id="Trazado_603279" data-name="Trazado 603279" d="M1239.991,981.892c-.415-.155-.671.127-.855.463a1.592,1.592,0,0,0,.2,1.394c.24.213,1.02.219,1.149-.185S1240.469,982.071,1239.991,981.892Z" transform="translate(-1239.053 -978.261)" fill="#d3cac1"/>
                  <path id="Trazado_603280" data-name="Trazado 603280" d="M1240.912,977.46c-.526-.2-.852.161-1.086.588a2.019,2.019,0,0,0,.25,1.769c.3.27,1.3.278,1.46-.234S1241.518,977.686,1240.912,977.46Z" transform="translate(-1239.182 -977.404)" fill="#d3cac1"/>
                </g>
                <g id="Grupo_874378" data-name="Grupo 874378" transform="translate(45.191 34.14)">
                  <path id="Trazado_603281" data-name="Trazado 603281" d="M1223.267,995.626c-.415-.155-.671.126-.855.463a1.592,1.592,0,0,0,.2,1.394c.24.212,1.02.219,1.149-.185S1223.745,995.806,1223.267,995.626Z" transform="translate(-1219.937 -993.018)" fill="#d3cac1"/>
                  <path id="Trazado_603282" data-name="Trazado 603282" d="M1220.3,996.893c-.415-.155-.671.126-.855.463a1.592,1.592,0,0,0,.2,1.394c.24.212,1.02.219,1.149-.185S1220.781,997.072,1220.3,996.893Z" transform="translate(-1219.366 -993.262)" fill="#d3cac1"/>
                  <path id="Trazado_603283" data-name="Trazado 603283" d="M1221.225,992.461c-.527-.2-.852.161-1.085.588a2.019,2.019,0,0,0,.25,1.769c.3.27,1.3.278,1.459-.235S1221.831,992.687,1221.225,992.461Z" transform="translate(-1219.494 -992.405)" fill="#d3cac1"/>
                </g>
                <g id="Grupo_874379" data-name="Grupo 874379" transform="translate(21.937 33.368)">
                  <path id="Trazado_603284" data-name="Trazado 603284" d="M1194.454,994.671c-.415-.155-.671.127-.855.464a1.59,1.59,0,0,0,.2,1.392c.24.214,1.02.219,1.149-.184S1194.931,994.849,1194.454,994.671Z" transform="translate(-1191.124 -992.062)" fill="#d3cac1"/>
                  <path id="Trazado_603285" data-name="Trazado 603285" d="M1191.49,995.938c-.415-.156-.671.127-.855.464a1.589,1.589,0,0,0,.2,1.392c.24.213,1.02.22,1.149-.183S1191.968,996.116,1191.49,995.938Z" transform="translate(-1190.552 -992.306)" fill="#d3cac1"/>
                  <path id="Trazado_603286" data-name="Trazado 603286" d="M1192.411,991.5c-.527-.2-.852.161-1.085.588a2.023,2.023,0,0,0,.25,1.771c.3.27,1.295.278,1.459-.235S1193.017,991.73,1192.411,991.5Z" transform="translate(-1190.68 -991.449)" fill="#d3cac1"/>
                </g>
                <g id="Grupo_874380" data-name="Grupo 874380" transform="translate(79.697 21.259)">
                  <path id="Trazado_603287" data-name="Trazado 603287" d="M1266.022,979.667c-.415-.156-.671.126-.855.463a1.59,1.59,0,0,0,.2,1.393c.24.213,1.02.219,1.149-.185S1266.5,979.845,1266.022,979.667Z" transform="translate(-1262.692 -977.058)" fill="#d3cac1"/>
                  <path id="Trazado_603288" data-name="Trazado 603288" d="M1263.059,980.934c-.415-.156-.671.126-.855.463a1.592,1.592,0,0,0,.2,1.393c.24.213,1.02.22,1.148-.185S1263.536,981.112,1263.059,980.934Z" transform="translate(-1262.12 -977.302)" fill="#d3cac1"/>
                  <path id="Trazado_603289" data-name="Trazado 603289" d="M1263.98,976.5c-.527-.2-.852.16-1.086.588a2.022,2.022,0,0,0,.25,1.769c.305.27,1.3.278,1.46-.234S1264.585,976.727,1263.98,976.5Z" transform="translate(-1262.249 -976.445)" fill="#d3cac1"/>
                </g>
                <g id="Grupo_874381" data-name="Grupo 874381" transform="translate(88.605 4.503)">
                  <path id="Trazado_603290" data-name="Trazado 603290" d="M1277.06,958.905c-.414-.156-.671.126-.855.463a1.594,1.594,0,0,0,.2,1.393c.239.213,1.02.22,1.149-.185S1277.537,959.083,1277.06,958.905Z" transform="translate(-1273.729 -956.296)" fill="#d3cac1"/>
                  <path id="Trazado_603291" data-name="Trazado 603291" d="M1274.1,960.172c-.415-.156-.671.126-.855.463a1.59,1.59,0,0,0,.2,1.393c.24.213,1.02.219,1.149-.185S1274.573,960.35,1274.1,960.172Z" transform="translate(-1273.158 -956.54)" fill="#d3cac1"/>
                  <path id="Trazado_603292" data-name="Trazado 603292" d="M1275.017,955.739c-.526-.2-.852.16-1.086.588a2.019,2.019,0,0,0,.25,1.769c.3.27,1.3.278,1.459-.234S1275.623,955.965,1275.017,955.739Z" transform="translate(-1273.286 -955.683)" fill="#d3cac1"/>
                </g>
              </g>
            </g>
          </g>
          <g id="Grupo_874385" data-name="Grupo 874385" transform="translate(0.123)">
            <path id="Trazado_603294" data-name="Trazado 603294" d="M1240.468,888.43c17.961,10.37,18.059,27.182.214,37.552s-46.872,10.371-64.833,0-18.055-27.183-.211-37.554S1222.506,878.061,1240.468,888.43Z" transform="translate(-1162.316 -880.652)" fill="#9ec928"/>
          </g>
          <g id="Grupo_874386" data-name="Grupo 874386" transform="translate(5.478 0.072)" style="mix-blend-mode: multiply;isolation: isolate">
            <path id="Trazado_603295" data-name="Trazado 603295" d="M1250.106,904.243l-40.448,23.506-40.707-23.5,40.448-23.506Z" transform="translate(-1168.95 -880.741)" fill="#e5e5e6"/>
          </g>
        </g>
        <path id="Trazado_603296" data-name="Trazado 603296" d="M1253.985,913.818c0,.172-.006.343-.012.515,0,.115-.011.229-.017.344s-.012.2-.019.3c-.009.116-.021.232-.032.347-.011.1-.019.2-.031.3-.014.116-.031.233-.048.349-.014.1-.027.2-.043.295-.019.118-.042.236-.064.353-.018.1-.035.194-.054.291-.024.115-.051.232-.078.347-.022.1-.043.195-.067.291-.028.118-.061.235-.093.352-.026.1-.05.19-.077.285-.035.119-.073.238-.111.357-.029.092-.056.185-.087.277-.041.124-.086.248-.131.371-.031.087-.06.173-.093.261-.069.182-.142.364-.217.546-.013.031-.024.062-.037.093q-.134.318-.282.635c-.031.065-.064.13-.1.194-.07.146-.141.292-.215.438-.042.081-.087.161-.13.243-.069.128-.136.258-.208.385-.042.075-.086.149-.13.224-.083.145-.168.29-.256.433-.052.084-.1.168-.158.252q-.126.2-.258.4c-.057.087-.116.174-.175.26-.09.131-.182.262-.275.391-.061.086-.122.17-.184.255q-.149.2-.3.4c-.059.077-.118.154-.178.231-.186.234-.376.466-.575.7-.032.039-.068.077-.1.115q-.253.293-.52.583l-.2.212q-.245.259-.5.517c-.06.06-.118.12-.178.18q-.34.337-.7.669c-.088.081-.18.162-.27.244-.115.1-.228.208-.345.311-.1.084-.195.166-.291.249-.118.1-.236.2-.356.3-.1.084-.206.167-.309.251-.121.1-.241.2-.365.293-.107.084-.217.168-.326.251-.124.1-.248.19-.374.285s-.227.165-.34.249c-.129.094-.257.187-.388.28l-.353.245c-.133.091-.265.183-.4.274s-.245.162-.367.243-.274.179-.413.268-.253.16-.381.239-.282.176-.426.263c-.226.137-.453.274-.685.408-.5.288-1,.566-1.517.839l-.407.213q-.691.358-1.4.7c-.063.031-.125.062-.188.092q-.794.375-1.612.725c-.139.06-.279.119-.42.177q-.7.293-1.406.569c-.1.039-.2.081-.307.12q-.839.32-1.7.616l-.412.139c-.386.131-.777.255-1.169.379q-.554.174-1.114.339c-.317.093-.634.185-.952.273q-.568.157-1.141.3-.48.125-.964.243c-.388.094-.778.182-1.169.27-.323.072-.646.144-.972.212-.4.083-.8.16-1.2.235-.356.068-.712.138-1.07.2l-.484.082q-.824.138-1.654.259c-.092.014-.184.028-.277.041q-.945.133-1.9.24l-.482.053c-.391.042-.785.078-1.179.115q-.736.068-1.476.122c-.309.023-.618.046-.928.065-.513.032-1.026.057-1.541.078-.291.012-.581.027-.872.036-.445.015-.892.02-1.338.027-.312,0-.625.012-.938.013-.479,0-.956-.007-1.435-.015-.281,0-.563,0-.844-.012-.439-.011-.878-.032-1.316-.052-.3-.013-.609-.021-.913-.038-.474-.026-.947-.061-1.42-.1-.267-.019-.535-.034-.8-.056-.57-.048-1.138-.106-1.705-.165-.167-.018-.335-.031-.5-.049q-1.1-.122-2.19-.277c-.116-.017-.232-.038-.348-.055-.625-.091-1.249-.187-1.868-.295-.258-.044-.513-.1-.77-.144-.474-.087-.949-.174-1.419-.27-.246-.05-.489-.107-.734-.16-.516-.111-1.033-.226-1.544-.349-.284-.069-.565-.141-.847-.213-.466-.119-.931-.241-1.393-.369-.395-.11-.788-.22-1.178-.337l-.442-.132q-.882-.271-1.75-.565c-.111-.038-.221-.078-.333-.117q-.718-.248-1.423-.513c-.161-.06-.321-.121-.481-.183-.374-.144-.743-.3-1.11-.447-.254-.1-.51-.208-.762-.316-.359-.154-.711-.316-1.064-.476-.233-.106-.468-.21-.7-.319-.385-.183-.763-.375-1.139-.565-.189-.1-.382-.188-.569-.286-.559-.294-1.111-.595-1.651-.907-9.038-5.218-13.552-12.068-13.533-18.908,0,0-.038,13.146-.072,24.8.2.73.4,1.454.652,2.165,1.511,4.306,5.188,8.576,9.729,8.136,2.767-.269,5.156-2.248,7.928-2.466,4.953-.391,8.394,4.645,10.8,8.995s6.1,9.3,11.012,8.575c5.6-.824,8.456-8.707,14.117-8.7,3.365,0,6.251,2.958,9.61,2.755,6.407-.388,8.171-11.177,14.584-11.456,3.565-.155,7.1,3.265,10.314,1.721a6.938,6.938,0,0,0,2.576-2.618c.123-.186.229-.381.349-.569Z" transform="translate(-1162.176 -887)" fill="#81ad20"/>
      </g>
      <g id="Grupo_874399" data-name="Grupo 874399" transform="translate(42.024 14.82)">
        <g id="Grupo_874389" data-name="Grupo 874389" transform="translate(0.77 33.671)" style="mix-blend-mode: multiply;isolation: isolate">
          <path id="Trazado_603297" data-name="Trazado 603297" d="M1183.007,896.186c3.185,1.839,3.2,4.819.034,6.657a12.66,12.66,0,0,1-11.49,0c-3.182-1.837-3.2-4.818-.038-6.656A12.671,12.671,0,0,1,1183.007,896.186Z" transform="translate(-1169.153 -894.808)" fill="#e5e5e6"/>
        </g>
        <g id="Grupo_874398" data-name="Grupo 874398">
          <g id="Grupo_874397" data-name="Grupo 874397">
            <g id="Grupo_874393" data-name="Grupo 874393" transform="translate(6.978 18.115)">
              <g id="Grupo_874390" data-name="Grupo 874390" transform="translate(1.876 1.051)">
                <path id="Trazado_603298" data-name="Trazado 603298" d="M1179.17,896.047l1.924-1.112.018-18.1-1.924,1.112Z" transform="translate(-1179.17 -876.836)" fill="#914b23"/>
              </g>
              <g id="Grupo_874391" data-name="Grupo 874391" transform="translate(0.018)">
                <path id="Trazado_603299" data-name="Trazado 603299" d="M1178.744,877.7l1.924-1.112-1.876-1.051-1.924,1.112Z" transform="translate(-1176.868 -875.533)" fill="#dbdbdb"/>
              </g>
              <g id="Grupo_874392" data-name="Grupo 874392" transform="translate(0 1.112)">
                <path id="Trazado_603300" data-name="Trazado 603300" d="M1176.863,876.911l-.018,18.1,1.876,1.051.018-18.1Z" transform="translate(-1176.846 -876.911)" fill="#653419"/>
              </g>
            </g>
            <g id="Grupo_874394" data-name="Grupo 874394" transform="translate(0 8.411)">
              <path id="Trazado_603301" data-name="Trazado 603301" d="M1187.989,883.724l-8.838,4.763V863.51Z" transform="translate(-1170.312 -863.51)" fill="#81ad20"/>
              <path id="Trazado_603302" data-name="Trazado 603302" d="M1177.038,863.51v24.978l-8.838-4.763Z" transform="translate(-1168.199 -863.51)" fill="#5e7e12"/>
            </g>
            <g id="Grupo_874395" data-name="Grupo 874395" transform="translate(1.803 3.99)">
              <path id="Trazado_603303" data-name="Trazado 603303" d="M1186.186,874.121l-7.035,3.792V858.031Z" transform="translate(-1172.116 -858.031)" fill="#81ad20"/>
              <path id="Trazado_603304" data-name="Trazado 603304" d="M1177.469,858.031v19.881l-7.035-3.792Z" transform="translate(-1170.434 -858.031)" fill="#5e7e12"/>
            </g>
            <g id="Grupo_874396" data-name="Grupo 874396" transform="translate(3.353)">
              <path id="Trazado_603305" data-name="Trazado 603305" d="M1184.636,865.634l-5.486,2.956v-15.5Z" transform="translate(-1173.665 -853.088)" fill="#81ad20"/>
              <path id="Trazado_603306" data-name="Trazado 603306" d="M1177.839,853.088v15.5l-5.486-2.956Z" transform="translate(-1172.354 -853.088)" fill="#5e7e12"/>
            </g>
          </g>
        </g>
      </g>
      <g id="Grupo_874462" data-name="Grupo 874462" transform="translate(49.039)">
        <g id="Grupo_874461" data-name="Grupo 874461">
          <g id="Grupo_874459" data-name="Grupo 874459">
            <g id="Grupo_874442" data-name="Grupo 874442">
              <g id="Grupo_874404" data-name="Grupo 874404" transform="translate(0 37.138)">
                <g id="Grupo_874403" data-name="Grupo 874403" style="isolation: isolate">
                  <g id="Grupo_874400" data-name="Grupo 874400" transform="translate(34.201 19.746)">
                    <path id="Trazado_603307" data-name="Trazado 603307" d="M1253.328,905.207l-.077,5.117-33.983,19.749.077-5.117Z" transform="translate(-1219.269 -905.207)" fill="#148d80"/>
                  </g>
                  <g id="Grupo_874401" data-name="Grupo 874401" transform="translate(0 19.749)">
                    <path id="Trazado_603308" data-name="Trazado 603308" d="M1211.169,924.957l-.077,5.117-34.2-19.746.077-5.117Z" transform="translate(-1176.891 -905.211)" fill="#174956"/>
                  </g>
                  <g id="Grupo_874402" data-name="Grupo 874402" transform="translate(0.077)">
                    <path id="Trazado_603309" data-name="Trazado 603309" d="M1245.17,900.487l-33.983,19.749-34.2-19.746,33.983-19.749Z" transform="translate(-1176.986 -880.741)" fill="#2b7d99"/>
                  </g>
                </g>
              </g>
              <g id="Grupo_874409" data-name="Grupo 874409" transform="translate(4.121 10.917)">
                <g id="Grupo_874408" data-name="Grupo 874408" style="isolation: isolate">
                  <g id="Grupo_874405" data-name="Grupo 874405" transform="translate(30.037 17.342)">
                    <path id="Trazado_603310" data-name="Trazado 603310" d="M1249.13,869.74l-.068,29.021-29.846,17.345.068-29.021Z" transform="translate(-1219.216 -869.74)" fill="#f7f3d6"/>
                  </g>
                  <g id="Grupo_874406" data-name="Grupo 874406" transform="translate(0 17.345)">
                    <path id="Trazado_603311" data-name="Trazado 603311" d="M1212.1,887.085l-.068,29.021L1182,898.764l.068-29.021Z" transform="translate(-1181.997 -869.743)" fill="#ddd5a6"/>
                  </g>
                  <g id="Grupo_874407" data-name="Grupo 874407" transform="translate(0.067)">
                    <path id="Trazado_603312" data-name="Trazado 603312" d="M1241.965,865.594l-29.846,17.344L1182.081,865.6l29.846-17.345Z" transform="translate(-1182.081 -848.252)" fill="#ddd5a6"/>
                  </g>
                </g>
              </g>
              <g id="Grupo_874412" data-name="Grupo 874412" transform="translate(33.405 46.201)">
                <g id="Grupo_874411" data-name="Grupo 874411" style="isolation: isolate">
                  <g id="Grupo_874410" data-name="Grupo 874410">
                    <path id="Trazado_603313" data-name="Trazado 603313" d="M1218.282,892.426l0,.761.787-.455,0-.761Z" transform="translate(-1218.282 -891.971)" fill="#e2e0e2"/>
                  </g>
                </g>
              </g>
              <g id="Grupo_874418" data-name="Grupo 874418" transform="translate(1.41 0.985)">
                <g id="Grupo_874413" data-name="Grupo 874413" transform="translate(0.015)">
                  <path id="Trazado_603314" data-name="Trazado 603314" d="M1178.656,863.615l34.005-19.762,15.855-7.908-34.005,19.762Z" transform="translate(-1178.656 -835.946)" fill="#174956"/>
                </g>
                <g id="Grupo_874417" data-name="Grupo 874417">
                  <g id="Grupo_874414" data-name="Grupo 874414" transform="translate(31.613 26.16)">
                    <path id="Trazado_603315" data-name="Trazado 603315" d="M1217.823,888.121l34.005-19.762-.015,3.179L1217.808,891.3Z" transform="translate(-1217.808 -868.359)" fill="#2b7d99"/>
                  </g>
                  <g id="Grupo_874415" data-name="Grupo 874415" transform="translate(15.869)">
                    <path id="Trazado_603316" data-name="Trazado 603316" d="M1198.3,855.707l34.005-19.762,15.758,26.16-34.005,19.762Z" transform="translate(-1198.301 -835.946)" fill="#148d80"/>
                  </g>
                  <g id="Grupo_874416" data-name="Grupo 874416" transform="translate(0 19.762)">
                    <path id="Trazado_603317" data-name="Trazado 603317" d="M1194.507,860.432l15.758,26.16-.015,3.179-15.758-26.16-15.855,7.908.015-3.179Z" transform="translate(-1178.638 -860.432)" fill="#174956"/>
                  </g>
                </g>
              </g>
              <g id="Grupo_874420" data-name="Grupo 874420" transform="translate(16.186)">
                <path id="Trazado_603318" data-name="Trazado 603318" d="M1233.175,836.788c0-.018,0-.036,0-.055l0-.025v-.03c0-.018,0-.037-.006-.056s-.005-.038-.008-.057v0l-.01-.054c0-.019-.007-.039-.012-.059l0-.021,0-.012-.006-.026c0-.02-.01-.04-.015-.061l-.013-.044,0-.007,0-.008c-.006-.02-.012-.039-.018-.059l-.02-.058,0-.01,0-.009-.014-.036c-.007-.018-.015-.036-.023-.055l-.017-.04,0-.006,0-.008-.025-.055-.029-.06,0-.009-.005-.011-.025-.048c-.01-.02-.022-.039-.032-.059l-.017-.029-.006-.012c-.01-.017-.021-.033-.032-.05l-.045-.073-.007-.011c-.023-.035-.047-.069-.072-.1h0l-.051-.066-.042-.052h0l-.044-.051-.044-.049-.007-.008-.008-.008-.031-.032-.048-.048-.015-.014-.011-.01-.024-.022-.05-.044-.023-.019-.011-.009-.017-.014-.049-.038-.037-.026-.006,0-.007,0-.047-.032c-.016-.011-.032-.02-.049-.029l-.011-.007-.036-.019-.047-.024-.03-.015-.007,0-.009,0-.045-.019-.046-.017-.007,0-.007,0-.031-.011-.047-.013-.022,0-.01,0-.014,0-.05-.009-.03,0-.01,0h-.01l-.053,0h-.059l-.065.01h0l-.014,0a.568.568,0,0,0-.065.018l0,0a.566.566,0,0,0-.086.04l-33.878,19.871a.579.579,0,0,1,.086-.04.522.522,0,0,1,.069-.019l.014,0a.59.59,0,0,1,.085-.011h.018a.6.6,0,0,1,.086,0h.011a.945.945,0,0,1,.094.015l.01,0a.971.971,0,0,1,.1.027l.007,0c.035.012.071.027.107.044l.007,0c.037.017.074.036.112.058s.077.046.114.072l.006,0c.036.025.069.051.1.077l.011.01c.033.027.065.055.1.084l.012.01c.031.031.063.061.094.095l.008.008c.032.035.065.071.1.109h0c.032.039.064.077.094.119h0c.027.037.053.075.079.114s.031.048.045.073l.038.061.017.03c.019.035.039.07.057.106l.006.011c.022.044.043.087.062.132l0,.007c.019.043.036.086.053.131l0,.009c.016.044.031.09.045.135l0,.008c.013.044.024.087.035.131l0,.012c.011.044.019.089.027.133v0c.007.046.013.09.016.134v.011c0,.044.006.088.006.131l0,.671,33.878-19.872,0-.67C1233.176,836.823,1233.176,836.805,1233.175,836.788Z" transform="translate(-1197.027 -834.725)" fill="#2b7d99"/>
                <g id="Grupo_874419" data-name="Grupo 874419" transform="translate(0 19.871)">
                  <path id="Trazado_603319" data-name="Trazado 603319" d="M1198.086,859.5a2.492,2.492,0,0,1,1.132,1.959l0,.671-2.269-1.311v-.67C1196.951,859.431,1197.46,859.14,1198.086,859.5Z" transform="translate(-1196.947 -859.346)" fill="#174956"/>
                </g>
              </g>
              <g id="Grupo_874430" data-name="Grupo 874430" transform="translate(43.567 39.689)">
                <path id="Trazado_603320" data-name="Trazado 603320" d="M1244.747,900.355l-.017-5.885,0,0-.015-6.658-5.122,2.957.017,7.362,0,0,.015,5.181Z" transform="translate(-1232.555 -884.657)" fill="#fda829"/>
                <path id="Trazado_603321" data-name="Trazado 603321" d="M1237.569,904.5l-.017-5.885,0,0-.015-6.658-5.121,2.956.017,7.362,0,0,.015,5.181Z" transform="translate(-1231.171 -885.457)" fill="#fda829"/>
                <g id="Grupo_874421" data-name="Grupo 874421" transform="translate(6.522 15.379)">
                  <path id="Trazado_603322" data-name="Trazado 603322" d="M1240.05,906.551l-1.1-.637,5.122-2.957,1.1.637Z" transform="translate(-1238.955 -902.958)" fill="#148d80"/>
                </g>
                <g id="Grupo_874422" data-name="Grupo 874422" transform="translate(0.73 18.724)">
                  <path id="Trazado_603323" data-name="Trazado 603323" d="M1232.874,910.7l-1.1-.637,5.121-2.956,1.1.636Z" transform="translate(-1231.778 -907.102)" fill="#148d80"/>
                </g>
                <path id="Trazado_603324" data-name="Trazado 603324" d="M1246.388,900.6l-.017-5.885,0,0-.016-6.654-1.1-.636.017,7.045,0,0,.015,5.493Z" transform="translate(-1233.649 -884.581)" fill="#174956"/>
                <path id="Trazado_603325" data-name="Trazado 603325" d="M1239.21,904.741l-.017-6.942,0,0-.016-5.6-1.1-.637.017,5.884,0,0,.016,6.655Z" transform="translate(-1232.264 -885.38)" fill="#174956"/>
                <g id="Grupo_874423" data-name="Grupo 874423" transform="translate(0.003 1.648)">
                  <path id="Trazado_603326" data-name="Trazado 603326" d="M1231.972,893.678l-1.1-.636,12.292-7.1,1.1.637Z" transform="translate(-1230.877 -885.945)" fill="#fff"/>
                </g>
                <g id="Grupo_874424" data-name="Grupo 874424" transform="translate(0.003 8.745)">
                  <path id="Trazado_603327" data-name="Trazado 603327" d="M1232.012,909.5l-1.1-.636-.04-14.124,1.1.636Z" transform="translate(-1230.877 -894.738)" fill="#174956"/>
                </g>
                <path id="Trazado_603328" data-name="Trazado 603328" d="M1244.525,886.734l-12.291,7.1.04,14.124,12.291-7.1Zm-11.564,20.031-.016-5.885,0-.771-.017-5.884,5.121-2.956.017,5.884v.772l.017,5.885Zm5.792-3.345-.016-5.884,0-.772-.017-5.883,5.122-2.957.017,5.883v.772l.017,5.885Z" transform="translate(-1231.136 -884.449)" fill="#148d80"/>
                <g id="Grupo_874429" data-name="Grupo 874429">
                  <g id="Grupo_874428" data-name="Grupo 874428" style="isolation: isolate">
                    <g id="Grupo_874425" data-name="Grupo 874425" transform="translate(1.674 0.966)">
                      <path id="Trazado_603329" data-name="Trazado 603329" d="M1245.407,885.1l0,1.617-12.456,7.214,0-1.617Z" transform="translate(-1232.947 -885.1)" fill="#148d80"/>
                    </g>
                    <g id="Grupo_874426" data-name="Grupo 874426" transform="translate(0 7.214)">
                      <path id="Trazado_603330" data-name="Trazado 603330" d="M1232.551,893.807l0,1.617-1.674-.966,0-1.617Z" transform="translate(-1230.874 -892.841)" fill="#174956"/>
                    </g>
                    <g id="Grupo_874427" data-name="Grupo 874427" transform="translate(0.004)">
                      <path id="Trazado_603331" data-name="Trazado 603331" d="M1245.008,884.869l-12.456,7.214-1.673-.966,12.456-7.214Z" transform="translate(-1230.878 -883.902)" fill="#148d80"/>
                    </g>
                  </g>
                </g>
              </g>
              <g id="Grupo_874439" data-name="Grupo 874439" transform="translate(20.737 44.575)">
                <g id="Grupo_874431" data-name="Grupo 874431" transform="translate(1.238 1.5)">
                  <path id="Trazado_603332" data-name="Trazado 603332" d="M1204.136,891.815l-.017,5.884,5.12,2.956.017-5.884Z" transform="translate(-1204.12 -891.815)" fill="#fda829"/>
                </g>
                <g id="Grupo_874432" data-name="Grupo 874432" transform="translate(1.219 8.156)">
                  <path id="Trazado_603333" data-name="Trazado 603333" d="M1204.113,900.062l-.017,5.885,5.12,2.956.017-5.885Z" transform="translate(-1204.096 -900.062)" fill="#fda829"/>
                </g>
                <g id="Grupo_874433" data-name="Grupo 874433" transform="translate(0.671 13.722)">
                  <path id="Trazado_603334" data-name="Trazado 603334" d="M1208.538,910.552l1.1-.636-5.121-2.956-1.1.636Z" transform="translate(-1203.418 -906.959)" fill="#2b7d99"/>
                </g>
                <g id="Grupo_874434" data-name="Grupo 874434" transform="translate(0.671 7.837)">
                  <path id="Trazado_603335" data-name="Trazado 603335" d="M1203.418,906.188l1.1-.636.017-5.885-1.1.636Z" transform="translate(-1203.418 -899.667)" fill="#148d80"/>
                </g>
                <g id="Grupo_874435" data-name="Grupo 874435" transform="translate(0.69 7.065)">
                  <path id="Trazado_603336" data-name="Trazado 603336" d="M1208.562,902.3l1.1-.636-5.12-2.956-1.1.636Z" transform="translate(-1203.441 -898.711)" fill="#2b7d99"/>
                </g>
                <g id="Grupo_874436" data-name="Grupo 874436" transform="translate(0.69 1.181)">
                  <path id="Trazado_603337" data-name="Trazado 603337" d="M1203.441,897.94l1.1-.636.017-5.884-1.1.636Z" transform="translate(-1203.441 -891.42)" fill="#148d80"/>
                </g>
                <g id="Grupo_874437" data-name="Grupo 874437" transform="translate(0.035)">
                  <path id="Trazado_603338" data-name="Trazado 603338" d="M1209.114,894.336l1.1-.636-6.484-3.744-1.1.637Z" transform="translate(-1202.63 -889.956)" fill="#2b7d99"/>
                </g>
                <g id="Grupo_874438" data-name="Grupo 874438" transform="translate(6.479 3.744)">
                  <path id="Trazado_603339" data-name="Trazado 603339" d="M1210.614,909.355l1.1-.637.04-14.124-1.1.637Z" transform="translate(-1210.614 -894.595)" fill="#148d80"/>
                </g>
                <path id="Trazado_603340" data-name="Trazado 603340" d="M1202.586,904.872l6.479,3.741.04-14.124-6.484-3.743Zm5.811-4.106-5.121-2.956.017-5.884,5.121,2.956Zm-5.139,3.7.017-5.884,5.12,2.956-.016,5.885Z" transform="translate(-1202.586 -890.108)" fill="#174956"/>
              </g>
              <g id="Grupo_874441" data-name="Grupo 874441" transform="translate(14.234 27.903)">
                <path id="Trazado_603341" data-name="Trazado 603341" d="M1194.53,871.594c0,.037,0,.075,0,.113,0,.017,0,.035,0,.052l0,.023,0,.039c0,.038.008.076.013.115s.01.078.017.117v.008c.006.037.012.073.019.111s.016.081.025.122l.01.044.007.025.012.054c.01.041.021.082.033.124s.017.06.027.09l0,.017,0,.016.039.121.042.12.008.022.007.018c.009.025.018.05.027.075l.046.114c.011.027.023.054.035.081l.006.014.006.016c.017.038.034.075.052.113s.039.082.06.123l.01.019.013.024.05.1c.022.04.045.08.068.12l.034.061.014.024c.02.035.043.068.064.1.031.05.061.1.094.15l.015.023q.071.108.148.211h0c.034.046.069.092.1.136l.086.108,0,0v0l.091.106.091.1.015.015.016.017c.021.023.043.046.065.068l.1.1.031.029.024.021.049.046c.034.031.069.061.1.09l.046.038.023.019.035.028c.034.027.068.053.1.078l.075.053.014.01.013.01.1.066.1.06.023.014.074.041.028.015.038.019.03.015.047.023.034.015.014.006c.031.014.063.027.094.04h0l.094.035.012,0,.034.011.047.015.023.006.041.012.032.008.033.007.041.01.022,0,.038.006.047.007.016,0,.04,0,.05,0,.015,0h.034l.06,0h.042l.074,0,.023,0,.016,0c.037,0,.074-.009.11-.015l.009,0h0a1.169,1.169,0,0,0,.149-.04l.013,0,.011,0c.021-.007.042-.016.062-.025l.03-.013c.03-.014.059-.029.087-.045l.85-.494c-.028.016-.057.031-.087.045l-.03.013-.062.025-.024.008a1.153,1.153,0,0,1-.148.04l-.011,0c-.036.006-.073.011-.11.015l-.038,0c-.025,0-.049,0-.074,0h-.042l-.06,0-.048,0-.05,0-.056-.007-.048-.007-.06-.011-.041-.01c-.022,0-.043-.01-.065-.016l-.041-.011-.072-.022-.034-.011-.106-.039h0c-.036-.014-.071-.03-.107-.046l-.033-.016c-.026-.011-.052-.024-.078-.037l-.038-.02-.1-.056c-.079-.046-.157-.1-.234-.149l-.014-.01q-.108-.075-.212-.16l-.023-.019q-.1-.083-.2-.174L1197,874.5c-.066-.062-.131-.127-.195-.194l-.016-.017c-.068-.072-.133-.147-.2-.224l0,0c-.066-.079-.13-.16-.191-.244h0c-.057-.077-.11-.155-.162-.234-.033-.049-.064-.1-.094-.15s-.053-.084-.078-.127l-.034-.061c-.041-.072-.081-.144-.118-.218L1195.9,873q-.067-.134-.127-.271l-.006-.014c-.039-.089-.075-.18-.109-.27l-.006-.018c-.035-.093-.066-.186-.094-.278l0-.017c-.027-.089-.051-.179-.072-.269l-.006-.025c-.021-.093-.04-.185-.054-.276v0c-.015-.093-.026-.185-.033-.275l0-.023c-.006-.091-.01-.182-.01-.27s0-.174.012-.257l0-.022c.007-.075.019-.148.031-.218l.006-.027c.015-.068.031-.132.051-.195l.011-.035a1.679,1.679,0,0,1,.065-.167l.007-.018a1.519,1.519,0,0,1,.094-.17l.015-.02a1.247,1.247,0,0,1,.09-.12l.035-.039a1.116,1.116,0,0,1,.088-.086l.038-.032a1.044,1.044,0,0,1,.136-.094h0l-.851.494a1.079,1.079,0,0,0-.135.094l-.038.032a1.054,1.054,0,0,0-.088.086l-.036.039a1.193,1.193,0,0,0-.091.12l-.014.02,0,0a1.522,1.522,0,0,0-.088.16l0,.006-.008.018c-.016.036-.031.072-.046.11-.007.019-.013.039-.019.057l-.012.035-.01.031c-.011.039-.022.078-.031.119,0,.015-.006.03-.009.044l-.006.027c0,.015-.005.028-.008.043-.007.036-.012.073-.017.111,0,.021,0,.043-.006.064l0,.023,0,.027c0,.036-.006.073-.007.111s0,.074,0,.113v.007C1194.528,871.523,1194.528,871.558,1194.53,871.594Z" transform="translate(-1194.528 -869.336)" fill="#ccc19a"/>
                <g id="Grupo_874440" data-name="Grupo 874440" transform="translate(0.85)">
                  <path id="Trazado_603342" data-name="Trazado 603342" d="M1197.913,875a5.143,5.143,0,0,1-2.332-4.04c0-1.485,1.056-2.083,2.348-1.337a5.138,5.138,0,0,1,2.332,4.039C1200.256,875.143,1199.206,875.742,1197.913,875Z" transform="translate(-1195.581 -869.298)" fill="#fda829"/>
                </g>
              </g>
            </g>
            <g id="Grupo_874458" data-name="Grupo 874458" transform="translate(0.141 59.853)">
              <g id="Grupo_874447" data-name="Grupo 874447" transform="translate(0 5.347)">
                <g id="Grupo_874446" data-name="Grupo 874446" style="isolation: isolate">
                  <g id="Grupo_874443" data-name="Grupo 874443" transform="translate(0 1)">
                    <path id="Trazado_603343" data-name="Trazado 603343" d="M1177.066,916.751l0,1.674,7.732,4.487,0-1.674Z" transform="translate(-1177.066 -916.751)" fill="#174956"/>
                  </g>
                  <g id="Grupo_874444" data-name="Grupo 874444" transform="translate(7.732 4.486)">
                    <path id="Trazado_603344" data-name="Trazado 603344" d="M1186.646,922.071l0,1.674,1.732-1,0-1.674Z" transform="translate(-1186.646 -921.071)" fill="#148d80"/>
                  </g>
                  <g id="Grupo_874445" data-name="Grupo 874445">
                    <path id="Trazado_603345" data-name="Trazado 603345" d="M1177.066,916.512,1184.8,921l1.732-1-7.732-4.486Z" transform="translate(-1177.066 -915.512)" fill="#2b7d99"/>
                  </g>
                </g>
              </g>
              <g id="Grupo_874452" data-name="Grupo 874452" transform="translate(1.682 2.674)">
                <g id="Grupo_874451" data-name="Grupo 874451" style="isolation: isolate">
                  <g id="Grupo_874448" data-name="Grupo 874448" transform="translate(0 1)">
                    <path id="Trazado_603346" data-name="Trazado 603346" d="M1179.151,913.438l0,1.674,7.732,4.486,0-1.674Z" transform="translate(-1179.151 -913.438)" fill="#174956"/>
                  </g>
                  <g id="Grupo_874449" data-name="Grupo 874449" transform="translate(7.732 4.486)">
                    <path id="Trazado_603347" data-name="Trazado 603347" d="M1188.731,918.758l0,3.376,1.732-1,0-3.376Z" transform="translate(-1188.731 -917.758)" fill="#148d80"/>
                  </g>
                  <g id="Grupo_874450" data-name="Grupo 874450">
                    <path id="Trazado_603348" data-name="Trazado 603348" d="M1179.151,913.2l7.732,4.486,1.732-1-7.732-4.486Z" transform="translate(-1179.151 -912.199)" fill="#2b7d99"/>
                  </g>
                </g>
              </g>
              <g id="Grupo_874457" data-name="Grupo 874457" transform="translate(3.365)">
                <g id="Grupo_874456" data-name="Grupo 874456" style="isolation: isolate">
                  <g id="Grupo_874453" data-name="Grupo 874453" transform="translate(0 1)">
                    <path id="Trazado_603349" data-name="Trazado 603349" d="M1181.235,910.125l0,1.674,7.732,4.486,0-1.674Z" transform="translate(-1181.235 -910.125)" fill="#174956"/>
                  </g>
                  <g id="Grupo_874454" data-name="Grupo 874454" transform="translate(7.732 4.486)">
                    <path id="Trazado_603350" data-name="Trazado 603350" d="M1190.816,915.445l0,5.078,1.732-1,0-5.078Z" transform="translate(-1190.816 -914.445)" fill="#148d80"/>
                  </g>
                  <g id="Grupo_874455" data-name="Grupo 874455">
                    <path id="Trazado_603351" data-name="Trazado 603351" d="M1181.235,909.886l7.732,4.486,1.732-1-7.732-4.486Z" transform="translate(-1181.235 -908.886)" fill="#2b7d99"/>
                  </g>
                </g>
              </g>
            </g>
          </g>
          <g id="Grupo_874460" data-name="Grupo 874460" transform="translate(4.694 39.988)">
            <path id="Trazado_603352" data-name="Trazado 603352" d="M1184.082,885.744v18.217l7.571,4.353v-18.2Z" transform="translate(-1182.972 -884.556)" fill="#174956" fill-rule="evenodd"/>
            <path id="Trazado_603353" data-name="Trazado 603353" d="M1185.016,887.362v17.324l.67-.369V887.749Z" transform="translate(-1183.152 -884.869)" fill="#148d80" fill-rule="evenodd"/>
            <path id="Trazado_603354" data-name="Trazado 603354" d="M1194.439,890.5l-.976.564v18.166l.976-.564Z" transform="translate(-1184.782 -885.475)" fill="#148d80" fill-rule="evenodd"/>
            <path id="Trazado_603355" data-name="Trazado 603355" d="M1191.24,907.524l-5.393-3.114V887.842l5.393,3.113Z" transform="translate(-1183.313 -884.961)" fill="#fda829" fill-rule="evenodd"/>
            <path id="Trazado_603356" data-name="Trazado 603356" d="M1193.5,889.925l-.5.29-.5.29-4.9-5.012-4.9-.64.5-.29.5-.29,4.9.641Z" transform="translate(-1182.707 -884.272)" fill="#2b7d99" fill-rule="evenodd"/>
            <path id="Trazado_603357" data-name="Trazado 603357" d="M1187.6,885.493l-4.9-.64.5-.29.5-.29,4.9.641Z" transform="translate(-1182.707 -884.272)" fill="#174956" fill-rule="evenodd"/>
            <path id="Trazado_603358" data-name="Trazado 603358" d="M1192.5,890.644l-4.9-5.012-4.9-.64Z" transform="translate(-1182.707 -884.411)" fill="#174956" fill-rule="evenodd"/>
            <path id="Trazado_603359" data-name="Trazado 603359" d="M1186.729,889.837l4.487,2.591v3.712l-4.487-2.591v-3.712Zm.485,3.432,3.517,2.031v-2.592l-3.517-2.031Z" transform="translate(-1183.483 -885.346)" fill="#174956" fill-rule="evenodd"/>
            <path id="Trazado_603360" data-name="Trazado 603360" d="M1186.729,895.863l4.487,2.591v4l-4.487-2.591v-4Zm.485,3.723,3.517,2.031v-2.883l-3.517-2.031Z" transform="translate(-1183.483 -886.509)" fill="#174956" fill-rule="evenodd"/>
            <path id="Trazado_603361" data-name="Trazado 603361" d="M1186.729,902.97l4.487,2.591v3.713l-4.487-2.591V902.97Zm.485,3.432,3.517,2.031v-2.592l-3.517-2.031Z" transform="translate(-1183.483 -887.88)" fill="#174956" fill-rule="evenodd"/>
            <path id="Trazado_603362" data-name="Trazado 603362" d="M1186.729,904.329l.1-.082,4.382,2.53v.144l-4.487-2.591Zm.485-2.872.1-.083,3.536,2.042-.124.072-3.517-2.031Zm-.485-2.573,4.487,2.591v-.144l-4.382-2.53-.1.083Zm.485-3.164.1-.082,3.536,2.042-.124.072-3.517-2.031Zm-.485-1.991,4.487,2.591v-.144l-4.382-2.53-.1.082Zm.59-2.955,3.536,2.042-.124.072-3.517-2.03Z" transform="translate(-1183.483 -885.527)" fill="#ffe888" fill-rule="evenodd"/>
            <path id="Trazado_603363" data-name="Trazado 603363" d="M1191.688,895.969v-2.592l.124-.072-.019,2.6Z" transform="translate(-1184.44 -886.015)" fill="#c19d05" fill-rule="evenodd"/>
            <path id="Trazado_603364" data-name="Trazado 603364" d="M1191.688,902.286V899.4l.124-.072-.019,2.894Z" transform="translate(-1184.44 -887.178)" fill="#c19d05" fill-rule="evenodd"/>
            <path id="Trazado_603365" data-name="Trazado 603365" d="M1191.688,909.1V906.51l.124-.072-.019,2.6Z" transform="translate(-1184.44 -888.549)" fill="#c19d05" fill-rule="evenodd"/>
            <path id="Trazado_603366" data-name="Trazado 603366" d="M1186.729,893.549v-3.712l.124.075-.019,3.577Z" transform="translate(-1183.483 -885.346)" fill="#c19d05" fill-rule="evenodd"/>
            <path id="Trazado_603367" data-name="Trazado 603367" d="M1186.729,899.866v-4l.124.075-.019,3.868Z" transform="translate(-1183.483 -886.509)" fill="#c19d05" fill-rule="evenodd"/>
            <path id="Trazado_603368" data-name="Trazado 603368" d="M1186.729,906.682V902.97l.124.074-.019,3.577Z" transform="translate(-1183.483 -887.88)" fill="#c19d05" fill-rule="evenodd"/>
            <path id="Trazado_603369" data-name="Trazado 603369" d="M1187.109,901.805l-.023-.112-.037-.111-.049-.106-.059-.1-.067-.088-.074-.074-.08-.057-.08-.035-.074-.012-.067.01-.059.031-.512.3.058-.031.067-.01.074.012.079.035.08.057.074.074.067.087.059.1.048.106.013.041-.528,0,.574.392-.023.085-.037.068-.048.05.512-.3.049-.05.037-.068.023-.086.008-.1Z" transform="translate(-1183.329 -887.522)" fill="#2b7d99" fill-rule="evenodd"/>
            <path id="Trazado_603370" data-name="Trazado 603370" d="M1186.181,901.526h0a.952.952,0,0,1,.4.756h0c0,.291-.178.425-.4.3h0a.95.95,0,0,1-.4-.756h0C1185.786,901.535,1185.963,901.4,1186.181,901.526Z" transform="translate(-1183.301 -887.592)" fill="#174956" fill-rule="evenodd"/>
          </g>
        </g>
      </g>
      <g id="Grupo_874473" data-name="Grupo 874473" transform="translate(102.447 35.323)">
        <g id="Grupo_874463" data-name="Grupo 874463" transform="translate(0.77 33.671)" style="mix-blend-mode: multiply;isolation: isolate">
          <path id="Trazado_603371" data-name="Trazado 603371" d="M1257.874,921.59c3.185,1.839,3.2,4.819.034,6.657a12.658,12.658,0,0,1-11.49,0c-3.182-1.837-3.2-4.818-.038-6.655A12.669,12.669,0,0,1,1257.874,921.59Z" transform="translate(-1244.02 -920.212)" fill="#e5e5e6"/>
        </g>
        <g id="Grupo_874472" data-name="Grupo 874472">
          <g id="Grupo_874471" data-name="Grupo 874471">
            <g id="Grupo_874467" data-name="Grupo 874467" transform="translate(6.978 18.115)">
              <g id="Grupo_874464" data-name="Grupo 874464" transform="translate(1.876 1.051)">
                <path id="Trazado_603372" data-name="Trazado 603372" d="M1254.037,921.451l1.923-1.112.018-18.1-1.924,1.112Z" transform="translate(-1254.037 -902.24)" fill="#914b23"/>
              </g>
              <g id="Grupo_874465" data-name="Grupo 874465" transform="translate(0.018)">
                <path id="Trazado_603373" data-name="Trazado 603373" d="M1253.611,903.1l1.923-1.112-1.876-1.051-1.923,1.112Z" transform="translate(-1251.735 -900.937)" fill="#dbdbdb"/>
              </g>
              <g id="Grupo_874466" data-name="Grupo 874466" transform="translate(0 1.112)">
                <path id="Trazado_603374" data-name="Trazado 603374" d="M1251.73,902.315l-.018,18.1,1.876,1.051.018-18.1Z" transform="translate(-1251.713 -902.315)" fill="#653419"/>
              </g>
            </g>
            <g id="Grupo_874468" data-name="Grupo 874468" transform="translate(0 8.411)">
              <path id="Trazado_603375" data-name="Trazado 603375" d="M1262.856,909.129l-8.838,4.763V888.914Z" transform="translate(-1245.179 -888.914)" fill="#81ad20"/>
              <path id="Trazado_603376" data-name="Trazado 603376" d="M1251.9,888.914v24.978l-8.839-4.763Z" transform="translate(-1243.066 -888.914)" fill="#5e7e12"/>
            </g>
            <g id="Grupo_874469" data-name="Grupo 874469" transform="translate(1.803 3.99)">
              <path id="Trazado_603377" data-name="Trazado 603377" d="M1261.053,899.525l-7.035,3.792V883.435Z" transform="translate(-1246.983 -883.435)" fill="#81ad20"/>
              <path id="Trazado_603378" data-name="Trazado 603378" d="M1252.336,883.435v19.881l-7.035-3.792Z" transform="translate(-1245.301 -883.435)" fill="#5e7e12"/>
            </g>
            <g id="Grupo_874470" data-name="Grupo 874470" transform="translate(3.353)">
              <path id="Trazado_603379" data-name="Trazado 603379" d="M1259.5,891.038l-5.485,2.956v-15.5Z" transform="translate(-1248.532 -878.492)" fill="#81ad20"/>
              <path id="Trazado_603380" data-name="Trazado 603380" d="M1252.706,878.492v15.5l-5.486-2.956Z" transform="translate(-1247.221 -878.492)" fill="#5e7e12"/>
            </g>
          </g>
        </g>
      </g>
    </g>
    <g id="Grupo_874475" data-name="Grupo 874475" transform="translate(1234.036 907.521)" style="mix-blend-mode: multiply;isolation: isolate">
      <path id="Trazado_603381" data-name="Trazado 603381" d="M1297.811,943.581c2.017,1.165,2.025,3.051.022,4.215a8.016,8.016,0,0,1-7.275,0c-2.014-1.163-2.025-3.051-.024-4.214A8.02,8.02,0,0,1,1297.811,943.581Z" transform="translate(-1289.04 -942.709)" fill="#e5e5e6"/>
    </g>
    <g id="Grupo_874477" data-name="Grupo 874477" transform="translate(1157.174 788.297)">
      <g id="Grupo_874476" data-name="Grupo 874476" style="isolation: isolate">
        <path id="Trazado_603382" data-name="Trazado 603382" d="M1207.3,798.815c5.008-2.892,9.084-.571,9.1,5.185s-4.033,12.769-9.041,15.66-9.083.571-9.1-5.187S1202.288,801.706,1207.3,798.815Z" transform="translate(-1194.662 -795.482)" fill="#fda829"/>
        <path id="Trazado_603383" data-name="Trazado 603383" d="M1193.809,811.475c0-.026,0-.052,0-.078,0-.056.005-.111.007-.167s.006-.129.01-.194c0-.049.008-.1.011-.15s.009-.117.015-.175c0-.039.005-.077.009-.115.008-.084.018-.168.028-.252.006-.048.01-.1.016-.144,0-.016,0-.031,0-.048q.029-.226.066-.455l0-.01c0-.023.008-.044.011-.066.021-.128.042-.255.066-.383,0-.023.01-.046.014-.069.012-.061.025-.122.037-.182s.029-.148.045-.222c.009-.041.019-.082.029-.123.015-.066.03-.133.046-.2.012-.051.023-.1.036-.153s.032-.122.048-.182.034-.134.052-.2c.009-.032.017-.065.026-.1.024-.087.051-.174.076-.261.017-.056.032-.113.05-.169l.014-.048c.048-.157.1-.313.15-.469l0-.006.015-.042c.047-.138.094-.276.145-.414l.024-.065c.019-.052.04-.1.059-.157.028-.074.055-.148.084-.222.018-.048.038-.094.057-.142s.046-.115.07-.173l.05-.126c.035-.084.072-.167.107-.25.019-.045.038-.09.058-.135.006-.016.013-.031.02-.048q.1-.219.2-.437l.009-.019c.02-.042.04-.083.06-.124.054-.112.107-.224.163-.336l.027-.052c.046-.092.094-.182.141-.273.038-.073.074-.147.113-.22.007-.013.015-.026.022-.039q.19-.353.392-.7l.033-.059c.013-.023.028-.044.041-.066q.288-.484.6-.954c.011-.017.021-.035.032-.052s.04-.057.06-.085c.168-.249.338-.494.515-.734h0q.189-.257.385-.506l.017-.023c.1-.122.194-.241.292-.361.019-.022.036-.044.054-.066l0,0q.173-.208.35-.41l.018-.02.108-.12c.076-.084.15-.169.227-.251l.044-.046c.052-.054.1-.107.154-.161s.115-.122.174-.182l.065-.065.169-.168c.049-.048.1-.1.148-.145.027-.027.057-.052.085-.079.061-.058.123-.115.186-.172.043-.039.085-.081.127-.119s.069-.059.1-.09l.188-.164.113-.1.125-.1.184-.15c.031-.026.063-.052.1-.078.052-.041.1-.08.156-.12l.172-.131c.023-.017.046-.035.07-.053.07-.051.141-.1.211-.15l.146-.1.037-.027q.191-.131.385-.254l0,0,.028-.017c.117-.074.234-.146.353-.216l.089-.052q.145-.084.288-.161l.109-.056.148-.077.115-.059c.061-.031.122-.057.182-.086.044-.02.087-.042.131-.061l.054-.026c.122-.054.243-.106.363-.153h0c.123-.049.245-.094.365-.137l.047-.015.131-.043c.062-.02.124-.042.185-.06.031-.01.061-.017.092-.026l.16-.044c.041-.011.082-.024.124-.034s.085-.018.128-.029l.159-.035.085-.018c.05-.01.1-.016.149-.024s.122-.022.182-.031l.065-.01c.051-.006.1-.01.15-.015.065-.007.131-.015.2-.02l.057-.006c.044,0,.087,0,.131,0,.078,0,.154-.007.231-.008.021,0,.044,0,.065,0s.065,0,.1,0c.1,0,.191.006.286.014.028,0,.058,0,.087,0s.041.007.062.009c.144.015.286.035.425.062l.036,0,.01,0c.028.006.056.014.084.02.087.018.173.039.257.063.041.011.081.026.122.038s.109.032.161.051l.04.016c.081.03.161.064.24.1.039.017.078.031.116.049.115.055.229.113.339.177l3.595,2.089c-.11-.064-.224-.122-.339-.176-.038-.018-.078-.033-.115-.049-.08-.035-.159-.069-.24-.1-.066-.023-.133-.045-.2-.066l-.122-.039c-.084-.023-.169-.044-.255-.063-.029-.006-.057-.014-.086-.02l-.044-.007c-.139-.027-.282-.047-.426-.062l-.148-.013c-.094-.007-.19-.011-.286-.013-.055,0-.109,0-.164,0-.076,0-.152,0-.23.008s-.125,0-.189.01l-.2.02c-.072.008-.143.015-.215.026s-.122.02-.183.031c-.078.013-.155.027-.234.044l-.159.035c-.083.019-.167.04-.251.063-.053.014-.107.028-.161.044-.091.026-.183.055-.275.085l-.132.044c-.136.047-.273.1-.41.152l0,0c-.137.055-.277.115-.417.179-.044.019-.087.041-.131.062-.1.046-.2.094-.3.144l-.149.077c-.132.069-.264.14-.4.217s-.294.174-.44.267l-.03.018q-.214.137-.425.283c-.049.034-.1.069-.147.1-.093.066-.187.133-.28.2l-.173.131c-.084.065-.168.13-.251.2l-.184.15c-.08.066-.159.132-.237.2l-.189.165c-.077.068-.153.137-.229.207s-.125.115-.186.174c-.078.073-.154.148-.231.224-.057.056-.115.111-.171.169-.079.08-.158.162-.236.244-.053.055-.1.109-.157.165-.09.1-.179.2-.268.294-.036.04-.074.08-.11.122-.126.142-.25.286-.372.434-.019.022-.036.045-.055.068-.1.126-.207.253-.308.382q-.2.249-.386.507h0c-.178.241-.348.486-.516.734l-.091.135q-.311.47-.6.956c-.025.041-.05.082-.074.124q-.2.346-.392.7c-.046.086-.09.174-.136.26s-.094.181-.14.272q-.1.194-.19.388c-.019.041-.04.082-.06.124q-.119.251-.228.5c-.02.045-.04.091-.059.137q-.08.187-.158.375c-.023.057-.047.115-.069.174-.048.12-.1.242-.141.363-.019.052-.039.1-.059.157q-.087.24-.169.479l-.015.043c-.058.174-.113.348-.166.521-.018.057-.034.115-.05.171-.035.119-.069.239-.1.359-.019.066-.036.133-.052.2-.03.112-.057.224-.084.337-.016.066-.031.131-.046.2-.027.116-.051.232-.075.348-.012.06-.025.12-.036.18q-.044.228-.08.453c0,.022-.008.044-.011.065-.027.172-.051.343-.073.513-.006.048-.01.1-.016.145-.014.123-.026.245-.037.366-.005.059-.009.117-.014.175-.009.115-.015.231-.021.345,0,.056-.005.111-.008.165-.006.163-.01.326-.009.487s0,.335.012.5c0,.046.006.09.009.136.006.113.014.224.024.334.005.063.013.125.019.187.01.093.021.184.033.274.01.067.019.132.03.2.013.083.027.165.043.247s.028.145.044.217.032.145.049.216.042.167.065.25c.018.064.036.127.055.189q.046.148.1.289c.018.051.035.1.054.153.061.159.124.312.194.461.053.112.109.223.167.329l0,.006c.059.107.122.211.187.312.093.144.192.28.3.411.025.031.05.062.076.093.1.12.2.236.313.345.008.007.015.016.023.023a4.513,4.513,0,0,0,.365.316l.093.069a4.217,4.217,0,0,0,.4.266h0l-3.595-2.089a4.337,4.337,0,0,1-.4-.266c-.031-.023-.062-.046-.092-.07a4.47,4.47,0,0,1-.365-.315l-.024-.025c-.109-.107-.212-.223-.312-.343l-.076-.093a5.016,5.016,0,0,1-.295-.411l-.009-.011c-.062-.1-.121-.2-.179-.3l0-.006c-.056-.1-.109-.207-.161-.314l-.007-.016c-.069-.148-.134-.3-.194-.46,0-.014-.011-.026-.016-.04-.014-.037-.025-.077-.038-.113-.033-.1-.066-.19-.1-.289-.008-.026-.018-.05-.026-.076s-.018-.076-.029-.113c-.023-.082-.044-.165-.065-.249-.008-.034-.018-.066-.026-.1s-.015-.078-.023-.116c-.016-.071-.03-.144-.044-.216-.007-.038-.015-.073-.022-.111s-.013-.09-.02-.136c-.01-.065-.02-.131-.029-.2,0-.034-.011-.066-.015-.1-.007-.057-.011-.115-.018-.174s-.014-.124-.019-.188c0-.025-.006-.049-.008-.075-.006-.084-.01-.17-.016-.256,0-.047-.006-.092-.008-.139l0-.033c-.006-.144-.01-.291-.011-.439v-.026C1193.8,811.748,1193.8,811.612,1193.809,811.475Z" transform="translate(-1193.803 -794.983)" fill="#e26c1e"/>
      </g>
    </g>
    <g id="Grupo_874481" data-name="Grupo 874481" transform="translate(1077.238 788.651)">
      <g id="Grupo_874478" data-name="Grupo 874478" transform="translate(0 6.448)">
        <path id="Trazado_603384" data-name="Trazado 603384" d="M1103.35,841.041c.072-.041.134-.066.206-.107.928-5.987,5.1-12.505,10.111-15.4a10.012,10.012,0,0,1,4.047-1.392,34.853,34.853,0,0,1,3.246-7.5,30.5,30.5,0,0,1,10.6-11.172c3.839-2.217,7.682-2.751,10.62-1.077l5.265,3.059a7.778,7.778,0,0,1,3.016,3.214,5.659,5.659,0,0,1,3.691.613l5.265,3.06-.019-.01c1.868,1.075,3.026,3.372,3.036,6.644.018,6.258-4.179,13.807-9.518,17.406l-44.239,25.542c-2.544,1.468-4.828,1.509-6.412.405.093.065.182.137.279.194l-5.265-3.059c-1.549-.9-2.509-2.814-2.517-5.534C1094.742,850.458,1098.592,843.789,1103.35,841.041Z" transform="translate(-1094.757 -803.411)" fill="#e4eff9"/>
        <path id="Trazado_603385" data-name="Trazado 603385" d="M1138.078,809.261a30.509,30.509,0,0,0-10.6,11.172,34.806,34.806,0,0,0-3.246,7.5,10.017,10.017,0,0,0-4.047,1.392c-5.012,2.894-9.183,9.413-10.112,15.4-.071.041-.133.065-.205.107-4.759,2.747-8.609,9.416-8.594,14.885s3.891,7.682,8.65,4.935l44.239-25.542c5.339-3.6,9.536-11.148,9.518-17.406-.018-6.565-4.664-9.212-10.377-5.913-.1.055-.19.127-.286.182-.374-3.539-1.814-6.356-4.326-7.788C1145.761,806.51,1141.917,807.044,1138.078,809.261Z" transform="translate(-1096.015 -804.142)" fill="#d2e1f1"/>
      </g>
      <g id="Grupo_874479" data-name="Grupo 874479" transform="translate(165.006 34.03)">
        <path id="Trazado_603386" data-name="Trazado 603386" d="M1345.94,867.353c-.056-.033-.106-.052-.162-.086-.734-4.735-4.034-9.891-8-12.18a7.927,7.927,0,0,0-3.2-1.1,27.594,27.594,0,0,0-2.567-5.932,24.127,24.127,0,0,0-8.381-8.837c-3.037-1.754-6.077-2.176-8.4-.852l-4.164,2.42a6.159,6.159,0,0,0-2.386,2.541,4.482,4.482,0,0,0-2.92.485l-4.164,2.42.015-.007c-1.477.851-2.394,2.667-2.4,5.255-.015,4.95,3.3,10.921,7.528,13.768l34.994,20.2c2.011,1.162,3.818,1.194,5.072.32-.074.052-.144.109-.221.154l4.165-2.42c1.225-.712,1.984-2.226,1.991-4.378A14.99,14.99,0,0,0,1345.94,867.353Z" transform="translate(-1299.21 -837.587)" fill="#d2e1f1"/>
        <path id="Trazado_603387" data-name="Trazado 603387" d="M1319.467,842.214a24.132,24.132,0,0,1,8.38,8.837,27.582,27.582,0,0,1,2.568,5.933,7.91,7.91,0,0,1,3.2,1.1c3.964,2.289,7.263,7.445,8,12.181.057.032.105.052.162.085a14.988,14.988,0,0,1,6.8,11.774c-.012,4.33-3.077,6.076-6.842,3.9l-34.994-20.2c-4.223-2.846-7.543-8.818-7.528-13.768.014-5.193,3.689-7.287,8.208-4.678.076.044.151.1.227.144.295-2.8,1.435-5.028,3.421-6.16C1313.389,840.039,1316.429,840.461,1319.467,842.214Z" transform="translate(-1299.21 -838.166)" fill="#e4eff9"/>
      </g>
      <g id="Grupo_874480" data-name="Grupo 874480" transform="translate(122.676)">
        <path id="Trazado_603388" data-name="Trazado 603388" d="M1281.633,817.634c-.042-.024-.078-.039-.121-.064a13.626,13.626,0,0,0-5.968-9.089,5.92,5.92,0,0,0-2.389-.822,20.557,20.557,0,0,0-1.916-4.427,18,18,0,0,0-6.254-6.595c-2.266-1.308-4.535-1.624-6.269-.636l-3.107,1.806a4.592,4.592,0,0,0-1.781,1.9,3.34,3.34,0,0,0-2.179.362l-3.107,1.806.01-.006c-1.1.634-1.786,1.99-1.792,3.921a13.615,13.615,0,0,0,5.619,10.274l26.113,15.078c1.5.867,2.85.891,3.785.239-.055.038-.107.081-.166.115l3.108-1.806a3.567,3.567,0,0,0,1.486-3.266A11.187,11.187,0,0,0,1281.633,817.634Z" transform="translate(-1246.761 -795.422)" fill="#d2e1f1"/>
        <path id="Trazado_603389" data-name="Trazado 603389" d="M1261.878,798.874a18,18,0,0,1,6.254,6.6,20.588,20.588,0,0,1,1.916,4.427,5.915,5.915,0,0,1,2.389.822,13.629,13.629,0,0,1,5.968,9.09c.042.024.079.039.121.063a11.187,11.187,0,0,1,5.073,8.786c-.01,3.232-2.3,4.535-5.106,2.913l-26.113-15.077a13.615,13.615,0,0,1-5.619-10.274c.011-3.875,2.753-5.437,6.126-3.491.057.032.112.075.169.107a5.7,5.7,0,0,1,2.554-4.6C1257.342,797.25,1259.611,797.566,1261.878,798.874Z" transform="translate(-1246.761 -795.853)" fill="#e4eff9"/>
      </g>
    </g>
    <g id="Grupo_874484" data-name="Grupo 874484" transform="translate(1234.504 886.174)">
      <g id="Grupo_874483" data-name="Grupo 874483" style="isolation: isolate">
        <g id="Grupo_874482" data-name="Grupo 874482">
          <path id="Trazado_603390" data-name="Trazado 603390" d="M1294.313,916.259l4.66,8.542-3.389-1.956-.053,18.623-2.576-1.487.053-18.623-3.389-1.957Z" transform="translate(-1289.62 -916.259)" fill="#abe0da"/>
        </g>
      </g>
    </g>
    <g id="Grupo_874487" data-name="Grupo 874487" transform="translate(1222.231 834.912)">
      <g id="Grupo_874486" data-name="Grupo 874486" style="isolation: isolate">
        <g id="Grupo_874485" data-name="Grupo 874485">
          <path id="Trazado_603391" data-name="Trazado 603391" d="M1279.106,852.742l4.66,8.542-3.389-1.956-.053,18.623-2.576-1.487.053-18.623-3.389-1.956Z" transform="translate(-1274.413 -852.742)" fill="#abe0da"/>
        </g>
      </g>
    </g>
    <g id="Grupo_874490" data-name="Grupo 874490" transform="translate(1249.018 857.709)">
      <g id="Grupo_874489" data-name="Grupo 874489" style="isolation: isolate">
        <g id="Grupo_874488" data-name="Grupo 874488">
          <path id="Trazado_603392" data-name="Trazado 603392" d="M1312.3,880.989l4.66,8.542-3.389-1.956-.053,18.623-2.576-1.487.053-18.623-3.389-1.956Z" transform="translate(-1307.604 -880.989)" fill="#abe0da"/>
        </g>
      </g>
    </g>
    <g id="Grupo_874493" data-name="Grupo 874493" transform="translate(1122.123 831.714)">
      <g id="Grupo_874492" data-name="Grupo 874492" style="isolation: isolate">
        <g id="Grupo_874491" data-name="Grupo 874491">
          <path id="Trazado_603393" data-name="Trazado 603393" d="M1153.709,850.264l.053,18.623-3.389,1.956,4.693,3.142,4.658-8.541-3.389,1.956-.053-18.623Z" transform="translate(-1150.373 -848.779)" fill="#94ccc3"/>
        </g>
      </g>
    </g>
    <g id="Grupo_874496" data-name="Grupo 874496" transform="translate(1112.62 868.62)">
      <g id="Grupo_874495" data-name="Grupo 874495" style="isolation: isolate">
        <g id="Grupo_874494" data-name="Grupo 874494">
          <path id="Trazado_603394" data-name="Trazado 603394" d="M1141.934,895.995l.053,18.623-3.389,1.956,4.693,3.142,4.658-8.541-3.389,1.956-.053-18.623Z" transform="translate(-1138.598 -894.509)" fill="#94ccc3"/>
        </g>
      </g>
    </g>
    <g id="Grupo_874499" data-name="Grupo 874499" transform="translate(1094.383 847.08)">
      <g id="Grupo_874498" data-name="Grupo 874498" style="isolation: isolate">
        <g id="Grupo_874497" data-name="Grupo 874497">
          <path id="Trazado_603395" data-name="Trazado 603395" d="M1119.337,869.3l.053,18.623L1116,889.884l4.693,3.142,4.658-8.541-3.389,1.957-.053-18.623Z" transform="translate(-1116.001 -867.819)" fill="#94ccc3"/>
        </g>
      </g>
    </g>
    <text id="EVAPORACIN" transform="translate(1269.374 914.593)" fill="#174956" font-size="13" font-family="Montserrat-Bold, Montserrat" font-weight="700"><tspan x="0" y="0">EVAPORACIN</tspan></text>
    <text id="CONDESACIN" transform="translate(1125.842 770.388)" fill="#174956" font-size="13" font-family="Montserrat-Bold, Montserrat" font-weight="700"><tspan x="0" y="0">CONDESACIN</tspan></text>
    <text id="PRECIPITACIN" transform="translate(988.778 914.593)" fill="#174956" font-size="13" font-family="Montserrat-Bold, Montserrat" font-weight="700"><tspan x="0" y="0">PRECIPITACIN</tspan></text>
    <text id="FILTRACIN" transform="translate(1141.26 1046.457)" fill="#f7f3d6" font-size="13" font-family="Montserrat-Bold, Montserrat" font-weight="700"><tspan x="0" y="0">FILTRACIN</tspan></text>
    <path id="Trazado_603396" data-name="Trazado 603396" d="M1218.906,1079.679v-20.714h-2.959v20.714H1210.7l6.725,10.223,6.726-10.223Z" transform="translate(-39.889 -57.619)" fill="#ddd5a6"/>
    <g id="Grupo_874501" data-name="Grupo 874501" transform="translate(1030.88 773.886)">
      <g id="Grupo_874500" data-name="Grupo 874500" transform="translate(2.797 0.332)">
        <path id="Trazado_603397" data-name="Trazado 603397" d="M1041.2,890.626a38.832,38.832,0,0,1,7.325.218,138.571,138.571,0,0,1,85.456-105.5v-7.811A145.564,145.564,0,0,0,1041.2,890.626Z" transform="translate(-1040.864 -777.538)" fill="#fda829"/>
        <path id="Trazado_603398" data-name="Trazado 603398" d="M1287.153,779.709c-.237,2.492-.743,4.943-1.223,7.409a138.545,138.545,0,0,1,82.527,106.014h7.344A145.558,145.558,0,0,0,1287.153,779.709Z" transform="translate(-1088.081 -777.957)" fill="#fda829"/>
        <path id="Trazado_603399" data-name="Trazado 603399" d="M1133.9,1079.921a138.563,138.563,0,0,1-85.777-107.364h-7.344a145.559,145.559,0,0,0,93.121,115.175Z" transform="translate(-1040.783 -815.165)" fill="#fda829"/>
        <path id="Trazado_603400" data-name="Trazado 603400" d="M1367.68,972.557a138.563,138.563,0,0,1-85.778,107.364v7.811a145.561,145.561,0,0,0,93.121-115.175Z" transform="translate(-1087.304 -815.165)" fill="#fda829"/>
      </g>
      <path id="Trazado_603401" data-name="Trazado 603401" d="M1397.682,977.654l-16.244-2.557,10.583-14.352Z" transform="translate(-1103.712 -812.554)" fill="#fda829"/>
      <path id="Trazado_603402" data-name="Trazado 603402" d="M1053.366,909.371l-16.049-3.584,4.576,17.235Z" transform="translate(-1037.317 -801.951)" fill="#fda829"/>
      <path id="Trazado_603403" data-name="Trazado 603403" d="M1293.167,777.127l-7.065,14.849-10.756-14.223Z" transform="translate(-1083.242 -777.127)" fill="#fda829"/>
      <path id="Trazado_603404" data-name="Trazado 603404" d="M1145.194,1112.677l5.822-15.379,11.887,13.292Z" transform="translate(-1058.131 -838.901)" fill="#fda829"/>
    </g>
  </g>
</svg>
