<svg xmlns="http://www.w3.org/2000/svg" width="505" height="516.67" viewBox="0 0 505 516.67">
  <g id="Grupo_875307" data-name="Grupo 875307" transform="translate(-183 -3344)">
    <circle id="Elipse_4840" data-name="Elipse 4840" cx="252.5" cy="252.5" r="252.5" transform="translate(183 3351)" fill="#dee4f0"/>
    <g id="Grupo_875300" data-name="Grupo 875300">
      <g id="Grupo_875299" data-name="Grupo 875299" transform="translate(-398.461 2512.434)">
        <path id="Trazado_603412" data-name="Trazado 603412" d="M1040.85,1032.44c45.379,107.654,4.2,231.546-98.875,287.673-2.024,1.193-8.018,4.113-10.267,5.207-1.875,1.011-4.973,2.337-6.992,3.172l-7.082,2.986c-3.379,1.416-7.4,2.582-10.851,3.9-4.182,1.487-10.488,3.149-14.74,4.419-2.235.541-8.9,2.03-11.259,2.591-40.431,8.136-83.243,5.219-121.918-9.323-49-17.946-90.891-54.247-116.225-99.837-1.115-2.309-4.367-8.161-5.414-10.471-.791-1.76-2.493-5.377-3.289-7.143-1.341-2.641-3.332-8.189-4.5-10.9-1.371-3.415-2.671-7.664-3.924-11.131-.978-2.836-2.427-8.478-3.327-11.329-.472-2.445-2.276-9.048-2.677-11.5-.314-1.894-1.073-5.845-1.393-7.75-1-5.976-1.958-13.486-2.349-19.531-6.351-73.235,27.323-148.285,86.934-191.384a6.188,6.188,0,0,1,7.755,9.63,232.681,232.681,0,0,0-39,43.385c-1.453,2.125-4.583,7.088-5.963,9.116-1.011,1.833-4.355,7.469-5.451,9.417-3.709,6.915-7.025,14.03-10.153,21.221-1.424,3.9-3.116,7.931-4.458,11.841-.816,2.435-2.494,8.015-3.265,10.334a212.948,212.948,0,0,0-8.092,53.375c-.2,4.034-.128,10.328.033,14.433-.03,1.945.322,5.221.442,7.2,7.11,104.883,95.122,190.438,200.486,194.134,131.671,5.815,236.781-112.705,213.439-242.9a196.564,196.564,0,0,0-18.829-55.6c-3.621-7.63,7.512-13.05,11.209-5.229Z" transform="translate(-1.881 -27.885)" fill="#fda829"/>
      </g>
      <g id="Grupo_875298" data-name="Grupo 875298" transform="translate(-402 2659.291)">
        <g id="Grupo_875296" data-name="Grupo 875296">
          <path id="Trazado_612488" data-name="Trazado 612488" d="M800.856,745.146l-2.953,2.6-3.539,3.1-3.938,3.435c-2.366,2.722-4.754,5.445-7.121,8.168L773.5,772.5l-14.095-17.2,10.912-11.729q4.179-4.051,8.336-8.126l10.283-8.378Z" fill="#ffc58b"/>
          <path id="Trazado_612489" data-name="Trazado 612489" d="M760.354,1184.592c6.9,2.86,17.642,3.195,18.463,11.451q-21.264,1.667-42.634,2.079l-1.617-12.545-.647-36.567,28.274-4.189Z" fill="#635734"/>
          <path id="Trazado_612490" data-name="Trazado 612490" d="M687.644,1183.784c5.661,4.87,15.948,8.546,13.969,16.64q-20.724-5.05-41.155-11.327l2.379-12.423,10.793-34.943,28.17,4.842Z" fill="#635734"/>
          <path id="Trazado_612491" data-name="Trazado 612491" d="M660.287,1173.5c8.245,2.274,14.449.5,22.578-.99,5.673-1.043,10.967-.2,16.408,1.535,2.965.944,5.871,2.064,8.886,2.847.339.088.681.132,1.021.2a1331.429,1331.429,0,0,0,50.717-273.8l-60.731-17.906c-22.451,94.477-25.741,191.475-44.42,286.505C656.6,1172.423,658.448,1173,660.287,1173.5Z" fill="#c4581c"/>
          <path id="Trazado_612492" data-name="Trazado 612492" d="M733.258,1042.408c1.008,6.213-.4,12.5-1.677,18.678a469.407,469.407,0,0,0-9.288,116.426c5.836-.985,11.57-2.817,17.53-2.067,4.054.51,7.85,1.938,11.818,2.822,5.326,1.187,10.044.452,15.377-.319a64.121,64.121,0,0,1,18.643-.359c-2.676-50.452,19.213-100.577,15.705-151.164-2.639-38.054-19.574-74.667-21.956-112.733L691.573,889.6c-7.51,12.065-8.541,26.38-5.962,39.816s8.536,26.228,14.453,38.9l28.433,60.9C730.5,1033.506,732.517,1037.845,733.258,1042.408Z" fill="#e26c1e"/>
          <path id="Trazado_612493" data-name="Trazado 612493" d="M721.023,927.469a154.821,154.821,0,0,0,23.107,61.99c7.04,10.913,15.847,22.19,15.01,35.149-.177,2.749-.794,5.558-.067,8.215.556,2.033,1.848,3.771,2.76,5.671,4.017,8.371.236,18.144-2.291,27.079-9.878,34.93.429,73.422-10.806,107.94" fill="none" stroke="#a67435" stroke-miterlimit="10" stroke-width="0.5"/>
          <path id="Trazado_612494" data-name="Trazado 612494" d="M769,738c2.9,10.221,10.263,14.687,16.721,23.122,9.557,12.483,11.674,29.013,12.528,44.711a399.874,399.874,0,0,1-1.592,63.39c-3.126,29.812-9.454,60.939,1.1,89-7.509-4.478-16.179-6.517-24.684-8.542-25.861-6.16-53.444-13.886-70.268-34.47-8.014-9.8-12.861-21.75-17.593-33.5-.679-1.685-1.371-3.483-1.051-5.272.343-1.912,1.765-3.417,3.064-4.862a67.51,67.51,0,0,0,17.108-42.85c.243-8.812-1.225-17.892,1.483-26.28,2.629-8.146,8.865-14.568,12.892-22.122,4.184-7.85,5.954-16.876,10.678-24.414,7.817-12.474,23.875-19.161,38.236-15.924" fill="#148d80"/>
          <path id="Trazado_612495" data-name="Trazado 612495" d="M746.414,877.361c.534,4.9,1.162,10.046,4.157,14.068,1.923,2.582,4.673,4.483,7.394,6.3,22.031,14.719,45.618,27.29,67.1,42.721,2.663,1.913,5.423,3.926,8.7,4.531s7.206-.711,8.285-3.713l-45.873-53.5c-5.484-6.4-11.287-13.718-10.513-21.937" fill="#ffc58b"/>
          <path id="Trazado_612496" data-name="Trazado 612496" d="M738.245,872.054a452.613,452.613,0,0,1-2.783-50.894c.03-17.468,2.06-37.039,15.424-48.288,5.182-4.363,12.227-7.065,18.8-5.44,7.213,1.782,12.393,8.377,14.818,15.4s2.628,14.582,3.338,21.978c2.081,21.664,8.664,42.609,15.209,63.366l-58.368,12.387c-2.761.585-5.929,1.087-8.161-.64s-1.405-6.441,1.4-6.1" fill="#107768"/>
          <path id="Trazado_612497" data-name="Trazado 612497" d="M780.91,757.588q6.8,8.477,13.609,16.951c0-3.962,3.917-7.319,3.331-11.237a10.1,10.1,0,0,0-1.961-4.075,267.939,267.939,0,0,0-22.653-28.567l-6.585,8.228s-1.839-.032.43,2.237S780.91,757.588,780.91,757.588Z" fill="#107768"/>
          <g id="Grupo_875290" data-name="Grupo 875290">
            <path id="Trazado_612498" data-name="Trazado 612498" d="M787.871,715.22c.334,11.225,1.131,23.593,9,31.61a14.989,14.989,0,0,0,9.2,4.778c7.41.6,13.874-8.038,11.2-14.977l-3.131-20.4Z" fill="#ffc58b"/>
            <path id="Trazado_612499" data-name="Trazado 612499" d="M822.374,731.231c0,.633-.422,16.9-.422,16.9l-10.139-3.168-1.057-19.434,13.308-1.267Z" fill="#ffc58b"/>
            <path id="Trazado_612500" data-name="Trazado 612500" d="M823.727,716.788l-17.069,5.047-6.3,1.864c.607-2.366.921-5.026-2.2-4.733-3.853.377-3.916,4.252-3.434,6.409l-.336.084-5.445,1.612s-5.8-15.268,1.006-21.8C796.751,698.713,823.727,716.788,823.727,716.788Z" fill="#a66035"/>
            <path id="Trazado_612501" data-name="Trazado 612501" d="M794.992,726.317l.356.5C795.264,726.841,795.139,726.652,794.992,726.317Z" fill="#ffa879"/>
            <path id="Trazado_612502" data-name="Trazado 612502" d="M806.658,721.835a3.49,3.49,0,0,1-.126.608c-2.094,7.162-5.759,5.068-6.807,4.712-.439-.147.168-1.717.629-3.456.607-2.366.921-5.026-2.2-4.733-3.853.377-3.916,4.252-3.434,6.409a5.135,5.135,0,0,0,.272.942l-.608-.858-3.392-4.755,4.356-6.974S807.852,715.217,806.658,721.835Z" fill="#a66035"/>
            <path id="Trazado_612503" data-name="Trazado 612503" d="M792.688,705.464a73.958,73.958,0,0,0-21.8-2.586c-1.821.057-4.086.532-4.512,2.3s1.381,3.226,2.989,4.084c14.141,7.547,31.437,9.023,43.873,19.136,3.9,3.171,7.282,7.167,11.9,9.163,13.505,8.273,33.14.681,4.112-18.932C822.586,716.444,792.688,705.464,792.688,705.464Z" fill="#a67435"/>
            <path id="Trazado_612504" data-name="Trazado 612504" d="M827.861,716.981c.183-5.631.726-11.243,1.088-16.864.141-2.173.238-4.518-.952-6.34-1.576-2.413-4.757-3.023-7.505-3.891-3.934-1.243-7.539-3.4-11.51-4.523s-8.689-.985-11.67,1.866a16.125,16.125,0,0,0-3.3,5.534l-6.326,14.819s28.785,14.655,35.113,14.988C826.81,722.781,827.644,723.643,827.861,716.981Z" fill="#b9813b"/>
            <path id="Trazado_612505" data-name="Trazado 612505" d="M797.9,747.743l-3.539,3.1c-5.7-11.855-1.613-22.431-2.325-15.478-.775,7.6,6.011,11.247,5.759,12.043C797.8,747.408,797.84,747.534,797.9,747.743Z" fill="#ffa879"/>
            <g id="Grupo_875289" data-name="Grupo 875289">
              <path id="Trazado_612506" data-name="Trazado 612506" d="M803.217,686.5a34.813,34.813,0,0,1,8.292,3.906c.707.455,1.4.937,2.126,1.356,3.5,2.015,7.655,2.48,11.673,2.9" fill="none" stroke="#a67435" stroke-miterlimit="10" stroke-width="0.25"/>
              <path id="Trazado_612507" data-name="Trazado 612507" d="M794.431,693.013a70.077,70.077,0,0,1,9.125-3.9" fill="none" stroke="#a67435" stroke-miterlimit="10" stroke-width="0.25"/>
              <path id="Trazado_612508" data-name="Trazado 612508" d="M794.379,698.8a75.849,75.849,0,0,1,16.571-7.386" fill="none" stroke="#a67435" stroke-miterlimit="10" stroke-width="0.25"/>
              <path id="Trazado_612509" data-name="Trazado 612509" d="M792.708,706.627a158.536,158.536,0,0,1,26.372-13.162" fill="none" stroke="#a67435" stroke-miterlimit="10" stroke-width="0.25"/>
              <path id="Trazado_612510" data-name="Trazado 612510" d="M799.147,709.828l26.879-13.641" fill="none" stroke="#a67435" stroke-miterlimit="10" stroke-width="0.25"/>
              <path id="Trazado_612511" data-name="Trazado 612511" d="M806.739,712.153a92.688,92.688,0,0,1,19.748-9.533" fill="none" stroke="#a67435" stroke-miterlimit="10" stroke-width="0.25"/>
              <path id="Trazado_612512" data-name="Trazado 612512" d="M812.611,715.566a59.268,59.268,0,0,1,12.923-6.337" fill="none" stroke="#a67435" stroke-miterlimit="10" stroke-width="0.25"/>
              <path id="Trazado_612513" data-name="Trazado 612513" d="M790.08,701.995a25.365,25.365,0,0,0,5.094,8.175" fill="none" stroke="#a67435" stroke-miterlimit="10" stroke-width="0.25"/>
              <path id="Trazado_612514" data-name="Trazado 612514" d="M793.4,696.089a115,115,0,0,0,6.918,15.56" fill="none" stroke="#a67435" stroke-miterlimit="10" stroke-width="0.25"/>
              <path id="Trazado_612515" data-name="Trazado 612515" d="M797.625,687.939a107.8,107.8,0,0,0,11.568,28" fill="none" stroke="#a67435" stroke-miterlimit="10" stroke-width="0.25"/>
              <path id="Trazado_612516" data-name="Trazado 612516" d="M805.135,690.168a93.107,93.107,0,0,0,13.929,28.107" fill="none" stroke="#a67435" stroke-miterlimit="10" stroke-width="0.25"/>
              <path id="Trazado_612517" data-name="Trazado 612517" d="M812.151,691.455a5.888,5.888,0,0,1,1.63,2.954,135.615,135.615,0,0,0,11.854,26.514" fill="none" stroke="#a67435" stroke-miterlimit="10" stroke-width="0.25"/>
              <path id="Trazado_612518" data-name="Trazado 612518" d="M819.387,694.952a60.269,60.269,0,0,0,5.256,14.852" fill="none" stroke="#a67435" stroke-miterlimit="10" stroke-width="0.25"/>
              <path id="Trazado_612519" data-name="Trazado 612519" d="M824.531,696.883l2.111,6.428" fill="none" stroke="#a67435" stroke-miterlimit="10" stroke-width="0.25"/>
              <path id="Trazado_612520" data-name="Trazado 612520" d="M769.055,706.307c7.856,4.155,17.018,4.933,25.449,7.745" fill="none" stroke="#b9813b" stroke-miterlimit="10" stroke-width="0.25"/>
              <path id="Trazado_612521" data-name="Trazado 612521" d="M807.345,719.68c5.89,2.522,10.344,7.436,15.3,11.5s11.272,7.474,17.527,6.088" fill="none" stroke="#b9813b" stroke-miterlimit="10" stroke-width="0.25"/>
            </g>
          </g>
          <g id="Grupo_875291" data-name="Grupo 875291">
            <path id="Trazado_612522" data-name="Trazado 612522" d="M842.1,953.61a2352.327,2352.327,0,0,0,207.941,134.829q3.333-8.1,6.664-16.207c-24.038-8.693-48.37-17.536-69.451-31.993-15.7-10.769-29.246-24.424-44.861-35.318-25.874-18.052-57.029-28.256-80.67-49.148-2.722-2.405-5.871-5.125-9.468-4.624s-5.283,6.694-1.742,7.5" fill="#a67435"/>
            <path id="Trazado_612523" data-name="Trazado 612523" d="M1053.608,1066.99a345.861,345.861,0,0,1-44.993,73.092,146.771,146.771,0,0,0,45.237-32.976c5.914-6.368,11.237-14.095,11.147-22.785C1064.354,1068.184,1053.608,1066.99,1053.608,1066.99Z" fill="#8c8268"/>
          </g>
          <path id="Trazado_612524" data-name="Trazado 612524" d="M839.8,942.539l10.218-.791a5.21,5.21,0,0,1,3.184.428,6.2,6.2,0,0,1,1.844,2.455,16.1,16.1,0,0,0,6.575,6.4l-14.65,11.614a1.4,1.4,0,0,1-.892.408c-.45-.026-.748-.456-1.021-.814-2.9-3.806-9.625-3.134-12.079-7.244-2.017-3.377-.084-8.5-2.98-11.161" fill="#ffc58b"/>
          <path id="Trazado_612525" data-name="Trazado 612525" d="M767.376,741.23c1.313,4.3.718,8.923.111,13.379q-1.348,9.915-2.7,19.831" fill="#107768"/>
          <g id="Grupo_875292" data-name="Grupo 875292">
            <path id="Trazado_612526" data-name="Trazado 612526" d="M744.553,872.981q24.26-3.933,48.272-9.227" fill="none" stroke="#8a9661" stroke-miterlimit="10" stroke-width="0.25"/>
            <path id="Trazado_612527" data-name="Trazado 612527" d="M787.234,944.49c-6.581-3.213-13.874-4.615-20.815-6.951-14.392-4.845-27.075-13.626-39.542-22.3" fill="none" stroke="#778254" stroke-miterlimit="10" stroke-width="0.25"/>
          </g>
          <g id="Grupo_875293" data-name="Grupo 875293">
            <path id="Trazado_612528" data-name="Trazado 612528" d="M686.479,1115.049a143.755,143.755,0,0,0-11.221,30.723" fill="none" stroke="#94672f" stroke-miterlimit="10" stroke-width="0.5"/>
            <path id="Trazado_612529" data-name="Trazado 612529" d="M693.737,1120.382A124.674,124.674,0,0,0,684.6,1144.7" fill="none" stroke="#94672f" stroke-miterlimit="10" stroke-width="0.5"/>
            <path id="Trazado_612530" data-name="Trazado 612530" d="M668.235,1126.659a207.408,207.408,0,0,0,22.6,14.438c3.763,2.074,7.714,4.135,10.327,7.545" fill="none" stroke="#94672f" stroke-miterlimit="10" stroke-width="0.5"/>
            <path id="Trazado_612531" data-name="Trazado 612531" d="M674.183,1119.769a241.207,241.207,0,0,1,22.853,15.028c1.146.851,2.4,1.931,2.376,3.358" fill="none" stroke="#94672f" stroke-miterlimit="10" stroke-width="0.5"/>
          </g>
          <g id="Grupo_875294" data-name="Grupo 875294">
            <path id="Trazado_612532" data-name="Trazado 612532" d="M658.052,1167.314q-.9,3.609-1.8,7.217" fill="none" stroke="#a67435" stroke-miterlimit="10" stroke-width="0.25"/>
            <path id="Trazado_612533" data-name="Trazado 612533" d="M659.621,1168.834a29.335,29.335,0,0,0-2.254,9.484" fill="none" stroke="#a67435" stroke-miterlimit="10" stroke-width="0.25"/>
            <path id="Trazado_612534" data-name="Trazado 612534" d="M663.077,1169.611l-2.046,9.434" fill="none" stroke="#a67435" stroke-miterlimit="10" stroke-width="0.25"/>
            <path id="Trazado_612535" data-name="Trazado 612535" d="M664.681,1171.54a26.778,26.778,0,0,0-1.776,8.668" fill="none" stroke="#a67435" stroke-miterlimit="10" stroke-width="0.25"/>
            <path id="Trazado_612536" data-name="Trazado 612536" d="M668.054,1168.475a46.6,46.6,0,0,1-1.346,11.322" fill="none" stroke="#a67435" stroke-miterlimit="10" stroke-width="0.25"/>
            <path id="Trazado_612537" data-name="Trazado 612537" d="M672.663,1168.117a89.407,89.407,0,0,1-2.511,10.925" fill="none" stroke="#a67435" stroke-miterlimit="10" stroke-width="0.25"/>
            <path id="Trazado_612538" data-name="Trazado 612538" d="M676.417,1166.588a86.488,86.488,0,0,1-1.364,10.948" fill="none" stroke="#a67435" stroke-miterlimit="10" stroke-width="0.25"/>
            <path id="Trazado_612539" data-name="Trazado 612539" d="M680.2,1166.595l-1.74,11.325" fill="none" stroke="#a67435" stroke-miterlimit="10" stroke-width="0.25"/>
            <path id="Trazado_612540" data-name="Trazado 612540" d="M686.023,1166.275q-1.453,5.02-2.908,10.043a3.946,3.946,0,0,0-.093,2.844" fill="none" stroke="#a67435" stroke-miterlimit="10" stroke-width="0.25"/>
            <path id="Trazado_612541" data-name="Trazado 612541" d="M690.883,1168.135q-.934,4.353-1.868,8.706c-.179.833-.2,1.972.614,2.238" fill="none" stroke="#a67435" stroke-miterlimit="10" stroke-width="0.25"/>
            <path id="Trazado_612542" data-name="Trazado 612542" d="M695.039,1167.648q-1.895,6.011-3.235,12.176" fill="none" stroke="#a67435" stroke-miterlimit="10" stroke-width="0.25"/>
            <path id="Trazado_612543" data-name="Trazado 612543" d="M698.027,1168.1a43.151,43.151,0,0,1-2.32,11.622" fill="none" stroke="#a67435" stroke-miterlimit="10" stroke-width="0.25"/>
            <path id="Trazado_612544" data-name="Trazado 612544" d="M702.2,1168.513a73.678,73.678,0,0,0-2.5,10.927" fill="none" stroke="#a67435" stroke-miterlimit="10" stroke-width="0.25"/>
            <path id="Trazado_612545" data-name="Trazado 612545" d="M705.511,1170.752l-1.6,8.692" fill="none" stroke="#a67435" stroke-miterlimit="10" stroke-width="0.25"/>
            <path id="Trazado_612546" data-name="Trazado 612546" d="M708.482,1170.749a52.542,52.542,0,0,1-.34,10.223" fill="none" stroke="#a67435" stroke-miterlimit="10" stroke-width="0.25"/>
          </g>
          <g id="Grupo_875295" data-name="Grupo 875295">
            <path id="Trazado_612547" data-name="Trazado 612547" d="M724.31,1172.258q.07,5.115-.365,10.22" fill="none" stroke="#b9813b" stroke-miterlimit="10" stroke-width="0.25"/>
            <path id="Trazado_612548" data-name="Trazado 612548" d="M727.1,1171.885a57.868,57.868,0,0,0,.294,10.228" fill="none" stroke="#b9813b" stroke-miterlimit="10" stroke-width="0.25"/>
            <path id="Trazado_612549" data-name="Trazado 612549" d="M730.476,1174.912q-.189,1.326-.379,2.651" fill="none" stroke="#b9813b" stroke-miterlimit="10" stroke-width="0.25"/>
            <path id="Trazado_612550" data-name="Trazado 612550" d="M734.877,1170.734q.322,5.869.111,11.75" fill="none" stroke="#b9813b" stroke-miterlimit="10" stroke-width="0.25"/>
            <path id="Trazado_612551" data-name="Trazado 612551" d="M738.269,1170.75q-.069,5.868-.138,11.736" fill="none" stroke="#b9813b" stroke-miterlimit="10" stroke-width="0.25"/>
            <path id="Trazado_612552" data-name="Trazado 612552" d="M744.606,1173.41l-.9,9.073" fill="none" stroke="#b9813b" stroke-miterlimit="10" stroke-width="0.25"/>
            <path id="Trazado_612553" data-name="Trazado 612553" d="M747.673,1175.661l.384,6.837" fill="none" stroke="#b9813b" stroke-miterlimit="10" stroke-width="0.25"/>
            <path id="Trazado_612554" data-name="Trazado 612554" d="M751.761,1173.405q-.359,3.963-.331,7.946" fill="none" stroke="#b9813b" stroke-miterlimit="10" stroke-width="0.25"/>
            <path id="Trazado_612555" data-name="Trazado 612555" d="M754.568,1172.271q.074,4.087.145,8.174c.019,1.083.155,2.371,1.108,2.886" fill="none" stroke="#b9813b" stroke-miterlimit="10" stroke-width="0.25"/>
            <path id="Trazado_612556" data-name="Trazado 612556" d="M759.29,1171.507a60.633,60.633,0,0,0,.18,9.48" fill="none" stroke="#b9813b" stroke-miterlimit="10" stroke-width="0.25"/>
            <path id="Trazado_612557" data-name="Trazado 612557" d="M763.04,1174.155v8.331" fill="none" stroke="#b9813b" stroke-miterlimit="10" stroke-width="0.25"/>
            <path id="Trazado_612558" data-name="Trazado 612558" d="M767.712,1172.287a30.937,30.937,0,0,0-.107,11.4" fill="none" stroke="#b9813b" stroke-miterlimit="10" stroke-width="0.25"/>
            <path id="Trazado_612559" data-name="Trazado 612559" d="M772.127,1175.291a22.638,22.638,0,0,0-.379,6.059" fill="none" stroke="#b9813b" stroke-miterlimit="10" stroke-width="0.25"/>
            <path id="Trazado_612560" data-name="Trazado 612560" d="M775.921,1175.671a39.2,39.2,0,0,0-.773,9.087" fill="none" stroke="#b9813b" stroke-miterlimit="10" stroke-width="0.25"/>
            <path id="Trazado_612561" data-name="Trazado 612561" d="M779.4,1174.924a23.693,23.693,0,0,0,.5,9.12" fill="none" stroke="#b9813b" stroke-miterlimit="10" stroke-width="0.25"/>
            <path id="Trazado_612562" data-name="Trazado 612562" d="M783.765,1172.656a88.781,88.781,0,0,1,.922,9.448" fill="none" stroke="#b9813b" stroke-miterlimit="10" stroke-width="0.25"/>
          </g>
        </g>
        <g id="Grupo_875297" data-name="Grupo 875297">
          <path id="Trazado_612563" data-name="Trazado 612563" d="M933.383,1200.217c-1.594,1.184-4,.227-5.166-1.382s-1.486-3.652-2.055-5.554a21,21,0,0,0-13.969-13.873c-5.041-1.473-11.551-1.68-13.716-6.464-2.717-6.005,4.569-13.188,1.773-19.156-2.742-5.851-11.782-4.366-16.924-8.279-5.219-3.97-4.709-11.892-3.2-18.273s3.348-13.682-.448-19.029c-1.691-2.383-4.267-3.953-6.446-5.9a23.487,23.487,0,0,1-6.946-11.182c-1.325-4.792-.913-10.385,2.39-14.1,4.366-4.911,11.889-4.958,18.451-4.612,2.709.142,5.552.328,7.846,1.776,8.5,5.365,1.714,20.968,9.362,27.493,3.354,2.861,8.208,2.751,12.576,3.345,7.234.984,15.038,5.654,15.51,12.939.636,9.8-12.029,16.585-11.6,26.4.3,6.712,6.5,11.339,11.521,15.8s9.588,11.79,6,17.472c-1.165,1.846-3.019,3.133-4.477,4.758a14.133,14.133,0,0,0-.79,17.329" fill="#81ad20"/>
          <path id="Trazado_612564" data-name="Trazado 612564" d="M930.888,1201.061c-6.843,0-16.168-6.592-25.069-5.42s-19.611,1.611-25.009-5.562c-1.279-1.7-2.152-3.736-3.76-5.127-2.758-2.382-6.82-2.222-10.453-1.939-5.505.428-11.13.828-16.475-.556s-10.455-4.892-12.288-10.1-.258-11.485-3.318-16.087c-5.379-8.093-18.083-3.374-27.42-6.068-7.3-2.1-12.465-9.381-13.126-16.948s2.716-15.141,8-20.595c1.215-1.254,2.679-2.477,4.424-2.562,2.055-.1,3.793,1.378,5.582,2.392,13.448,7.623,32.008-10.144,44.755-1.4,12.92,8.861,3.054,33.739,16.212,42.241,7.31,4.724,17.072.949,25.616,2.6a20.423,20.423,0,0,1,14.316,11.081c2.847,5.975,2.6,12.966,4.753,19.223s8.758,12.149,14.855,9.574C932.486,1195.812,937.731,1201.061,930.888,1201.061Z" fill="#81ad20"/>
          <path id="Trazado_612565" data-name="Trazado 612565" d="M952.456,1185.853c5.312.689,11.79,1.622,15.128-2.566,1.723-2.161,1.952-5.106,2.263-7.852,1.225-10.822,6.188-22.76,16.585-26,2.7-.842,5.647-1.044,8.079-2.487a12.516,12.516,0,0,0,5.177-7.332c4.893-16.255-10.876-35.241-1.938-49.673,1.139-1.841,2.678-3.57,2.95-5.718a7.824,7.824,0,0,0-1.114-4.618,15.057,15.057,0,0,0-27.5,2.37c-1.62,4.8-1.2,10.991-5.435,13.779-3.962,2.61-9.418.327-13.933,1.785-7.68,2.481-8.032,13.411-5.1,20.933s7.667,15.48,4.97,23.088c-2.979,8.4-14.116,12.685-15.058,21.55-.373,3.516,1.027,6.939,1.91,10.362,2.377,9.224-16.812,17.689-9.661,23.984,1.206,1.062,3.4,5.077,9.965-3.317S947.656,1185.23,952.456,1185.853Z" fill="#81ad20"/>
          <path id="Trazado_612566" data-name="Trazado 612566" d="M930.4,1200.987c13.2,3.144,23.873-13.63,37.438-14.034,2.744-.082,5.694.086,7.882,1.744,2.046,1.551,3.059,4.14,4.986,5.837,4.48,3.943,11.713,1.464,16.117-2.565s7.671-9.448,12.939-12.254a16.53,16.53,0,0,1,17.269,1.317c2.608,1.95,4.585,4.654,7.238,6.542,9.8,6.979,25.179-1.775,26.732-13.709.567-4.359-.045-9.361,2.945-12.583,4.153-4.476,11.833-2.065,17.338-4.706,6.489-3.114,7.469-12.976,2.879-18.52s-12.788-6.988-19.784-5.3c-4.143,1-8.485,2.937-12.477,1.445-3.4-1.272-5.435-4.654-7.8-7.415a28.007,28.007,0,0,0-46.314,5.64c-3.089,6.154-4.414,14.036-10.465,17.323-4.182,2.271-9.277,1.493-14.01,1.99a25.832,25.832,0,0,0-20.718,15.453c-1.894,4.557-.65,10.706-4.135,14.2C944.482,1185.381,925.433,1199.8,930.4,1200.987Z" fill="#81ad20"/>
          <path id="Trazado_612567" data-name="Trazado 612567" d="M925.179,1197.615a23.992,23.992,0,0,1-10.55-5.57c-4.5-4.1-7.362-9.838-12.2-13.535-6.237-4.767-14.6-5.333-22.413-6.056s-16.283-2.122-21.6-7.9c-6.3-6.846-6.319-17.918-12.868-24.528-3.635-3.668-8.767-5.4-13.791-6.591s-10.217-2-14.839-4.3-8.7-6.5-9.19-11.638" fill="none" stroke="#788a2d" stroke-miterlimit="10" stroke-width="0.25"/>
          <path id="Trazado_612568" data-name="Trazado 612568" d="M928.481,1189.564c-1.558-4.669.048-9.907-1.3-14.641-2.318-8.159-12.4-12.085-15.057-20.139-2.287-6.924,1.55-15.187-2.079-21.512-2.885-5.027-9.412-6.784-13.032-11.31-6.463-8.08-1.138-20.847-6.1-29.927-2.62-4.8-7.872-8.011-9.508-13.226" fill="none" stroke="#788a2d" stroke-miterlimit="10" stroke-width="0.25"/>
          <path id="Trazado_612569" data-name="Trazado 612569" d="M932.029,1194.871a27.484,27.484,0,0,0,14.5-19.1c.655-3.406.662-6.967,1.889-10.212,2.275-6.019,8.168-9.712,13.251-13.659s10.055-9.591,9.143-15.962c-.5-3.477-2.735-6.617-2.721-10.129.025-6.123,6.487-10,9.367-15.4,2.469-4.63,2.172-10.163,2.66-15.387s2.34-11.021,7.1-13.231" fill="none" stroke="#788a2d" stroke-miterlimit="10" stroke-width="0.25"/>
          <path id="Trazado_612570" data-name="Trazado 612570" d="M932.41,1198.068c7.252-.466,13.27-5.611,18.335-10.821s10.1-10.969,16.975-13.319a10.543,10.543,0,0,1,7.551-.145c1.459.639,2.658,1.754,4.063,2.506,5.524,2.961,12.426-.435,16.766-4.957s7.531-10.263,12.766-13.71a29.984,29.984,0,0,1,11.169-4.011,12.164,12.164,0,0,1,5.172-.136c2.208.561,3.963,2.2,6,3.22,5.073,2.546,11.268,1,16.319-1.592s9.63-6.181,15.026-7.943a24.236,24.236,0,0,1,13.194-.5" fill="none" stroke="#819430" stroke-miterlimit="10" stroke-width="0.25"/>
        </g>
      </g>
    </g>
  </g>
</svg>
