<svg xmlns="http://www.w3.org/2000/svg" width="420" height="317.372" viewBox="0 0 420 317.372">
  <g id="Grupo_874998" data-name="Grupo 874998" transform="translate(-498.209 -643.282)">
    <g id="Grupo_874969" data-name="Grupo 874969" transform="translate(643.784 643.282)">
      <path id="Trazado_605615" data-name="Trazado 605615" d="M798.228,743.628l-45.412,68.638H717.857L670.74,741.053,733.631,646Z" transform="translate(-669.206 -643.682)" fill="#d9cc9a"/>
      <g id="Grupo_874968" data-name="Grupo 874968">
        <path id="Trazado_605616" data-name="Trazado 605616" d="M753.238,813.145H716.905l-47.964-72.492,64.425-97.371L799.5,743.228Zm-34.959-2.558h33.584l44.565-67.359-63.063-95.311-61.358,92.736Z" transform="translate(-668.941 -643.282)" fill="#fff"/>
      </g>
    </g>
    <g id="Grupo_874971" data-name="Grupo 874971" transform="translate(534.993 876.241)">
      <path id="Trazado_605617" data-name="Trazado 605617" d="M696.878,999.854H610.385l-67.035-54.57L561.4,918H670.054Z" transform="translate(-541.645 -916.721)" fill="#fff9ae"/>
      <g id="Grupo_874970" data-name="Grupo 874970" transform="translate(0)">
        <path id="Trazado_605618" data-name="Trazado 605618" d="M698.348,1000.912H609.636L541.35,945.325,560.419,916.5H670.686Zm-87.8-2.558h84.273l-25.986-79.3H561.793L544.761,944.8Z" transform="translate(-541.35 -916.5)" fill="#fff"/>
      </g>
    </g>
    <g id="Grupo_874973" data-name="Grupo 874973" transform="translate(498.209 902.922)">
      <path id="Trazado_605619" data-name="Trazado 605619" d="M604.145,1004.57H501L537.11,950Z" transform="translate(-498.62 -948.117)" fill="#a5c3d2"/>
      <g id="Grupo_874972" data-name="Grupo 874972">
        <path id="Trazado_605620" data-name="Trazado 605620" d="M607.33,1005.523H498.209l38.2-57.731Zm-104.362-2.558h97.168l-63.151-51.408Z" transform="translate(-498.209 -947.792)" fill="#fff"/>
      </g>
    </g>
    <g id="Grupo_874975" data-name="Grupo 874975" transform="translate(661.637 876.241)">
      <path id="Trazado_605621" data-name="Trazado 605621" d="M793.211,918l-26.833,81.854h-47.6L691.95,918Z" transform="translate(-690.185 -916.721)" fill="#63908f"/>
      <g id="Grupo_874974" data-name="Grupo 874974" transform="translate(0)">
        <path id="Trazado_605622" data-name="Trazado 605622" d="M767,1000.912H717.542L689.88,916.5H794.671Zm-47.6-2.558h45.75l25.995-79.3H693.41Z" transform="translate(-689.88 -916.5)" fill="#fff"/>
      </g>
    </g>
    <g id="Grupo_874977" data-name="Grupo 874977" transform="translate(736.065 876.241)">
      <path id="Trazado_605623" data-name="Trazado 605623" d="M957.239,999.854h-178L806.073,918h97.006Z" transform="translate(-777.475 -916.721)" fill="#43525a"/>
      <g id="Grupo_874976" data-name="Grupo 874976" transform="translate(0)">
        <path id="Trazado_605624" data-name="Trazado 605624" d="M959.314,1000.912H777.17L804.841,916.5h98.62l.379.573ZM780.7,998.354H954.554l-52.467-79.3H806.695Z" transform="translate(-777.17 -916.5)" fill="#fff"/>
      </g>
    </g>
    <g id="Grupo_874979" data-name="Grupo 874979" transform="translate(595.811 738.335)">
      <path id="Trazado_605625" data-name="Trazado 605625" d="M709.713,828.693H615.47L662.6,757.48Z" transform="translate(-613.089 -755.163)" fill="#fffcd5"/>
      <g id="Grupo_874978" data-name="Grupo 874978" transform="translate(0)">
        <path id="Trazado_605626" data-name="Trazado 605626" d="M711.682,829.572h-99l49.507-74.81Zm-94.243-2.558h89.484L662.185,759.4Z" transform="translate(-612.678 -754.762)" fill="#fff"/>
      </g>
    </g>
    <g id="Grupo_874981" data-name="Grupo 874981" transform="translate(725.014 740.91)">
      <path id="Trazado_605627" data-name="Trazado 605627" d="M857.833,829.138H767L812.412,760.5Z" transform="translate(-764.62 -758.182)" fill="#a9a791"/>
      <g id="Grupo_874980" data-name="Grupo 874980">
        <path id="Trazado_605628" data-name="Trazado 605628" d="M859.8,830.017H764.209L812,757.782Zm-90.833-2.558h86.073L812,762.417Z" transform="translate(-764.209 -757.782)" fill="#fff"/>
      </g>
    </g>
    <g id="Grupo_874983" data-name="Grupo 874983" transform="translate(739.083 810.587)">
      <path id="Trazado_605629" data-name="Trazado 605629" d="M903.6,906.654H782.78L804.3,841h55.857Z" transform="translate(-781.015 -839.721)" fill="#a78b6b"/>
      <g id="Grupo_874982" data-name="Grupo 874982" transform="translate(0)">
        <path id="Trazado_605630" data-name="Trazado 605630" d="M905.675,907.712H780.71L803.069,839.5H860.54Zm-121.434-2.558H900.916l-41.749-63.1H804.922Z" transform="translate(-780.71 -839.5)" fill="#fff"/>
      </g>
    </g>
    <g id="Grupo_874985" data-name="Grupo 874985" transform="translate(663.931 810.587)">
      <path id="Trazado_605631" data-name="Trazado 605631" d="M791.313,841l-21.521,65.654h-53.64L694.64,841Z" transform="translate(-692.875 -839.721)" fill="#d2ac67"/>
      <g id="Grupo_874984" data-name="Grupo 874984" transform="translate(0)">
        <path id="Trazado_605632" data-name="Trazado 605632" d="M770.414,907.712H714.92L692.57,839.5h100.2Zm-53.64-2.558h51.787l20.682-63.1H696.1Z" transform="translate(-692.57 -839.5)" fill="#fff"/>
      </g>
    </g>
    <g id="Grupo_874987" data-name="Grupo 874987" transform="translate(552.369 810.587)">
      <path id="Trazado_605633" data-name="Trazado 605633" d="M696.979,906.654H564.52L607.962,841h67.5Z" transform="translate(-562.14 -839.721)" fill="#ebe09f"/>
      <g id="Grupo_874986" data-name="Grupo 874986" transform="translate(0)">
        <path id="Trazado_605634" data-name="Trazado 605634" d="M698.333,907.712h-136.6L606.864,839.5h69.118Zm-131.844-2.558H694.8l-20.674-63.1h-65.89Z" transform="translate(-561.729 -839.5)" fill="#fff"/>
      </g>
    </g>
    <g id="Grupo_874988" data-name="Grupo 874988" transform="translate(685.748 744.138)">
      <path id="Trazado_605635" data-name="Trazado 605635" d="M722.529,767.4h-2.358l-.49,1.569h-1.524l2.453-7.274H722.1l2.443,7.274h-1.524Zm-2-1.143h1.644l-.8-2.563h-.03Z" transform="translate(-718.157 -761.585)" fill="#12263f"/>
      <path id="Trazado_605636" data-name="Trazado 605636" d="M727.931,766.056v2.908h-1.459V761.69h2.518a3.018,3.018,0,0,1,1.946.567,1.918,1.918,0,0,1,.7,1.581,1.6,1.6,0,0,1-.3.967,2.078,2.078,0,0,1-.867.657,1.563,1.563,0,0,1,.927.634,2.009,2.009,0,0,1,.282,1.1v.535a2.62,2.62,0,0,0,.083.637.868.868,0,0,0,.282.492v.1h-1.5a.808.808,0,0,1-.258-.53,4.622,4.622,0,0,1-.057-.714v-.514a1.153,1.153,0,0,0-.3-.847,1.124,1.124,0,0,0-.841-.3Zm0-1.124h1.034a1.368,1.368,0,0,0,.914-.26.963.963,0,0,0,.3-.769,1.059,1.059,0,0,0-.3-.795,1.223,1.223,0,0,0-.887-.295h-1.059Z" transform="translate(-719.382 -761.585)" fill="#12263f"/>
      <path id="Trazado_605637" data-name="Trazado 605637" d="M739.544,766.538l.009.03a2.275,2.275,0,0,1-.709,1.824,2.893,2.893,0,0,1-2.013.659,2.791,2.791,0,0,1-2.114-.842,3.023,3.023,0,0,1-.8-2.176V764.59a3.077,3.077,0,0,1,.784-2.176,2.674,2.674,0,0,1,2.058-.847,3.07,3.07,0,0,1,2.079.65,2.232,2.232,0,0,1,.729,1.828l-.01.03h-1.419a1.43,1.43,0,0,0-.337-1.041,1.406,1.406,0,0,0-1.042-.343,1.175,1.175,0,0,0-1.021.527,2.335,2.335,0,0,0-.368,1.362v1.454a2.268,2.268,0,0,0,.387,1.369,1.259,1.259,0,0,0,1.077.529,1.277,1.277,0,0,0,.976-.343,1.487,1.487,0,0,0,.322-1.051Z" transform="translate(-720.479 -761.567)" fill="#12263f"/>
      <path id="Trazado_605638" data-name="Trazado 605638" d="M743.329,768.964H741.87V761.69h1.459Z" transform="translate(-721.651 -761.585)" fill="#12263f"/>
      <path id="Trazado_605639" data-name="Trazado 605639" d="M746.733,767.845h3.258v1.119h-4.717V761.69h1.459Z" transform="translate(-722.153 -761.585)" fill="#12263f"/>
      <path id="Trazado_605640" data-name="Trazado 605640" d="M753.4,767.845h3.258v1.119h-4.717V761.69H753.4Z" transform="translate(-723.135 -761.585)" fill="#12263f"/>
      <path id="Trazado_605641" data-name="Trazado 605641" d="M764.317,765.963a3.056,3.056,0,0,1-.844,2.216,3.193,3.193,0,0,1-4.387,0,3.068,3.068,0,0,1-.839-2.213v-1.309a3.073,3.073,0,0,1,.837-2.211,2.877,2.877,0,0,1,2.18-.877,2.932,2.932,0,0,1,2.2.877,3.05,3.05,0,0,1,.849,2.211Zm-1.454-1.319a2.2,2.2,0,0,0-.425-1.393,1.406,1.406,0,0,0-1.174-.545,1.361,1.361,0,0,0-1.151.545,2.239,2.239,0,0,0-.413,1.393v1.319a2.26,2.26,0,0,0,.414,1.409,1.375,1.375,0,0,0,1.16.545,1.392,1.392,0,0,0,1.169-.545,2.241,2.241,0,0,0,.419-1.409Z" transform="translate(-724.064 -761.567)" fill="#12263f"/>
      <path id="Trazado_605642" data-name="Trazado 605642" d="M770.47,767.048a.849.849,0,0,0-.292-.674,2.925,2.925,0,0,0-1.027-.48A5.828,5.828,0,0,1,767.24,765a1.691,1.691,0,0,1-.652-1.4,1.764,1.764,0,0,1,.735-1.461,3.394,3.394,0,0,1,3.819.043,1.906,1.906,0,0,1,.712,1.6l-.01.03H770.43a1.06,1.06,0,0,0-.33-.837,1.347,1.347,0,0,0-.924-.292,1.22,1.22,0,0,0-.834.259.845.845,0,0,0-.3.665.726.726,0,0,0,.32.607,4.3,4.3,0,0,0,1.1.5,4.768,4.768,0,0,1,1.829.887,1.818,1.818,0,0,1,.629,1.442,1.733,1.733,0,0,1-.73,1.473,3.164,3.164,0,0,1-1.928.54,3.449,3.449,0,0,1-2.016-.584,1.929,1.929,0,0,1-.817-1.744l.01-.03h1.414a1.144,1.144,0,0,0,.38.949,1.6,1.6,0,0,0,1.029.3,1.4,1.4,0,0,0,.892-.245A.794.794,0,0,0,770.47,767.048Z" transform="translate(-725.271 -761.567)" fill="#12263f"/>
      <path id="Trazado_605643" data-name="Trazado 605643" d="M777.83,767.4h-2.358l-.489,1.569h-1.524l2.453-7.274H777.4l2.443,7.274h-1.524Zm-2-1.143h1.644l-.8-2.563h-.031Z" transform="translate(-726.306 -761.585)" fill="#12263f"/>
    </g>
    <g id="Grupo_874989" data-name="Grupo 874989" transform="translate(685.748 828.55)">
      <path id="Trazado_605644" data-name="Trazado 605644" d="M731.4,864.941h-2.793v3.023h-1.459V860.69h4.761v1.124h-3.3v2H731.4Z" transform="translate(-719.482 -860.585)" fill="#12263f"/>
      <path id="Trazado_605645" data-name="Trazado 605645" d="M735.281,865.056v2.908h-1.459V860.69h2.518a3.019,3.019,0,0,1,1.947.567,1.921,1.921,0,0,1,.7,1.581,1.591,1.591,0,0,1-.3.967,2.069,2.069,0,0,1-.866.657,1.564,1.564,0,0,1,.927.634,2.017,2.017,0,0,1,.282,1.1v.534a2.664,2.664,0,0,0,.082.637.88.88,0,0,0,.282.492v.1h-1.5a.8.8,0,0,1-.257-.53,4.636,4.636,0,0,1-.057-.714v-.514a1.156,1.156,0,0,0-.3-.847,1.127,1.127,0,0,0-.842-.3Zm0-1.124h1.034a1.366,1.366,0,0,0,.914-.26.961.961,0,0,0,.3-.769,1.056,1.056,0,0,0-.3-.795,1.222,1.222,0,0,0-.887-.295h-1.059Z" transform="translate(-720.465 -860.585)" fill="#12263f"/>
      <path id="Trazado_605646" data-name="Trazado 605646" d="M745.161,866.4H742.8l-.49,1.569h-1.524l2.453-7.274h1.494l2.443,7.274h-1.524Zm-2-1.143h1.644l-.8-2.563h-.031Z" transform="translate(-721.492 -860.585)" fill="#12263f"/>
      <path id="Trazado_605647" data-name="Trazado 605647" d="M754.984,867.964h-1.459l-2.932-4.906-.031.005v4.9H749.1V860.69h1.458l2.933,4.9.03-.005v-4.9h1.459Z" transform="translate(-722.717 -860.585)" fill="#12263f"/>
      <path id="Trazado_605648" data-name="Trazado 605648" d="M763,865.538l.009.03a2.275,2.275,0,0,1-.709,1.824,2.894,2.894,0,0,1-2.013.659,2.788,2.788,0,0,1-2.113-.842,3.02,3.02,0,0,1-.8-2.176V863.59a3.077,3.077,0,0,1,.784-2.176,2.674,2.674,0,0,1,2.058-.847,3.071,3.071,0,0,1,2.079.65,2.233,2.233,0,0,1,.729,1.828l-.01.03h-1.419a1.426,1.426,0,0,0-.337-1.041,1.406,1.406,0,0,0-1.042-.343,1.175,1.175,0,0,0-1.021.527,2.335,2.335,0,0,0-.367,1.362v1.454a2.268,2.268,0,0,0,.387,1.369,1.26,1.26,0,0,0,1.077.529,1.28,1.28,0,0,0,.977-.343,1.487,1.487,0,0,0,.322-1.051Z" transform="translate(-723.934 -860.567)" fill="#12263f"/>
      <path id="Trazado_605649" data-name="Trazado 605649" d="M771.058,864.963a3.056,3.056,0,0,1-.844,2.216,3.192,3.192,0,0,1-4.386,0,3.065,3.065,0,0,1-.84-2.213v-1.309a3.073,3.073,0,0,1,.837-2.211,2.879,2.879,0,0,1,2.18-.876,2.932,2.932,0,0,1,2.2.876,3.05,3.05,0,0,1,.849,2.211Zm-1.454-1.319a2.2,2.2,0,0,0-.425-1.393,1.405,1.405,0,0,0-1.174-.545,1.36,1.36,0,0,0-1.151.545,2.239,2.239,0,0,0-.413,1.393v1.319a2.255,2.255,0,0,0,.415,1.409,1.373,1.373,0,0,0,1.159.545,1.392,1.392,0,0,0,1.169-.545,2.24,2.24,0,0,0,.419-1.409Z" transform="translate(-725.058 -860.567)" fill="#12263f"/>
      <path id="Trazado_605650" data-name="Trazado 605650" d="M722.529,880.8h-2.358l-.49,1.569h-1.524l2.453-7.274H722.1l2.443,7.274h-1.524Zm-2-1.144h1.644l-.8-2.562h-.03Z" transform="translate(-718.157 -862.707)" fill="#12263f"/>
      <path id="Trazado_605651" data-name="Trazado 605651" d="M727.931,879.456v2.907h-1.459V875.09h2.518a3.019,3.019,0,0,1,1.946.567,1.917,1.917,0,0,1,.7,1.581,1.6,1.6,0,0,1-.3.967,2.078,2.078,0,0,1-.867.657,1.562,1.562,0,0,1,.927.634,2.007,2.007,0,0,1,.282,1.1v.535a2.618,2.618,0,0,0,.083.637.868.868,0,0,0,.282.492v.1h-1.5a.808.808,0,0,1-.258-.529,4.622,4.622,0,0,1-.057-.715v-.514a1.157,1.157,0,0,0-.3-.848,1.127,1.127,0,0,0-.841-.3Zm0-1.124h1.034a1.37,1.37,0,0,0,.914-.26.964.964,0,0,0,.3-.769,1.059,1.059,0,0,0-.3-.795,1.219,1.219,0,0,0-.887-.3h-1.059Z" transform="translate(-719.382 -862.707)" fill="#12263f"/>
      <path id="Trazado_605652" data-name="Trazado 605652" d="M739.544,879.938l.009.03a2.275,2.275,0,0,1-.709,1.824,2.893,2.893,0,0,1-2.013.659,2.791,2.791,0,0,1-2.114-.842,3.023,3.023,0,0,1-.8-2.176V877.99a3.077,3.077,0,0,1,.784-2.176,2.674,2.674,0,0,1,2.058-.847,3.071,3.071,0,0,1,2.079.65,2.233,2.233,0,0,1,.729,1.828l-.01.03h-1.419a1.43,1.43,0,0,0-.337-1.041,1.406,1.406,0,0,0-1.042-.343,1.175,1.175,0,0,0-1.021.527,2.333,2.333,0,0,0-.368,1.362v1.454a2.269,2.269,0,0,0,.387,1.369,1.259,1.259,0,0,0,1.077.53,1.277,1.277,0,0,0,.976-.343,1.487,1.487,0,0,0,.322-1.051Z" transform="translate(-720.479 -862.689)" fill="#12263f"/>
      <path id="Trazado_605653" data-name="Trazado 605653" d="M743.329,882.364H741.87V875.09h1.459Z" transform="translate(-721.651 -862.707)" fill="#12263f"/>
      <path id="Trazado_605654" data-name="Trazado 605654" d="M746.733,881.245h3.258v1.119h-4.717V875.09h1.459Z" transform="translate(-722.153 -862.707)" fill="#12263f"/>
      <path id="Trazado_605655" data-name="Trazado 605655" d="M753.4,881.245h3.258v1.119h-4.717V875.09H753.4Z" transform="translate(-723.135 -862.707)" fill="#12263f"/>
      <path id="Trazado_605656" data-name="Trazado 605656" d="M764.317,879.363a3.056,3.056,0,0,1-.844,2.216,3.193,3.193,0,0,1-4.387,0,3.068,3.068,0,0,1-.839-2.214v-1.309a3.073,3.073,0,0,1,.837-2.211,2.878,2.878,0,0,1,2.18-.877,2.932,2.932,0,0,1,2.2.877,3.05,3.05,0,0,1,.849,2.211Zm-1.454-1.319a2.2,2.2,0,0,0-.425-1.394,1.407,1.407,0,0,0-1.174-.544,1.362,1.362,0,0,0-1.151.544,2.243,2.243,0,0,0-.413,1.394v1.319a2.26,2.26,0,0,0,.414,1.409,1.375,1.375,0,0,0,1.16.545,1.392,1.392,0,0,0,1.169-.545,2.241,2.241,0,0,0,.419-1.409Z" transform="translate(-724.064 -862.689)" fill="#12263f"/>
      <path id="Trazado_605657" data-name="Trazado 605657" d="M770.47,880.448a.848.848,0,0,0-.292-.674,2.923,2.923,0,0,0-1.027-.48,5.829,5.829,0,0,1-1.911-.894,1.691,1.691,0,0,1-.652-1.4,1.763,1.763,0,0,1,.735-1.461,3.394,3.394,0,0,1,3.819.043,1.905,1.905,0,0,1,.712,1.6l-.01.03H770.43a1.06,1.06,0,0,0-.33-.837,1.347,1.347,0,0,0-.924-.292,1.221,1.221,0,0,0-.834.259.845.845,0,0,0-.3.665.724.724,0,0,0,.32.606,4.267,4.267,0,0,0,1.1.5A4.769,4.769,0,0,1,771.3,879a1.819,1.819,0,0,1,.629,1.442,1.734,1.734,0,0,1-.73,1.473,3.164,3.164,0,0,1-1.928.54,3.449,3.449,0,0,1-2.016-.584,1.93,1.93,0,0,1-.817-1.744l.01-.03h1.414a1.145,1.145,0,0,0,.38.949,1.6,1.6,0,0,0,1.029.3,1.4,1.4,0,0,0,.892-.245A.794.794,0,0,0,770.47,880.448Z" transform="translate(-725.271 -862.689)" fill="#12263f"/>
      <path id="Trazado_605658" data-name="Trazado 605658" d="M777.83,880.8h-2.358l-.489,1.569h-1.524l2.453-7.274H777.4l2.443,7.274h-1.524Zm-2-1.144h1.644l-.8-2.562h-.031Z" transform="translate(-726.306 -862.707)" fill="#12263f"/>
    </g>
    <g id="Grupo_874990" data-name="Grupo 874990" transform="translate(601.849 833.666)">
      <path id="Trazado_605659" data-name="Trazado 605659" d="M628.4,870.941h-2.793v3.023h-1.459V866.69h4.761v1.124h-3.3v2H628.4Z" transform="translate(-620.407 -866.585)" fill="#12263f"/>
      <path id="Trazado_605660" data-name="Trazado 605660" d="M632.281,871.056v2.908h-1.459V866.69h2.518a3.02,3.02,0,0,1,1.947.567,1.921,1.921,0,0,1,.7,1.581,1.591,1.591,0,0,1-.3.967,2.069,2.069,0,0,1-.866.657,1.563,1.563,0,0,1,.927.634,2.017,2.017,0,0,1,.282,1.1v.535a2.661,2.661,0,0,0,.082.637.878.878,0,0,0,.282.492v.1h-1.5a.805.805,0,0,1-.257-.53,4.629,4.629,0,0,1-.057-.714v-.514a1.157,1.157,0,0,0-.3-.847,1.127,1.127,0,0,0-.842-.3Zm0-1.124h1.034a1.366,1.366,0,0,0,.914-.26.961.961,0,0,0,.3-.769,1.056,1.056,0,0,0-.3-.795,1.222,1.222,0,0,0-.887-.3h-1.059Z" transform="translate(-621.39 -866.585)" fill="#12263f"/>
      <path id="Trazado_605661" data-name="Trazado 605661" d="M642.161,872.4H639.8l-.489,1.569h-1.524l2.453-7.274h1.494l2.443,7.274h-1.524Zm-2-1.143h1.644l-.8-2.563h-.031Z" transform="translate(-622.417 -866.585)" fill="#12263f"/>
      <path id="Trazado_605662" data-name="Trazado 605662" d="M651.984,873.964h-1.459l-2.932-4.906-.031.005v4.9H646.1V866.69h1.458l2.933,4.9.03-.005v-4.9h1.459Z" transform="translate(-623.642 -866.585)" fill="#12263f"/>
      <path id="Trazado_605663" data-name="Trazado 605663" d="M660,871.538l.009.03a2.276,2.276,0,0,1-.709,1.824,2.894,2.894,0,0,1-2.013.659,2.788,2.788,0,0,1-2.113-.841,3.02,3.02,0,0,1-.8-2.176V869.59a3.077,3.077,0,0,1,.784-2.176,2.674,2.674,0,0,1,2.058-.847,3.071,3.071,0,0,1,2.079.65,2.233,2.233,0,0,1,.729,1.828l-.01.03h-1.419a1.426,1.426,0,0,0-.337-1.041,1.406,1.406,0,0,0-1.042-.343,1.176,1.176,0,0,0-1.021.527,2.335,2.335,0,0,0-.367,1.362v1.454a2.268,2.268,0,0,0,.387,1.369,1.259,1.259,0,0,0,1.077.529,1.28,1.28,0,0,0,.977-.343,1.486,1.486,0,0,0,.322-1.051Z" transform="translate(-624.859 -866.567)" fill="#12263f"/>
      <path id="Trazado_605664" data-name="Trazado 605664" d="M668.058,870.963a3.056,3.056,0,0,1-.844,2.216,3.192,3.192,0,0,1-4.386,0,3.065,3.065,0,0,1-.84-2.214v-1.309a3.073,3.073,0,0,1,.837-2.211,2.879,2.879,0,0,1,2.18-.877,2.932,2.932,0,0,1,2.2.877,3.05,3.05,0,0,1,.849,2.211Zm-1.454-1.319a2.2,2.2,0,0,0-.425-1.393,1.406,1.406,0,0,0-1.174-.545,1.36,1.36,0,0,0-1.151.545,2.238,2.238,0,0,0-.413,1.393v1.319a2.255,2.255,0,0,0,.415,1.409,1.372,1.372,0,0,0,1.159.545,1.392,1.392,0,0,0,1.169-.545,2.241,2.241,0,0,0,.42-1.409Z" transform="translate(-625.982 -866.567)" fill="#12263f"/>
      <path id="Trazado_605665" data-name="Trazado 605665" d="M627.055,886.8H624.7l-.489,1.569h-1.524l2.453-7.274h1.493l2.444,7.274H627.55Zm-2-1.144H626.7l-.8-2.562h-.03Z" transform="translate(-620.191 -868.707)" fill="#12263f"/>
      <path id="Trazado_605666" data-name="Trazado 605666" d="M632.457,885.456v2.908H631V881.09h2.518a3.015,3.015,0,0,1,1.946.567,1.918,1.918,0,0,1,.7,1.581,1.6,1.6,0,0,1-.3.967,2.067,2.067,0,0,1-.867.657,1.561,1.561,0,0,1,.927.634,2.007,2.007,0,0,1,.282,1.1v.535a2.67,2.67,0,0,0,.083.637.879.879,0,0,0,.282.492v.1h-1.5a.808.808,0,0,1-.257-.529,4.634,4.634,0,0,1-.058-.715v-.514a1.16,1.16,0,0,0-.3-.848,1.13,1.13,0,0,0-.842-.3Zm0-1.124h1.034a1.369,1.369,0,0,0,.914-.26.961.961,0,0,0,.3-.769,1.056,1.056,0,0,0-.3-.795,1.218,1.218,0,0,0-.887-.3h-1.059Z" transform="translate(-621.416 -868.707)" fill="#12263f"/>
      <path id="Trazado_605667" data-name="Trazado 605667" d="M644.07,885.938l.01.03a2.28,2.28,0,0,1-.709,1.824,2.9,2.9,0,0,1-2.014.659,2.789,2.789,0,0,1-2.113-.842,3.02,3.02,0,0,1-.8-2.176V883.99a3.076,3.076,0,0,1,.784-2.176,2.675,2.675,0,0,1,2.058-.847,3.071,3.071,0,0,1,2.079.65,2.233,2.233,0,0,1,.729,1.828l-.009.03h-1.419a1.427,1.427,0,0,0-.338-1.041,1.406,1.406,0,0,0-1.042-.343,1.177,1.177,0,0,0-1.021.527,2.334,2.334,0,0,0-.367,1.362v1.454a2.264,2.264,0,0,0,.387,1.369,1.257,1.257,0,0,0,1.076.529,1.281,1.281,0,0,0,.977-.343,1.487,1.487,0,0,0,.322-1.051Z" transform="translate(-622.512 -868.689)" fill="#12263f"/>
      <path id="Trazado_605668" data-name="Trazado 605668" d="M647.855,888.364H646.4V881.09h1.459Z" transform="translate(-623.685 -868.707)" fill="#12263f"/>
      <path id="Trazado_605669" data-name="Trazado 605669" d="M651.26,887.245h3.257v1.119H649.8V881.09h1.459Z" transform="translate(-624.187 -868.707)" fill="#12263f"/>
      <path id="Trazado_605670" data-name="Trazado 605670" d="M657.928,887.245h3.257v1.119h-4.716V881.09h1.459Z" transform="translate(-625.169 -868.707)" fill="#12263f"/>
      <path id="Trazado_605671" data-name="Trazado 605671" d="M668.844,885.363a3.057,3.057,0,0,1-.845,2.216,3.192,3.192,0,0,1-4.386,0,3.069,3.069,0,0,1-.84-2.214v-1.309a3.077,3.077,0,0,1,.837-2.211,2.879,2.879,0,0,1,2.18-.877,2.932,2.932,0,0,1,2.2.877,3.047,3.047,0,0,1,.85,2.211Zm-1.455-1.319a2.2,2.2,0,0,0-.425-1.394,1.407,1.407,0,0,0-1.174-.544,1.362,1.362,0,0,0-1.151.544,2.249,2.249,0,0,0-.412,1.394v1.319a2.26,2.26,0,0,0,.414,1.409,1.373,1.373,0,0,0,1.159.545,1.392,1.392,0,0,0,1.169-.545,2.241,2.241,0,0,0,.42-1.409Z" transform="translate(-626.098 -868.689)" fill="#12263f"/>
      <path id="Trazado_605672" data-name="Trazado 605672" d="M624.132,901.2h-2.359l-.489,1.569H619.76l2.453-7.274h1.494l2.443,7.274h-1.524Zm-2-1.144h1.644l-.8-2.563h-.03Z" transform="translate(-619.76 -870.829)" fill="#12263f"/>
      <path id="Trazado_605673" data-name="Trazado 605673" d="M629.533,899.856v2.908h-1.459V895.49h2.518a3.014,3.014,0,0,1,1.947.567,1.92,1.92,0,0,1,.7,1.581,1.591,1.591,0,0,1-.3.967,2.076,2.076,0,0,1-.866.657,1.561,1.561,0,0,1,.926.634,2.007,2.007,0,0,1,.283,1.1v.535a2.661,2.661,0,0,0,.082.637.879.879,0,0,0,.282.492v.1h-1.5a.805.805,0,0,1-.258-.529,4.642,4.642,0,0,1-.058-.715V901a1.159,1.159,0,0,0-.3-.847,1.13,1.13,0,0,0-.842-.3Zm0-1.125h1.034a1.366,1.366,0,0,0,.914-.259.962.962,0,0,0,.3-.77,1.056,1.056,0,0,0-.3-.794,1.218,1.218,0,0,0-.887-.3h-1.059Z" transform="translate(-620.985 -870.829)" fill="#12263f"/>
      <path id="Trazado_605674" data-name="Trazado 605674" d="M639.878,899.567h-2.7v2.078h3.207v1.12h-4.666V895.49h4.656v1.124h-3.2v1.829h2.7Z" transform="translate(-622.112 -870.829)" fill="#12263f"/>
      <path id="Trazado_605675" data-name="Trazado 605675" d="M648.275,902.764h-1.459l-2.932-4.906-.031.005v4.9H642.4V895.49h1.458l2.933,4.9.03-.005v-4.9h1.459Z" transform="translate(-623.095 -870.829)" fill="#12263f"/>
      <path id="Trazado_605676" data-name="Trazado 605676" d="M656.715,899.763a3.053,3.053,0,0,1-.845,2.216,3.192,3.192,0,0,1-4.386,0,3.068,3.068,0,0,1-.839-2.214v-1.309a3.076,3.076,0,0,1,.836-2.211,2.876,2.876,0,0,1,2.181-.876,2.93,2.93,0,0,1,2.2.876,3.05,3.05,0,0,1,.849,2.211Zm-1.454-1.319a2.2,2.2,0,0,0-.425-1.394,1.408,1.408,0,0,0-1.174-.544,1.362,1.362,0,0,0-1.152.544,2.249,2.249,0,0,0-.412,1.394v1.319a2.261,2.261,0,0,0,.414,1.409,1.372,1.372,0,0,0,1.159.545,1.392,1.392,0,0,0,1.169-.545,2.236,2.236,0,0,0,.42-1.409Z" transform="translate(-624.311 -870.811)" fill="#12263f"/>
      <path id="Trazado_605677" data-name="Trazado 605677" d="M662.867,900.847a.853.853,0,0,0-.292-.675,2.952,2.952,0,0,0-1.027-.479,5.842,5.842,0,0,1-1.912-.894,1.693,1.693,0,0,1-.651-1.4,1.765,1.765,0,0,1,.734-1.461,3.4,3.4,0,0,1,3.82.043,1.9,1.9,0,0,1,.711,1.6l-.009.03h-1.414a1.06,1.06,0,0,0-.33-.837,1.348,1.348,0,0,0-.924-.292,1.224,1.224,0,0,0-.835.26.847.847,0,0,0-.294.664.724.724,0,0,0,.32.607,4.253,4.253,0,0,0,1.1.5,4.761,4.761,0,0,1,1.828.887,1.818,1.818,0,0,1,.629,1.442,1.735,1.735,0,0,1-.729,1.473,3.164,3.164,0,0,1-1.929.54,3.439,3.439,0,0,1-2.016-.585,1.926,1.926,0,0,1-.817-1.743l.01-.031h1.414a1.146,1.146,0,0,0,.38.95,1.6,1.6,0,0,0,1.029.3,1.406,1.406,0,0,0,.892-.245A.794.794,0,0,0,662.867,900.847Z" transform="translate(-625.518 -870.811)" fill="#12263f"/>
      <path id="Trazado_605678" data-name="Trazado 605678" d="M670.227,901.2h-2.358l-.489,1.569h-1.524l2.453-7.274H669.8l2.444,7.274h-1.524Zm-2-1.144h1.643l-.8-2.563h-.03Z" transform="translate(-626.552 -870.829)" fill="#12263f"/>
    </g>
    <g id="Grupo_874991" data-name="Grupo 874991" transform="translate(780.841 828.55)">
      <path id="Trazado_605679" data-name="Trazado 605679" d="M835.4,864.941h-2.793v3.023h-1.459V860.69h4.761v1.124h-3.3v2H835.4Z" transform="translate(-829.9 -860.585)" fill="#12263f"/>
      <path id="Trazado_605680" data-name="Trazado 605680" d="M839.281,865.056v2.908h-1.459V860.69h2.518a3.019,3.019,0,0,1,1.947.567,1.921,1.921,0,0,1,.7,1.581,1.59,1.59,0,0,1-.3.967,2.068,2.068,0,0,1-.866.657,1.564,1.564,0,0,1,.927.634,2.017,2.017,0,0,1,.282,1.1v.534a2.661,2.661,0,0,0,.082.637.878.878,0,0,0,.282.492v.1h-1.5a.8.8,0,0,1-.258-.53,4.643,4.643,0,0,1-.057-.714v-.514a1.156,1.156,0,0,0-.3-.847,1.127,1.127,0,0,0-.842-.3Zm0-1.124h1.034a1.366,1.366,0,0,0,.914-.26.961.961,0,0,0,.3-.769,1.056,1.056,0,0,0-.3-.795,1.222,1.222,0,0,0-.887-.295h-1.059Z" transform="translate(-830.883 -860.585)" fill="#12263f"/>
      <path id="Trazado_605681" data-name="Trazado 605681" d="M849.161,866.4H846.8l-.49,1.569h-1.524l2.453-7.274h1.494l2.443,7.274h-1.524Zm-2-1.143h1.644l-.8-2.563h-.031Z" transform="translate(-831.91 -860.585)" fill="#12263f"/>
      <path id="Trazado_605682" data-name="Trazado 605682" d="M858.984,867.964h-1.459l-2.932-4.906-.031.005v4.9H853.1V860.69h1.458l2.933,4.9.03-.005v-4.9h1.459Z" transform="translate(-833.135 -860.585)" fill="#12263f"/>
      <path id="Trazado_605683" data-name="Trazado 605683" d="M867,865.538l.009.03a2.275,2.275,0,0,1-.709,1.824,2.894,2.894,0,0,1-2.013.659,2.789,2.789,0,0,1-2.113-.842,3.019,3.019,0,0,1-.8-2.176V863.59a3.077,3.077,0,0,1,.784-2.176,2.674,2.674,0,0,1,2.058-.847,3.071,3.071,0,0,1,2.079.65,2.233,2.233,0,0,1,.729,1.828l-.01.03h-1.419a1.426,1.426,0,0,0-.337-1.041,1.406,1.406,0,0,0-1.042-.343,1.176,1.176,0,0,0-1.021.527,2.335,2.335,0,0,0-.367,1.362v1.454a2.268,2.268,0,0,0,.387,1.369,1.26,1.26,0,0,0,1.077.529,1.28,1.28,0,0,0,.977-.343,1.487,1.487,0,0,0,.322-1.051Z" transform="translate(-834.352 -860.567)" fill="#12263f"/>
      <path id="Trazado_605684" data-name="Trazado 605684" d="M875.058,864.963a3.056,3.056,0,0,1-.844,2.216,3.192,3.192,0,0,1-4.386,0,3.065,3.065,0,0,1-.84-2.213v-1.309a3.074,3.074,0,0,1,.837-2.211,2.879,2.879,0,0,1,2.18-.876,2.932,2.932,0,0,1,2.2.876,3.05,3.05,0,0,1,.849,2.211Zm-1.454-1.319a2.2,2.2,0,0,0-.425-1.393,1.405,1.405,0,0,0-1.174-.545,1.36,1.36,0,0,0-1.151.545,2.239,2.239,0,0,0-.413,1.393v1.319a2.255,2.255,0,0,0,.415,1.409,1.372,1.372,0,0,0,1.159.545,1.392,1.392,0,0,0,1.169-.545,2.241,2.241,0,0,0,.419-1.409Z" transform="translate(-835.475 -860.567)" fill="#12263f"/>
      <path id="Trazado_605685" data-name="Trazado 605685" d="M834.055,880.8H831.7l-.489,1.569h-1.524l2.453-7.274h1.493l2.444,7.274H834.55Zm-2-1.144H833.7l-.8-2.562h-.03Z" transform="translate(-829.684 -862.707)" fill="#12263f"/>
      <path id="Trazado_605686" data-name="Trazado 605686" d="M839.457,879.456v2.907H838V875.09h2.518a3.015,3.015,0,0,1,1.946.567,1.918,1.918,0,0,1,.7,1.581,1.6,1.6,0,0,1-.3.967,2.066,2.066,0,0,1-.867.657,1.56,1.56,0,0,1,.927.634,2.007,2.007,0,0,1,.282,1.1v.535a2.667,2.667,0,0,0,.083.637.88.88,0,0,0,.282.492v.1h-1.5a.809.809,0,0,1-.257-.529,4.648,4.648,0,0,1-.058-.715v-.514a1.16,1.16,0,0,0-.3-.848,1.131,1.131,0,0,0-.842-.3Zm0-1.124h1.034a1.368,1.368,0,0,0,.914-.26.961.961,0,0,0,.3-.769,1.056,1.056,0,0,0-.3-.795,1.219,1.219,0,0,0-.887-.3h-1.059Z" transform="translate(-830.909 -862.707)" fill="#12263f"/>
      <path id="Trazado_605687" data-name="Trazado 605687" d="M851.07,879.938l.01.03a2.28,2.28,0,0,1-.709,1.824,2.9,2.9,0,0,1-2.014.659,2.789,2.789,0,0,1-2.113-.842,3.019,3.019,0,0,1-.8-2.176V877.99a3.077,3.077,0,0,1,.784-2.176,2.675,2.675,0,0,1,2.058-.847,3.07,3.07,0,0,1,2.079.65,2.233,2.233,0,0,1,.729,1.828l-.009.03h-1.419a1.426,1.426,0,0,0-.338-1.041,1.406,1.406,0,0,0-1.042-.343,1.177,1.177,0,0,0-1.021.527,2.333,2.333,0,0,0-.367,1.362v1.454a2.263,2.263,0,0,0,.387,1.369,1.257,1.257,0,0,0,1.076.53,1.28,1.28,0,0,0,.977-.343,1.486,1.486,0,0,0,.322-1.051Z" transform="translate(-832.006 -862.689)" fill="#12263f"/>
      <path id="Trazado_605688" data-name="Trazado 605688" d="M854.855,882.364H853.4V875.09h1.459Z" transform="translate(-833.178 -862.707)" fill="#12263f"/>
      <path id="Trazado_605689" data-name="Trazado 605689" d="M858.26,881.245h3.257v1.119H856.8V875.09h1.459Z" transform="translate(-833.68 -862.707)" fill="#12263f"/>
      <path id="Trazado_605690" data-name="Trazado 605690" d="M864.928,881.245h3.257v1.119h-4.716V875.09h1.459Z" transform="translate(-834.662 -862.707)" fill="#12263f"/>
      <path id="Trazado_605691" data-name="Trazado 605691" d="M875.844,879.363a3.053,3.053,0,0,1-.845,2.216,3.192,3.192,0,0,1-4.386,0,3.069,3.069,0,0,1-.84-2.214v-1.309a3.076,3.076,0,0,1,.837-2.211,2.879,2.879,0,0,1,2.181-.877,2.931,2.931,0,0,1,2.2.877,3.047,3.047,0,0,1,.85,2.211Zm-1.454-1.319a2.2,2.2,0,0,0-.425-1.394,1.407,1.407,0,0,0-1.173-.544,1.362,1.362,0,0,0-1.152.544,2.248,2.248,0,0,0-.412,1.394v1.319a2.26,2.26,0,0,0,.414,1.409,1.372,1.372,0,0,0,1.159.545,1.392,1.392,0,0,0,1.169-.545,2.241,2.241,0,0,0,.42-1.409Z" transform="translate(-835.591 -862.689)" fill="#12263f"/>
      <path id="Trazado_605692" data-name="Trazado 605692" d="M833.794,895.644h3.257v1.119h-4.716V889.49h1.459Z" transform="translate(-830.075 -864.829)" fill="#12263f"/>
      <path id="Trazado_605693" data-name="Trazado 605693" d="M840.579,896.764H839.12V889.49h1.459Z" transform="translate(-831.074 -864.829)" fill="#12263f"/>
      <path id="Trazado_605694" data-name="Trazado 605694" d="M846.287,894.851h.03l1.868-5.361h1.9v7.274H848.63V891.8l-.031-.005-1.8,4.971h-.989l-1.8-4.981-.031.005v4.976h-1.459V889.49h1.914Z" transform="translate(-831.576 -864.829)" fill="#12263f"/>
      <path id="Trazado_605695" data-name="Trazado 605695" d="M858.819,893.763a3.056,3.056,0,0,1-.844,2.216,3.193,3.193,0,0,1-4.387,0,3.069,3.069,0,0,1-.839-2.214v-1.309a3.076,3.076,0,0,1,.836-2.211,2.877,2.877,0,0,1,2.181-.877,2.929,2.929,0,0,1,2.2.877,3.05,3.05,0,0,1,.849,2.211Zm-1.454-1.319a2.2,2.2,0,0,0-.425-1.394,1.407,1.407,0,0,0-1.174-.544,1.362,1.362,0,0,0-1.151.544,2.243,2.243,0,0,0-.413,1.394v1.319a2.26,2.26,0,0,0,.414,1.409,1.375,1.375,0,0,0,1.16.545,1.392,1.392,0,0,0,1.169-.545,2.241,2.241,0,0,0,.419-1.409Z" transform="translate(-833.083 -864.811)" fill="#12263f"/>
      <path id="Trazado_605696" data-name="Trazado 605696" d="M864.972,894.847a.851.851,0,0,0-.292-.674,2.941,2.941,0,0,0-1.027-.479,5.848,5.848,0,0,1-1.911-.894,1.691,1.691,0,0,1-.652-1.4,1.763,1.763,0,0,1,.735-1.462,3.394,3.394,0,0,1,3.819.043,1.9,1.9,0,0,1,.712,1.6l-.01.03h-1.414a1.061,1.061,0,0,0-.33-.837,1.348,1.348,0,0,0-.924-.292,1.22,1.22,0,0,0-.834.26.845.845,0,0,0-.295.664.724.724,0,0,0,.32.607,4.268,4.268,0,0,0,1.1.5,4.768,4.768,0,0,1,1.829.887,1.817,1.817,0,0,1,.629,1.442,1.734,1.734,0,0,1-.73,1.473,3.164,3.164,0,0,1-1.928.54,3.443,3.443,0,0,1-2.016-.585,1.929,1.929,0,0,1-.817-1.743l.01-.031h1.414a1.146,1.146,0,0,0,.38.95,1.6,1.6,0,0,0,1.029.3,1.409,1.409,0,0,0,.892-.245A.794.794,0,0,0,864.972,894.847Z" transform="translate(-834.289 -864.811)" fill="#12263f"/>
      <path id="Trazado_605697" data-name="Trazado 605697" d="M872.331,895.2h-2.358l-.489,1.569H867.96l2.453-7.274h1.494l2.443,7.274h-1.524Zm-2-1.144h1.644l-.8-2.563h-.031Z" transform="translate(-835.324 -864.829)" fill="#12263f"/>
    </g>
    <g id="Grupo_874992" data-name="Grupo 874992" transform="translate(622.313 783.36)">
      <path id="Trazado_605698" data-name="Trazado 605698" d="M651.055,813.4H648.7l-.489,1.569h-1.524l2.453-7.274h1.493l2.444,7.274H651.55Zm-2-1.143H650.7l-.8-2.563h-.03Z" transform="translate(-644.191 -807.585)" fill="#12263f"/>
      <path id="Trazado_605699" data-name="Trazado 605699" d="M656.457,812.056v2.908H655V807.69h2.518a3.015,3.015,0,0,1,1.946.567,1.919,1.919,0,0,1,.7,1.581,1.6,1.6,0,0,1-.3.967,2.067,2.067,0,0,1-.867.657,1.56,1.56,0,0,1,.927.634,2.009,2.009,0,0,1,.282,1.1v.535a2.664,2.664,0,0,0,.083.637.879.879,0,0,0,.282.492v.1h-1.5a.809.809,0,0,1-.257-.53,4.639,4.639,0,0,1-.058-.714v-.514a1.156,1.156,0,0,0-.3-.847,1.127,1.127,0,0,0-.842-.3Zm0-1.124h1.034a1.368,1.368,0,0,0,.914-.26.961.961,0,0,0,.3-.769,1.056,1.056,0,0,0-.3-.795,1.222,1.222,0,0,0-.887-.3h-1.059Z" transform="translate(-645.416 -807.585)" fill="#12263f"/>
      <path id="Trazado_605700" data-name="Trazado 605700" d="M668.07,812.538l.01.03a2.281,2.281,0,0,1-.709,1.824,2.9,2.9,0,0,1-2.014.659,2.789,2.789,0,0,1-2.113-.842,3.02,3.02,0,0,1-.8-2.176V810.59a3.076,3.076,0,0,1,.784-2.176,2.675,2.675,0,0,1,2.058-.847,3.071,3.071,0,0,1,2.079.65,2.233,2.233,0,0,1,.729,1.828l-.009.03h-1.419a1.426,1.426,0,0,0-.338-1.041,1.406,1.406,0,0,0-1.042-.343,1.177,1.177,0,0,0-1.021.527,2.335,2.335,0,0,0-.367,1.362v1.454a2.262,2.262,0,0,0,.387,1.369,1.257,1.257,0,0,0,1.076.53,1.281,1.281,0,0,0,.977-.343,1.486,1.486,0,0,0,.322-1.051Z" transform="translate(-646.512 -807.567)" fill="#12263f"/>
      <path id="Trazado_605701" data-name="Trazado 605701" d="M671.855,814.964H670.4V807.69h1.459Z" transform="translate(-647.685 -807.585)" fill="#12263f"/>
      <path id="Trazado_605702" data-name="Trazado 605702" d="M675.26,813.845h3.257v1.119H673.8V807.69h1.459Z" transform="translate(-648.187 -807.585)" fill="#12263f"/>
      <path id="Trazado_605703" data-name="Trazado 605703" d="M681.928,813.845h3.257v1.119h-4.716V807.69h1.459Z" transform="translate(-649.169 -807.585)" fill="#12263f"/>
      <path id="Trazado_605704" data-name="Trazado 605704" d="M692.844,811.963a3.056,3.056,0,0,1-.845,2.216,3.192,3.192,0,0,1-4.386,0,3.069,3.069,0,0,1-.84-2.214v-1.309a3.077,3.077,0,0,1,.837-2.211,2.879,2.879,0,0,1,2.18-.877,2.932,2.932,0,0,1,2.2.877,3.047,3.047,0,0,1,.85,2.211Zm-1.455-1.319a2.2,2.2,0,0,0-.425-1.393,1.406,1.406,0,0,0-1.174-.545,1.36,1.36,0,0,0-1.151.545,2.244,2.244,0,0,0-.412,1.393v1.319a2.26,2.26,0,0,0,.414,1.409,1.372,1.372,0,0,0,1.159.545,1.392,1.392,0,0,0,1.169-.545,2.241,2.241,0,0,0,.419-1.409Z" transform="translate(-650.098 -807.567)" fill="#12263f"/>
      <path id="Trazado_605705" data-name="Trazado 605705" d="M648.132,827.8h-2.358l-.489,1.569H643.76l2.453-7.274h1.494l2.443,7.274h-1.524Zm-2-1.144h1.644l-.8-2.562h-.03Z" transform="translate(-643.76 -809.707)" fill="#12263f"/>
      <path id="Trazado_605706" data-name="Trazado 605706" d="M653.533,826.456v2.907h-1.459V822.09h2.518a3.019,3.019,0,0,1,1.947.567,1.92,1.92,0,0,1,.7,1.581,1.59,1.59,0,0,1-.3.967,2.068,2.068,0,0,1-.866.657,1.561,1.561,0,0,1,.926.634,2.008,2.008,0,0,1,.283,1.1v.535a2.666,2.666,0,0,0,.082.637.879.879,0,0,0,.282.492v.1h-1.5a.806.806,0,0,1-.258-.529,4.648,4.648,0,0,1-.058-.715v-.514a1.16,1.16,0,0,0-.3-.848,1.13,1.13,0,0,0-.842-.3Zm0-1.124h1.034a1.366,1.366,0,0,0,.914-.26.961.961,0,0,0,.3-.769,1.056,1.056,0,0,0-.3-.795,1.218,1.218,0,0,0-.887-.295h-1.059Z" transform="translate(-644.985 -809.707)" fill="#12263f"/>
      <path id="Trazado_605707" data-name="Trazado 605707" d="M663.878,826.167h-2.7v2.079h3.207v1.119h-4.666V822.09h4.656v1.124h-3.2v1.829h2.7Z" transform="translate(-646.112 -809.707)" fill="#12263f"/>
      <path id="Trazado_605708" data-name="Trazado 605708" d="M672.275,829.364h-1.459l-2.932-4.906-.031.005v4.9h-1.458V822.09h1.458l2.933,4.9.03-.005v-4.9h1.459Z" transform="translate(-647.095 -809.707)" fill="#12263f"/>
      <path id="Trazado_605709" data-name="Trazado 605709" d="M680.715,826.363a3.053,3.053,0,0,1-.845,2.216,3.192,3.192,0,0,1-4.386,0,3.068,3.068,0,0,1-.839-2.213v-1.309a3.076,3.076,0,0,1,.836-2.211,2.879,2.879,0,0,1,2.181-.877,2.933,2.933,0,0,1,2.2.877,3.05,3.05,0,0,1,.849,2.211Zm-1.454-1.319a2.2,2.2,0,0,0-.425-1.394,1.407,1.407,0,0,0-1.174-.544,1.362,1.362,0,0,0-1.152.544,2.248,2.248,0,0,0-.412,1.394v1.319a2.261,2.261,0,0,0,.414,1.409,1.373,1.373,0,0,0,1.159.545,1.392,1.392,0,0,0,1.169-.545,2.236,2.236,0,0,0,.42-1.409Z" transform="translate(-648.311 -809.689)" fill="#12263f"/>
      <path id="Trazado_605710" data-name="Trazado 605710" d="M686.867,827.448a.85.85,0,0,0-.292-.674,2.931,2.931,0,0,0-1.027-.48,5.824,5.824,0,0,1-1.912-.894,1.693,1.693,0,0,1-.651-1.4,1.764,1.764,0,0,1,.734-1.461,3.4,3.4,0,0,1,3.82.043,1.9,1.9,0,0,1,.711,1.6l-.009.03h-1.414a1.061,1.061,0,0,0-.33-.837,1.349,1.349,0,0,0-.924-.292,1.223,1.223,0,0,0-.835.259.847.847,0,0,0-.294.665.724.724,0,0,0,.32.606,4.249,4.249,0,0,0,1.1.5A4.764,4.764,0,0,1,687.7,826a1.818,1.818,0,0,1,.629,1.442,1.735,1.735,0,0,1-.729,1.473,3.165,3.165,0,0,1-1.929.54,3.445,3.445,0,0,1-2.016-.584,1.928,1.928,0,0,1-.817-1.744l.01-.03h1.414a1.144,1.144,0,0,0,.38.949,1.6,1.6,0,0,0,1.029.3,1.4,1.4,0,0,0,.892-.245A.793.793,0,0,0,686.867,827.448Z" transform="translate(-649.518 -809.689)" fill="#12263f"/>
      <path id="Trazado_605711" data-name="Trazado 605711" d="M694.227,827.8h-2.358l-.489,1.569h-1.525l2.453-7.274H693.8l2.444,7.274h-1.524Zm-2-1.144h1.643l-.8-2.562h-.03Z" transform="translate(-650.552 -809.707)" fill="#12263f"/>
    </g>
    <g id="Grupo_874993" data-name="Grupo 874993" transform="translate(757.82 783.36)">
      <path id="Trazado_605712" data-name="Trazado 605712" d="M807.055,813.4H804.7l-.489,1.569h-1.524l2.453-7.274h1.493l2.444,7.274H807.55Zm-2-1.143H806.7l-.8-2.563h-.03Z" transform="translate(-802.684 -807.585)" fill="#12263f"/>
      <path id="Trazado_605713" data-name="Trazado 605713" d="M812.457,812.056v2.908H811V807.69h2.518a3.015,3.015,0,0,1,1.946.567,1.919,1.919,0,0,1,.7,1.581,1.6,1.6,0,0,1-.3.967,2.067,2.067,0,0,1-.867.657,1.561,1.561,0,0,1,.927.634,2.01,2.01,0,0,1,.282,1.1v.535a2.664,2.664,0,0,0,.083.637.878.878,0,0,0,.282.492v.1h-1.5a.809.809,0,0,1-.257-.53,4.646,4.646,0,0,1-.058-.714v-.514a1.156,1.156,0,0,0-.3-.847,1.127,1.127,0,0,0-.842-.3Zm0-1.124h1.034a1.368,1.368,0,0,0,.914-.26.961.961,0,0,0,.3-.769,1.056,1.056,0,0,0-.3-.795,1.222,1.222,0,0,0-.887-.3h-1.059Z" transform="translate(-803.909 -807.585)" fill="#12263f"/>
      <path id="Trazado_605714" data-name="Trazado 605714" d="M824.07,812.538l.01.03a2.281,2.281,0,0,1-.709,1.824,2.9,2.9,0,0,1-2.014.659,2.789,2.789,0,0,1-2.113-.842,3.02,3.02,0,0,1-.8-2.176V810.59a3.077,3.077,0,0,1,.784-2.176,2.675,2.675,0,0,1,2.058-.847,3.071,3.071,0,0,1,2.079.65,2.233,2.233,0,0,1,.729,1.828l-.009.03h-1.419a1.427,1.427,0,0,0-.338-1.041,1.406,1.406,0,0,0-1.042-.343,1.176,1.176,0,0,0-1.021.527,2.335,2.335,0,0,0-.367,1.362v1.454a2.263,2.263,0,0,0,.387,1.369,1.257,1.257,0,0,0,1.076.53,1.28,1.28,0,0,0,.977-.343,1.487,1.487,0,0,0,.322-1.051Z" transform="translate(-805.005 -807.567)" fill="#12263f"/>
      <path id="Trazado_605715" data-name="Trazado 605715" d="M827.855,814.964H826.4V807.69h1.459Z" transform="translate(-806.178 -807.585)" fill="#12263f"/>
      <path id="Trazado_605716" data-name="Trazado 605716" d="M831.26,813.845h3.257v1.119H829.8V807.69h1.459Z" transform="translate(-806.68 -807.585)" fill="#12263f"/>
      <path id="Trazado_605717" data-name="Trazado 605717" d="M837.928,813.845h3.257v1.119h-4.716V807.69h1.459Z" transform="translate(-807.662 -807.585)" fill="#12263f"/>
      <path id="Trazado_605718" data-name="Trazado 605718" d="M848.844,811.963a3.053,3.053,0,0,1-.845,2.216,3.192,3.192,0,0,1-4.386,0,3.069,3.069,0,0,1-.84-2.214v-1.309a3.077,3.077,0,0,1,.837-2.211,2.879,2.879,0,0,1,2.181-.877,2.931,2.931,0,0,1,2.2.877,3.048,3.048,0,0,1,.85,2.211Zm-1.454-1.319a2.2,2.2,0,0,0-.425-1.393,1.405,1.405,0,0,0-1.173-.545,1.361,1.361,0,0,0-1.152.545,2.244,2.244,0,0,0-.412,1.393v1.319a2.261,2.261,0,0,0,.414,1.409,1.372,1.372,0,0,0,1.159.545,1.391,1.391,0,0,0,1.169-.545,2.241,2.241,0,0,0,.42-1.409Z" transform="translate(-808.591 -807.567)" fill="#12263f"/>
      <path id="Trazado_605719" data-name="Trazado 605719" d="M806.794,828.245h3.257v1.119h-4.716V822.09h1.459Z" transform="translate(-803.075 -809.707)" fill="#12263f"/>
      <path id="Trazado_605720" data-name="Trazado 605720" d="M813.579,829.364H812.12V822.09h1.459Z" transform="translate(-804.074 -809.707)" fill="#12263f"/>
      <path id="Trazado_605721" data-name="Trazado 605721" d="M819.287,827.451h.03l1.868-5.361h1.9v7.274H821.63V824.4l-.031-.005-1.8,4.971h-.989l-1.8-4.981-.031.005v4.976h-1.459V822.09h1.914Z" transform="translate(-804.576 -809.707)" fill="#12263f"/>
      <path id="Trazado_605722" data-name="Trazado 605722" d="M831.819,826.363a3.056,3.056,0,0,1-.844,2.216,3.193,3.193,0,0,1-4.387,0,3.069,3.069,0,0,1-.839-2.213v-1.309a3.076,3.076,0,0,1,.836-2.211,2.88,2.88,0,0,1,2.181-.877,2.931,2.931,0,0,1,2.2.877,3.05,3.05,0,0,1,.849,2.211Zm-1.454-1.319a2.2,2.2,0,0,0-.425-1.394,1.407,1.407,0,0,0-1.174-.544,1.365,1.365,0,0,0-1.152.544,2.248,2.248,0,0,0-.412,1.394v1.319a2.261,2.261,0,0,0,.414,1.409,1.375,1.375,0,0,0,1.16.545,1.392,1.392,0,0,0,1.169-.545,2.241,2.241,0,0,0,.42-1.409Z" transform="translate(-806.083 -809.689)" fill="#12263f"/>
      <path id="Trazado_605723" data-name="Trazado 605723" d="M837.972,827.448a.848.848,0,0,0-.292-.674,2.922,2.922,0,0,0-1.027-.48,5.828,5.828,0,0,1-1.911-.894,1.691,1.691,0,0,1-.652-1.4,1.763,1.763,0,0,1,.735-1.461,3.394,3.394,0,0,1,3.819.043,1.9,1.9,0,0,1,.712,1.6l-.01.03h-1.414a1.06,1.06,0,0,0-.33-.837,1.347,1.347,0,0,0-.924-.292,1.22,1.22,0,0,0-.834.259.845.845,0,0,0-.295.665.724.724,0,0,0,.32.606,4.263,4.263,0,0,0,1.1.5A4.769,4.769,0,0,1,838.8,826a1.818,1.818,0,0,1,.629,1.442,1.734,1.734,0,0,1-.73,1.473,3.164,3.164,0,0,1-1.928.54,3.449,3.449,0,0,1-2.017-.584,1.93,1.93,0,0,1-.817-1.744l.01-.03h1.414a1.144,1.144,0,0,0,.38.949,1.6,1.6,0,0,0,1.029.3,1.4,1.4,0,0,0,.892-.245A.793.793,0,0,0,837.972,827.448Z" transform="translate(-807.289 -809.689)" fill="#12263f"/>
      <path id="Trazado_605724" data-name="Trazado 605724" d="M845.332,827.8h-2.358l-.49,1.569H840.96l2.453-7.274h1.494l2.443,7.274h-1.524Zm-2-1.144h1.644l-.8-2.562h-.031Z" transform="translate(-808.324 -809.707)" fill="#12263f"/>
    </g>
    <g id="Grupo_874994" data-name="Grupo 874994" transform="translate(595.028 906.084)">
      <path id="Trazado_605725" data-name="Trazado 605725" d="M620.4,955.874h-2.793V958.9h-1.459v-7.274h4.761v1.124h-3.3v2H620.4Z" transform="translate(-612.407 -951.518)" fill="#12263f"/>
      <path id="Trazado_605726" data-name="Trazado 605726" d="M624.281,955.989V958.9h-1.459v-7.274h2.518a3.019,3.019,0,0,1,1.947.567,1.921,1.921,0,0,1,.7,1.582,1.59,1.59,0,0,1-.3.966,2.061,2.061,0,0,1-.866.657,1.564,1.564,0,0,1,.927.634,2.017,2.017,0,0,1,.282,1.1v.535a2.664,2.664,0,0,0,.082.637.879.879,0,0,0,.282.492v.1h-1.5a.8.8,0,0,1-.258-.53,4.628,4.628,0,0,1-.057-.714v-.514a1.157,1.157,0,0,0-.3-.847,1.127,1.127,0,0,0-.842-.3Zm0-1.124h1.034a1.367,1.367,0,0,0,.914-.26.961.961,0,0,0,.3-.769,1.058,1.058,0,0,0-.3-.795,1.222,1.222,0,0,0-.887-.3h-1.059Z" transform="translate(-613.39 -951.518)" fill="#12263f"/>
      <path id="Trazado_605727" data-name="Trazado 605727" d="M634.161,957.328H631.8l-.489,1.569h-1.524l2.453-7.274h1.494l2.443,7.274h-1.524Zm-2-1.143h1.644l-.8-2.563h-.031Z" transform="translate(-614.417 -951.518)" fill="#12263f"/>
      <path id="Trazado_605728" data-name="Trazado 605728" d="M643.984,958.9h-1.459l-2.932-4.906-.031.005v4.9H638.1v-7.274h1.458l2.933,4.9.03-.005v-4.9h1.459Z" transform="translate(-615.642 -951.518)" fill="#12263f"/>
      <path id="Trazado_605729" data-name="Trazado 605729" d="M652,956.471l.009.03a2.276,2.276,0,0,1-.709,1.824,2.89,2.89,0,0,1-2.013.659,2.787,2.787,0,0,1-2.113-.842,3.02,3.02,0,0,1-.8-2.176v-1.444a3.077,3.077,0,0,1,.784-2.176,2.674,2.674,0,0,1,2.058-.847,3.071,3.071,0,0,1,2.079.65,2.234,2.234,0,0,1,.729,1.828l-.01.03h-1.419a1.428,1.428,0,0,0-.337-1.041,1.407,1.407,0,0,0-1.042-.343,1.174,1.174,0,0,0-1.021.528,2.331,2.331,0,0,0-.367,1.361v1.454a2.267,2.267,0,0,0,.387,1.369,1.259,1.259,0,0,0,1.077.529,1.28,1.28,0,0,0,.977-.343,1.486,1.486,0,0,0,.322-1.051Z" transform="translate(-616.859 -951.5)" fill="#12263f"/>
      <path id="Trazado_605730" data-name="Trazado 605730" d="M660.058,955.9a3.055,3.055,0,0,1-.844,2.216,3.192,3.192,0,0,1-4.386,0,3.065,3.065,0,0,1-.84-2.214v-1.309a3.073,3.073,0,0,1,.837-2.211,2.879,2.879,0,0,1,2.18-.877,2.932,2.932,0,0,1,2.2.877,3.05,3.05,0,0,1,.849,2.211Zm-1.454-1.319a2.2,2.2,0,0,0-.425-1.393,1.406,1.406,0,0,0-1.174-.545,1.36,1.36,0,0,0-1.151.545,2.239,2.239,0,0,0-.413,1.393V955.9a2.26,2.26,0,0,0,.415,1.409,1.374,1.374,0,0,0,1.159.544,1.393,1.393,0,0,0,1.169-.544,2.245,2.245,0,0,0,.42-1.409Z" transform="translate(-617.982 -951.5)" fill="#12263f"/>
      <path id="Trazado_605731" data-name="Trazado 605731" d="M616.132,971.729h-2.358l-.489,1.569H611.76l2.453-7.275h1.494l2.443,7.275h-1.524Zm-2-1.144h1.644l-.8-2.563h-.03Z" transform="translate(-611.76 -953.64)" fill="#12263f"/>
      <path id="Trazado_605732" data-name="Trazado 605732" d="M621.533,970.39V973.3h-1.459v-7.275h2.518a3.02,3.02,0,0,1,1.947.567,1.923,1.923,0,0,1,.7,1.582,1.594,1.594,0,0,1-.3.967,2.068,2.068,0,0,1-.866.657,1.568,1.568,0,0,1,.926.634,2.012,2.012,0,0,1,.283,1.1v.535a2.653,2.653,0,0,0,.082.637.881.881,0,0,0,.282.493v.1h-1.5a.806.806,0,0,1-.258-.53,4.65,4.65,0,0,1-.058-.714v-.515a1.156,1.156,0,0,0-.3-.847,1.13,1.13,0,0,0-.842-.3Zm0-1.125h1.034a1.362,1.362,0,0,0,.914-.26.96.96,0,0,0,.3-.769,1.056,1.056,0,0,0-.3-.794,1.218,1.218,0,0,0-.887-.3h-1.059Z" transform="translate(-612.985 -953.64)" fill="#12263f"/>
      <path id="Trazado_605733" data-name="Trazado 605733" d="M631.878,970.1h-2.7v2.078h3.207v1.12h-4.666v-7.275h4.656v1.125h-3.2v1.828h2.7Z" transform="translate(-614.112 -953.64)" fill="#12263f"/>
      <path id="Trazado_605734" data-name="Trazado 605734" d="M640.275,973.3h-1.459l-2.932-4.906-.031.005v4.9H634.4v-7.275h1.458l2.933,4.9.03,0v-4.9h1.459Z" transform="translate(-615.095 -953.64)" fill="#12263f"/>
      <path id="Trazado_605735" data-name="Trazado 605735" d="M648.715,970.3a3.051,3.051,0,0,1-.845,2.215,3.189,3.189,0,0,1-4.386,0,3.065,3.065,0,0,1-.839-2.213v-1.31a3.074,3.074,0,0,1,.836-2.21,2.877,2.877,0,0,1,2.181-.877,2.931,2.931,0,0,1,2.2.877,3.048,3.048,0,0,1,.849,2.21Zm-1.454-1.319a2.2,2.2,0,0,0-.425-1.394,1.406,1.406,0,0,0-1.174-.545,1.361,1.361,0,0,0-1.152.545,2.248,2.248,0,0,0-.412,1.394V970.3a2.264,2.264,0,0,0,.414,1.409,1.372,1.372,0,0,0,1.159.545,1.391,1.391,0,0,0,1.169-.545,2.239,2.239,0,0,0,.42-1.409Z" transform="translate(-616.311 -953.622)" fill="#12263f"/>
      <path id="Trazado_605736" data-name="Trazado 605736" d="M654.867,971.381a.852.852,0,0,0-.292-.674,2.936,2.936,0,0,0-1.027-.479,5.845,5.845,0,0,1-1.912-.894,1.694,1.694,0,0,1-.651-1.4,1.767,1.767,0,0,1,.734-1.462,3.4,3.4,0,0,1,3.82.043,1.907,1.907,0,0,1,.711,1.6l-.009.03h-1.414a1.058,1.058,0,0,0-.33-.836,1.345,1.345,0,0,0-.924-.292,1.224,1.224,0,0,0-.835.26.847.847,0,0,0-.294.664.725.725,0,0,0,.32.607,4.251,4.251,0,0,0,1.1.5,4.753,4.753,0,0,1,1.828.887,1.817,1.817,0,0,1,.629,1.441,1.735,1.735,0,0,1-.729,1.474,3.164,3.164,0,0,1-1.929.54,3.444,3.444,0,0,1-2.016-.585,1.927,1.927,0,0,1-.817-1.744l.01-.03h1.414a1.143,1.143,0,0,0,.38.949,1.6,1.6,0,0,0,1.029.305,1.407,1.407,0,0,0,.892-.245A.8.8,0,0,0,654.867,971.381Z" transform="translate(-617.518 -953.622)" fill="#12263f"/>
      <path id="Trazado_605737" data-name="Trazado 605737" d="M662.227,971.729h-2.357l-.489,1.569h-1.525l2.453-7.275H661.8l2.444,7.275h-1.524Zm-2-1.144h1.643l-.8-2.563h-.03Z" transform="translate(-618.552 -953.64)" fill="#12263f"/>
    </g>
    <g id="Grupo_874995" data-name="Grupo 874995" transform="translate(519.995 940.246)">
      <path id="Trazado_605738" data-name="Trazado 605738" d="M528.132,997.395h-2.359l-.489,1.569H523.76l2.453-7.275h1.494l2.443,7.275h-1.524Zm-2-1.144h1.644l-.8-2.563h-.03Z" transform="translate(-523.76 -991.584)" fill="#12263f"/>
      <path id="Trazado_605739" data-name="Trazado 605739" d="M533.533,996.056v2.908h-1.459v-7.275h2.518a3.02,3.02,0,0,1,1.947.568,1.921,1.921,0,0,1,.7,1.581,1.6,1.6,0,0,1-.3.968,2.065,2.065,0,0,1-.866.656,1.569,1.569,0,0,1,.926.634,2.012,2.012,0,0,1,.283,1.1v.535a2.657,2.657,0,0,0,.082.638.879.879,0,0,0,.282.492v.1h-1.5a.806.806,0,0,1-.258-.53,4.655,4.655,0,0,1-.058-.714V997.2a1.154,1.154,0,0,0-.3-.846,1.13,1.13,0,0,0-.842-.3Zm0-1.125h1.034a1.367,1.367,0,0,0,.914-.259.963.963,0,0,0,.3-.77,1.056,1.056,0,0,0-.3-.794,1.219,1.219,0,0,0-.887-.3h-1.059Z" transform="translate(-524.985 -991.584)" fill="#12263f"/>
      <path id="Trazado_605740" data-name="Trazado 605740" d="M543.878,995.766h-2.7v2.078h3.207v1.12h-4.666v-7.275h4.656v1.125h-3.2v1.828h2.7Z" transform="translate(-526.112 -991.584)" fill="#12263f"/>
      <path id="Trazado_605741" data-name="Trazado 605741" d="M552.275,998.964h-1.459l-2.932-4.906-.031.005v4.9H546.4v-7.275h1.458l2.933,4.9.03-.005v-4.9h1.459Z" transform="translate(-527.095 -991.584)" fill="#12263f"/>
      <path id="Trazado_605742" data-name="Trazado 605742" d="M560.715,995.963a3.053,3.053,0,0,1-.845,2.216,3.191,3.191,0,0,1-4.386,0,3.065,3.065,0,0,1-.839-2.213v-1.309a3.072,3.072,0,0,1,.836-2.21,2.877,2.877,0,0,1,2.181-.878,2.931,2.931,0,0,1,2.2.878,3.047,3.047,0,0,1,.849,2.21Zm-1.454-1.319a2.2,2.2,0,0,0-.425-1.394,1.406,1.406,0,0,0-1.174-.545,1.361,1.361,0,0,0-1.152.545,2.248,2.248,0,0,0-.412,1.394v1.319a2.263,2.263,0,0,0,.414,1.409,1.372,1.372,0,0,0,1.159.545,1.391,1.391,0,0,0,1.169-.545,2.239,2.239,0,0,0,.42-1.409Z" transform="translate(-528.311 -991.566)" fill="#12263f"/>
      <path id="Trazado_605743" data-name="Trazado 605743" d="M566.867,997.047a.851.851,0,0,0-.292-.674,2.932,2.932,0,0,0-1.027-.479,5.845,5.845,0,0,1-1.912-.894,1.694,1.694,0,0,1-.651-1.4,1.765,1.765,0,0,1,.734-1.461,3.393,3.393,0,0,1,3.82.042,1.907,1.907,0,0,1,.711,1.6l-.009.03h-1.414a1.057,1.057,0,0,0-.33-.836,1.345,1.345,0,0,0-.924-.293,1.224,1.224,0,0,0-.835.26.847.847,0,0,0-.294.664.727.727,0,0,0,.32.608,4.258,4.258,0,0,0,1.1.5,4.749,4.749,0,0,1,1.828.888,1.815,1.815,0,0,1,.629,1.44,1.735,1.735,0,0,1-.729,1.474,3.165,3.165,0,0,1-1.929.54,3.444,3.444,0,0,1-2.016-.585,1.927,1.927,0,0,1-.817-1.744l.01-.03h1.414a1.143,1.143,0,0,0,.38.949,1.6,1.6,0,0,0,1.029.305,1.407,1.407,0,0,0,.892-.245A.8.8,0,0,0,566.867,997.047Z" transform="translate(-529.518 -991.566)" fill="#12263f"/>
      <path id="Trazado_605744" data-name="Trazado 605744" d="M574.227,997.395h-2.358l-.489,1.569h-1.525l2.453-7.275H573.8l2.444,7.275h-1.524Zm-2-1.144h1.643l-.8-2.563h-.03Z" transform="translate(-530.552 -991.584)" fill="#12263f"/>
    </g>
    <g id="Grupo_874996" data-name="Grupo 874996" transform="translate(799.408 906.084)">
      <path id="Trazado_605745" data-name="Trazado 605745" d="M855.71,955.874h-2.792V958.9h-1.459v-7.274h4.761v1.124h-3.3v2h2.792Z" transform="translate(-851.459 -951.518)" fill="#12263f"/>
      <path id="Trazado_605746" data-name="Trazado 605746" d="M859.592,955.989V958.9h-1.459v-7.274h2.518a3.017,3.017,0,0,1,1.946.567,1.919,1.919,0,0,1,.7,1.582,1.594,1.594,0,0,1-.3.966,2.07,2.07,0,0,1-.867.657,1.563,1.563,0,0,1,.927.634,2.009,2.009,0,0,1,.282,1.1v.535a2.627,2.627,0,0,0,.083.637.875.875,0,0,0,.282.492v.1h-1.5a.809.809,0,0,1-.258-.53,4.753,4.753,0,0,1-.057-.714v-.514a1.153,1.153,0,0,0-.3-.847,1.124,1.124,0,0,0-.841-.3Zm0-1.124h1.034a1.369,1.369,0,0,0,.914-.26.963.963,0,0,0,.3-.769,1.061,1.061,0,0,0-.3-.795,1.221,1.221,0,0,0-.887-.3h-1.059Z" transform="translate(-852.442 -951.518)" fill="#12263f"/>
      <path id="Trazado_605747" data-name="Trazado 605747" d="M869.471,957.328h-2.358l-.489,1.569H865.1l2.453-7.274h1.494l2.443,7.274h-1.524Zm-2-1.143h1.644l-.8-2.563h-.03Z" transform="translate(-853.469 -951.518)" fill="#12263f"/>
      <path id="Trazado_605748" data-name="Trazado 605748" d="M879.295,958.9h-1.459l-2.933-4.906-.03.005v4.9h-1.459v-7.274h1.459l2.932,4.9.031-.005v-4.9h1.459Z" transform="translate(-854.694 -951.518)" fill="#12263f"/>
      <path id="Trazado_605749" data-name="Trazado 605749" d="M887.306,956.471l.01.03a2.278,2.278,0,0,1-.71,1.824,2.889,2.889,0,0,1-2.013.659,2.79,2.79,0,0,1-2.114-.842,3.019,3.019,0,0,1-.8-2.176v-1.444a3.073,3.073,0,0,1,.784-2.176,2.674,2.674,0,0,1,2.058-.847,3.069,3.069,0,0,1,2.078.65,2.237,2.237,0,0,1,.73,1.828l-.01.03H885.9a1.428,1.428,0,0,0-.338-1.041,1.4,1.4,0,0,0-1.041-.343,1.174,1.174,0,0,0-1.021.528,2.324,2.324,0,0,0-.368,1.361v1.454a2.261,2.261,0,0,0,.387,1.369,1.259,1.259,0,0,0,1.077.529,1.279,1.279,0,0,0,.976-.343,1.486,1.486,0,0,0,.322-1.051Z" transform="translate(-855.911 -951.5)" fill="#12263f"/>
      <path id="Trazado_605750" data-name="Trazado 605750" d="M893.208,957.328h-2.358l-.49,1.569h-1.524l2.453-7.274h1.494l2.443,7.274H893.7Zm-2-1.143h1.644l-.8-2.563h-.031Z" transform="translate(-856.966 -951.518)" fill="#12263f"/>
      <path id="Trazado_605751" data-name="Trazado 605751" d="M853.794,972.178h3.257v1.12h-4.716v-7.275h1.459Z" transform="translate(-851.588 -953.64)" fill="#12263f"/>
      <path id="Trazado_605752" data-name="Trazado 605752" d="M860.579,973.3H859.12v-7.275h1.459Z" transform="translate(-852.588 -953.64)" fill="#12263f"/>
      <path id="Trazado_605753" data-name="Trazado 605753" d="M866.287,971.384h.03l1.868-5.361h1.9V973.3H868.63v-4.967l-.031,0-1.8,4.971h-.989l-1.8-4.981-.031.005V973.3h-1.459v-7.275h1.914Z" transform="translate(-853.089 -953.64)" fill="#12263f"/>
      <path id="Trazado_605754" data-name="Trazado 605754" d="M878.819,970.3a3.054,3.054,0,0,1-.844,2.215,3.191,3.191,0,0,1-4.387,0,3.065,3.065,0,0,1-.839-2.213v-1.31a3.074,3.074,0,0,1,.836-2.21,2.878,2.878,0,0,1,2.181-.877,2.929,2.929,0,0,1,2.2.877,3.048,3.048,0,0,1,.849,2.21Zm-1.454-1.319a2.2,2.2,0,0,0-.425-1.394,1.405,1.405,0,0,0-1.174-.545,1.361,1.361,0,0,0-1.151.545,2.243,2.243,0,0,0-.413,1.394V970.3a2.264,2.264,0,0,0,.414,1.409,1.375,1.375,0,0,0,1.16.545,1.392,1.392,0,0,0,1.169-.545,2.245,2.245,0,0,0,.419-1.409Z" transform="translate(-854.596 -953.622)" fill="#12263f"/>
      <path id="Trazado_605755" data-name="Trazado 605755" d="M884.972,971.381a.85.85,0,0,0-.292-.674,2.927,2.927,0,0,0-1.026-.479,5.847,5.847,0,0,1-1.911-.894,1.693,1.693,0,0,1-.652-1.4,1.765,1.765,0,0,1,.735-1.462,3.394,3.394,0,0,1,3.819.043,1.907,1.907,0,0,1,.712,1.6l-.01.03h-1.414a1.058,1.058,0,0,0-.33-.836,1.343,1.343,0,0,0-.924-.292,1.22,1.22,0,0,0-.834.26.845.845,0,0,0-.295.664.725.725,0,0,0,.32.607,4.263,4.263,0,0,0,1.1.5,4.759,4.759,0,0,1,1.829.887,1.817,1.817,0,0,1,.629,1.441,1.734,1.734,0,0,1-.73,1.474,3.164,3.164,0,0,1-1.928.54,3.449,3.449,0,0,1-2.016-.585,1.929,1.929,0,0,1-.817-1.744l.01-.03h1.414a1.143,1.143,0,0,0,.38.949,1.6,1.6,0,0,0,1.029.305,1.409,1.409,0,0,0,.892-.245A.8.8,0,0,0,884.972,971.381Z" transform="translate(-855.803 -953.622)" fill="#12263f"/>
      <path id="Trazado_605756" data-name="Trazado 605756" d="M892.332,971.729h-2.358l-.49,1.569H887.96l2.453-7.275h1.494l2.443,7.275h-1.524Zm-2-1.144h1.644l-.8-2.563h-.031Z" transform="translate(-856.837 -953.64)" fill="#12263f"/>
    </g>
    <g id="Grupo_874997" data-name="Grupo 874997" transform="translate(693.679 912.223)">
      <path id="Trazado_605757" data-name="Trazado 605757" d="M731.71,963.075h-2.792V966.1h-1.459v-7.274h4.761v1.125h-3.3v2h2.792Z" transform="translate(-727.459 -958.718)" fill="#12263f"/>
      <path id="Trazado_605758" data-name="Trazado 605758" d="M735.592,963.189V966.1h-1.459v-7.274h2.518a3.018,3.018,0,0,1,1.946.567,1.92,1.92,0,0,1,.7,1.582,1.6,1.6,0,0,1-.3.967,2.077,2.077,0,0,1-.867.656,1.569,1.569,0,0,1,.927.635,2.011,2.011,0,0,1,.282,1.1v.535a2.617,2.617,0,0,0,.083.637.874.874,0,0,0,.282.492v.1h-1.5a.809.809,0,0,1-.258-.529,4.753,4.753,0,0,1-.057-.714v-.515a1.153,1.153,0,0,0-.3-.847,1.127,1.127,0,0,0-.842-.3Zm0-1.124h1.034a1.368,1.368,0,0,0,.914-.26.964.964,0,0,0,.3-.769,1.06,1.06,0,0,0-.3-.795,1.221,1.221,0,0,0-.887-.294h-1.059Z" transform="translate(-728.442 -958.718)" fill="#12263f"/>
      <path id="Trazado_605759" data-name="Trazado 605759" d="M745.471,964.529h-2.358l-.489,1.568H741.1l2.453-7.274h1.494l2.443,7.274h-1.524Zm-2-1.144h1.644l-.8-2.563h-.03Z" transform="translate(-729.469 -958.718)" fill="#12263f"/>
      <path id="Trazado_605760" data-name="Trazado 605760" d="M755.295,966.1h-1.459l-2.933-4.905-.03,0v4.9h-1.459v-7.274h1.459l2.932,4.9.031-.005v-4.9h1.459Z" transform="translate(-730.694 -958.718)" fill="#12263f"/>
      <path id="Trazado_605761" data-name="Trazado 605761" d="M763.306,963.671l.01.03a2.277,2.277,0,0,1-.709,1.824,2.89,2.89,0,0,1-2.013.66,2.79,2.79,0,0,1-2.114-.842,3.019,3.019,0,0,1-.8-2.176v-1.444a3.073,3.073,0,0,1,.784-2.176,2.674,2.674,0,0,1,2.058-.847,3.069,3.069,0,0,1,2.078.65,2.238,2.238,0,0,1,.73,1.828l-.01.031H761.9a1.431,1.431,0,0,0-.338-1.042,1.4,1.4,0,0,0-1.041-.342,1.176,1.176,0,0,0-1.022.527,2.324,2.324,0,0,0-.367,1.361v1.454a2.26,2.26,0,0,0,.387,1.369,1.26,1.26,0,0,0,1.077.529,1.282,1.282,0,0,0,.976-.342,1.49,1.49,0,0,0,.322-1.052Z" transform="translate(-731.911 -958.7)" fill="#12263f"/>
      <path id="Trazado_605762" data-name="Trazado 605762" d="M769.208,964.529h-2.358l-.489,1.568h-1.524l2.453-7.274h1.494l2.443,7.274H769.7Zm-2-1.144h1.644l-.8-2.563h-.031Z" transform="translate(-732.966 -958.718)" fill="#12263f"/>
    </g>
  </g>
</svg>
