<svg xmlns="http://www.w3.org/2000/svg" width="470" height="207.568" viewBox="0 0 470 207.568">
  <g id="Grupo_874642" data-name="Grupo 874642" transform="translate(-265 -6465)">
    <g id="Grupo_874556" data-name="Grupo 874556" transform="translate(-104.046 5635.5)">
      <g id="Grupo_874509" data-name="Grupo 874509" transform="translate(400.349 883.178)">
        <path id="Trazado_603413" data-name="Trazado 603413" d="M838.856,979.989H609.484l-38.959,57.465H515.008l38.472-57.465H403V886H838.856Z" transform="translate(-403 -886)" fill="#86c3d1"/>
      </g>
      <g id="Grupo_874524" data-name="Grupo 874524" transform="translate(397.833 974.489)">
        <g id="Grupo_874522" data-name="Grupo 874522">
          <path id="Trazado_603423" data-name="Trazado 603423" d="M512.528,1136.079a2.679,2.679,0,0,1-2.211-4.187l36.109-53.035H400.511a2.678,2.678,0,1,1,0-5.357H551.49a2.678,2.678,0,0,1,2.214,4.186l-38.959,57.221A2.676,2.676,0,0,1,512.528,1136.079Z" transform="translate(-397.833 -1073.5)" fill="#148d80"/>
        </g>
        <g id="Grupo_874523" data-name="Grupo 874523" transform="translate(167.585)">
          <path id="Trazado_603424" data-name="Trazado 603424" d="M744.633,1136.079a2.679,2.679,0,0,1-2.212-4.187l38.959-57.221a2.679,2.679,0,0,1,2.214-1.171h229.312a2.678,2.678,0,0,1,0,5.357H785.01l-38.161,56.051A2.679,2.679,0,0,1,744.633,1136.079Z" transform="translate(-741.956 -1073.5)" fill="#148d80"/>
        </g>
      </g>
      <g id="Grupo_874525" data-name="Grupo 874525" transform="translate(397.833 880.5)">
        <path id="Trazado_603425" data-name="Trazado 603425" d="M836.367,885.857H400.511a2.678,2.678,0,0,1,0-5.357H836.367a2.678,2.678,0,0,1,0,5.357Z" transform="translate(-397.833 -880.5)" fill="#148d80"/>
      </g>
      <g id="Grupo_874529" data-name="Grupo 874529" transform="translate(455.298 936.938)">
        <g id="Grupo_874526" data-name="Grupo 874526" transform="translate(0 3.949)">
          <rect id="Rectángulo_293107" data-name="Rectángulo 293107" width="288.342" height="2.922" fill="#fff"/>
        </g>
        <g id="Grupo_874528" data-name="Grupo 874528" transform="translate(284.239)">
          <g id="Grupo_874527" data-name="Grupo 874527">
            <path id="Trazado_603426" data-name="Trazado 603426" d="M1099.5,1007.211l2.3-5.41-2.3-5.41,12.825,5.41Z" transform="translate(-1099.499 -996.391)" fill="#fff"/>
          </g>
        </g>
      </g>
      <g id="Grupo_874545" data-name="Grupo 874545" transform="translate(518.317 909.461)">
        <g id="Grupo_874530" data-name="Grupo 874530" transform="translate(0 1.193)">
          <path id="Trazado_603427" data-name="Trazado 603427" d="M654.782,955.147a2.514,2.514,0,0,0-.814-1.9,6.789,6.789,0,0,0-2.867-1.307,9.542,9.542,0,0,1-3.973-1.858,3.9,3.9,0,0,1-1.427-3.085,4.116,4.116,0,0,1,1.536-3.268,5.946,5.946,0,0,1,3.99-1.307,5.829,5.829,0,0,1,4.2,1.5,4.532,4.532,0,0,1,1.519,3.492l-.034.069h-2.156a3.084,3.084,0,0,0-.992-2.351,3.569,3.569,0,0,0-2.54-.929,3.478,3.478,0,0,0-2.425.768,2.574,2.574,0,0,0-.843,2,2.228,2.228,0,0,0,.923,1.818,8.512,8.512,0,0,0,3,1.279,8.5,8.5,0,0,1,3.842,1.927,4.193,4.193,0,0,1,1.319,3.142,3.9,3.9,0,0,1-1.589,3.245,6.587,6.587,0,0,1-4.145,1.227,7.048,7.048,0,0,1-4.271-1.353,4.123,4.123,0,0,1-1.795-3.623l.023-.069h2.155a2.807,2.807,0,0,0,1.193,2.426,4.517,4.517,0,0,0,2.694.854,4.054,4.054,0,0,0,2.54-.722A2.347,2.347,0,0,0,654.782,955.147Z" transform="translate(-645.239 -942.418)" fill="#12263f"/>
        </g>
        <g id="Grupo_874531" data-name="Grupo 874531" transform="translate(14.164 5.493)">
          <path id="Trazado_603428" data-name="Trazado 603428" d="M679.989,964.125a5.251,5.251,0,0,1-4.169-1.708,6.577,6.577,0,0,1-1.5-4.5v-.5A6.436,6.436,0,0,1,675.866,953a4.836,4.836,0,0,1,3.767-1.749,4.5,4.5,0,0,1,3.733,1.548,6.378,6.378,0,0,1,1.244,4.117v1.192h-7.936l-.035.057a5.134,5.134,0,0,0,.826,3.033,2.886,2.886,0,0,0,2.523,1.163,5.686,5.686,0,0,0,2.012-.326,4.5,4.5,0,0,0,1.485-.9l.883,1.468a5.428,5.428,0,0,1-1.755,1.083A6.982,6.982,0,0,1,679.989,964.125Zm-.356-11.1a2.456,2.456,0,0,0-1.955.912,4.313,4.313,0,0,0-.946,2.334l.023.057h5.6v-.184a3.614,3.614,0,0,0-.665-2.236A2.4,2.4,0,0,0,679.633,953.026Z" transform="translate(-674.324 -951.248)" fill="#12263f"/>
        </g>
        <g id="Grupo_874532" data-name="Grupo 874532" transform="translate(26.984 5.493)">
          <path id="Trazado_603429" data-name="Trazado 603429" d="M702.668,951.477l.161,1.846a4.5,4.5,0,0,1,1.554-1.531,4.144,4.144,0,0,1,2.127-.545,4.049,4.049,0,0,1,3.107,1.176,5.157,5.157,0,0,1,1.1,3.629v7.832h-2.259V956.1a3.356,3.356,0,0,0-.648-2.328,2.6,2.6,0,0,0-1.978-.688,3.5,3.5,0,0,0-1.772.418,3.041,3.041,0,0,0-1.153,1.176v9.208h-2.259V951.477Z" transform="translate(-700.649 -951.248)" fill="#12263f"/>
        </g>
        <g id="Grupo_874533" data-name="Grupo 874533" transform="translate(39.243 2.729)">
          <path id="Trazado_603430" data-name="Trazado 603430" d="M730.053,945.573v2.993H732.4v1.674h-2.351v7.534a1.688,1.688,0,0,0,.361,1.227,1.306,1.306,0,0,0,.958.356,2.078,2.078,0,0,0,.435-.052,3.277,3.277,0,0,0,.4-.109l.31,1.548a2,2,0,0,1-.745.338,3.751,3.751,0,0,1-.975.132,2.925,2.925,0,0,1-2.19-.831,3.61,3.61,0,0,1-.814-2.608V950.24h-1.972v-1.674h1.972v-2.993Z" transform="translate(-725.822 -945.573)" fill="#12263f"/>
        </g>
        <g id="Grupo_874534" data-name="Grupo 874534" transform="translate(48.428 0.241)">
          <path id="Trazado_603431" data-name="Trazado 603431" d="M746.942,942.768h-2.259v-2.3h2.259Zm0,15.584h-2.259V945.945h2.259Z" transform="translate(-744.683 -940.463)" fill="#12263f"/>
        </g>
        <g id="Grupo_874535" data-name="Grupo 874535" transform="translate(53.646 0.241)">
          <path id="Trazado_603432" data-name="Trazado 603432" d="M755.4,952.378a8.28,8.28,0,0,1,1.278-4.828,4.121,4.121,0,0,1,3.584-1.835,4.448,4.448,0,0,1,1.932.4,3.964,3.964,0,0,1,1.439,1.17v-6.823h2.259v17.889h-1.732l-.344-1.571a4.035,4.035,0,0,1-1.5,1.353,4.487,4.487,0,0,1-2.076.458,4.259,4.259,0,0,1-3.555-1.645,6.839,6.839,0,0,1-1.284-4.329Zm2.259.241a5.267,5.267,0,0,0,.768,3.01,2.683,2.683,0,0,0,2.385,1.13,2.993,2.993,0,0,0,1.7-.459,3.428,3.428,0,0,0,1.123-1.284v-5.791A3.482,3.482,0,0,0,762.5,948a2.983,2.983,0,0,0-1.668-.453,2.582,2.582,0,0,0-2.4,1.342,6.923,6.923,0,0,0-.774,3.486Z" transform="translate(-755.397 -940.463)" fill="#12263f"/>
        </g>
        <g id="Grupo_874536" data-name="Grupo 874536" transform="translate(66.982 5.493)">
          <path id="Trazado_603433" data-name="Trazado 603433" d="M782.783,957.567a6.83,6.83,0,0,1,1.491-4.535,5.524,5.524,0,0,1,8.125-.006,6.809,6.809,0,0,1,1.5,4.541v.252a6.8,6.8,0,0,1-1.491,4.541,5.55,5.55,0,0,1-8.125-.005,6.789,6.789,0,0,1-1.5-4.536Zm2.259.252a5.885,5.885,0,0,0,.831,3.257,3,3,0,0,0,4.926,0,5.854,5.854,0,0,0,.837-3.257v-.252a5.835,5.835,0,0,0-.843-3.245,2.762,2.762,0,0,0-2.471-1.3,2.726,2.726,0,0,0-2.449,1.3,5.9,5.9,0,0,0-.831,3.245Z" transform="translate(-782.783 -951.248)" fill="#12263f"/>
        </g>
        <g id="Grupo_874537" data-name="Grupo 874537" transform="translate(86.179 0.241)">
          <path id="Trazado_603434" data-name="Trazado 603434" d="M822.2,952.378a8.276,8.276,0,0,1,1.279-4.828,4.119,4.119,0,0,1,3.584-1.835,4.446,4.446,0,0,1,1.932.4,3.959,3.959,0,0,1,1.439,1.17v-6.823h2.259v17.889h-1.732l-.344-1.571a4.034,4.034,0,0,1-1.5,1.353,4.487,4.487,0,0,1-2.076.458,4.258,4.258,0,0,1-3.555-1.645,6.836,6.836,0,0,1-1.285-4.329Zm2.259.241a5.263,5.263,0,0,0,.768,3.01,2.682,2.682,0,0,0,2.385,1.13,3,3,0,0,0,1.7-.459,3.423,3.423,0,0,0,1.123-1.284v-5.791A3.48,3.48,0,0,0,829.305,948a2.987,2.987,0,0,0-1.669-.453,2.581,2.581,0,0,0-2.4,1.342,6.923,6.923,0,0,0-.774,3.486Z" transform="translate(-822.201 -940.463)" fill="#12263f"/>
        </g>
        <g id="Grupo_874538" data-name="Grupo 874538" transform="translate(99.515 5.493)">
          <path id="Trazado_603435" data-name="Trazado 603435" d="M855.252,964.125a5.25,5.25,0,0,1-4.168-1.708,6.575,6.575,0,0,1-1.5-4.5v-.5A6.439,6.439,0,0,1,851.129,953a4.835,4.835,0,0,1,3.767-1.749,4.5,4.5,0,0,1,3.733,1.548,6.378,6.378,0,0,1,1.244,4.117v1.192h-7.935l-.034.057a5.127,5.127,0,0,0,.825,3.033,2.885,2.885,0,0,0,2.523,1.163,5.69,5.69,0,0,0,2.013-.326,4.5,4.5,0,0,0,1.485-.9l.883,1.468a5.42,5.42,0,0,1-1.755,1.083A6.983,6.983,0,0,1,855.252,964.125Zm-.355-11.1a2.454,2.454,0,0,0-1.955.912,4.312,4.312,0,0,0-.946,2.334l.023.057h5.6v-.184a3.615,3.615,0,0,0-.665-2.236A2.4,2.4,0,0,0,854.9,953.026Z" transform="translate(-849.587 -951.248)" fill="#12263f"/>
        </g>
        <g id="Grupo_874539" data-name="Grupo 874539" transform="translate(112.519 0.241)">
          <path id="Trazado_603436" data-name="Trazado 603436" d="M878.548,958.352h-2.259V940.463h2.259Z" transform="translate(-876.289 -940.463)" fill="#12263f"/>
        </g>
        <g id="Grupo_874540" data-name="Grupo 874540" transform="translate(123.091)">
          <path id="Trazado_603437" data-name="Trazado 603437" d="M899.937,958.1V947.365H898v-1.674h1.938V944.12a4.257,4.257,0,0,1,1.037-3.068,3.82,3.82,0,0,1,2.9-1.083,4.944,4.944,0,0,1,.785.063q.4.063.877.177l-.275,1.721a5.036,5.036,0,0,0-.5-.08,5.286,5.286,0,0,0-.614-.035,1.785,1.785,0,0,0-1.468.591,2.656,2.656,0,0,0-.482,1.714v1.571h2.248v1.674H902.2V958.1Z" transform="translate(-897.999 -939.969)" fill="#12263f"/>
        </g>
        <g id="Grupo_874541" data-name="Grupo 874541" transform="translate(132.002 0.241)">
          <path id="Trazado_603438" data-name="Trazado 603438" d="M918.555,958.352H916.3V940.463h2.259Z" transform="translate(-916.296 -940.463)" fill="#12263f"/>
        </g>
        <g id="Grupo_874542" data-name="Grupo 874542" transform="translate(137.69 5.722)">
          <path id="Trazado_603439" data-name="Trazado 603439" d="M935.9,962.292a4.2,4.2,0,0,1-1.5,1.536,4.116,4.116,0,0,1-2.121.539,3.984,3.984,0,0,1-3.165-1.3,6.014,6.014,0,0,1-1.135-4.037v-7.316h2.259v7.339a4.622,4.622,0,0,0,.585,2.73,2.174,2.174,0,0,0,1.823.745,3.72,3.72,0,0,0,1.99-.487,3.052,3.052,0,0,0,1.187-1.382v-8.945h2.259v12.408h-2.03Z" transform="translate(-927.976 -951.719)" fill="#12263f"/>
        </g>
        <g id="Grupo_874543" data-name="Grupo 874543" transform="translate(148.687 0.241)">
          <path id="Trazado_603440" data-name="Trazado 603440" d="M955.557,945.945v13.428a4.121,4.121,0,0,1-.986,2.953,3.6,3.6,0,0,1-2.741,1.038,3.77,3.77,0,0,1-.648-.051,5.067,5.067,0,0,1-.625-.155l.16-1.777a2.4,2.4,0,0,0,.459.1,3.815,3.815,0,0,0,.493.04,1.5,1.5,0,0,0,1.187-.5,2.465,2.465,0,0,0,.442-1.64V945.945Zm-.069-3.222H953.23v-2.259h2.259Z" transform="translate(-950.558 -940.463)" fill="#12263f"/>
        </g>
        <g id="Grupo_874544" data-name="Grupo 874544" transform="translate(156.634 5.493)">
          <path id="Trazado_603441" data-name="Trazado 603441" d="M966.876,957.567a6.827,6.827,0,0,1,1.491-4.535,5,5,0,0,1,4.047-1.783,5.049,5.049,0,0,1,4.077,1.778,6.808,6.808,0,0,1,1.5,4.541v.252a6.8,6.8,0,0,1-1.491,4.541,5.55,5.55,0,0,1-8.125-.005,6.787,6.787,0,0,1-1.5-4.536Zm2.259.252a5.885,5.885,0,0,0,.831,3.257,3,3,0,0,0,4.925,0,5.857,5.857,0,0,0,.837-3.257v-.252a5.831,5.831,0,0,0-.844-3.245,2.761,2.761,0,0,0-2.471-1.3,2.725,2.725,0,0,0-2.448,1.3,5.9,5.9,0,0,0-.831,3.245Z" transform="translate(-966.876 -951.248)" fill="#12263f"/>
        </g>
      </g>
      <g id="Grupo_874555" data-name="Grupo 874555" transform="translate(416.097 990.542)">
        <g id="Grupo_874546" data-name="Grupo 874546" transform="translate(0 0.952)">
          <path id="Trazado_603442" data-name="Trazado 603442" d="M447.848,1120.012l.023.068a5.016,5.016,0,0,1-1.651,3.933,6.311,6.311,0,0,1-4.484,1.582,5.887,5.887,0,0,1-4.615-2.006,7.378,7.378,0,0,1-1.783-5.091v-2.97a7.4,7.4,0,0,1,1.783-5.1,5.878,5.878,0,0,1,4.615-2.013,6.481,6.481,0,0,1,4.507,1.508,4.985,4.985,0,0,1,1.629,4l-.023.068H445.68a3.725,3.725,0,0,0-1.032-2.774,3.963,3.963,0,0,0-2.913-1.021,3.557,3.557,0,0,0-3.016,1.525,6.207,6.207,0,0,0-1.123,3.785v2.993a6.245,6.245,0,0,0,1.123,3.807,3.558,3.558,0,0,0,3.016,1.525,3.977,3.977,0,0,0,2.913-1.015,3.751,3.751,0,0,0,1.032-2.8Z" transform="translate(-435.337 -1108.418)" fill="#12263f"/>
        </g>
        <g id="Grupo_874547" data-name="Grupo 874547" transform="translate(14.735 5.252)">
          <path id="Trazado_603443" data-name="Trazado 603443" d="M473.645,1129.885q-.115-.561-.178-.992a7.365,7.365,0,0,1-.075-.865,5.258,5.258,0,0,1-1.645,1.5,4.21,4.21,0,0,1-2.185.6,4.055,4.055,0,0,1-2.953-.991,3.649,3.649,0,0,1-1.015-2.735,3.2,3.2,0,0,1,1.439-2.781,6.72,6.72,0,0,1,3.9-1h2.454v-1.227a2.277,2.277,0,0,0-.665-1.726,2.614,2.614,0,0,0-1.881-.637,2.731,2.731,0,0,0-1.778.55,1.652,1.652,0,0,0-.676,1.319l-2.145.023-.023-.069a2.969,2.969,0,0,1,1.267-2.477,5.253,5.253,0,0,1,3.481-1.124,5.125,5.125,0,0,1,3.394,1.072,3.8,3.8,0,0,1,1.284,3.091v5.974a11.514,11.514,0,0,0,.069,1.285,6.552,6.552,0,0,0,.252,1.215Zm-3.75-1.651a4.022,4.022,0,0,0,2.213-.631,3,3,0,0,0,1.284-1.445v-2.018h-2.534a3.287,3.287,0,0,0-2.185.688,2.058,2.058,0,0,0-.82,1.617,1.7,1.7,0,0,0,.516,1.307A2.159,2.159,0,0,0,469.9,1128.234Z" transform="translate(-465.595 -1117.248)" fill="#12263f"/>
        </g>
        <g id="Grupo_874548" data-name="Grupo 874548" transform="translate(28.072 5.252)">
          <path id="Trazado_603444" data-name="Trazado 603444" d="M503.553,1124.152a6.838,6.838,0,0,1-1.284,4.329,4.247,4.247,0,0,1-3.543,1.645,4.924,4.924,0,0,1-2.013-.384,3.85,3.85,0,0,1-1.474-1.153v6.066H492.98v-17.178h1.732l.355,1.605a4.1,4.1,0,0,1,1.514-1.365,4.52,4.52,0,0,1,2.11-.47,4.125,4.125,0,0,1,3.584,1.829,8.276,8.276,0,0,1,1.278,4.833Zm-2.259-.241a6.554,6.554,0,0,0-.831-3.468,2.693,2.693,0,0,0-2.448-1.359,3.015,3.015,0,0,0-1.663.441,3.307,3.307,0,0,0-1.112,1.21v6a3.215,3.215,0,0,0,1.112,1.2,3.125,3.125,0,0,0,1.686.429,2.781,2.781,0,0,0,2.431-1.175,5.161,5.161,0,0,0,.825-3.033Z" transform="translate(-492.98 -1117.248)" fill="#12263f"/>
        </g>
        <g id="Grupo_874549" data-name="Grupo 874549" transform="translate(40.331 2.489)">
          <path id="Trazado_603445" data-name="Trazado 603445" d="M522.385,1111.573v2.993h2.351v1.674h-2.351v7.535a1.687,1.687,0,0,0,.361,1.227,1.306,1.306,0,0,0,.958.355,2.07,2.07,0,0,0,.435-.052,3.276,3.276,0,0,0,.4-.109l.309,1.548a2,2,0,0,1-.745.338,3.751,3.751,0,0,1-.975.131,2.922,2.922,0,0,1-2.19-.831,3.607,3.607,0,0,1-.814-2.608v-7.535h-1.972v-1.674h1.972v-2.993Z" transform="translate(-518.153 -1111.573)" fill="#12263f"/>
        </g>
        <g id="Grupo_874550" data-name="Grupo 874550" transform="translate(48.908 5.252)">
          <path id="Trazado_603446" data-name="Trazado 603446" d="M543.816,1129.885q-.115-.561-.178-.992a7.242,7.242,0,0,1-.075-.865,5.254,5.254,0,0,1-1.646,1.5,4.206,4.206,0,0,1-2.184.6,4.055,4.055,0,0,1-2.953-.991,3.647,3.647,0,0,1-1.015-2.735,3.2,3.2,0,0,1,1.439-2.781,6.72,6.72,0,0,1,3.9-1h2.454v-1.227a2.277,2.277,0,0,0-.665-1.726,2.614,2.614,0,0,0-1.881-.637,2.73,2.73,0,0,0-1.778.55,1.652,1.652,0,0,0-.676,1.319l-2.145.023-.023-.069a2.969,2.969,0,0,1,1.267-2.477,5.253,5.253,0,0,1,3.481-1.124,5.126,5.126,0,0,1,3.394,1.072,3.8,3.8,0,0,1,1.284,3.091v5.974a11.536,11.536,0,0,0,.069,1.285,6.557,6.557,0,0,0,.252,1.215Zm-3.75-1.651a4.023,4.023,0,0,0,2.213-.631,3,3,0,0,0,1.284-1.445v-2.018h-2.534a3.286,3.286,0,0,0-2.185.688,2.057,2.057,0,0,0-.82,1.617,1.7,1.7,0,0,0,.516,1.307A2.16,2.16,0,0,0,540.066,1128.234Z" transform="translate(-535.766 -1117.248)" fill="#12263f"/>
        </g>
        <g id="Grupo_874551" data-name="Grupo 874551" transform="translate(61.717 5.252)">
          <path id="Trazado_603447" data-name="Trazado 603447" d="M567.527,1128.36a2.656,2.656,0,0,0,1.823-.693,2.193,2.193,0,0,0,.78-1.7h2.041l.035.068a3.565,3.565,0,0,1-1.376,2.85,5.258,5.258,0,0,1-7.339-.533,6.861,6.861,0,0,1-1.422-4.426v-.482a6.833,6.833,0,0,1,1.427-4.409,4.868,4.868,0,0,1,4.031-1.783,4.681,4.681,0,0,1,3.4,1.284,4.076,4.076,0,0,1,1.279,3.154l-.023.069h-2.052a2.738,2.738,0,0,0-.74-1.932,2.434,2.434,0,0,0-1.864-.8,2.609,2.609,0,0,0-2.425,1.29,6.038,6.038,0,0,0-.763,3.125v.482a6.154,6.154,0,0,0,.751,3.153A2.606,2.606,0,0,0,567.527,1128.36Z" transform="translate(-562.069 -1117.248)" fill="#12263f"/>
        </g>
        <g id="Grupo_874552" data-name="Grupo 874552" transform="translate(74.721 0)">
          <path id="Trazado_603448" data-name="Trazado 603448" d="M591.03,1108.768h-2.259v-2.305h2.259Zm0,15.584h-2.259v-12.407h2.259Z" transform="translate(-588.771 -1106.463)" fill="#12263f"/>
        </g>
        <g id="Grupo_874553" data-name="Grupo 874553" transform="translate(79.927 0.218)">
          <path id="Trazado_603449" data-name="Trazado 603449" d="M599.462,1118.263a6.831,6.831,0,0,1,1.491-4.535,5,5,0,0,1,4.048-1.783,5.049,5.049,0,0,1,4.077,1.777,6.808,6.808,0,0,1,1.5,4.541v.252a6.8,6.8,0,0,1-1.491,4.541,5.55,5.55,0,0,1-8.125-.005,6.786,6.786,0,0,1-1.5-4.536Zm2.259.252a5.884,5.884,0,0,0,.831,3.257,3,3,0,0,0,4.925,0,5.858,5.858,0,0,0,.837-3.257v-.252a5.835,5.835,0,0,0-.844-3.245,2.761,2.761,0,0,0-2.471-1.3,2.724,2.724,0,0,0-2.448,1.3,5.9,5.9,0,0,0-.831,3.245Zm4.392-11.6h2.638l.023.07-3.085,2.981h-1.7Z" transform="translate(-599.462 -1106.91)" fill="#12263f"/>
        </g>
        <g id="Grupo_874554" data-name="Grupo 874554" transform="translate(93.803 5.252)">
          <path id="Trazado_603450" data-name="Trazado 603450" d="M629.973,1117.478l.16,1.846a4.5,4.5,0,0,1,1.554-1.531,4.144,4.144,0,0,1,2.127-.545,4.051,4.051,0,0,1,3.107,1.176,5.16,5.16,0,0,1,1.1,3.629v7.832h-2.259V1122.1a3.356,3.356,0,0,0-.648-2.328,2.593,2.593,0,0,0-1.978-.688,3.505,3.505,0,0,0-1.772.418,3.041,3.041,0,0,0-1.153,1.176v9.208h-2.259v-12.407Z" transform="translate(-627.954 -1117.248)" fill="#12263f"/>
        </g>
      </g>
    </g>
    <g id="Grupo_874559" data-name="Grupo 874559" transform="translate(0 -10)">
      <rect id="Rectángulo_5140" data-name="Rectángulo 5140" width="5" height="28" transform="translate(265 6475)" fill="#81ad20"/>
      <text id="Imagen:_Captación_tipo_desvío_" data-name="Imagen: Captación tipo desvío " transform="translate(281 6494)" fill="#12263f" font-size="16" font-family="Roboto-Bold, Roboto" font-weight="700"><tspan x="0" y="0">Imagen:</tspan><tspan y="0" xml:space="preserve" font-family="Roboto-Regular, Roboto" font-weight="400"> Captación tipo desvío </tspan></text>
    </g>
  </g>
</svg>
