<svg xmlns="http://www.w3.org/2000/svg" width="783.064" height="433.781" viewBox="0 0 783.064 433.781">
  <g id="Grupo_873871" data-name="Grupo 873871" transform="translate(-77.594 -1284.242)">
    <path id="Trazado_600144" data-name="Trazado 600144" d="M570.888,1312.006c-5.813-14.316,17-12.527,21.025-1.342-1.789-6.262-4.02-14.763,3.136-18.788,5.812-3.581,13.865.447,13.865,7.159-1.343-17.447,21.025-21.024,19.237-2.24,10.288-9.395,19.236,2.24,13.869,12.975,10.288-13.869,15.655,8.05,11.182,17,4.473-9.844,20.577-9.844,12.972,0,9.4-5.37,26.844,3.131,13.869,11.181,12.975-4.025,12.08,21.025-3.578,20.578,9.84,4.924,1.34,27.287-9.4,22.814,11.186,6.262-6.71,17.894-14.76,10.737,4.023,13.866-29.079,21.025-30.867,4.022-6.265,17-49.205,3.583-35.788-9.392-4.027,10.739-24.6,4.026-29.969-1.341-4.921-4.473-9.843-22.813,1.34-21.021-23.708.444-4.023-35.344,7.159-24.608-4.921,4.477-9.394-2.684-8.948-7.6,0-4.473,8.948-16.106,12.077-9.842-12.077,5.369-9.394-20.133.452-11.631Z" transform="translate(-1.053 0)" fill="#5d8f2d"/>
    <g id="Grupo_873851" data-name="Grupo 873851" transform="translate(644.196 1298.835)">
      <path id="Trazado_600145" data-name="Trazado 600145" d="M677.971,1453.6c-5.951,28.731-19.546,58.669-32.5,82.729h0c9.159-3.124,18.223-8.986,25.854-15.628-1.4,9.026-6.017,15.931-7.984,24.934,11.364-4.562,20.064-13.9,26.646-19.687.917,7.4-1.587,15.251-2.377,22.59,8.7-6.537,14.328-11.667,17.956-22.428,2.049,7.428,5.756,17.474,10.683,23.29,2.1-5.4,6.7-13.81,8.7-23.093,6.019,6.974,9.9,15.584,18.272,19.8.257-8.5.462-15.165.706-23.656,7.8,4.764,13.813,11.746,22.817,14.28-1.535-5.709-4.915-12.955-6.816-19.5,5.892,6.849,14.483,9.523,21.794,11.44-10.906-14.487-20.081-33.081-28.125-48.623-7.007-12.113-8.244-25.922-13.551-37.974Z" transform="translate(-645.473 -1299.19)" fill="#005d41"/>
      <path id="Trazado_600146" data-name="Trazado 600146" d="M683.172,1412.894c-4,20.284-17.388,51.059-29.237,68.273,8.011-2.593,16.108-8.021,23.583-11.768-.762,6.779-4.931,13.457-6.849,20.772,10.086-3.577,15.037-9.532,21.094-20.805,2.647,6.318,6.453,14.932,9.681,20.7,3.528-4.422,5.106-12.682,8.433-20.528a106.785,106.785,0,0,0,9.895,19.746c1.872-5.612,4.09-15.093,5.935-20.136,5.413,8.654,9.8,13.326,15.381,16.313.155-5.087.359-12.712-1.651-20.447a74.882,74.882,0,0,0,20.613,11.956c-11.213-23.291-15.324-37.491-20.245-62.383Z" transform="translate(-645.492 -1299.125)" fill="#006c47"/>
      <path id="Trazado_600147" data-name="Trazado 600147" d="M694.843,1355c.186,12.755-4.545,29.059-8.862,40.542-4.759,13.929-8.71,26.1-19.922,41.068,7.727-2.6,14.146-8.647,21.329-12.113.089,6.232-1.793,12.415-3.1,18.325,5.614-7.49,11.759-14.1,17.361-21.583,2.324,8,1.162,18.161,4.625,25.641,2.561-9.564,7.05-17.651,10.727-26.887,5.852,12.926,9.109,17.266,14.915,22.267-1.948-10.548-1.258-14.774-2.185-21.6,5.466,6.684,12.3,15.1,21.022,17.342-6.328-15.773-10.691-31.2-15.021-47.771A392.394,392.394,0,0,0,721.433,1347Z" transform="translate(-645.519 -1298.976)" fill="#007b4e"/>
      <path id="Trazado_600148" data-name="Trazado 600148" d="M708.942,1299.982c-4.146,4.337-4.968,12.177-6.786,17.716-4.951,15.087-8,31.3-14.632,45.754-3.329,7.271-6.973,15.386-11.681,21.19a49.982,49.982,0,0,0,17.638-11.937,65.506,65.506,0,0,1-2.277,19.487c4.709-6.1,8.908-13.9,12.251-21.173,1.736,8.27,3.1,14.54,4.575,22.238,4.489-7.8,5.284-10.895,7.631-22.725a123.173,123.173,0,0,0,10.255,20.416c.489-6.787,1.175-14.413-.33-20.969,4.674,4.952,11.619,14.014,15.117,15.75-5.97-11.948-11.054-24.431-14.09-37.385-2.479-10.654-5.466-21.208-7.981-31.865-.9-3.772-3.964-17.53-7.007-17.609A3.4,3.4,0,0,0,708.942,1299.982Z" transform="translate(-645.541 -1298.868)" fill="#008e6c"/>
    </g>
    <g id="Grupo_873852" data-name="Grupo 873852" transform="translate(183.377 1336.016)">
      <path id="Trazado_600149" data-name="Trazado 600149" d="M301.468,1502.778c3.562,4.923,6.3,10.472,9.46,15.6,3.363,5.954,7.757,11.067,11.123,16.815-5.162.06-9.552-4.443-13.9-6.043a42.758,42.758,0,0,0,.062,11.367c.667,4.127,1.984,8.7,2.252,11.739-5.6-1.385-12.064-7.925-16.642-11.6-1.211,2.7-1.594,5.8-2.39,8.693-.594,1.872-2.366,8.069-3.821,9.755-.812.947-10.249-12.283-13.163-14.727-4.073,5.41-9.155,16.529-11.172,18.285-3.75-3.675-5.9-11.765-8.843-16.069-4.459,7.753-12.208,16.79-14.271,17.355-.852-2.886-1.644-18.818-1.644-18.818-1.653-.2-11.129,6.84-12.773,7.484-3.7,1.69-5.726,3.394-9.644,3.641,1.122-3.545,3.805-12.749,5-17.3-5.33,3.774-15.206,7.391-21.6,7.26,1.6-4.568,3.614-9.549,5.423-14.107-6.172,2.545-10.677,6.1-17.694,6.388,1.812-4.357,5.492-8.111,6.884-12.673-3.5,1.069-6.99,2.344-10.492,3.623,4.673-6.865,11-13.544,16.1-20.208,3.667-4.376,7.548-8.756,10.594-13.537,1.42-2.494,3.832-9.128,6.509-9.776Z" transform="translate(-183.615 -1336.47)" fill="#003e31"/>
      <path id="Trazado_600150" data-name="Trazado 600150" d="M287.134,1465.094c2.928,11.016,15.074,33.426,23.227,41.781-.2-.211-3.621.407-4.166.367a15.032,15.032,0,0,1-5.122-1.421c-2.41-1.113-6.727-2.4-8.281-4.615.9,2.317,1.974,4.633,2.974,6.921,1.033,2.355,2.8,5.175,3.373,7.583-2.354.328-10.512-5.177-14.708-10.329-.369,2.478.208,12.745-.532,15.05-2.627-.881-5.373-4.247-7.462-6.039-3.356-2.882-7.958-7.264-10.242-10.9-.026,2.768-6.059,15.352-8.891,18.054-1.571-2.929-3.357-6.166-4.031-9.447-.4-1.918-2.363-8.645-2.363-8.645s-14.133,16.365-13.707,17.395a47.568,47.568,0,0,1-2.545-8.557c-.389-3.893-1.815-5.365-2.554-9.255-8.337,6.908-11.48,8.247-19.517,10.93.994-5.528,4.093-11.059,5.091-16.585-5.258.371-12.229,4.31-17.834,4.694,1.71-3.591,6.684-10.8,9.367-16.151,3.265-6.534,10.106-18.44,13.209-23.346,2.75-4.58-.22-1.019,4.3-4.314,2.783-2.306,9.8-1.4,13.651-1.769,5.949-1.034,12.925-4.029,19.243-3.449,8.763.225,15.862,8.272,23.952,11.108Z" transform="translate(-183.651 -1336.396)" fill="#024e40"/>
      <path id="Trazado_600151" data-name="Trazado 600151" d="M280.689,1442.5c2.267,9.216,9.74,22.165,16.064,29.162h0c-5.971.6-10.364-4.239-15.279-6.63-.215,5.709,2.4,9.018,3,14.709-6.806-2.1-9.726-8.116-15.2-12.407-2.4,4.643-5.776,14.024-7.433,15.829-2.334-3.021-5-9.72-6.132-14.326-4.31,3.034-12.074,13.71-12.074,13.71a42.521,42.521,0,0,1-1.974-7.157c-.3-3.26-1.4-4.489-1.98-7.736-6.458,5.765-8.891,6.877-15.11,9.111.762-4.618,3.159-9.234,3.928-13.858-4.07.316-9.47,3.607-13.81,3.919,1.327-3,4.284-5.471,5.885-8.217,2.677-3.823,5.074-8.187,7.476-12.288,2.132-3.83,3.924-13.349,7.429-16.1,2.152-1.929,7.588-1.163,10.568-1.471,4.608-.859,10.021-3.366,14.909-2.869,6.789.192,12.291,6.924,18.559,9.3Z" transform="translate(-183.685 -1336.335)" fill="#035b4b"/>
      <path id="Trazado_600152" data-name="Trazado 600152" d="M274.424,1413.48c.063,6.248,3.947,14.268,6.449,19.4,3.324,6.484,6.1,12.241,10.77,16.81-5.694.6-9.823-3.973-14.463-6.1-.765,4.36,1.452,8.677,1.5,13.021-6.311-4.456-8.789-9.674-14.245-12.065-3.222,5.593-6.384,12.562-6.384,12.562-2.756-3.77-4.436-8.643-5.839-12.7-2.967,1.939-10.74,11.249-10.74,11.249s-2.532-8.113-2.565-11.1c-3.5,2.746-6.442,6.844-10.492,9.072.234-3.537,2.37-6.816,2.6-10.348-3.512,1.391-7.291,3.6-10.813,4.453,5.377-5.218,9.9-14.221,12.816-20.771,2.125-4.64,3.644-14.431,6.6-17.992Z" transform="translate(-183.697 -1336.297)" fill="#0e6a57"/>
      <path id="Trazado_600153" data-name="Trazado 600153" d="M265.1,1377.938c3.357,9.742,6.255,18.173,9.8,27.6,2.766,7.383,5.248,12.015,11.879,19.692-4.618-.223-8.453-3.172-12.278-5.569-.789,2.72-.215,5.973-.723,8.424-3.551-1.861-6.311-5.638-9.591-8.04-2.69,2.468-3.73,6.821-5.33,9.833-1.925-2.972-3.33-6.762-4.723-10-3.5,2.478-6.162,7.124-10.5,8.532a82.354,82.354,0,0,1-1.207-11.393c-4.582,2.77-8.622,6.063-14.309,7.481,3.182-6.82,7.436-16.1,9.529-23.185,1.571-5.173,5.255-16.341,6.01-21.785Z" transform="translate(-183.715 -1336.227)" fill="#02795f"/>
      <path id="Trazado_600154" data-name="Trazado 600154" d="M260.8,1356.925c4.555,17.93,8.39,21.421,15.057,35.472-2.749-3.235-6.859-6.442-10.139-9.125-.768,4.353.1,8.961.143,13.58-3.295-3.231-4.971-7.56-8.258-10.508a78,78,0,0,1-5.317,10.65c-.855-3.8-.9-7.864-2.294-11.657-2.694,1.931-5.107,5.214-8.344,7.152.512-2.992,1.565-5.993,2.347-8.986-3.238,2.475-5.65,5.221-9.427,7.161,6.142-9.571,8.849-15.816,13.4-29.722a203.905,203.905,0,0,0,7.195-24.809h0c.555,1.355.845,2.977,1.4,4.6Z" transform="translate(-183.73 -1336.133)" fill="#2f8c7d"/>
    </g>
    <g id="Grupo_873853" data-name="Grupo 873853" transform="translate(716.401 1361.08)">
      <path id="Trazado_600155" data-name="Trazado 600155" d="M840.644,1534.9c3.713,5.132,6.574,10.913,9.862,16.254,3.505,6.208,8.08,11.536,11.592,17.526-5.38.06-9.955-4.631-14.5-6.3a44.509,44.509,0,0,0,.073,11.845c.689,4.3,2.062,9.065,2.34,12.232-5.825-1.445-12.569-8.26-17.341-12.083-1.261,2.811-1.66,6.046-2.485,9.056-.624,1.956-2.465,8.411-3.984,10.167-.848.985-10.681-12.8-13.72-15.346-4.244,5.636-9.538,17.226-11.638,19.051-3.911-3.827-6.149-12.255-9.219-16.74-4.644,8.08-12.716,17.5-14.866,18.082-.891-3.008-1.719-19.611-1.719-19.611-1.72-.2-11.589,7.133-13.3,7.8-3.861,1.76-5.971,3.532-10.049,3.791,1.168-3.692,3.963-13.283,5.211-18.034-5.558,3.936-15.849,7.7-22.516,7.568,1.673-4.761,3.768-9.947,5.65-14.7-6.43,2.654-11.123,6.359-18.433,6.659,1.885-4.545,5.723-8.455,7.172-13.2-3.647,1.106-7.282,2.439-10.934,3.771,4.878-7.157,11.472-14.119,16.779-21.06,3.822-4.561,7.869-9.123,11.041-14.106,1.479-2.6,3.99-9.505,6.78-10.184Z" transform="translate(-717.84 -1361.604)" fill="#003e31"/>
      <path id="Trazado_600156" data-name="Trazado 600156" d="M825.711,1495.628c3.053,11.481,15.707,34.833,24.2,43.541-.211-.223-3.776.424-4.34.381a15.575,15.575,0,0,1-5.337-1.486c-2.511-1.151-7.01-2.5-8.63-4.81.937,2.419,2.056,4.83,3.1,7.217,1.077,2.455,2.921,5.394,3.512,7.905-2.452.338-10.954-5.4-15.324-10.765-.386,2.58.218,13.28-.555,15.68-2.74-.918-5.6-4.423-7.776-6.291-3.5-3.005-8.294-7.57-10.67-11.357-.033,2.881-6.315,15.993-9.265,18.812-1.64-3.051-3.5-6.428-4.2-9.847-.416-2-2.465-9.008-2.465-9.008s-14.73,17.053-14.282,18.125a50.126,50.126,0,0,1-2.65-8.915c-.409-4.055-1.892-5.589-2.664-9.644-8.686,7.2-11.964,8.594-20.341,11.39,1.04-5.764,4.264-11.519,5.3-17.282-5.479.385-12.737,4.49-18.579,4.895,1.783-3.74,6.961-11.255,9.757-16.828,3.406-6.815,10.532-19.223,13.767-24.331,2.867-4.771-.229-1.06,4.482-4.5,2.9-2.4,10.215-1.461,14.222-1.845,6.2-1.077,13.473-4.2,20.051-3.6,9.132.236,16.53,8.625,24.96,11.577Z" transform="translate(-717.878 -1361.527)" fill="#024e40"/>
      <path id="Trazado_600157" data-name="Trazado 600157" d="M819,1472.092c2.36,9.6,10.142,23.091,16.737,30.384h0c-6.218.629-10.8-4.413-15.925-6.906-.215,5.948,2.505,9.4,3.132,15.327-7.089-2.187-10.136-8.458-15.839-12.927-2.5,4.84-6.018,14.61-7.744,16.492-2.435-3.148-5.208-10.128-6.39-14.928-4.492,3.168-12.582,14.287-12.582,14.287a43.814,43.814,0,0,1-2.053-7.455c-.319-3.4-1.465-4.682-2.062-8.063-6.733,6.009-9.271,7.169-15.75,9.5.8-4.817,3.291-9.628,4.093-14.445-4.242.331-9.866,3.758-14.388,4.083,1.38-3.123,4.466-5.7,6.132-8.559,2.787-3.986,5.285-8.533,7.79-12.805,2.215-4,4.094-13.912,7.744-16.781,2.238-2.008,7.905-1.214,11.011-1.531,4.805-.894,10.439-3.508,15.535-2.991,7.073.2,12.81,7.212,19.341,9.7Z" transform="translate(-717.913 -1361.463)" fill="#035b4b"/>
      <path id="Trazado_600158" data-name="Trazado 600158" d="M812.461,1441.845c.073,6.51,4.122,14.869,6.726,20.217,3.466,6.755,6.358,12.748,11.223,17.513-5.932.625-10.239-4.139-15.074-6.358-.8,4.543,1.519,9.042,1.564,13.567-6.575-4.641-9.152-10.082-14.843-12.574-3.36,5.832-6.654,13.091-6.654,13.091-2.875-3.929-4.625-9-6.083-13.232-3.092,2.014-11.189,11.721-11.189,11.721s-2.637-8.461-2.677-11.57c-3.637,2.864-6.71,7.138-10.931,9.457.247-3.687,2.469-7.1,2.71-10.789-3.661,1.456-7.595,3.762-11.269,4.65,5.608-5.44,10.318-14.82,13.355-21.649,2.214-4.836,3.8-15.033,6.878-18.747Z" transform="translate(-717.926 -1361.424)" fill="#0e6a57"/>
      <path id="Trazado_600159" data-name="Trazado 600159" d="M802.755,1404.816c3.5,10.147,6.515,18.93,10.212,28.751,2.881,7.7,5.47,12.523,12.377,20.522-4.812-.236-8.806-3.3-12.792-5.806-.829,2.837-.225,6.23-.756,8.776-3.7-1.938-6.578-5.87-9.99-8.372-2.8,2.568-3.9,7.106-5.556,10.245-2.01-3.1-3.472-7.043-4.921-10.419-3.647,2.587-6.42,7.418-10.941,8.885a85.681,85.681,0,0,1-1.261-11.867c-4.776,2.889-8.977,6.314-14.908,7.8,3.324-7.106,7.753-16.779,9.925-24.156,1.647-5.395,5.476-17.033,6.271-22.7Z" transform="translate(-717.944 -1361.351)" fill="#02795f"/>
      <path id="Trazado_600160" data-name="Trazado 600160" d="M798.268,1382.918c4.746,18.683,8.746,22.32,15.692,36.966-2.868-3.374-7.143-6.718-10.566-9.516-.8,4.538.1,9.342.149,14.153-3.435-3.367-5.181-7.879-8.608-10.947a81.866,81.866,0,0,1-5.535,11.095c-.895-3.955-.945-8.194-2.4-12.144-2.8,2.01-5.314,5.429-8.687,7.455.528-3.118,1.627-6.247,2.445-9.364-3.376,2.577-5.889,5.441-9.829,7.46,6.4-9.973,9.225-16.481,13.975-30.97a212.826,212.826,0,0,0,7.489-25.851h0c.584,1.413.884,3.1,1.466,4.794Z" transform="translate(-717.959 -1361.253)" fill="#2f8c7d"/>
    </g>
    <g id="Grupo_873854" data-name="Grupo 873854" transform="translate(107.058 1352.576)">
      <path id="Trazado_600161" data-name="Trazado 600161" d="M137.977,1509.709c-5.33,29.132-18.351,59.679-30.853,84.265h0c9.172-3.367,18.179-9.5,25.728-16.379-1.2,9.138-5.7,16.218-7.476,25.352,11.36-4.87,19.922-14.492,26.438-20.5,1.1,7.444-1.245,15.428-1.869,22.863,8.632-6.814,14.183-12.123,17.6-23.072,2.241,7.454,6.218,17.511,11.334,23.263,1.981-5.5,6.436-14.1,8.234-23.514,6.245,6.9,10.361,15.5,18.919,19.551.053-8.575.1-15.306.149-23.891,7.977,4.625,14.225,11.529,23.371,13.879-1.683-5.724-5.261-12.964-7.347-19.514,6.116,6.773,14.846,9.269,22.269,11.032-11.35-14.37-21.044-32.922-29.533-48.421-7.36-12.056-8.931-25.964-14.572-38.011Z" transform="translate(-107.124 -1353.053)" fill="#005d41"/>
      <path id="Trazado_600162" data-name="Trazado 600162" d="M142.268,1468.5c-3.564,20.554-16.351,51.937-27.906,69.6,8.027-2.81,16.067-8.476,23.53-12.435-.611,6.858-4.661,13.7-6.424,21.124,10.1-3.842,14.942-9.974,20.8-21.492a230.5,230.5,0,0,0,10.258,20.666c3.459-4.55,4.852-12.929,8.027-20.919a107.521,107.521,0,0,0,10.456,19.693c1.752-5.705,3.766-15.333,5.515-20.469,5.664,8.612,10.209,13.222,15.9,16.119.043-5.149.07-12.849-2.148-20.6a75.754,75.754,0,0,0,21.093,11.572c-11.865-23.242-16.361-37.479-21.909-62.485Z" transform="translate(-107.14 -1352.99)" fill="#006c47"/>
      <path id="Trazado_600163" data-name="Trazado 600163" d="M152.68,1409.776c.489,12.876-3.9,29.442-7.987,41.138-4.479,14.161-8.176,26.542-19.143,41.915,7.74-2.813,14.076-9.061,21.249-12.729.237,6.281-1.519,12.578-2.707,18.568,5.5-7.684,11.536-14.509,17.018-22.195,2.531,8.02,1.6,18.309,5.274,25.773,2.357-9.707,6.7-17.977,10.192-27.393,6.206,12.912,9.6,17.222,15.583,22.128-2.222-10.6-1.621-14.885-2.713-21.757,5.666,6.616,12.766,14.956,21.615,17.013-6.757-15.767-11.526-31.247-16.278-47.862a395.25,395.25,0,0,0-15.454-43.289Z" transform="translate(-107.165 -1352.839)" fill="#007b4e"/>
      <path id="Trazado_600164" data-name="Trazado 600164" d="M165.615,1353.919c-4.08,4.476-4.726,12.4-6.433,18.043-4.637,15.339-7.327,31.775-13.683,46.524-3.193,7.415-6.681,15.692-11.3,21.665a50.44,50.44,0,0,0,17.52-12.471,66.151,66.151,0,0,1-1.835,19.728c4.618-6.27,8.664-14.244,11.865-21.658,1.948,8.305,3.472,14.606,5.142,22.336,4.344-7.988,5.077-11.119,7.163-23.119a124.681,124.681,0,0,0,10.839,20.366c.33-6.866.838-14.573-.828-21.158,4.835,4.891,12.057,13.869,15.625,15.545-6.311-11.926-11.734-24.4-15.1-37.4-2.756-10.7-6.02-21.279-8.806-31.978-1-3.793-4.416-17.6-7.489-17.611A3.424,3.424,0,0,0,165.615,1353.919Z" transform="translate(-107.185 -1352.73)" fill="#008e6c"/>
    </g>
    <path id="Trazado_600165" data-name="Trazado 600165" d="M169.564,1564.516c3.132-11.183-19.685-24.6-18.79-8.947-6.262-8.944-33.1-5.366-22.366,5.367-6.261-8.05-27.286-5.814-21.477,6.714-7.156,0-29.071,8.5-12.522,14.759-3.578.451-15.655,3.578-16.55,7.607-2.241,6.261,10.285,5.814,14.761,5.814,1.34,13.865,9.4,8.949,19.236,3.132-.449,4.028.445,9.395,4.472,11.184,7.159,2.684,7.608-4.923,12.526-5.817,4.472-.895,6.714,4.923,12.526,5.366,7.156.9,10.288-4.021,12.08-10.733,6.262,8.5,25.943,9.395,28.18-2.685,15.655,7.608,13.866-4.923,12.972-14.762-.446-6.71-2.684-26.394-12.077-12.077,3.581-4.029,4.475-8.056-1.789-8.95-3.578-.447-6.711,2.685-9.394,3.583Z" transform="translate(0 -0.594)" fill="#5d8f2d"/>
    <path id="Trazado_600166" data-name="Trazado 600166" d="M710.713,1539.915c-2.238-2.684-1.789-12.97,3.578-14.763,7.159-2.236,10.737,7.607,11.186,12.974,1.34-4.025,6.707-12.974,12.522-11.181,6.261,2.236,5.367,15.654,3.578,20.577,1.347-4.028,8.05-13.421,13.424-10.291,4.918,2.684,2.683,12.974.894,17,2.235-5.811,7.159-8.493,11.632-3.578,3.578,3.578,1.789,10.291,4.472,14.32.449-4.029,4.027-8.95,8.5-7.161,5.366,1.79,5.809,14.763,4.914,19.235.452-13.864,25.5-19.683,17.9.9,5.819-10.288,16.553-7.161,12.08,4.472,12.278-3.346,19.709,3,18.879,16.068-.624,9.966-11.166,13.82-19.034,7.989,2.485,11.611-16.995,10.055-17.226,4.711.357,8.166-7.792,11.91-14.462,8.188-2.126-1.188-2.614-2.983-4.842-2.687-1.423.191-2.344,2.585-4.691,2.6-1.125.006-9.5-4.41-9.09-5.039-5.98,9.356-12.611-6.914-13.2-11.347-9.38,2.917-17.635,7.918-28.042,6.361-8.948-.895-14.76-8.5-22.814-9.395-9.393-.895-16.1,2.236-25.5-3.133-4.473-2.236-11.628-9.4-2.684-12.078-25.047,3.13-12.968-34.894,6.714-30.865-11.632-9.4,16.552-12.975,22.813-10.734Z" transform="translate(-1.306 -0.541)" fill="#5d8f2d"/>
    <path id="Trazado_600167" data-name="Trazado 600167" d="M328.761,1387.16c-12.974,6.261-45.633-3.131-22.371-15.656-11.183,0-21.92-16.552-6.71-19.236-14.761-12.527,5.37-19.236,13.866-7.606-3.126-4.921-10.734-12.524-4.473-17.447,7.156-6.263,15.216,3.578,19.688,8.5-9.842-13.87,6.262-18.342,12.969-4.473-3.129-12.975,13.42-7.155,14.763,3.131.449-6.709-7.159-15.211-3.577-21.472,4.026-5.366,12.077-1.342,15.658,1.789-13.869-8.5,2.683-31.312,9.839-12.077-3.132-5.371,0-16.553,7.159-17.448,6.71-.894,7.6,7.158,8.5,12.525,3.578-17.447,19.682-7.156,24.157,3.134-.894-7.607,9.84-8.948,15.659-6.265,7.155,3.131,8.944,10.739,9.839,17.894,2.683-4.472,10.734-6.711,15.209-4.472,5.816,2.683,7.159,9.839,8.948,14.759,0-9.392,8.051,8.95,8.051,13.422.449,18.337-13.866,43.84-30.867,51.443-2.683,1.342-5.367,1.342-7.156,3.131-3.129,3.133-2.686,7.607-7.159,10.738-9.39,5.814-18.341.447-23.708-8.054-4.024,22.37-32.207,11.186-42.5,1.792.446,17.894-23.263,1.343-28.183-3.581Z" transform="translate(-0.482 -0.002)" fill="#5d8f2d"/>
    <path id="Trazado_600168" data-name="Trazado 600168" d="M373.587,1386.2c10.737-21.025,37.479-95.149,49.555-96.043,11.186-.9,26.506,4.654,37.23,6.576,27.435,4.92,89.37-3.853,104.226-4.473,10.74-.45,42.013,90.292,40.5,96.511-.688,2.833-2.591,5.311-6.509,7.271-16.549,8.052-35.335,6.71-52.782,9.394-19.685,2.683-41.155,4.919-61.286,4.919-16.552,0-34.444,0-50.548-1.788-15.212-1.789-33.55-1.789-47.416-8.5-5.819-2.238-10.291-6.266-16.107-8.5Z" transform="translate(-0.658 -0.013)" fill="#b0bcbc"/>
    <g id="Grupo_873855" data-name="Grupo 873855" transform="translate(458.222 1295.968)">
      <path id="Trazado_600169" data-name="Trazado 600169" d="M524.99,1381.4c-8.5-4.028-4.03-21.472-9.4-28.18-5.367-7.158-7.608,2.684-8.948,9.394-.895,4.92.446,25.5-8.5,20.578-7.6-4.03-4.922-25.5-8.948-32.655-8.945,3.128-2.235,28.625-8.945,30.414-5.37,1.345-6.71-30.414-9.843-33.994-4.98,2.262-7.439,8.434-8.829,15.13-1.089,16.035-2.191,32.091-2.5,48.158,8.622.229,17.3.233,25.645.233a422.944,422.944,0,0,0,50-3.472c-2.524-16.826-4.02-33.879-5.31-51C523.96,1362.029,528.462,1374.024,524.99,1381.4Z" transform="translate(-459.08 -1296.109)" fill="#41ceeb"/>
      <path id="Trazado_600170" data-name="Trazado 600170" d="M471.316,1328.5c.894-5.815,0-12.974,4.027-17.891,2.683,3.578,3.132,23.26,8.945,22.366,4.475-.447,4.921-18.789,8.5-22.366,1.789,3.128,4.472,19.236,9.394,18.785,4.023-.895,5.366-20.131,8.495-24.6,2.242,6.263,2.242,17.895,8.952,20.578,1.34-2.683,1.34-13.864,6.264-14.315.017,0,.037.007.053.007-.455-5.027-.944-10.055-1.512-15.069-21.021,1.843-44.951,3.271-60.493,1.256.1,3.849.106,7.7.086,11.552C468.943,1311,468.669,1322.552,471.316,1328.5Z" transform="translate(-459.091 -1295.994)" fill="#41ceeb"/>
      <path id="Trazado_600171" data-name="Trazado 600171" d="M525.889,1311.076c-4.924.451-4.924,11.632-6.264,14.315-6.71-2.683-6.71-14.315-8.952-20.578-3.129,4.474-4.472,23.71-8.495,24.6-4.922.45-7.6-15.658-9.394-18.786-3.581,3.578-4.027,21.919-8.5,22.367-5.813.894-6.262-18.789-8.945-22.367-4.027,4.917-3.133,12.076-4.027,17.891-2.647-5.951-2.374-17.5-7.288-19.7-.07,17.679-1.225,35.411-2.436,53.172,1.39-6.7,3.849-12.868,8.829-15.13,3.133,3.581,4.473,35.339,9.843,33.994,6.71-1.789,0-27.285,8.945-30.413,4.026,7.156,1.343,28.625,8.948,32.655,8.945,4.92,7.6-15.658,8.5-20.578,1.34-6.71,3.581-16.552,8.948-9.394,5.367,6.709.894,24.152,9.4,28.18,3.472-7.38-1.03-19.375,4.423-25.395-1.13-14.924-2.119-29.9-3.476-44.831C525.926,1311.083,525.906,1311.073,525.889,1311.076Z" transform="translate(-459.086 -1296.014)" fill="#7edef9"/>
    </g>
    <path id="Trazado_600172" data-name="Trazado 600172" d="M591.3,1391.487c6.713-7.6-.895-32.657,13.869-36.683,6.71-2.237,7.159,4.473,9.842,8.5,4.024,5.817,9.394,7.156,14.764,11.186,4.024,2.683,9.391,8.5,8.054,13.868-2.241,8.051-10.737,4.026-16.553,5.815-4.472,1.342-34.448,17-32.66-.447Z" transform="translate(-1.149 -0.158)" fill="#676e71"/>
    <g id="Grupo_873856" data-name="Grupo 873856" transform="translate(412.392 1365.153)">
      <path id="Trazado_600173" data-name="Trazado 600173" d="M417.97,1393.526c10.288-5.818,11.632-28.632,25.947-28.184,5.366.447,4.472,2.236,8.5,4.475,2.683,1.789,5.812,1.789,8.5,3.578,6.71,3.578,6.261,8.5,8.05,14.761,1.343,4.919,8.054,10.736,4.027,15.211-3.578,4.025-17,3.578-22.369,4.025-9.839.447-28.628,6.261-35.784-3.578-2.683-3.578-2.238-4.027,1.789-8.055Z" transform="translate(-413.147 -1365.335)" fill="#828f91"/>
      <path id="Trazado_600174" data-name="Trazado 600174" d="M434.568,1374.755s.346.19.914.557,1.333.958,2.238,1.594c.455.308.944.637,1.423,1.013s1.026.711,1.565,1.083a29.108,29.108,0,0,0,3.406,2.079,16.441,16.441,0,0,0,1.779.761,6.36,6.36,0,0,0,1.769.52,6.849,6.849,0,0,0,1.729.3c.561-.013,1.113.022,1.637.058a5.455,5.455,0,0,0,1.432-.125c.446-.058.835-.108,1.159-.148.664-.067,1.079-.087,1.079-.087s-.267.265-.8.7c-.267.212-.6.479-1,.753a4.333,4.333,0,0,1-1.436.8c-.574.194-1.214.4-1.914.569a6.02,6.02,0,0,1-2.245.135,6.466,6.466,0,0,1-2.393-.362,18.42,18.42,0,0,1-2.324-.859l-2.052-1.291a15.144,15.144,0,0,1-1.72-1.514,16.85,16.85,0,0,1-2.538-3.1,16.287,16.287,0,0,1-1.3-2.442C434.7,1375.127,434.568,1374.755,434.568,1374.755Z" transform="translate(-413.195 -1365.356)" fill="#6d6d6d"/>
    </g>
    <g id="Grupo_873857" data-name="Grupo 873857" transform="translate(343.405 1326.033)">
      <path id="Trazado_600175" data-name="Trazado 600175" d="M344,1384.042c9.394-11.63,19.236-24.158,27.735-36.236a38.485,38.485,0,0,0,5.815-8.947c.895-2.236.446-6.261,1.34-7.606,2.684-5.367,11.632-6.71,17-3.128,4.472,3.128,7.159,8.5,12.077,12.076,5.367,3.578,11.182,7.157,13.424,13.419a330.131,330.131,0,0,1,8.944,36.235c1.789,8.5,11.183,21.025-3.578,19.683-4.924-.447-8.5-2.683-13.869-2.683-6.261,0-12.526.894-18.787-.448-5.37-.894-8.951-3.578-13.424-5.816-4.023-1.789-8.05-2.239-11.628-3.578-4.476-1.788-7.6-5.369-11.635-7.158-3.578-2.237-7.6-2.237-11.179-3.578Z" transform="translate(-344.004 -1326.127)" fill="#90a1a4"/>
      <path id="Trazado_600176" data-name="Trazado 600176" d="M382.562,1352.786a40.494,40.494,0,0,1,3.763,3.522c.531.551,1.106,1.148,1.676,1.809.548.7,1.31,1.2,1.944,1.875,1.367,1.26,2.714,2.676,4.063,4.089a86.073,86.073,0,0,1,7.5,8.208,39.594,39.594,0,0,1,2.974,4.206,40.62,40.62,0,0,1-4.321-2.808,84.379,84.379,0,0,1-8.538-7.22c-1.4-1.558-2.8-3.113-4-4.639a14.859,14.859,0,0,1-1.65-2.238c-.452-.745-.845-1.477-1.208-2.15A40.41,40.41,0,0,1,382.562,1352.786Z" transform="translate(-344.091 -1326.187)" fill="#6d6d6d"/>
      <path id="Trazado_600177" data-name="Trazado 600177" d="M418.4,1356.372a6.267,6.267,0,0,1-.083.662,3.268,3.268,0,0,1-.974,1.6,5.109,5.109,0,0,1-2.317,1.239,8.189,8.189,0,0,1-2.812.209,10.192,10.192,0,0,1-4.612-1.7,7.622,7.622,0,0,1-1.726-1.559,10.837,10.837,0,0,1,2.271-.3,33.959,33.959,0,0,1,4.4.2,20.1,20.1,0,0,0,3.871.217,4.914,4.914,0,0,0,1.367-.307A6.4,6.4,0,0,1,418.4,1356.372Z" transform="translate(-344.143 -1326.195)" fill="#6d6d6d"/>
    </g>
    <g id="Grupo_873858" data-name="Grupo 873858" transform="translate(529.047 1321)">
      <path id="Trazado_600178" data-name="Trazado 600178" d="M530.064,1403.714c1.792-8.95,4.924-19.236,7.607-28.629,4.027-11.631,10.288-19.687,16.108-30.422,3.577-5.814,3.577-15.656,8.05-21.024,6.261-7.6,12.08,3.58,16.1,9.844,4.476,7.6,9.4,15.208,15.658,21.472,4.925,4.92,9.4,8.947,12.526,15.208,1.789,4.473,3.581,9.839,3.581,14.763.9,9.839-7.6,12.078-17,13.417-12.975,2.688-25.052,2.239-38.019,5.819-6.714,2.236-17.9,3.578-23.262,0Z" transform="translate(-530.064 -1321.083)" fill="#90a1a4"/>
      <path id="Trazado_600179" data-name="Trazado 600179" d="M565.932,1371.616s.2-.081.542-.173c.32-.112.858-.124,1.3-.3.456-.14.915-.253,1.479-.387.529-.1,1.107-.243,1.67-.331a20.672,20.672,0,0,1,3.4-.295,10.763,10.763,0,0,1,1.891.141,4.88,4.88,0,0,1-1.109,1.634,5.612,5.612,0,0,1-1.552,1.132,4.627,4.627,0,0,1-.99.434l-1.09.285a7.023,7.023,0,0,1-2.248-.033,5.234,5.234,0,0,1-1.931-.708,3.186,3.186,0,0,1-1.037-.938A5.545,5.545,0,0,1,565.932,1371.616Z" transform="translate(-530.145 -1321.193)" fill="#6d6d6d"/>
      <path id="Trazado_600180" data-name="Trazado 600180" d="M573.108,1350.993a5.386,5.386,0,0,1,1.1,1.234,3.858,3.858,0,0,1,.627,1.36,8.75,8.75,0,0,1,.231,1.74,5.319,5.319,0,0,1-1.139,3.082,4.277,4.277,0,0,1-1.274,1.084,6.845,6.845,0,0,1-.617-1.519c-.11-.411-.185-.855-.28-1.328a7.4,7.4,0,0,1-.067-1.426,8.829,8.829,0,0,1,.6-2.795A5.317,5.317,0,0,1,573.108,1350.993Z" transform="translate(-530.158 -1321.15)" fill="#6d6d6d"/>
      <path id="Trazado_600181" data-name="Trazado 600181" d="M544.414,1386.862s.287.1.752.3c.472.156,1.088.638,1.825.847a10.331,10.331,0,0,1,1.093.43c.347.176.848.25,1.251.434.838.345,1.8.578,2.719.9.955.246,1.889.569,2.813.8.911.28,1.782.5,2.551.745.766.265,1.426.421,1.9.61s.756.307.756.307a8.642,8.642,0,0,1-2.71,1.021,10.5,10.5,0,0,1-2.924.261,14.825,14.825,0,0,1-3.354-.5l-1.623-.653a7.083,7.083,0,0,1-1.483-.841,8.824,8.824,0,0,1-2.287-2.078,5.8,5.8,0,0,1-1.007-1.81C544.5,1387.152,544.414,1386.862,544.414,1386.862Z" transform="translate(-530.096 -1321.23)" fill="#6d6d6d"/>
      <path id="Trazado_600182" data-name="Trazado 600182" d="M586.543,1351.89a11.426,11.426,0,0,1,1.234,2.128,7.377,7.377,0,0,1,.67,2.5,6.879,6.879,0,0,1-.224,2.678,10.146,10.146,0,0,1-1,2.458c-.816,1.521-1.763,2.806-2.492,4.088a12.856,12.856,0,0,0-1.486,3.9l.02-.125.017,1.139c.079.392.139.79.194,1.191a19.531,19.531,0,0,0,.841,2.528,21.767,21.767,0,0,1,1.793,5.973l-.03-.161.267,3.014-.225,2.928a34.5,34.5,0,0,1-1.373,5.573l-.366-5.624-.35-2.69-.614-2.536-.03-.163a16.235,16.235,0,0,0-.855-2.428l-1.224-2.622a22.685,22.685,0,0,1-1.09-3c-.106-.563-.224-1.125-.293-1.7l.036-1.792v-.05l.02-.076a14.781,14.781,0,0,1,.835-2.614,14.121,14.121,0,0,1,1.32-2.3c.964-1.434,2.079-2.615,2.984-3.792a12.959,12.959,0,0,0,1.158-1.817,6.371,6.371,0,0,0,.636-2.011,7.856,7.856,0,0,0,.033-2.231A20.177,20.177,0,0,0,586.543,1351.89Z" transform="translate(-530.176 -1321.152)" fill="#6d6d6d"/>
    </g>
    <path id="Trazado_600183" data-name="Trazado 600183" d="M253.868,1588.361c-7.106-2.031-14.255-4.058-20.229-8.392-5.135-3.724-11.892-8.219-14.624-14.147-3.176-6.9-1.225-13.451,2.188-19.724,19.516-35.837,27.355-76.644,47.677-112.15,10.1-17.636,22.869-35.179,39.947-46.655,23.622-15.875,53.866-1.9,79.181,1.789,23.26,3.131,47.862,3.578,71.128,5.367,34.441,2.686,66.649,3.131,100.647-1.343,11.47-1.509,22.919-2.825,34.465-3.568,12.6-.812,25.226-4.041,37.917-2.508,16.72,2.018,24.365,18.66,31.7,31.72,8.549,15.22,16.411,30.8,24.57,46.221,7.469,14.13,15.809,27.943,19.866,43.55,3.129,12.524,6.71,25.946,8.05,38.918,1.347,10.736-3.132,15.658-12.522,21.027-28.183,15.653-60.837,18.337-92.6,21.916-24.6,2.687-49.205-.447-73.362-1.342-28.181-.894-55.021,1.789-82.31,6.265-25.5,4.025-51.446,7.6-76.944,7.6-21.4,0-42.854-1.428-64.212-2.677-10.04-.585-20.355-.583-30.316-1.951-7.426-1.025-13.605-4.313-20.517-6.882C260.423,1590.232,257.155,1589.295,253.868,1588.361Z" transform="translate(-0.314 -0.215)" fill="#bec9c9"/>
    <g id="Grupo_873859" data-name="Grupo 873859" transform="translate(174.149 1487.964)">
      <path id="Trazado_600184" data-name="Trazado 600184" d="M252.111,1611.951c-.459-.058-.914-.121-1.36-.194a62.474,62.474,0,0,0-12.549-.507c-11.083.394-22.166-.493-33.253-.493-12.08,0-29.527,6.261-30.421-9.841-1.789-24.156,11.635-50.1,23.266-70.679,7.6-13.42,22.365-38.024,38.468-41.6,7.6-1.345,15.658,4.025,22.369,6.71,10.284,4.476,18.341,8.5,25.048,17.895,12.08,17.447,21.919,36.679,32.659,55.02,8.882,15.176,5.357,29.161-10.951,36.282-7.77,3.392-16.321,4.982-24.705,5.93C271.6,1611.495,261.267,1613.085,252.111,1611.951Z" transform="translate(-174.366 -1488.423)" fill="#828f91"/>
      <path id="Trazado_600185" data-name="Trazado 600185" d="M205.914,1538.4s.158.932.352,2.566c.047.409.1.86.153,1.353.125.467.26.974.409,1.515a20.76,20.76,0,0,0,1.138,3.506,23.92,23.92,0,0,0,1.875,3.915,38.516,38.516,0,0,0,2.683,4.013,48.393,48.393,0,0,0,3.463,3.863,52.308,52.308,0,0,0,3.963,3.658c2.793,2.333,5.77,4.468,8.625,6.417,2.879,1.921,5.614,3.676,7.974,5.18,2.357,1.534,4.321,2.809,5.7,3.7s2.135,1.466,2.135,1.466-3.571-1.205-8.749-3.459a89.327,89.327,0,0,1-8.635-4.367,70.205,70.205,0,0,1-9.218-6.354,55.5,55.5,0,0,1-4.149-3.993,36.666,36.666,0,0,1-3.512-4.375,28.83,28.83,0,0,1-2.525-4.627c-.313-.776-.621-1.532-.914-2.264-.244-.748-.38-1.508-.558-2.211a15.43,15.43,0,0,1-.538-3.939c-.033-.584-.066-1.13-.093-1.637q.064-.74.122-1.354C205.775,1539.338,205.914,1538.4,205.914,1538.4Z" transform="translate(-174.436 -1488.535)" fill="#6d6d6d"/>
      <path id="Trazado_600186" data-name="Trazado 600186" d="M267.781,1537.506a5.907,5.907,0,0,1,1.059,1.965,7.671,7.671,0,0,1,.4,2.233,10.392,10.392,0,0,1-.208,2.548,9.62,9.62,0,0,1-.98,2.4,6.453,6.453,0,0,1-1.433,1.784,4.814,4.814,0,0,1-1.383.914,4.6,4.6,0,0,1-.591.237s.013-.255.06-.648c.059-.358.142-.87.24-1.484.214-1.158.442-2.582.8-3.975a31.486,31.486,0,0,1,1.164-3.944A14.957,14.957,0,0,1,267.781,1537.506Z" transform="translate(-174.569 -1488.533)" fill="#6d6d6d"/>
      <path id="Trazado_600187" data-name="Trazado 600187" d="M256.568,1513.744a6.285,6.285,0,0,1,.455,1.8,8.608,8.608,0,0,1-.353,3.53,9.449,9.449,0,0,1-2.161,3.056,5.189,5.189,0,0,1-1.519,1.007,7.632,7.632,0,0,1-.224-1.86,7.9,7.9,0,0,1,.692-3.252,13.8,13.8,0,0,1,.753-1.691,7.482,7.482,0,0,1,.97-1.381A6.214,6.214,0,0,1,256.568,1513.744Z" transform="translate(-174.542 -1488.48)" fill="#6d6d6d"/>
    </g>
    <g id="Grupo_873860" data-name="Grupo 873860" transform="translate(265.571 1484.402)">
      <path id="Trazado_600188" data-name="Trazado 600188" d="M268.678,1583.909c-1.789,0-2.683-8.05-2.683-11.628.894-13.869,14.76-23.265,22.814-33.552,6.261-8.05,8.5-17,13.417-25.05,4.472-7.6,11.634-13.422,18.341-19.236,5.367-4.921,10.288-10.739,18.339-9.394,9.846,1.789,16.552,12.525,20.582,21.024,4.918,10.288,8.051,20.131,14.761,29.971,4.921,7.6,11.631,15.655,14.764,24.156,4.026,10.291,10.733,30.418-.449,37.576-12.077,7.158-30.864,4.025-43.838,3.578-15.658-.447-30.865-.447-46.076-1.789-9.839-.894-25.052,0-29.075-10.737-.894-1.342-.894-2.685-1.346-4.027Z" transform="translate(-265.995 -1484.853)" fill="#90a1a4"/>
      <path id="Trazado_600189" data-name="Trazado 600189" d="M327.415,1502.085a26.769,26.769,0,0,0,1.712,3.137,18.1,18.1,0,0,0,2.152,2.619,18.651,18.651,0,0,0,2.578,2.087,24.438,24.438,0,0,0,2.9,1.632c1.027.442,2.05.909,3.123,1.277l3.281,1.018c2.228.6,4.509,1.127,6.826,1.632l-1.469.819.878-2.2.518-2.4.136-2.53c-.1-.833-.195-1.7-.267-2.616.429.766.858,1.579,1.247,2.43l.63,2.716.023,2.841c-.188.937-.409,1.887-.634,2.847l-.218.926-1.254-.106a34.97,34.97,0,0,1-14.285-3.855,21.838,21.838,0,0,1-3.143-2.232,16.538,16.538,0,0,1-2.551-2.917,13.849,13.849,0,0,1-1.636-3.456A13.35,13.35,0,0,1,327.415,1502.085Z" transform="translate(-266.133 -1484.891)" fill="#6d6d6d"/>
      <path id="Trazado_600190" data-name="Trazado 600190" d="M353.865,1530.782a6.68,6.68,0,0,1,1.6,1.068,9.73,9.73,0,0,1,2.271,2.969,10.61,10.61,0,0,1,.558,3.924,5.744,5.744,0,0,1-.4,1.878,7.807,7.807,0,0,1-1.445-1.285,8.565,8.565,0,0,1-1.743-3.033,10,10,0,0,1-.97-3.6A6.669,6.669,0,0,1,353.865,1530.782Z" transform="translate(-266.192 -1484.956)" fill="#6d6d6d"/>
    </g>
    <g id="Grupo_873861" data-name="Grupo 873861" transform="translate(556.96 1496.493)">
      <path id="Trazado_600191" data-name="Trazado 600191" d="M655.383,1548.6c-2.237-8.948-13.869-21.028-20.579-28.183-6.707-6.709-19.682-27.287-30.421-22.814-15.648,6.711-25.939,33.1-30.411,47.863-2.241,6.713-3.136,14.764-6.268,21.475-3.578,6.707-8.05,11.183-9.39,19.233-3.132,19.685,21.467,14.317,34,14.763,15.206.894,30.863,1.789,46.072,4.027,10.737,1.789,28.626,4.025,29.973-9.841.446-5.818-2.683-9.4-3.577-14.764-.453-4.472.894-8.5.442-12.524-.442-6.712-4.473-11.635-8.5-16.107Z" transform="translate(-558.041 -1496.971)" fill="#bec9c9"/>
      <path id="Trazado_600192" data-name="Trazado 600192" d="M628.7,1537.057a4.492,4.492,0,0,1,.459,1.14,29.273,29.273,0,0,1,.548,3.132,11.5,11.5,0,0,0,.386,1.793.391.391,0,0,0,.139.244l.043.077,0,.012h0c.139.176-.192-.233-.155-.189l.013.01.06.045.116.087c.316.229.609.493.92.746.621.515,1.258.63,1.832,1.04.6.353,1.426.7,2.132,1.05.7.406,1.482.7,2.215,1.048s1.452.717,2.175,1c1.419.666,2.753,1.208,3.9,1.743.578.262,1.1.417,1.581.625a6.485,6.485,0,0,0,1.241.435l1.174.28a11.111,11.111,0,0,1-1.168.392,4.482,4.482,0,0,1-1.429.174,11.852,11.852,0,0,1-1.852-.02,23.179,23.179,0,0,1-4.456-.828,17.073,17.073,0,0,1-2.426-.785c-.8-.335-1.637-.606-2.437-1.024-.8-.447-1.547-.784-2.376-1.317a14.909,14.909,0,0,1-2.238-1.738c-.265-.3-.541-.579-.782-.882l-.093-.111-.046-.056-.01-.014c.033.042-.3-.374-.165-.2l0-.015-.023-.054-.168-.449a2.568,2.568,0,0,1-.189-.815,8.029,8.029,0,0,1,.146-2.327c.224-1.315.551-2.36.715-3.055A6.392,6.392,0,0,0,628.7,1537.057Z" transform="translate(-558.197 -1497.061)" fill="#a8b0b0"/>
      <path id="Trazado_600193" data-name="Trazado 600193" d="M590.144,1534.78s.25-.293.715-.759c.426-.488,1.245-1.04,1.912-1.842.353-.389.722-.8,1.135-1.184s.779-.939,1.23-1.38c.875-.922,1.75-2.013,2.667-3.04a56.9,56.9,0,0,1,5.427-5.691,18.607,18.607,0,0,1,3.016-2.208,25.22,25.22,0,0,1-1.485,3.4,31.5,31.5,0,0,1-1.852,3.233,35.983,35.983,0,0,1-2.551,3.473,23.608,23.608,0,0,1-3.215,3.019,14.9,14.9,0,0,1-3.383,2.036,9.918,9.918,0,0,1-2.587.773C590.526,1534.736,590.144,1534.78,590.144,1534.78Z" transform="translate(-558.113 -1497.02)" fill="#a8b0b0"/>
    </g>
    <g id="Grupo_873862" data-name="Grupo 873862" transform="translate(617.852 1471.177)">
      <path id="Trazado_600194" data-name="Trazado 600194" d="M645.751,1607.538a16.072,16.072,0,0,0-4.549-1.78c-8.805-1.888-20.321-3.519-21.919-14.272-1.789-12.08,8.057-33.1,13.423-42.945,5.816-10.29,16.553-17,23.709-25.948,5.816-7.156,7.156-16.55,11.186-24.6,7.156-12.975,14.311-25.948,30.863-26.4,12.975,0,21.474,8.5,26.841,19.233,7.156,14.764,17.893,27.739,23.263,43.4,4.472,11.181,6.71,23.708,10.288,35.34,2.683,10.287,7.156,20.127,4.921,30.865-3.132,17.894-14.764,13.865-28.629,15.211-20.13,1.338-43.392,5.367-63.523,0-5.911-1.183-12.228-1.378-17.9-3.555C650.6,1610.891,648.365,1609,645.751,1607.538Z" transform="translate(-619.069 -1471.598)" fill="#90a1a4"/>
      <path id="Trazado_600195" data-name="Trazado 600195" d="M683.846,1491.324s.578.117,1.561.369a8.887,8.887,0,0,1,1.746.59c.651.278,1.466.587,2.215.992,1.57.755,3.317,1.764,5.155,2.7a22.862,22.862,0,0,0,2.819,1.284,13.736,13.736,0,0,0,2.875.839,13.129,13.129,0,0,0,1.4.066l.7.032a3.633,3.633,0,0,0,.684-.116,7.4,7.4,0,0,0,2.574-.9,20.726,20.726,0,0,0,2.344-1.591c.746-.611,1.449-1.188,2.1-1.722a29.647,29.647,0,0,1,4.693-3.432s-1.277,1.939-3.278,4.758a25.819,25.819,0,0,1-1.782,2.229,14.245,14.245,0,0,1-2.472,2.266,9.5,9.5,0,0,1-3.488,1.582,6.826,6.826,0,0,1-.978.2l-1,.019a14.739,14.739,0,0,1-2.013-.048,16.977,16.977,0,0,1-3.624-1.175,17.325,17.325,0,0,1-3.053-1.728,26.989,26.989,0,0,1-2.558-1.872c-.8-.606-1.489-1.2-2.149-1.762-.644-.54-1.237-1.034-1.762-1.471a14.349,14.349,0,0,0-1.426-1.123C684.3,1491.7,683.846,1491.324,683.846,1491.324Z" transform="translate(-619.215 -1471.64)" fill="#6d6d6d"/>
      <path id="Trazado_600196" data-name="Trazado 600196" d="M730.467,1554.992s.353.411.921,1.153l.991,1.355c.185.264.379.546.587.843q.214.522.443,1.094c.306.774.643,1.634.943,2.573a15.543,15.543,0,0,1,.522,2.951,12.783,12.783,0,0,1,.172,3.187c-.076,1.087-.152,2.188-.23,3.291-.261,1.069-.525,2.136-.782,3.187a14.207,14.207,0,0,1-1.087,2.972,20.685,20.685,0,0,1-2.759,4.84,15.546,15.546,0,0,1-2.64,2.9c-.693.637-1.107.969-1.107.969s.206-.5.568-1.371c.323-.883,1.03-1.953,1.486-3.444.26-.726.541-1.5.878-2.3.32-.8.469-1.723.775-2.6a54.248,54.248,0,0,0,1.33-5.68c.106-.982.212-1.962.314-2.927a15.655,15.655,0,0,0,.122-2.841c-.059-.908.1-1.86-.03-2.664s-.2-1.593-.277-2.343c-.036-.378-.069-.741-.1-1.088q-.154-.523-.287-.989c-.165-.627-.31-1.174-.432-1.623C730.566,1555.525,730.467,1554.992,730.467,1554.992Z" transform="translate(-619.311 -1471.785)" fill="#6d6d6d"/>
      <path id="Trazado_600197" data-name="Trazado 600197" d="M717.919,1579.65a7.956,7.956,0,0,1,.973,1.909,4.232,4.232,0,0,1,.353,2.065,13.949,13.949,0,0,1-.3,2.565,15.956,15.956,0,0,1-1.033,2.209,5.66,5.66,0,0,1-1.357,1.646,6.947,6.947,0,0,1-1.772,1.234,9.078,9.078,0,0,1,.053-2.132c.063-.589.244-1.207.326-1.893a12.321,12.321,0,0,1,.542-2.009,11.426,11.426,0,0,1,.584-1.845c.09-.308.307-.568.386-.9a6.779,6.779,0,0,1,.287-.931A7.939,7.939,0,0,1,717.919,1579.65Z" transform="translate(-619.284 -1471.841)" fill="#6d6d6d"/>
    </g>
    <g id="Grupo_873864" data-name="Grupo 873864" transform="translate(134.811 1392.028)">
      <g id="Grupo_873863" data-name="Grupo 873863">
        <path id="Trazado_600198" data-name="Trazado 600198" d="M764.476,1624.853c-8.925-14.174-51.446-19.238-65.761-21.474-24.6-3.578-48.756-7.6-73.808-8.5-12.974-.448-20.13-.448-33.1-.448s-31.312-.45-44.287-.45c3.314-1.085,6.621-2.217,9.7-3.423-6.538-.408-13.057-.809-19.543-1.051-28.181-.894-55.021,1.789-82.31,6.265-25.5,4.025-51.446,7.6-76.944,7.6-21.4,0-42.854-1.427-64.212-2.677-10.04-.586-20.355-.583-30.316-1.951a40.722,40.722,0,0,1-6.938-1.64l-14.2,1.51c-17.487,1.874-65.948,12.363-82.95,16.835-6.71,1.789-34,7.606-35.309,14.33-1.495,7.668,8.542,12.874,14.351,14.365,21.445,5.492,27.224,6.2,41.089,7.093-16.853,3.177-55.021,3.578-63.523,14.315-10.288,13.417,36.233,28.63,44.736,30.865,43.838,12.526,93.914,16.248,138.674,17.892,60.654,2.238,100.657,2.687,152.549,4.027,47.865.9,105.117.449,152.532-4.918,30.418-3.131,42.944-6.263,72.468-13.42,8.5-2.238,38.023-13.42,40.709-23.26,2.235-11.185-14.083-19.239-21.684-20.134-10.738-1.789-23.5-5.814-34.231-6.262C699.914,1647.124,772.077,1636.932,764.476,1624.853Z" transform="translate(-134.94 -1392.714)" fill="#93e5f9"/>
        <path id="Trazado_600199" data-name="Trazado 600199" d="M407.2,1447.712c1.789-4.473,13.421-40.707,19.236-29.075,4.473,9.84-8.053,46.522,1.789,45.627,4.027-.447,7.6-17,9.84-25.949,2.238-6.261,2.238-18.783,8.948-22.366,2.237,12.528-4.024,25.5-3.129,38.472.445,2.236.445,11.185,5.366,9.843,3.133-.894,3.133-11.632,3.578-14.316.449-4.476.895-40.707,9.4-38.918,4.472.894,0,24.6,3.129,28.181,5.367-6.71.449-20.574,9.843-24.156,4.472,6.266-1.344,17.447,4.921,23.26,2.235-4.022,8.5-34.441,12.526-19.678,4.921,18.34-11.183,42.05.445,59.941,6.265,4.025,5.371-19.235,6.265-27.288.895-9.4,3.129-21.472,7.6-29.525.894,6.712-.895,25.052,5.366,29.078,4.03-8.5-2.683-25.5,8.952-31.312.689,1.244,1.6,3.914,2.753,6.732.675-4.205,1.409-8.4,2.277-12.577,1.264-6.08,2-12.792,5.63-17.924-23.975,1.385-47.607.65-72.391-1.285-11.779-.905-23.9-1.471-36.02-2.206a49.882,49.882,0,0,0-7.373,2.653c-9.231,4.926-14.651,16.831-17.866,28.153C398.714,1436.8,402.332,1449.613,407.2,1447.712Z" transform="translate(-135.532 -1392.271)" fill="#c3f2ff"/>
        <path id="Trazado_600200" data-name="Trazado 600200" d="M314.532,1600.3c21.358,1.249,42.812,2.677,64.212,2.677,25.5,0,51.446-3.578,76.944-7.6,27.289-4.476,54.129-7.159,82.31-6.265,6.485.242,13,.643,19.543,1.051,9.842-3.86,17.394-8.556,15.347-15.363-8.5-7.608-27.286,4.025-36.679,6.262,4.472-4.473,29.075-15.659,23.263-22.814-4.855-5.971-24.607,8.944-28.184,13.418,10.743-14.312,20.579-17.891,25.946-26.392,3.132-5.367,3.987-11.933-3.578-10.734-5.473.865-23.708,22.363-33.1,28.63-1.456-17.9-.8-25.125-1.1-37.046-.829-33.214-.994-66.908,4.3-99.816-1.152-2.818-2.063-5.488-2.753-6.732-11.635,5.811-4.922,22.813-8.952,31.311-6.261-4.026-4.472-22.366-5.366-29.078-4.473,8.054-6.707,20.13-7.6,29.525-.894,8.052,0,31.313-6.265,27.288-11.628-17.891,4.476-41.6-.445-59.941-4.027-14.763-10.291,15.656-12.526,19.678-6.265-5.814-.449-16.995-4.921-23.26-9.394,3.582-4.476,17.447-9.843,24.156-3.129-3.579,1.343-27.287-3.129-28.181-8.5-1.789-8.948,34.442-9.4,38.918-.445,2.684-.445,13.422-3.578,14.316-4.921,1.342-4.921-7.607-5.366-9.843-.9-12.971,5.366-25.945,3.129-38.472-6.71,3.583-6.71,16.106-8.948,22.366-2.235,8.95-5.813,25.5-9.84,25.949-9.842.895,2.684-35.787-1.789-45.627-5.815-11.632-17.447,24.6-19.236,29.075-4.868,1.9-8.486-10.916-8.918-24.636a133,133,0,0,0-3.159,14.345c-4.921,31.316-4.189,49.653-1.567,88.125.611,8.973,1.567,23,2.462,40.264-2.684-5.37-15.658-23.265-22.369-23.265-13.866.448,7.156,25.054,9.394,29.971-4.027-2.233-32.655-29.523-30.414-13.419,1.336,9.4,12.971,18.342,20.127,21.92l12.08,8.051c-45.234,1.646-56.9,2.286-107.285,7.6a40.724,40.724,0,0,0,6.938,1.64C294.177,1599.719,304.492,1599.716,314.532,1600.3Z" transform="translate(-135.26 -1392.313)" fill="#7edef9"/>
      </g>
      <path id="Trazado_600201" data-name="Trazado 600201" d="M419.324,1504.774l.631,7.093.37,7.121c.191,4.745.452,9.48.742,14.2l.591,7.052c.294,2.335.654,4.656.977,6.979.463,2.294,1.02,4.563,1.522,6.841.709,2.211,1.5,4.394,2.235,6.587l-2.565.238c1.235-7.617,1.317-15.548,2.056-23.493a80.312,80.312,0,0,1,1.9-11.938,42.332,42.332,0,0,1,1.928-5.862,31.214,31.214,0,0,1,3.033-5.509l2.1-3.078.861,3.658c1.545,6.552.974,12.913,1.211,19.1a54.864,54.864,0,0,0,.848,9.093c.106.749.35,1.441.518,2.164s.476,1.379.7,2.074a16.939,16.939,0,0,0,2.092,3.713l-2.534.312,1.488-4.024.991-4.255c.472-2.908.918-5.861,1.3-8.854l.682-4.512.954-4.516,1.44-4.439,2.128-4.2,1.021-2.016.772,2.091.858,2.33a17.611,17.611,0,0,1,.772,2.341l.495,2.39a20.622,20.622,0,0,1,.422,2.387c.162,1.6.347,3.2.439,4.8l.179,4.784.142,9.525.2,4.746c.132,1.577.33,3.149.495,4.731-.28-1.559-.6-3.121-.855-4.693l-.511-4.749-.677-9.5-.445-4.716c-.169-1.569-.469-3.106-.67-4.659a19,19,0,0,0-.486-2.279l-.545-2.258a15.513,15.513,0,0,0-.8-2.145l-.852-2.114,1.793.075-1.822,3.924-1.2,4.2-.762,4.351-.515,4.441c-.273,2.994-.624,6.01-1.108,9.049l-1.007,4.552-1.594,4.466-.888,2.489-1.646-2.177a19.86,19.86,0,0,1-2.572-4.426c-.273-.79-.64-1.567-.835-2.371s-.478-1.6-.6-2.4a58.545,58.545,0,0,1-1.017-9.615c-.243-6.315.037-12.65-1.234-18.394l2.964.579a27.943,27.943,0,0,0-2.727,4.831,39.306,39.306,0,0,0-1.828,5.373,76.465,76.465,0,0,0-1.945,11.44c-.874,7.778-.864,15.737-2.471,23.7l-1.06,5.237-1.511-5c-.7-2.327-1.446-4.639-2.1-6.965-.443-2.372-.935-4.733-1.331-7.1-.247-2.387-.535-4.767-.752-7.149l-.35-7.151c-.059-4.764-.033-9.513.034-14.26Q419.464,1511.9,419.324,1504.774Z" transform="translate(-135.579 -1392.524)" fill="#c3f2ff"/>
      <path id="Trazado_600202" data-name="Trazado 600202" d="M466.849,1504.329s.749,2.73,1.427,6.857a125.49,125.49,0,0,1,1.492,15.236c.129,2.758.27,5.515.28,8.111.056,1.292-.033,2.561.04,3.74s.072,2.3.083,3.344c.059,4.153-.192,7-.192,7s-.872-2.671-1.74-6.792a54.356,54.356,0,0,1-1.161-7.08c-.3-2.6-.485-5.383-.683-8.167-.25-5.525-.139-11.066-.046-15.256C466.47,1507.139,466.849,1504.329,466.849,1504.329Z" transform="translate(-135.684 -1392.523)" fill="#c3f2ff"/>
      <path id="Trazado_600203" data-name="Trazado 600203" d="M480.3,1517.33a35.487,35.487,0,0,1,1.067,5.207c.448,3.169.7,7.329.841,11.453.112,2.043.112,4.115.26,6.01.047.959.09,1.885.133,2.764.109.862.175,1.69.227,2.462.053,1.567.373,2.8.452,3.733.1.94.152,1.476.152,1.476s-.3-.436-.782-1.242a16.636,16.636,0,0,1-1.709-3.518,25.9,25.9,0,0,1-1.43-5.328,47.8,47.8,0,0,1-.679-6.23,75.679,75.679,0,0,1,.6-11.543C479.809,1519.442,480.3,1517.33,480.3,1517.33Z" transform="translate(-135.713 -1392.552)" fill="#c3f2ff"/>
      <path id="Trazado_600204" data-name="Trazado 600204" d="M492.4,1522.261s.316.323.818.914a12.1,12.1,0,0,1,1.839,2.619,19.494,19.494,0,0,1,1.759,4.3,33.4,33.4,0,0,1,1.07,5.1c.129,1.745.307,3.5.26,5.12a43.391,43.391,0,0,1-.211,4.439,35.073,35.073,0,0,1-.615,4.354,25.69,25.69,0,0,1-1.32-4.217,84.772,84.772,0,0,1-1.472-9.3c-.229-1.65-.36-3.333-.615-4.858-.142-.756-.162-1.547-.3-2.225s-.247-1.33-.34-1.95c-.119-1.247-.551-2.322-.66-3.081C492.468,1522.709,492.4,1522.261,492.4,1522.261Z" transform="translate(-135.743 -1392.563)" fill="#c3f2ff"/>
      <path id="Trazado_600205" data-name="Trazado 600205" d="M410.282,1595.342c-6.262,4.919-26.4,2.683-34.448-.447,1.343,9.839,22.816,8.05,30.418,8.5.452,9.393,18.793,9.844,25.5,9.844,8.054,0,12.526-4.476,19.236-4.476,5.816-.447,11.632,1.342,17.447.9,8.5-.447,14.764-3.578,22.814-5.816,10.289-3.13,28.184,2.679,36.237-5.366-8.053,1.341-17.447,2.236-25.5.447-3.578-.9-6.711-3.578-10.289-2.684-4.921.895-9.842,5.814-15.658,6.709-9.394,1.342-19.236-.447-28.629,0-11.631.447-22.814-.9-32.209-6.709Z" transform="translate(-135.481 -1392.726)" fill="#c3f2ff"/>
      <path id="Trazado_600206" data-name="Trazado 600206" d="M544.781,1617.308c-5.812,6.265-25.943,5.817-34.893,5.817,5.373,1.344,39.366,8.947,34.893-5.817Z" transform="translate(-135.783 -1392.777)" fill="#c3f2ff"/>
      <path id="Trazado_600207" data-name="Trazado 600207" d="M383.445,1621.346c-19.682,16.1,28.184,14.763,34.447,14.763,11.632,14.313,54.572,8.5,63.969-6.712-9.4,1.345-18.787,5.367-28.629,6.261-6.71.9-12.974-.443-19.685-2.232-6.261-2.24-5.367-.9-10.285-.451-8.951.451-20.13-.444-27.737-5.367-2.683-1.789-12.972-3.13-12.08-6.262Z" transform="translate(-135.488 -1392.786)" fill="#c3f2ff"/>
    </g>
    <g id="Grupo_873865" data-name="Grupo 873865" transform="translate(623.208 1590.805)">
      <path id="Trazado_600208" data-name="Trazado 600208" d="M626.672,1616.031c11.186-4.025,14.315-18.338,24.158-22.811,4.918-2.24,12.526.444,17.892-.451,16.1-2.232,26.395-2.683,38.917,8.5,3.133,3.13,12.08,10.286,12.08,14.759.449,6.713-11.185,5.368-16.552,5.368-17.893.451-34.893-.444-52.786-1.338-5.367-.453-23.708,3.578-25.943-.453Z" transform="translate(-624.438 -1591.495)" fill="#bec9c9"/>
      <path id="Trazado_600209" data-name="Trazado 600209" d="M688.49,1608.9a26.952,26.952,0,0,1-4.1.75c-.611.073-1.277.153-1.977.187a12.611,12.611,0,0,1-2.245-.076c-1.574-.1-3.248-.348-4.924-.586-1.614-.462-3.215-.972-4.677-1.536a13.686,13.686,0,0,1-3.811-1.983,24.5,24.5,0,0,1-3.311-2.569,29.071,29.071,0,0,1,4.076.787c.585.146,1.207.309,1.845.52.651.183,1.393.231,2.109.411,1.462.262,2.967.7,4.486,1.071,1.531.279,3.059.553,4.488.933.729.135,1.393.429,2.1.52.693.109,1.347.257,1.948.394A26.718,26.718,0,0,1,688.49,1608.9Z" transform="translate(-624.526 -1591.522)" fill="#a8b0b0"/>
    </g>
    <g id="Grupo_873866" data-name="Grupo 873866" transform="translate(570.623 1579.582)">
      <path id="Trazado_600210" data-name="Trazado 600210" d="M571.761,1615.436c5.367-4.022,11.628-11.182,17.9-15.655,5.812-4.472,5.812-6.712,9.39-12.973,7.608-14.313,19.689-1.791,27.739,5.367,4.921,4.028,7.156,6.265,8.5,12.975.446,2.683,4.921,12.526,4.472,14.315-1.34,8.5-34,4.921-40.709,4.472-6.261,0-28.18-.895-27.285-8.05Z" transform="translate(-571.734 -1580.248)" fill="#828f91"/>
      <path id="Trazado_600211" data-name="Trazado 600211" d="M599.108,1604.756s.363.135.958.412c.6.252,1.409.767,2.376,1.208.984.424,1.975,1.008,3.182,1.513,1.152.569,2.416,1.088,3.664,1.638,2.531,1.04,5.112,2.091,7.1,2.96a29.556,29.556,0,0,1,3.308,1.664,16.879,16.879,0,0,1-3.736.229,20,20,0,0,1-3.779-.466,25.209,25.209,0,0,1-4.206-1.277l-2.013-1.01a13.775,13.775,0,0,1-1.843-1.182,16.526,16.526,0,0,1-2.92-2.595,12.7,12.7,0,0,1-1.575-2.187C599.28,1605.1,599.108,1604.756,599.108,1604.756Z" transform="translate(-571.796 -1580.303)" fill="#6d6d6d"/>
    </g>
    <g id="Grupo_873867" data-name="Grupo 873867" transform="translate(192.64 1585.51)">
      <path id="Trazado_600212" data-name="Trazado 600212" d="M211.252,1617.238c-5.815,0-18.787-1.338-18.341-9.392.448-6.71,7.608-7.157,11.186-11.182,4.918-5.371,4.918-11.634,13.865-10.292,6.265.895,31.758,18.341,26.391,25.5-2.683,3.578-24.154,5.367-28.625,6.261h-2.687Z" transform="translate(-192.9 -1586.189)" fill="#bec9c9"/>
      <path id="Trazado_600213" data-name="Trazado 600213" d="M211.293,1599.377a14.1,14.1,0,0,1,2.667,1.292c.373.222.775.464,1.168.752.393.307.865.462,1.278.753a27.354,27.354,0,0,1,2.554,1.735,28.181,28.181,0,0,1,2.6,1.745c.423.268.762.674,1.172.887a13.24,13.24,0,0,1,1.1.746,15.915,15.915,0,0,1,2.231,1.929,12.544,12.544,0,0,1-2.98-.139,8.816,8.816,0,0,1-2.924-.8,33.113,33.113,0,0,1-3.1-1.577,32.782,32.782,0,0,1-2.637-2.322,9.38,9.38,0,0,1-1.819-2.339A14.023,14.023,0,0,1,211.293,1599.377Z" transform="translate(-192.941 -1586.219)" fill="#a8b0b0"/>
    </g>
    <path id="Trazado_600214" data-name="Trazado 600214" d="M347.582,1676.017c5.367-14.312,18.791-11.628,31.312-8.5,5.37,1.342,27.287,9.4,14.764,13.87-4.921,1.789-10.291-.9-14.764-1.347-4.472,0-8.944.9-12.971,1.347-5.367.443-19.236,4.021-21.92-1.347Z" transform="translate(-0.599 -0.856)" fill="#bec9c9"/>
    <path id="Trazado_600215" data-name="Trazado 600215" d="M630.94,1684.529c8.5-2.233,18.787-11.182,29.075-13.419,6.713-1.342,19.236,6.712,17,14.764-1.789,6.261-47.861,7.156-48.31,0Z" transform="translate(-1.239 -0.869)" fill="#bec9c9"/>
    <path id="Trazado_600216" data-name="Trazado 600216" d="M455.628,1619.015c-.9,1.789-2.684-.9-4.024-3.127-2.687-5.371-1.343-9.843,2.235-13.87,4.03-4.919,9.842-9.392,14.315-13.866,3.577-4.027,10.291-8.5,16.1-6.71,4.026.894,12.974,8.946,16.107,12.08,4.472,4.025,6.261,10.286,7.6,16.549,3.136,13.868-11.628,9.839-21.471,11.185-9.839.894-19.236-.9-29.078-.451Z" transform="translate(-0.838 -0.667)" fill="#a5b4b6"/>
    <path id="Trazado_600217" data-name="Trazado 600217" d="M644.392,1565.3a8.6,8.6,0,0,1,1.719,1.451,5.484,5.484,0,0,1,1.251,1.8,19.118,19.118,0,0,1,.917,2.479,12.148,12.148,0,0,1-.013,4.66,8.356,8.356,0,0,1-.74,2.136,8.789,8.789,0,0,1-1.188-1.9,17.5,17.5,0,0,1-1.359-4.176,12.545,12.545,0,0,1-.383-2.113c-.066-.349,0-.705-.1-1.063a7.853,7.853,0,0,1-.142-1.017A8.624,8.624,0,0,1,644.392,1565.3Z" transform="translate(-1.274 -0.632)" fill="gray"/>
    <path id="Trazado_600218" data-name="Trazado 600218" d="M463.265,1614.613s.554-.019,1.512,0c.951,0,2.327.153,3.908.125.8.009,1.643.015,2.531.071.9.009,1.858-.054,2.835-.021s1.987,0,3.014-.048l3.1-.1c2.063-.168,4.146-.232,6.069-.514.958-.155,1.928-.143,2.8-.323s1.716-.3,2.5-.412c1.6-.163,2.826-.621,3.782-.751l1.5-.261s-.429.333-1.221.876a17.966,17.966,0,0,1-3.475,1.988c-.76.327-1.588.68-2.486,1.011a21.183,21.183,0,0,1-2.878.8,20.3,20.3,0,0,1-3.139.609l-3.278.347a41.852,41.852,0,0,1-6.462-.263,29.385,29.385,0,0,1-5.545-1.114,21.437,21.437,0,0,1-3.7-1.373C463.757,1614.869,463.265,1614.613,463.265,1614.613Z" transform="translate(-0.867 -0.738)" fill="gray"/>
    <path id="Trazado_600219" data-name="Trazado 600219" d="M479.4,1595.342a7.868,7.868,0,0,1,2.085-.466c.6-.076,1.32-.039,1.974-.133a11.4,11.4,0,0,1,2.027.024,17.032,17.032,0,0,1,4.023.651,8.4,8.4,0,0,1,1.967.818,7.252,7.252,0,0,1-1.835,1.117,10.2,10.2,0,0,1-4.356.785,16.411,16.411,0,0,1-2.422-.488,5.283,5.283,0,0,1-1.855-.9A7.882,7.882,0,0,1,479.4,1595.342Z" transform="translate(-0.903 -0.698)" fill="gray"/>
    <g id="Grupo_873868" data-name="Grupo 873868" transform="translate(233.146 1569.843)">
      <path id="Trazado_600220" data-name="Trazado 600220" d="M241.315,1619.886c-1.789,1.346-6.71.451-7.6-3.127-1.789-5.367,8.05-9.395,11.628-12.08,10.291-7.6,15.213-21.471,29.078-24.155,2.238-.447,4.922,1.342,6.265.447,3.129-1.341,4.476-5.814,6.707-7.6,4.924-3.578,8.057-3.578,12.975-1.345,5.816,2.684,11.182,7.607,17,11.185,6.707,4.025,17.447,7.6,22.814,13.422,6.262,6.261,4.473,17.89-3.135,23.257-8.493,5.372-22.362.451-30.864,0-19.686-1.338-46.522,9.848-64.418.451Z" transform="translate(-233.496 -1570.486)" fill="#a5b4b6"/>
      <path id="Trazado_600221" data-name="Trazado 600221" d="M254.784,1605.64a23.5,23.5,0,0,1,3.667-1.249c.555-.149,1.151-.308,1.789-.429.657-.094,1.247-.416,1.911-.568,1.3-.416,2.687-.729,4.077-1.046,1.416-.368,2.832-.781,4.2-1.031s2.647-.522,3.772-.7a23.534,23.534,0,0,1,3.848-.343,22.631,22.631,0,0,1-3.212,2.177,34.771,34.771,0,0,1-7.776,3.172c-1.551.284-3.1.573-4.558.719a10,10,0,0,1-2.076.128c-.647-.024-1.264-.09-1.832-.152A23.3,23.3,0,0,1,254.784,1605.64Z" transform="translate(-233.544 -1570.553)" fill="gray"/>
      <path id="Trazado_600222" data-name="Trazado 600222" d="M282.581,1585.925a43.333,43.333,0,0,1,5.311,1.787c3.1,1.191,7.106,2.992,11.089,4.468a25.605,25.605,0,0,0,5.757,1.588c1.808.167,3-.114,3.554-1.358a9.562,9.562,0,0,0,.671-3.6c.007-.98.01-1.541.01-1.541s.254.5.653,1.426a8.049,8.049,0,0,1,.512,4.322,4.125,4.125,0,0,1-1.962,2.834,6.834,6.834,0,0,1-3.548.893,20.17,20.17,0,0,1-6.816-1.393,48.713,48.713,0,0,1-10.842-5.94A52.805,52.805,0,0,1,282.581,1585.925Z" transform="translate(-233.606 -1570.521)" fill="gray"/>
      <path id="Trazado_600223" data-name="Trazado 600223" d="M329.649,1608.343a4.366,4.366,0,0,1,.049,1.413,3.5,3.5,0,0,1-1.445,2.274,3.59,3.59,0,0,1-2.684.5,3.08,3.08,0,0,1-1.294-.614,7.562,7.562,0,0,1,.674-1.224,5.069,5.069,0,0,1,1.39-1.451,2.5,2.5,0,0,1,.838-.429c.32-.058.7-.248,1.07-.335A4.336,4.336,0,0,1,329.649,1608.343Z" transform="translate(-233.7 -1570.571)" fill="gray"/>
      <path id="Trazado_600224" data-name="Trazado 600224" d="M286.167,1604.755a6.291,6.291,0,0,1,1.819-.368c.521-.038,1.112-.008,1.663-.023a9.422,9.422,0,0,1,1.7.205,9.94,9.94,0,0,1,3.228,1.251,6.392,6.392,0,0,1,1.436,1.173,6.049,6.049,0,0,1-1.7.75,8.186,8.186,0,0,1-3.64.136,7.132,7.132,0,0,1-3.34-1.677A6.25,6.25,0,0,1,286.167,1604.755Z" transform="translate(-233.615 -1570.562)" fill="gray"/>
    </g>
    <g id="Grupo_873869" data-name="Grupo 873869" transform="translate(216.313 1633.72)">
      <path id="Trazado_600225" data-name="Trazado 600225" d="M220.253,1669.24c-14.763-5.367,20.131-16.1,22.814-17.894,7.159-4.473,10.288-11.186,18.787-14.764s14.319-2.233,22.369,1.789c11.186,4.923,27.738,12.528,30.864,25.95s-22.365,8.05-30.418,8.5c-18.783,1.789-45.627,9.4-63.07-1.789Z" transform="translate(-216.626 -1634.508)" fill="#a5b4b6"/>
      <path id="Trazado_600226" data-name="Trazado 600226" d="M258.82,1649.588s.524.225,1.406.662c.432.247,1.01.391,1.6.658s1.323.455,2.072.737c1.532.5,3.338.98,5.275,1.4a44.2,44.2,0,0,0,6.1.852,25.966,25.966,0,0,0,3.073.071,21.5,21.5,0,0,0,2.914-.277,20.116,20.116,0,0,0,2.627-.627,13.607,13.607,0,0,0,2.152-1.054,6.963,6.963,0,0,0,1.637-1.274,5.776,5.776,0,0,0,1.116-1.244c.575-.794.9-1.248.9-1.248s-.076.54-.3,1.542a4.937,4.937,0,0,1-.676,1.718,6.45,6.45,0,0,1-1.439,2,10.268,10.268,0,0,1-2.317,1.845,13.812,13.812,0,0,1-3.024,1.241,15.732,15.732,0,0,1-3.389.638,27.975,27.975,0,0,1-3.505.041,30.1,30.1,0,0,1-3.435-.492,24.947,24.947,0,0,1-3.225-.867,24.441,24.441,0,0,1-5.318-2.523,16.99,16.99,0,0,1-3.244-2.61C259.169,1650.037,258.82,1649.588,258.82,1649.588Z" transform="translate(-216.72 -1634.539)" fill="gray"/>
    </g>
    <g id="Grupo_873870" data-name="Grupo 873870" transform="translate(563.494 1632.194)">
      <path id="Trazado_600227" data-name="Trazado 600227" d="M564.589,1666.106a375.835,375.835,0,0,0,63.523,1.341c4.472-.447,12.523-1.789,11.628-8.5-.894-4.476-11.182-10.737-14.314-14.315-3.129-4.477-5.371-10.738-11.18-11.633-6.713-.444-8.951,5.818-13.869,8.5-5.819,3.58-13.421,2.685-18.794,5.816-4.472,2.236-8.945,9.392-12.077,12.973-1.789,1.79-4.472,2.685-4.023,4.921Z" transform="translate(-564.589 -1632.979)" fill="#a5b4b6"/>
      <path id="Trazado_600228" data-name="Trazado 600228" d="M588.8,1650.936a15.68,15.68,0,0,1,4.333.937c1.244.406,2.647.974,4.083,1.5.71.286,1.46.5,2.182.715a12.652,12.652,0,0,0,2.185.47,12.265,12.265,0,0,0,1.991.07c.824-.18,1.656-.26,2.448-.388,1.37-.416,2.667-.7,3.957-1.1a21.763,21.763,0,0,1,4.317-.858s-.346.3-.954.777-1.462,1.095-2.551,1.844a21.6,21.6,0,0,1-4.149,2.251c-.775.215-1.564.488-2.387.669l-.31.075a2.329,2.329,0,0,1-.565.05l-.738.008a11.018,11.018,0,0,1-1.486-.043,15.269,15.269,0,0,1-5.182-1.839,18.674,18.674,0,0,1-2.036-1.259c-.634-.407-1.177-.831-1.7-1.224-1.027-.781-1.882-1.433-2.482-1.888C589.144,1651.231,588.8,1650.936,588.8,1650.936Z" transform="translate(-564.643 -1633.019)" fill="gray"/>
    </g>
  </g>
</svg>
