<svg xmlns="http://www.w3.org/2000/svg" width="356" height="260.199" viewBox="0 0 356 260.199">
  <g id="Grupo_876027" data-name="Grupo 876027" transform="translate(-1031.5 -4259.809)">
    <g id="Grupo_876026" data-name="Grupo 876026" transform="translate(1094.869 4272.144)">
      <path id="Trazado_612571" data-name="Trazado 612571" d="M472.366,1190.559H573.815c8.406,55.653-30.472,101.449-86.125,101.449a113.117,113.117,0,0,1-52.778-13.591Z" transform="translate(-369.773 -1089.11)" fill="#e1e1e1"/>
      <path id="Trazado_612572" data-name="Trazado 612572" d="M479.073,1176.642l53.472-77.714a126.427,126.427,0,0,1,32,34.84,114.548,114.548,0,0,1,15.981,42.874Z" transform="translate(-376.48 -1075.193)" fill="#ececec"/>
      <path id="Trazado_612573" data-name="Trazado 612573" d="M476.329,1172.392l-15.324-101.449a109.435,109.435,0,0,1,35.622,6.118,122.707,122.707,0,0,1,33.174,17.616Z" transform="translate(-373.736 -1070.943)" fill="#e7e7e7"/>
      <path id="Trazado_612574" data-name="Trazado 612574" d="M460.7,1172.392l-37.454,87.858c-34.084-18.1-58.527-51.658-64-87.858-8.407-55.653,30.472-101.449,86.125-101.449Z" transform="translate(-358.109 -1070.943)" fill="#f0f0f0"/>
    </g>
    <g id="Grupo_876024" data-name="Grupo 876024" transform="translate(4243.706 3491.314)">
      <g id="Grupo_876020" data-name="Grupo 876020" transform="translate(-3212.206 786.303)">
        <path id="Trazado_613522" data-name="Trazado 613522" d="M-3199.73,1012.123q54.349-57.526,104.894-118.493c3.982-4.8,8.108-9.753,13.672-12.575s13-2.945,17.467,1.414c-4.023,12.776-14.579,22.176-23.831,31.862-26.88,28.141-45.553,63.258-72.179,91.641-9.538,10.167-21.791,20.044-35.683,18.873-3.284-.277-6.834-1.423-8.485-4.276s.114-7.472,3.408-7.373" transform="translate(3211.673 -792.728)" fill="#704b16"/>
        <path id="Trazado_613523" data-name="Trazado 613523" d="M-3140.645,1022.6q51.721-67.28,105.916-132.608c1.94-2.337,3.985-4.753,6.77-5.967s6.528-.8,8.2,1.73.688,5.906-.442,8.722c-17.234,42.918-55.556,73.211-82.628,110.71-6.77,9.376-13.834,19.975-25,22.988-5.41,1.46-13.27-1.471-12.14-6.961" transform="translate(3207.249 -793.027)" fill="#704b16"/>
        <path id="Trazado_613524" data-name="Trazado 613524" d="M-3087.215,1028.168a614.592,614.592,0,0,0,89.36-120.054c2.577-4.525,5.231-9.236,9.474-12.256a14.85,14.85,0,0,1,12.659-2.395,5.382,5.382,0,0,1,2.924,1.839,6.306,6.306,0,0,1,.767,3.974c-1.068,23.1-20.68,40.225-33.651,59.363-10.271,15.155-16.745,32.609-26.877,47.857s-25.549,28.809-43.841,29.562c-3.157.129-6.647-.272-8.817-2.569s-1.72-6.957,1.34-7.745" transform="translate(3203.547 -793.689)" fill="#704b16"/>
        <g id="Grupo_876005" data-name="Grupo 876005" transform="translate(121.941 202.46)">
          <path id="Trazado_613525" data-name="Trazado 613525" d="M-3060.375,1028.578a22.1,22.1,0,0,1,6.112-18.335,22.1,22.1,0,0,1,18.3-6.228c-2.353,1.295-3.6,3.938-4.47,6.478s-1.581,5.249-3.368,7.255a17.383,17.383,0,0,1-5.778,3.715c-3.7,1.757-7.537,3.762-9.744,7.214" transform="translate(3079.76 -1003.834)" fill="#697827"/>
          <path id="Trazado_613526" data-name="Trazado 613526" d="M-3062.131,1028.387c.731-3.206-1.948-6.239-4.869-7.749s-6.281-2.178-8.933-4.122c-3.759-2.756-5.424-7.707-5.243-12.365,2.565.814,5.382-.015,8.026.491,3.337.639,5.9,3.281,8,5.95a20.027,20.027,0,0,1,4.081,7.437,19.666,19.666,0,0,1-.342,8.81" transform="translate(3081.188 -1003.856)" fill="#697827"/>
          <path id="Trazado_613527" data-name="Trazado 613527" d="M-3057.954,1025.879c-.3-2.911,1.468-5.6,3.242-7.924,2.92-3.828,6.274-7.6,10.747-9.376" transform="translate(3079.581 -1004.162)" fill="none" stroke="#74852b" stroke-miterlimit="10" stroke-width="0.25"/>
          <path id="Trazado_613528" data-name="Trazado 613528" d="M-3078.48,1006.273c1.315,2.292,4.05,3.249,6.375,4.5a26.071,26.071,0,0,1,10.963,12.415" transform="translate(3081.001 -1004.003)" fill="none" stroke="#74852b" stroke-miterlimit="10" stroke-width="0.25"/>
        </g>
        <g id="Grupo_876006" data-name="Grupo 876006" transform="translate(146.526 170.235)">
          <path id="Trazado_613529" data-name="Trazado 613529" d="M-3033.961,993.954a22.1,22.1,0,0,1,6.112-18.335,22.1,22.1,0,0,1,18.3-6.228c-2.354,1.295-3.6,3.938-4.47,6.478s-1.582,5.249-3.369,7.255a17.376,17.376,0,0,1-5.778,3.715c-3.7,1.757-7.536,3.762-9.743,7.213" transform="translate(3053.346 -969.21)" fill="#697827"/>
          <path id="Trazado_613530" data-name="Trazado 613530" d="M-3035.716,993.763c.731-3.205-1.949-6.239-4.869-7.749s-6.282-2.178-8.934-4.122c-3.759-2.756-5.424-7.707-5.242-12.365,2.564.814,5.382-.015,8.026.491,3.336.64,5.9,3.281,8,5.95a20.021,20.021,0,0,1,4.08,7.436,19.672,19.672,0,0,1-.341,8.81" transform="translate(3054.773 -969.232)" fill="#697827"/>
          <path id="Trazado_613531" data-name="Trazado 613531" d="M-3031.541,991.254c-.295-2.91,1.468-5.6,3.242-7.923,2.92-3.828,6.274-7.6,10.747-9.376" transform="translate(3053.167 -969.538)" fill="none" stroke="#74852b" stroke-miterlimit="10" stroke-width="0.25"/>
          <path id="Trazado_613532" data-name="Trazado 613532" d="M-3052.066,971.649c1.315,2.292,4.049,3.249,6.374,4.5a26.063,26.063,0,0,1,10.964,12.415" transform="translate(3054.586 -969.379)" fill="none" stroke="#74852b" stroke-miterlimit="10" stroke-width="0.25"/>
        </g>
        <g id="Grupo_876007" data-name="Grupo 876007" transform="translate(166.016 142.107)">
          <path id="Trazado_613533" data-name="Trazado 613533" d="M-3013.02,963.732a22.1,22.1,0,0,1,6.112-18.335,22.1,22.1,0,0,1,18.3-6.228c-2.354,1.3-3.6,3.938-4.47,6.478s-1.582,5.249-3.369,7.255a17.414,17.414,0,0,1-5.777,3.716c-3.7,1.756-7.537,3.761-9.744,7.213" transform="translate(3032.405 -938.988)" fill="#697827"/>
          <path id="Trazado_613534" data-name="Trazado 613534" d="M-3014.775,963.542c.731-3.205-1.948-6.239-4.868-7.75s-6.283-2.178-8.935-4.121c-3.759-2.757-5.424-7.708-5.242-12.366,2.565.815,5.383-.015,8.025.491,3.337.639,5.9,3.281,8,5.95a20.033,20.033,0,0,1,4.082,7.437,19.671,19.671,0,0,1-.342,8.809" transform="translate(3033.833 -939.01)" fill="#697827"/>
          <path id="Trazado_613535" data-name="Trazado 613535" d="M-3010.6,961.033c-.3-2.911,1.467-5.6,3.241-7.923,2.92-3.829,6.274-7.6,10.747-9.376" transform="translate(3032.226 -939.317)" fill="none" stroke="#74852b" stroke-miterlimit="10" stroke-width="0.25"/>
          <path id="Trazado_613536" data-name="Trazado 613536" d="M-3031.125,941.427c1.315,2.291,4.049,3.249,6.375,4.5a26.071,26.071,0,0,1,10.964,12.415" transform="translate(3033.645 -939.157)" fill="none" stroke="#74852b" stroke-miterlimit="10" stroke-width="0.25"/>
        </g>
        <g id="Grupo_876008" data-name="Grupo 876008" transform="translate(64.228)">
          <path id="Trazado_613537" data-name="Trazado 613537" d="M-3083.391,855.921a12.384,12.384,0,0,0,3.486-10.085c-.521-4.322-3.337-8.482-2.3-12.71.58-2.371,2.306-4.317,3-6.656,1.127-3.787-.607-7.763-2.175-11.389s-3-7.821-1.35-11.409c1.131-2.452,3.668-4.672,2.989-7.287a6.559,6.559,0,0,0-1.056-2l-5.541-8.083a12.662,12.662,0,0,1-.827,11.568,33.333,33.333,0,0,0-2.046,3.2c-1.971,4.162.395,9.209-.8,13.657-.97,3.613-4.2,6.479-4.443,10.211-.267,4.137,3.228,7.613,3.8,11.719.4,2.877-.671,5.722-1.459,8.517s-1.263,5.957.189,8.471" transform="translate(3139.822 -786.303)" fill="#4c571c"/>
          <path id="Trazado_613538" data-name="Trazado 613538" d="M-3085.432,861.156a7.045,7.045,0,0,1-4.275-6.843c.08-1.122.434-2.211.487-3.334.162-3.414-2.419-6.308-5.059-8.479-1.443-1.185-3.057-2.434-3.473-4.254-.294-1.286.077-2.632-.048-3.945-.347-3.628-4.278-5.843-7.888-6.341a22.016,22.016,0,0,1-3.927-.643c-2.143-.708-3.787-2.4-5.662-3.656a15.782,15.782,0,0,0-14.785-1.355c-1.3.565-2.688,1.329-4.064.973a8.123,8.123,0,0,0-1.482-.435,3.263,3.263,0,0,0-2.137,1.022l-5.452,4.571a22.861,22.861,0,0,1,14.64.862c1.616.661,3.285,1.659,3.839,3.314.174.521.226,1.081.452,1.583.59,1.309,2.138,1.834,3.521,2.221a25.289,25.289,0,0,1,7.291,2.872,8.443,8.443,0,0,1,4.063,6.4,13.887,13.887,0,0,0,.064,2.01c.366,1.987,2.418,3.185,4.36,3.745s4.059.793,5.673,2.009c2.013,1.516,2.731,4.152,3.549,6.536s2.135,4.957,4.556,5.657" transform="translate(3143.197 -788.712)" fill="#596621"/>
          <path id="Trazado_613539" data-name="Trazado 613539" d="M-3085.226,906.471l.2-33.312c.019-3.178.077-6.514,1.638-9.283,2.132-3.78,6.632-5.725,8.852-9.454,2.849-4.787,1.459-11.678,5.465-15.549,2.305-2.226,5.941-2.879,7.815-5.478,3.028-4.2-.451-10.271,1.166-15.189,1.751-5.326,9.105-8.242,8.827-13.843l-18.665,16.288a12.758,12.758,0,0,0-3.349,3.825c-.872,1.8-.864,3.954-1.841,5.7-2.566,4.591-10.554,4.441-12.087,9.473-.981,3.218,1.452,6.822.239,9.961-.688,1.781-2.411,2.968-3.286,4.667a9.154,9.154,0,0,0-.6,5.3c.618,5.126,2.778,10.026,2.907,15.188a48.31,48.31,0,0,1-.97,8.729,100.678,100.678,0,0,0-1.012,22.335l3.267,1.315" transform="translate(3139.58 -787.554)" fill="#697827"/>
        </g>
        <g id="Grupo_876009" data-name="Grupo 876009" transform="translate(54.04 32.116)">
          <path id="Trazado_613540" data-name="Trazado 613540" d="M-3120.218,890.426a12.384,12.384,0,0,1-3.487-10.085c.521-4.322,3.337-8.482,2.3-12.71-.58-2.371-2.306-4.317-3-6.656-1.127-3.787.606-7.763,2.174-11.389s3-7.821,1.35-11.408c-1.131-2.453-3.668-4.673-2.988-7.288a6.575,6.575,0,0,1,1.054-2l5.542-8.082a12.66,12.66,0,0,0,.828,11.567,33.448,33.448,0,0,1,2.046,3.2c1.971,4.162-.395,9.209.8,13.657.97,3.613,4.2,6.479,4.443,10.212.266,4.136-3.228,7.613-3.8,11.719-.4,2.876.671,5.721,1.459,8.516s1.263,5.957-.188,8.47" transform="translate(3152.108 -820.809)" fill="#4c571c"/>
          <path id="Trazado_613541" data-name="Trazado 613541" d="M-3121.313,895.661a7.046,7.046,0,0,0,4.275-6.843c-.08-1.122-.435-2.211-.488-3.334-.161-3.414,2.419-6.308,5.059-8.478,1.443-1.186,3.058-2.435,3.474-4.255.294-1.286-.077-2.632.048-3.945.347-3.628,4.278-5.843,7.888-6.341a22.017,22.017,0,0,0,3.928-.643c2.143-.708,3.787-2.4,5.661-3.656a15.785,15.785,0,0,1,14.786-1.355c1.3.565,2.687,1.329,4.064.974a8.117,8.117,0,0,1,1.48-.435,3.258,3.258,0,0,1,2.138,1.023l5.451,4.57a22.857,22.857,0,0,0-14.639.862c-1.616.661-3.286,1.659-3.839,3.314a16.265,16.265,0,0,1-.453,1.583c-.589,1.309-2.137,1.834-3.52,2.221a25.3,25.3,0,0,0-7.291,2.872,8.442,8.442,0,0,0-4.062,6.4,14.08,14.08,0,0,1-.064,2.011c-.366,1.986-2.418,3.184-4.36,3.744s-4.059.793-5.673,2.008c-2.014,1.516-2.731,4.152-3.549,6.537s-2.135,4.956-4.556,5.656" transform="translate(3151.869 -823.218)" fill="#596621"/>
          <path id="Trazado_613542" data-name="Trazado 613542" d="M-3120.177,940.976q-.1-16.655-.2-33.312c-.019-3.178-.077-6.514-1.638-9.283-2.132-3.78-6.632-5.725-8.852-9.454-2.849-4.787-1.46-11.678-5.467-15.549-2.3-2.227-5.94-2.879-7.814-5.478-3.028-4.2.451-10.271-1.166-15.189-1.752-5.326-9.105-8.242-8.827-13.843l18.665,16.288a12.765,12.765,0,0,1,3.349,3.825c.872,1.8.864,3.954,1.841,5.7,2.566,4.591,10.553,4.441,12.087,9.473.981,3.218-1.452,6.823-.24,9.962.689,1.781,2.41,2.968,3.286,4.667a9.154,9.154,0,0,1,.6,5.3c-.618,5.127-2.777,10.026-2.907,15.188a48.421,48.421,0,0,0,.97,8.729,100.677,100.677,0,0,1,1.013,22.335l-3.267,1.315" transform="translate(3154.144 -822.06)" fill="#596621"/>
        </g>
        <g id="Grupo_876010" data-name="Grupo 876010" transform="translate(185.064 113.315)">
          <path id="Trazado_613543" data-name="Trazado 613543" d="M-2992.554,932.8a22.1,22.1,0,0,1,6.111-18.335,22.1,22.1,0,0,1,18.3-6.228c-2.354,1.295-3.6,3.937-4.47,6.478s-1.583,5.249-3.369,7.254a17.383,17.383,0,0,1-5.777,3.716c-3.7,1.757-7.537,3.761-9.744,7.213" transform="translate(3011.939 -908.052)" fill="#697827"/>
          <path id="Trazado_613544" data-name="Trazado 613544" d="M-2994.31,932.606c.731-3.205-1.949-6.239-4.868-7.749s-6.282-2.178-8.934-4.122c-3.759-2.756-5.424-7.707-5.242-12.366,2.564.815,5.382-.014,8.026.492,3.337.638,5.9,3.281,8,5.95a20.034,20.034,0,0,1,4.081,7.437,19.66,19.66,0,0,1-.342,8.809" transform="translate(3013.368 -908.074)" fill="#697827"/>
          <path id="Trazado_613545" data-name="Trazado 613545" d="M-2990.135,930.1c-.3-2.91,1.468-5.6,3.242-7.923,2.92-3.828,6.274-7.6,10.747-9.376" transform="translate(3011.76 -908.381)" fill="none" stroke="#74852b" stroke-miterlimit="10" stroke-width="0.25"/>
          <path id="Trazado_613546" data-name="Trazado 613546" d="M-3010.659,910.492c1.314,2.29,4.049,3.249,6.374,4.5a26.06,26.06,0,0,1,10.964,12.415" transform="translate(3013.18 -908.221)" fill="none" stroke="#74852b" stroke-miterlimit="10" stroke-width="0.25"/>
        </g>
        <g id="Grupo_876011" data-name="Grupo 876011" transform="translate(10.188 69.988)">
          <path id="Trazado_613547" data-name="Trazado 613547" d="M-3141.455,931.118a12.387,12.387,0,0,0,3.487-10.085c-.521-4.322-3.336-8.481-2.3-12.71.581-2.37,2.307-4.317,3-6.656,1.127-3.787-.606-7.763-2.174-11.389s-3-7.82-1.349-11.408c1.131-2.453,3.667-4.673,2.988-7.288a6.548,6.548,0,0,0-1.054-2l-5.542-8.082a12.662,12.662,0,0,1-.828,11.568,33.578,33.578,0,0,0-2.046,3.2c-1.971,4.163.395,9.209-.8,13.657-.969,3.613-4.2,6.479-4.443,10.212-.266,4.136,3.229,7.613,3.8,11.719.4,2.876-.671,5.721-1.459,8.516s-1.263,5.957.189,8.471" transform="translate(3197.884 -861.501)" fill="#4c571c"/>
          <path id="Trazado_613548" data-name="Trazado 613548" d="M-3143.5,936.353a7.044,7.044,0,0,1-4.275-6.843c.08-1.121.435-2.211.488-3.334.161-3.414-2.419-6.308-5.06-8.478-1.443-1.186-3.057-2.435-3.474-4.255-.294-1.285.077-2.632-.048-3.945-.347-3.628-4.277-5.843-7.888-6.341a21.992,21.992,0,0,1-3.927-.643c-2.142-.707-3.788-2.4-5.662-3.656a15.782,15.782,0,0,0-14.784-1.355c-1.306.565-2.688,1.33-4.065.974a8.127,8.127,0,0,0-1.481-.436,3.259,3.259,0,0,0-2.137,1.023l-5.452,4.57a22.852,22.852,0,0,1,14.639.863c1.616.661,3.286,1.658,3.839,3.313a16.252,16.252,0,0,0,.452,1.583c.589,1.31,2.137,1.835,3.52,2.221a25.324,25.324,0,0,1,7.291,2.872,8.442,8.442,0,0,1,4.063,6.4,14.117,14.117,0,0,0,.064,2.011c.366,1.986,2.419,3.184,4.36,3.744s4.059.794,5.673,2.009c2.014,1.516,2.733,4.153,3.549,6.537s2.135,4.956,4.557,5.656" transform="translate(3201.26 -863.909)" fill="#596621"/>
          <path id="Trazado_613549" data-name="Trazado 613549" d="M-3143.29,981.668q.1-16.655.2-33.312c.018-3.177.077-6.514,1.639-9.282,2.131-3.781,6.632-5.726,8.851-9.455,2.849-4.787,1.459-11.678,5.466-15.549,2.3-2.226,5.94-2.879,7.814-5.478,3.028-4.2-.451-10.271,1.166-15.188,1.752-5.327,9.106-8.243,8.827-13.844L-3128,895.848a12.737,12.737,0,0,0-3.349,3.825c-.871,1.8-.864,3.953-1.841,5.7-2.566,4.591-10.554,4.441-12.087,9.473-.981,3.218,1.452,6.823.24,9.961-.689,1.782-2.411,2.969-3.286,4.667a9.155,9.155,0,0,0-.6,5.3c.618,5.126,2.777,10.026,2.907,15.188a48.439,48.439,0,0,1-.97,8.73A100.651,100.651,0,0,0-3148,981.025l3.268,1.315" transform="translate(3197.643 -862.752)" fill="#697827"/>
        </g>
        <g id="Grupo_876012" data-name="Grupo 876012" transform="translate(0 102.103)">
          <path id="Trazado_613550" data-name="Trazado 613550" d="M-3178.281,965.623a12.381,12.381,0,0,1-3.488-10.085c.521-4.322,3.337-8.481,2.3-12.71-.58-2.371-2.306-4.317-3-6.656-1.126-3.786.607-7.762,2.174-11.389s3-7.82,1.35-11.408c-1.131-2.453-3.668-4.673-2.989-7.288a6.585,6.585,0,0,1,1.056-2l5.542-8.082a12.66,12.66,0,0,0,.826,11.568,33.246,33.246,0,0,1,2.046,3.2c1.971,4.163-.395,9.209.8,13.657.969,3.613,4.2,6.479,4.442,10.212.267,4.136-3.228,7.613-3.8,11.719-.4,2.876.67,5.722,1.458,8.516s1.263,5.957-.189,8.471" transform="translate(3210.171 -896.006)" fill="#4c571c"/>
          <path id="Trazado_613551" data-name="Trazado 613551" d="M-3179.376,970.859a7.047,7.047,0,0,0,4.274-6.844c-.08-1.122-.434-2.211-.487-3.334-.162-3.414,2.419-6.308,5.059-8.478,1.443-1.186,3.057-2.435,3.473-4.255.294-1.285-.076-2.632.048-3.945.347-3.628,4.278-5.842,7.888-6.341a21.929,21.929,0,0,0,3.927-.643c2.143-.707,3.788-2.4,5.661-3.656a15.785,15.785,0,0,1,14.785-1.355c1.305.565,2.688,1.329,4.064.974a8.109,8.109,0,0,1,1.482-.436,3.259,3.259,0,0,1,2.137,1.023l5.452,4.57a22.854,22.854,0,0,0-14.64.863c-1.616.661-3.285,1.658-3.839,3.313a16.4,16.4,0,0,1-.452,1.583c-.589,1.31-2.138,1.834-3.521,2.221a25.324,25.324,0,0,0-7.291,2.872,8.446,8.446,0,0,0-4.063,6.4,13.9,13.9,0,0,1-.064,2.011c-.365,1.986-2.418,3.184-4.36,3.744s-4.059.794-5.673,2.009c-2.013,1.516-2.732,4.153-3.549,6.537s-2.134,4.956-4.556,5.656" transform="translate(3209.932 -898.414)" fill="#596621"/>
          <path id="Trazado_613552" data-name="Trazado 613552" d="M-3178.24,1016.173l-.2-33.312c-.018-3.178-.077-6.514-1.638-9.282-2.132-3.78-6.633-5.726-8.851-9.455-2.849-4.787-1.46-11.678-5.466-15.549-2.3-2.226-5.941-2.879-7.815-5.478-3.028-4.2.451-10.271-1.167-15.188-1.751-5.326-9.105-8.243-8.826-13.844l18.664,16.289a12.747,12.747,0,0,1,3.349,3.825c.872,1.8.864,3.953,1.841,5.7,2.566,4.591,10.553,4.441,12.087,9.473.981,3.218-1.452,6.823-.239,9.962.688,1.782,2.411,2.969,3.286,4.667a9.157,9.157,0,0,1,.6,5.3c-.619,5.126-2.778,10.026-2.907,15.188a48.494,48.494,0,0,0,.97,8.73,100.725,100.725,0,0,1,1.013,22.334l-3.268,1.315" transform="translate(3212.207 -897.257)" fill="#697827"/>
        </g>
        <g id="Grupo_876013" data-name="Grupo 876013" transform="translate(15.474 91.792)">
          <path id="Trazado_613553" data-name="Trazado 613553" d="M-3108.875,1007.6h-.442" transform="translate(3189.604 -893.427)" fill="none" stroke="#a67435" stroke-miterlimit="10" stroke-width="0.5"/>
          <path id="Trazado_613554" data-name="Trazado 613554" d="M-3103.13,1004.268" transform="translate(3189.175 -893.196)" fill="none" stroke="#a67435" stroke-miterlimit="10" stroke-width="0.5"/>
          <path id="Trazado_613555" data-name="Trazado 613555" d="M-3076.478,961.434" transform="translate(3187.329 -890.228)" fill="none" stroke="#a67435" stroke-miterlimit="10" stroke-width="0.5"/>
          <path id="Trazado_613556" data-name="Trazado 613556" d="M-3070.767,967.146" transform="translate(3186.933 -890.624)" fill="none" stroke="#a67435" stroke-miterlimit="10" stroke-width="0.5"/>
          <path id="Trazado_613557" data-name="Trazado 613557" d="M-3072.2,952.868v.443" transform="translate(3187.032 -889.635)" fill="none" stroke="#a67435" stroke-miterlimit="10" stroke-width="0.5"/>
          <path id="Trazado_613558" data-name="Trazado 613558" d="M-3034.6,920.98" transform="translate(3184.427 -887.426)" fill="none" stroke="#a67435" stroke-miterlimit="10" stroke-width="0.5"/>
          <path id="Trazado_613559" data-name="Trazado 613559" d="M-3032.216,925.264" transform="translate(3184.262 -887.722)" fill="none" stroke="#a67435" stroke-miterlimit="10" stroke-width="0.5"/>
          <path id="Trazado_613560" data-name="Trazado 613560" d="M-3022.222,900.039" transform="translate(3183.57 -885.975)" fill="none" stroke="#a67435" stroke-miterlimit="10" stroke-width="0.5"/>
          <path id="Trazado_613561" data-name="Trazado 613561" d="M-2978.436,900.515" transform="translate(3180.537 -886.008)" fill="none" stroke="#a67435" stroke-miterlimit="10" stroke-width="0.5"/>
          <path id="Trazado_613562" data-name="Trazado 613562" d="M-2973.234,899.087h-.443" transform="translate(3180.207 -885.909)" fill="none" stroke="#a67435" stroke-miterlimit="10" stroke-width="0.5"/>
          <path id="Trazado_613563" data-name="Trazado 613563" d="M-3028.409,1003.316" transform="translate(3183.999 -893.13)" fill="none" stroke="#a67435" stroke-miterlimit="10" stroke-width="0.5"/>
          <path id="Trazado_613564" data-name="Trazado 613564" d="M-3027.933,1009.98" transform="translate(3183.966 -893.591)" fill="none" stroke="#a67435" stroke-miterlimit="10" stroke-width="0.5"/>
          <path id="Trazado_613565" data-name="Trazado 613565" d="M-3073.656,1039.963h-.442" transform="translate(3187.164 -895.669)" fill="none" stroke="#a67435" stroke-miterlimit="10" stroke-width="0.5"/>
          <path id="Trazado_613566" data-name="Trazado 613566" d="M-3070.291,1034.252v.886" transform="translate(3186.9 -895.273)" fill="none" stroke="#a67435" stroke-miterlimit="10" stroke-width="0.5"/>
          <path id="Trazado_613567" data-name="Trazado 613567" d="M-3065.056,1038.535" transform="translate(3186.538 -895.57)" fill="none" stroke="#a67435" stroke-miterlimit="10" stroke-width="0.5"/>
          <path id="Trazado_613568" data-name="Trazado 613568" d="M-3195.58,1026.994" transform="translate(3195.58 -894.77)" fill="none" stroke="#a67435" stroke-miterlimit="10" stroke-width="0.5"/>
          <path id="Trazado_613569" data-name="Trazado 613569" d="M-3191.3,1021.64" transform="translate(3195.283 -894.399)" fill="none" stroke="#a67435" stroke-miterlimit="10" stroke-width="0.5"/>
          <path id="Trazado_613570" data-name="Trazado 613570" d="M-3186.681,1025.923h-.332" transform="translate(3194.987 -894.696)" fill="none" stroke="#a67435" stroke-miterlimit="10" stroke-width="0.5"/>
          <path id="Trazado_613571" data-name="Trazado 613571" d="M-3155.6,993.084" transform="translate(3192.811 -892.421)" fill="none" stroke="#a67435" stroke-miterlimit="10" stroke-width="0.5"/>
          <path id="Trazado_613572" data-name="Trazado 613572" d="M-3129.927,960.245h-.332" transform="translate(3191.055 -890.146)" fill="none" stroke="#a67435" stroke-miterlimit="10" stroke-width="0.5"/>
          <path id="Trazado_613573" data-name="Trazado 613573" d="M-3124.547,962.386" transform="translate(3190.659 -890.294)" fill="none" stroke="#a67435" stroke-miterlimit="10" stroke-width="0.5"/>
          <path id="Trazado_613574" data-name="Trazado 613574" d="M-3103.844,922.765" transform="translate(3189.225 -887.549)" fill="none" stroke="#a67435" stroke-miterlimit="10" stroke-width="0.5"/>
          <path id="Trazado_613575" data-name="Trazado 613575" d="M-3100.632,927.405" transform="translate(3189.002 -887.871)" fill="none" stroke="#a67435" stroke-miterlimit="10" stroke-width="0.5"/>
          <path id="Trazado_613576" data-name="Trazado 613576" d="M-3098.49,916.7" transform="translate(3188.854 -887.129)" fill="none" stroke="#a67435" stroke-miterlimit="10" stroke-width="0.5"/>
          <path id="Trazado_613577" data-name="Trazado 613577" d="M-3071.719,890.283" transform="translate(3186.999 -885.299)" fill="none" stroke="#a67435" stroke-miterlimit="10" stroke-width="0.5"/>
          <path id="Trazado_613578" data-name="Trazado 613578" d="M-3065.651,884.928h.332" transform="translate(3186.579 -884.928)" fill="none" stroke="#a67435" stroke-miterlimit="10" stroke-width="0.5"/>
          <path id="Trazado_613579" data-name="Trazado 613579" d="M-3065.651,892.781" transform="translate(3186.579 -885.472)" fill="none" stroke="#a67435" stroke-miterlimit="10" stroke-width="0.5"/>
        </g>
        <g id="Grupo_876019" data-name="Grupo 876019" transform="translate(64.692 77.878)">
          <g id="Grupo_876014" data-name="Grupo 876014" transform="translate(0 116.144)">
            <path id="Trazado_613580" data-name="Trazado 613580" d="M-3121.886,1019.511a22.1,22.1,0,0,1,6.111-18.335,22.1,22.1,0,0,1,18.3-6.228c-2.354,1.295-3.6,3.937-4.47,6.478s-1.582,5.249-3.369,7.255a17.384,17.384,0,0,1-5.777,3.715c-3.7,1.757-7.537,3.761-9.744,7.213" transform="translate(3141.271 -994.766)" fill="#535f1f"/>
            <path id="Trazado_613581" data-name="Trazado 613581" d="M-3123.642,1019.32c.731-3.205-1.949-6.239-4.869-7.749s-6.282-2.178-8.934-4.122c-3.759-2.756-5.424-7.707-5.242-12.365,2.564.815,5.382-.014,8.026.492,3.337.638,5.9,3.281,8,5.95a20.027,20.027,0,0,1,4.081,7.436,19.666,19.666,0,0,1-.342,8.81" transform="translate(3142.7 -994.788)" fill="#4c571c"/>
            <path id="Trazado_613582" data-name="Trazado 613582" d="M-3119.467,1016.811c-.3-2.91,1.468-5.6,3.242-7.923,2.92-3.828,6.274-7.6,10.748-9.376" transform="translate(3141.092 -995.095)" fill="none" stroke="#613445" stroke-miterlimit="10" stroke-width="0.25"/>
            <path id="Trazado_613583" data-name="Trazado 613583" d="M-3139.991,997.206c1.314,2.291,4.049,3.249,6.375,4.5a26.063,26.063,0,0,1,10.963,12.415" transform="translate(3142.512 -994.935)" fill="none" stroke="#613445" stroke-miterlimit="10" stroke-width="0.25"/>
          </g>
          <g id="Grupo_876015" data-name="Grupo 876015" transform="translate(25.64 86.254)">
            <path id="Trazado_613584" data-name="Trazado 613584" d="M-3094.338,987.4a22.1,22.1,0,0,1,6.112-18.335,22.1,22.1,0,0,1,18.3-6.228c-2.353,1.295-3.6,3.937-4.47,6.478s-1.582,5.249-3.368,7.255a17.374,17.374,0,0,1-5.778,3.715c-3.7,1.757-7.537,3.761-9.744,7.213" transform="translate(3113.723 -962.652)" fill="#535f1f"/>
            <path id="Trazado_613585" data-name="Trazado 613585" d="M-3096.094,987.206c.732-3.205-1.948-6.239-4.868-7.749s-6.282-2.178-8.933-4.122c-3.759-2.756-5.426-7.707-5.243-12.365,2.565.814,5.382-.015,8.026.491,3.337.639,5.9,3.281,8,5.95a20.03,20.03,0,0,1,4.081,7.436,19.662,19.662,0,0,1-.342,8.81" transform="translate(3115.152 -962.674)" fill="#4c571c"/>
            <path id="Trazado_613586" data-name="Trazado 613586" d="M-3091.918,984.7c-.295-2.91,1.468-5.6,3.242-7.923,2.92-3.828,6.273-7.6,10.747-9.376" transform="translate(3113.544 -962.981)" fill="none" stroke="#613445" stroke-miterlimit="10" stroke-width="0.25"/>
            <path id="Trazado_613587" data-name="Trazado 613587" d="M-3112.444,965.092c1.314,2.291,4.049,3.249,6.375,4.5a26.065,26.065,0,0,1,10.963,12.415" transform="translate(3114.964 -962.821)" fill="none" stroke="#613445" stroke-miterlimit="10" stroke-width="0.25"/>
          </g>
          <g id="Grupo_876016" data-name="Grupo 876016" transform="translate(50.084 54.995)">
            <path id="Trazado_613588" data-name="Trazado 613588" d="M-3068.074,953.81a22.1,22.1,0,0,1,6.112-18.335,22.1,22.1,0,0,1,18.3-6.228c-2.353,1.295-3.6,3.938-4.47,6.478s-1.581,5.249-3.368,7.255a17.4,17.4,0,0,1-5.778,3.716c-3.7,1.756-7.537,3.761-9.744,7.213" transform="translate(3087.459 -929.066)" fill="#535f1f"/>
            <path id="Trazado_613589" data-name="Trazado 613589" d="M-3069.83,953.619c.731-3.205-1.948-6.239-4.869-7.749s-6.281-2.178-8.933-4.121c-3.759-2.757-5.424-7.708-5.243-12.366,2.565.815,5.382-.015,8.026.491,3.338.639,5.9,3.281,8,5.95a20.015,20.015,0,0,1,4.08,7.436,19.662,19.662,0,0,1-.341,8.81" transform="translate(3088.888 -929.088)" fill="#4c571c"/>
            <path id="Trazado_613590" data-name="Trazado 613590" d="M-3065.653,951.111c-.3-2.911,1.467-5.6,3.241-7.923,2.92-3.829,6.274-7.6,10.747-9.376" transform="translate(3087.28 -929.395)" fill="none" stroke="#613445" stroke-miterlimit="10" stroke-width="0.25"/>
            <path id="Trazado_613591" data-name="Trazado 613591" d="M-3086.179,931.505c1.315,2.291,4.05,3.249,6.375,4.5a26.066,26.066,0,0,1,10.963,12.415" transform="translate(3088.7 -929.235)" fill="none" stroke="#613445" stroke-miterlimit="10" stroke-width="0.25"/>
          </g>
          <g id="Grupo_876017" data-name="Grupo 876017" transform="translate(74.698 25.249)">
            <path id="Trazado_613592" data-name="Trazado 613592" d="M-3041.629,921.85a22.1,22.1,0,0,1,6.112-18.335,22.1,22.1,0,0,1,18.3-6.228c-2.354,1.3-3.6,3.938-4.47,6.478s-1.583,5.249-3.369,7.255a17.391,17.391,0,0,1-5.778,3.716c-3.7,1.756-7.536,3.761-9.743,7.213" transform="translate(3061.014 -897.106)" fill="#535f1f"/>
            <path id="Trazado_613593" data-name="Trazado 613593" d="M-3043.384,921.659c.732-3.205-1.949-6.239-4.868-7.749s-6.282-2.178-8.934-4.121c-3.759-2.757-5.424-7.708-5.242-12.366,2.564.815,5.382-.015,8.026.491,3.337.64,5.9,3.281,8,5.95a20.011,20.011,0,0,1,4.08,7.437,19.654,19.654,0,0,1-.341,8.809" transform="translate(3062.442 -897.128)" fill="#4c571c"/>
            <path id="Trazado_613594" data-name="Trazado 613594" d="M-3039.208,919.151c-.3-2.911,1.468-5.6,3.242-7.923,2.92-3.829,6.274-7.6,10.747-9.376" transform="translate(3060.834 -897.435)" fill="none" stroke="#613445" stroke-miterlimit="10" stroke-width="0.25"/>
            <path id="Trazado_613595" data-name="Trazado 613595" d="M-3059.734,899.545c1.315,2.292,4.049,3.249,6.374,4.5a26.066,26.066,0,0,1,10.964,12.415" transform="translate(3062.254 -897.275)" fill="none" stroke="#613445" stroke-miterlimit="10" stroke-width="0.25"/>
          </g>
          <g id="Grupo_876018" data-name="Grupo 876018" transform="translate(94.631)">
            <path id="Trazado_613596" data-name="Trazado 613596" d="M-3020.212,894.722a22.1,22.1,0,0,1,6.112-18.335,22.1,22.1,0,0,1,18.3-6.228c-2.354,1.295-3.6,3.938-4.47,6.478s-1.583,5.249-3.369,7.255a17.385,17.385,0,0,1-5.778,3.716c-3.7,1.756-7.536,3.761-9.743,7.213" transform="translate(3039.596 -869.978)" fill="#535f1f"/>
            <path id="Trazado_613597" data-name="Trazado 613597" d="M-3021.967,894.531c.731-3.205-1.949-6.239-4.869-7.749s-6.282-2.178-8.934-4.122c-3.759-2.756-5.425-7.707-5.242-12.365,2.564.814,5.382-.015,8.025.491,3.337.639,5.9,3.281,8,5.95a20.02,20.02,0,0,1,4.081,7.436,19.679,19.679,0,0,1-.341,8.81" transform="translate(3041.025 -870)" fill="#4c571c"/>
            <path id="Trazado_613598" data-name="Trazado 613598" d="M-3017.792,892.023c-.295-2.911,1.468-5.6,3.242-7.923,2.919-3.829,6.274-7.6,10.747-9.376" transform="translate(3039.417 -870.307)" fill="none" stroke="#613445" stroke-miterlimit="10" stroke-width="0.25"/>
            <path id="Trazado_613599" data-name="Trazado 613599" d="M-3038.317,872.417c1.315,2.291,4.049,3.249,6.375,4.5a26.071,26.071,0,0,1,10.964,12.415" transform="translate(3040.837 -870.147)" fill="none" stroke="#613445" stroke-miterlimit="10" stroke-width="0.25"/>
          </g>
        </g>
      </g>
      <g id="Grupo_876023" data-name="Grupo 876023" transform="translate(-3032.396 841.001)">
        <path id="Trazado_613600" data-name="Trazado 613600" d="M-2974.484,881.192l1.989,1.155,2.382,1.378,2.649,1.525c1.666,1.295,3.345,2.586,5.011,3.881l6.764,4.659,6.142-11.464-7.59-5.495q-2.858-1.853-5.7-3.719l-6.85-3.644Z" transform="translate(3015.927 -846.763)" fill="#6b3020"/>
        <path id="Trazado_613601" data-name="Trazado 613601" d="M-2939.471,923.806a17.925,17.925,0,0,0,1.24,5.233,17.466,17.466,0,0,0,1.381,2.834,85.892,85.892,0,0,1,7.8,18.734q6.36-1.487,12.689-3.056a30.18,30.18,0,0,0,9.169-3.362c6.807-4.329,8.956-13.459,7.226-21.214a34.321,34.321,0,0,0-2.487-7.1c-.612-1.319-1.3-2.6-2.042-3.878-.851-1.471-1.781-2.909-2.735-4.325h-.012c-1.28-1.9-2.629-3.772-3.967-5.619l-27.11,13.4a15.352,15.352,0,0,0-.9,3.144A19.81,19.81,0,0,0-2939.471,923.806Z" transform="translate(3013.507 -849.02)" fill="#6b3020"/>
        <path id="Trazado_613602" data-name="Trazado 613602" d="M-2961.916,898.591l5.246,5.1c1.476,1.434,3.022,2.99,3.465,5a7.858,7.858,0,0,1-.819,4.964c-1.946,4.118-5.78,7.276-6.995,11.667-.762,2.759-.393,5.686-.543,8.544-.4,7.651-4.477,14.557-8.442,21.112l-13.176,21.782c-1.219.209-5.862-.723-5.862-.723s14.705-36.985,17.293-56.3c1.235-9.225,2.093-19.022,7.559-26.556" transform="translate(3016.936 -848.406)" fill="#612b1d"/>
        <path id="Trazado_613603" data-name="Trazado 613603" d="M-2955.843,914.023a24.385,24.385,0,0,1-15.9-4.815l5.176-11.2c.537-1.162,1.7-5.729,7.235-5.286S-2955.843,914.023-2955.843,914.023Z" transform="translate(3015.737 -848.372)" fill="#a67435"/>
        <path id="Trazado_613604" data-name="Trazado 613604" d="M-2989.838,991.02a19.783,19.783,0,0,1-4.885-.494l4.961-6.729a8.292,8.292,0,0,1-3.239.908,2.829,2.829,0,0,1-2.716-1.652c1.959-.053,3.536-1.526,5.08-2.733s3.642-2.248,5.389-1.361l2.266.378a19.38,19.38,0,0,1,1.64,5.881,13.371,13.371,0,0,1-.1,2.816A14.615,14.615,0,0,1-2989.838,991.02Z" transform="translate(3017.398 -854.326)" fill="#575e3c"/>
        <path id="Trazado_613605" data-name="Trazado 613605" d="M-2999.415,991.728a7.713,7.713,0,0,0,1.1,3.124,1.079,1.079,0,0,0,.485.488,1.1,1.1,0,0,0,.666-.039c6.551-1.778,13.267-3.633,18.75-7.633a1.24,1.24,0,0,0,.5-.569,1.26,1.26,0,0,0-.085-.762,13.884,13.884,0,0,0-1.987-4.31,2.56,2.56,0,0,0-.948-.821,3.1,3.1,0,0,0-2.391.3c-4.986,2.122-9.435,5.258-14.018,8.15C-2998.158,990.179-2999.491,991.143-2999.415,991.728Z" transform="translate(3017.655 -854.494)" fill="#993825"/>
        <path id="Trazado_613606" data-name="Trazado 613606" d="M-2981.679,990.486a28.138,28.138,0,0,0-3.87-3.829,1.2,1.2,0,0,0-.733-.351.836.836,0,0,0-.727.812,2.352,2.352,0,0,0,.308,1.143q.994,2.126,2.18,4.154a7.675,7.675,0,0,0-4.016-3.933c-.349-.146-.895-.167-.96.206a.674.674,0,0,0,.1.4l1.922,3.886a19.405,19.405,0,0,0-2.652-2,1.835,1.835,0,0,0-.921-.356.672.672,0,0,0-.705.563,1,1,0,0,0,.258.592q.713.969,1.426,1.939l-2.637-.213c-.422-.034-.952-.007-1.123.38-.249.563.54.994,1.144,1.109a12.826,12.826,0,0,0,3.194.338c3.112-.193,5.6-2.547,7.8-4.761" transform="translate(3017.271 -854.857)" fill="#575e3c"/>
        <path id="Trazado_613607" data-name="Trazado 613607" d="M-2988.489,978.791c.007-.43,2.524-14.889,2.524-14.889l11.723,3.05-7.671,13.519Z" transform="translate(3016.898 -853.305)" fill="#575e3c"/>
        <path id="Trazado_613608" data-name="Trazado 613608" d="M-2939.47,923.808a35.836,35.836,0,0,1,5.193-3.905c4.058-2.522,12.045.758,18.4-1.442,4.074-1.407,8.634-4.461,11.386-6.463-2-3.441-4.375-6.715-6.715-9.943l-27.109,13.4A18.415,18.415,0,0,0-2939.47,923.808Z" transform="translate(3013.507 -849.021)" fill="#612b1d"/>
        <path id="Trazado_613609" data-name="Trazado 613609" d="M-2988.2,955.675c.795-8.44,9.1-14.031,16.886-17.656a145.547,145.547,0,0,1,58.576-13.584l8.566-3.061a34.976,34.976,0,0,1,3.1,12.484c.661,7.853-6.634,14.825-21.82,17.464s-29.468,8.357-32.438,8.84c-5.042.819-10.612,1.618-13.943,5.436,5.2,3.18,10.6,6.558,13.762,11.739,2.207,3.617,3.141,7.834,4.031,11.97q1.819,8.312,3.615,16.637c.053.264.118.53.172.795.018.08.032.163.05.244a18.388,18.388,0,0,0-3.463-.322c-.716-.031-1.468-.085-2.223-.125-12.988-8.284-21.464-21.929-29.422-35.07C-2985.69,966.6-2988.732,961.3-2988.2,955.675Z" transform="translate(3016.881 -850.359)" fill="#6b3020"/>
        <path id="Trazado_613610" data-name="Trazado 613610" d="M-2876.732,992.208l-.258,16.865q11.7-.3,23.365-1.32l.089-5.854c-5.51-3.151-10.024-8.307-16.262-9.608A34.011,34.011,0,0,0-2876.732,992.208Z" transform="translate(3009.173 -855.256)" fill="#6b3020"/>
        <path id="Trazado_613611" data-name="Trazado 613611" d="M-2880.359,998.5c.167-3.59.273-12.113.273-12.113s-14.576.378-17.462-3.843c-3.111-4.551-1.737-10.528-.616-15.859a118.045,118.045,0,0,0,2.327-31.043,11.685,11.685,0,0,0-.975-4.717l-1.053,2.257c-.257-1.077-.543-2.147-.876-3.2l-35.3,24.43a351.128,351.128,0,0,0,11.258,33.884c2.126,5.5,4.78,11.36,10.122,14.2,3.588,1.892,7.842,2.116,11.934,2.236q9.979.285,19.953.051C-2880.7,1002.66-2880.453,1000.53-2880.359,998.5Z" transform="translate(3013.126 -850.955)" fill="#6c754b"/>
        <path id="Trazado_613612" data-name="Trazado 613612" d="M-2922.881,951.32c-15.2,2.644-39.746,14.272-39.746,14.272l9.4,9.383s-4.639,1.528-9.927,3.282c-2.339.785-4.8,1.6-7.043,2.339-2.193.745-4.174,1.409-5.635,1.914-2.406-3.641-4.678-7.362-6.911-11.043-2.95-4.863-5.992-10.165-5.448-15.787.785-8.438,9.1-14.032,16.877-17.66a144.822,144.822,0,0,1,16.4-6.458,144.71,144.71,0,0,1,22.139-5.329,140.73,140.73,0,0,1,20.039-1.794l8.572-3.07a35.057,35.057,0,0,1,3.109,12.492C-2900.409,941.712-2907.7,948.688-2922.881,951.32Z" transform="translate(3016.882 -850.358)" fill="#778254"/>
        <path id="Trazado_613613" data-name="Trazado 613613" d="M-2963.37,892.286q1.8-8.082,3.594-16.165a4.778,4.778,0,0,1,1.132-2.551c1.114-1.043,2.876-.786,4.367-.459,7.751,1.7,15.535,3.491,22.844,6.581s14.19,7.572,19.037,13.859a68.274,68.274,0,0,1,4.691,7.264c4.1,6.986,8.165,14.066,10.731,21.748s3.559,16.094,1.4,23.9a27.285,27.285,0,0,1-22.7-.23,65.581,65.581,0,0,0-6.457-3.151c-4.394-1.535-9.2-.918-13.853-1.12s-9.8-1.631-12.088-5.685c-2.443-4.333-.65-9.768-1.356-14.692a14.517,14.517,0,0,0-5.361-9.27,9.181,9.181,0,0,1-2.5-2.335,14.452,14.452,0,0,1-.871-2.451c-.79-2.193-2.7-3.914-3.166-6.2a10.491,10.491,0,0,1,.134-3.7q.642-4.118,1.283-8.238" transform="translate(3015.204 -846.996)" fill="#b9813b"/>
        <path id="Trazado_613614" data-name="Trazado 613614" d="M-2960.811,907.559a37.382,37.382,0,0,1,2.231-15.278,6.826,6.826,0,0,1,2.7-3.848,6.014,6.014,0,0,1,3.028-.66c6.489.156,14.148,4.688,15.99,18.314s-3.39,23.414-10.289,29.385-28.01,14.636-28.01,14.636l-3.294-5c6.872-5.921,20.158-16.338,20.158-16.338C-2958.691,928.928-2960.811,907.559-2960.811,907.559Z" transform="translate(3016.203 -848.031)" fill="#6b3020"/>
        <path id="Trazado_613615" data-name="Trazado 613615" d="M-2953.382,880.009s-5.553-.081-6.973,8.97-.3,20.616-.3,20.616l31.687.3S-2932.985,882.289-2953.382,880.009Z" transform="translate(3014.998 -847.493)" fill="#b9813b"/>
        <path id="Trazado_613616" data-name="Trazado 613616" d="M-2977.75,949.156c-3.11.643-6.409.173-9.519.821a1.493,1.493,0,0,0-.82.369.661.661,0,0,0-.041.871,1.55,1.55,0,0,0,.487.253c.166.078.334.241.309.426a2.549,2.549,0,0,0-.884.546,1,1,0,0,0-.236,1.012,1.43,1.43,0,0,0,.859.7,1.537,1.537,0,0,0-.622,1.028c-.025.425.347.906.738.816a1.924,1.924,0,0,0-.724,1.269,1.462,1.462,0,0,0,1.247,1.319,3.566,3.566,0,0,0,1.82-.332l5.178-1.93a20.147,20.147,0,0,0,3.755-1.7,20.721,20.721,0,0,0,4.158-3.846" transform="translate(3016.899 -852.284)" fill="#575e3c"/>
        <path id="Trazado_613617" data-name="Trazado 613617" d="M-3007.243,997.73l8.435-4.712c.571.2,1.166.356,1.335,1.062a.8.8,0,0,1-.056.521l-6.206,3.35c-1.077.582-2.34,1.576-3.523.771A.581.581,0,0,1-3007.243,997.73Z" transform="translate(3018.216 -855.322)" fill="#8c8268"/>
        <path id="Trazado_613618" data-name="Trazado 613618" d="M-3002.173,999.217a9.6,9.6,0,0,0-5.468-4.764,4.225,4.225,0,0,0-1.945-.261,5.463,5.463,0,0,0-2.678,1.59,37.385,37.385,0,0,0-6.365,6.722,1.607,1.607,0,0,0-.375,1.056,1.273,1.273,0,0,0,.37.679c1.153,1.227,3.1,1.116,4.771.913,3.523-.429,7.1-.873,10.354-2.3a3.529,3.529,0,0,0,2.036-1.711c.478-1.227-.371-2.537-1.176-3.58" transform="translate(3019.012 -855.402)" fill="#8c8268"/>
        <path id="Trazado_613619" data-name="Trazado 613619" d="M-3006.867,1000.339c.126.006.053.24-.073.224s-.194-.15-.252-.263a2.567,2.567,0,0,0-3.966-.563,5.934,5.934,0,0,0-2.484-3.008,3.1,3.1,0,0,0-3.538-.068,3.828,3.828,0,0,0-1.014,2.489q-.152,1.177-.2,2.364a1.612,1.612,0,0,0,.126.856,1.566,1.566,0,0,0,1.176.614,11.78,11.78,0,0,0,6.774-.9,16.693,16.693,0,0,1,3.673-1.574" transform="translate(3018.97 -855.538)" fill="#704b16"/>
        <path id="Trazado_613620" data-name="Trazado 613620" d="M-2980.014,949.229l10.578-11.745,8.095,10.936-16.339,6.593Z" transform="translate(3016.311 -851.475)" fill="#575e3c"/>
        <path id="Trazado_613621" data-name="Trazado 613621" d="M-2944.473,1012.73c-.182-.577-2.777-18.607-2.777-18.607l-19.045,6.407,12.635,12.25-5.408,3.171,15.308.235Z" transform="translate(3015.36 -855.399)" fill="#351a1a"/>
        <path id="Trazado_613622" data-name="Trazado 613622" d="M-2854.263,1009.217l13.785-.363,8.979,1.094-6.015-7.173-2.511,1.493-15.541-10Z" transform="translate(3007.689 -855.409)" fill="#351a1a"/>
        <g id="Grupo_876022" data-name="Grupo 876022" transform="translate(16.379)">
          <path id="Trazado_613623" data-name="Trazado 613623" d="M-2971.232,862.032c1.079,6.48,2.023,13.668-1.583,19.158a8.771,8.771,0,0,1-4.737,3.784c-4.185,1.185-8.872-3.043-8.125-7.327l-.513-12.06Z" transform="translate(3000.359 -846.248)" fill="#6b3020"/>
          <path id="Trazado_613624" data-name="Trazado 613624" d="M-2989.576,875.761c.073.363,2.157,9.65,2.157,9.65l5.459-2.967-1.594-11.271-7.781.779Z" transform="translate(3000.716 -846.881)" fill="#6b3020"/>
          <path id="Trazado_613625" data-name="Trazado 613625" d="M-2992.036,866.552l10.367.963,3.829.357c-.617-1.289-1.1-2.78.726-2.965,2.254-.221,2.729,2,2.7,3.288l.2.01,3.308.309s1.6-9.419-3.046-12.4S-2992.036,866.552-2992.036,866.552Z" transform="translate(3000.764 -845.808)" fill="#351a1a"/>
          <path id="Trazado_613626" data-name="Trazado 613626" d="M-2973.17,869.741l-.147.328C-2973.267,870.072-2973.217,869.95-2973.17,869.741Z" transform="translate(2999.468 -846.782)" fill="#ffa879"/>
          <path id="Trazado_613627" data-name="Trazado 613627" d="M-2980.912,867.955a2.051,2.051,0,0,0,.14.335c2.013,3.873,3.88,2.256,4.44,1.933.236-.134-.291-.966-.751-1.912-.617-1.289-1.1-2.78.726-2.965,2.254-.221,2.729,2,2.7,3.288a3.158,3.158,0,0,1-.05.572l.251-.562,1.408-3.112-3.289-3.509S-2982.347,864.292-2980.912,867.955Z" transform="translate(3000.007 -846.247)" fill="#351a1a"/>
          <g id="Grupo_876021" data-name="Grupo 876021" transform="translate(27.286 14.035)">
            <path id="Trazado_613628" data-name="Trazado 613628" d="M-2970.893,860.153a16.33,16.33,0,0,1,10.2,4.925,11.275,11.275,0,0,1,2.622,10.732c-.719,2.233-2.261,4.2-2.555,6.529a5.576,5.576,0,0,0-2-4.54,27.811,27.811,0,0,0-4.258-2.879,26.988,26.988,0,0,1-4.333-3.413,2.991,2.991,0,0,1-.709-.908,2.964,2.964,0,0,1-.171-1.172,23.569,23.569,0,0,1,1.311-7.768" transform="translate(2972.097 -860.153)" fill="#351a1a"/>
            <path id="Trazado_613629" data-name="Trazado 613629" d="M-2961.541,876.075a8.723,8.723,0,0,0-3.864,7.234,17.9,17.9,0,0,0,2.086,8.21,8.6,8.6,0,0,0,4.561-6.714,8.6,8.6,0,0,0-3.208-7.455" transform="translate(2971.634 -861.256)" fill="#351a1a"/>
            <path id="Trazado_613630" data-name="Trazado 613630" d="M-2962.326,887.81c-2.945,2.009-4.179,5.881-3.88,9.433s1.889,6.858,3.612,9.977a16.812,16.812,0,0,0,2.8-5.542c.59-2.656-.138-5.407-.861-8.03l-1.251-4.535c-.139-.5-.54-1.143-1.013-.919" transform="translate(2971.692 -862.069)" fill="#351a1a"/>
            <path id="Trazado_613631" data-name="Trazado 613631" d="M-2962.727,899.83c-2.72,1.959-4.073,5.353-4.5,8.679a9.039,9.039,0,0,0,.063,3.248,11.461,11.461,0,0,0,2.073,3.852l2.5,3.492a16.4,16.4,0,0,0-.964-17.419" transform="translate(2971.768 -862.902)" fill="#351a1a"/>
            <path id="Trazado_613632" data-name="Trazado 613632" d="M-2962.438,916.261a2.94,2.94,0,0,1-.507,2.09,11.122,11.122,0,0,0-1.584,5.609,6.628,6.628,0,0,0,2.843,5.042,6.5,6.5,0,0,1-.468-2.446,6.326,6.326,0,0,1,1.856,1.66,2.158,2.158,0,0,1,.11,2.357,7.817,7.817,0,0,0,2.081-5.244,7.819,7.819,0,0,0-2.033-5.263,17.555,17.555,0,0,1-1.472-1.588,2.369,2.369,0,0,1-.459-2.037" transform="translate(2971.574 -864.04)" fill="#351a1a"/>
          </g>
          <path id="Trazado_613633" data-name="Trazado 613633" d="M-2975.16,856.3a43.267,43.267,0,0,1,12.218-3.953c1.052-.173,2.405-.157,2.85.811s-.427,2.008-1.253,2.682c-7.26,5.932-17.019,8.738-23.01,15.949-1.879,2.262-3.367,4.937-5.789,6.605-6.813,6.277-18.941,4.144-4.5-10.4C-2991.073,865.989-2975.16,856.3-2975.16,856.3Z" transform="translate(3001.414 -845.571)" fill="#bc6348"/>
          <path id="Trazado_613634" data-name="Trazado 613634" d="M-2994.781,866.4c-.743-3.21-1.689-6.37-2.534-9.555a6.009,6.009,0,0,1-.171-3.746c.631-1.563,2.387-2.273,3.866-3.083,2.116-1.158,3.941-2.806,6.092-3.9s4.875-1.55,6.909-.251a9.448,9.448,0,0,1,2.521,2.8l5.308,7.788s-14.858,11.669-18.452,12.577C-2993.521,869.605-2993.9,870.194-2994.781,866.4Z" transform="translate(3001.159 -845.073)" fill="#e58e67"/>
          <path id="Trazado_613635" data-name="Trazado 613635" d="M-2972.347,882.631l2.381,1.379c1.927-7.448-1.615-13.055-.419-9.145,1.306,4.276-2.175,7.135-1.941,7.563C-2972.326,882.428-2972.335,882.505-2972.347,882.631Z" transform="translate(2999.4 -847.048)" fill="#612b1d"/>
        </g>
        <path id="Trazado_613636" data-name="Trazado 613636" d="M-2956.907,884.808a7.217,7.217,0,0,1,6.717-3.057,11.506,11.506,0,0,1,6.812,3.4,22.093,22.093,0,0,1,5.664,10.424,65.981,65.981,0,0,1,1.589,11.89" transform="translate(3014.71 -847.612)" fill="none" stroke="#a67435" stroke-miterlimit="10" stroke-width="0.25"/>
        <path id="Trazado_613637" data-name="Trazado 613637" d="M-2955.9,877.294a10.717,10.717,0,0,1,4.043,3.9" transform="translate(3014.64 -847.305)" fill="none" stroke="#a67435" stroke-miterlimit="10" stroke-width="0.25"/>
        <path id="Trazado_613638" data-name="Trazado 613638" d="M-2914.073,919.253a24.725,24.725,0,0,1-7.187,13.032,24.716,24.716,0,0,1-13.4,6.478" transform="translate(3013.168 -850.212)" fill="none" stroke="#a67435" stroke-miterlimit="10" stroke-width="0.25"/>
        <path id="Trazado_613639" data-name="Trazado 613639" d="M-2928.761,926.058c-.157.334.3.618.663.685a7.11,7.11,0,0,0,3.467-.221" transform="translate(3012.762 -850.683)" fill="none" stroke="#a67435" stroke-miterlimit="10" stroke-width="0.25"/>
        <path id="Trazado_613640" data-name="Trazado 613640" d="M-2944.9,940.761c4.911,3.42,11.209,4.076,17.192,4.05,2.69-.011,5.47-.123,7.967.876,2.159.864,3.92,2.487,5.958,3.608a14.321,14.321,0,0,0,12.073.724" transform="translate(3013.878 -851.702)" fill="none" stroke="#a67435" stroke-miterlimit="10" stroke-width="0.25"/>
        <path id="Trazado_613641" data-name="Trazado 613641" d="M-2921.606,953.886q3.458,15.121,8.262,29.889c1.37,4.212,3.092,8.741,6.9,10.994,2.3,1.359,5.047,1.679,7.7,1.969l17.632,1.932" transform="translate(3012.264 -852.611)" fill="none" stroke="#778254" stroke-miterlimit="10" stroke-width="0.5"/>
      </g>
    </g>
    <g id="Grupo_876025" data-name="Grupo 876025" transform="translate(1060.837 4259.809)">
      <path id="Trazado_603412" data-name="Trazado 603412" d="M877.859,1001.225c28.011,66.45,2.591,142.923-61.031,177.568-1.25.736-4.949,2.539-6.337,3.214-1.157.624-3.07,1.442-4.316,1.958l-4.372,1.843c-2.086.874-4.568,1.594-6.7,2.408-2.581.918-6.474,1.944-9.1,2.728-1.38.334-5.493,1.253-6.95,1.6a136.6,136.6,0,0,1-147-67.38c-.688-1.425-2.7-5.038-3.342-6.463-.488-1.086-1.539-3.319-2.03-4.409-.828-1.63-2.057-5.055-2.779-6.73-.846-2.108-1.649-4.731-2.422-6.871-.6-1.751-1.5-5.233-2.054-6.993-.291-1.509-1.405-5.585-1.653-7.1-.194-1.169-.662-3.608-.86-4.784-.619-3.689-1.208-8.324-1.45-12.056-3.92-45.205,16.865-91.53,53.661-118.133a3.82,3.82,0,0,1,4.787,5.944,143.625,143.625,0,0,0-24.074,26.78c-.9,1.312-2.829,4.375-3.68,5.627-.624,1.132-2.688,4.611-3.365,5.813-2.29,4.268-4.336,8.66-6.267,13.1-.879,2.407-1.923,4.9-2.752,7.309-.5,1.5-1.54,4.947-2.016,6.379a131.448,131.448,0,0,0-5,32.946c-.123,2.49-.079,6.375.02,8.909-.018,1.2.2,3.223.273,4.445,4.389,64.74,58.715,117.549,123.752,119.831,81.275,3.589,146.155-69.568,131.747-149.933a121.333,121.333,0,0,0-11.622-34.32,3.82,3.82,0,1,1,6.919-3.228Z" transform="translate(-615 -950.884)" fill="#fda829"/>
    </g>
  </g>
</svg>
