<svg xmlns="http://www.w3.org/2000/svg" width="322.126" height="205.826" viewBox="0 0 322.126 205.826">
  <g id="Grupo_876658" data-name="Grupo 876658" transform="translate(2719.29 -800.831)">
    <path id="Trazado_615393" data-name="Trazado 615393" d="M-2518.433,1004.431c14.533-4.25,29.864-4.72,45-5.16l60.5-1.76c3.388-.1,6.846-.188,10.091.793a16.034,16.034,0,0,1,10.338,9.934,785,785,0,0,1-96.985,7.363c-11.754.161-23.875-.012-34.7-4.607a4.642,4.642,0,0,1-2.146-1.475c-1.042-1.535.071-3.777,1.744-4.581s3.632-.594,5.473-.363" transform="translate(-9.084 -8.981)" fill="#4f3715"/>
    <g id="Grupo_876652" data-name="Grupo 876652" transform="translate(-2719.29 816.285)">
      <g id="Grupo_876649" data-name="Grupo 876649" transform="translate(0 135.601)">
        <path id="Trazado_615394" data-name="Trazado 615394" d="M-2626.509,979.157l-67.457-7.177s-27.988,5.741-25.118,6.458,23.681,17.941,23.681,17.941h54.541Z" transform="translate(2719.29 -959.665)" fill="#916834"/>
        <path id="Trazado_615395" data-name="Trazado 615395" d="M-2677.161,994.139c2.075-.313,3.34-2.413,3.581-4.5a13,13,0,0,0-1.466-7.612c-.839-1.556-2.187-3.039-3.946-3.221a4.732,4.732,0,0,0-4.342,2.634,16.285,16.285,0,0,0-1.32,5.177C-2685.606,991.875-2682.648,994.965-2677.161,994.139Z" transform="translate(2717.664 -959.986)" fill="#b83a2b"/>
        <path id="Trazado_615396" data-name="Trazado 615396" d="M-2663.381,980.89c.784-1.187.161-2.747-.54-3.986-1.457-2.576-3.444-5.485-6.4-5.525a2.009,2.009,0,0,0-1.492.5,2.357,2.357,0,0,0-.446,1.815c.22,3.438,1.838,7.239,4.985,8.64C-2664.932,983.376-2664.087,981.958-2663.381,980.89Z" transform="translate(2717.072 -959.637)" fill="#b83a2b"/>
        <path id="Trazado_615397" data-name="Trazado 615397" d="M-2668.686,985.422a4.779,4.779,0,0,1-2.394,1.393,6.448,6.448,0,0,1-6.275-2.759,10,10,0,0,1-1.51-6.925c.211-1.809,1.094-3.868,2.886-4.2s3.326,1.265,4.39,2.752c1.262,1.764,2.315,3.664,3.461,5.5A3.172,3.172,0,0,1-2668.686,985.422Z" transform="translate(2717.386 -959.708)" fill="#d44332"/>
        <g id="Grupo_876645" data-name="Grupo 876645" transform="translate(57.057 13.464)">
          <path id="Trazado_615398" data-name="Trazado 615398" d="M-2646.515,978.574a7.339,7.339,0,0,0-.623-3.392,2.511,2.511,0,0,0-2.894-1.342,5.043,5.043,0,0,1,6.894,1.993" transform="translate(2658.966 -973.186)" fill="none" stroke="#4c571c" stroke-miterlimit="10" stroke-width="0.25"/>
          <path id="Trazado_615399" data-name="Trazado 615399" d="M-2630.079,988.366c.4,2.131-.43,4.647-2.414,5.522a4.828,4.828,0,0,1-4.588-.674,11.016,11.016,0,0,1-3.07-3.7,29.328,29.328,0,0,1-3.607-10.229,4.785,4.785,0,0,1,.146-2.615,2.088,2.088,0,0,1,2.125-1.153c1.533.126.9-.481,2.667-.53S-2631.213,980.023-2630.079,988.366Z" transform="translate(2658.675 -973.271)" fill="#b83a2b"/>
          <path id="Trazado_615400" data-name="Trazado 615400" d="M-2636.25,993.735c-.192,2.16-1.669,4.357-3.816,4.665a4.83,4.83,0,0,1-4.235-1.889,11.025,11.025,0,0,1-1.955-4.392,29.352,29.352,0,0,1-.71-10.823,4.8,4.8,0,0,1,.847-2.479,2.091,2.091,0,0,1,2.358-.535c1.441.535,1-.219,2.71.212S-2635.089,985.4-2636.25,993.735Z" transform="translate(2658.831 -973.42)" fill="#d44332"/>
          <path id="Trazado_615401" data-name="Trazado 615401" d="M-2644.246,979.992a65.689,65.689,0,0,1-1.843,8.352c-.72,2.76-2.01,5.534-4.36,7.149s-5.952,1.639-7.776-.555a6.092,6.092,0,0,1-1.026-5.106,15.387,15.387,0,0,1,2.215-4.881,29.322,29.322,0,0,1,5.206-5.912c1.671-1.544,4.061-2.768,6.135-1.975A2.243,2.243,0,0,1-2644.246,979.992Z" transform="translate(2659.408 -973.357)" fill="#e67d2e"/>
          <path id="Trazado_615402" data-name="Trazado 615402" d="M-2644.933,976.91c-.858-.4-2.8-1.415-4.58-.034s-2.387,1.812-2.387,1.812l3.7-.705-.356,4.344,2.351-3.385s.816-.249,1.434,1.359a3.962,3.962,0,0,0,2.137,2.311c.37.165-1.006-.717-1.07-2.371S-2643.193,977.719-2644.933,976.91Z" transform="translate(2659.054 -973.327)" fill="#4c571c"/>
          <path id="Trazado_615403" data-name="Trazado 615403" d="M-2641.617,974.618s-2.629.332-2.417,2.358.068,4.084-.627,4.623,1.931-1.009,1.979-2.61.6-1.961.6-1.961,2.9.643,4.04,2.748,2.339,1.631,2.339,1.631-1.385-3.273-3.019-4.3,1.82-.748,3.6.655,2.957.18,2.957.18a4.636,4.636,0,0,1-3.381-2.076C-2636.821,973.9-2639.9,972.525-2641.617,974.618Z" transform="translate(2658.717 -973.204)" fill="#4c571c"/>
        </g>
        <g id="Grupo_876646" data-name="Grupo 876646" transform="translate(49.781 6.638)">
          <path id="Trazado_615404" data-name="Trazado 615404" d="M-2651.882,973.072a65.724,65.724,0,0,1-1.843,8.352c-.719,2.76-2.009,5.534-4.36,7.15s-5.951,1.638-7.776-.556a6.091,6.091,0,0,1-1.026-5.106,15.379,15.379,0,0,1,2.215-4.88,29.3,29.3,0,0,1,5.206-5.913c1.671-1.544,4.061-2.768,6.135-1.974A2.243,2.243,0,0,1-2651.882,973.072Z" transform="translate(2667.044 -966.205)" fill="#b83a2b"/>
          <path id="Trazado_615405" data-name="Trazado 615405" d="M-2653.264,968.7l-1.027.827" transform="translate(2666.442 -966.148)" fill="none" stroke="#4c571c" stroke-miterlimit="10" stroke-width="0.25"/>
          <path id="Trazado_615406" data-name="Trazado 615406" d="M-2653.559,969.792a3.167,3.167,0,0,1,2.563-3.77" transform="translate(2666.412 -966.022)" fill="none" stroke="#4c571c" stroke-miterlimit="10" stroke-width="0.25"/>
          <path id="Trazado_615407" data-name="Trazado 615407" d="M-2652.282,970.144s-1.878-1.259-3.216-.606-2.232,1.519-3,1.421-.324.39.8.494a7.267,7.267,0,0,0,2.924-.8l-.917,4.743,2.5-3.915s-.166,2.84,1.6,3.419,1.909.086,1.909.086a2.426,2.426,0,0,1-1.812-1.935C-2651.779,971.422-2650.535,971.5-2652.282,970.144Z" transform="translate(2666.659 -966.179)" fill="#4c571c"/>
        </g>
        <g id="Grupo_876647" data-name="Grupo 876647" transform="translate(7.161 10.995)">
          <path id="Trazado_615408" data-name="Trazado 615408" d="M-2709.342,979.632c-.941-1.475,2.559-2.437,4.3-2.6a15.592,15.592,0,0,1,5.18.677c2.313.572,4.788,1.241,6.316,3.069s1.276,4.986-.853,6.058C-2697.56,988.424-2702.936,989.667-2709.342,979.632Z" transform="translate(2711.667 -970.897)" fill="#b83a2b"/>
          <path id="Trazado_615409" data-name="Trazado 615409" d="M-2709.6,979.492a1.613,1.613,0,0,0-1.469,1.55,4.7,4.7,0,0,0,.575,2.257c1.179,2.656,2.414,5.39,4.557,7.352s5.454,2.955,8.013,1.581a3.5,3.5,0,0,0,1.519-1.458c.679-1.361.05-3.01-.788-4.28a14.189,14.189,0,0,0-12.649-6.2" transform="translate(2711.742 -971.015)" fill="#d44332"/>
          <path id="Trazado_615410" data-name="Trazado 615410" d="M-2697.189,978.846c2.129-1.259,3.736-4.16,2.64-6.377-1.106-2.237-4.332-2.15-6.708-1.385a26.413,26.413,0,0,0-8.29,4.426c-.747.591-1.6,1.449-1.313,2.355C-2709.671,981.558-2703.437,982.539-2697.189,978.846Z" transform="translate(2711.734 -970.595)" fill="#e67d2e"/>
          <path id="Trazado_615411" data-name="Trazado 615411" d="M-2711.612,978.153s-.672-1.147.716-2.4a3.15,3.15,0,0,0,1.21-2.57s1.979-.021,1.335,1.47-1.207,2.735-1.207,2.735l4.682-1.783-2.689,3.08a5.486,5.486,0,0,1,3.384.212c1.575.725.922,1.392.922,1.392s-2.4-.717-3.466-.128,2.411,1.706,2.411,1.706a25.641,25.641,0,0,0-4.132-.78C-2710.675,980.865-2712.168,980.056-2711.612,978.153Z" transform="translate(2711.774 -970.717)" fill="#4c571c"/>
        </g>
        <g id="Grupo_876648" data-name="Grupo 876648" transform="translate(23.198)">
          <path id="Trazado_615412" data-name="Trazado 615412" d="M-2683.271,969.281a3.518,3.518,0,0,1,3-2.246,3.891,3.891,0,0,1,3.137,2.414c1.26,2.509,1.309,10.152-.689,11.405a4.8,4.8,0,0,1-6.376-.806C-2686.871,977.483-2683.819,970.5-2683.271,969.281Z" transform="translate(2694.488 -959.432)" fill="#b83a2b"/>
          <path id="Trazado_615413" data-name="Trazado 615413" d="M-2685.759,970.66c.06-1.125.01-2.338-1.017-2.8a3.355,3.355,0,0,0-3.2.477,9.908,9.908,0,0,0-2.261,2.493,13.5,13.5,0,0,0-2.594,4.95c-.378,1.839.184,4.035,1.831,4.937C-2689.981,982.365-2686.327,981.456-2685.759,970.66Z" transform="translate(2694.944 -959.46)" fill="#b83a2b"/>
          <path id="Trazado_615414" data-name="Trazado 615414" d="M-2687.387,968.3a18.821,18.821,0,0,1,3.034-8.029c.431-.641,1.068-1.327,1.83-1.2.943.16,1.212,1.367,1.269,2.323q.153,2.585.307,5.171" transform="translate(2694.587 -959.055)" fill="none" stroke="#4c571c" stroke-miterlimit="10" stroke-width="0.25"/>
          <path id="Trazado_615415" data-name="Trazado 615415" d="M-2681.929,959.282a29.651,29.651,0,0,0-2.374,11.274" transform="translate(2694.441 -959.066)" fill="none" stroke="#4c571c" stroke-miterlimit="10" stroke-width="0.25"/>
          <path id="Trazado_615416" data-name="Trazado 615416" d="M-2682.035,980.551c-.362,1.916-1.492,3.948-3.4,4.357-2.038.438-4.034-1.324-4.581-3.336a11.187,11.187,0,0,1,.592-6.139,8.7,8.7,0,0,1,1.418-3.045,3.211,3.211,0,0,1,2.962-1.263c1.68.33,2.314,2.286,2.969,3.868C-2681.664,975.979-2681.749,979.034-2682.035,980.551Z" transform="translate(2694.722 -959.623)" fill="#e67d2e"/>
          <path id="Trazado_615417" data-name="Trazado 615417" d="M-2683.868,971.185c-.859-.4-2.8-1.415-4.581-.035s-2.387,1.813-2.387,1.813l3.7-.705-.357,4.344,2.352-3.385s.815-.25,1.434,1.358a3.957,3.957,0,0,0,2.136,2.311c.37.165-1.007-.716-1.07-2.371S-2682.129,971.994-2683.868,971.185Z" transform="translate(2694.75 -959.593)" fill="#4c571c"/>
        </g>
        <path id="Trazado_615418" data-name="Trazado 615418" d="M-2659.51,988.087c-2.87,0-59.563-9.329-59.563-9.329s2.871,27.271,5.023,27.271,52.387,7.176,52.387,7.176Z" transform="translate(2719.279 -959.985)" fill="#b9813b"/>
        <path id="Trazado_615419" data-name="Trazado 615419" d="M-2627.244,1001.759c-2.152,1.435-31.576,11.481-31.576,11.481l2.152-25.117,33.012-8.611Z" transform="translate(2716.437 -960.02)" fill="#a67435"/>
        <path id="Trazado_615420" data-name="Trazado 615420" d="M-2717.542,986.129a113.817,113.817,0,0,0,14.406,3.579c5.956.939,12.065.932,17.916,2.383,2.407.6,4.756,1.438,7.195,1.9,1.208.226,2.431.356,3.654.487l13.352,1.424" transform="translate(2719.207 -960.333)" fill="none" stroke="#916834" stroke-miterlimit="10" stroke-width="0.25"/>
        <path id="Trazado_615421" data-name="Trazado 615421" d="M-2716.515,997.288c7.258,1.743,14.527,3.487,21.909,4.591,2.141.32,4.29.586,6.438.852l26.735,3.308" transform="translate(2719.159 -960.859)" fill="none" stroke="#916834" stroke-miterlimit="10" stroke-width="0.25"/>
        <path id="Trazado_615422" data-name="Trazado 615422" d="M-2656.319,995.625q14.981-3.393,29.659-7.976" transform="translate(2716.319 -960.404)" fill="none" stroke="#916834" stroke-miterlimit="10" stroke-width="0.25"/>
        <path id="Trazado_615423" data-name="Trazado 615423" d="M-2657.365,1006.327q15.127-4.551,30.14-9.467" transform="translate(2716.368 -960.839)" fill="none" stroke="#916834" stroke-miterlimit="10" stroke-width="0.25"/>
        <path id="Trazado_615424" data-name="Trazado 615424" d="M-2656.979,988.95a158.209,158.209,0,0,1-2.169,23.886" transform="translate(2716.453 -960.466)" fill="none" stroke="#916834" stroke-miterlimit="10" stroke-width="0.25"/>
        <path id="Trazado_615425" data-name="Trazado 615425" d="M-2660.03,990.366a.269.269,0,0,0-.1.343" transform="translate(2716.5 -960.533)" fill="none" stroke="#916834" stroke-miterlimit="10" stroke-width="0.25"/>
        <path id="Trazado_615426" data-name="Trazado 615426" d="M-2660.852,993.35v.113" transform="translate(2716.533 -960.673)" fill="none" stroke="#916834" stroke-miterlimit="10" stroke-width="0.25"/>
        <path id="Trazado_615427" data-name="Trazado 615427" d="M-2661.34,999.171a.269.269,0,0,0-.1.343" transform="translate(2716.562 -960.948)" fill="none" stroke="#916834" stroke-miterlimit="10" stroke-width="0.25"/>
        <path id="Trazado_615428" data-name="Trazado 615428" d="M-2661.8,1002.75" transform="translate(2716.578 -961.117)" fill="none" stroke="#916834" stroke-miterlimit="10" stroke-width="0.25"/>
        <path id="Trazado_615429" data-name="Trazado 615429" d="M-2662.053,1009.522a.269.269,0,0,0-.1.343" transform="translate(2716.595 -961.436)" fill="none" stroke="#916834" stroke-miterlimit="10" stroke-width="0.25"/>
        <path id="Trazado_615430" data-name="Trazado 615430" d="M-2662.047,1011.554h-.113" transform="translate(2716.594 -961.532)" fill="none" stroke="#916834" stroke-miterlimit="10" stroke-width="0.25"/>
        <path id="Trazado_615431" data-name="Trazado 615431" d="M-2712.4,1005.371c.01.055-.105.052-.092,0" transform="translate(2718.969 -961.24)" fill="none" stroke="#916834" stroke-miterlimit="10" stroke-width="0.25"/>
        <path id="Trazado_615432" data-name="Trazado 615432" d="M-2713.205,1002.274" transform="translate(2719.003 -961.094)" fill="none" stroke="#916834" stroke-miterlimit="10" stroke-width="0.25"/>
        <path id="Trazado_615433" data-name="Trazado 615433" d="M-2714.87,994.183" transform="translate(2719.081 -960.713)" fill="none" stroke="#916834" stroke-miterlimit="10" stroke-width="0.25"/>
        <path id="Trazado_615434" data-name="Trazado 615434" d="M-2715.471,990.845l-.113-.113" transform="translate(2719.115 -960.55)" fill="none" stroke="#916834" stroke-miterlimit="10" stroke-width="0.25"/>
        <path id="Trazado_615435" data-name="Trazado 615435" d="M-2716.179,983.117v.113" transform="translate(2719.143 -960.19)" fill="none" stroke="#916834" stroke-miterlimit="10" stroke-width="0.25"/>
        <path id="Trazado_615436" data-name="Trazado 615436" d="M-2716.423,980.976h-.113" transform="translate(2719.16 -960.089)" fill="none" stroke="#916834" stroke-miterlimit="10" stroke-width="0.25"/>
        <path id="Trazado_615437" data-name="Trazado 615437" d="M-2653.594,990.018v.113" transform="translate(2716.19 -960.516)" fill="none" stroke="#916834" stroke-miterlimit="10" stroke-width="0.25"/>
        <path id="Trazado_615438" data-name="Trazado 615438" d="M-2653.6,992.279h-.114" transform="translate(2716.196 -960.623)" fill="none" stroke="#916834" stroke-miterlimit="10" stroke-width="0.25"/>
        <path id="Trazado_615439" data-name="Trazado 615439" d="M-2653.957,998.585l-.113.113" transform="translate(2716.213 -960.92)" fill="none" stroke="#916834" stroke-miterlimit="10" stroke-width="0.25"/>
        <path id="Trazado_615440" data-name="Trazado 615440" d="M-2654.784,1001.8" transform="translate(2716.247 -961.072)" fill="none" stroke="#916834" stroke-miterlimit="10" stroke-width="0.25"/>
        <path id="Trazado_615441" data-name="Trazado 615441" d="M-2655.736,1009.532" transform="translate(2716.292 -961.437)" fill="none" stroke="#916834" stroke-miterlimit="10" stroke-width="0.25"/>
        <path id="Trazado_615442" data-name="Trazado 615442" d="M-2656.212,1011.2h.113" transform="translate(2716.314 -961.515)" fill="none" stroke="#916834" stroke-miterlimit="10" stroke-width="0.25"/>
        <path id="Trazado_615443" data-name="Trazado 615443" d="M-2627.061,1001.917v.113" transform="translate(2714.939 -961.077)" fill="none" stroke="#916834" stroke-miterlimit="10" stroke-width="0.25"/>
        <path id="Trazado_615444" data-name="Trazado 615444" d="M-2627.18,999.769l.113-.113" transform="translate(2714.944 -960.971)" fill="none" stroke="#916834" stroke-miterlimit="10" stroke-width="0.25"/>
        <path id="Trazado_615445" data-name="Trazado 615445" d="M-2626.585,993.939v-.113" transform="translate(2714.916 -960.696)" fill="none" stroke="#916834" stroke-miterlimit="10" stroke-width="0.25"/>
        <path id="Trazado_615446" data-name="Trazado 615446" d="M-2626.466,991.089" transform="translate(2714.911 -960.567)" fill="none" stroke="#916834" stroke-miterlimit="10" stroke-width="0.25"/>
        <path id="Trazado_615447" data-name="Trazado 615447" d="M-2625.77,985.028l-.226-.115" transform="translate(2714.888 -960.275)" fill="none" stroke="#916834" stroke-miterlimit="10" stroke-width="0.25"/>
        <path id="Trazado_615448" data-name="Trazado 615448" d="M-2625.639,982.641l-.113.113" transform="translate(2714.877 -960.168)" fill="none" stroke="#916834" stroke-miterlimit="10" stroke-width="0.25"/>
      </g>
      <path id="Trazado_615449" data-name="Trazado 615449" d="M-2629.729,886.062l-9.937,20.4s-9.066,6.522-12.441,13.8-12.748,23.409-12.748,23.409l4.617,1.576s14.087-11.649,18.949-19.211a120.983,120.983,0,0,0,8.361-15.784l8.459-12.876Z" transform="translate(2716.722 -820.011)" fill="#6b3020"/>
      <path id="Trazado_615450" data-name="Trazado 615450" d="M-2536.285,904.335s.839,5.321,13.939,10.555,28.834,9.9,28.868,9.6,4.753-3.364,4.753-3.364-18.588-16.208-35.593-21.023S-2536.285,904.335-2536.285,904.335Z" transform="translate(2710.689 -820.607)" fill="#6b3020"/>
      <path id="Trazado_615451" data-name="Trazado 615451" d="M-2600.318,993.8l1.435,11.123s-15.788,2.512-16.506,3.947,24.758-.358,24.758-.358l-2.511-15.071" transform="translate(2714.389 -825.077)" fill="#6b3020"/>
      <path id="Trazado_615452" data-name="Trazado 615452" d="M-2595.116,1004.165a35.21,35.21,0,0,1-3.98-.407l.214,1.656s-15.788,2.512-16.506,3.947,24.758-.358,24.758-.358l-.783-4.7C-2592.843,1004.306-2594.2,1004.2-2595.116,1004.165Z" transform="translate(2714.389 -825.564)" fill="#351a1a"/>
      <path id="Trazado_615453" data-name="Trazado 615453" d="M-2561.71,1004.632c.643.01,1.3-.014,1.959-.049-2.86-2.381-12.293-10.227-13.509-11.139l-8.612,3.229,13.605,8.164C-2566.074,1004.688-2563.92,1004.6-2561.71,1004.632Z" transform="translate(2712.807 -825.077)" fill="#6b3020"/>
      <path id="Trazado_615454" data-name="Trazado 615454" d="M-2563.3,1004.165c-1.938-.072-8.286-.407-8.286-.407l3.084,1.656s-14.353,2.512-15.07,3.947,24.758-.358,24.758-.358l-.783-4.7C-2561.022,1004.306-2562.379,1004.2-2563.3,1004.165Z" transform="translate(2712.887 -825.564)" fill="#351a1a"/>
      <path id="Trazado_615455" data-name="Trazado 615455" d="M-2589.411,934.062c-24.447,2.4-74.441,2.639-74.632,23.108-.765,9.194,13.118,14.591,20.986,17.52s16.174,4.525,24.1,7.286c11.531,4.016,22.05,10.418,32.817,16.178,1.211.648,2.576,1.307,3.9.955a5.577,5.577,0,0,0,2.05-1.265q4.459-3.75,8.92-7.5a211.488,211.488,0,0,0-31.065-22.852s31.052,6.525,37.031,1.262S-2589.411,934.062-2589.411,934.062Z" transform="translate(2716.685 -822.276)" fill="#524728"/>
      <path id="Trazado_615456" data-name="Trazado 615456" d="M-2580.041,845.946l-.886,2.321-6.355,21.019-12.94-5.464,8.2-24.473Z" transform="translate(2713.673 -817.807)" fill="#6b3020"/>
      <g id="Grupo_876650" data-name="Grupo 876650" transform="translate(114.946)">
        <path id="Trazado_615457" data-name="Trazado 615457" d="M-2567.26,840.444s-4.551-9.217-4.738-9.571l-1.106-4.394c-.581-2.083-1.657-7.564-8.739-7.512s-14.26-.243-15.923,6.936c-.481,2.074.421,4.165,1.94,6.091l-.171.082c3.489,6.177,7.575,12.857,14.331,15.023a9.474,9.474,0,0,0,6.548-.034,6.982,6.982,0,0,0,3.928-5.9Z" transform="translate(2598.616 -816.845)" fill="#6b3020"/>
        <path id="Trazado_615458" data-name="Trazado 615458" d="M-2566.486,820.75a6.289,6.289,0,0,0-2-.157,2.148,2.148,0,0,0,.99-.52.738.738,0,0,0,.027-1.015,1.03,1.03,0,0,0-.736-.156,11.623,11.623,0,0,0-2.87.517,3.6,3.6,0,0,0,.5-1.363,1.222,1.222,0,0,0-.617-1.223,1.634,1.634,0,0,0-.847-.069c-1.032.116-2.034.415-3.057.6-2.936.522-5.945.076-8.925.07a30.174,30.174,0,0,0-11.075,2.088,4.535,4.535,0,0,0-1.741,1.035,4.911,4.911,0,0,0-.964,2.226c-.7,2.865-1.373,5.969-.227,8.689.724,1.716,2.091,3.063,3.2,4.562s1.99,3.379,1.523,5.181l.75-.46c.692-.891,3.78-4.672,3.78-4.672a3.27,3.27,0,0,1-.43-.447c-.9-1.064-2.01-3.249.034-4.594,1.658-1.082,2.265.5,2.622,2,.253,1.107.376,2.164.666,2.116.69-.109,3.355-.017,2.418-4.637a2.2,2.2,0,0,0-.109-.376l.6-.587a7.819,7.819,0,0,0,1.972-.35.907.907,0,0,0,.45-.264,1.03,1.03,0,0,0,.137-.663,11.427,11.427,0,0,1,.623-3.833,1.31,1.31,0,0,1,.317-.569,1.3,1.3,0,0,1,.765-.256c2.419-.228,4.877.591,7.268.156a14.129,14.129,0,0,0,3.274-1.178C-2567.363,822.226-2566.415,821.638-2566.486,820.75Z" transform="translate(2598.652 -816.74)" fill="#351a1a"/>
        <path id="Trazado_615459" data-name="Trazado 615459" d="M-2580.351,848.39l-1.066,2.775c-6.673-4.951-7.5-12.066-5.855-7.968,1.8,4.478,6.671,4.518,6.764,5.038C-2580.508,848.234-2580.448,848.292-2580.351,848.39Z" transform="translate(2598.149 -817.931)" fill="#612b1d"/>
      </g>
      <path id="Trazado_615460" data-name="Trazado 615460" d="M-2538.2,952.295c-11.711-9.114-42.134-29.082-56.8-31.307a5.828,5.828,0,0,1-2.411-.732c-1.508-.961-1.823-2.971-2.024-4.736-1.062-9.616-2.5-19.577-7.837-27.628-.431-.632-.846-1.278-1.277-1.909-3.976-5.842-8.024-11.583-8.225-18.63a7.363,7.363,0,0,1,1.881-4.966c.171-.2.344-.387.545-.588.114-.13.23-.244.345-.359a16,16,0,0,1,5.095-3.057,32.113,32.113,0,0,1,5.827-1.623,70.582,70.582,0,0,1,15-.875,68.5,68.5,0,0,1,9.071.846,37.594,37.594,0,0,1,13.06,4.493,10.575,10.575,0,0,1,3.832,3.316c.991,1.564,1.033,3.52,1.435,5.324C-2555.018,895.287-2556.379,920-2538.2,952.295Z" transform="translate(2714.454 -818.585)" fill="#fda829"/>
      <path id="Trazado_615461" data-name="Trazado 615461" d="M-2567.5,862.477c3.553-.891,7.021,1.507,9.852,3.831a241.286,241.286,0,0,1,28.451,27.561,31.417,31.417,0,0,0-6.761,10.845c-.535,1.459-1.443,3.285-2.982,3.081a3.3,3.3,0,0,1-1.622-.929l-21.346-18.461,1.454-.361" transform="translate(2712.128 -818.889)" fill="#fda829"/>
      <path id="Trazado_615462" data-name="Trazado 615462" d="M-2575.889,920.536c-9.305-5.937-20.019-10.139-31.056-10.128-3.141,0-6.408.389-9.06,2.07-3.71,2.353-5.563,6.9-5.776,11.284s.972,8.708,2.146,12.94q7.941,28.626,15.88,57.251l14.262-.811q-1.7-19.682-3.4-39.365c6.4,14.342,22.592,23.648,38.208,21.964a19.993,19.993,0,0,0,15.1-9.188C-2535.316,959.507-2530.293,947.546-2575.889,920.536Z" transform="translate(2714.691 -821.16)" fill="#635734"/>
      <path id="Trazado_615463" data-name="Trazado 615463" d="M-2486.087,921.4s.485,1.385,3.028,1.9a3.377,3.377,0,0,0,3.658-1.734s-4.156-.487-5.1-1.865-2.807-2.461-5.309-.468-1.532,4.764.316,5.012S-2486.087,921.4-2486.087,921.4Z" transform="translate(2708.534 -821.524)" fill="#6b3020"/>
      <path id="Trazado_615464" data-name="Trazado 615464" d="M-2608.659,858.4c-3.662-.1-6.524,3-8.781,5.886a241.17,241.17,0,0,0-21.761,33.1,31.414,31.414,0,0,1,8.961,9.111c.839,1.307,2.124,2.893,3.582,2.356a3.3,3.3,0,0,0,1.381-1.26c5.6-7.556,21.341-32.566,27.855-30.833S-2608.659,858.4-2608.659,858.4Z" transform="translate(2715.511 -818.706)" fill="#fda829"/>
      <path id="Trazado_615465" data-name="Trazado 615465" d="M-2660.029,945.422c-.012.138-.025.277-.038.415a89.866,89.866,0,0,1-2.564,14.473,2.552,2.552,0,0,1-.476,1.077.94.94,0,0,1-1.088.273c-.642-.339-.381-1.264-.173-1.939a4.919,4.919,0,0,0-.061-3.06q-1.222,3.064-2.443,6.13a3.442,3.442,0,0,1-.841,1.4,1.251,1.251,0,0,1-1.545.13c-.611-.5-.326-1.445-.016-2.151a23.154,23.154,0,0,0,1.808-6.12c-2.222,1.562-3.163,4.329-4.97,6.338a.857.857,0,0,1-.722.378,2.085,2.085,0,0,1-1.749-1.639l4.18-5.233a2.276,2.276,0,0,0,.565-1.037.821.821,0,0,0-.568-.939,1.207,1.207,0,0,0-.926.387l-2.714,2.234a1.549,1.549,0,0,1-.876.446,1.076,1.076,0,0,1-.95-1.257,2.811,2.811,0,0,1,.923-1.474,36.782,36.782,0,0,1,3.937-3.457,1.034,1.034,0,0,0,.467-.58c.086-.5-.557-.814-1.073-.91a12.427,12.427,0,0,0-3.7-.131,3,3,0,0,1,2.293-2.273,9.517,9.517,0,0,1,3.46-.08,8.965,8.965,0,0,0,3.455-.12l4.151-3.336" transform="translate(2717.257 -822.715)" fill="#6b3020"/>
      <path id="Trazado_615466" data-name="Trazado 615466" d="M-2492.562,924.436c1.918,2.328,2.926,5.578,4.814,7.941.389.487,1.041.941,1.429.49.364-.423.1-1.182-.178-1.718l-2.107-4.061a19.412,19.412,0,0,0,6.816,4.889,3.8,3.8,0,0,0-1.432-2.913,7.3,7.3,0,0,1-2.1-2.42l4.927,2.754c.433.242,1.094.374,1.224-.172a1.158,1.158,0,0,0-.373-.956,13.158,13.158,0,0,0-3.828-3.071,24.909,24.909,0,0,0,5.608-.1c-.108-.673-.756-.97-1.3-1.13a50.241,50.241,0,0,0-12.252-2.019" transform="translate(2708.594 -821.704)" fill="#6b3020"/>
      <g id="Grupo_876651" data-name="Grupo 876651" transform="translate(41.306 117.914)">
        <path id="Trazado_615467" data-name="Trazado 615467" d="M-2669.882,944.349a65.677,65.677,0,0,1,6.25,5.84c2.01,2.025,3.74,4.547,3.932,7.393s-1.621,5.956-4.437,6.41a6.1,6.1,0,0,1-4.917-1.718,15.392,15.392,0,0,1-3.072-4.391,29.324,29.324,0,0,1-2.437-7.492c-.478-2.224-.315-4.9,1.424-6.286A2.244,2.244,0,0,1-2669.882,944.349Z" transform="translate(2675.885 -940.635)" fill="#b83a2b"/>
        <path id="Trazado_615468" data-name="Trazado 615468" d="M-2673.776,944.618a3.166,3.166,0,0,1-1.941-4.125" transform="translate(2675.939 -940.493)" fill="none" stroke="#4c571c" stroke-miterlimit="10" stroke-width="0.25"/>
        <path id="Trazado_615469" data-name="Trazado 615469" d="M-2672.81,943.534s-2.039.976-2.158,2.459.171,2.694-.307,3.307.171.477.832-.436a7.268,7.268,0,0,0,.8-2.926l3.615,3.205-2.1-4.143s2.359,1.589,3.758.361,1.046-1.6,1.046-1.6a2.426,2.426,0,0,1-2.589.574C-2671.453,943.752-2670.75,942.723-2672.81,943.534Z" transform="translate(2675.915 -940.622)" fill="#4c571c"/>
      </g>
      <path id="Trazado_615470" data-name="Trazado 615470" d="M-2578.339,856.731c-.847,2.584-4.378,10.923-13.952,10.018-11.31-1.076-9.874-9.874-9.874-9.874s-.1-.043-.244-.115a70.582,70.582,0,0,1,15-.875A68.5,68.5,0,0,1-2578.339,856.731Z" transform="translate(2713.776 -818.585)" fill="#6b3020"/>
    </g>
    <g id="Grupo_876655" data-name="Grupo 876655" transform="translate(-2517.386 807.162)">
      <path id="Trazado_615471" data-name="Trazado 615471" d="M-2467.24,995.587c-.092-1.017-4.082-188.421-4.082-188.421h2.381l6.122,188.761S-2466.9,999.327-2467.24,995.587Z" transform="translate(2505.687 -807.166)" fill="#b9813b"/>
      <g id="Grupo_876654" data-name="Grupo 876654" transform="translate(0 7.482)">
        <g id="Grupo_876653" data-name="Grupo 876653">
          <path id="Trazado_615472" data-name="Trazado 615472" d="M-2506.747,844.084c.021-.028.061-.058.087-.087.043-.042.08-.089.126-.126.006,0,.014-.008.021-.012a14.846,14.846,0,0,1,3.177-1.7,11.747,11.747,0,0,1,8.49.316c-.567-.6.119-1.672.939-1.756a3.385,3.385,0,0,1,2.23.929l2.115,1.579c.538.4,1.259.818,1.835.472.431-.26.554-.838.929-1.175.71-.639,1.847-.108,2.536.554a8.3,8.3,0,0,1,2.045,8.474l-.1-.047.124.543a21.864,21.864,0,0,1-9,3.235c-1.295.16-3.053-.156-3.171-1.455-.111-1.215,1.352-1.882,2.534-2.18a19.425,19.425,0,0,1-5.952-.353,2.306,2.306,0,0,1-.963-.377,1.267,1.267,0,0,1-.219-1.689,1.193,1.193,0,0,1,.692-.421c-2.466-.366-4.916-.826-7.338-1.418a2.914,2.914,0,0,1-1.285-.552A1.992,1.992,0,0,1-2506.747,844.084Z" transform="translate(2507.389 -816.231)" fill="#677331"/>
          <path id="Trazado_615473" data-name="Trazado 615473" d="M-2461.115,833.994a3.686,3.686,0,0,1,2.074-1.69c.9-.181,1.987.587,1.765,1.474a9.548,9.548,0,0,1,9.876-2.248c.27.1.577.267.594.554a.788.788,0,0,1-.3.548l-1.784,1.808,10.807,1.333c-1.666,2.922-5.466,3.67-8.8,4.118l3,.652a13.374,13.374,0,0,1-4.085,1.858,5.179,5.179,0,0,1-4.291-.8c-.472-.375-1.193-.853-1.561-.376a2.52,2.52,0,0,1-.515,3.324,4.115,4.115,0,0,1-3.52.691,12.154,12.154,0,0,1-3.382-1.5l-3-1.718-.058-1.419A22.058,22.058,0,0,1-2461.115,833.994Z" transform="translate(2505.356 -815.772)" fill="#677331"/>
          <path id="Trazado_615474" data-name="Trazado 615474" d="M-2478.841,826.119a28.777,28.777,0,0,1-6.635-3.778c-.438-.333-.9-.941-.545-1.36a1.05,1.05,0,0,1,.693-.271l1.852-.237-4.04-3.858c-.363-.347-.741-.918-.4-1.289a.947.947,0,0,1,.61-.231,12.067,12.067,0,0,1,9.1,2.761,6.745,6.745,0,0,1-.426-2.465,5.138,5.138,0,0,1,4.1,2.178,12.022,12.022,0,0,1,1.831,4.056,1.083,1.083,0,0,1,1.4-.884,2.408,2.408,0,0,1,1.2,1.943,9.945,9.945,0,0,1-.6,5.519c-.584,1.413-1.513,2.768-1.477,4.3l-1.2,3.243a2.35,2.35,0,0,0-.249-1.095,5.768,5.768,0,0,0-1.563-1.707l-4.165-3.465a2.355,2.355,0,0,1-.812-.975C-2480.483,827.578-2479.615,826.711-2478.841,826.119Z" transform="translate(2506.477 -815.019)" fill="#677331"/>
          <path id="Trazado_615475" data-name="Trazado 615475" d="M-2472.673,836.768a1.62,1.62,0,0,1-.4,1.089Z" transform="translate(2505.77 -816.045)" fill="#677331"/>
        </g>
        <path id="Trazado_615476" data-name="Trazado 615476" d="M-2490.569,886.616c-.607-1.642-3.486.569-4.67,1.858a15.6,15.6,0,0,0-2.587,4.537c-.94,2.19-1.9,4.567-1.365,6.888s3.206,4.028,5.344,2.978C-2490.668,901.315-2486.434,897.779-2490.569,886.616Z" transform="translate(2507.01 -818.369)" fill="#b83a2b"/>
        <path id="Trazado_615477" data-name="Trazado 615477" d="M-2487.178,957.485a7.336,7.336,0,0,1,.623-3.391,2.511,2.511,0,0,1,2.894-1.342,5.043,5.043,0,0,0-6.894,1.993" transform="translate(2506.595 -821.486)" fill="none" stroke="#4c571c" stroke-miterlimit="10" stroke-width="0.25"/>
        <path id="Trazado_615478" data-name="Trazado 615478" d="M-2480.266,909.125c-2.663,9.595-1.224,19.775-1.312,29.732-.05,5.675-.6,11.332-1.157,16.98" transform="translate(2506.226 -819.458)" fill="none" stroke="#4c571c" stroke-miterlimit="10" stroke-width="0.5"/>
        <path id="Trazado_615479" data-name="Trazado 615479" d="M-2482.964,971.04a261.3,261.3,0,0,1-1.649,35" transform="translate(2506.315 -822.379)" fill="none" stroke="#4c571c" stroke-miterlimit="10" stroke-width="0.5"/>
        <path id="Trazado_615480" data-name="Trazado 615480" d="M-2488.125,923.261c.221,2.157,1.726,4.335,3.876,4.615a4.829,4.829,0,0,0,4.211-1.943,11.022,11.022,0,0,0,1.9-4.416,29.325,29.325,0,0,0,.569-10.832,4.777,4.777,0,0,0-.878-2.467,2.088,2.088,0,0,0-2.365-.505c-1.434.554-1-.207-2.708.246S-2489.394,914.938-2488.125,923.261Z" transform="translate(2506.491 -819.384)" fill="#d44332"/>
        <path id="Trazado_615481" data-name="Trazado 615481" d="M-2478.272,910.371a65.691,65.691,0,0,0,1.843,8.352c.719,2.76,2.008,5.534,4.36,7.149s5.952,1.638,7.776-.555a6.094,6.094,0,0,0,1.026-5.106,15.39,15.39,0,0,0-2.215-4.881,29.33,29.33,0,0,0-5.206-5.913c-1.671-1.544-4.061-2.767-6.135-1.974A2.243,2.243,0,0,0-2478.272,910.371Z" transform="translate(2506.021 -819.367)" fill="#b83a2b"/>
        <path id="Trazado_615482" data-name="Trazado 615482" d="M-2464.1,915.057c-2.077-.313-3.341-2.413-3.582-4.5a13.01,13.01,0,0,1,1.467-7.613c.84-1.556,2.188-3.039,3.946-3.222a4.733,4.733,0,0,1,4.341,2.634,16.332,16.332,0,0,1,1.321,5.177C-2455.65,912.793-2458.609,915.883-2464.1,915.057Z" transform="translate(2505.52 -819.014)" fill="#b83a2b"/>
        <path id="Trazado_615483" data-name="Trazado 615483" d="M-2477.772,901.808c-.784-1.187-.161-2.747.54-3.986,1.457-2.576,3.443-5.485,6.4-5.525a2.009,2.009,0,0,1,1.492.5,2.35,2.35,0,0,1,.446,1.815c-.219,3.438-1.838,7.239-4.984,8.64C-2476.223,904.294-2477.066,902.876-2477.772,901.808Z" transform="translate(2506.009 -818.664)" fill="#b83a2b"/>
        <path id="Trazado_615484" data-name="Trazado 615484" d="M-2476.185,906l1.028.828" transform="translate(2505.917 -819.311)" fill="none" stroke="#4c571c" stroke-miterlimit="10" stroke-width="0.25"/>
        <path id="Trazado_615485" data-name="Trazado 615485" d="M-2481.535,904.892c2.417-12.541,4.841-25.13,5.531-37.882a92.172,92.172,0,0,1,1-11.981c.6-3.227,1.669-6.385,1.846-9.663.2-3.8-.762-7.821.81-11.284" transform="translate(2506.169 -815.918)" fill="none" stroke="#4c571c" stroke-miterlimit="10" stroke-width="0.5"/>
        <path id="Trazado_615486" data-name="Trazado 615486" d="M-2475.751,876.568c-.352-1.121,1.05-2.162,2.2-1.918a4.477,4.477,0,0,1,2.582,2.255,15.081,15.081,0,0,1,2.35,6.167c.423,3.557-.851,7.073-2.1,10.43" transform="translate(2505.899 -817.83)" fill="none" stroke="#4c571c" stroke-miterlimit="10" stroke-width="0.25"/>
        <path id="Trazado_615487" data-name="Trazado 615487" d="M-2467.131,884.846a17.873,17.873,0,0,1,2.969,9.02" transform="translate(2505.49 -818.313)" fill="none" stroke="#4c571c" stroke-miterlimit="10" stroke-width="0.25"/>
        <path id="Trazado_615488" data-name="Trazado 615488" d="M-2466.159,886.255a14.014,14.014,0,0,1,5.352,13.593" transform="translate(2505.444 -818.379)" fill="none" stroke="#4c571c" stroke-miterlimit="10" stroke-width="0.25"/>
        <path id="Trazado_615489" data-name="Trazado 615489" d="M-2475.971,907.091a3.166,3.166,0,0,0-2.561-3.77" transform="translate(2506.027 -819.184)" fill="none" stroke="#4c571c" stroke-miterlimit="10" stroke-width="0.25"/>
        <path id="Trazado_615490" data-name="Trazado 615490" d="M-2478.512,884.655a5.089,5.089,0,0,0-5.5-4.6,5.088,5.088,0,0,0-4.168,5.83" transform="translate(2506.487 -818.085)" fill="none" stroke="#4c571c" stroke-miterlimit="10" stroke-width="0.25"/>
        <path id="Trazado_615491" data-name="Trazado 615491" d="M-2490.367,886.3a1.611,1.611,0,0,1,2.122-.234,4.7,4.7,0,0,1,1.453,1.821c1.4,2.542,2.84,5.178,3.111,8.07s-.936,6.133-3.577,7.343a3.5,3.5,0,0,1-2.078.331c-1.495-.28-2.431-1.777-2.937-3.212a14.188,14.188,0,0,1,2.688-13.829" transform="translate(2506.712 -818.357)" fill="#d44332"/>
        <path id="Trazado_615492" data-name="Trazado 615492" d="M-2498.626,895.966c-2.289.937-5.572.467-6.677-1.745-1.117-2.233.9-4.751,2.944-6.185a26.413,26.413,0,0,1,8.532-3.939c.921-.238,2.124-.4,2.669.375C-2488.929,887.65-2491.909,893.213-2498.626,895.966Z" transform="translate(2507.306 -818.268)" fill="#e67d2e"/>
        <path id="Trazado_615493" data-name="Trazado 615493" d="M-2458.626,868.545a3.519,3.519,0,0,0-3-2.246,3.894,3.894,0,0,0-3.135,2.415c-1.262,2.51-1.31,10.153.688,11.405a4.8,4.8,0,0,0,6.376-.805C-2455.024,876.748-2458.077,869.763-2458.626,868.545Z" transform="translate(2505.42 -817.438)" fill="#b83a2b"/>
        <path id="Trazado_615494" data-name="Trazado 615494" d="M-2456.146,869.925c-.059-1.126-.01-2.338,1.018-2.8a3.354,3.354,0,0,1,3.2.478,9.889,9.889,0,0,1,2.261,2.493,13.484,13.484,0,0,1,2.6,4.95c.377,1.839-.185,4.035-1.832,4.937C-2451.923,881.63-2455.577,880.721-2456.146,869.925Z" transform="translate(2504.972 -817.466)" fill="#b83a2b"/>
        <path id="Trazado_615495" data-name="Trazado 615495" d="M-2454.38,867.562a18.823,18.823,0,0,0-3.035-8.029c-.431-.641-1.068-1.326-1.829-1.2-.944.16-1.213,1.368-1.269,2.323l-.308,5.172" transform="translate(2505.192 -817.061)" fill="none" stroke="#4c571c" stroke-miterlimit="10" stroke-width="0.25"/>
        <path id="Trazado_615496" data-name="Trazado 615496" d="M-2459.636,858.547a29.65,29.65,0,0,1,2.373,11.273" transform="translate(2505.136 -817.072)" fill="none" stroke="#4c571c" stroke-miterlimit="10" stroke-width="0.25"/>
        <path id="Trazado_615497" data-name="Trazado 615497" d="M-2459.492,858.073a13.373,13.373,0,0,0-5.073-6.771c-2.437-1.515-5.812-1.742-8.1,0" transform="translate(2505.751 -816.673)" fill="none" stroke="#4c571c" stroke-miterlimit="10" stroke-width="0.25"/>
        <path id="Trazado_615498" data-name="Trazado 615498" d="M-2476.277,866.762a20.713,20.713,0,0,0-5.392-14.412,18.655,18.655,0,0,0-14.095-5.943" transform="translate(2506.84 -816.499)" fill="none" stroke="#4c571c" stroke-miterlimit="10" stroke-width="0.25"/>
        <path id="Trazado_615499" data-name="Trazado 615499" d="M-2472.55,850.729c1.406-4.859,5.478-8.612,10.08-10.71s9.722-2.75,14.767-3.122" transform="translate(2505.746 -816.051)" fill="none" stroke="#4c571c" stroke-miterlimit="10" stroke-width="0.25"/>
        <path id="Trazado_615500" data-name="Trazado 615500" d="M-2472.861,835.564a15.075,15.075,0,0,0-6.565-16.24" transform="translate(2506.07 -815.222)" fill="none" stroke="#4c571c" stroke-miterlimit="10" stroke-width="0.25"/>
        <path id="Trazado_615501" data-name="Trazado 615501" d="M-2459.832,879.816c.362,1.916,1.493,3.947,3.4,4.357,2.037.438,4.034-1.325,4.58-3.337a11.18,11.18,0,0,0-.593-6.138,8.687,8.687,0,0,0-1.417-3.046,3.213,3.213,0,0,0-2.963-1.261c-1.679.33-2.313,2.286-2.969,3.867C-2460.2,875.243-2460.118,878.3-2459.832,879.816Z" transform="translate(2505.157 -817.629)" fill="#e67d2e"/>
        <path id="Trazado_615502" data-name="Trazado 615502" d="M-2503.961,967.277c-.4,2.132.43,4.647,2.414,5.523a4.826,4.826,0,0,0,4.588-.674,10.994,10.994,0,0,0,3.069-3.7,29.3,29.3,0,0,0,3.608-10.229,4.776,4.776,0,0,0-.146-2.615,2.088,2.088,0,0,0-2.125-1.152c-1.534.126-.9-.481-2.668-.53S-2502.826,958.935-2503.961,967.277Z" transform="translate(2507.232 -821.571)" fill="#b83a2b"/>
        <path id="Trazado_615503" data-name="Trazado 615503" d="M-2472.574,906.339a4.762,4.762,0,0,0,2.395,1.394,6.448,6.448,0,0,0,6.275-2.759,10,10,0,0,0,1.509-6.925c-.211-1.81-1.095-3.869-2.887-4.2s-3.326,1.265-4.389,2.752c-1.262,1.764-2.315,3.664-3.462,5.5A3.17,3.17,0,0,0-2472.574,906.339Z" transform="translate(2505.8 -818.736)" fill="#d44332"/>
        <path id="Trazado_615504" data-name="Trazado 615504" d="M-2497.654,972.647c.194,2.16,1.67,4.358,3.816,4.665a4.828,4.828,0,0,0,4.236-1.889,11,11,0,0,0,1.955-4.392,29.324,29.324,0,0,0,.709-10.823,4.78,4.78,0,0,0-.846-2.478,2.088,2.088,0,0,0-2.358-.536c-1.442.536-1-.22-2.711.211S-2498.814,964.308-2497.654,972.647Z" transform="translate(2506.939 -821.719)" fill="#d44332"/>
        <path id="Trazado_615505" data-name="Trazado 615505" d="M-2489.862,958.9a65.858,65.858,0,0,0,1.842,8.352c.72,2.76,2.009,5.534,4.36,7.149s5.952,1.638,7.776-.555a6.1,6.1,0,0,0,1.026-5.107,15.379,15.379,0,0,0-2.215-4.88,29.279,29.279,0,0,0-5.206-5.913c-1.671-1.544-4.061-2.768-6.135-1.974A2.243,2.243,0,0,0-2489.862,958.9Z" transform="translate(2506.568 -821.657)" fill="#e67d2e"/>
        <path id="Trazado_615506" data-name="Trazado 615506" d="M-2488.881,955.821c.858-.4,2.8-1.414,4.581-.034s2.387,1.812,2.387,1.812l-3.7-.705.357,4.344-2.352-3.384s-.815-.249-1.433,1.359a3.961,3.961,0,0,1-2.136,2.31c-.371.165,1.006-.715,1.07-2.371S-2490.62,956.63-2488.881,955.821Z" transform="translate(2506.627 -821.627)" fill="#4c571c"/>
        <path id="Trazado_615507" data-name="Trazado 615507" d="M-2492.361,953.53s2.629.332,2.417,2.357-.068,4.085.628,4.623-1.931-1.008-1.979-2.609-.6-1.962-.6-1.962-2.9.643-4.04,2.749-2.34,1.63-2.34,1.63,1.386-3.273,3.019-4.3-1.82-.748-3.6.655-2.956.18-2.956.18a4.635,4.635,0,0,0,3.381-2.076C-2497.156,952.808-2494.077,951.436-2492.361,953.53Z" transform="translate(2507.126 -821.504)" fill="#4c571c"/>
        <path id="Trazado_615508" data-name="Trazado 615508" d="M-2477.572,907.443s1.878-1.259,3.216-.605,2.231,1.519,3,1.42.324.391-.8.495a7.26,7.26,0,0,1-2.924-.8l.917,4.743-2.5-3.914s.165,2.839-1.6,3.418-1.909.086-1.909.086a2.427,2.427,0,0,0,1.812-1.935C-2478.075,908.721-2479.319,908.8-2477.572,907.443Z" transform="translate(2506.105 -819.341)" fill="#4c571c"/>
        <path id="Trazado_615509" data-name="Trazado 615509" d="M-2490.153,883.939s-.508-1.229-2.346-.878a3.149,3.149,0,0,1-2.779-.587s-1.212,1.565.366,1.952,2.909.688,2.909.688l-4.247,2.657,4.079-.285a5.491,5.491,0,0,0-1.874,2.826c-.373,1.693.554,1.575.554,1.575s.876-2.346,1.989-2.84S-2491.6,892-2491.6,892a25.644,25.644,0,0,1,1.873-3.766C-2488.556,886.323-2488.3,884.644-2490.153,883.939Z" transform="translate(2506.864 -818.201)" fill="#4c571c"/>
        <path id="Trazado_615510" data-name="Trazado 615510" d="M-2458.043,870.45c.859-.4,2.8-1.415,4.582-.035s2.386,1.812,2.386,1.812l-3.7-.7.357,4.345-2.352-3.385s-.816-.249-1.434,1.359a3.959,3.959,0,0,1-2.135,2.31c-.372.165,1.006-.716,1.07-2.37S-2459.781,871.258-2458.043,870.45Z" transform="translate(2505.172 -817.599)" fill="#4c571c"/>
      </g>
      <path id="Trazado_615511" data-name="Trazado 615511" d="M-2475.949,835.415l8.064-.863-7.295-.272,7.04-.378" transform="translate(2505.906 -808.427)" fill="none" stroke="#ccb9a3" stroke-miterlimit="10" stroke-width="0.25"/>
      <path id="Trazado_615512" data-name="Trazado 615512" d="M-2475.839,856.888l9.018,4.417" transform="translate(2505.9 -809.512)" fill="none" stroke="#ccb9a3" stroke-miterlimit="10" stroke-width="0.25"/>
      <path id="Trazado_615513" data-name="Trazado 615513" d="M-2469.93,862.492l3.57-.011a13.267,13.267,0,0,0-4.291,1.18,11.439,11.439,0,0,0,3.278.2l-3.14.687,1.6-.014" transform="translate(2505.656 -809.776)" fill="none" stroke="#ccb9a3" stroke-miterlimit="10" stroke-width="0.25"/>
      <path id="Trazado_615514" data-name="Trazado 615514" d="M-2484.172,946.606a47.3,47.3,0,0,0,17.04-2.992" transform="translate(2506.294 -813.603)" fill="none" stroke="#ccb9a3" stroke-miterlimit="10" stroke-width="0.25"/>
      <path id="Trazado_615515" data-name="Trazado 615515" d="M-2468.918,943.5a5.249,5.249,0,0,0,3.412,1.236,30.96,30.96,0,0,0-3.529-2.145l5.261,1.174-4.688-2.742,4.386,2.052" transform="translate(2505.58 -813.481)" fill="none" stroke="#ccb9a3" stroke-miterlimit="10" stroke-width="0.25"/>
    </g>
    <g id="Grupo_876657" data-name="Grupo 876657" transform="translate(-2463.148 807.088)">
      <path id="Trazado_615516" data-name="Trazado 615516" d="M-2425.113,995.551c-.069-1.017.414-188.463.414-188.463l2.38.056L-2420.7,996S-2424.863,999.3-2425.113,995.551Z" transform="translate(2449.27 -807.088)" fill="#b9813b"/>
      <g id="Grupo_876656" data-name="Grupo 876656" transform="translate(0 6.041)">
        <path id="Trazado_615517" data-name="Trazado 615517" d="M-2423.448,842.177a42.642,42.642,0,0,1-7.359.5,3,3,0,0,1-1.341-.241,1.074,1.074,0,0,1-.618-1.118,4.791,4.791,0,0,1,2.833-.614,17.894,17.894,0,0,1-6.829-2.186,7.548,7.548,0,0,1,3.281-.442,9.185,9.185,0,0,1-6.1-4.7,5.761,5.761,0,0,1,4.546.764,3.465,3.465,0,0,1-.806-2.789,1.014,1.014,0,0,1,.328-.677,1.128,1.128,0,0,1,.761-.139,10.111,10.111,0,0,1,6.48,3.016c.457-.329-.16-1.269.325-1.552.3-.172.637.137.831.419a16.728,16.728,0,0,1,2.286,4.793,3.98,3.98,0,0,1,.752-2.387,13.9,13.9,0,0,1,1.242,7.344" transform="translate(2449.952 -814.234)" fill="#677331"/>
        <path id="Trazado_615518" data-name="Trazado 615518" d="M-2385.553,920.489c-.02-.029-.059-.06-.084-.09-.041-.043-.077-.091-.122-.13-.005-.006-.013-.009-.02-.014a14.828,14.828,0,0,0-3.117-1.809,11.745,11.745,0,0,0-8.5.026c.587-.579-.062-1.675-.879-1.787a3.381,3.381,0,0,0-2.259.852l-2.168,1.505c-.553.384-1.286.776-1.851.409-.422-.274-.526-.857-.888-1.205-.688-.663-1.843-.171-2.553.467a8.29,8.29,0,0,0-2.334,8.4l.106-.043-.142.539a21.847,21.847,0,0,0,8.887,3.54c1.288.2,3.057-.052,3.22-1.345.152-1.21-1.288-1.927-2.459-2.265a19.458,19.458,0,0,0,5.962-.149,2.322,2.322,0,0,0,.975-.345,1.268,1.268,0,0,0,.277-1.681,1.194,1.194,0,0,0-.679-.445c2.477-.281,4.942-.657,7.383-1.166a2.914,2.914,0,0,0,1.3-.507A1.993,1.993,0,0,0-2385.553,920.489Z" transform="translate(2448.588 -818.298)" fill="#677331"/>
        <path id="Trazado_615519" data-name="Trazado 615519" d="M-2410.444,830.634a3.683,3.683,0,0,1,1.87-1.914c.87-.281,2.041.358,1.92,1.264a9.547,9.547,0,0,1,9.558-3.35c.279.068.6.2.652.482a.781.781,0,0,1-.236.578l-1.567,2,10.888.1c-1.324,3.092-5.015,4.266-8.276,5.088l3.057.307a13.378,13.378,0,0,1-3.848,2.309,5.184,5.184,0,0,1-4.354-.306c-.51-.319-1.281-.712-1.592-.2a2.522,2.522,0,0,1-.135,3.361,4.116,4.116,0,0,1-3.418,1.085,12.171,12.171,0,0,1-3.531-1.109l-3.178-1.366-.219-1.4A22.049,22.049,0,0,1-2410.444,830.634Z" transform="translate(2448.691 -814.039)" fill="#677331"/>
        <path id="Trazado_615520" data-name="Trazado 615520" d="M-2414.573,824.284a28.831,28.831,0,0,0,6.761-3.548c.449-.318.934-.911.591-1.342a1.053,1.053,0,0,0-.683-.293l-1.843-.3,4.168-3.718c.375-.334.773-.893.448-1.275a.95.95,0,0,0-.6-.252,12.069,12.069,0,0,0-9.187,2.448,6.707,6.707,0,0,0,.51-2.449,5.137,5.137,0,0,0-4.177,2.037,12.032,12.032,0,0,0-1.968,3.99,1.084,1.084,0,0,0-1.37-.932,2.41,2.41,0,0,0-1.265,1.9,9.946,9.946,0,0,0,.408,5.536c.535,1.431,1.417,2.817,1.329,4.344l1.093,3.281a2.326,2.326,0,0,1,.287-1.085,5.746,5.746,0,0,1,1.621-1.652l4.28-3.321a2.369,2.369,0,0,0,.845-.947C-2412.982,825.8-2413.82,824.9-2414.573,824.284Z" transform="translate(2449.189 -813.428)" fill="#677331"/>
        <path id="Trazado_615521" data-name="Trazado 615521" d="M-2420.21,834.719a1.615,1.615,0,0,0,.367,1.1Z" transform="translate(2449.038 -814.432)" fill="#677331"/>
        <path id="Trazado_615522" data-name="Trazado 615522" d="M-2404.543,885.136c.663-1.619,3.465.688,4.6,2.016a15.6,15.6,0,0,1,2.43,4.624c.865,2.22,1.744,4.629,1.129,6.931s-3.341,3.915-5.442,2.793C-2404.945,899.832-2409.056,896.152-2404.543,885.136Z" transform="translate(2448.393 -816.784)" fill="#b83a2b"/>
        <path id="Trazado_615523" data-name="Trazado 615523" d="M-2408.263,921.676c-.294,2.149-1.874,4.274-4.031,4.48a4.826,4.826,0,0,1-4.142-2.086,11.014,11.014,0,0,1-1.747-4.479,29.32,29.32,0,0,1-.2-10.844,4.781,4.781,0,0,1,.962-2.436,2.089,2.089,0,0,1,2.38-.424c1.415.6,1.009-.172,2.7.339S-2406.71,913.4-2408.263,921.676Z" transform="translate(2448.972 -817.781)" fill="#d44332"/>
        <path id="Trazado_615524" data-name="Trazado 615524" d="M-2417.89,908.466a65.588,65.588,0,0,1-2.128,8.285c-.814,2.734-2.2,5.462-4.6,7s-6,1.434-7.753-.82a6.094,6.094,0,0,1-.851-5.139,15.393,15.393,0,0,1,2.381-4.8,29.285,29.285,0,0,1,5.405-5.731c1.723-1.485,4.153-2.628,6.2-1.764A2.243,2.243,0,0,1-2417.89,908.466Z" transform="translate(2449.663 -817.757)" fill="#b83a2b"/>
        <path id="Trazado_615525" data-name="Trazado 615525" d="M-2432.016,912.66c2.086-.241,3.422-2.3,3.733-4.373a13,13,0,0,0-1.205-7.658c-.786-1.584-2.082-3.112-3.833-3.355a4.731,4.731,0,0,0-4.428,2.483,16.341,16.341,0,0,0-1.5,5.129C-2440.378,910.108-2437.527,913.3-2432.016,912.66Z" transform="translate(2449.948 -817.382)" fill="#e67d2e"/>
        <path id="Trazado_615526" data-name="Trazado 615526" d="M-2417.778,899.883c.824-1.16.254-2.739-.4-4-1.367-2.625-3.254-5.6-6.21-5.742a2.012,2.012,0,0,0-1.508.445,2.355,2.355,0,0,0-.507,1.8c.1,3.444,1.589,7.3,4.686,8.806C-2419.412,902.315-2418.52,900.927-2417.778,899.883Z" transform="translate(2449.331 -817.047)" fill="#b83a2b"/>
        <path id="Trazado_615527" data-name="Trazado 615527" d="M-2419.1,904.033l-1.056.792" transform="translate(2449.036 -817.702)" fill="none" stroke="#4c571c" stroke-miterlimit="10" stroke-width="0.25"/>
        <path id="Trazado_615528" data-name="Trazado 615528" d="M-2413.181,998.056a168.18,168.18,0,0,0-1.461-23.842c-.763-5.739-1.825-11.452-2.065-17.236-.28-6.758.564-13.506.872-20.263.3-6.575.093-13.162-.115-19.74q-.537-16.992-1.074-33.984c-.315-9.979-.419-20.1-1.917-29.957-.493-3.246-1.45-6.437-1.514-9.72-.073-3.8,1.03-7.79-.424-11.306" transform="translate(2449.07 -814.304)" fill="none" stroke="#4c571c" stroke-miterlimit="10" stroke-width="0.5"/>
        <path id="Trazado_615529" data-name="Trazado 615529" d="M-2418.851,874.6c.391-1.109-.975-2.2-2.133-1.992a4.478,4.478,0,0,0-2.658,2.166,15.1,15.1,0,0,0-2.559,6.082c-.543,3.542.61,7.1,1.746,10.5" transform="translate(2449.328 -816.218)" fill="none" stroke="#4c571c" stroke-miterlimit="10" stroke-width="0.25"/>
        <path id="Trazado_615530" data-name="Trazado 615530" d="M-2427.534,882.58a17.876,17.876,0,0,0-3.275,8.914" transform="translate(2449.538 -816.69)" fill="none" stroke="#4c571c" stroke-miterlimit="10" stroke-width="0.25"/>
        <path id="Trazado_615531" data-name="Trazado 615531" d="M-2428.687,883.955a14.014,14.014,0,0,0-5.813,13.4" transform="translate(2449.719 -816.755)" fill="none" stroke="#4c571c" stroke-miterlimit="10" stroke-width="0.25"/>
        <path id="Trazado_615532" data-name="Trazado 615532" d="M-2419.434,905.116a3.166,3.166,0,0,1,2.689-3.682" transform="translate(2449.005 -817.579)" fill="none" stroke="#4c571c" stroke-miterlimit="10" stroke-width="0.25"/>
        <path id="Trazado_615533" data-name="Trazado 615533" d="M-2416.481,882.77a5.088,5.088,0,0,1,5.648-4.412,5.089,5.089,0,0,1,3.967,5.969" transform="translate(2448.862 -816.488)" fill="none" stroke="#4c571c" stroke-miterlimit="10" stroke-width="0.25"/>
        <path id="Trazado_615534" data-name="Trazado 615534" d="M-2404.683,884.825a1.613,1.613,0,0,0-2.113-.307,4.7,4.7,0,0,0-1.514,1.77c-1.491,2.493-3.016,5.078-3.385,7.959s.726,6.161,3.323,7.461a3.508,3.508,0,0,0,2.067.4c1.5-.229,2.49-1.694,3.045-3.11a14.188,14.188,0,0,0-2.213-13.913" transform="translate(2448.64 -816.77)" fill="#d44332"/>
        <path id="Trazado_615535" data-name="Trazado 615535" d="M-2397.031,894.747c2.255,1.016,5.552.657,6.733-1.515,1.192-2.193-.738-4.779-2.731-6.282a26.433,26.433,0,0,0-8.392-4.228c-.913-.27-2.109-.476-2.681.283C-2406.438,886.105-2403.651,891.767-2397.031,894.747Z" transform="translate(2448.317 -816.685)" fill="#e67d2e"/>
        <path id="Trazado_615536" data-name="Trazado 615536" d="M-2425.32,858.668a3.918,3.918,0,0,1,3.418-2.385c1.533.066,2.744,1.386,3.4,2.805,1.308,2.839,1.07,11.344-1.2,12.661s-4.756,1.242-7.062-1.139C-2429.637,867.655-2425.976,860-2425.32,858.668Z" transform="translate(2449.399 -815.449)" fill="#b83a2b"/>
        <path id="Trazado_615537" data-name="Trazado 615537" d="M-2428.138,860.111c.108-1.25.1-2.6-1.026-3.157a3.732,3.732,0,0,0-3.576.411,11.015,11.015,0,0,0-2.61,2.686,15.014,15.014,0,0,0-3.075,5.407c-.49,2.031.052,4.5,1.849,5.562C-2433.281,872.971-2429.181,872.1-2428.138,860.111Z" transform="translate(2449.906 -815.467)" fill="#b83a2b"/>
        <path id="Trazado_615538" data-name="Trazado 615538" d="M-2423.45,847.591a33,33,0,0,0-3.068,12.451" transform="translate(2449.336 -815.039)" fill="none" stroke="#4c571c" stroke-miterlimit="10" stroke-width="0.25"/>
        <path id="Trazado_615539" data-name="Trazado 615539" d="M-2416.5,942.135a20.719,20.719,0,0,1,5.881-14.22,18.66,18.66,0,0,1,14.29-5.458" transform="translate(2448.864 -818.569)" fill="none" stroke="#4c571c" stroke-miterlimit="10" stroke-width="0.25"/>
        <path id="Trazado_615540" data-name="Trazado 615540" d="M-2450,937.568c.018-.03.054-.065.077-.1.037-.046.07-.1.111-.139.006-.006.013-.01.019-.015a14.827,14.827,0,0,1,2.964-2.051,11.747,11.747,0,0,1,8.471-.646c-.631-.531-.072-1.675.735-1.851a3.384,3.384,0,0,1,2.32.671l2.281,1.329c.581.338,1.344.671,1.877.26.4-.307.457-.895.79-1.271.634-.715,1.823-.316,2.583.264a8.292,8.292,0,0,1,2.991,8.188l-.11-.034.185.526a21.867,21.867,0,0,1-8.579,4.232c-1.268.306-3.051.191-3.316-1.086-.248-1.194,1.131-2.023,2.272-2.453a19.461,19.461,0,0,1-5.954.323,2.3,2.3,0,0,1-1-.266,1.266,1.266,0,0,1-.409-1.653,1.2,1.2,0,0,1,.64-.5c-2.49-.085-4.978-.265-7.45-.578a2.914,2.914,0,0,1-1.341-.4A1.993,1.993,0,0,1-2450,937.568Z" transform="translate(2450.466 -819.056)" fill="#677331"/>
        <path id="Trazado_615541" data-name="Trazado 615541" d="M-2417.181,956.721a20.716,20.716,0,0,0-6.988-13.71,18.663,18.663,0,0,0-14.678-4.309" transform="translate(2449.918 -819.329)" fill="none" stroke="#4c571c" stroke-miterlimit="10" stroke-width="0.25"/>
        <path id="Trazado_615542" data-name="Trazado 615542" d="M-2419.887,848.5c.845-4.988,4.467-9.177,8.8-11.783s9.349-3.832,14.319-4.774" transform="translate(2449.023 -814.301)" fill="none" stroke="#4c571c" stroke-miterlimit="10" stroke-width="0.25"/>
        <path id="Trazado_615543" data-name="Trazado 615543" d="M-2420.329,833.523a15.074,15.074,0,0,1,7.116-16.006" transform="translate(2449.06 -813.621)" fill="none" stroke="#4c571c" stroke-miterlimit="10" stroke-width="0.25"/>
        <path id="Trazado_615544" data-name="Trazado 615544" d="M-2424.372,871.251c-.476,2.118-1.81,4.334-3.946,4.718-2.284.41-4.437-1.627-4.969-3.885s.137-4.613.893-6.806a9.669,9.669,0,0,1,1.693-3.334,3.575,3.575,0,0,1,3.344-1.292c1.856.431,2.487,2.632,3.156,4.416C-2423.785,866.179-2424,869.575-2424.372,871.251Z" transform="translate(2449.664 -815.652)" fill="#d44332"/>
        <path id="Trazado_615545" data-name="Trazado 615545" d="M-2423.24,904.233a4.777,4.777,0,0,1-2.44,1.311,6.446,6.446,0,0,1-6.177-2.973,10,10,0,0,1-1.272-6.973c.273-1.8,1.226-3.827,3.028-4.093s3.281,1.379,4.292,2.9c1.2,1.806,2.19,3.74,3.272,5.619A3.172,3.172,0,0,1-2423.24,904.233Z" transform="translate(2449.655 -817.11)" fill="#d44332"/>
        <path id="Trazado_615546" data-name="Trazado 615546" d="M-2418.168,905.513s-1.834-1.323-3.193-.716-2.282,1.442-3.049,1.317-.337.379.781.521a7.267,7.267,0,0,0,2.95-.7l-1.079,4.709,2.63-3.826s-.263,2.832,1.484,3.47,1.906.151,1.906.151a2.426,2.426,0,0,1-1.745-2C-2417.709,906.807-2416.468,906.931-2418.168,905.513Z" transform="translate(2449.255 -817.731)" fill="#4c571c"/>
        <path id="Trazado_615547" data-name="Trazado 615547" d="M-2404.707,882.459s.55-1.211,2.374-.8a3.152,3.152,0,0,0,2.8-.492s1.158,1.605-.433,1.939-2.932.588-2.932.588l4.154,2.8-4.067-.423a5.482,5.482,0,0,1,1.776,2.888c.314,1.7-.607,1.555-.607,1.555s-.8-2.374-1.891-2.906-.007,2.953-.007,2.953a25.559,25.559,0,0,0-1.742-3.828C-2406.384,884.787-2406.583,883.1-2404.707,882.459Z" transform="translate(2448.374 -816.624)" fill="#4c571c"/>
        <path id="Trazado_615548" data-name="Trazado 615548" d="M-2426.042,860.762c-.939-.477-3.059-1.68-5.094-.214s-2.724,1.926-2.724,1.926l4.138-.643-.562,4.818,2.744-3.676s.917-.246,1.544,1.565a4.408,4.408,0,0,0,2.288,2.651c.407.2-1.092-.835-1.1-2.677S-2424.138,861.728-2426.042,860.762Z" transform="translate(2449.682 -815.617)" fill="#4c571c"/>
        <path id="Trazado_615549" data-name="Trazado 615549" d="M-2413.992,865.27a7.324,7.324,0,0,0-.506-3.411,2.511,2.511,0,0,0-2.846-1.44,5.042,5.042,0,0,1,6.821,2.228" transform="translate(2448.903 -815.618)" fill="none" stroke="#4c571c" stroke-miterlimit="10" stroke-width="0.25"/>
        <path id="Trazado_615550" data-name="Trazado 615550" d="M-2397.9,875.622c.325,2.144-.588,4.63-2.6,5.437a4.824,4.824,0,0,1-4.562-.83,11,11,0,0,1-2.941-3.8,29.332,29.332,0,0,1-3.256-10.346,4.782,4.782,0,0,1,.234-2.609,2.091,2.091,0,0,1,2.164-1.08c1.528.178.918-.45,2.683-.437S-2398.753,867.246-2397.9,875.622Z" transform="translate(2448.62 -815.717)" fill="#b83a2b"/>
        <path id="Trazado_615551" data-name="Trazado 615551" d="M-2404.26,880.774c-.267,2.152-1.818,4.3-3.974,4.533a4.833,4.833,0,0,1-4.169-2.032,11.024,11.024,0,0,1-1.8-4.456,29.358,29.358,0,0,1-.339-10.841,4.787,4.787,0,0,1,.932-2.448,2.088,2.088,0,0,1,2.375-.455c1.423.584,1.006-.185,2.7.3S-2402.815,872.48-2404.26,880.774Z" transform="translate(2448.788 -815.856)" fill="#d44332"/>
        <path id="Trazado_615552" data-name="Trazado 615552" d="M-2411.795,866.782a66,66,0,0,1-2.128,8.285c-.813,2.734-2.2,5.462-4.6,7s-6,1.434-7.752-.82a6.09,6.09,0,0,1-.851-5.139,15.379,15.379,0,0,1,2.381-4.8,29.24,29.24,0,0,1,5.405-5.731c1.722-1.486,4.153-2.627,6.2-1.764A2.245,2.245,0,0,1-2411.795,866.782Z" transform="translate(2449.375 -815.79)" fill="#e67d2e"/>
        <path id="Trazado_615553" data-name="Trazado 615553" d="M-2412.356,863.664c-.844-.429-2.749-1.509-4.577-.192s-2.447,1.73-2.447,1.73l3.718-.578-.506,4.33,2.466-3.3s.823-.221,1.386,1.406a3.968,3.968,0,0,0,2.056,2.382c.365.177-.981-.751-.988-2.406S-2410.646,864.532-2412.356,863.664Z" transform="translate(2448.999 -815.759)" fill="#4c571c"/>
        <path id="Trazado_615554" data-name="Trazado 615554" d="M-2408.973,861.49s-2.638.241-2.5,2.273-.072,4.085-.786,4.6,1.965-.942,2.066-2.54.669-1.94.669-1.94,2.874.742,3.944,2.885,2.283,1.709,2.283,1.709-1.273-3.318-2.87-4.4,1.845-.686,3.576.777,2.948.282,2.948.282a4.636,4.636,0,0,1-3.307-2.191C-2404.155,860.932-2407.185,859.455-2408.973,861.49Z" transform="translate(2448.669 -815.649)" fill="#4c571c"/>
        <path id="Trazado_615555" data-name="Trazado 615555" d="M-2430.5,857.6a23.237,23.237,0,0,1,3.419-7.307c1.682-2.116,4.352-3.659,7.024-3.251" transform="translate(2449.524 -815.01)" fill="none" stroke="#4c571c" stroke-miterlimit="10" stroke-width="0.25"/>
        <path id="Trazado_615556" data-name="Trazado 615556" d="M-2421.26,847.015q.064,5.557.129,11.112" transform="translate(2449.088 -815.012)" fill="none" stroke="#4c571c" stroke-miterlimit="10" stroke-width="0.25"/>
        <path id="Trazado_615557" data-name="Trazado 615557" d="M-2430.949,836.561a15.653,15.653,0,0,1,11.217,12.619" transform="translate(2449.545 -814.519)" fill="none" stroke="#4c571c" stroke-miterlimit="10" stroke-width="0.25"/>
      </g>
      <path id="Trazado_615558" data-name="Trazado 615558" d="M-2418.988,835a27.632,27.632,0,0,0-5.981-4.442,54.412,54.412,0,0,1,6.423,3.6,44.12,44.12,0,0,1-6.36-3.125" transform="translate(2449.263 -808.195)" fill="none" stroke="#ccb9a3" stroke-miterlimit="10" stroke-width="0.25"/>
      <path id="Trazado_615559" data-name="Trazado 615559" d="M-2426.02,968.271l5.407,1.486-4.364.178a3.577,3.577,0,0,0,1.551,1.381,6.774,6.774,0,0,1-2.414.325,12.079,12.079,0,0,0,3.93.605" transform="translate(2449.313 -814.692)" fill="none" stroke="#ccb9a3" stroke-miterlimit="10" stroke-width="0.25"/>
      <path id="Trazado_615560" data-name="Trazado 615560" d="M-2423.134,972.043a22.718,22.718,0,0,0,6.795-.713" transform="translate(2449.177 -814.837)" fill="none" stroke="#ccb9a3" stroke-miterlimit="10" stroke-width="0.25"/>
      <path id="Trazado_615561" data-name="Trazado 615561" d="M-2425.655,929.965a20.017,20.017,0,0,0,4.959,1.136,22.518,22.518,0,0,0-4.842-2.151l3.645-.087" transform="translate(2449.295 -812.833)" fill="none" stroke="#ccb9a3" stroke-miterlimit="10" stroke-width="0.25"/>
      <path id="Trazado_615562" data-name="Trazado 615562" d="M-2420.251,930.408a8.043,8.043,0,0,1,4.842.308" transform="translate(2449.041 -812.895)" fill="none" stroke="#ccb9a3" stroke-miterlimit="10" stroke-width="0.25"/>
    </g>
    <path id="Trazado_615563" data-name="Trazado 615563" d="M-2614.986,869.638a26.31,26.31,0,0,0,3.856,14.175" transform="translate(-4.921 -2.951)" fill="none" stroke="#c67555" stroke-miterlimit="10" stroke-width="0.25"/>
    <path id="Trazado_615564" data-name="Trazado 615564" d="M-2556.3,891.695c-2.083-4.88-4.178-9.8-5.249-15a39.61,39.61,0,0,1-.663-4.505,5.465,5.465,0,0,1,.649-3.787" transform="translate(-7.408 -2.893)" fill="none" stroke="#c67555" stroke-miterlimit="10" stroke-width="0.25"/>
    <path id="Trazado_615565" data-name="Trazado 615565" d="M-2604.355,859.153a12.864,12.864,0,0,0,10.384,11.679,18.714,18.714,0,0,0,4.369.133,16.4,16.4,0,0,0,4.891-.946c4.376-1.712,7.064-6.1,8.983-10.386" transform="translate(-5.422 -2.456)" fill="none" stroke="#c67555" stroke-miterlimit="10" stroke-width="0.25"/>
    <path id="Trazado_615566" data-name="Trazado 615566" d="M-2593.506,871.562q2.26,11.941,4.52,23.883a87.579,87.579,0,0,0,3.046,12.634" transform="translate(-5.934 -3.042)" fill="none" stroke="#c67555" stroke-miterlimit="10" stroke-width="0.25"/>
    <path id="Trazado_615567" data-name="Trazado 615567" d="M-2531.538,893.881c.2-.052.387.189.363.4a1.021,1.021,0,0,1-.316.536,23.875,23.875,0,0,0-5.806,12.012" transform="translate(-8.586 -4.094)" fill="none" stroke="#c67555" stroke-miterlimit="10" stroke-width="0.25"/>
    <path id="Trazado_615568" data-name="Trazado 615568" d="M-2635.738,897.757c-.249.362.166.805.526,1.056a25.956,25.956,0,0,1,7.508,8.067" transform="translate(-3.938 -4.278)" fill="none" stroke="#c67555" stroke-miterlimit="10" stroke-width="0.25"/>
    <path id="Trazado_615569" data-name="Trazado 615569" d="M-2540.222,968.276c-1,.32-2.016-.4-2.828-1.069l-14.731-12.213c-1.671-1.386-3.345-2.775-4.885-4.307-1.952-1.942-3.674-4.1-5.455-6.2-9.11-10.73-20.649-20.387-34.517-22.791a4.3,4.3,0,0,0-1.724-.051,2.337,2.337,0,0,0-1.742,2.184,2.336,2.336,0,0,0,1.7,2.217c-.836-.394-1.685.76-1.489,1.663a7.5,7.5,0,0,0,1.448,2.341,10.072,10.072,0,0,1,1.088,2.565l3.679,11.548a38.759,38.759,0,0,1,1.833,7.395,44.158,44.158,0,0,1,.025,6.681,159.848,159.848,0,0,0,2.377,34.5" transform="translate(-5.34 -5.401)" fill="none" stroke="#706135" stroke-miterlimit="10" stroke-width="0.25"/>
    <path id="Trazado_615570" data-name="Trazado 615570" d="M-2515.075,1008.134v.34" transform="translate(-9.634 -9.485)" fill="none" stroke="#916834" stroke-miterlimit="10" stroke-width="0.25"/>
    <path id="Trazado_615571" data-name="Trazado 615571" d="M-2511.506,1011.7" transform="translate(-9.803 -9.653)" fill="none" stroke="#916834" stroke-miterlimit="10" stroke-width="0.25"/>
    <path id="Trazado_615572" data-name="Trazado 615572" d="M-2510.809,1006.706h-.34" transform="translate(-9.82 -9.418)" fill="none" stroke="#916834" stroke-miterlimit="10" stroke-width="0.25"/>
    <path id="Trazado_615573" data-name="Trazado 615573" d="M-2438.688,1004.921v.34" transform="translate(-13.238 -9.333)" fill="none" stroke="#916834" stroke-miterlimit="10" stroke-width="0.25"/>
    <path id="Trazado_615574" data-name="Trazado 615574" d="M-2434.762,1002.065" transform="translate(-13.423 -9.199)" fill="none" stroke="#916834" stroke-miterlimit="10" stroke-width="0.25"/>
    <path id="Trazado_615575" data-name="Trazado 615575" d="M-2434.048,1007.063" transform="translate(-13.457 -9.434)" fill="none" stroke="#916834" stroke-miterlimit="10" stroke-width="0.25"/>
    <path id="Trazado_615576" data-name="Trazado 615576" d="M-2403.707,1004.921h.34" transform="translate(-14.889 -9.333)" fill="none" stroke="#916834" stroke-miterlimit="10" stroke-width="0.25"/>
    <path id="Trazado_615577" data-name="Trazado 615577" d="M-2398.353,1001.352v.339" transform="translate(-15.141 -9.165)" fill="none" stroke="#916834" stroke-miterlimit="10" stroke-width="0.25"/>
    <path id="Trazado_615578" data-name="Trazado 615578" d="M-2394.783,1004.564" transform="translate(-15.31 -9.316)" fill="none" stroke="#916834" stroke-miterlimit="10" stroke-width="0.25"/>
    <path id="Trazado_615579" data-name="Trazado 615579" d="M-2450.417,1001.443q-1.837-5.238-3.671-10.476a2.621,2.621,0,0,1,0-2.483c1.454.132,2.069,1.886,2.35,3.319q.812,4.139,1.623,8.279a55.679,55.679,0,0,1,2.522-9.07c.474-1.273,1.25-2.729,2.6-2.833.632,1.636-.3,3.422-1.206,4.925l-4.083,6.789" transform="translate(-12.496 -8.543)" fill="#4c571c"/>
    <path id="Trazado_615580" data-name="Trazado 615580" d="M-2505.322,1007.3l-8.833-15.7c-.639-1.137-1.25-2.655-.389-3.634a2.466,2.466,0,0,1,2.63-.418c2.283.774,3.671,3.06,4.627,5.273a34.58,34.58,0,0,1,2.821,14.326" transform="translate(-9.639 -8.505)" fill="#4c571c"/>
    <path id="Trazado_615581" data-name="Trazado 615581" d="M-2502.662,1006.768a41.137,41.137,0,0,1,4.471-18.259,4.408,4.408,0,0,1,1.434-1.845,1.634,1.634,0,0,1,2.137.234,1.841,1.841,0,0,1,.29,1.042,7.83,7.83,0,0,1-1.011,3.436q-3.626,7.689-7.253,15.378" transform="translate(-10.22 -8.459)" fill="#4c571c"/>
    <path id="Trazado_615582" data-name="Trazado 615582" d="M-2396.675,1004a14.438,14.438,0,0,1,8.074-14.567,6.681,6.681,0,0,1,3.888-.709,3.309,3.309,0,0,1,2.764,2.548c-1.687.644-3.311,1.441-4.932,2.236a19.329,19.329,0,0,0-4.105,2.457c-2.017,1.719-3.229,4.175-4.386,6.559" transform="translate(-15.215 -8.566)" fill="#4c571c"/>
    <g id="Grupo_876659" data-name="Grupo 876659" transform="translate(-2633.208 800.831)">
      <path id="Trazado_603412" data-name="Trazado 603412" d="M822.077,990.542c22.067,52.349,2.041,112.593-48.08,139.886-.984.58-3.9,2-4.992,2.532-.912.492-2.418,1.136-3.4,1.542l-3.444,1.452c-1.643.689-3.6,1.255-5.277,1.9-2.034.723-5.1,1.531-7.167,2.149-1.087.263-4.328.987-5.475,1.26a107.614,107.614,0,0,1-115.8-53.081c-.542-1.123-2.124-3.969-2.633-5.092-.385-.856-1.212-2.615-1.6-3.473-.652-1.284-1.62-3.982-2.189-5.3-.667-1.66-1.3-3.727-1.908-5.413-.476-1.379-1.18-4.122-1.618-5.509-.229-1.189-1.107-4.4-1.3-5.593-.153-.921-.522-2.842-.677-3.769-.488-2.906-.952-6.558-1.142-9.5-3.088-35.612,13.286-72.106,42.273-93.064a3.009,3.009,0,0,1,3.771,4.683,113.145,113.145,0,0,0-18.965,21.1c-.706,1.033-2.229,3.447-2.9,4.433-.492.891-2.118,3.632-2.651,4.579-1.8,3.363-3.416,6.822-4.937,10.319-.693,1.9-1.515,3.857-2.168,5.758-.4,1.184-1.213,3.9-1.588,5.025a103.554,103.554,0,0,0-3.935,25.955c-.1,1.961-.062,5.022.016,7.018-.015.946.157,2.539.215,3.5,3.457,51,46.255,92.6,97.49,94.4,64.027,2.828,115.139-54.8,103.789-118.115a95.586,95.586,0,0,0-9.156-27.037,3.009,3.009,0,1,1,5.451-2.543Z" transform="translate(-615 -950.884)" fill="#fda829"/>
    </g>
  </g>
</svg>
