<svg xmlns="http://www.w3.org/2000/svg" xmlns:xlink="http://www.w3.org/1999/xlink" width="1240" height="403" viewBox="0 0 1240 403">
  <defs>
    <clipPath id="clip-path">
      <rect id="Rectángulo_293058" data-name="Rectángulo 293058" width="1240" height="403" rx="19" transform="translate(0 -0.001)" fill="none"/>
    </clipPath>
  </defs>
  <g id="Grupo_875531" data-name="Grupo 875531" transform="translate(-140 -130.079)">
    <g id="Grupo_873710" data-name="Grupo 873710" transform="translate(140 130.08)" clip-path="url(#clip-path)">
      <g id="Grupo_873709" data-name="Grupo 873709" transform="translate(-68.166 -144.909)">
        <rect id="SVGID" width="1275" height="617.143" transform="translate(52.799 10.755)" fill="#dee4f0"/>
        <g id="Grupo_873690" data-name="Grupo 873690" transform="translate(1223.166 188.337)" opacity="0.3">
          <g id="Grupo_873689" data-name="Grupo 873689" transform="translate(0 0)">
            <g id="Grupo_873686" data-name="Grupo 873686">
              <path id="Trazado_599801" data-name="Trazado 599801" d="M1353.35,321.461a68.393,68.393,0,1,1,68.393-68.393A68.471,68.471,0,0,1,1353.35,321.461Zm0-135.185a66.792,66.792,0,1,0,66.793,66.792A66.867,66.867,0,0,0,1353.35,186.276Z" transform="translate(-1284.957 -184.675)" fill="#d2e1f1"/>
            </g>
            <g id="Grupo_873687" data-name="Grupo 873687" transform="translate(22.53 22.531)">
              <path id="Trazado_599802" data-name="Trazado 599802" d="M1359.144,304.725a45.862,45.862,0,1,1,45.862-45.863A45.915,45.915,0,0,1,1359.144,304.725Zm0-90.123a44.261,44.261,0,1,0,44.261,44.261A44.311,44.311,0,0,0,1359.144,214.6Z" transform="translate(-1313.281 -213)" fill="#d2e1f1"/>
            </g>
            <g id="Grupo_873688" data-name="Grupo 873688" transform="translate(45.062 45.062)">
              <path id="Trazado_599803" data-name="Trazado 599803" d="M1364.938,287.987a23.331,23.331,0,1,1,23.331-23.331A23.358,23.358,0,0,1,1364.938,287.987Zm0-45.061a21.73,21.73,0,1,0,21.73,21.729A21.755,21.755,0,0,0,1364.938,242.926Z" transform="translate(-1341.606 -241.325)" fill="#d2e1f1"/>
            </g>
          </g>
        </g>
        <g id="Grupo_873691" data-name="Grupo 873691" transform="translate(0 0)">
          <path id="Trazado_599804" data-name="Trazado 599804" d="M146.91,345.815l-9.6-.151c1.079-68.209,48.8-136.4,121.569-173.722,65.374-33.528,141.157-41.223,213.315-44.543,11.128-.512,22.465-.947,33.429-1.369,60.362-2.32,122.779-4.718,181.4-21.018C765.13,83.3,824.869,37.491,850.924-20.656l8.766,3.928C832.462,44.035,770.465,91.782,689.6,114.266c-59.708,16.6-122.695,19.021-183.609,21.363-10.945.42-22.265.855-33.357,1.366-71.074,3.27-145.631,10.8-209.372,43.495C193.6,216.214,147.935,281.108,146.91,345.815Z" transform="translate(-137.306 20.656)" fill="#fda829"/>
        </g>
        <g id="Grupo_873692" data-name="Grupo 873692" transform="translate(908.166 408.024)">
          <path id="Trazado_599805" data-name="Trazado 599805" d="M782.586,652.3l-7.189-6.371a294.354,294.354,0,0,1,167.656-94.1c38.568-6.912,78.24-5.964,116.606-5.049,26.03.624,52.943,1.266,79.152-.571,36.747-2.576,125.981-16.047,160.853-85.353l8.58,4.316c-37.089,73.713-130.375,87.928-168.762,90.619-26.656,1.867-53.8,1.219-80.051.593-37.889-.905-77.068-1.842-114.684,4.9A284.709,284.709,0,0,0,782.586,652.3Z" transform="translate(-775.397 -460.852)" fill="#fda829"/>
        </g>
        <g id="Grupo_873693" data-name="Grupo 873693" transform="translate(197.592 18.57)" opacity="0.3">
          <path id="Trazado_599806" data-name="Trazado 599806" d="M598.263,144.229a196.68,196.68,0,0,1-25.718-1.681c-30.764-4.053-60.307-15.285-88.877-26.147-14.7-5.59-29.907-11.371-45.1-16.106-38.675-12.057-93.485-20.544-134.964,7.483l-.9-1.326c42-28.383,97.325-19.846,136.337-7.686,15.24,4.751,30.468,10.541,45.192,16.139,28.484,10.83,57.938,22.029,88.518,26.058a200.12,200.12,0,0,0,146.354-38.941A200.124,200.124,0,0,0,795.5-28.747l1.585.22A201.738,201.738,0,0,1,720.08,103.3,201.994,201.994,0,0,1,598.263,144.229Z" transform="translate(-302.708 28.747)" fill="#d2e1f1"/>
        </g>
        <g id="Grupo_873694" data-name="Grupo 873694" transform="translate(908.166 98.226)" opacity="0.3">
          <path id="Trazado_599807" data-name="Trazado 599807" d="M907.507,577.437c-7.262-20.2-5.319-43.5,5.47-65.6a122.448,122.448,0,0,1,46.869-50.454c38.758-22.8,84.982-26.672,132.9-28.879l3.708-.169c44.314-2.027,90.136-4.123,129.839-23.721,51.444-25.394,89.812-79.649,105.265-148.852,13.842-61.982,8.836-126.169,3.995-188.244l1.6-.125c4.85,62.192,9.865,126.5-4.028,188.717-15.559,69.679-54.238,124.329-106.119,149.939-40,19.746-86,21.85-130.474,23.884l-3.708.17c-47.712,2.2-93.722,6.042-132.166,28.66-37.6,22.123-67.2,70.863-51.643,114.133Z" transform="translate(-903.188 -71.392)" fill="#d2e1f1"/>
        </g>
        <path id="Trazado_599809" data-name="Trazado 599809" d="M1279.7,125.733l12.333,7.12v-14.24Z" transform="translate(-304.955 17.175)" fill="#fff"/>
        <g id="Grupo_873695" data-name="Grupo 873695" transform="translate(761.919 50.306)">
          <path id="Trazado_599810" data-name="Trazado 599810" d="M1079.828,146.513a67.682,67.682,0,1,1,67.682-67.681A67.758,67.758,0,0,1,1079.828,146.513Zm0-133.762a66.081,66.081,0,1,0,66.081,66.081A66.155,66.155,0,0,0,1079.828,12.751Z" transform="translate(-1012.147 -11.15)" fill="#fda829"/>
        </g>
        <g id="Grupo_873696" data-name="Grupo 873696" transform="translate(401.898 497.13)">
          <path id="Trazado_599811" data-name="Trazado 599811" d="M634.346,722.465a74.8,74.8,0,1,1,74.8-74.8A74.882,74.882,0,0,1,634.346,722.465Zm0-147.992a73.2,73.2,0,1,0,73.2,73.2A73.278,73.278,0,0,0,634.346,574.473Z" transform="translate(-559.549 -572.872)" fill="#fda829"/>
        </g>
      </g>
    </g>
  </g>
</svg>
