<svg xmlns="http://www.w3.org/2000/svg" width="165.766" height="170.669" viewBox="0 0 165.766 170.669">
  <g id="Grupo_875270" data-name="Grupo 875270" transform="translate(0)">
    <g id="Grupo_875247" data-name="Grupo 875247" transform="translate(0 0)">
      <path id="Trazado_612474" data-name="Trazado 612474" d="M653.781,240.878c18.908-41.017,65.016-61.553,107.908-46.755.868.267,3.265,1.217,4.163,1.574.777.272,1.963.811,2.728,1.17l2.7,1.244c1.285.6,2.666,1.44,3.942,2.081,1.515.807,3.633,2.173,5.1,3.056.737.5,2.9,2.012,3.674,2.54a85.557,85.557,0,0,1,30.908,96.447c-.369.92-1.193,3.374-1.579,4.276-.3.684-.885,2.113-1.182,2.8-.4,1.071-1.47,3.086-1.94,4.128-.618,1.282-1.492,2.76-2.155,4.021-.555,1.019-1.787,2.9-2.368,3.9-.575.772-1.99,3.008-2.586,3.763-.459.583-1.389,1.83-1.849,2.418-1.445,1.845-3.34,4.074-4.964,5.762-19.254,20.9-49.46,30.851-77.3,25.065a2.392,2.392,0,0,1,.728-4.724,89.96,89.96,0,0,0,22.553-.173c.986-.14,3.219-.539,4.157-.674.786-.19,3.268-.7,4.109-.9,2.942-.744,5.837-1.651,8.706-2.632,1.484-.61,3.077-1.178,4.543-1.814.908-.4,2.938-1.378,3.8-1.761a82.341,82.341,0,0,0,17.349-11.6c1.2-.995,2.982-2.656,4.113-3.772.563-.5,1.407-1.453,1.941-2,28.093-29.37,29.578-76.8,3.169-107.845-32.661-39.11-93.9-38.226-124.987,2.375A75.992,75.992,0,0,0,658.2,242.716a2.393,2.393,0,1,1-4.415-1.838Z" transform="translate(-653.555 -189.329)" fill="#fda829"/>
    </g>
    <g id="Grupo_875248" data-name="Grupo 875248" transform="translate(9.988 15.599)">
      <ellipse id="Elipse_4837" data-name="Elipse 4837" cx="69.067" cy="69.067" rx="69.067" ry="69.067" fill="#148d80"/>
    </g>
    <g id="Grupo_875258" data-name="Grupo 875258" transform="translate(31.901 38.577)">
      <g id="Grupo_875249" data-name="Grupo 875249">
        <path id="Trazado_612475" data-name="Trazado 612475" d="M768.632,301.948H711.569a16.443,16.443,0,0,1,0-32.886h.2a13.144,13.144,0,0,1,13.351-12.032,22.254,22.254,0,0,1,43.928,3.317,20.8,20.8,0,0,1-.417,41.6ZM711.569,272.9a12.606,12.606,0,0,0,0,25.212h57.063a16.965,16.965,0,1,0,0-33.93c-.447,0-.889.028-1.331.058a1.919,1.919,0,0,1-2.051-1.942l.013-.447a18.416,18.416,0,0,0-36.662-2.495,1.918,1.918,0,0,1-2.219,1.635,9.3,9.3,0,0,0-10.82,9.157c0,.278.015.548.039.815a1.919,1.919,0,0,1-2.187,2.071A12.906,12.906,0,0,0,711.569,272.9Z" transform="translate(-695.126 -239.598)" fill="#fff"/>
      </g>
      <g id="Grupo_875257" data-name="Grupo 875257" transform="translate(15.882 67.322)">
        <g id="Grupo_875253" data-name="Grupo 875253">
          <g id="Grupo_875250" data-name="Grupo 875250">
            <path id="Trazado_612476" data-name="Trazado 612476" d="M717.738,339.493a1.919,1.919,0,0,1-1.612-2.956l5.351-8.331a1.919,1.919,0,0,1,3.229,2.074l-5.351,8.331A1.916,1.916,0,0,1,717.738,339.493Z" transform="translate(-715.821 -327.324)" fill="#fff"/>
          </g>
          <g id="Grupo_875251" data-name="Grupo 875251" transform="translate(22.377 0.001)">
            <path id="Trazado_612477" data-name="Trazado 612477" d="M746.9,339.493a1.919,1.919,0,0,1-1.613-2.955l5.347-8.331a1.919,1.919,0,1,1,3.229,2.073l-5.347,8.331A1.92,1.92,0,0,1,746.9,339.493Z" transform="translate(-744.981 -327.325)" fill="#fff"/>
          </g>
          <g id="Grupo_875252" data-name="Grupo 875252" transform="translate(44.752 0.001)">
            <path id="Trazado_612478" data-name="Trazado 612478" d="M776.054,339.493a1.919,1.919,0,0,1-1.612-2.955l5.347-8.331a1.919,1.919,0,1,1,3.229,2.073l-5.347,8.331A1.92,1.92,0,0,1,776.054,339.493Z" transform="translate(-774.137 -327.325)" fill="#fff"/>
          </g>
        </g>
        <g id="Grupo_875256" data-name="Grupo 875256" transform="translate(5.947 12.689)">
          <g id="Grupo_875254" data-name="Grupo 875254">
            <path id="Trazado_612479" data-name="Trazado 612479" d="M725.488,356.025a1.919,1.919,0,0,1-1.612-2.955l5.351-8.33a1.919,1.919,0,0,1,3.229,2.074l-5.351,8.33A1.915,1.915,0,0,1,725.488,356.025Z" transform="translate(-723.571 -343.858)" fill="#fff"/>
          </g>
          <g id="Grupo_875255" data-name="Grupo 875255" transform="translate(22.377 0)">
            <path id="Trazado_612480" data-name="Trazado 612480" d="M754.648,356.025a1.918,1.918,0,0,1-1.613-2.955l5.347-8.329a1.919,1.919,0,1,1,3.229,2.073l-5.347,8.329A1.918,1.918,0,0,1,754.648,356.025Z" transform="translate(-752.731 -343.858)" fill="#fff"/>
          </g>
        </g>
      </g>
    </g>
  </g>
</svg>
