<svg xmlns="http://www.w3.org/2000/svg" xmlns:xlink="http://www.w3.org/1999/xlink" width="575" height="490" viewBox="0 0 575 490">
  <defs>
    <radialGradient id="radial-gradient" cx="0.5" cy="0.5" r="0.5" gradientTransform="translate(0.402 0.634) rotate(90)" gradientUnits="objectBoundingBox">
      <stop offset="0.586" stop-color="#6b6e73"/>
      <stop offset="0.598" stop-color="#797c81"/>
      <stop offset="0.632" stop-color="#9d9fa2"/>
      <stop offset="0.669" stop-color="#bbbdbf"/>
      <stop offset="0.709" stop-color="#d4d5d6"/>
      <stop offset="0.754" stop-color="#e7e7e8"/>
      <stop offset="0.806" stop-color="#f4f5f5"/>
      <stop offset="0.873" stop-color="#fcfcfc"/>
      <stop offset="1" stop-color="#fff"/>
    </radialGradient>
    <radialGradient id="radial-gradient-2" cx="0.5" cy="0.5" r="0.5" gradientTransform="translate(-14.272 137.56) rotate(135)" gradientUnits="objectBoundingBox">
      <stop offset="0" stop-color="#2b2b2b"/>
      <stop offset="0.085" stop-color="#515151"/>
      <stop offset="0.199" stop-color="#7f7f7f"/>
      <stop offset="0.318" stop-color="#a6a6a6"/>
      <stop offset="0.439" stop-color="#c6c6c6"/>
      <stop offset="0.565" stop-color="#dfdfdf"/>
      <stop offset="0.696" stop-color="#f1f1f1"/>
      <stop offset="0.836" stop-color="#fbfbfb"/>
      <stop offset="1" stop-color="#fff"/>
    </radialGradient>
    <radialGradient id="radial-gradient-3" cx="0.5" cy="0.5" r="0.5" gradientTransform="translate(-18.85 134.523) rotate(135)" xlink:href="#radial-gradient-2"/>
    <radialGradient id="radial-gradient-4" cx="0.5" cy="0.5" r="0.5" gradientTransform="translate(-29.667 134.569) rotate(135)" xlink:href="#radial-gradient-2"/>
    <radialGradient id="radial-gradient-5" cx="0.5" cy="0.5" r="0.5" gradientTransform="translate(-24.334 133.587) rotate(135)" xlink:href="#radial-gradient-2"/>
    <radialGradient id="radial-gradient-6" cx="0.5" cy="0.5" r="0.5" gradientTransform="translate(-34.214 137.53) rotate(135)" xlink:href="#radial-gradient-2"/>
    <filter id="Elipse_180" x="0" y="422" width="68" height="68" filterUnits="userSpaceOnUse">
      <feOffset dy="3" input="SourceAlpha"/>
      <feGaussianBlur stdDeviation="3" result="blur"/>
      <feFlood flood-opacity="0.161"/>
      <feComposite operator="in" in2="blur"/>
      <feComposite in="SourceGraphic"/>
    </filter>
    <filter id="Elipse_180-2" x="107" y="422" width="68" height="68" filterUnits="userSpaceOnUse">
      <feOffset dy="3" input="SourceAlpha"/>
      <feGaussianBlur stdDeviation="3" result="blur-2"/>
      <feFlood flood-opacity="0.161"/>
      <feComposite operator="in" in2="blur-2"/>
      <feComposite in="SourceGraphic"/>
    </filter>
    <filter id="Elipse_180-3" x="214" y="422" width="68" height="68" filterUnits="userSpaceOnUse">
      <feOffset dy="3" input="SourceAlpha"/>
      <feGaussianBlur stdDeviation="3" result="blur-3"/>
      <feFlood flood-opacity="0.161"/>
      <feComposite operator="in" in2="blur-3"/>
      <feComposite in="SourceGraphic"/>
    </filter>
    <filter id="Elipse_180-4" x="336" y="422" width="68" height="68" filterUnits="userSpaceOnUse">
      <feOffset dy="3" input="SourceAlpha"/>
      <feGaussianBlur stdDeviation="3" result="blur-4"/>
      <feFlood flood-opacity="0.161"/>
      <feComposite operator="in" in2="blur-4"/>
      <feComposite in="SourceGraphic"/>
    </filter>
    <filter id="Elipse_180-5" x="441" y="422" width="68" height="68" filterUnits="userSpaceOnUse">
      <feOffset dy="3" input="SourceAlpha"/>
      <feGaussianBlur stdDeviation="3" result="blur-5"/>
      <feFlood flood-opacity="0.161"/>
      <feComposite operator="in" in2="blur-5"/>
      <feComposite in="SourceGraphic"/>
    </filter>
  </defs>
  <g id="Grupo_879070" data-name="Grupo 879070" transform="translate(-466 -1205)">
    <g id="Grupo_875539" data-name="Grupo 875539" transform="translate(-329.069 946.122)">
      <circle id="Elipse_4844" data-name="Elipse 4844" cx="153.315" cy="153.315" r="153.315" transform="translate(922.023 274.882)" fill="url(#radial-gradient)" style="mix-blend-mode: multiply;isolation: isolate"/>
      <g id="Grupo_875533" data-name="Grupo 875533" transform="translate(970.419 290.798)">
        <circle id="Elipse_4845" data-name="Elipse 4845" cx="125.948" cy="125.948" r="125.948" fill="#f9f9f9"/>
        <circle id="Elipse_4846" data-name="Elipse 4846" cx="125.948" cy="125.948" r="125.948" fill="#f9f9f9"/>
      </g>
      <path id="Rectángulo_293247" data-name="Rectángulo 293247" d="M52.656,0h0A52.664,52.664,0,0,1,105.32,52.664v0a52.656,52.656,0,0,1-52.656,52.656h0A52.664,52.664,0,0,1,0,52.656v0A52.656,52.656,0,0,1,52.656,0Z" transform="translate(1264.748 605.447)" fill="#fda829"/>
      <path id="Rectángulo_293248" data-name="Rectángulo 293248" d="M52.656,0h0a52.664,52.664,0,0,1,52.664,52.664v0a52.656,52.656,0,0,1-52.656,52.656h0A52.664,52.664,0,0,1,0,52.656v0A52.656,52.656,0,0,1,52.656,0Z" transform="translate(1151.578 605.447)" fill="#81ad20"/>
      <path id="Rectángulo_293249" data-name="Rectángulo 293249" d="M52.656,0h.008a52.656,52.656,0,0,1,52.656,52.656v.008a52.656,52.656,0,0,1-52.656,52.656h0A52.664,52.664,0,0,1,0,52.656v0A52.656,52.656,0,0,1,52.656,0Z" transform="translate(1038.409 605.447)" fill="#148d80"/>
      <path id="Rectángulo_293250" data-name="Rectángulo 293250" d="M52.664,0h0a52.656,52.656,0,0,1,52.656,52.656v0a52.664,52.664,0,0,1-52.664,52.664h0A52.656,52.656,0,0,1,0,52.664v0A52.664,52.664,0,0,1,52.664,0Z" transform="translate(925.239 605.447)" fill="#e26c1e"/>
      <path id="Rectángulo_293251" data-name="Rectángulo 293251" d="M52.664,0h0a52.656,52.656,0,0,1,52.656,52.656v0a52.664,52.664,0,0,1-52.664,52.664h0A52.656,52.656,0,0,1,0,52.664v0A52.664,52.664,0,0,1,52.664,0Z" transform="translate(812.069 605.447)" fill="#d2e1f1"/>
      <g id="Grupo_875536" data-name="Grupo 875536" transform="translate(864.27 511.477)">
        <g id="Grupo_875534" data-name="Grupo 875534" transform="translate(94.44)">
          <circle id="Elipse_4847" data-name="Elipse 4847" cx="18.534" cy="18.534" r="18.534" fill="url(#radial-gradient-2)" style="mix-blend-mode: multiply;isolation: isolate"/>
          <circle id="Elipse_4848" data-name="Elipse 4848" cx="18.534" cy="18.534" r="18.534" transform="translate(49.696 32.967)" fill="url(#radial-gradient-3)" style="mix-blend-mode: multiply;isolation: isolate"/>
          <circle id="Elipse_4849" data-name="Elipse 4849" cx="18.534" cy="18.534" r="18.534" transform="translate(167.13 32.475)" fill="url(#radial-gradient-4)" style="mix-blend-mode: multiply;isolation: isolate"/>
          <circle id="Elipse_4850" data-name="Elipse 4850" cx="18.534" cy="18.534" r="18.534" transform="translate(109.233 43.136)" fill="url(#radial-gradient-5)" style="mix-blend-mode: multiply;isolation: isolate"/>
          <circle id="Elipse_4851" data-name="Elipse 4851" cx="18.534" cy="18.534" r="18.534" transform="translate(216.499 0.328)" fill="url(#radial-gradient-6)" style="mix-blend-mode: multiply;isolation: isolate"/>
        </g>
        <circle id="Elipse_4852" data-name="Elipse 4852" cx="10.661" cy="10.661" r="10.661" transform="translate(216.138 47.564)" fill="#148d80"/>
        <circle id="Elipse_4853" data-name="Elipse 4853" cx="10.661" cy="10.661" r="10.661" transform="translate(274.363 36.411)" fill="#81ad20"/>
        <circle id="Elipse_4854" data-name="Elipse 4854" cx="10.661" cy="10.661" r="10.661" transform="translate(320.627 20.531) rotate(-67.5)" fill="#fda829"/>
        <circle id="Elipse_4855" data-name="Elipse 4855" cx="10.661" cy="10.661" r="10.661" transform="translate(108.381 3.936)" fill="#d2e1f1"/>
        <circle id="Elipse_4856" data-name="Elipse 4856" cx="10.661" cy="10.661" r="10.661" transform="translate(158.077 36.411)" fill="#e26c1e"/>
        <path id="Trazado_612784" data-name="Trazado 612784" d="M2581.812,1481.176l.477-.86,118.868,37.518v42.2h-.984v-41.619Z" transform="translate(-2247.494 -1466.148)"/>
        <path id="Trazado_612785" data-name="Trazado 612785" d="M2355.266,1630.082l.7-.694,54.957,26.86v20.3h-.984v-19.892Z" transform="translate(-2070.426 -1582.663)"/>
        <rect id="Rectángulo_293252" data-name="Rectángulo 293252" width="0.984" height="35.659" transform="translate(226.323 58.225)"/>
        <path id="Trazado_612786" data-name="Trazado 612786" d="M1569.247,1676.544v-20.3l.144-.144,55.076-26.716.7.7-54.932,26.572v19.892Z" transform="translate(-1456.077 -1582.66)"/>
        <path id="Trazado_612787" data-name="Trazado 612787" d="M1051.079,1560.032v-42.2l.253-.141,118.55-37.377.477.86-118.3,37.237v41.62Z" transform="translate(-1051.079 -1466.148)"/>
        <g id="Grupo_875535" data-name="Grupo 875535" transform="translate(115.884 11.417)">
          <path id="Trazado_612788" data-name="Trazado 612788" d="M1582.556,1468.674a3.117,3.117,0,0,1,4.407-.069h0v0h0a3.113,3.113,0,0,1,.066,4.4h0a3.113,3.113,0,0,1-4.4.066h0a3.1,3.1,0,0,1-.949-2.237h0A3.114,3.114,0,0,1,1582.556,1468.674Z" transform="translate(-1581.676 -1467.726)"/>
          <path id="Trazado_612789" data-name="Trazado 612789" d="M1808.7,1617.808a3.113,3.113,0,0,1,4.058-1.714h0a3.113,3.113,0,0,1,1.714,4.058h0a3.113,3.113,0,0,1-4.058,1.714h0a3.118,3.118,0,0,1-1.946-2.888h0A3.115,3.115,0,0,1,1808.7,1617.808Z" transform="translate(-1758.934 -1583.51)"/>
          <path id="Trazado_612790" data-name="Trazado 612790" d="M2073.769,1670.887a3.114,3.114,0,0,1,3.12-3.113h0c.09,0,.184,0,.273.01h0c.086-.007.177-.01.267-.01h0a3.114,3.114,0,0,1,3.116,3.116h0a3.113,3.113,0,0,1-3.113,3.116h0c-.1,0-.19,0-.28-.01h0c-.09.007-.18.01-.27.01h0a3.118,3.118,0,0,1-3.113-3.116h0Z" transform="translate(-1966.294 -1624.083)"/>
          <path id="Trazado_612791" data-name="Trazado 612791" d="M2343.587,1616.25a3.108,3.108,0,0,1,4.058,1.714h0a3.115,3.115,0,0,1-1.714,4.058h0a3.114,3.114,0,0,1-4.058-1.714h0a3.12,3.12,0,0,1-.232-1.17h0A3.11,3.11,0,0,1,2343.587,1616.25Z" transform="translate(-2175.662 -1583.631)"/>
          <path id="Trazado_612792" data-name="Trazado 612792" d="M2569.608,1468.762a3.113,3.113,0,0,1,4.4.069h0a3.12,3.12,0,0,1-.066,4.408v0a3.117,3.117,0,0,1-4.407-.066h0a3.115,3.115,0,0,1-.88-2.168h0A3.119,3.119,0,0,1,2569.608,1468.762Z" transform="translate(-2353.098 -1467.849)"/>
        </g>
      </g>
      <path id="Trazado_612793" data-name="Trazado 612793" d="M3113.329,1831.338a3.108,3.108,0,0,1,4.058,1.714h0a3.115,3.115,0,0,1-1.714,4.057h0a3.114,3.114,0,0,1-4.058-1.714h0a3.119,3.119,0,0,1-.232-1.17h0A3.11,3.11,0,0,1,3113.329,1831.338Z" transform="translate(-1797.135 -1228.848)"/>
      <path id="Trazado_612794" data-name="Trazado 612794" d="M2595.161,1831.338a3.108,3.108,0,0,1,4.058,1.714h0a3.115,3.115,0,0,1-1.713,4.057h0a3.113,3.113,0,0,1-4.058-1.714h0a3.12,3.12,0,0,1-.232-1.17h0A3.11,3.11,0,0,1,2595.161,1831.338Z" transform="translate(-1392.137 -1228.848)"/>
      <path id="Trazado_612795" data-name="Trazado 612795" d="M2076.994,1831.338a3.108,3.108,0,0,1,4.058,1.714h0a3.115,3.115,0,0,1-1.714,4.057h0a3.114,3.114,0,0,1-4.058-1.714h0a3.128,3.128,0,0,1-.231-1.17h0A3.11,3.11,0,0,1,2076.994,1831.338Z" transform="translate(-987.139 -1228.848)"/>
      <path id="Trazado_612796" data-name="Trazado 612796" d="M1558.826,1831.338a3.108,3.108,0,0,1,4.058,1.714h0a3.114,3.114,0,0,1-1.714,4.057h0a3.114,3.114,0,0,1-4.058-1.714h0a3.121,3.121,0,0,1-.232-1.17h0A3.109,3.109,0,0,1,1558.826,1831.338Z" transform="translate(-582.142 -1228.848)"/>
      <path id="Trazado_612797" data-name="Trazado 612797" d="M1040.658,1831.338a3.108,3.108,0,0,1,4.058,1.714h0a3.115,3.115,0,0,1-1.714,4.057h0a3.113,3.113,0,0,1-4.058-1.714h0a3.114,3.114,0,0,1-.232-1.17h0A3.109,3.109,0,0,1,1040.658,1831.338Z" transform="translate(-177.143 -1228.848)"/>
      <path id="Trazado_612798" data-name="Trazado 612798" d="M1375.622,418.25a1.477,1.477,0,0,1,1.521,1.43h0a1.477,1.477,0,0,1-1.43,1.522h0a1.476,1.476,0,0,1-1.52-1.43h0v-.046h0A1.476,1.476,0,0,1,1375.622,418.25Zm-.784-18.491v0a1.477,1.477,0,0,1,1.61-1.33h0a1.478,1.478,0,0,1,1.329,1.611h0v0h0a1.477,1.477,0,0,1-1.611,1.327h0a1.472,1.472,0,0,1-1.335-1.466h0A1.412,1.412,0,0,1,1374.838,399.759Zm2.465,38.256a1.476,1.476,0,0,1,1.691,1.225h0a1.475,1.475,0,0,1-1.225,1.69h0a1.476,1.476,0,0,1-1.691-1.224h0a1.614,1.614,0,0,1-.018-.235h0A1.475,1.475,0,0,1,1377.3,438.015Zm.72-58.025a1.477,1.477,0,0,1,1.768-1.112h0a1.477,1.477,0,0,1,1.11,1.768h0a1.475,1.475,0,0,1-1.766,1.11h0a1.475,1.475,0,0,1-1.148-1.438h0A1.5,1.5,0,0,1,1378.023,379.99ZM1381.5,457.4a1.476,1.476,0,0,1,1.834,1h0a1.476,1.476,0,0,1-1,1.834h0a1.474,1.474,0,0,1-1.834-1h0a1.428,1.428,0,0,1-.062-.418h0A1.478,1.478,0,0,1,1381.5,457.4Zm2.226-96.611a1.475,1.475,0,0,1,1.9-.874h0a1.476,1.476,0,0,1,.874,1.894h0a1.476,1.476,0,0,1-1.9.874h0a1.475,1.475,0,0,1-.966-1.384h0A1.455,1.455,0,0,1,1383.726,360.792Zm4.436,115.309a1.476,1.476,0,0,1,1.947.753h0a1.475,1.475,0,0,1-.753,1.947h0a1.476,1.476,0,0,1-1.947-.753h0a1.481,1.481,0,0,1-.126-.6h0A1.477,1.477,0,0,1,1388.163,476.1Zm3.69-133.614a1.473,1.473,0,0,1,1.991-.623h0a1.475,1.475,0,0,1,.623,1.993h0a1.477,1.477,0,0,1-1.993.623h0a1.476,1.476,0,0,1-.79-1.309h0A1.464,1.464,0,0,1,1391.853,342.487Zm5.321,151.3a1.477,1.477,0,0,1,2.029.5h0a1.475,1.475,0,0,1-.5,2.027h0a1.475,1.475,0,0,1-2.027-.5h0a1.461,1.461,0,0,1-.215-.764h0A1.473,1.473,0,0,1,1397.174,493.783Zm5.08-168.4a1.474,1.474,0,0,1,2.055-.362h0a1.476,1.476,0,0,1,.364,2.055h0a1.479,1.479,0,0,1-2.057.364h0a1.478,1.478,0,0,1-.63-1.212h0A1.468,1.468,0,0,1,1402.253,325.383Zm6.119,184.782a1.477,1.477,0,0,1,2.075.233h0a1.476,1.476,0,0,1-.235,2.075h0a1.474,1.474,0,0,1-2.073-.234h0a1.465,1.465,0,0,1-.321-.918h0A1.475,1.475,0,0,1,1408.373,510.165Zm6.38-200.422h0a1.474,1.474,0,0,1,2.085-.1h0a1.474,1.474,0,0,1,.1,2.085h0a1.476,1.476,0,0,1-2.086.1h0a1.47,1.47,0,0,1-.482-1.092h0A1.467,1.467,0,0,1,1414.753,309.743Zm14.389-13.928a1.476,1.476,0,0,1,2.081.168h0a1.478,1.478,0,0,1-.167,2.081h0a1.478,1.478,0,0,1-2.081-.167h0a1.475,1.475,0,0,1-.353-.956h0A1.48,1.48,0,0,1,1429.142,295.815ZM1436.529,538a1.477,1.477,0,0,1,2.067-.3h0a1.475,1.475,0,0,1,.3,2.065h0a1.476,1.476,0,0,1-2.065.3h0a1.474,1.474,0,0,1-.592-1.184h0A1.467,1.467,0,0,1,1436.529,538Zm8.66-254.174a1.477,1.477,0,0,1,2.044.431h0a1.475,1.475,0,0,1-.431,2.042h0a1.475,1.475,0,0,1-2.042-.43h0a1.455,1.455,0,0,1-.24-.805h0A1.479,1.479,0,0,1,1445.189,283.829Zm7.837,265.178a1.477,1.477,0,0,1,2.012-.558h0a1.476,1.476,0,0,1,.558,2.012h0a1.477,1.477,0,0,1-2.011.558h0a1.478,1.478,0,0,1-.75-1.287h0A1.471,1.471,0,0,1,1453.026,549.007Zm9.614-275.017a1.476,1.476,0,0,1,1.972.689h0a1.478,1.478,0,0,1-.689,1.97h0a1.477,1.477,0,0,1-1.971-.689h0a1.461,1.461,0,0,1-.146-.64h0A1.473,1.473,0,0,1,1462.64,273.99Zm18.575-7.519a1.474,1.474,0,0,1,1.865.936h0a1.473,1.473,0,0,1-.937,1.865h0a1.474,1.474,0,0,1-1.865-.936h0a1.475,1.475,0,0,1-.075-.464h0A1.476,1.476,0,0,1,1481.215,266.471Zm8.335,297.786a1.477,1.477,0,0,1,1.8-1.053h0v0h0a1.476,1.476,0,0,1,1.053,1.8h0a1.476,1.476,0,0,1-1.8,1.051h0a1.477,1.477,0,0,1-1.1-1.427h0A1.487,1.487,0,0,1,1489.55,564.257Zm11.041-302.846a1.476,1.476,0,0,1,1.73,1.168h0a1.476,1.476,0,0,1-1.169,1.73h0a1.476,1.476,0,0,1-1.729-1.169h0a1.4,1.4,0,0,1-.028-.282h0A1.476,1.476,0,0,1,1500.591,261.411Zm8.391,306.826a1.476,1.476,0,0,1,1.653-1.276h0a1.476,1.476,0,0,1,1.276,1.652h0a1.478,1.478,0,0,1-1.653,1.276h0a1.475,1.475,0,0,1-1.288-1.462h0A1.486,1.486,0,0,1,1508.982,568.238Zm11.473-309.357a1.476,1.476,0,0,1,1.566,1.379h0a1.477,1.477,0,0,1-1.381,1.567h0a1.478,1.478,0,0,1-1.566-1.381h0c0-.031,0-.062,0-.094h0A1.475,1.475,0,0,1,1520.455,258.881Zm18.457,1.384a1.475,1.475,0,0,1,1.566-1.379h0a1.475,1.475,0,0,1,1.379,1.567h0a1.474,1.474,0,0,1-1.566,1.379h0a1.475,1.475,0,0,1-1.383-1.471h0A.921.921,0,0,1,1538.911,260.265Zm11.2,306.71a1.476,1.476,0,0,1,1.651,1.276h0a1.476,1.476,0,0,1-1.278,1.652h0a1.475,1.475,0,0,1-1.652-1.276h0a1.454,1.454,0,0,1-.012-.188h0A1.477,1.477,0,0,1,1550.107,566.975Zm8.5-304.379a1.476,1.476,0,0,1,1.73-1.168h0a1.475,1.475,0,0,1,1.168,1.731h0a1.473,1.473,0,0,1-1.729,1.168h0a1.476,1.476,0,0,1-1.2-1.448h0A1.5,1.5,0,0,1,1558.61,262.6Zm10.782,300.635a1.476,1.476,0,0,1,1.8,1.054h0a1.477,1.477,0,0,1-1.053,1.8h0a1.477,1.477,0,0,1-1.8-1.055h0a1.479,1.479,0,0,1-.049-.375h0A1.478,1.478,0,0,1,1569.392,563.23Zm8.457-295.8a1.475,1.475,0,0,1,1.865-.935h0a1.477,1.477,0,0,1,.936,1.867h0a1.478,1.478,0,0,1-1.866.935h0a1.477,1.477,0,0,1-1.01-1.4h0A1.486,1.486,0,0,1,1577.849,267.434Zm18.455,7.277a1.477,1.477,0,0,1,1.972-.689h0a1.476,1.476,0,0,1,.687,1.972h0a1.477,1.477,0,0,1-1.972.689h0a1.481,1.481,0,0,1-.835-1.332h0A1.466,1.466,0,0,1,1596.3,274.711Zm9.446,273.771a1.477,1.477,0,0,1,2.011.559h0a1.478,1.478,0,0,1-.559,2.013h0a1.477,1.477,0,0,1-2.011-.559h0a1.474,1.474,0,0,1-.192-.725h0A1.478,1.478,0,0,1,1605.749,548.482Zm7.914-264.191a1.476,1.476,0,0,1,2.042-.43h0a1.475,1.475,0,0,1,.43,2.044h0a1.476,1.476,0,0,1-2.042.43h0a1.475,1.475,0,0,1-.669-1.238h0A1.467,1.467,0,0,1,1613.663,284.291Zm8.544,253.448a1.474,1.474,0,0,1,2.065.3h0a1.476,1.476,0,0,1-.3,2.067h0a1.478,1.478,0,0,1-2.067-.3h0a1.469,1.469,0,0,1-.294-.882h0A1.468,1.468,0,0,1,1622.206,537.739Zm7.454-241.724a1.477,1.477,0,0,1,2.082-.167h0a1.478,1.478,0,0,1,.166,2.081h0a1.478,1.478,0,0,1-2.081.167h0a1.478,1.478,0,0,1-.518-1.125h0A1.473,1.473,0,0,1,1629.66,296.015Zm14.379,13.664a1.478,1.478,0,0,1,2.086.1h0a1.478,1.478,0,0,1-.1,2.086h0a1.476,1.476,0,0,1-2.085-.1h0a1.467,1.467,0,0,1-.384-.992h0A1.477,1.477,0,0,1,1644.04,309.679Zm6.324,200.76a1.475,1.475,0,0,1,2.075-.233h0a1.476,1.476,0,0,1,.233,2.075v0a1.476,1.476,0,0,1-2.075.235h0a1.477,1.477,0,0,1-.554-1.155h0A1.473,1.473,0,0,1,1650.364,510.439Zm6.2-185.374a1.476,1.476,0,0,1,2.055.364h0a1.476,1.476,0,0,1-.364,2.057h0a1.476,1.476,0,0,1-2.055-.364h0a1.468,1.468,0,0,1-.267-.845h0A1.476,1.476,0,0,1,1656.569,325.065Zm5.04,169.269a1.479,1.479,0,0,1,2.029-.5h0a1.478,1.478,0,0,1,.5,2.029h0a1.476,1.476,0,0,1-2.027.5h0a1.476,1.476,0,0,1-.712-1.263h0A1.479,1.479,0,0,1,1661.609,494.334Zm5.426-152.407a1.473,1.473,0,0,1,1.991.623h0a1.475,1.475,0,0,1-.625,1.991h0a1.473,1.473,0,0,1-1.991-.623h0a1.463,1.463,0,0,1-.169-.682h0A1.474,1.474,0,0,1,1667.034,341.927Zm3.666,135a1.475,1.475,0,0,1,1.948-.751h0a1.476,1.476,0,0,1,.751,1.947h0a1.477,1.477,0,0,1-1.947.751h0a1.477,1.477,0,0,1-.879-1.35h0A1.48,1.48,0,0,1,1670.7,476.931Zm4.552-116.937a1.476,1.476,0,0,1,1.9.874h0a1.479,1.479,0,0,1-.876,1.9h0a1.477,1.477,0,0,1-1.9-.876h0a1.5,1.5,0,0,1-.09-.51h0A1.475,1.475,0,0,1,1675.252,359.994Zm2.232,98.5h0a1.476,1.476,0,0,1,1.834-1h0a1.478,1.478,0,0,1,1,1.835h0a1.476,1.476,0,0,1-1.835,1h0a1.475,1.475,0,0,1-1.057-1.414h0A1.489,1.489,0,0,1,1677.484,458.492Zm3.592-79.521a1.477,1.477,0,0,1,1.766,1.112v0a1.476,1.476,0,0,1-1.112,1.765h0a1.474,1.474,0,0,1-1.767-1.112h0a1.415,1.415,0,0,1-.038-.328h0A1.477,1.477,0,0,1,1681.076,378.972Zm.759,60.364a1.477,1.477,0,0,1,1.691-1.225h0a1.476,1.476,0,0,1,1.224,1.691h0a1.474,1.474,0,0,1-1.691,1.223h0a1.476,1.476,0,0,1-1.242-1.455h0A1.46,1.46,0,0,1,1681.835,439.336Zm2.57-40.808a1.475,1.475,0,0,1,1.611,1.328h0a1.477,1.477,0,0,1-1.33,1.611h0a1.476,1.476,0,0,1-1.609-1.33h0a1.427,1.427,0,0,1-.006-.143h0A1.475,1.475,0,0,1,1684.405,398.527Zm-.707,21.25a1.477,1.477,0,0,1,1.522-1.43h0a1.475,1.475,0,0,1,1.428,1.522h0a1.474,1.474,0,0,1-1.52,1.429h0a1.475,1.475,0,0,1-1.43-1.475h0Z" transform="translate(-439.353 0)"/>
      <path id="Trazado_612799" data-name="Trazado 612799" d="M1490.406,1997.792c-1.056-2.272-4.7-6.4-9.415-9.656l.088-.023-2.206-1.347a91.277,91.277,0,0,1-9.263-6.473,20.026,20.026,0,0,0-2.685-1.916l-.311-.159c-.061-.1-.13-.2-.2-.294l5.418-3.724a.532.532,0,0,0,.2-.269l3.007-5.123a.652.652,0,0,0-1.13-.652l-2.988,5.09-5.45,3.746a4.733,4.733,0,0,0-.466-.288l.2-.2a3.221,3.221,0,0,0,.939-2.723,4.922,4.922,0,0,0-3.945-4.481,7.815,7.815,0,0,1,5.541-3.943.559.559,0,0,0,.434-.629.543.543,0,0,0-.69-.378,8.843,8.843,0,0,0-6.446,4.865c-.005.01-.005.02-.01.03a4.568,4.568,0,0,0-1.818.53,2.161,2.161,0,0,1-2.076-.012,4.573,4.573,0,0,0-1.885-.557,8.839,8.839,0,0,0-6.44-4.856.543.543,0,0,0-.69.378.559.559,0,0,0,.434.629,7.805,7.805,0,0,1,5.521,3.909,4.932,4.932,0,0,0-3.919,4.424,3.223,3.223,0,0,0,.908,2.733l.227.229a4.624,4.624,0,0,0-.5.315l-5.413-3.721-2.988-5.09a.652.652,0,0,0-1.13.652l3.007,5.123a.534.534,0,0,0,.2.269l5.395,3.708c-.071.1-.137.21-.2.321l-.287.148a19.993,19.993,0,0,0-2.684,1.915,91.254,91.254,0,0,1-9.265,6.474l-2.207,1.348.088.023c-4.714,3.259-8.358,7.384-9.414,9.655a3.418,3.418,0,0,0-.089,3.311c.746,1.11,2.324,1.6,5.3,1.6.344,0,.714-.009,1.1-.022l-.018.024,2.329-.138a30.264,30.264,0,0,0,7.886-1.263l-1.369,2.371s0,.01-.006.014l-7.139,4.908a.991.991,0,0,0,1.123,1.634l7.353-5.054a.982.982,0,0,0,.371-.488c0-.008.011-.014.016-.022l2.855-4.945a8.273,8.273,0,0,0,3.173-4.156l.127-.418c.019-.117.028-.231.04-.346l.074.147.3-.973.655-.067a17.332,17.332,0,0,0-.809,3.811v.007q-.04.379-.069.775c0,.023,0,.044-.005.067-.017.242-.03.49-.041.741,0,.043,0,.084-.006.128-.01.289-.018.583-.019.884a27.447,27.447,0,0,0,.38,4.545c.007.043.015.086.022.128q.072.429.155.858l.026.132q.087.439.186.877c.006.029.013.057.02.086a36.127,36.127,0,0,0,2.064,6.306l.01.022q.2.452.4.884l.063.132a20.957,20.957,0,0,0,2.513,4.112h0q.2.246.4.468l.011.013q.193.212.386.4l.03.029c.121.116.241.224.362.325l.051.043c.112.092.223.176.334.254.024.017.048.036.073.052.1.07.206.131.308.189.03.017.06.036.09.052.1.05.191.092.286.13.034.014.068.032.1.044a2.492,2.492,0,0,0,.278.08c.033.008.066.021.1.027a1.983,1.983,0,0,0,.365.038h0a2.324,2.324,0,0,0,.4-.034c.037-.006.075-.019.112-.027a2.858,2.858,0,0,0,.3-.076c.039-.013.079-.031.118-.046.1-.037.2-.077.3-.126.035-.017.07-.037.106-.056.106-.056.212-.115.319-.182l.088-.058c.114-.076.228-.157.343-.246l.065-.052c.123-.1.247-.2.37-.318l.041-.038q.2-.185.4-.393l.018-.02a18.47,18.47,0,0,0,2.973-4.6l.036-.076a34.879,34.879,0,0,0,2.242-6.291h0q.121-.474.229-.954c.005-.024.01-.048.016-.072q.1-.433.182-.868c.01-.05.02-.1.03-.151q.078-.4.145-.8c.01-.062.022-.125.032-.187a29.551,29.551,0,0,0,.377-3.9h0c.005-.179.012-.359.013-.538v-.015c0-.3,0-.6-.01-.887,0-.057,0-.112-.006-.168q-.012-.368-.033-.724c0-.037-.005-.075-.008-.113q-.025-.387-.061-.759c0-.015,0-.029,0-.044q-.04-.4-.094-.79h0a16.271,16.271,0,0,0-.693-3.013l.614.062.3.976.074-.146c.012.114.02.225.039.341l.125.414a8.281,8.281,0,0,0,3.173,4.158l2.856,4.947c0,.008.011.015.016.022a.981.981,0,0,0,.371.488l7.353,5.054a.991.991,0,1,0,1.123-1.634l-7.139-4.908s0-.01-.006-.014l-1.37-2.372a30.248,30.248,0,0,0,7.886,1.263l2.329.138-.017-.024c.382.013.752.022,1.1.022,2.976,0,4.555-.492,5.3-1.6A3.417,3.417,0,0,0,1490.406,1997.792Zm-24.063-5.87-.92-.093a8.954,8.954,0,0,0-.914-1.291l-.013-.015a7.942,7.942,0,0,0-.93-.922l-.019-.016c-.044-.036-.088-.073-.133-.108h0l2.082-.447C1465.789,1990.079,1466.081,1991.068,1466.343,1991.922Zm-15.55-2.893,2.124.456-.092.073-.016.013q-.248.206-.483.436l-.017.017q-.224.221-.434.464l-.031.036a8.984,8.984,0,0,0-.815,1.12l-.027.045c-.028.045-.055.089-.082.134l-.97.1C1450.21,1991.068,1450.5,1990.079,1450.793,1989.029Z" transform="translate(-479.365 -1332.975)" fill="#fff"/>
      <path id="Trazado_612800" data-name="Trazado 612800" d="M952.73,1989.556c-1.032-.121-7.1.971-7.467.961a62.953,62.953,0,0,0-6.859,3.835,6.881,6.881,0,0,1-2.245.544c-.758-2.157-2.272-3.316-5.1-3.163-.019-.528-.187-1.127-.187-1.509,0-.607-1.457-8.134-1.518-8.438s-2.307-3.885-2.853-4.978a34.3,34.3,0,0,0-3.035-3.946c-1.882.728,1.7,4.37,2.307,4.674s2.307,4.31,2.489,5.281,1.639,7.284,1.7,7.7a6.329,6.329,0,0,1-.247,1.375c-.465.079-.949.178-1.473.315,0,0-9.392-6.523-19.336,6.076-.571-.563-1.193-.85-1.708-.289-1.336,1.457-6.192,10.077-7.284,9.955s-1.578-1.578-3.157-1.578-3.764.121-3.521.971,1.214.973,2.549.608c0,0,1.457-.811,1.862-.2a4.431,4.431,0,0,0,2.509,1.416c.486-.081,5.018-5.463,5.706-6.88a7.933,7.933,0,0,1,1.578-2.226s.024.048.064.126c-8.344,12.061-2.191,19.07,2.931,19.38s13.5-2.44,19-7.122a16.2,16.2,0,0,0,1.785.726,9.919,9.919,0,0,1-2.635,1.38c-1.681.609-8.042,4.552-8.132,4.965s.994,1.768,1.723,2.1-.218,1.581-.218,1.581c-.418,1.139-.257,1.959.76,2.149s1.133-1.664,1.112-3-1.766-1.721-1.925-2.645,10.06-5.2,11.781-6.36c1.255-.845-1.115-1.961-2.49-2.5a24.427,24.427,0,0,0,4.016-4.7,6.572,6.572,0,0,1,1.544-.368c.546.061,1.093,1.4,1.093,1.4s-.971,9.288-.668,9.955.789.236,1.275.816.789.338,1.093.459,1.214,2.064,1.7,1.76,1.214-.789.85-1.4a5.928,5.928,0,0,0-2.064-1.76,6.468,6.468,0,0,1-1.639-.425c-.243-.182-.243-4.006-.243-4.006s1.214-4.978,1.032-5.828-1.538-2.064-1.679-2.428c-.067-.172-.613-.235-1.278-.229a13.139,13.139,0,0,0,.529-1.754,3.8,3.8,0,0,1,1.275-.446,1.2,1.2,0,0,1,1.214.637s.486,4.219.607,4.7.972.91,1.214,1.153,1.032-.243,2.185,0,2.367,1.275,2.975,1.153,1.275-.85.789-1.275a7.426,7.426,0,0,0-2.61-1.275c-.486,0-1.5.607-2.208.425a2.952,2.952,0,0,1-1.312-1.032s-.546-4.067-.729-4.917-.971-1.093-1.578-1.4a2.423,2.423,0,0,0-1.436.156,3.629,3.629,0,0,0-.538-3.908l1.67-.68s1.214-.85,2.246-1.457,4.917-2.549,5.281-2.731,5.888-.789,6.252-.921a19.2,19.2,0,0,1,2.671,0c.85-.011,4.128.192,4.006-.657S953.762,1989.677,952.73,1989.556Z" transform="translate(-63.429 -1339.644)" fill="#174956"/>
      <path id="Trazado_612801" data-name="Trazado 612801" d="M2507.484,1967.4c-.646-.013-1.337.5-2.795.857a6.025,6.025,0,0,0-2.515,1.83,3.186,3.186,0,0,1-.945-.6s-.146-.006-.364,0a21.291,21.291,0,0,0-1.469-4.754c-1.117-2.289-2.818-4.255-3.066-5.149s-1.276-.32-.627.4a41.162,41.162,0,0,1,3.467,5.15c.267.645,1.019,2.969,1.519,4.363a4.721,4.721,0,0,0-.956.149c-.715.2-.46,1.347-.156,1.519,0,0-1.152-.45-1.758-.09s-2.43,2.343-4.343,3.773-6.144,3.759-6.365,5.04c0,0,.913.517-2.045.953s-12.711,7.379-13.588,7.687c-.348.122-4.183,1.7-8.7,3.687-1.161-.35-2.037-.606-2.258-.652-.809-.167-1.633-.309-2.226.561a9.4,9.4,0,0,0-.654,2.414c-5.356,2.493-10.245,5.033-10.349,6.031-.229,2.181,6.05,1.914,9.386.988l.207-.058c-.209,1.75-1.19,5.53-1.19,5.53s-.41.37-1.512,1.254-1.142,1.665-1.013,1.436,2.446-1.128,3.092-2.27,1.06-5.428,1.25-6.132h0c1.618-.482,4.171-1.311,6.846-2.259a8.29,8.29,0,0,0-1.2,1.343c-.593.87-2.312,7.641-2.166,8.628a42.043,42.043,0,0,1-.777,5.865s-.41.371-1.513,1.254-1.142,1.664-1.013,1.436,2.446-1.128,3.092-2.27.932-6.481,1.121-7.185,2.7-8.109,3.1-8.284c.2-.087,2.5-1.477,4.8-2.85a27.766,27.766,0,0,0,4.729-2.318c3.006-2.118,8.434-5.679,9.437-6.92s3.539-4.127,3.539-4.127-6.084,7.208-5.754,8.4.308.877,1.059,1.5a6.045,6.045,0,0,0,1.4.894s-1.921,6.95-1.838,8.4.062,4.154,1.118,4.951a2.452,2.452,0,0,0,2.009.533s-.87-.593-1.436-1.013-1.313-4.962-1.088-5.537,2.364-7.2,2.394-7.788a.467.467,0,0,0-.121-.282c1.276.678,2.542,1.249,2.843,1.419.533.3-3.557,6.025-3.62,6.492a21.151,21.151,0,0,0,.668,3.793,4.557,4.557,0,0,0,1.37.775,13.685,13.685,0,0,1-1-1.069s-.294-2.678-.3-3.383,4.528-5.912,4.293-6.7c-.2-.686-3.259-2.054-5.324-3.021a1.783,1.783,0,0,1-.86-.717c.768-1.4,3.739-5.4,4.472-6.382.841-1.132,2.092-2.635,2.966-3.647.76-.881,3.2-2.86,4.02-3.582-1.036,1.044-4.815,5.111-4.342,6.816.562,2.025.953,2.046,2.82,2.3s3.154,1.884,7.914,1.461c1-.089,1.838-.156,2.551-.206a5.306,5.306,0,0,0,1.47.437c1.308.083,2.4-.194,2.988.283a2.278,2.278,0,0,0,.358.228c-.536.725-1.97,2.682-2.456,3.542-.6,1.065-.318,1.628-1,2.651s-.265,3.667.506,3.9,1.225-.211.877-.307-1.241-1-1.1-1.427a25.752,25.752,0,0,1,.917-3.4c.536-1.3.606-.361,1.748-2.025.592-.862,1.234-1.721,1.641-2.462.538.187,1.046.329,1.245.377.412.1.6,1.894.582,2.88s-.371,2.2.115,2.4,1.353.1,1.163-.28a20.057,20.057,0,0,1-.375-2.891s-.317-2.992-.384-3.23a10.8,10.8,0,0,0-2.019-.856.772.772,0,0,0-.035-.071,3.958,3.958,0,0,0-2.763-1.864c-.346-.029-1.442-.173-2.873-.359a10.246,10.246,0,0,1-1.773-1.2c-.807-.766-3.648-8.467-4.9-9.555a3.04,3.04,0,0,1,.51-.628c1.274-1.188,1.351-1.145,1.86-1.158s.4.53,1.641.828.51-.013,1.135-.764,2.033-1.463.782-2.271a7.887,7.887,0,0,0-1.293-.683,8.956,8.956,0,0,1,2.357-1.377c.374-.04,1.6-.349,2.378-.564S2508.129,1967.409,2507.484,1967.4ZM2459,1993.907a3.848,3.848,0,0,1,.444-1.336,7.905,7.905,0,0,1,1.7.364C2460.44,1993.253,2459.721,1993.578,2459,1993.907Zm34.681-9.3a6.3,6.3,0,0,1,1.507-4.974,10.2,10.2,0,0,0,1.243-1.954c.833,1.506,2.9,5.228,4.18,7.417C2497.488,1984.718,2494.314,1984.4,2493.684,1984.606Z" transform="translate(-1278.079 -1328.908)" fill="#fff"/>
      <path id="Trazado_612802" data-name="Trazado 612802" d="M3035.656,2029.923c-2.5-3.189-1.54-8.593-1.25-9.414s1.5-6.57.8-7.78-.712-5.755-2.022-6.174a10.805,10.805,0,0,0-4.073-1.156,7.124,7.124,0,0,0-4.761-3.537c-.171-1.341-.353-2.234-.52-2.242a20.86,20.86,0,0,0-3.125,1.652c-.356,0-.72.025-1.093.065a29.081,29.081,0,0,1-3.023-1.089.936.936,0,0,0-.88.064c.242-.43.435-.788.488-.873a41.094,41.094,0,0,0,1.552-4.63c-.039-.3,0-2.337-.854-2.579-.679-.191-3.978,2.571-5.332,3.738a6.579,6.579,0,0,0-.745-.13c-1.043-.128.494-8.318-9.331-5.9,0,0,2.223-1.936-2.524-3.14-2.7-.684-4.356-.537-5.7-.016a39.545,39.545,0,0,0-4.93-1.708c-1.428-.488-4.686-1.995-6.736-2.925a7.628,7.628,0,0,0-4.91-.557c-.572.277.239.235,1.63.415a24.6,24.6,0,0,1,5.552,1.909c1.1.576,5.585,2.306,6.484,2.616.528.182,1.289.441,1.947.7-.464.256-.91.547-1.375.852a10.316,10.316,0,0,0-1.974-.814c-1.661-.44-4.46-.273-6.027-.325s-5.307-.534-7.654-.821a7.767,7.767,0,0,0-4.917.859c-.429.416.327.151,1.729-.072a27.572,27.572,0,0,1,6.1.212c1.291.224,6.295.57,7.283.606a20.286,20.286,0,0,1,3.437.293,7.827,7.827,0,0,1,1.21.576c-2.133,1.224-4.033.882-4.231,2.053a3.2,3.2,0,0,0,.451,2.368c.262.477,4.145.6,5.145.617s1.348,1.276,3.3,1.386,3.365,2.148,4.16,1.057c0,0,1.463-1.5,1.745.214a11.861,11.861,0,0,0-.877.807c-.859.92-1.626,5.286-1.858,5.476s-2.713,1.464-2.935,1.938-1.746,2.31-3.232,2.351-4.2.072-3.748.248a15.034,15.034,0,0,0,4.031.736,4.574,4.574,0,0,0,3.368-2.329c.521-1.012,1.662-1.22,2.372-1.5a4.911,4.911,0,0,0,1.874-1.511c.163-.26.694-1.468,1.718-3.539.027.063.051.13.079.191a3.176,3.176,0,0,0,3.871,1.826c.6-.234,1.337,1.271,1.337,1.271.3.759.906.464,1.371.143a1.837,1.837,0,0,0,.1,1.058,34.732,34.732,0,0,0-1.611,4.931c.025.677-2.981,5.836-2.981,5.836a31.677,31.677,0,0,0-.659,3.2c-.114,1.078.106,1.444.667.729s.612-3.128.612-3.128l3.1-4.958c.381-.608,1.135-3.26,1.88-5.391.069.082.139.167.21.262.858,1.139,1.752,1.863,2.532,1.514.149-.067-1.086,3.8-1.08,6.13,0,1.349,1.465,1.739,2.047,2.135.125.084-.225-1.077-1.459-2.01a32.56,32.56,0,0,1,1.748-6.285s.319,9.307,8.609,12.171c-.478,1.534-1.008,3.281-1.012,3.484-.008.371-.788,2.871-.624,3.684s2.811,2.5,2.823,1.947-2.208-.958-1.729-3.872a21.109,21.109,0,0,1,1.938-4.841,19.247,19.247,0,0,0,6.277.309c2.865-.285,2.423-7.359.5-12.167l2.831,1.114s.9,3.27,1.167,4.308a26.137,26.137,0,0,1-.21,6.574,22.731,22.731,0,0,0-.59,7.8C3033.558,2029.365,3036.31,2030.756,3035.656,2029.923Zm-21.87-32.55a5.2,5.2,0,0,0-.478-.482c.866-.878,2.67-2.73,2.67-2.73a1.143,1.143,0,0,1,.208,1.176c-.243.747-.452,2.331-.609,2.939a19.571,19.571,0,0,1-1.306,2.743C3013.755,2000.8,3014.744,1998.482,3013.787,1997.373Z" transform="translate(-1686.814 -1346.32)" fill="#fff"/>
      <path id="Trazado_612803" data-name="Trazado 612803" d="M2002.712,1988.691c-3.8.278-11.529,4.167-15.51,6.482a47.112,47.112,0,0,1-7.26,3.348c-.051-.122-.1-.236-.148-.339a6.038,6.038,0,0,0-.459-.819c.812-1.161,3.111-4.468,3.175-4.8.077-.4,0-.478,0-.478s2.223-1.543,2.362-1.744a.978.978,0,0,0,.139-.486s.926-.872,1.312-1.335a2.147,2.147,0,0,0,.479-.71c0-.046.556-.432.71-.695s.355-.509.541-.54.277.077.324-.031-.4-.262-.509-.278l-.108-.015s-.016-.525-.247-.617-.262-.093-.2.123-.355.541-.494.756a3.63,3.63,0,0,0-.278.725l-.525.185a1.286,1.286,0,0,0-.54.494l-.124-.432a2.362,2.362,0,0,0-.34.694,4,4,0,0,1-.54.941s-.139-.37-.617,0a17.512,17.512,0,0,0-1.621,1.806.627.627,0,0,0-.633.278,19.568,19.568,0,0,0-1.4,2.438c-.272.592-1.033,2.252-1.374,3a4.512,4.512,0,0,1-.37-.542,8.851,8.851,0,0,1-.407-1.25,2.454,2.454,0,0,0,1.842-2.593,2.24,2.24,0,0,0-2.176-2.407,6.664,6.664,0,0,0-1.024-.4,1.606,1.606,0,0,1,.7-1.066,8.971,8.971,0,0,1,1.543-.37c.2-.108.37-.988.37-.988a11.7,11.7,0,0,1,1.62-1.4c.818-.556.833-.864.9-.926s.509-.91,1.111-1.775a6.119,6.119,0,0,1,2.053-2.114.868.868,0,0,1,.972.34s.108.308.247.108-.324-.865-1.636-.973-2.655,1.775-3.226,2.871-.695.957-.957,1.2a19.572,19.572,0,0,0-1.327,1.9,2.124,2.124,0,0,1-.664.679h-.355a3.948,3.948,0,0,0-1.652,1.42,1.475,1.475,0,0,0-.137.98,4.508,4.508,0,0,0-2.165,0,1.475,1.475,0,0,0-.137-.98,3.95,3.95,0,0,0-1.651-1.42h-.355a2.124,2.124,0,0,1-.664-.679,19.529,19.529,0,0,0-1.327-1.9c-.262-.247-.386-.108-.957-1.2s-1.914-2.979-3.226-2.871-1.775.772-1.636.973.247-.108.247-.108a.868.868,0,0,1,.972-.34,6.119,6.119,0,0,1,2.052,2.114c.6.865,1.05,1.713,1.111,1.775s.077.37.9.926a11.71,11.71,0,0,1,1.621,1.4s.17.88.37.988a8.964,8.964,0,0,1,1.543.37,1.609,1.609,0,0,1,.7,1.066,6.659,6.659,0,0,0-1.024.4,2.24,2.24,0,0,0-2.176,2.407,2.455,2.455,0,0,0,1.842,2.593,8.885,8.885,0,0,1-.407,1.25,4.512,4.512,0,0,1-.37.542c-.341-.744-1.1-2.4-1.375-3a19.571,19.571,0,0,0-1.4-2.438.627.627,0,0,0-.633-.278,17.473,17.473,0,0,0-1.62-1.806c-.479-.37-.617,0-.617,0a4,4,0,0,1-.54-.941,2.357,2.357,0,0,0-.339-.694l-.124.432a1.29,1.29,0,0,0-.541-.494l-.525-.185a3.614,3.614,0,0,0-.278-.725c-.139-.216-.556-.54-.494-.756s.031-.216-.2-.123-.247.617-.247.617l-.108.015c-.108.015-.556.17-.509.278s.139,0,.324.031.386.278.54.54.71.649.71.695a2.148,2.148,0,0,0,.478.71c.386.463,1.312,1.335,1.312,1.335a.977.977,0,0,0,.139.486c.139.2,2.361,1.744,2.361,1.744s-.077.077,0,.478c.064.331,2.363,3.638,3.175,4.8a5.958,5.958,0,0,0-.458.819c-.047.1-.1.218-.148.339a47.1,47.1,0,0,1-7.26-3.348c-3.982-2.315-11.714-6.2-15.51-6.482s-6.2.972-4.815,3.01,5.186,6.019,6.852,6.25,3.1.371,3.1.371-1.157.926-1.157,1.343,2.315,3.473,4.306,3.8a50.069,50.069,0,0,0,9.26.556q.565-.057,1.1-.125c-.591.595-1.5,1.519-1.962,2.008-.71.756-.278,1-.278,1s-1.235.417-2.346.864a11.6,11.6,0,0,0-2.006,1.065l-1.7.587-1.281.571s-1.158.046-1.42.062-.124.185-.124.185-1.065.077-1.389.062-.247.34-.247.34l-.911.093s-.463.278-.247.309a2.487,2.487,0,0,1,.71.494s-.2.463-.124.571.355-.309.849-.586a7.982,7.982,0,0,1,1.358-.525s-.247.448,0,.309,1.435-.725,1.435-.725a.739.739,0,0,0,0,.262c.031.046.232-.17.571-.4a4.465,4.465,0,0,1,1.08-.417v.124c0,.123.108.077.309-.108a12.724,12.724,0,0,1,1.266-.757s-.17.479.108.232a16.788,16.788,0,0,1,3.133-1.528,5.609,5.609,0,0,0,1.374-.6l.062.046c.061.047.324-.092.324-.092s0,.448.139.463.285-.818.517-1.281a34.925,34.925,0,0,1,2.854-2.971,6.481,6.481,0,0,0,1.358-.435,7.706,7.706,0,0,0,2.274,3.453,4.571,4.571,0,0,1,.084,1.437,13.532,13.532,0,0,0-2.289-2.625c-.957-.648-1.281-.787-1.451-.663s-3.241,9.6-3.179,9.815.417.231.417.231-1.559,5.695-1.59,5.942a.359.359,0,0,0,.154.355s-.9,2.315-.988,2.5a.333.333,0,0,0,0,.324,8.665,8.665,0,0,1-.988,1.358c-.278.2,0,.247,0,.247s-1.3.941-1.281,1.111a.391.391,0,0,0,.077.232s-1.219,1.4-1.435,1.62-.771.262-.679.4.355.077.525.046a1.18,1.18,0,0,1,.448.062s0,.509.247.556.17.031.2-.324a11.1,11.1,0,0,1,1.466-2.006s.093.633.309.386a13.308,13.308,0,0,0,.818-1.543l.309.309.617-1.9h.386l.633-3.1.386.324a23.953,23.953,0,0,1,.139-2.731c.154-1.219.972-4.167.972-4.167l.386-.247s.448,1.806.524,1.6a22.958,22.958,0,0,1,.016-2.747c.185-1.127,1.481-7.47,1.481-7.47a24.3,24.3,0,0,0,1.034,2.3,6.9,6.9,0,0,0,.927,1.351,10.406,10.406,0,0,0-1.575,8.032c1.25,7.454,6.112,10.417,6.112,10.417s4.862-2.963,6.112-10.417a10.409,10.409,0,0,0-1.575-8.032,6.923,6.923,0,0,0,.927-1.351,24.373,24.373,0,0,0,1.034-2.3s1.3,6.343,1.481,7.47a22.867,22.867,0,0,1,.016,2.747c.077.2.525-1.6.525-1.6l.385.247s.818,2.948.973,4.167a24.016,24.016,0,0,1,.139,2.731l.386-.324.633,3.1h.385l.618,1.9.308-.309a13.337,13.337,0,0,0,.818,1.543c.216.247.309-.386.309-.386a11.111,11.111,0,0,1,1.466,2.006c.031.355-.046.37.2.324s.247-.556.247-.556a1.18,1.18,0,0,1,.448-.062c.17.031.432.093.525-.046s-.463-.185-.679-.4-1.435-1.62-1.435-1.62a.388.388,0,0,0,.077-.232c.016-.17-1.281-1.111-1.281-1.111s.278-.047,0-.247a8.656,8.656,0,0,1-.988-1.358.333.333,0,0,0,0-.324c-.093-.185-.988-2.5-.988-2.5a.359.359,0,0,0,.154-.355c-.031-.247-1.59-5.942-1.59-5.942s.355-.016.417-.231-3.01-9.692-3.179-9.815-.494.015-1.451.663a13.524,13.524,0,0,0-2.289,2.625,4.564,4.564,0,0,1,.084-1.437,7.7,7.7,0,0,0,2.274-3.453,6.5,6.5,0,0,0,1.359.435,34.925,34.925,0,0,1,2.854,2.971c.231.463.378,1.3.517,1.281s.139-.463.139-.463.262.139.324.092l.062-.046a5.6,5.6,0,0,0,1.374.6,16.8,16.8,0,0,1,3.133,1.528c.278.247.108-.232.108-.232a12.7,12.7,0,0,1,1.265.757c.2.185.309.231.309.108v-.124a4.469,4.469,0,0,1,1.081.417c.339.231.54.447.571.4a.733.733,0,0,0,0-.262s1.188.586,1.435.725,0-.309,0-.309a7.982,7.982,0,0,1,1.358.525c.494.278.771.695.849.586s-.124-.571-.124-.571a2.489,2.489,0,0,1,.71-.494c.216-.031-.247-.309-.247-.309l-.911-.093s.077-.355-.247-.34-1.389-.062-1.389-.062.139-.169-.124-.185-1.42-.062-1.42-.062l-1.281-.571-1.7-.587a11.612,11.612,0,0,0-2.006-1.065c-1.111-.448-2.346-.864-2.346-.864s.432-.247-.278-1c-.458-.488-1.371-1.413-1.962-2.008.354.046.721.087,1.1.125a50.07,50.07,0,0,0,9.26-.556c1.991-.324,4.305-3.38,4.305-3.8s-1.157-1.343-1.157-1.343,1.435-.139,3.1-.371,5.463-4.213,6.852-6.25S2006.509,1988.413,2002.712,1988.691Z" transform="translate(-883.465 -1345.438)" fill="#fff"/>
      <g id="Grupo_875538" data-name="Grupo 875538" transform="translate(997.29 379.229)">
        <g id="Grupo_875537" data-name="Grupo 875537">
          <path id="Trazado_612804" data-name="Trazado 612804" d="M1692.691,824.721v6.408h-2.161V815.153h6.112a5.633,5.633,0,0,1,3.978,1.317,4.955,4.955,0,0,1,0,6.946,5.662,5.662,0,0,1-3.978,1.306Zm0-1.69h3.95a2.9,2.9,0,0,0,3.226-3.072,3.175,3.175,0,0,0-.807-2.216,3.1,3.1,0,0,0-2.419-.889h-3.95Z" transform="translate(-1683.891 -814.012)" fill="#174956"/>
          <path id="Trazado_612805" data-name="Trazado 612805" d="M1760.2,835.067l-1.108-.066a2.478,2.478,0,0,0-1.443.406,2.605,2.605,0,0,0-.905,1.141v8.482h-2.162V833.157h1.931l.208,1.734a4.122,4.122,0,0,1,1.245-1.437,2.914,2.914,0,0,1,1.706-.516,2.672,2.672,0,0,1,.461.039,3.056,3.056,0,0,1,.362.082Z" transform="translate(-1733.956 -827.912)" fill="#174956"/>
          <path id="Trazado_612806" data-name="Trazado 612806" d="M1793.573,812.133h-2.162v-2.205h2.162Zm0,14.912h-2.162V815.173h2.162Z" transform="translate(-1762.74 -809.928)" fill="#174956"/>
          <path id="Trazado_612807" data-name="Trazado 612807" d="M1818.461,833.157l.154,1.766a4.312,4.312,0,0,1,1.487-1.465,3.969,3.969,0,0,1,2.036-.521,3.876,3.876,0,0,1,2.974,1.125,4.939,4.939,0,0,1,1.053,3.473v7.494H1824v-7.45a3.212,3.212,0,0,0-.62-2.227,2.483,2.483,0,0,0-1.893-.658,3.352,3.352,0,0,0-1.7.4,2.91,2.91,0,0,0-1.1,1.125v8.811h-2.162V833.157Z" transform="translate(-1782.372 -827.912)" fill="#174956"/>
          <path id="Trazado_612808" data-name="Trazado 612808" d="M1877.921,843.57a2.541,2.541,0,0,0,1.745-.664,2.1,2.1,0,0,0,.746-1.63h1.953l.033.066a3.409,3.409,0,0,1-1.317,2.727,5.031,5.031,0,0,1-7.022-.51,6.565,6.565,0,0,1-1.361-4.235v-.461a6.536,6.536,0,0,1,1.366-4.219,4.658,4.658,0,0,1,3.857-1.706,4.48,4.48,0,0,1,3.253,1.229,3.9,3.9,0,0,1,1.223,3.017l-.022.066h-1.964a2.618,2.618,0,0,0-.708-1.849,2.328,2.328,0,0,0-1.783-.763,2.5,2.5,0,0,0-2.321,1.234,5.778,5.778,0,0,0-.73,2.99v.461a5.886,5.886,0,0,0,.719,3.017A2.494,2.494,0,0,0,1877.921,843.57Z" transform="translate(-1826.273 -827.912)" fill="#174956"/>
          <path id="Trazado_612809" data-name="Trazado 612809" d="M1931.832,812.133h-2.161v-2.205h2.161Zm0,14.912h-2.161V815.173h2.161Z" transform="translate(-1870.802 -809.928)" fill="#174956"/>
          <path id="Trazado_612810" data-name="Trazado 612810" d="M1964.907,839.543a6.544,6.544,0,0,1-1.229,4.142,4.062,4.062,0,0,1-3.391,1.574,4.71,4.71,0,0,1-1.926-.368,3.676,3.676,0,0,1-1.41-1.1v5.8h-2.162V833.157h1.657l.34,1.536a3.923,3.923,0,0,1,1.448-1.306,4.325,4.325,0,0,1,2.019-.45,3.947,3.947,0,0,1,3.429,1.75,7.919,7.919,0,0,1,1.223,4.625Zm-2.161-.23a6.275,6.275,0,0,0-.8-3.319,2.578,2.578,0,0,0-2.343-1.3,2.884,2.884,0,0,0-1.591.422,3.153,3.153,0,0,0-1.064,1.158v5.739a3.065,3.065,0,0,0,1.064,1.147,2.985,2.985,0,0,0,1.613.411,2.66,2.66,0,0,0,2.326-1.125,4.939,4.939,0,0,0,.79-2.9Z" transform="translate(-1890.436 -827.912)" fill="#174956"/>
          <path id="Trazado_612811" data-name="Trazado 612811" d="M2019.113,845.03q-.109-.537-.17-.949a6.855,6.855,0,0,1-.072-.828,5.042,5.042,0,0,1-1.574,1.432,4.029,4.029,0,0,1-2.09.576,3.881,3.881,0,0,1-2.825-.949,3.492,3.492,0,0,1-.971-2.617,3.066,3.066,0,0,1,1.377-2.661,6.432,6.432,0,0,1,3.736-.96h2.348V836.9a2.176,2.176,0,0,0-.636-1.651,2.5,2.5,0,0,0-1.8-.609,2.61,2.61,0,0,0-1.7.527,1.58,1.58,0,0,0-.648,1.262l-2.052.022-.022-.066a2.843,2.843,0,0,1,1.212-2.37,5.027,5.027,0,0,1,3.33-1.075,4.9,4.9,0,0,1,3.248,1.026,3.636,3.636,0,0,1,1.229,2.957v5.717a11.175,11.175,0,0,0,.065,1.229,6.318,6.318,0,0,0,.242,1.163Zm-3.588-1.58a3.847,3.847,0,0,0,2.118-.6,2.867,2.867,0,0,0,1.229-1.383v-1.931h-2.425a3.147,3.147,0,0,0-2.09.658,1.969,1.969,0,0,0-.785,1.547,1.628,1.628,0,0,0,.494,1.251A2.068,2.068,0,0,0,2015.525,843.45Z" transform="translate(-1934.69 -827.912)" fill="#174956"/>
          <path id="Trazado_612812" data-name="Trazado 612812" d="M2072.805,827.045h-2.161V809.928h2.161Z" transform="translate(-1980.987 -809.928)" fill="#174956"/>
          <path id="Trazado_612813" data-name="Trazado 612813" d="M2098.873,845.26a5.023,5.023,0,0,1-3.989-1.635,6.293,6.293,0,0,1-1.432-4.3v-.483a6.159,6.159,0,0,1,1.476-4.23,4.627,4.627,0,0,1,3.6-1.673,4.308,4.308,0,0,1,3.572,1.481,6.1,6.1,0,0,1,1.191,3.939V839.5H2095.7l-.033.055a4.908,4.908,0,0,0,.79,2.9,2.76,2.76,0,0,0,2.414,1.114,5.439,5.439,0,0,0,1.926-.313,4.3,4.3,0,0,0,1.421-.861l.845,1.4a5.182,5.182,0,0,1-1.679,1.037A6.686,6.686,0,0,1,2098.873,845.26Zm-.34-10.621a2.35,2.35,0,0,0-1.871.872,4.13,4.13,0,0,0-.905,2.233l.022.055h5.354v-.175a3.459,3.459,0,0,0-.636-2.14A2.3,2.3,0,0,0,2098.532,834.639Z" transform="translate(-1998.814 -827.912)" fill="#174956"/>
          <path id="Trazado_612814" data-name="Trazado 612814" d="M2155.177,841.837a1.44,1.44,0,0,0-.543-1.163,5.242,5.242,0,0,0-2.058-.79,8.631,8.631,0,0,1-3.22-1.262,2.547,2.547,0,0,1-1.125-2.172,3.13,3.13,0,0,1,1.234-2.48,5.447,5.447,0,0,1,6.468.066,3.144,3.144,0,0,1,1.2,2.557l-.022.066h-2.062a1.87,1.87,0,0,0-.675-1.393,2.414,2.414,0,0,0-1.706-.625,2.461,2.461,0,0,0-1.706.516,1.61,1.61,0,0,0-.565,1.229,1.3,1.3,0,0,0,.488,1.086,5.4,5.4,0,0,0,2.014.7,8.511,8.511,0,0,1,3.314,1.306,2.63,2.63,0,0,1,1.13,2.205,3.127,3.127,0,0,1-1.278,2.579,5.276,5.276,0,0,1-3.341,1,5.217,5.217,0,0,1-3.577-1.152,3.286,3.286,0,0,1-1.24-2.688l.021-.066h2.063a2,2,0,0,0,.856,1.684,3.309,3.309,0,0,0,1.876.532,2.956,2.956,0,0,0,1.8-.488A1.493,1.493,0,0,0,2155.177,841.837Z" transform="translate(-2041.369 -827.912)" fill="#174956"/>
          <path id="Trazado_612815" data-name="Trazado 612815" d="M2227.24,839.313a7.922,7.922,0,0,1,1.224-4.619,3.932,3.932,0,0,1,3.418-1.756,4.168,4.168,0,0,1,1.986.455,4,4,0,0,1,1.438,1.311l.263-1.547h1.723V845.1a4.53,4.53,0,0,1-1.328,3.505,5.453,5.453,0,0,1-3.83,1.224,8.045,8.045,0,0,1-1.849-.236,7.234,7.234,0,0,1-1.75-.642l.329-1.679a6.251,6.251,0,0,0,1.509.532,7.746,7.746,0,0,0,1.739.2,3.148,3.148,0,0,0,2.3-.719,2.977,2.977,0,0,0,.719-2.189v-1.35a3.826,3.826,0,0,1-1.393,1.13,4.344,4.344,0,0,1-1.876.384,4.058,4.058,0,0,1-3.4-1.574,6.564,6.564,0,0,1-1.224-4.142Zm2.162.23a5.044,5.044,0,0,0,.735,2.875,2.551,2.551,0,0,0,2.271,1.086,2.856,2.856,0,0,0,1.635-.444,3.369,3.369,0,0,0,1.086-1.256v-5.464a3.353,3.353,0,0,0-1.086-1.2,2.851,2.851,0,0,0-1.613-.444,2.462,2.462,0,0,0-2.288,1.283,6.63,6.63,0,0,0-.74,3.336Z" transform="translate(-2103.382 -827.912)" fill="#174956"/>
          <path id="Trazado_612816" data-name="Trazado 612816" d="M2293.1,835.067l-1.108-.066a2.476,2.476,0,0,0-1.443.406,2.6,2.6,0,0,0-.905,1.141v8.482h-2.162V833.157h1.931l.208,1.734a4.119,4.119,0,0,1,1.246-1.437,2.913,2.913,0,0,1,1.706-.516,2.668,2.668,0,0,1,.461.039,3.072,3.072,0,0,1,.363.082Z" transform="translate(-2150.464 -827.912)" fill="#174956"/>
          <path id="Trazado_612817" data-name="Trazado 612817" d="M2330.881,844.06a4.02,4.02,0,0,1-1.437,1.47,3.933,3.933,0,0,1-2.03.516,3.815,3.815,0,0,1-3.029-1.24,5.76,5.76,0,0,1-1.086-3.862v-7h2.161v7.022a4.422,4.422,0,0,0,.56,2.611,2.081,2.081,0,0,0,1.745.713,3.555,3.555,0,0,0,1.9-.466,2.92,2.92,0,0,0,1.136-1.322v-8.559h2.162v11.872h-1.942Z" transform="translate(-2178.461 -828.698)" fill="#174956"/>
          <path id="Trazado_612818" data-name="Trazado 612818" d="M2392.1,839.543a6.546,6.546,0,0,1-1.229,4.142,4.063,4.063,0,0,1-3.391,1.574,4.708,4.708,0,0,1-1.926-.368,3.678,3.678,0,0,1-1.41-1.1v5.8h-2.162V833.157h1.657l.34,1.536a3.922,3.922,0,0,1,1.448-1.306,4.325,4.325,0,0,1,2.019-.45,3.946,3.946,0,0,1,3.429,1.75,7.917,7.917,0,0,1,1.223,4.625Zm-2.161-.23a6.271,6.271,0,0,0-.8-3.319,2.578,2.578,0,0,0-2.343-1.3,2.884,2.884,0,0,0-1.591.422,3.158,3.158,0,0,0-1.065,1.158v5.739a3.07,3.07,0,0,0,1.065,1.147,2.985,2.985,0,0,0,1.613.411,2.661,2.661,0,0,0,2.326-1.125,4.939,4.939,0,0,0,.79-2.9Z" transform="translate(-2224.325 -827.912)" fill="#174956"/>
          <path id="Trazado_612819" data-name="Trazado 612819" d="M2438.146,838.984a6.535,6.535,0,0,1,1.427-4.34,5.286,5.286,0,0,1,7.774-.005,6.513,6.513,0,0,1,1.432,4.345v.242a6.5,6.5,0,0,1-1.427,4.345,5.309,5.309,0,0,1-7.773-.005,6.491,6.491,0,0,1-1.433-4.339Zm2.162.242a5.628,5.628,0,0,0,.8,3.116,2.873,2.873,0,0,0,4.712,0,5.6,5.6,0,0,0,.8-3.116v-.242a5.585,5.585,0,0,0-.806-3.105,2.645,2.645,0,0,0-2.365-1.24,2.607,2.607,0,0,0-2.342,1.24,5.641,5.641,0,0,0-.8,3.105Z" transform="translate(-2268.225 -827.912)" fill="#174956"/>
          <path id="Trazado_612820" data-name="Trazado 612820" d="M2504.492,841.837a1.441,1.441,0,0,0-.543-1.163,5.241,5.241,0,0,0-2.057-.79,8.631,8.631,0,0,1-3.221-1.262,2.548,2.548,0,0,1-1.125-2.172,3.13,3.13,0,0,1,1.235-2.48,5.447,5.447,0,0,1,6.468.066,3.146,3.146,0,0,1,1.2,2.557l-.022.066h-2.063a1.871,1.871,0,0,0-.675-1.393,2.414,2.414,0,0,0-1.707-.625,2.461,2.461,0,0,0-1.706.516,1.61,1.61,0,0,0-.565,1.229,1.3,1.3,0,0,0,.488,1.086,5.4,5.4,0,0,0,2.013.7,8.511,8.511,0,0,1,3.314,1.306,2.63,2.63,0,0,1,1.13,2.205,3.128,3.128,0,0,1-1.278,2.579,5.274,5.274,0,0,1-3.341,1,5.218,5.218,0,0,1-3.577-1.152,3.288,3.288,0,0,1-1.24-2.688l.022-.066h2.063a2,2,0,0,0,.856,1.684,3.308,3.308,0,0,0,1.876.532,2.956,2.956,0,0,0,1.8-.488A1.493,1.493,0,0,0,2504.492,841.837Z" transform="translate(-2314.393 -827.912)" fill="#174956"/>
          <path id="Trazado_612821" data-name="Trazado 612821" d="M1795.078,944.8a7.923,7.923,0,0,1,1.223-4.62,3.942,3.942,0,0,1,3.429-1.756,4.253,4.253,0,0,1,1.849.384,3.786,3.786,0,0,1,1.377,1.119V933.4h2.162v17.117h-1.657l-.329-1.5a3.85,3.85,0,0,1-1.437,1.295,4.3,4.3,0,0,1-1.986.439,4.074,4.074,0,0,1-3.4-1.575,6.544,6.544,0,0,1-1.229-4.142Zm2.161.23a5.037,5.037,0,0,0,.735,2.88,2.567,2.567,0,0,0,2.282,1.081,2.864,2.864,0,0,0,1.624-.439,3.279,3.279,0,0,0,1.075-1.229V941.78a3.326,3.326,0,0,0-1.08-1.169,2.857,2.857,0,0,0-1.6-.433,2.47,2.47,0,0,0-2.3,1.284,6.627,6.627,0,0,0-.741,3.336Z" transform="translate(-1765.606 -906.431)" fill="#174956"/>
          <path id="Trazado_612822" data-name="Trazado 612822" d="M1858.927,968.729a5.022,5.022,0,0,1-3.989-1.635,6.291,6.291,0,0,1-1.432-4.3v-.483a6.16,6.16,0,0,1,1.476-4.23,4.628,4.628,0,0,1,3.6-1.673,4.309,4.309,0,0,1,3.572,1.481,6.1,6.1,0,0,1,1.191,3.939v1.141h-7.593l-.033.055a4.9,4.9,0,0,0,.79,2.9,2.76,2.76,0,0,0,2.414,1.114,5.443,5.443,0,0,0,1.926-.312,4.3,4.3,0,0,0,1.421-.861l.845,1.4a5.192,5.192,0,0,1-1.679,1.037A6.691,6.691,0,0,1,1858.927,968.729Zm-.34-10.622a2.35,2.35,0,0,0-1.871.872,4.127,4.127,0,0,0-.905,2.233l.022.055h5.354v-.176a3.46,3.46,0,0,0-.636-2.14A2.3,2.3,0,0,0,1858.587,958.108Z" transform="translate(-1811.273 -924.415)" fill="#174956"/>
          <path id="Trazado_612823" data-name="Trazado 612823" d="M1941.091,968.5q-.11-.537-.17-.949a6.906,6.906,0,0,1-.071-.828,5.042,5.042,0,0,1-1.574,1.432,4.028,4.028,0,0,1-2.09.576,3.882,3.882,0,0,1-2.826-.949,3.491,3.491,0,0,1-.971-2.617,3.067,3.067,0,0,1,1.377-2.661,6.433,6.433,0,0,1,3.736-.96h2.348v-1.174a2.178,2.178,0,0,0-.636-1.651,2.5,2.5,0,0,0-1.8-.609,2.611,2.611,0,0,0-1.7.527,1.58,1.58,0,0,0-.647,1.262l-2.052.022-.022-.066a2.843,2.843,0,0,1,1.213-2.37,5.025,5.025,0,0,1,3.33-1.075,4.9,4.9,0,0,1,3.248,1.026,3.635,3.635,0,0,1,1.229,2.957v5.716a11.144,11.144,0,0,0,.066,1.229,6.308,6.308,0,0,0,.241,1.163Zm-3.588-1.58a3.848,3.848,0,0,0,2.118-.6,2.869,2.869,0,0,0,1.229-1.383V963h-2.425a3.143,3.143,0,0,0-2.09.658,1.968,1.968,0,0,0-.785,1.547,1.628,1.628,0,0,0,.494,1.251A2.068,2.068,0,0,0,1937.5,966.919Z" transform="translate(-1873.708 -924.415)" fill="#174956"/>
          <path id="Trazado_612824" data-name="Trazado 612824" d="M1997.435,958.536l-1.108-.066a2.477,2.477,0,0,0-1.443.406,2.611,2.611,0,0,0-.905,1.141V968.5h-2.161V956.626h1.931l.209,1.734a4.12,4.12,0,0,1,1.245-1.437,2.913,2.913,0,0,1,1.706-.516,2.684,2.684,0,0,1,.461.038,3.152,3.152,0,0,1,.362.082Z" transform="translate(-1919.376 -924.415)" fill="#174956"/>
          <path id="Trazado_612825" data-name="Trazado 612825" d="M2027.968,944.3v2.864h2.25v1.6h-2.25v7.209a1.613,1.613,0,0,0,.346,1.174,1.249,1.249,0,0,0,.916.34,2,2,0,0,0,.417-.049,3.048,3.048,0,0,0,.384-.1l.3,1.481a1.919,1.919,0,0,1-.713.324,3.61,3.61,0,0,1-.933.126,2.8,2.8,0,0,1-2.1-.8,3.455,3.455,0,0,1-.779-2.5v-7.209h-1.888v-1.6h1.888V944.3Z" transform="translate(-1944.467 -914.952)" fill="#174956"/>
          <path id="Trazado_612826" data-name="Trazado 612826" d="M2068.977,958.536l-1.108-.066a2.478,2.478,0,0,0-1.443.406,2.609,2.609,0,0,0-.905,1.141V968.5h-2.162V956.626h1.931l.208,1.734a4.123,4.123,0,0,1,1.245-1.437,2.913,2.913,0,0,1,1.706-.516,2.688,2.688,0,0,1,.461.038,3.146,3.146,0,0,1,.362.082Z" transform="translate(-1975.293 -924.415)" fill="#174956"/>
          <path id="Trazado_612827" data-name="Trazado 612827" d="M2096.064,945.215a6.535,6.535,0,0,1,1.427-4.34,4.782,4.782,0,0,1,3.873-1.706,4.831,4.831,0,0,1,3.9,1.7,6.514,6.514,0,0,1,1.432,4.345v.242a6.5,6.5,0,0,1-1.427,4.345,5.309,5.309,0,0,1-7.774-.005,6.493,6.493,0,0,1-1.432-4.339Zm2.162.242a5.631,5.631,0,0,0,.8,3.116,2.874,2.874,0,0,0,4.713,0,5.6,5.6,0,0,0,.8-3.116v-.242a5.584,5.584,0,0,0-.807-3.105,2.643,2.643,0,0,0-2.365-1.24,2.608,2.608,0,0,0-2.343,1.24,5.643,5.643,0,0,0-.8,3.105Zm4.2-11.1h2.524l.022.066-2.951,2.853H2100.4Z" transform="translate(-2000.855 -907.177)" fill="#174956"/>
          <path id="Trazado_612828" data-name="Trazado 612828" d="M2166.972,963.012a6.545,6.545,0,0,1-1.229,4.142,4.063,4.063,0,0,1-3.39,1.575,4.714,4.714,0,0,1-1.926-.368,3.68,3.68,0,0,1-1.41-1.1v5.8h-2.162V956.626h1.657l.34,1.536a3.921,3.921,0,0,1,1.448-1.306,4.322,4.322,0,0,1,2.019-.45,3.946,3.946,0,0,1,3.429,1.75,7.918,7.918,0,0,1,1.223,4.625Zm-2.162-.23a6.277,6.277,0,0,0-.8-3.319,2.579,2.579,0,0,0-2.343-1.3,2.885,2.885,0,0,0-1.591.422,3.159,3.159,0,0,0-1.064,1.157v5.739a3.068,3.068,0,0,0,1.064,1.147,2.988,2.988,0,0,0,1.613.411,2.662,2.662,0,0,0,2.327-1.125,4.941,4.941,0,0,0,.79-2.9Z" transform="translate(-2048.369 -924.415)" fill="#174956"/>
          <path id="Trazado_612829" data-name="Trazado 612829" d="M2213.023,962.453a6.535,6.535,0,0,1,1.427-4.339,5.286,5.286,0,0,1,7.774-.006,6.514,6.514,0,0,1,1.432,4.345v.242a6.506,6.506,0,0,1-1.426,4.345,5.309,5.309,0,0,1-7.774-.005,6.492,6.492,0,0,1-1.432-4.339Zm2.162.242a5.633,5.633,0,0,0,.8,3.116,2.874,2.874,0,0,0,4.713,0,5.6,5.6,0,0,0,.8-3.116v-.242a5.582,5.582,0,0,0-.807-3.1,2.643,2.643,0,0,0-2.365-1.24,2.608,2.608,0,0,0-2.343,1.24,5.646,5.646,0,0,0-.8,3.1Z" transform="translate(-2092.27 -924.415)" fill="#174956"/>
          <path id="Trazado_612830" data-name="Trazado 612830" d="M2271.553,944.8a7.923,7.923,0,0,1,1.223-4.62,3.942,3.942,0,0,1,3.429-1.756,4.252,4.252,0,0,1,1.849.384,3.794,3.794,0,0,1,1.377,1.119V933.4h2.161v17.117h-1.656l-.329-1.5a3.855,3.855,0,0,1-1.437,1.295,4.294,4.294,0,0,1-1.986.439,4.073,4.073,0,0,1-3.4-1.575,6.542,6.542,0,0,1-1.229-4.142Zm2.161.23a5.04,5.04,0,0,0,.735,2.88,2.568,2.568,0,0,0,2.282,1.081,2.864,2.864,0,0,0,1.624-.439,3.282,3.282,0,0,0,1.075-1.229V941.78a3.327,3.327,0,0,0-1.081-1.169,2.855,2.855,0,0,0-1.6-.433,2.471,2.471,0,0,0-2.3,1.284,6.626,6.626,0,0,0-.741,3.336Z" transform="translate(-2138.017 -906.431)" fill="#174956"/>
          <path id="Trazado_612831" data-name="Trazado 612831" d="M2329.981,962.453a6.535,6.535,0,0,1,1.427-4.339,5.286,5.286,0,0,1,7.774-.006,6.514,6.514,0,0,1,1.432,4.345v.242a6.505,6.505,0,0,1-1.427,4.345,5.309,5.309,0,0,1-7.774-.005,6.491,6.491,0,0,1-1.432-4.339Zm2.162.242a5.633,5.633,0,0,0,.8,3.116,2.874,2.874,0,0,0,4.713,0,5.6,5.6,0,0,0,.8-3.116v-.242a5.584,5.584,0,0,0-.806-3.1,2.644,2.644,0,0,0-2.365-1.24,2.608,2.608,0,0,0-2.343,1.24,5.645,5.645,0,0,0-.8,3.1Z" transform="translate(-2183.684 -924.415)" fill="#174956"/>
          <path id="Trazado_612832" data-name="Trazado 612832" d="M2396.326,965.306a1.441,1.441,0,0,0-.543-1.163,5.248,5.248,0,0,0-2.057-.79,8.629,8.629,0,0,1-3.221-1.262,2.549,2.549,0,0,1-1.125-2.173,3.131,3.131,0,0,1,1.235-2.48,5.447,5.447,0,0,1,6.468.066,3.145,3.145,0,0,1,1.2,2.557l-.022.066H2396.2a1.87,1.87,0,0,0-.675-1.393,2.414,2.414,0,0,0-1.707-.625,2.458,2.458,0,0,0-1.706.516,1.608,1.608,0,0,0-.565,1.229,1.3,1.3,0,0,0,.488,1.086,5.405,5.405,0,0,0,2.014.7,8.511,8.511,0,0,1,3.314,1.306,2.631,2.631,0,0,1,1.13,2.205,3.127,3.127,0,0,1-1.278,2.579,5.272,5.272,0,0,1-3.341,1,5.217,5.217,0,0,1-3.577-1.152,3.287,3.287,0,0,1-1.24-2.688l.022-.066h2.063a2,2,0,0,0,.856,1.684,3.31,3.31,0,0,0,1.876.532,2.955,2.955,0,0,0,1.805-.488A1.494,1.494,0,0,0,2396.326,965.306Z" transform="translate(-2229.851 -924.415)" fill="#174956"/>
          <path id="Trazado_612833" data-name="Trazado 612833" d="M1667.837,1091.968q-.11-.538-.17-.949a6.987,6.987,0,0,1-.071-.828,5.042,5.042,0,0,1-1.575,1.432,4.028,4.028,0,0,1-2.09.576,3.88,3.88,0,0,1-2.826-.949,3.49,3.49,0,0,1-.971-2.617,3.066,3.066,0,0,1,1.377-2.661,6.43,6.43,0,0,1,3.736-.96h2.348v-1.174a2.179,2.179,0,0,0-.636-1.651,2.5,2.5,0,0,0-1.8-.609,2.612,2.612,0,0,0-1.7.527,1.58,1.58,0,0,0-.647,1.262l-2.052.022-.022-.066a2.843,2.843,0,0,1,1.213-2.37,5.025,5.025,0,0,1,3.33-1.075,4.9,4.9,0,0,1,3.248,1.026,3.634,3.634,0,0,1,1.229,2.957v5.717a11.121,11.121,0,0,0,.066,1.229,6.325,6.325,0,0,0,.241,1.163Zm-3.588-1.58a3.847,3.847,0,0,0,2.118-.6,2.868,2.868,0,0,0,1.229-1.382v-1.931h-2.425a3.145,3.145,0,0,0-2.09.658,1.97,1.97,0,0,0-.785,1.547,1.628,1.628,0,0,0,.494,1.251A2.066,2.066,0,0,0,1664.249,1090.388Z" transform="translate(-1660.134 -1020.918)" fill="#174956"/>
          <path id="Trazado_612834" data-name="Trazado 612834" d="M1724.118,1088.775a1.442,1.442,0,0,0-.543-1.163,5.249,5.249,0,0,0-2.057-.79,8.631,8.631,0,0,1-3.221-1.262,2.548,2.548,0,0,1-1.125-2.173,3.131,3.131,0,0,1,1.234-2.48,5.447,5.447,0,0,1,6.468.066,3.146,3.146,0,0,1,1.2,2.557l-.022.066h-2.063a1.87,1.87,0,0,0-.675-1.394,2.412,2.412,0,0,0-1.706-.625,2.46,2.46,0,0,0-1.706.516,1.609,1.609,0,0,0-.565,1.229,1.3,1.3,0,0,0,.488,1.086,5.4,5.4,0,0,0,2.014.7,8.511,8.511,0,0,1,3.313,1.306,2.63,2.63,0,0,1,1.13,2.205A3.126,3.126,0,0,1,1725,1091.2a5.273,5.273,0,0,1-3.341,1,5.215,5.215,0,0,1-3.577-1.152,3.286,3.286,0,0,1-1.24-2.688l.022-.066h2.063a2,2,0,0,0,.856,1.684,3.309,3.309,0,0,0,1.876.532,2.955,2.955,0,0,0,1.8-.488A1.493,1.493,0,0,0,1724.118,1088.775Z" transform="translate(-1704.455 -1020.918)" fill="#174956"/>
          <path id="Trazado_612835" data-name="Trazado 612835" d="M1770.058,1085.922a6.536,6.536,0,0,1,1.426-4.34,5.286,5.286,0,0,1,7.774-.005,6.516,6.516,0,0,1,1.432,4.345v.241a6.5,6.5,0,0,1-1.427,4.345,5.31,5.31,0,0,1-7.774-.005,6.494,6.494,0,0,1-1.432-4.34Zm2.162.241a5.628,5.628,0,0,0,.8,3.116,2.873,2.873,0,0,0,4.713,0,5.6,5.6,0,0,0,.8-3.116v-.241a5.587,5.587,0,0,0-.806-3.105,2.644,2.644,0,0,0-2.365-1.24,2.607,2.607,0,0,0-2.343,1.24,5.642,5.642,0,0,0-.8,3.105Z" transform="translate(-1746.05 -1020.918)" fill="#174956"/>
          <path id="Trazado_612836" data-name="Trazado 612836" d="M1833.761,1090.509a2.543,2.543,0,0,0,1.745-.664,2.1,2.1,0,0,0,.746-1.63h1.953l.033.066a3.411,3.411,0,0,1-1.317,2.727,5.031,5.031,0,0,1-7.022-.51,6.564,6.564,0,0,1-1.36-4.235v-.461a6.537,6.537,0,0,1,1.366-4.219,4.659,4.659,0,0,1,3.857-1.706,4.481,4.481,0,0,1,3.253,1.229,3.9,3.9,0,0,1,1.223,3.018l-.022.066h-1.964a2.62,2.62,0,0,0-.708-1.849,2.33,2.33,0,0,0-1.783-.762,2.5,2.5,0,0,0-2.321,1.234,5.78,5.78,0,0,0-.73,2.99v.461a5.887,5.887,0,0,0,.719,3.017A2.493,2.493,0,0,0,1833.761,1090.509Z" transform="translate(-1791.758 -1020.918)" fill="#174956"/>
          <path id="Trazado_612837" data-name="Trazado 612837" d="M1887.672,1059.072h-2.161v-2.205h2.161Zm0,14.912h-2.161v-11.873h2.161Z" transform="translate(-1836.287 -1002.935)" fill="#174956"/>
          <path id="Trazado_612838" data-name="Trazado 612838" d="M1916.474,1091.968q-.11-.538-.17-.949a7.013,7.013,0,0,1-.071-.828,5.046,5.046,0,0,1-1.575,1.432,4.028,4.028,0,0,1-2.09.576,3.879,3.879,0,0,1-2.826-.949,3.49,3.49,0,0,1-.971-2.617,3.066,3.066,0,0,1,1.377-2.661,6.429,6.429,0,0,1,3.736-.96h2.348v-1.174a2.179,2.179,0,0,0-.636-1.651,2.5,2.5,0,0,0-1.8-.609,2.611,2.611,0,0,0-1.7.527,1.58,1.58,0,0,0-.647,1.262l-2.052.022-.022-.066a2.841,2.841,0,0,1,1.212-2.37,5.027,5.027,0,0,1,3.33-1.075,4.9,4.9,0,0,1,3.248,1.026,3.635,3.635,0,0,1,1.229,2.957v5.717a11.182,11.182,0,0,0,.066,1.229,6.316,6.316,0,0,0,.241,1.163Zm-3.588-1.58a3.848,3.848,0,0,0,2.118-.6,2.867,2.867,0,0,0,1.229-1.382v-1.931h-2.425a3.145,3.145,0,0,0-2.09.658,1.969,1.969,0,0,0-.785,1.547,1.627,1.627,0,0,0,.494,1.251A2.066,2.066,0,0,0,1912.886,1090.388Z" transform="translate(-1854.468 -1020.918)" fill="#174956"/>
          <path id="Trazado_612839" data-name="Trazado 612839" d="M1964.938,1068.267a7.921,7.921,0,0,1,1.224-4.619,3.942,3.942,0,0,1,3.429-1.756,4.253,4.253,0,0,1,1.849.384,3.8,3.8,0,0,1,1.377,1.119v-6.529h2.161v17.117h-1.657l-.329-1.5a3.853,3.853,0,0,1-1.437,1.295,4.3,4.3,0,0,1-1.986.439,4.074,4.074,0,0,1-3.4-1.575,6.544,6.544,0,0,1-1.229-4.142Zm2.162.23a5.04,5.04,0,0,0,.735,2.88,2.567,2.567,0,0,0,2.282,1.081,2.861,2.861,0,0,0,1.624-.439,3.277,3.277,0,0,0,1.076-1.229v-5.541a3.332,3.332,0,0,0-1.081-1.169,2.857,2.857,0,0,0-1.6-.433,2.47,2.47,0,0,0-2.3,1.284,6.624,6.624,0,0,0-.741,3.336Z" transform="translate(-1898.368 -1002.935)" fill="#174956"/>
          <path id="Trazado_612840" data-name="Trazado 612840" d="M2023.367,1085.922a6.535,6.535,0,0,1,1.427-4.34,5.286,5.286,0,0,1,7.774-.005,6.514,6.514,0,0,1,1.432,4.345v.241a6.505,6.505,0,0,1-1.427,4.345,5.31,5.31,0,0,1-7.774-.005,6.494,6.494,0,0,1-1.432-4.34Zm2.162.241a5.626,5.626,0,0,0,.8,3.116,2.873,2.873,0,0,0,4.713,0,5.6,5.6,0,0,0,.8-3.116v-.241a5.586,5.586,0,0,0-.806-3.105,2.644,2.644,0,0,0-2.365-1.24,2.607,2.607,0,0,0-2.342,1.24,5.64,5.64,0,0,0-.8,3.105Z" transform="translate(-1944.035 -1020.918)" fill="#174956"/>
          <path id="Trazado_612841" data-name="Trazado 612841" d="M2089.714,1088.775a1.441,1.441,0,0,0-.543-1.163,5.245,5.245,0,0,0-2.057-.79,8.634,8.634,0,0,1-3.221-1.262,2.549,2.549,0,0,1-1.124-2.173,3.13,3.13,0,0,1,1.234-2.48,5.448,5.448,0,0,1,6.469.066,3.143,3.143,0,0,1,1.2,2.557l-.022.066h-2.063a1.87,1.87,0,0,0-.675-1.394,2.412,2.412,0,0,0-1.706-.625,2.461,2.461,0,0,0-1.707.516,1.61,1.61,0,0,0-.565,1.229,1.3,1.3,0,0,0,.489,1.086,5.4,5.4,0,0,0,2.013.7,8.51,8.51,0,0,1,3.314,1.306,2.63,2.63,0,0,1,1.13,2.205,3.127,3.127,0,0,1-1.278,2.579,5.275,5.275,0,0,1-3.341,1,5.215,5.215,0,0,1-3.577-1.152,3.287,3.287,0,0,1-1.24-2.688l.022-.066h2.063a2,2,0,0,0,.856,1.684,3.31,3.31,0,0,0,1.876.532,2.956,2.956,0,0,0,1.805-.488A1.494,1.494,0,0,0,2089.714,1088.775Z" transform="translate(-1990.204 -1020.918)" fill="#174956"/>
          <path id="Trazado_612842" data-name="Trazado 612842" d="M2169.381,1091.968q-.11-.538-.17-.949a6.962,6.962,0,0,1-.072-.828,5.038,5.038,0,0,1-1.574,1.432,4.03,4.03,0,0,1-2.09.576,3.881,3.881,0,0,1-2.826-.949,3.491,3.491,0,0,1-.971-2.617,3.066,3.066,0,0,1,1.377-2.661,6.428,6.428,0,0,1,3.736-.96h2.348v-1.174a2.178,2.178,0,0,0-.636-1.651,2.5,2.5,0,0,0-1.8-.609,2.612,2.612,0,0,0-1.7.527,1.581,1.581,0,0,0-.647,1.262l-2.052.022-.022-.066a2.842,2.842,0,0,1,1.212-2.37,5.027,5.027,0,0,1,3.331-1.075,4.9,4.9,0,0,1,3.248,1.026,3.635,3.635,0,0,1,1.229,2.957v5.717a11.121,11.121,0,0,0,.066,1.229,6.275,6.275,0,0,0,.241,1.163Zm-3.588-1.58a3.848,3.848,0,0,0,2.118-.6,2.863,2.863,0,0,0,1.229-1.382v-1.931h-2.425a3.146,3.146,0,0,0-2.091.658,1.97,1.97,0,0,0-.784,1.547,1.629,1.629,0,0,0,.494,1.251A2.066,2.066,0,0,0,2165.792,1090.388Z" transform="translate(-2052.139 -1020.918)" fill="#174956"/>
          <path id="Trazado_612843" data-name="Trazado 612843" d="M2223.073,1073.984h-2.162v-17.117h2.162Z" transform="translate(-2098.435 -1002.935)" fill="#174956"/>
          <path id="Trazado_612844" data-name="Trazado 612844" d="M2274.514,1090.509a2.544,2.544,0,0,0,1.745-.664,2.1,2.1,0,0,0,.746-1.63h1.954l.033.066a3.41,3.41,0,0,1-1.317,2.727,5.031,5.031,0,0,1-7.022-.51,6.563,6.563,0,0,1-1.361-4.235v-.461a6.537,6.537,0,0,1,1.366-4.219,4.659,4.659,0,0,1,3.857-1.706,4.481,4.481,0,0,1,3.254,1.229,3.9,3.9,0,0,1,1.223,3.018l-.022.066H2277a2.621,2.621,0,0,0-.708-1.849,2.33,2.33,0,0,0-1.783-.762,2.5,2.5,0,0,0-2.32,1.234,5.775,5.775,0,0,0-.73,2.99v.461a5.885,5.885,0,0,0,.719,3.017A2.494,2.494,0,0,0,2274.514,1090.509Z" transform="translate(-2136.249 -1020.918)" fill="#174956"/>
          <path id="Trazado_612845" data-name="Trazado 612845" d="M2332.841,1091a4.027,4.027,0,0,1-1.438,1.47,3.934,3.934,0,0,1-2.03.516,3.814,3.814,0,0,1-3.029-1.24,5.759,5.759,0,0,1-1.086-3.862v-7h2.161v7.022a4.421,4.421,0,0,0,.56,2.612,2.081,2.081,0,0,0,1.745.713,3.556,3.556,0,0,0,1.9-.466,2.915,2.915,0,0,0,1.135-1.322v-8.559h2.162v11.873h-1.942Z" transform="translate(-2179.993 -1021.704)" fill="#174956"/>
          <path id="Trazado_612846" data-name="Trazado 612846" d="M2386.9,1073.984h-2.162v-17.117h2.162Z" transform="translate(-2226.485 -1002.935)" fill="#174956"/>
          <path id="Trazado_612847" data-name="Trazado 612847" d="M2409.138,1067.769v2.864h2.249v1.6h-2.249v7.209a1.615,1.615,0,0,0,.345,1.174,1.25,1.25,0,0,0,.916.34,2,2,0,0,0,.417-.049,3.093,3.093,0,0,0,.384-.1l.3,1.481a1.907,1.907,0,0,1-.713.324,3.592,3.592,0,0,1-.932.126,2.8,2.8,0,0,1-2.1-.8,3.455,3.455,0,0,1-.779-2.5v-7.209h-1.887v-1.6h1.887v-2.864Z" transform="translate(-2242.388 -1011.456)" fill="#174956"/>
          <path id="Trazado_612848" data-name="Trazado 612848" d="M2447.493,1059.072h-2.162v-2.205h2.162Zm0,14.912h-2.162v-11.873h2.162Z" transform="translate(-2273.841 -1002.935)" fill="#174956"/>
          <path id="Trazado_612849" data-name="Trazado 612849" d="M2470.6,1089.253l.187.834h.066l.208-.834,2.732-8.372H2476l-4.367,11.873H2470l-4.422-11.873h2.217Z" transform="translate(-2289.665 -1021.704)" fill="#174956"/>
          <path id="Trazado_612850" data-name="Trazado 612850" d="M2519.134,1085.922a6.537,6.537,0,0,1,1.426-4.34,5.286,5.286,0,0,1,7.774-.005,6.512,6.512,0,0,1,1.432,4.345v.241a6.5,6.5,0,0,1-1.427,4.345,5.31,5.31,0,0,1-7.774-.005,6.494,6.494,0,0,1-1.432-4.34Zm2.162.241a5.626,5.626,0,0,0,.8,3.116,2.873,2.873,0,0,0,4.712,0,5.6,5.6,0,0,0,.8-3.116v-.241a5.585,5.585,0,0,0-.807-3.105,2.643,2.643,0,0,0-2.365-1.24,2.607,2.607,0,0,0-2.342,1.24,5.64,5.64,0,0,0-.8,3.105Z" transform="translate(-2331.525 -1020.918)" fill="#174956"/>
        </g>
      </g>
    </g>
    <g id="Grupo_875540" data-name="Grupo 875540" transform="translate(475 1631)">
      <g transform="matrix(1, 0, 0, 1, -9, -426)" filter="url(#Elipse_180)">
        <circle id="Elipse_180-6" data-name="Elipse 180" cx="25" cy="25" r="25" transform="translate(9 428)" fill="#fda829"/>
      </g>
    </g>
    <g id="Grupo_875541" data-name="Grupo 875541" transform="translate(582 1631)">
      <g transform="matrix(1, 0, 0, 1, -116, -426)" filter="url(#Elipse_180-2)">
        <circle id="Elipse_180-7" data-name="Elipse 180" cx="25" cy="25" r="25" transform="translate(116 428)" fill="#fda829"/>
      </g>
    </g>
    <g id="Grupo_875542" data-name="Grupo 875542" transform="translate(689 1631)">
      <g transform="matrix(1, 0, 0, 1, -223, -426)" filter="url(#Elipse_180-3)">
        <circle id="Elipse_180-8" data-name="Elipse 180" cx="25" cy="25" r="25" transform="translate(223 428)" fill="#fda829"/>
      </g>
    </g>
    <g id="Grupo_875543" data-name="Grupo 875543" transform="translate(811 1631)">
      <g transform="matrix(1, 0, 0, 1, -345, -426)" filter="url(#Elipse_180-4)">
        <circle id="Elipse_180-9" data-name="Elipse 180" cx="25" cy="25" r="25" transform="translate(345 428)" fill="#fda829"/>
      </g>
    </g>
    <g id="Grupo_875544" data-name="Grupo 875544" transform="translate(916 1631)">
      <g transform="matrix(1, 0, 0, 1, -450, -426)" filter="url(#Elipse_180-5)">
        <circle id="Elipse_180-10" data-name="Elipse 180" cx="25" cy="25" r="25" transform="translate(450 428)" fill="#fda829"/>
      </g>
    </g>
  </g>
</svg>
