<svg xmlns="http://www.w3.org/2000/svg" width="362.503" height="196.465" viewBox="0 0 362.503 196.465">
  <g id="Grupo_876487" data-name="Grupo 876487" transform="translate(2255.503 -852.62)">
    <path id="Trazado_614383" data-name="Trazado 614383" d="M-1962.541,1016.941a84.154,84.154,0,0,0,36.9-13.209c3.813-2.5,7.748-5.881,8.039-10.429.567-8.855-11.517-11.883-20.389-11.786l-59.087.65c-21.266.234-43.986.059-61.685-11.732a56.643,56.643,0,0,0,16.87-8.868,9.608,9.608,0,0,0,3.573-4.193c1.959-5.711-5.882-9.51-11.861-10.355a461.789,461.789,0,0,0-179.293,10.008c-6.778,1.746-14.147,4.1-17.805,10.07,11.677,10.523,35.487,1.278,42.823,15.18-4.618,6.532-15.016,3.421-22.413,6.466-7.7,3.168-10.831,13.338-7.934,21.14s10.415,13.157,18.38,15.571,16.442,2.331,24.764,2.233q45.125-.536,90.252-.868c15.51-.115,31.606-.09,45.681,6.427l-10.592,11.334c1.067,3.063,5.058,3.674,8.3,3.769,47.719,1.394,96.827,2.574,141.588-14.025,9.249-3.429,19.033-8.4,22.714-17.555a6.529,6.529,0,0,0,.425-4.739c-.68-1.726-2.466-2.714-4.142-3.51a92.9,92.9,0,0,0-32.328-8.658" fill="#d2e1f1"/>
    <g id="Grupo_876485" data-name="Grupo 876485">
      <g id="Grupo_876484" data-name="Grupo 876484">
        <path id="Trazado_614384" data-name="Trazado 614384" d="M-2165.29,981.77c-14.515,2.39-29.1-2.7-42.934-7.705-7.887-2.856-16.065-5.9-21.894-11.928-10.452-10.819-9.5-30.473,1.941-40.235a39.348,39.348,0,0,1,12.535-6.812c28.879-10.238,64.092,2.151,80.2,28.216,2.867,4.638,5.228,9.937,4.687,15.364-1.094,10.968-12.981,17.271-23.662,19.994a113.2,113.2,0,0,1-28.289,3.506" fill="#4c571c"/>
        <path id="Trazado_614385" data-name="Trazado 614385" d="M-2226.61,927.664c10.836-1.327,21.761,1.11,32.283,4.018,17.781,4.914,36,11.762,48.1,25.684" fill="none" stroke="#74852b" stroke-miterlimit="10" stroke-width="0.5"/>
        <path id="Trazado_614386" data-name="Trazado 614386" d="M-2232.216,937.317l17.538,6.561c7.233,2.706,14.476,5.415,21.9,7.547,4.044,1.162,8.136,2.151,12.226,3.139l23.98,5.795" fill="none" stroke="#74852b" stroke-miterlimit="10" stroke-width="0.5"/>
        <path id="Trazado_614387" data-name="Trazado 614387" d="M-2230.047,951.61A34.638,34.638,0,0,0-2215.1,958.1" fill="none" stroke="#74852b" stroke-miterlimit="10" stroke-width="0.5"/>
        <path id="Trazado_614388" data-name="Trazado 614388" d="M-2206.6,960.523a6.9,6.9,0,0,0,3.389,1.6,297.678,297.678,0,0,0,40.681,7.651" fill="none" stroke="#74852b" stroke-miterlimit="10" stroke-width="0.5"/>
        <path id="Trazado_614389" data-name="Trazado 614389" d="M-2215.284,918.791c18.568-2.081,37.171,3.874,53.957,12.077a39.265,39.265,0,0,1,8.261,5c5.226,4.413,8.275,11.2,14.095,14.793" fill="none" stroke="#74852b" stroke-miterlimit="10" stroke-width="0.5"/>
      </g>
      <path id="Trazado_614390" data-name="Trazado 614390" d="M-2235.6,998.91a25.015,25.015,0,0,1-16.146-8.273c-2.686-3.051-4.586-7.686-2.354-11.083,1.344-2.045,3.822-3.022,6.209-3.56,13.989-3.16,27.793,4.534,41.067,9.962,13.782,5.636,28.813,9.024,43.591,7.2s29.262-9.378,37.252-21.944c3.029-4.763,5.142-10.2,9.1-14.222,6.4-6.5,16.232-7.995,25.341-8.409s18.657-.2,26.772-4.356c3.242-1.662,6.413-4.519,6.4-8.162-.015-4.542-4.789-7.471-9.108-8.877a51.07,51.07,0,0,0-27.72-1.052c-9.755,2.376-19.233,7.682-29.186,6.359" fill="none" stroke="#74852b" stroke-miterlimit="10" stroke-width="0.5"/>
      <path id="Trazado_614391" data-name="Trazado 614391" d="M-2142.27,961.9a22.534,22.534,0,0,1,21.81,3.892" fill="none" stroke="#74852b" stroke-miterlimit="10" stroke-width="0.5"/>
      <path id="Trazado_614392" data-name="Trazado 614392" d="M-2065,944.941c2.588-2.6,1.137-7.352-1.843-9.487s-6.841-2.451-10.475-2.937a83.029,83.029,0,0,1-30.736-10.547c-5.665-3.306-11.458-8.233-11.616-14.79a2.293,2.293,0,0,1,.6-1.886c.724-.59,1.8-.22,2.643.171l10.256,4.738c.385-2.128-1.712-3.776-3.413-5.112a27.117,27.117,0,0,1-9.991-17.334c-.22-1.556.1-3.668,1.66-3.877a3.215,3.215,0,0,1,2.092.76l9.144,6.091q-2.2-6.542-4.4-13.083c-.475-1.414-.93-3.05-.15-4.321,1-1.627,3.386-1.633,5.187-1.005,4.689,1.635,7.862,5.931,10.59,10.081a219.424,219.424,0,0,1,11.37,19.4c-3.775-15.735-7-33.192.772-47.384a3.6,3.6,0,0,1,1.339-1.57c1.938-1.019,3.742,1.59,4.307,3.7a61.207,61.207,0,0,1,.922,27.486,20.123,20.123,0,0,1,3.05-9.776c.9-1.429,2.448-2.9,4.045-2.35a3.689,3.689,0,0,1,1.967,2.392c2.227,5.982.112,12.625-2.157,18.592,4.767-5.542,10.331-11.5,17.623-12.009a4.5,4.5,0,0,1,3.762,1.1c1.2,1.37.693,3.479.091,5.2a158.494,158.494,0,0,1-10.608,23.778,10.07,10.07,0,0,1,4.038-2.83c1.6-.458,3.627.131,4.205,1.689.508,1.369-.24,2.856-.98,4.115q-3.653,6.208-7.779,12.123c-1.734,2.485-3.562,5.817-1.828,8.3" fill="#74852b"/>
      <path id="Trazado_614393" data-name="Trazado 614393" d="M-2065.123,937.2c2.761-.4,5.114,2.7,4.715,5.456s-2.756,4.887-5.329,5.966-5.4,1.337-8.136,1.879a41.81,41.81,0,0,0-15.645,6.719c-3.891,2.7-7.676,7.4-5.761,11.737a11.7,11.7,0,0,0,2.913,3.587l8.138,7.667a5.036,5.036,0,0,0,2.381,1.51,3.829,3.829,0,0,0,2.91-.924c4.726-3.61,4.013-11.257,8-15.67,2.462-2.724,6.28-3.724,9.911-4.271a3.006,3.006,0,0,1,2.275.277,2.623,2.623,0,0,1,.84,1.681c.851,4.644-1.986,9.121-2.6,13.8-.974,7.49,4.742,15.225,12.188,16.493q.456-3.7.911-7.411c.3-2.449,1.711-5.7,4.082-5.015a4.51,4.51,0,0,1,2.125,1.875,54.982,54.982,0,0,0,21.1,17.021c1.231.563,2.74,1.062,3.867.311a3.525,3.525,0,0,0,1.256-2.757c.587-7.6-6.765-13.328-9.211-20.549a3.668,3.668,0,0,1-.027-3.017c.95-1.591,3.451-1.136,4.888.033,2.068,1.683,3.173,4.237,4.6,6.491s3.554,4.432,6.22,4.487c3.471.072,6.046-3.766,5.745-7.224s-2.657-6.394-5.256-8.7a35.11,35.11,0,0,0-20.644-8.671c-3.077-.217-6.286-.046-9.109-1.29-1.4-.618-2.814-2.092-2.194-3.494a3.223,3.223,0,0,1,1.37-1.317,22.04,22.04,0,0,1,13.13-3.158c2.806.219,5.561.979,8.375,1.027s5.863-.778,7.528-3.047c2.653-3.612.3-9.151-3.64-11.292s-8.724-1.789-13.152-1.093a104.989,104.989,0,0,0-26.331,7.777,7.31,7.31,0,0,1-4.083.955c-1.4-.24-2.654-1.774-2.043-3.055" fill="#74852b"/>
      <path id="Trazado_614394" data-name="Trazado 614394" d="M-2060.357,937.054s15.892-4.37,18.276-12.317-9.536-6.754-5.96-.4,16.289,5.562,18.276,0,1.986-28.208-8.343-20.66,5.562,11.125,13.905,4.371,21.852-4.371,20.66,1.986" fill="none" stroke="#74852b" stroke-miterlimit="10" stroke-width="1.293"/>
      <path id="Trazado_614395" data-name="Trazado 614395" d="M-2063.125,939.737a36.331,36.331,0,0,0,18.692-21.546c2.37-7.511,2.207-15.555,3.36-23.346s4.074-15.963,10.651-20.295" fill="none" stroke="#74852b" stroke-miterlimit="10" stroke-width="0.25"/>
      <path id="Trazado_614396" data-name="Trazado 614396" d="M-2037.671,884.637a21.087,21.087,0,0,0,1.6-9.041,56.169,56.169,0,0,1-.4-6.771c.171-2.258,1.144-4.634,3.146-5.691a2.365,2.365,0,0,1,2.452-.054c1.587,1.169-.066,4.068,1.23,5.553a17.529,17.529,0,0,1,3.446-4.192,3.241,3.241,0,0,1,1.936-.995c1.393-.045,2.33,1.623,2.083,2.995a7.114,7.114,0,0,1-2.24,3.456,28.25,28.25,0,0,1,5.693-.319,8.61,8.61,0,0,1-3.977,3.389,8.819,8.819,0,0,1,4.677,3.941,2.218,2.218,0,0,1,.373,1.374,1.732,1.732,0,0,1-1.741,1.289,5.063,5.063,0,0,1-2.231-.689c.995-.028,1.243,1.583.487,2.23a3.7,3.7,0,0,1-2.859.457l-6.22-.708a8.359,8.359,0,0,0-3.457.091,2.852,2.852,0,0,0-2.122,2.474" fill="#e6b22e"/>
      <path id="Trazado_614397" data-name="Trazado 614397" d="M-2112.405,937.857c-4.948-4.723-12.664-4.542-19.062-6.961a3.692,3.692,0,0,1-2.07-1.464,2.686,2.686,0,0,1,1.384-3.423,6.723,6.723,0,0,1,4.036-.336,31.919,31.919,0,0,1,6.32,1.589q-.951-2.546-1.9-5.091c-.374-1-.452-2.55.6-2.7a1.83,1.83,0,0,1,1.431.751q2.409,2.446,4.817,4.9.051-4.557.1-9.114c.006-.5.109-1.126.592-1.246.431-.107.809.3,1.052.668a11.476,11.476,0,0,1,1.775,4.863,1.35,1.35,0,0,0,.4,1c.649.456,1.348-.495,1.623-1.24a16.194,16.194,0,0,1,2.964-5.005,1.776,1.776,0,0,1,.924-.665c.786-.154,1.389.7,1.614,1.468.739,2.527-.115,5.236-1.208,7.632s-2.449,4.743-2.777,7.355c-.128,1.012-.425,2.381-1.445,2.366" fill="#e6b22e"/>
      <path id="Trazado_614398" data-name="Trazado 614398" d="M-2113.716,934.017a6.467,6.467,0,0,1,1.868,4.711c-.088,2.871-2.065,5.835-.8,8.414.94,1.92,3.258,2.643,5.328,3.174" fill="none" stroke="#74852b" stroke-miterlimit="10" stroke-width="0.25"/>
      <path id="Trazado_614399" data-name="Trazado 614399" d="M-2138.41,984.514a15.817,15.817,0,0,1,12.075-3.53,15.821,15.821,0,0,1,10.758,6.523" fill="none" stroke="#74852b" stroke-miterlimit="10" stroke-width="0.25"/>
      <path id="Trazado_614400" data-name="Trazado 614400" d="M-2117.149,986.66a13.413,13.413,0,0,0-11.818,6.635c-.591,1.04-.78,2.758.375,3.067.7.188,1.365-.353,1.916-.824a19.129,19.129,0,0,1,7.3-3.879,32.067,32.067,0,0,0-1.818,6.519c-.151.9.156,2.229,1.046,2.048a1.425,1.425,0,0,0,.739-.555,29.729,29.729,0,0,0,3.089-4.443,4.3,4.3,0,0,1,.769,3.046q-.025,5.049-.051,10.1c0,.665.09,1.485.707,1.735.928.374,1.6-.93,1.727-1.922a49.509,49.509,0,0,0,.241-10.883c-.138-1.569.01-3.678,1.55-4.008,1.274-.273,2.28.988,3.189,1.923a8.687,8.687,0,0,0,4.278,2.4,1.189,1.189,0,0,0,.859-.037c.575-.337.288-1.218-.082-1.771a27.465,27.465,0,0,0-5.679-6.184q4.91-.011,9.809-.411c.573-.046,1.26-.179,1.465-.716.3-.795-.726-1.409-1.544-1.643-5.513-1.579-11.831-3.055-16.657.042" fill="#74852b"/>
      <path id="Trazado_614401" data-name="Trazado 614401" d="M-2232.338,994.451s16.245,2.787,21.775-3.4-5.768-10.163-5.228-2.889,6.788,11.4,16.549,7.756,13.769-24.7,1.213-22.248.315,12.433,10.736,9.858,21.641,5.316,17.865,10.566" fill="none" stroke="#74852b" stroke-miterlimit="10" stroke-width="1.293"/>
      <path id="Trazado_614402" data-name="Trazado 614402" d="M-2106.632,879.365c5.954,4.018,9.337,10.82,12.068,17.463s5.191,13.632,10.058,18.914c3.615,3.924,8.319,6.633,12.658,9.736s8.529,6.879,10.312,11.907" fill="none" stroke="#4c571c" stroke-miterlimit="10" stroke-width="0.25"/>
      <path id="Trazado_614403" data-name="Trazado 614403" d="M-2103.084,917.927a139.166,139.166,0,0,0,30.277,8.291,69.15,69.15,0,0,0,14.307-31.762" fill="none" stroke="#4c571c" stroke-miterlimit="10" stroke-width="0.25"/>
      <path id="Trazado_614404" data-name="Trazado 614404" d="M-2081.936,917.928a39.685,39.685,0,0,0,5.235-12.6c1.7-7.565,1.134-15.48-.342-23.091" fill="none" stroke="#4c571c" stroke-miterlimit="10" stroke-width="0.25"/>
      <path id="Trazado_614405" data-name="Trazado 614405" d="M-2088.915,907.4c-3.12-.3-5.934-2-8.367-3.975s-4.613-4.263-7.185-6.053" fill="none" stroke="#4c571c" stroke-miterlimit="10" stroke-width="0.25"/>
      <path id="Trazado_614406" data-name="Trazado 614406" d="M-2058.8,947.133a24.767,24.767,0,0,1,13.51,12.3c1.35,2.8,2.157,5.823,3.411,8.663,4.15,9.4,12.749,15.942,21,22.063" fill="none" stroke="#4c571c" stroke-miterlimit="10" stroke-width="0.25"/>
      <path id="Trazado_614407" data-name="Trazado 614407" d="M-2051.727,950.906a22.606,22.606,0,0,0-17.3,6.384" fill="none" stroke="#4c571c" stroke-miterlimit="10" stroke-width="0.25"/>
      <path id="Trazado_614408" data-name="Trazado 614408" d="M-2049.193,950.631a17.05,17.05,0,0,1,11.486-6.087" fill="none" stroke="#4c571c" stroke-miterlimit="10" stroke-width="0.25"/>
      <path id="Trazado_614409" data-name="Trazado 614409" d="M-2044.593,961.038a6.381,6.381,0,0,0-4.256,3.331,13,13,0,0,0-1.353,5.377,55.061,55.061,0,0,0,.321,8.723" fill="none" stroke="#4c571c" stroke-miterlimit="10" stroke-width="0.25"/>
      <path id="Trazado_614410" data-name="Trazado 614410" d="M-2041.649,965.177c2.785,1.427,6.107.983,9.23,1.189a21.509,21.509,0,0,1,12.45,5.068" fill="none" stroke="#4c571c" stroke-miterlimit="10" stroke-width="0.25"/>
    </g>
    <path id="Trazado_614411" data-name="Trazado 614411" d="M-2008.912,1010.283c-1.368-1.834-.213-4.655,1.75-5.831s4.39-1.163,6.677-1.1,4.7.13,6.708-.972c3.013-1.655,4.135-5.317,5.506-8.469s4.013-6.494,7.425-6.079c2.329.283,4.043,2.242,5.521,4.064a15.414,15.414,0,0,1,19.84-4.454c2.833-2.421,6.26-4.817,9.948-4.278a9.508,9.508,0,0,1,6.558,5.034,28.119,28.119,0,0,1,2.572,8.134q1.027,4.949,2.054,9.9a4.79,4.79,0,0,1,.094,2.318c-.139.471-.421.889-.574,1.356-.569,1.731.838,3.589,2.531,4.262s3.583.514,5.405.52a28.482,28.482,0,0,1,6.642.808,3.478,3.478,0,0,1,1.544.678,2.446,2.446,0,0,1-.017,3.265,5.507,5.507,0,0,1-3.158,1.606c-5.91,1.273-11.969-.874-18.007-1.18-10.106-.512-20.286,4.144-30.138,1.837-2.2-.515-4.315-1.369-6.537-1.775-4.249-.776-8.6.123-12.863.806a128.606,128.606,0,0,1-20.673,1.616c-5.477-.015-11.122-.425-16.031-2.852a6.776,6.776,0,0,1-3.01-2.466,2.939,2.939,0,0,1,.373-3.619,4.437,4.437,0,0,1,1.811-.776l11.772-3.065" fill="#4f3715"/>
    <g id="Grupo_876486" data-name="Grupo 876486">
      <path id="Trazado_614412" data-name="Trazado 614412" d="M-2085.523,1026.424a10.932,10.932,0,0,1-11.652,3.608,21.366,21.366,0,0,1-6.24-3.727l-7.167-5.478c-1.009-.771-2.112-1.72-2.138-2.99-.036-1.822,2.074-2.83,3.845-3.261,8.378-2.039,17.136-1.56,25.744-1.068,1.6.092,3.432.31,4.324,1.64,1.122,1.671.016,3.916-1.24,5.489" fill="#80765f"/>
      <path id="Trazado_614413" data-name="Trazado 614413" d="M-2092.318,1021q10.658,3.857,20.981,8.56" fill="none" stroke="#80765f" stroke-miterlimit="10" stroke-width="0.5"/>
      <path id="Trazado_614414" data-name="Trazado 614414" d="M-2071.084,1034.5q.321.038.64.085c4.777.708,9.182,2.994,13.508,5.173a6.855,6.855,0,0,0,4.256,1.068c2.405-.472,3.53-3.193,4.254-5.534a4.915,4.915,0,0,0,.165-3.618,4.9,4.9,0,0,0-2.575-1.952,52.5,52.5,0,0,0-9.6-3.585,11.682,11.682,0,0,1-4.059-1.358c-1.016-.692-1.756-1.77-2.863-2.3-1.912-.921-4.171.076-5.966,1.209a12.735,12.735,0,0,0-4.736,4.577c-1.027,1.97-1.769,6.142.451,6.238.6.026,2.6-.156,2.6-.884" fill="#d44332"/>
      <path id="Trazado_614415" data-name="Trazado 614415" d="M-2066.838,1024.093a6.793,6.793,0,0,0-5,6.058" fill="none" stroke="#9c3125" stroke-miterlimit="10" stroke-width="0.25"/>
      <path id="Trazado_614416" data-name="Trazado 614416" d="M-2059.722,1027.725a3.036,3.036,0,0,0-2.143,1.708,8.962,8.962,0,0,0-.733,2.738" fill="none" stroke="#9c3125" stroke-miterlimit="10" stroke-width="0.25"/>
      <path id="Trazado_614417" data-name="Trazado 614417" d="M-2055.558,1028.861a5.112,5.112,0,0,0-2.355,4.206" fill="none" stroke="#9c3125" stroke-miterlimit="10" stroke-width="0.25"/>
      <path id="Trazado_614418" data-name="Trazado 614418" d="M-2091.2,1016.181a13.572,13.572,0,0,1,5.561.584,2.366,2.366,0,0,1,1.329.832c.585.9-.121,2.062-.8,2.9" fill="none" stroke="#968b70" stroke-miterlimit="10" stroke-width="0.25"/>
    </g>
  </g>
</svg>
