<svg xmlns="http://www.w3.org/2000/svg" width="350.692" height="613.603" viewBox="0 0 350.692 613.603">
  <g id="Grupo_875321" data-name="Grupo 875321" transform="translate(-937.305 -4450.016)">
    <g id="Grupo_875320" data-name="Grupo 875320" transform="translate(937.305 4450.016)">
      <path id="Trazado_603412" data-name="Trazado 603412" d="M951.233,1015.277c35.83,85,3.314,182.819-78.068,227.134-1.6.942-6.33,3.248-8.106,4.111-1.48.8-3.927,1.845-5.52,2.5l-5.592,2.358c-2.668,1.118-5.842,2.038-8.568,3.08-3.3,1.174-8.281,2.486-11.638,3.489-1.765.427-7.027,1.6-8.89,2.045-31.923,6.424-65.725,4.121-96.261-7.361-38.686-14.17-71.764-42.831-91.767-78.827-.88-1.823-3.448-6.444-4.275-8.267-.625-1.389-1.968-4.246-2.6-5.64-1.059-2.085-2.631-6.466-3.555-8.609-1.082-2.7-2.109-6.051-3.1-8.788-.772-2.24-1.917-6.693-2.627-8.945-.373-1.931-1.8-7.144-2.114-9.082-.248-1.5-.847-4.615-1.1-6.119-.792-4.719-1.546-10.648-1.854-15.421-5.014-57.823,21.573-117.079,68.639-151.109a4.886,4.886,0,0,1,6.123,7.6,183.712,183.712,0,0,0-30.794,34.255c-1.147,1.678-3.619,5.6-4.708,7.2-.8,1.448-3.439,5.9-4.3,7.435-2.929,5.46-5.546,11.078-8.016,16.755-1.125,3.079-2.46,6.262-3.52,9.349-.644,1.923-1.969,6.328-2.578,8.159a168.134,168.134,0,0,0-6.389,42.143c-.158,3.185-.1,8.155.026,11.4-.024,1.535.255,4.122.349,5.686,5.614,82.811,75.1,150.362,158.3,153.28,103.961,4.592,186.952-88.987,168.523-191.785a155.2,155.2,0,0,0-14.867-43.9,4.886,4.886,0,1,1,8.85-4.129Z" transform="translate(-615 -950.884)" fill="#81ad20"/>
    </g>
    <g id="Grupo_875316" data-name="Grupo 875316" transform="translate(980.837 4465.794)">
      <g id="Grupo_875308" data-name="Grupo 875308" transform="translate(0)">
        <path id="Trazado_612571" data-name="Trazado 612571" d="M482.821,1190.559H612.588c10.752,71.188-38.978,129.768-110.166,129.768-22.778,0-46.064-6-67.51-17.385Z" transform="translate(-351.591 -1060.792)" fill="#e1e1e1"/>
        <path id="Trazado_612572" data-name="Trazado 612572" d="M479.073,1198.335l68.4-99.407a161.717,161.717,0,0,1,40.928,44.565,146.524,146.524,0,0,1,20.442,54.842Z" transform="translate(-347.843 -1068.568)" fill="#ececec"/>
        <path id="Trazado_612573" data-name="Trazado 612573" d="M480.606,1200.71l-19.6-129.767a139.982,139.982,0,0,1,45.566,7.826A156.958,156.958,0,0,1,549,1101.3Z" transform="translate(-349.376 -1070.943)" fill="#e7e7e7"/>
        <path id="Trazado_612574" data-name="Trazado 612574" d="M489.339,1200.71,441.43,1313.093c-43.6-23.152-74.865-66.078-81.859-112.383-10.753-71.188,38.978-129.767,110.166-129.767Z" transform="translate(-358.109 -1070.943)" fill="#f0f0f0"/>
      </g>
      <g id="Grupo_875315" data-name="Grupo 875315" transform="translate(2.642 51.829)">
        <path id="Trazado_612575" data-name="Trazado 612575" d="M532.17,1197.906c4.313,8.1,8.02,16.1,11.51,24.43a226.854,226.854,0,0,1,9.006,25.757c.627,2.221,1.171,4.51,1.691,6.812a24.637,24.637,0,0,1,.711,4.856,25.282,25.282,0,0,1-.272,4.858,46.757,46.757,0,0,1-5.326,14.828,99.856,99.856,0,0,1-16.739,22.29,5.066,5.066,0,0,1-8.13-5.858l.127-.242a177.269,177.269,0,0,0,10.208-22.652c1.237-3.677,2.217-7.439,2.212-10.207a9.737,9.737,0,0,0-.142-1.693,1.728,1.728,0,0,0-.152-.528l-.331-1.053c-.6-1.929-1.211-3.858-1.927-5.8-2.711-7.775-6.064-15.582-9.547-23.327-3.469-7.722-7.2-15.572-10.893-23.037l-.076-.152a10.158,10.158,0,0,1,18.071-9.278Z" transform="translate(-347.602 -1112.454)" fill="#148d80"/>
        <path id="Trazado_612576" data-name="Trazado 612576" d="M526.178,1286.882l-8.545,2.691,10.058,11.776a19.6,19.6,0,0,0,5.281-8.363,4.165,4.165,0,0,0-1.624-4.469l-1.426-1.031A4.224,4.224,0,0,0,526.178,1286.882Z" transform="translate(-347.213 -1104.462)" fill="#903c38"/>
        <path id="Trazado_612577" data-name="Trazado 612577" d="M506.781,1296.608l10.778,8.551,11.053-4.035-10.058-11.776Z" transform="translate(-348.134 -1104.236)" fill="#903c38"/>
        <path id="Trazado_612578" data-name="Trazado 612578" d="M473.057,1142.45c-.216,1.059-.951,1.8-1.644,1.663s-1.079-1.113-.865-2.173.951-1.8,1.644-1.663S473.272,1141.391,473.057,1142.45Z" transform="translate(-351.214 -1116.889)" fill="#1a2e35"/>
        <path id="Trazado_612579" data-name="Trazado 612579" d="M472.609,1143.96s-3.652,5.622-6.9,8.032c1.519,2.13,4.868,1.978,4.868,1.978Z" transform="translate(-351.62 -1116.575)" fill="#740606"/>
        <path id="Trazado_612580" data-name="Trazado 612580" d="M477.96,1137.834a.635.635,0,0,0,.467-1.065,6.3,6.3,0,0,0-5.4-2.1.635.635,0,0,0,.21,1.252h0a5.04,5.04,0,0,1,4.259,1.711A.63.63,0,0,0,477.96,1137.834Z" transform="translate(-351.043 -1117.368)" fill="#1a2e35"/>
        <path id="Trazado_612581" data-name="Trazado 612581" d="M502.278,1160.052c-1.922,9.805-3.082,23.39,3.778,29.933,0,0-2.681,9.946-20.9,9.946-20.034,0-9.638-8.729-9.638-8.729,8.326-2.585,8.255-12.07,6.35-19.688Z" transform="translate(-351.016 -1115.21)" fill="#903c38"/>
        <path id="Trazado_612582" data-name="Trazado 612582" d="M472.069,1188.2s2.92-6.921,5.9-8.116,21.986-4.318,26.362-1.562,7.333,11.61,7.333,11.61Z" transform="translate(-351.08 -1113.736)" fill="#148d80"/>
        <path id="Trazado_612583" data-name="Trazado 612583" d="M490.9,1610.244c-1.72,0-3.382-.237-3.938-1.009a1.2,1.2,0,0,1,.027-1.388A1.581,1.581,0,0,1,488,1607.1c2.23-.606,6.914,2.063,7.113,2.177a.317.317,0,0,1-.1.586A23.425,23.425,0,0,1,490.9,1610.244Zm-2.125-2.6a2.354,2.354,0,0,0-.614.073.963.963,0,0,0-.622.445c-.225.394-.142.589-.061.7.623.866,4.011.886,6.5.534C492.741,1608.76,490.344,1607.644,488.778,1607.644Z" transform="translate(-349.833 -1077.277)" fill="#007cff"/>
        <path id="Trazado_612584" data-name="Trazado 612584" d="M494.68,1610.125a.3.3,0,0,1-.129-.028c-1.619-.726-4.822-3.625-4.577-5.14.057-.356.309-.8,1.181-.887a2.315,2.315,0,0,1,1.761.544c1.7,1.4,2.066,5.011,2.081,5.164a.314.314,0,0,1-.131.288A.323.323,0,0,1,494.68,1610.125Zm-3.27-5.433c-.062,0-.127,0-.191.01-.571.057-.608.282-.618.357-.147.909,2.03,3.187,3.68,4.179-.171-1.055-.649-3.214-1.768-4.133A1.69,1.69,0,0,0,491.41,1604.692Z" transform="translate(-349.561 -1077.528)" fill="#007cff"/>
        <path id="Trazado_612585" data-name="Trazado 612585" d="M509.049,1611.785h-13.4l-1.335-31.038h13.4Z" transform="translate(-349.192 -1079.506)" fill="#903c38"/>
        <path id="Trazado_612586" data-name="Trazado 612586" d="M497.7,1607.927h14.637a1.17,1.17,0,0,1,1.141.916l2.647,11.913a1.949,1.949,0,0,1-1.928,2.384c-5.28-.089-12.909-.4-19.545-.4-7.76,0-8.7.424-17.8.424-5.5,0-7.03-5.563-4.727-6.067,10.485-2.293,13.284-2.54,22.344-8.127A6.21,6.21,0,0,1,497.7,1607.927Z" transform="translate(-351.162 -1077.199)" fill="#1a2e35"/>
        <path id="Trazado_612587" data-name="Trazado 612587" d="M526.9,1187.713c12.562,2.879,20.85,36.779,20.85,36.779l-20.974,15.755s-11.441-7.089-15.561-23.13C506.9,1200.311,514.058,1184.769,526.9,1187.713Z" transform="translate(-347.864 -1112.893)" fill="#1a2e35"/>
        <path id="Trazado_612588" data-name="Trazado 612588" d="M516.09,1209.423c6.823,6.75,11.232,17.407,11.761,28.1l-1.113.857s-11.451-7.1-15.574-23.136c-.255-1-.474-2.007-.656-2.992Z" transform="translate(-347.817 -1111.02)" opacity="0.2"/>
        <g id="Grupo_875311" data-name="Grupo 875311" transform="translate(122.44 125.257)">
          <g id="Grupo_875309" data-name="Grupo 875309" transform="translate(0 0)">
            <rect id="Rect치ngulo_293234" data-name="Rect치ngulo 293234" width="109.579" height="81.494" transform="translate(0 40.666) rotate(-21.784)" fill="#e26c1e"/>
            <rect id="Rect치ngulo_293235" data-name="Rect치ngulo 293235" width="107.968" height="81.494" transform="translate(0 40.665) rotate(-21.784)" fill="#fff" opacity="0.5"/>
          </g>
          <g id="Grupo_875310" data-name="Grupo 875310" transform="translate(32.528 20.121)">
            <path id="Trazado_612589" data-name="Trazado 612589" d="M559.459,1256.618a2.84,2.84,0,1,1,3.691,1.583A2.841,2.841,0,0,1,559.459,1256.618Z" transform="translate(-498.648 -1252.723)" fill="#fff"/>
            <path id="Trazado_612590" data-name="Trazado 612590" d="M557.29,1293.114a2.84,2.84,0,1,1,3.691,1.583A2.839,2.839,0,0,1,557.29,1293.114Z" transform="translate(-498.832 -1249.625)" fill="#fff"/>
            <path id="Trazado_612591" data-name="Trazado 612591" d="M524.3,1294.421a2.84,2.84,0,1,1,3.692,1.583A2.84,2.84,0,0,1,524.3,1294.421Z" transform="translate(-501.632 -1249.514)" fill="#fff"/>
            <path id="Trazado_612592" data-name="Trazado 612592" d="M503.593,1326.45a2.84,2.84,0,1,1,3.691,1.583A2.839,2.839,0,0,1,503.593,1326.45Z" transform="translate(-503.389 -1246.796)" fill="#fff"/>
            <path id="Trazado_612593" data-name="Trazado 612593" d="M506.089,1332.235a1.053,1.053,0,0,1-.883-1.624l22.467-34.748a1.051,1.051,0,0,1,.842-.479L563.351,1294l2.3-38.642a1.069,1.069,0,0,1,1.113-.988,1.053,1.053,0,0,1,.988,1.114L565.4,1295.08a1.051,1.051,0,0,1-1.009.987l-35.243,1.4-22.17,34.291A1.05,1.05,0,0,1,506.089,1332.235Z" transform="translate(-503.249 -1252.583)" fill="#fff"/>
          </g>
        </g>
        <path id="Trazado_612594" data-name="Trazado 612594" d="M452.585,1201.4c-2.739,14.48-4.453,44.215,3.5,103.1h71.687c-1.293-10.213-6.42-64.686,4.193-116.536a186.933,186.933,0,0,0-24-3.03c-9.16-.442-22.421-.733-30.473,0-3.362.306-6.661.792-9.6,1.312A18.97,18.97,0,0,0,452.585,1201.4Z" transform="translate(-352.927 -1113.136)" fill="#1a2e35"/>
        <path id="Trazado_612595" data-name="Trazado 612595" d="M463.859,1220.626l-13.465,1.074c-.483,17.423.717,42.85,5.695,79.719h.644C464.808,1274.864,475.517,1236.9,463.859,1220.626Z" transform="translate(-352.927 -1110.069)" opacity="0.2"/>
        <g id="Grupo_875312" data-name="Grupo 875312" transform="translate(145.123 501.25)">
          <path id="Trazado_612596" data-name="Trazado 612596" d="M494.314,1580.755l.685,16h13.409l-.686-16Z" transform="translate(-494.314 -1580.755)" opacity="0.2"/>
        </g>
        <path id="Trazado_612597" data-name="Trazado 612597" d="M508.976,1148.632c-3.443,12.848-4.806,20.543-12.734,25.885-11.927,8.037-26.776-1.186-27.24-14.8-.419-12.258,5.283-31.209,19.071-33.8A18.143,18.143,0,0,1,508.976,1148.632Z" transform="translate(-351.342 -1118.135)" fill="#903c38"/>
        <path id="Trazado_612598" data-name="Trazado 612598" d="M478.664,1149.3l-6.964,1.81,6.48-16.808a18.948,18.948,0,0,1-.6-12.963,3.813,3.813,0,0,1,3.551-2.614c14.436-.28,29.522,7.823,37.128,13.949a3.74,3.74,0,0,1,.843,4.865c-1.665,2.726-3.821,4.813-6.539,7.576-.142,4.706-7.827,25.971-12.08,28.357s-12.385,1.418-14.549-2.461S476.464,1161.982,478.664,1149.3Z" transform="translate(-351.111 -1118.717)" fill="#1a2e35"/>
        <path id="Trazado_612599" data-name="Trazado 612599" d="M484.931,1147.64a15.032,15.032,0,0,1-5.189,8.142c-3.416,2.688-6.089.206-5.949-3.746.127-3.557,2.056-9.243,5.873-10.4C483.427,1140.495,485.826,1143.758,484.931,1147.64Z" transform="translate(-350.934 -1116.792)" fill="#903c38"/>
        <path id="Trazado_612600" data-name="Trazado 612600" d="M597.03,1606.052c-.011-1.72.216-3.383.985-3.945a1.2,1.2,0,0,1,1.388.018,1.58,1.58,0,0,1,.749,1c.621,2.226-2.019,6.928-2.131,7.126a.318.318,0,0,1-.588-.092A23.569,23.569,0,0,1,597.03,1606.052Zm2.586-2.143a2.388,2.388,0,0,0-.077-.613.955.955,0,0,0-.448-.618c-.4-.223-.59-.139-.7-.058-.863.629-.861,4.017-.493,6.506C598.526,1607.88,599.626,1605.476,599.616,1603.909Z" transform="translate(-340.474 -1077.711)" fill="#007cff"/>
        <path id="Trazado_612601" data-name="Trazado 612601" d="M597.4,1609.829a.319.319,0,0,1,.027-.13c.716-1.623,3.594-4.845,5.111-4.611.356.057.8.305.9,1.177a2.316,2.316,0,0,1-.533,1.764c-1.39,1.713-5,2.1-5.151,2.114a.317.317,0,0,1-.289-.129A.328.328,0,0,1,597.4,1609.829Zm5.412-3.306a1.621,1.621,0,0,0-.011-.19c-.062-.571-.286-.606-.36-.617-.911-.141-3.174,2.051-4.156,3.708,1.053-.179,3.21-.67,4.121-1.8A1.681,1.681,0,0,0,602.807,1606.523Z" transform="translate(-340.443 -1077.441)" fill="#007cff"/>
        <path id="Trazado_612602" data-name="Trazado 612602" d="M599.18,1611.986l-13.079.926-7.347-31.287,13.079-.926Z" transform="translate(-342.025 -1079.51)" fill="#903c38"/>
        <path id="Trazado_612603" data-name="Trazado 612603" d="M599.073,1606.87l-14.58-1.29a1.169,1.169,0,0,0-1.217.811l-3.687,11.634a1.95,1.95,0,0,0,1.711,2.545c5.267.375,12.894.74,19.5,1.325,7.729.685,2.723.666,11.787,1.469,5.481.485,7.492-4.922,5.242-5.626-10.241-3.209-12.1-5.426-15.636-9.543A4.582,4.582,0,0,0,599.073,1606.87Z" transform="translate(-341.963 -1077.399)" fill="#1a2e35"/>
        <g id="Grupo_875313" data-name="Grupo 875313" transform="translate(236.733 501.197)">
          <path id="Trazado_612604" data-name="Trazado 612604" d="M578.758,1581.633l3.785,16.127,13.084-.926-3.785-16.127Z" transform="translate(-578.758 -1580.707)" opacity="0.2"/>
        </g>
        <path id="Trazado_612605" data-name="Trazado 612605" d="M479.073,1295.1s30.83,102.949,42.527,141.163c12.809,41.849,61.548,180.684,61.548,180.684l23.632-5.195s-33.385-119.283-47.229-177.645c-10.634-44.83-34.221-139.007-34.221-139.007Z" transform="translate(-350.485 -1103.748)" fill="#148d80"/>
        <path id="Trazado_612606" data-name="Trazado 612606" d="M571.181,1585.214c-.107.012,2.325,9.231,2.325,9.231l28.425-3.053-.129-8.447Z" transform="translate(-342.668 -1079.319)" fill="#1a2e35"/>
        <path id="Trazado_612607" data-name="Trazado 612607" d="M495.024,1339.09c17.058,2.249,23.852,61.7,26.407,96.589-.324-1.1-.664-2.152-.961-3.144-6.383-20.865-18.472-61.07-28.137-93.254A5.959,5.959,0,0,1,495.024,1339.09Z" transform="translate(-349.36 -1100.021)" opacity="0.3"/>
        <path id="Trazado_612608" data-name="Trazado 612608" d="M455.632,1295.1s10.341,100.264,14.794,141.081c4.633,42.456,22.025,181.713,22.025,181.713h22.705s-2.752-136.716-3.667-178.468c-1-45.517-8.735-144.325-8.735-144.325Z" transform="translate(-352.475 -1103.748)" fill="#148d80"/>
        <path id="Trazado_612609" data-name="Trazado 612609" d="M486.315,1584.31c-.1,0,1.281,9.426,1.281,9.426h27.619l.747-8.413Z" transform="translate(-349.871 -1079.204)" fill="#1a2e35"/>
        <g id="Grupo_875314" data-name="Grupo 875314" transform="translate(0 213.15)">
          <path id="Trazado_612610" data-name="Trazado 612610" d="M366.74,1386.876a40.18,40.18,0,1,0,12.562-55.419A40.182,40.182,0,0,0,366.74,1386.876Zm62.6-39.464a33.821,33.821,0,1,1-46.646-10.577A33.82,33.82,0,0,1,429.339,1347.412Z" transform="translate(-360.544 -1314.338)" fill="#1a2e35"/>
          <path id="Trazado_612611" data-name="Trazado 612611" d="M430.236,1371.581a30.994,30.994,0,1,1-23.373-37.081A30.993,30.993,0,0,1,430.236,1371.581Z" transform="translate(-359.826 -1313.62)" fill="#007cff" opacity="0.2"/>
          <path id="Trazado_612612" data-name="Trazado 612612" d="M430.213,1338.132l3.767,5.974a1.943,1.943,0,0,1-.608,2.68h0a1.943,1.943,0,0,1-2.68-.608l-3.767-5.974a1.943,1.943,0,0,1,.608-2.68h0A1.944,1.944,0,0,1,430.213,1338.132Z" transform="translate(-354.936 -1313.323)" fill="#1a2e35"/>
          <path id="Trazado_612613" data-name="Trazado 612613" d="M454.468,1323.019q-6.532,4.459-12.942,9.11c-4.266,3.115-8.494,6.287-12.6,9.655a2.669,2.669,0,0,0,2.825,4.482c4.81-2.25,9.495-4.7,14.143-7.2s9.24-5.1,13.8-7.749q5.819-3.385,11.557-6.9A2.321,2.321,0,0,0,472,1321.2l-3.1-4.921a2.319,2.319,0,0,0-3.224-.708Q460.037,1319.237,454.468,1323.019Z" transform="translate(-354.824 -1315.193)" fill="#1a2e35"/>
        </g>
        <path id="Trazado_612614" data-name="Trazado 612614" d="M473.664,1205.649c-2.191,10.75-4.543,21.462-6.985,32.148l-7.426,31.972c-2.4,10.423-4.46,20.993-6.345,31.712l-5.635,32.241-.013.073a5.055,5.055,0,0,1-10.031-.7c-.386-11.192-.215-22.26.411-33.4a327.43,327.43,0,0,1,3.524-33.452c1.743-10.957,3.706-21.789,5.8-32.609s4.367-21.587,6.846-32.311a10.159,10.159,0,0,1,19.851,4.321Z" transform="translate(-354.054 -1112.375)" fill="#148d80"/>
        <path id="Trazado_612615" data-name="Trazado 612615" d="M445.85,1320.156a3.713,3.713,0,0,0-3.552-1.051l-2.913.694a3.694,3.694,0,0,0-2.807,3.116l-.843,6.465a8.24,8.24,0,0,0,1.12,5.331l4,6.613a4.5,4.5,0,0,0,4.524,1.689l4.168-.884a4.5,4.5,0,0,0,3.348-5.79l-1.092-3.37S451.733,1326.377,445.85,1320.156Z" transform="translate(-354.169 -1101.72)" fill="#903c38"/>
        <path id="Trazado_612616" data-name="Trazado 612616" d="M487.14,1200.041c6.517,17.286-16.021,41.939-16.021,41.939l-28.52-9.433s2.182-23.587,12.081-36.885C466.909,1179.236,482.18,1186.882,487.14,1200.041Z" transform="translate(-353.581 -1112.98)" fill="#1a2e35"/>
      </g>
    </g>
  </g>
</svg>
