<svg xmlns="http://www.w3.org/2000/svg" width="505" height="412.942" viewBox="0 0 505 412.942">
  <g id="Grupo_876514" data-name="Grupo 876514" transform="translate(-1689 -2373)">
    <rect id="Rectángulo_293394" data-name="Rectángulo 293394" width="330.588" height="74.521" transform="translate(1863.411 2711.421)" fill="#86c3d1"/>
    <path id="Trazado_614419" data-name="Trazado 614419" d="M1863.646,2798.344v74.172L1689,2688.4V2555.66c1.989,3.45,18.548,32.089,37.538,61.3q2.052,12.547,4.1,25.087c.552,3.393,1.136,6.87,2.851,9.842,3.183,5.513,9.59,8.275,13.835,13.014,5.487,6.118,8.417,16.171,16.57,17.228,1.241-5.087-2.63-11.331-1.936-15.849a101.956,101.956,0,0,0,11.21,11.6c27.354,23.146,41.557,34.193,41.557,34.193C1837.344,2724.172,1863.646,2798.344,1863.646,2798.344Z" transform="translate(0 -86.574)" fill="#7b5c3e"/>
    <path id="Trazado_614420" data-name="Trazado 614420" d="M2307.276,2939.271H1976.922S1950.62,2865.1,1928,2853h265.661a74.464,74.464,0,0,1,54.114,23.314Z" transform="translate(-113.276 -227.501)" fill="#73aa33"/>
    <path id="Trazado_614421" data-name="Trazado 614421" d="M2080.385,2711.76H1814.724s-14.2-11.047-41.557-34.193c-26.413-22.346-80.474-115.8-84.167-122.22V2555h258.812C1954.651,2597.084,2080.385,2711.76,2080.385,2711.76Z" transform="translate(0 -86.261)" fill="#84c442"/>
    <path id="Trazado_614422" data-name="Trazado 614422" d="M2016.412,2396v85.745H1957Z" transform="translate(-127.021 -10.901)" fill="#738286"/>
    <path id="Trazado_614423" data-name="Trazado 614423" d="M1755.971,2417.47v79.185H1701Z" transform="translate(-5.688 -21.077)" fill="#6c9db1"/>
    <path id="Trazado_614424" data-name="Trazado 614424" d="M1860.471,2496.655H1805.5V2417.47Z" transform="translate(-55.216 -21.077)" fill="#7bacbe"/>
    <path id="Trazado_614425" data-name="Trazado 614425" d="M1790.6,2417.47l-16.533,23.815,10.027-3.847,6.506,16.232,7.627-12.775,8.943,12.625-.361-12.7Z" transform="translate(-40.32 -21.077)" fill="#dce6ed"/>
    <path id="Trazado_614426" data-name="Trazado 614426" d="M1830.549,2373v107.838h-74.863Z" transform="translate(-31.607 0)" fill="#86a0a6"/>
    <path id="Trazado_614427" data-name="Trazado 614427" d="M1972.863,2480.839H1898V2373Z" transform="translate(-99.057 0)" fill="#abb9ba"/>
    <path id="Trazado_614428" data-name="Trazado 614428" d="M2129.354,2481.745h-59.412V2396Z" transform="translate(-180.551 -10.901)" fill="#80898b"/>
    <line id="Línea_308" data-name="Línea 308" y1="3.964" transform="translate(1792.854 2523.533)" fill="#7b5c3e"/>
    <path id="Trazado_614429" data-name="Trazado 614429" d="M2145.362,2570v44.188h-30.676Z" transform="translate(-201.758 -93.37)" fill="#738286"/>
    <path id="Trazado_614430" data-name="Trazado 614430" d="M2203.676,2614.188H2173V2570Z" transform="translate(-229.396 -93.37)" fill="#80898b"/>
    <path id="Trazado_614431" data-name="Trazado 614431" d="M1846.188,2538v63.651H1802Z" transform="translate(-53.558 -78.203)" fill="#738286"/>
    <path id="Trazado_614432" data-name="Trazado 614432" d="M1930.188,2601.651H1886V2538Z" transform="translate(-93.37 -78.203)" fill="#80898b"/>
    <path id="Trazado_614433" data-name="Trazado 614433" d="M1939.676,2575v44.187H1909Z" transform="translate(-104.271 -95.74)" fill="#738286"/>
    <path id="Trazado_614434" data-name="Trazado 614434" d="M1997.99,2619.188h-30.676V2575Z" transform="translate(-131.91 -95.74)" fill="#80898b"/>
    <g id="Grupo_876488" data-name="Grupo 876488" transform="translate(1782.628 2403.501)">
      <path id="Trazado_614435" data-name="Trazado 614435" d="M1868.122,2436.022a78.686,78.686,0,0,1,28.676,40.749c1.354,4.568,2.618,9.335,1.579,14.09-.875,4-2.374,7.864-.9,11.935a8.115,8.115,0,0,0,8.552,5.47c5.1-.313,10.144-1.351,15.26-1.623a46.925,46.925,0,0,1,30.464,8.609c2.756,1.976,5.385-2.585,2.656-4.542a50.387,50.387,0,0,0-24.914-9.236,75.687,75.687,0,0,0-15.442.561c-2.522.295-5.051.746-7.583.938-2.358.179-3.841-.417-4.3-2.87-.379-2.01.3-4.058.8-5.983a26.414,26.414,0,0,0,1.089-7.342,47.117,47.117,0,0,0-2.672-12.98,83.478,83.478,0,0,0-11.023-22.324,85.3,85.3,0,0,0-19.585-19.994c-2.732-2.005-5.359,2.558-2.655,4.542Z" transform="translate(-1866.986 -2430.982)" fill="#aee0ef"/>
    </g>
    <g id="Grupo_876489" data-name="Grupo 876489" transform="translate(1879.726 2416.929)">
      <path id="Trazado_614436" data-name="Trazado 614436" d="M2073.8,2456.722c-12.964,5.416-10.614,20.473-10.693,31.844-.085,12.177-2.527,25.042-10.842,34.407-2.24,2.524,1.466,6.258,3.719,3.72,7.752-8.732,11.116-19.954,12.085-31.413.51-6.039,0-12.012.024-18.052.021-5.588,1.222-12.975,7.106-15.434,3.077-1.286,1.726-6.378-1.4-5.073Z" transform="translate(-2051.569 -2456.51)" fill="#aee0ef"/>
    </g>
    <g id="Grupo_876490" data-name="Grupo 876490" transform="translate(1893.765 2497.505)">
      <path id="Trazado_614437" data-name="Trazado 614437" d="M2080.27,2613.628c1.784,3.181,4.828,4.161,7.667,6.117,1.121.772,3.074,2.51,1.466,3.679-1.192.866-3.238.753-4.614,1.074-2.83.661-5.888,2.64-6.448,5.688a4.625,4.625,0,0,0,.969,3.931c1.313,1.313,4.357,1.44,6.087,1.853l12.809,3.057c.829.2,4.833.6,5.26,1.43.23.449-.779,2.147-.99,2.591-1.135,2.383-2.456,4.86-2.145,7.588.366,3.2,2.828,5.135,5.691,6.169,4.467,1.613,9.448,2.283,14.074,3.335l15.821,3.6-1.161-4.4c-2.254,2.4-4.52,4.793-6.764,7.205-1.747,1.877-3.635,4-3.207,6.761.717,4.626,7.331,6.186,11.094,7.137,3.784.956,9.361,1.657,10.7,6.041,1.626,5.328-4.353,10.818-7.855,13.933a2.646,2.646,0,0,0,1.16,4.4,86,86,0,0,0,24.925.926l-1.327-4.9a36.449,36.449,0,0,1-20.077,6.811c-5.768.3-13.091,2.494-12.857,9.61a2.742,2.742,0,0,0,1.931,2.537c4.567,1.744,14.259,6.209,9.914,12.66a2.637,2.637,0,0,0,.944,3.6c9.76,4.195,19.747,8.068,29.339,12.634,1.5.715,3.406,1.6,4.3,3.083,1.083,1.8.107,3.906-.307,5.77-.814,3.662-.233,7.224,3.465,8.967,8.125,3.832,18.663,3.763,23.484,12.682,2.49,4.607.338,8.124-.566,12.767a9.375,9.375,0,0,0,4.083,10.079c3.844,2.634,7.932,3.79,10.773,7.784a18.357,18.357,0,0,1,3.245,12.922c-.388,3.357,4.875,3.329,5.26,0a23.244,23.244,0,0,0-9.936-21.53c-3.03-2.076-9.055-3.161-8.352-7.858.342-2.281,1.465-4.391,1.859-6.67a14.761,14.761,0,0,0-.364-6.687c-2.7-9.183-11.763-13.429-20.177-16.023-2.208-.681-4.74-1.094-6.828-2.089-2.071-.986-.637-3.7-.269-5.414.865-4.023-.061-7.5-3.354-10.1-4.3-3.405-10.249-5.085-15.24-7.23l-17.757-7.63.944,3.6c2.574-3.823,1.938-8.888-.658-12.542-2.954-4.158-7.8-6.091-12.4-7.846l1.931,2.536c-.107-3.245,3.684-4.057,6.237-4.273,2.8-.237,5.561-.285,8.332-.792a39.077,39.077,0,0,0,15.759-6.813c1.855-1.34,1.549-5.221-1.328-4.9a81.294,81.294,0,0,1-23.526-.738l1.16,4.4c3.885-3.455,7.931-7.76,9.231-12.954a11.331,11.331,0,0,0-4.667-12.323c-3.646-2.479-8.22-2.938-12.343-4.2a17.537,17.537,0,0,1-3.062-1.192c-1.707-.9-1.563-1.381-.228-2.845,2.331-2.554,4.736-5.045,7.1-7.566a2.655,2.655,0,0,0-1.16-4.4l-22.455-5.107c-1.922-.437-3.861-.825-5.769-1.319-.953-.247-2.44-.526-3.113-1.328-1.309-1.56.606-4.256,1.294-5.742,1.98-4.281,1.921-8.662-3.356-10.178-7.237-2.078-14.724-3.521-22.049-5.27l1.837,1.837c-.827-1.99,5.3-2.416,6.525-2.818,2.462-.808,4.544-2.5,5.015-5.159.5-2.825-1.092-5.5-3.183-7.286-2.243-1.912-5.759-2.661-7.251-5.322-1.656-2.954-6.2-.3-4.543,2.655Z" transform="translate(-2078.256 -2609.684)" fill="#aee0ef"/>
    </g>
    <g id="Grupo_876491" data-name="Grupo 876491" transform="translate(1849.188 2531.46)">
      <path id="Trazado_614438" data-name="Trazado 614438" d="M2061.314,2676.769c.333,9.125-12.143,9.17-18.346,9.608a104.024,104.024,0,0,0-25.173,4.913c-7.062,2.325-15.714,5.146-20.886,10.79-4.436,4.84-5.441,14.1,2.646,15.6,1.135.21,3.308.12,3.661,1.463.366,1.392-1.16,3.209-2.064,4.089-2.378,2.312-5.3,4.054-6.539,7.3-2.409,6.327,3.181,11.158,8.775,12.664,5.86,1.576,15.106-2.071,19.49,3.137,2.189,2.6,3.32,5.832,6.827,7.022,3.486,1.183,7.269-.058,10.226-2,3.7-2.437,6.612-5.505,11.383-5.242,4.332.238,8.475,2.3,12.543,3.624a33.014,33.014,0,0,0,13.473,1.5c5-.447,9.924-1.41,14.956-.748,3.346.44,3.314-4.824,0-5.261-8.222-1.082-16.445,2.317-24.583.17-6.849-1.806-13.688-5.923-21-4.109-3.546.88-6.15,3.3-9.087,5.3-1.528,1.042-3.379,2.145-5.3,1.964-1.961-.183-2.87-1.839-3.851-3.342a13.493,13.493,0,0,0-6.862-5.885c-3.094-1.1-6.509-1-9.743-.865-3.206.136-6.306.323-9.284-1.121-2.422-1.174-4.327-3.367-2.491-5.962,1.864-2.634,4.978-4.024,6.728-6.806,1.5-2.383,2.318-5.577.957-8.2-1.653-3.189-4.58-2.927-7.516-3.893-4.141-1.363.151-6.7,2.007-8.209,2.87-2.339,6.466-3.855,9.854-5.268a99.273,99.273,0,0,1,12.045-4.122,96.8,96.8,0,0,1,13.639-2.733c4.485-.553,9.022-.545,13.5-1.16,7.421-1.02,15.587-5.685,15.276-14.206-.123-3.375-5.384-3.391-5.26,0Z" transform="translate(-1993.516 -2674.231)" fill="#aee0ef"/>
    </g>
    <path id="Trazado_614439" data-name="Trazado 614439" d="M2011.54,2582.229q-8.094,4.584-15.932,9.6c-.656.42-1.375.938-1.479,1.711-.136,1.008.846,1.8,1.78,2.209,2.852,1.24,6.1.945,9.2,1.142s6.541,1.174,8.031,3.9c.615,1.126.869,2.508,1.844,3.343,1.157.993,2.874.844,4.385.638l12.021-1.635,25.631-3.485c3.725-.506,8.2-1.621,9.251-5.23.334-1.145.253-2.414.8-3.471,1.258-2.411,4.658-2.24,7.373-2.405s6.074-2.531,4.708-4.883a4.639,4.639,0,0,0-2.766-1.724c-10.469-3.416-21.183-6.869-32.192-6.638a89.026,89.026,0,0,0-12.274,1.346q-11.366,1.833-22.632,4.22" transform="translate(-144.612 -95.881)" fill="#aee0ef"/>
    <path id="Trazado_614440" data-name="Trazado 614440" d="M2018.083,2709.987a72.624,72.624,0,0,0-15.91.251c-4.9.619-10.112,1.956-13.277,5.753s-2.846,10.671,1.661,12.7a5,5,0,0,1,2.21,1.287,3.271,3.271,0,0,1,.432,1.98,19.542,19.542,0,0,1-2.064,8.442,6.118,6.118,0,0,0-.965,2.885c.088,2.059,2.51,3.594,2.24,5.637,1.787-8.758,15.606-10.687,17.369-19.449.257-1.275.285-2.742,1.25-3.614,1.017-.918,2.584-.73,3.9-1.109,2.586-.743,3.988-3.8,3.585-6.46s-2.2-4.911-4.225-6.678" transform="translate(-141.145 -159.566)" fill="#aee0ef"/>
    <g id="Grupo_876492" data-name="Grupo 876492" transform="translate(1756.865 2626.031)">
      <path id="Trazado_614441" data-name="Trazado 614441" d="M1818.257,2858.04c4.179,9.588,12.693,17.092,20.454,23.813a55.78,55.78,0,0,0,12.284,8.188c3.958,1.914,8.061,3.523,11.949,5.582,3.764,1.994,7.431,4.458,9.631,8.209,1.142,1.948,1.751,4.147,3.405,5.766,1.83,1.789,4.379,2.562,6.6,3.735a42.264,42.264,0,0,1,11.864,9.345c3.482,3.924,5.378,8.816,8.674,12.83,3.62,4.408,9.3,6.609,13.451,10.469a42.3,42.3,0,0,1,10,14.313c1.342,3.1,5.875.423,4.542-2.655-4.184-9.663-11.205-16.353-19.851-22.047a17.474,17.474,0,0,1-5.539-5.469c-1.452-2.343-2.682-4.79-4.289-7.04a48.013,48.013,0,0,0-10.224-10.477,44.461,44.461,0,0,0-5.974-3.812c-2.632-1.392-5.312-2-6.74-4.817a25.985,25.985,0,0,0-7.83-9.742c-7.11-5.289-16.01-7.355-23.336-12.29-5.024-3.383-9.428-7.813-13.739-12.046-4.364-4.284-8.326-8.856-10.791-14.512-1.35-3.1-5.883-.42-4.542,2.655Z" transform="translate(-1818.012 -2854.009)" fill="#86c3d1"/>
    </g>
    <g id="Grupo_876493" data-name="Grupo 876493" transform="translate(1698.257 2490.255)">
      <path id="Trazado_614442" data-name="Trazado 614442" d="M1710.044,2599.2a35.16,35.16,0,0,1-.092,12.817c-.755,3.791-2.846,7.334-3.293,11.146a7.722,7.722,0,0,0,1.049,5.042c.826,1.348,2.072,2.352,2.658,3.856a7.588,7.588,0,0,1-1.944,8.185,2.69,2.69,0,0,0,0,3.72c1.8,2.132,4.4,2.887,7.069,3.278,2.219.325,5.767.187,6.811,2.594,1.215,2.8.244,6.075,1.747,8.915a10.572,10.572,0,0,0,5.773,4.753c4.815,1.86,11.488,1.1,15.177,5.217,3.9,4.346,3.339,11.581,3.751,17,.67,8.779,3.936,16.564,7.6,24.467,1.423,3.068,5.959.4,4.542-2.655-3.38-7.288-6.369-14.435-6.936-22.531-.411-5.878-.3-12.476-3.484-17.678-3.157-5.158-8.564-6.489-14.119-7.56-2.294-.443-5.328-.789-7.025-2.593-2.069-2.2-1.065-6-1.936-8.718a8.646,8.646,0,0,0-6.7-5.7c-2.761-.634-6.563-.152-8.548-2.5v3.72a12.778,12.778,0,0,0,3.951-9.226,12.6,12.6,0,0,0-.905-4.715c-.742-1.847-2.568-3.238-3.148-5.051-.7-2.178,1.078-4.9,1.763-6.953a38.954,38.954,0,0,0,1.544-6.484,42.424,42.424,0,0,0-.231-13.735c-.578-3.329-5.648-1.918-5.073,1.4Z" transform="translate(-1706.597 -2595.901)" fill="#86c3d1"/>
    </g>
    <path id="Trazado_614443" data-name="Trazado 614443" d="M1797.714,2737.361c-8.154-1.057-11.084-11.11-16.57-17.228-4.245-4.74-10.652-7.5-13.835-13.014-1.715-2.973-2.3-6.449-2.851-9.843q-2.052-12.546-4.1-25.087c11.841,18.207,24.629,36.639,35.418,49.322C1795.084,2726.031,1798.956,2732.274,1797.714,2737.361Z" transform="translate(-33.822 -141.804)" fill="#86c3d1"/>
    <path id="Trazado_614444" data-name="Trazado 614444" d="M1884.668,2701.536c-15.166,1.163-26.586-13.4-40.879-18.585-7.833-2.841-16.37-2.778-24.7-2.677-2.42.031-5.4.437-6.223,2.709-.8,2.2,1.1,4.519.931,6.855-.342,4.587-7.365,5.1-9.842,8.974-3.1,4.861,2.225,12.715-2.078,16.555-1.231,1.094-2.962,1.468-4.235,2.509a5.169,5.169,0,0,0-1.91,3.366c-10.789-12.682-23.577-31.115-35.418-49.321l-.048-.3,1.021.442,57.249,2.13c7.059.258,14.2.537,21,2.436a77.872,77.872,0,0,1,15.445,6.67A286.252,286.252,0,0,1,1884.668,2701.536Z" transform="translate(-33.779 -141.534)" fill="#aee0ef"/>
    <g id="Grupo_876513" data-name="Grupo 876513" transform="translate(1715.506 2470.504)">
      <g id="Grupo_876494" data-name="Grupo 876494" transform="translate(73.12 96.483)">
        <path id="Trazado_614445" data-name="Trazado 614445" d="M1881.812,2773.5a36.021,36.021,0,0,1-3.424,9.351h0a9.041,9.041,0,0,0,2.855-1.818c-.134,1.014-.633,1.8-.83,2.813a10.749,10.749,0,0,0,2.934-2.274,11.414,11.414,0,0,1-.207,2.537,4.822,4.822,0,0,0,1.952-2.56,7.512,7.512,0,0,0,1.258,2.581,15.513,15.513,0,0,0,.914-2.609c.693.766,1.15,1.72,2.1,2.169.006-.952.012-1.7.017-2.651a10.757,10.757,0,0,0,2.593,1.54c-.187-.635-.584-1.439-.815-2.166a4.6,4.6,0,0,0,2.471,1.224,39.254,39.254,0,0,1-3.277-5.373c-.817-1.338-.991-2.881-1.617-4.218Z" transform="translate(-1878.388 -2756.121)" fill="#005d41"/>
        <path id="Trazado_614446" data-name="Trazado 614446" d="M1883.009,2766.135a24.667,24.667,0,0,1-3.1,7.723,20.512,20.512,0,0,0,2.611-1.38,19.247,19.247,0,0,1-.712,2.344,4.105,4.105,0,0,0,2.308-2.385c.313.7.762,1.655,1.138,2.293a12.278,12.278,0,0,0,.891-2.321,11.96,11.96,0,0,0,1.16,2.186c.195-.634.418-1.7.612-2.272a4.7,4.7,0,0,0,1.764,1.789,7.976,7.976,0,0,0-.238-2.286,8.4,8.4,0,0,0,2.341,1.284,24.905,24.905,0,0,1-2.431-6.934Z" transform="translate(-1879.111 -2753.317)" fill="#006c47"/>
        <path id="Trazado_614447" data-name="Trazado 614447" d="M1885.277,2752.91a13.849,13.849,0,0,1-.886,4.565,14.6,14.6,0,0,1-2.124,4.651,22.187,22.187,0,0,0,2.358-1.412,8.994,8.994,0,0,1-.3,2.06c.61-.853,1.28-1.61,1.888-2.463a20.685,20.685,0,0,0,.586,2.859,26.983,26.983,0,0,1,1.131-3.039,6.012,6.012,0,0,0,1.729,2.456c-.247-1.177-.18-1.652-.3-2.415a5.162,5.162,0,0,0,2.4,1.888,43.628,43.628,0,0,1-1.807-5.311,43.862,43.862,0,0,0-1.715-4.8Z" transform="translate(-1880.226 -2746.593)" fill="#007b4e"/>
        <path id="Trazado_614448" data-name="Trazado 614448" d="M1887.574,2741.9a5.231,5.231,0,0,0-.714,2,47.828,47.828,0,0,1-1.518,5.163,11.532,11.532,0,0,1-1.254,2.4,5.6,5.6,0,0,0,1.944-1.384,7.343,7.343,0,0,1-.2,2.188,12.625,12.625,0,0,0,1.317-2.4c.216.922.385,1.621.57,2.478a6.479,6.479,0,0,0,.795-2.565,13.873,13.873,0,0,0,1.2,2.26,8.311,8.311,0,0,0-.092-2.348,12.91,12.91,0,0,0,1.734,1.725,19.287,19.287,0,0,1-1.675-4.151c-.306-1.188-.668-2.361-.977-3.549-.111-.421-.49-1.952-.831-1.954A.384.384,0,0,0,1887.574,2741.9Z" transform="translate(-1881.09 -2741.768)" fill="#008e6c"/>
      </g>
      <g id="Grupo_876495" data-name="Grupo 876495" transform="translate(93.445 93.109)">
        <path id="Trazado_614449" data-name="Trazado 614449" d="M1920.451,2767.093a36.062,36.062,0,0,1-3.424,9.351h0a9.035,9.035,0,0,0,2.855-1.818c-.134,1.014-.633,1.8-.83,2.813a10.729,10.729,0,0,0,2.934-2.275,11.378,11.378,0,0,1-.208,2.537,4.816,4.816,0,0,0,1.953-2.56,7.5,7.5,0,0,0,1.258,2.581,15.544,15.544,0,0,0,.914-2.609c.693.766,1.149,1.72,2.1,2.169.006-.951.011-1.7.016-2.651a10.742,10.742,0,0,0,2.594,1.54c-.187-.635-.584-1.438-.815-2.165a4.613,4.613,0,0,0,2.471,1.224,39.308,39.308,0,0,1-3.277-5.374c-.817-1.337-.991-2.881-1.617-4.218Z" transform="translate(-1917.027 -2749.708)" fill="#005d41"/>
        <path id="Trazado_614450" data-name="Trazado 614450" d="M1921.647,2759.722a24.674,24.674,0,0,1-3.1,7.723,20.524,20.524,0,0,0,2.611-1.38,19.2,19.2,0,0,1-.713,2.344,4.1,4.1,0,0,0,2.308-2.384c.313.7.762,1.656,1.138,2.293a12.332,12.332,0,0,0,.891-2.322,11.9,11.9,0,0,0,1.16,2.185c.194-.632.418-1.7.612-2.271a4.7,4.7,0,0,0,1.765,1.789,8,8,0,0,0-.239-2.287,8.4,8.4,0,0,0,2.341,1.284,24.932,24.932,0,0,1-2.431-6.933Z" transform="translate(-1917.749 -2746.904)" fill="#006c47"/>
        <path id="Trazado_614451" data-name="Trazado 614451" d="M1923.916,2746.5a13.87,13.87,0,0,1-.886,4.565,14.6,14.6,0,0,1-2.125,4.651,22.075,22.075,0,0,0,2.358-1.413,8.943,8.943,0,0,1-.3,2.061c.61-.853,1.28-1.61,1.888-2.463a20.725,20.725,0,0,0,.585,2.86,27.017,27.017,0,0,1,1.131-3.04,6.006,6.006,0,0,0,1.729,2.456c-.247-1.176-.18-1.652-.3-2.414a5.157,5.157,0,0,0,2.4,1.887,43.5,43.5,0,0,1-1.806-5.311,43.915,43.915,0,0,0-1.715-4.8Z" transform="translate(-1918.865 -2740.179)" fill="#007b4e"/>
        <path id="Trazado_614452" data-name="Trazado 614452" d="M1926.212,2735.488a5.215,5.215,0,0,0-.714,2,48.005,48.005,0,0,1-1.519,5.162,11.461,11.461,0,0,1-1.253,2.4,5.592,5.592,0,0,0,1.944-1.385,7.348,7.348,0,0,1-.2,2.19,12.625,12.625,0,0,0,1.317-2.4c.216.922.385,1.621.571,2.479a6.492,6.492,0,0,0,.8-2.566,13.809,13.809,0,0,0,1.2,2.26,8.293,8.293,0,0,0-.092-2.348,12.865,12.865,0,0,0,1.734,1.725,19.276,19.276,0,0,1-1.675-4.15c-.306-1.188-.668-2.361-.977-3.548-.111-.421-.49-1.953-.831-1.955A.378.378,0,0,0,1926.212,2735.488Z" transform="translate(-1919.728 -2735.355)" fill="#008e6c"/>
      </g>
      <g id="Grupo_876496" data-name="Grupo 876496" transform="translate(83.641 100.567)">
        <path id="Trazado_614453" data-name="Trazado 614453" d="M1902.376,2786.494a41.991,41.991,0,0,1-3.988,10.89h0a10.526,10.526,0,0,0,3.325-2.116c-.156,1.181-.736,2.1-.966,3.277a12.509,12.509,0,0,0,3.417-2.65,13.291,13.291,0,0,1-.241,2.955,5.609,5.609,0,0,0,2.274-2.982,8.738,8.738,0,0,0,1.465,3.006,18,18,0,0,0,1.065-3.038c.807.891,1.339,2,2.445,2.527.007-1.109.013-1.979.019-3.088,1.031.6,1.839,1.49,3.021,1.794-.218-.74-.68-1.676-.949-2.522a5.362,5.362,0,0,0,2.878,1.426,45.743,45.743,0,0,1-3.817-6.258c-.951-1.558-1.154-3.355-1.883-4.912Z" transform="translate(-1898.388 -2766.249)" fill="#005d41"/>
        <path id="Trazado_614454" data-name="Trazado 614454" d="M1903.77,2777.91a28.731,28.731,0,0,1-3.607,8.995,24.02,24.02,0,0,0,3.041-1.607,22.471,22.471,0,0,1-.83,2.73,4.78,4.78,0,0,0,2.688-2.778,29.711,29.711,0,0,0,1.326,2.671,14.3,14.3,0,0,0,1.038-2.7,13.916,13.916,0,0,0,1.351,2.545c.227-.738.487-1.981.713-2.645a5.474,5.474,0,0,0,2.055,2.083,9.311,9.311,0,0,0-.278-2.663,9.777,9.777,0,0,0,2.726,1.5,29.005,29.005,0,0,1-2.831-8.075Z" transform="translate(-1899.229 -2762.982)" fill="#006c47"/>
        <path id="Trazado_614455" data-name="Trazado 614455" d="M1906.411,2762.508a16.137,16.137,0,0,1-1.032,5.317,17,17,0,0,1-2.474,5.417,25.983,25.983,0,0,0,2.746-1.645,10.494,10.494,0,0,1-.35,2.4c.71-.993,1.491-1.875,2.2-2.868.327,1.037.206,2.366.681,3.331a31.639,31.639,0,0,1,1.317-3.54,7.01,7.01,0,0,0,2.014,2.86c-.287-1.37-.209-1.924-.351-2.812a6.011,6.011,0,0,0,2.794,2.2,50.875,50.875,0,0,1-2.1-6.186,51.1,51.1,0,0,0-2-5.595Z" transform="translate(-1900.529 -2755.15)" fill="#007b4e"/>
        <path id="Trazado_614456" data-name="Trazado 614456" d="M1909.086,2749.686a6.078,6.078,0,0,0-.832,2.332,55.723,55.723,0,0,1-1.768,6.013,13.4,13.4,0,0,1-1.46,2.8,6.525,6.525,0,0,0,2.264-1.612,8.554,8.554,0,0,1-.237,2.55,14.714,14.714,0,0,0,1.533-2.8c.251,1.074.448,1.888.664,2.887a7.551,7.551,0,0,0,.926-2.988,16.109,16.109,0,0,0,1.4,2.632,9.688,9.688,0,0,0-.107-2.735,15,15,0,0,0,2.019,2.01,22.436,22.436,0,0,1-1.951-4.834c-.356-1.383-.778-2.75-1.138-4.132-.129-.491-.571-2.274-.968-2.277A.442.442,0,0,0,1909.086,2749.686Z" transform="translate(-1901.534 -2749.532)" fill="#008e6c"/>
      </g>
      <g id="Grupo_876497" data-name="Grupo 876497" transform="translate(339.297 160.66)">
        <path id="Trazado_614457" data-name="Trazado 614457" d="M2387.813,2895.5a36.057,36.057,0,0,1-3.424,9.351h0a9.064,9.064,0,0,0,2.855-1.818c-.134,1.014-.633,1.8-.83,2.813a10.746,10.746,0,0,0,2.933-2.275,11.384,11.384,0,0,1-.207,2.537,4.821,4.821,0,0,0,1.952-2.561,7.52,7.52,0,0,0,1.258,2.582,15.475,15.475,0,0,0,.914-2.609c.694.765,1.15,1.719,2.1,2.169.006-.951.011-1.7.017-2.651a10.759,10.759,0,0,0,2.594,1.54c-.187-.635-.584-1.439-.815-2.166a4.6,4.6,0,0,0,2.471,1.224,39.261,39.261,0,0,1-3.277-5.373c-.817-1.337-.991-2.881-1.617-4.218Z" transform="translate(-2384.388 -2878.121)" fill="#005d41"/>
        <path id="Trazado_614458" data-name="Trazado 614458" d="M2389.009,2888.136a24.657,24.657,0,0,1-3.1,7.722,20.43,20.43,0,0,0,2.611-1.379,19.149,19.149,0,0,1-.712,2.344,4.1,4.1,0,0,0,2.308-2.385c.313.7.762,1.656,1.138,2.294a12.33,12.33,0,0,0,.891-2.322,11.915,11.915,0,0,0,1.16,2.186c.195-.633.418-1.7.612-2.271a4.7,4.7,0,0,0,1.764,1.789,7.993,7.993,0,0,0-.238-2.286,8.4,8.4,0,0,0,2.341,1.284,24.916,24.916,0,0,1-2.431-6.934Z" transform="translate(-2385.111 -2875.317)" fill="#006c47"/>
        <path id="Trazado_614459" data-name="Trazado 614459" d="M2391.278,2874.91a13.861,13.861,0,0,1-.887,4.565,14.623,14.623,0,0,1-2.124,4.652,22.184,22.184,0,0,0,2.358-1.413,9,9,0,0,1-.3,2.06c.609-.853,1.281-1.61,1.889-2.463a20.65,20.65,0,0,0,.585,2.859,26.786,26.786,0,0,1,1.131-3.039,6,6,0,0,0,1.729,2.455c-.247-1.177-.18-1.652-.3-2.415a5.16,5.16,0,0,0,2.4,1.888,43.673,43.673,0,0,1-1.806-5.311,43.9,43.9,0,0,0-1.715-4.8Z" transform="translate(-2386.227 -2868.593)" fill="#007b4e"/>
        <path id="Trazado_614460" data-name="Trazado 614460" d="M2393.574,2863.9a5.232,5.232,0,0,0-.714,2,47.951,47.951,0,0,1-1.518,5.163,11.526,11.526,0,0,1-1.254,2.4,5.6,5.6,0,0,0,1.944-1.384,7.327,7.327,0,0,1-.2,2.189,12.636,12.636,0,0,0,1.317-2.4c.216.922.385,1.621.57,2.479a6.491,6.491,0,0,0,.8-2.566,13.838,13.838,0,0,0,1.2,2.26,8.293,8.293,0,0,0-.092-2.348,12.892,12.892,0,0,0,1.734,1.725,19.283,19.283,0,0,1-1.676-4.15c-.306-1.187-.668-2.362-.977-3.549-.111-.42-.49-1.953-.831-1.954A.38.38,0,0,0,2393.574,2863.9Z" transform="translate(-2387.09 -2863.768)" fill="#008e6c"/>
      </g>
      <g id="Grupo_876498" data-name="Grupo 876498" transform="translate(359.622 157.286)">
        <path id="Trazado_614461" data-name="Trazado 614461" d="M2426.45,2889.093a36.057,36.057,0,0,1-3.423,9.35h0a9.036,9.036,0,0,0,2.855-1.818c-.134,1.015-.632,1.8-.83,2.813a10.723,10.723,0,0,0,2.934-2.275,11.38,11.38,0,0,1-.207,2.537,4.815,4.815,0,0,0,1.953-2.56,7.485,7.485,0,0,0,1.258,2.581,15.6,15.6,0,0,0,.914-2.609c.693.765,1.149,1.72,2.1,2.169.006-.951.011-1.7.016-2.651a10.766,10.766,0,0,0,2.594,1.541c-.187-.635-.584-1.439-.816-2.165a4.616,4.616,0,0,0,2.472,1.224,39.333,39.333,0,0,1-3.277-5.374c-.818-1.338-.991-2.881-1.617-4.218Z" transform="translate(-2423.027 -2871.708)" fill="#005d41"/>
        <path id="Trazado_614462" data-name="Trazado 614462" d="M2427.647,2881.722a24.666,24.666,0,0,1-3.1,7.723,20.416,20.416,0,0,0,2.612-1.38,19.229,19.229,0,0,1-.713,2.344,4.109,4.109,0,0,0,2.309-2.385,25.427,25.427,0,0,0,1.138,2.293,12.367,12.367,0,0,0,.891-2.322,11.922,11.922,0,0,0,1.16,2.185c.194-.633.417-1.7.612-2.271a4.709,4.709,0,0,0,1.765,1.789,7.974,7.974,0,0,0-.239-2.287,8.393,8.393,0,0,0,2.341,1.284,24.931,24.931,0,0,1-2.432-6.934Z" transform="translate(-2423.749 -2868.904)" fill="#006c47"/>
        <path id="Trazado_614463" data-name="Trazado 614463" d="M2429.916,2868.5a13.868,13.868,0,0,1-.886,4.565,14.59,14.59,0,0,1-2.124,4.651,22.038,22.038,0,0,0,2.358-1.413,8.972,8.972,0,0,1-.3,2.061c.61-.853,1.281-1.61,1.889-2.463a20.747,20.747,0,0,0,.585,2.861,27.065,27.065,0,0,1,1.131-3.04,6,6,0,0,0,1.729,2.455c-.247-1.177-.18-1.652-.3-2.414a5.155,5.155,0,0,0,2.4,1.888,43.449,43.449,0,0,1-1.806-5.311,44.123,44.123,0,0,0-1.715-4.8Z" transform="translate(-2424.865 -2862.179)" fill="#007b4e"/>
        <path id="Trazado_614464" data-name="Trazado 614464" d="M2432.212,2857.488a5.211,5.211,0,0,0-.714,2,47.954,47.954,0,0,1-1.519,5.162,11.461,11.461,0,0,1-1.253,2.4,5.584,5.584,0,0,0,1.944-1.384,7.346,7.346,0,0,1-.2,2.189,12.643,12.643,0,0,0,1.316-2.4c.216.922.385,1.621.571,2.479a6.492,6.492,0,0,0,.8-2.565,13.761,13.761,0,0,0,1.2,2.26,8.286,8.286,0,0,0-.092-2.348,12.9,12.9,0,0,0,1.734,1.725,19.262,19.262,0,0,1-1.675-4.15c-.306-1.188-.668-2.361-.977-3.548-.111-.422-.49-1.953-.831-1.955A.379.379,0,0,0,2432.212,2857.488Z" transform="translate(-2425.728 -2857.355)" fill="#008e6c"/>
      </g>
      <g id="Grupo_876499" data-name="Grupo 876499" transform="translate(349.817 164.744)">
        <path id="Trazado_614465" data-name="Trazado 614465" d="M2408.376,2908.494a41.966,41.966,0,0,1-3.988,10.89h0a10.533,10.533,0,0,0,3.325-2.117c-.156,1.181-.737,2.1-.966,3.277a12.5,12.5,0,0,0,3.416-2.649,13.248,13.248,0,0,1-.241,2.955,5.611,5.611,0,0,0,2.274-2.982,8.737,8.737,0,0,0,1.465,3.007,18.1,18.1,0,0,0,1.065-3.038c.807.891,1.339,2,2.445,2.526.007-1.108.013-1.979.02-3.088,1.031.6,1.838,1.49,3.02,1.794-.218-.74-.68-1.675-.949-2.522a5.364,5.364,0,0,0,2.878,1.425,45.712,45.712,0,0,1-3.817-6.258c-.951-1.558-1.155-3.355-1.883-4.913Z" transform="translate(-2404.388 -2888.248)" fill="#005d41"/>
        <path id="Trazado_614466" data-name="Trazado 614466" d="M2409.77,2899.91a28.716,28.716,0,0,1-3.607,8.994,23.927,23.927,0,0,0,3.041-1.606,22.57,22.57,0,0,1-.83,2.729,4.783,4.783,0,0,0,2.688-2.778,29.574,29.574,0,0,0,1.325,2.671,14.323,14.323,0,0,0,1.037-2.7,13.949,13.949,0,0,0,1.351,2.545c.227-.737.487-1.982.713-2.646a5.469,5.469,0,0,0,2.055,2.083,9.289,9.289,0,0,0-.278-2.663,9.776,9.776,0,0,0,2.726,1.5,29.012,29.012,0,0,1-2.831-8.075Z" transform="translate(-2405.229 -2884.982)" fill="#006c47"/>
        <path id="Trazado_614467" data-name="Trazado 614467" d="M2412.412,2884.508a16.135,16.135,0,0,1-1.033,5.316,17,17,0,0,1-2.474,5.417,25.725,25.725,0,0,0,2.746-1.645,10.47,10.47,0,0,1-.35,2.4c.71-.993,1.491-1.875,2.2-2.868.327,1.037.206,2.366.681,3.331a31.711,31.711,0,0,1,1.317-3.541,7.009,7.009,0,0,0,2.014,2.86c-.287-1.371-.209-1.924-.351-2.812a6.007,6.007,0,0,0,2.794,2.2,50.827,50.827,0,0,1-2.1-6.185,51.078,51.078,0,0,0-2-5.6Z" transform="translate(-2406.529 -2877.149)" fill="#007b4e"/>
        <path id="Trazado_614468" data-name="Trazado 614468" d="M2415.086,2871.686a6.076,6.076,0,0,0-.832,2.332,55.711,55.711,0,0,1-1.768,6.012,13.381,13.381,0,0,1-1.46,2.8,6.528,6.528,0,0,0,2.264-1.612,8.552,8.552,0,0,1-.237,2.549,14.71,14.71,0,0,0,1.533-2.8c.251,1.074.449,1.888.664,2.887a7.563,7.563,0,0,0,.926-2.988,16.15,16.15,0,0,0,1.4,2.633,9.649,9.649,0,0,0-.107-2.735,15.038,15.038,0,0,0,2.02,2.009,22.43,22.43,0,0,1-1.951-4.834c-.356-1.384-.778-2.75-1.138-4.133-.129-.491-.57-2.274-.968-2.276A.44.44,0,0,0,2415.086,2871.686Z" transform="translate(-2407.535 -2871.532)" fill="#008e6c"/>
      </g>
      <g id="Grupo_876500" data-name="Grupo 876500" transform="translate(68.385 43.353)">
        <path id="Trazado_614469" data-name="Trazado 614469" d="M1872.812,2672.5a36.028,36.028,0,0,1-3.424,9.351h0a9.057,9.057,0,0,0,2.856-1.818c-.134,1.014-.633,1.8-.83,2.813a10.731,10.731,0,0,0,2.933-2.275,11.408,11.408,0,0,1-.207,2.538,4.825,4.825,0,0,0,1.952-2.56,7.515,7.515,0,0,0,1.258,2.581,15.5,15.5,0,0,0,.914-2.609c.693.765,1.15,1.72,2.1,2.169.006-.951.012-1.7.017-2.651a10.772,10.772,0,0,0,2.594,1.541c-.187-.635-.584-1.438-.815-2.166a4.6,4.6,0,0,0,2.471,1.224,39.159,39.159,0,0,1-3.277-5.373c-.817-1.337-.991-2.881-1.617-4.218Z" transform="translate(-1869.388 -2655.121)" fill="#005d41"/>
        <path id="Trazado_614470" data-name="Trazado 614470" d="M1874.009,2665.135a24.67,24.67,0,0,1-3.1,7.723,20.55,20.55,0,0,0,2.61-1.38,19.189,19.189,0,0,1-.712,2.344,4.1,4.1,0,0,0,2.308-2.385c.313.7.762,1.656,1.138,2.294a12.3,12.3,0,0,0,.891-2.322,11.957,11.957,0,0,0,1.16,2.185c.195-.633.418-1.7.613-2.271a4.7,4.7,0,0,0,1.764,1.789,7.982,7.982,0,0,0-.238-2.287,8.391,8.391,0,0,0,2.341,1.284,24.906,24.906,0,0,1-2.431-6.934Z" transform="translate(-1870.111 -2652.317)" fill="#006c47"/>
        <path id="Trazado_614471" data-name="Trazado 614471" d="M1876.277,2651.91a13.855,13.855,0,0,1-.886,4.565,14.621,14.621,0,0,1-2.124,4.651,22.112,22.112,0,0,0,2.358-1.413,8.97,8.97,0,0,1-.3,2.061c.61-.853,1.281-1.611,1.888-2.463a20.761,20.761,0,0,0,.586,2.859,27.009,27.009,0,0,1,1.131-3.039,6.012,6.012,0,0,0,1.729,2.456c-.246-1.177-.18-1.652-.3-2.415a5.157,5.157,0,0,0,2.4,1.888,43.731,43.731,0,0,1-1.806-5.311,43.725,43.725,0,0,0-1.715-4.8Z" transform="translate(-1871.227 -2645.592)" fill="#007b4e"/>
        <path id="Trazado_614472" data-name="Trazado 614472" d="M1878.574,2640.9a5.228,5.228,0,0,0-.714,2,47.892,47.892,0,0,1-1.518,5.163,11.521,11.521,0,0,1-1.254,2.4,5.6,5.6,0,0,0,1.944-1.384,7.337,7.337,0,0,1-.2,2.189,12.637,12.637,0,0,0,1.317-2.4c.216.921.385,1.621.57,2.479a6.484,6.484,0,0,0,.8-2.565,13.882,13.882,0,0,0,1.2,2.26,8.32,8.32,0,0,0-.092-2.348,12.855,12.855,0,0,0,1.734,1.725,19.273,19.273,0,0,1-1.676-4.15c-.306-1.188-.668-2.362-.977-3.549-.111-.42-.49-1.952-.831-1.954A.383.383,0,0,0,1878.574,2640.9Z" transform="translate(-1872.09 -2640.768)" fill="#008e6c"/>
      </g>
      <g id="Grupo_876501" data-name="Grupo 876501" transform="translate(88.711 39.979)">
        <path id="Trazado_614473" data-name="Trazado 614473" d="M1911.45,2666.093a36.064,36.064,0,0,1-3.423,9.35h0a9.035,9.035,0,0,0,2.855-1.817c-.134,1.014-.632,1.8-.83,2.813a10.734,10.734,0,0,0,2.934-2.274,11.364,11.364,0,0,1-.207,2.537,4.814,4.814,0,0,0,1.953-2.56,7.489,7.489,0,0,0,1.258,2.581,15.535,15.535,0,0,0,.914-2.609c.693.765,1.149,1.719,2.1,2.169.006-.951.011-1.7.016-2.651a10.753,10.753,0,0,0,2.594,1.54c-.187-.634-.584-1.438-.815-2.165a4.609,4.609,0,0,0,2.471,1.224,39.264,39.264,0,0,1-3.277-5.373c-.817-1.338-.991-2.881-1.617-4.218Z" transform="translate(-1908.027 -2648.708)" fill="#005d41"/>
        <path id="Trazado_614474" data-name="Trazado 614474" d="M1912.647,2658.722a24.647,24.647,0,0,1-3.1,7.723,20.475,20.475,0,0,0,2.611-1.38,19.24,19.24,0,0,1-.713,2.344,4.1,4.1,0,0,0,2.308-2.385,25.467,25.467,0,0,0,1.139,2.293,12.336,12.336,0,0,0,.89-2.322,11.932,11.932,0,0,0,1.161,2.185c.194-.633.418-1.7.612-2.271a4.707,4.707,0,0,0,1.765,1.789,7.981,7.981,0,0,0-.239-2.287,8.408,8.408,0,0,0,2.341,1.284,24.915,24.915,0,0,1-2.431-6.934Z" transform="translate(-1908.749 -2645.904)" fill="#006c47"/>
        <path id="Trazado_614475" data-name="Trazado 614475" d="M1914.916,2645.5a13.845,13.845,0,0,1-.886,4.564,14.59,14.59,0,0,1-2.124,4.651,22.038,22.038,0,0,0,2.358-1.413,8.985,8.985,0,0,1-.3,2.061c.61-.853,1.28-1.61,1.888-2.463a20.761,20.761,0,0,0,.586,2.86,27.128,27.128,0,0,1,1.131-3.04,6,6,0,0,0,1.729,2.456c-.247-1.176-.18-1.652-.3-2.414a5.157,5.157,0,0,0,2.4,1.887,43.486,43.486,0,0,1-1.806-5.311,43.976,43.976,0,0,0-1.715-4.8Z" transform="translate(-1909.865 -2639.179)" fill="#007b4e"/>
        <path id="Trazado_614476" data-name="Trazado 614476" d="M1917.212,2634.488a5.219,5.219,0,0,0-.714,2,48.011,48.011,0,0,1-1.518,5.163,11.478,11.478,0,0,1-1.254,2.4,5.593,5.593,0,0,0,1.944-1.385,7.354,7.354,0,0,1-.2,2.189,12.631,12.631,0,0,0,1.316-2.4c.216.922.385,1.621.571,2.479a6.493,6.493,0,0,0,.795-2.565,13.825,13.825,0,0,0,1.2,2.26,8.286,8.286,0,0,0-.092-2.348,12.855,12.855,0,0,0,1.734,1.725,19.266,19.266,0,0,1-1.675-4.151c-.306-1.188-.668-2.361-.978-3.548-.111-.421-.49-1.953-.831-1.955A.381.381,0,0,0,1917.212,2634.488Z" transform="translate(-1910.728 -2634.355)" fill="#008e6c"/>
      </g>
      <g id="Grupo_876502" data-name="Grupo 876502" transform="translate(78.906 47.437)">
        <path id="Trazado_614477" data-name="Trazado 614477" d="M1893.376,2685.494a42.005,42.005,0,0,1-3.988,10.89h0a10.525,10.525,0,0,0,3.325-2.117c-.156,1.181-.736,2.1-.966,3.277a12.513,12.513,0,0,0,3.417-2.65,13.286,13.286,0,0,1-.242,2.955,5.613,5.613,0,0,0,2.274-2.982,8.724,8.724,0,0,0,1.464,3.006,18.028,18.028,0,0,0,1.065-3.038c.807.891,1.339,2,2.445,2.527.007-1.109.013-1.979.019-3.088,1.031.6,1.839,1.49,3.021,1.794-.218-.74-.68-1.675-.949-2.522a5.36,5.36,0,0,0,2.878,1.425,45.721,45.721,0,0,1-3.817-6.258c-.951-1.558-1.154-3.355-1.883-4.912Z" transform="translate(-1889.388 -2665.249)" fill="#005d41"/>
        <path id="Trazado_614478" data-name="Trazado 614478" d="M1894.77,2676.91a28.728,28.728,0,0,1-3.606,8.995,23.975,23.975,0,0,0,3.041-1.607,22.523,22.523,0,0,1-.83,2.729,4.781,4.781,0,0,0,2.688-2.777,29.641,29.641,0,0,0,1.326,2.671,14.3,14.3,0,0,0,1.037-2.7,13.924,13.924,0,0,0,1.351,2.545c.227-.738.487-1.981.713-2.646a5.474,5.474,0,0,0,2.055,2.083,9.286,9.286,0,0,0-.278-2.663,9.787,9.787,0,0,0,2.726,1.5,29.018,29.018,0,0,1-2.831-8.076Z" transform="translate(-1890.229 -2661.982)" fill="#006c47"/>
        <path id="Trazado_614479" data-name="Trazado 614479" d="M1897.412,2661.508a16.139,16.139,0,0,1-1.033,5.317,17,17,0,0,1-2.474,5.417,25.865,25.865,0,0,0,2.747-1.645,10.481,10.481,0,0,1-.35,2.4c.71-.993,1.491-1.875,2.2-2.868.327,1.037.206,2.366.681,3.331a31.57,31.57,0,0,1,1.317-3.541,7,7,0,0,0,2.014,2.86c-.287-1.371-.21-1.924-.351-2.812a6.006,6.006,0,0,0,2.794,2.2,50.762,50.762,0,0,1-2.1-6.186,51.009,51.009,0,0,0-2-5.594Z" transform="translate(-1891.529 -2654.15)" fill="#007b4e"/>
        <path id="Trazado_614480" data-name="Trazado 614480" d="M1900.086,2648.686a6.072,6.072,0,0,0-.832,2.332,55.8,55.8,0,0,1-1.769,6.013,13.37,13.37,0,0,1-1.46,2.8,6.525,6.525,0,0,0,2.265-1.612,8.551,8.551,0,0,1-.237,2.549,14.742,14.742,0,0,0,1.534-2.8c.251,1.074.449,1.888.664,2.887a7.563,7.563,0,0,0,.926-2.988,16.08,16.08,0,0,0,1.4,2.632,9.655,9.655,0,0,0-.107-2.734,15.013,15.013,0,0,0,2.019,2.009,22.456,22.456,0,0,1-1.951-4.834c-.356-1.383-.778-2.75-1.138-4.133-.129-.49-.571-2.274-.968-2.276A.44.44,0,0,0,1900.086,2648.686Z" transform="translate(-1892.534 -2648.532)" fill="#008e6c"/>
      </g>
      <g id="Grupo_876503" data-name="Grupo 876503" transform="translate(127.302 43.353)">
        <path id="Trazado_614481" data-name="Trazado 614481" d="M1984.812,2672.5a36.033,36.033,0,0,1-3.424,9.351h0a9.053,9.053,0,0,0,2.855-1.818c-.134,1.014-.633,1.8-.83,2.813a10.73,10.73,0,0,0,2.934-2.275,11.415,11.415,0,0,1-.207,2.538,4.825,4.825,0,0,0,1.952-2.56,7.515,7.515,0,0,0,1.258,2.581,15.526,15.526,0,0,0,.914-2.609c.693.765,1.15,1.72,2.1,2.169.006-.951.012-1.7.017-2.651a10.768,10.768,0,0,0,2.593,1.541c-.187-.635-.584-1.438-.815-2.166a4.6,4.6,0,0,0,2.472,1.224,39.184,39.184,0,0,1-3.277-5.373c-.817-1.337-.991-2.881-1.617-4.218Z" transform="translate(-1981.388 -2655.121)" fill="#005d41"/>
        <path id="Trazado_614482" data-name="Trazado 614482" d="M1986.009,2665.135a24.673,24.673,0,0,1-3.1,7.723,20.6,20.6,0,0,0,2.611-1.38,19.259,19.259,0,0,1-.713,2.344,4.106,4.106,0,0,0,2.308-2.385c.313.7.762,1.656,1.138,2.294a12.3,12.3,0,0,0,.891-2.322,11.935,11.935,0,0,0,1.16,2.185c.195-.633.418-1.7.612-2.271a4.7,4.7,0,0,0,1.764,1.789,7.99,7.99,0,0,0-.238-2.287,8.386,8.386,0,0,0,2.341,1.284,24.9,24.9,0,0,1-2.431-6.934Z" transform="translate(-1982.111 -2652.317)" fill="#006c47"/>
        <path id="Trazado_614483" data-name="Trazado 614483" d="M1988.278,2651.91a13.862,13.862,0,0,1-.886,4.565,14.619,14.619,0,0,1-2.124,4.651,22.148,22.148,0,0,0,2.358-1.413,9,9,0,0,1-.3,2.061c.61-.853,1.281-1.611,1.889-2.463a20.689,20.689,0,0,0,.585,2.859,26.962,26.962,0,0,1,1.131-3.039,6.009,6.009,0,0,0,1.729,2.456c-.247-1.177-.18-1.652-.3-2.415a5.157,5.157,0,0,0,2.4,1.888,43.669,43.669,0,0,1-1.807-5.311,43.769,43.769,0,0,0-1.715-4.8Z" transform="translate(-1983.227 -2645.592)" fill="#007b4e"/>
        <path id="Trazado_614484" data-name="Trazado 614484" d="M1990.574,2640.9a5.236,5.236,0,0,0-.714,2,47.837,47.837,0,0,1-1.518,5.163,11.508,11.508,0,0,1-1.253,2.4,5.61,5.61,0,0,0,1.944-1.384,7.341,7.341,0,0,1-.2,2.189,12.609,12.609,0,0,0,1.317-2.4c.216.921.385,1.621.57,2.479a6.486,6.486,0,0,0,.795-2.565,13.863,13.863,0,0,0,1.2,2.26,8.311,8.311,0,0,0-.092-2.348,12.848,12.848,0,0,0,1.734,1.725,19.278,19.278,0,0,1-1.675-4.15c-.306-1.188-.668-2.362-.977-3.549-.111-.42-.49-1.952-.831-1.954A.383.383,0,0,0,1990.574,2640.9Z" transform="translate(-1984.09 -2640.768)" fill="#008e6c"/>
      </g>
      <g id="Grupo_876504" data-name="Grupo 876504" transform="translate(147.628 39.979)">
        <path id="Trazado_614485" data-name="Trazado 614485" d="M2023.451,2666.093a36.056,36.056,0,0,1-3.424,9.35h0a9.033,9.033,0,0,0,2.855-1.817c-.134,1.014-.632,1.8-.83,2.813a10.733,10.733,0,0,0,2.934-2.274,11.378,11.378,0,0,1-.207,2.537,4.816,4.816,0,0,0,1.953-2.56,7.484,7.484,0,0,0,1.258,2.581,15.557,15.557,0,0,0,.914-2.609c.693.765,1.149,1.719,2.1,2.169.006-.951.011-1.7.016-2.651a10.749,10.749,0,0,0,2.594,1.54c-.187-.634-.584-1.438-.815-2.165a4.608,4.608,0,0,0,2.471,1.224,39.288,39.288,0,0,1-3.277-5.373c-.817-1.338-.991-2.881-1.617-4.218Z" transform="translate(-2020.027 -2648.708)" fill="#005d41"/>
        <path id="Trazado_614486" data-name="Trazado 614486" d="M2024.647,2658.722a24.659,24.659,0,0,1-3.1,7.723,20.489,20.489,0,0,0,2.611-1.38,19.24,19.24,0,0,1-.713,2.344,4.106,4.106,0,0,0,2.308-2.385,25.464,25.464,0,0,0,1.138,2.293,12.316,12.316,0,0,0,.891-2.322,11.932,11.932,0,0,0,1.16,2.185c.194-.633.418-1.7.612-2.271a4.711,4.711,0,0,0,1.765,1.789,7.981,7.981,0,0,0-.239-2.287,8.412,8.412,0,0,0,2.341,1.284,24.923,24.923,0,0,1-2.431-6.934Z" transform="translate(-2020.749 -2645.904)" fill="#006c47"/>
        <path id="Trazado_614487" data-name="Trazado 614487" d="M2026.916,2645.5a13.852,13.852,0,0,1-.886,4.564,14.583,14.583,0,0,1-2.124,4.651,22.059,22.059,0,0,0,2.358-1.413,8.959,8.959,0,0,1-.3,2.061c.61-.853,1.281-1.61,1.888-2.463a20.8,20.8,0,0,0,.586,2.86,27.082,27.082,0,0,1,1.131-3.04,6.006,6.006,0,0,0,1.729,2.456c-.247-1.176-.18-1.652-.3-2.414a5.157,5.157,0,0,0,2.4,1.887,43.4,43.4,0,0,1-1.806-5.311,43.924,43.924,0,0,0-1.715-4.8Z" transform="translate(-2021.865 -2639.179)" fill="#007b4e"/>
        <path id="Trazado_614488" data-name="Trazado 614488" d="M2029.212,2634.488a5.211,5.211,0,0,0-.714,2,48.07,48.07,0,0,1-1.519,5.163,11.488,11.488,0,0,1-1.254,2.4,5.59,5.59,0,0,0,1.944-1.385,7.346,7.346,0,0,1-.2,2.189,12.618,12.618,0,0,0,1.317-2.4c.216.922.385,1.621.571,2.479a6.488,6.488,0,0,0,.795-2.565,13.806,13.806,0,0,0,1.2,2.26,8.286,8.286,0,0,0-.092-2.348,12.855,12.855,0,0,0,1.734,1.725,19.253,19.253,0,0,1-1.675-4.151c-.306-1.188-.668-2.361-.978-3.548-.111-.421-.49-1.953-.831-1.955A.381.381,0,0,0,2029.212,2634.488Z" transform="translate(-2022.728 -2634.355)" fill="#008e6c"/>
      </g>
      <g id="Grupo_876505" data-name="Grupo 876505" transform="translate(109.753 41.663)">
        <path id="Trazado_614489" data-name="Trazado 614489" d="M1951.451,2669.293a36.071,36.071,0,0,1-3.423,9.35h0a9.03,9.03,0,0,0,2.855-1.817c-.134,1.014-.632,1.8-.83,2.813a10.717,10.717,0,0,0,2.934-2.275,11.383,11.383,0,0,1-.208,2.537,4.817,4.817,0,0,0,1.953-2.56,7.491,7.491,0,0,0,1.258,2.581,15.6,15.6,0,0,0,.914-2.609c.692.765,1.149,1.72,2.1,2.169.006-.952.011-1.7.016-2.651a10.763,10.763,0,0,0,2.594,1.54c-.187-.635-.584-1.439-.815-2.166a4.614,4.614,0,0,0,2.471,1.225,39.4,39.4,0,0,1-3.277-5.374c-.817-1.338-.991-2.881-1.617-4.218Z" transform="translate(-1948.027 -2651.909)" fill="#005d41"/>
        <path id="Trazado_614490" data-name="Trazado 614490" d="M1952.647,2661.923a24.651,24.651,0,0,1-3.1,7.723,20.585,20.585,0,0,0,2.611-1.38,19.265,19.265,0,0,1-.713,2.344,4.108,4.108,0,0,0,2.308-2.385,25.462,25.462,0,0,0,1.138,2.293,12.347,12.347,0,0,0,.891-2.321,11.914,11.914,0,0,0,1.16,2.185c.194-.633.418-1.7.612-2.271a4.7,4.7,0,0,0,1.765,1.789,7.972,7.972,0,0,0-.239-2.286,8.39,8.39,0,0,0,2.341,1.284,24.916,24.916,0,0,1-2.431-6.933Z" transform="translate(-1948.749 -2649.105)" fill="#006c47"/>
        <path id="Trazado_614491" data-name="Trazado 614491" d="M1954.916,2648.7a13.863,13.863,0,0,1-.886,4.565,14.6,14.6,0,0,1-2.124,4.651,22.057,22.057,0,0,0,2.358-1.412,8.978,8.978,0,0,1-.3,2.061c.61-.853,1.281-1.611,1.889-2.464a20.725,20.725,0,0,0,.585,2.861,27.035,27.035,0,0,1,1.131-3.04,6,6,0,0,0,1.729,2.456c-.247-1.177-.18-1.651-.3-2.414a5.154,5.154,0,0,0,2.4,1.888,43.463,43.463,0,0,1-1.806-5.311,43.947,43.947,0,0,0-1.715-4.8Z" transform="translate(-1949.865 -2642.381)" fill="#007b4e"/>
        <path id="Trazado_614492" data-name="Trazado 614492" d="M1957.212,2637.688a5.212,5.212,0,0,0-.714,2,48.146,48.146,0,0,1-1.519,5.163,11.462,11.462,0,0,1-1.254,2.4,5.6,5.6,0,0,0,1.945-1.384,7.349,7.349,0,0,1-.2,2.189,12.645,12.645,0,0,0,1.317-2.4c.216.922.385,1.621.571,2.479a6.494,6.494,0,0,0,.795-2.566,13.821,13.821,0,0,0,1.2,2.26,8.3,8.3,0,0,0-.092-2.348,12.836,12.836,0,0,0,1.734,1.725,19.247,19.247,0,0,1-1.675-4.15c-.306-1.188-.668-2.361-.978-3.548-.11-.422-.49-1.953-.831-1.955A.38.38,0,0,0,1957.212,2637.688Z" transform="translate(-1950.728 -2637.556)" fill="#008e6c"/>
      </g>
      <g id="Grupo_876506" data-name="Grupo 876506" transform="translate(279.854 74.265)">
        <path id="Trazado_614493" data-name="Trazado 614493" d="M2275.376,2736.494a42,42,0,0,1-3.988,10.89h0a10.523,10.523,0,0,0,3.325-2.116c-.156,1.18-.737,2.1-.966,3.276a12.51,12.51,0,0,0,3.417-2.649,13.312,13.312,0,0,1-.242,2.955,5.612,5.612,0,0,0,2.274-2.982,8.749,8.749,0,0,0,1.465,3.007,18.08,18.08,0,0,0,1.065-3.039c.807.891,1.339,2,2.445,2.527.007-1.108.013-1.979.019-3.088,1.031.6,1.839,1.49,3.021,1.794-.218-.74-.68-1.675-.95-2.521a5.364,5.364,0,0,0,2.878,1.425,45.777,45.777,0,0,1-3.817-6.257c-.951-1.558-1.154-3.356-1.883-4.913Z" transform="translate(-2271.388 -2716.248)" fill="#005d41"/>
        <path id="Trazado_614494" data-name="Trazado 614494" d="M2276.77,2727.91a28.726,28.726,0,0,1-3.607,8.995,23.987,23.987,0,0,0,3.041-1.607,22.49,22.49,0,0,1-.83,2.729,4.784,4.784,0,0,0,2.688-2.778,29.609,29.609,0,0,0,1.326,2.671,14.328,14.328,0,0,0,1.038-2.7,13.921,13.921,0,0,0,1.351,2.545c.227-.737.486-1.981.713-2.645a5.472,5.472,0,0,0,2.056,2.083,9.325,9.325,0,0,0-.278-2.663,9.788,9.788,0,0,0,2.726,1.5,29.016,29.016,0,0,1-2.831-8.075Z" transform="translate(-2272.229 -2712.982)" fill="#006c47"/>
        <path id="Trazado_614495" data-name="Trazado 614495" d="M2279.412,2712.508a16.152,16.152,0,0,1-1.033,5.317,17,17,0,0,1-2.474,5.417,25.719,25.719,0,0,0,2.746-1.646,10.459,10.459,0,0,1-.35,2.4c.71-.993,1.491-1.875,2.2-2.869.327,1.037.206,2.366.681,3.331a31.525,31.525,0,0,1,1.317-3.54,7.005,7.005,0,0,0,2.014,2.86c-.287-1.37-.209-1.924-.351-2.812a6,6,0,0,0,2.793,2.2,50.788,50.788,0,0,1-2.1-6.186,51.113,51.113,0,0,0-2-5.594Z" transform="translate(-2273.529 -2705.15)" fill="#007b4e"/>
        <path id="Trazado_614496" data-name="Trazado 614496" d="M2282.086,2699.686a6.079,6.079,0,0,0-.832,2.332,55.571,55.571,0,0,1-1.769,6.013,13.361,13.361,0,0,1-1.46,2.8,6.529,6.529,0,0,0,2.265-1.612,8.545,8.545,0,0,1-.238,2.549,14.724,14.724,0,0,0,1.534-2.8c.251,1.073.449,1.888.664,2.886a7.559,7.559,0,0,0,.926-2.988,16.075,16.075,0,0,0,1.4,2.633,9.673,9.673,0,0,0-.107-2.734,15.016,15.016,0,0,0,2.02,2.009,22.48,22.48,0,0,1-1.952-4.833c-.356-1.384-.778-2.751-1.137-4.133-.129-.49-.571-2.275-.968-2.276A.439.439,0,0,0,2282.086,2699.686Z" transform="translate(-2274.534 -2699.532)" fill="#008e6c"/>
      </g>
      <g id="Grupo_876507" data-name="Grupo 876507" transform="translate(293.531 74.791)">
        <path id="Trazado_614497" data-name="Trazado 614497" d="M2301.376,2737.494a41.985,41.985,0,0,1-3.988,10.89h0a10.517,10.517,0,0,0,3.325-2.117c-.156,1.181-.736,2.1-.966,3.277a12.508,12.508,0,0,0,3.417-2.65,13.3,13.3,0,0,1-.241,2.955,5.613,5.613,0,0,0,2.274-2.982,8.733,8.733,0,0,0,1.465,3.006,18,18,0,0,0,1.065-3.038c.807.891,1.339,2,2.445,2.527.007-1.108.013-1.979.019-3.088,1.031.6,1.839,1.49,3.021,1.794-.218-.74-.68-1.675-.949-2.522a5.361,5.361,0,0,0,2.878,1.425,45.7,45.7,0,0,1-3.817-6.258c-.951-1.558-1.155-3.355-1.883-4.913Z" transform="translate(-2297.388 -2717.248)" fill="#005d41"/>
        <path id="Trazado_614498" data-name="Trazado 614498" d="M2302.77,2728.91a28.739,28.739,0,0,1-3.607,8.995,23.98,23.98,0,0,0,3.041-1.607,22.614,22.614,0,0,1-.83,2.73,4.784,4.784,0,0,0,2.688-2.778,29.639,29.639,0,0,0,1.326,2.67,14.293,14.293,0,0,0,1.037-2.7,13.894,13.894,0,0,0,1.352,2.545c.227-.738.487-1.981.713-2.645a5.47,5.47,0,0,0,2.055,2.083,9.317,9.317,0,0,0-.278-2.663,9.783,9.783,0,0,0,2.726,1.5,28.987,28.987,0,0,1-2.831-8.075Z" transform="translate(-2298.229 -2713.982)" fill="#006c47"/>
        <path id="Trazado_614499" data-name="Trazado 614499" d="M2305.412,2713.508a16.15,16.15,0,0,1-1.032,5.317,17,17,0,0,1-2.474,5.417,25.9,25.9,0,0,0,2.747-1.645,10.47,10.47,0,0,1-.35,2.4c.71-.993,1.491-1.875,2.2-2.868.327,1.037.206,2.366.681,3.331a31.651,31.651,0,0,1,1.317-3.54,7,7,0,0,0,2.014,2.86c-.287-1.37-.209-1.924-.351-2.812a6.006,6.006,0,0,0,2.794,2.2,50.733,50.733,0,0,1-2.1-6.186,51.157,51.157,0,0,0-2-5.594Z" transform="translate(-2299.529 -2706.15)" fill="#007b4e"/>
        <path id="Trazado_614500" data-name="Trazado 614500" d="M2308.086,2700.686a6.075,6.075,0,0,0-.832,2.332,55.848,55.848,0,0,1-1.769,6.013,13.369,13.369,0,0,1-1.46,2.8,6.525,6.525,0,0,0,2.265-1.612,8.556,8.556,0,0,1-.237,2.55,14.748,14.748,0,0,0,1.533-2.8c.251,1.074.449,1.888.665,2.887a7.561,7.561,0,0,0,.926-2.988,16.108,16.108,0,0,0,1.4,2.632,9.682,9.682,0,0,0-.107-2.734,15.02,15.02,0,0,0,2.02,2.009,22.46,22.46,0,0,1-1.951-4.834c-.356-1.384-.778-2.75-1.138-4.133-.129-.49-.571-2.274-.968-2.276A.441.441,0,0,0,2308.086,2700.686Z" transform="translate(-2300.534 -2700.532)" fill="#008e6c"/>
      </g>
      <g id="Grupo_876508" data-name="Grupo 876508" transform="translate(240.927 39.144)">
        <path id="Trazado_614501" data-name="Trazado 614501" d="M2200.812,2664.505a36.042,36.042,0,0,1-3.424,9.351h0a9.056,9.056,0,0,0,2.855-1.818c-.134,1.014-.633,1.8-.829,2.813a10.764,10.764,0,0,0,2.934-2.275,11.384,11.384,0,0,1-.208,2.537,4.821,4.821,0,0,0,1.952-2.56,7.523,7.523,0,0,0,1.257,2.581,15.482,15.482,0,0,0,.914-2.609c.693.765,1.15,1.72,2.1,2.17.006-.952.011-1.7.017-2.651a10.77,10.77,0,0,0,2.593,1.54c-.186-.635-.584-1.439-.815-2.166a4.6,4.6,0,0,0,2.471,1.224,39.232,39.232,0,0,1-3.277-5.373c-.817-1.337-.991-2.881-1.617-4.218Z" transform="translate(-2197.388 -2647.121)" fill="#005d41"/>
        <path id="Trazado_614502" data-name="Trazado 614502" d="M2202.009,2657.135a24.665,24.665,0,0,1-3.1,7.723,20.559,20.559,0,0,0,2.611-1.38,19.2,19.2,0,0,1-.713,2.344,4.1,4.1,0,0,0,2.308-2.385c.313.7.762,1.656,1.138,2.294a12.372,12.372,0,0,0,.891-2.322,11.913,11.913,0,0,0,1.16,2.185c.195-.633.418-1.7.612-2.271a4.7,4.7,0,0,0,1.764,1.789,7.967,7.967,0,0,0-.238-2.286,8.4,8.4,0,0,0,2.341,1.284,24.91,24.91,0,0,1-2.431-6.934Z" transform="translate(-2198.111 -2644.317)" fill="#006c47"/>
        <path id="Trazado_614503" data-name="Trazado 614503" d="M2204.278,2643.911a13.856,13.856,0,0,1-.887,4.565,14.611,14.611,0,0,1-2.124,4.651,22.067,22.067,0,0,0,2.358-1.413,9,9,0,0,1-.3,2.061c.609-.853,1.28-1.611,1.888-2.463a20.867,20.867,0,0,0,.585,2.859,26.866,26.866,0,0,1,1.131-3.04,6.008,6.008,0,0,0,1.729,2.456c-.247-1.177-.18-1.652-.3-2.415a5.153,5.153,0,0,0,2.4,1.888,43.579,43.579,0,0,1-1.806-5.311,43.956,43.956,0,0,0-1.715-4.8Z" transform="translate(-2199.227 -2637.593)" fill="#007b4e"/>
        <path id="Trazado_614504" data-name="Trazado 614504" d="M2206.573,2632.9a5.232,5.232,0,0,0-.714,2,47.921,47.921,0,0,1-1.518,5.163,11.509,11.509,0,0,1-1.253,2.4,5.6,5.6,0,0,0,1.944-1.384,7.343,7.343,0,0,1-.2,2.189,12.6,12.6,0,0,0,1.316-2.4c.216.922.385,1.621.571,2.479a6.491,6.491,0,0,0,.795-2.565,13.863,13.863,0,0,0,1.2,2.26,8.3,8.3,0,0,0-.092-2.348,12.866,12.866,0,0,0,1.734,1.725,19.266,19.266,0,0,1-1.676-4.15c-.306-1.188-.668-2.362-.977-3.549-.111-.421-.49-1.953-.831-1.954A.381.381,0,0,0,2206.573,2632.9Z" transform="translate(-2200.09 -2632.768)" fill="#008e6c"/>
      </g>
      <g id="Grupo_876509" data-name="Grupo 876509" transform="translate(0 3.374)">
        <path id="Trazado_614505" data-name="Trazado 614505" d="M1742.812,2596.506a36.022,36.022,0,0,1-3.424,9.35h0a9.035,9.035,0,0,0,2.855-1.817c-.134,1.013-.633,1.8-.83,2.813a10.741,10.741,0,0,0,2.934-2.275,11.425,11.425,0,0,1-.207,2.538,4.824,4.824,0,0,0,1.952-2.561,7.509,7.509,0,0,0,1.258,2.581,15.489,15.489,0,0,0,.914-2.609c.693.765,1.15,1.72,2.1,2.17.006-.952.012-1.7.017-2.652a10.772,10.772,0,0,0,2.593,1.541c-.187-.635-.584-1.438-.815-2.166a4.606,4.606,0,0,0,2.471,1.224,39.261,39.261,0,0,1-3.277-5.373c-.817-1.338-.991-2.881-1.617-4.218Z" transform="translate(-1739.388 -2579.122)" fill="#005d41"/>
        <path id="Trazado_614506" data-name="Trazado 614506" d="M1744.009,2589.135a24.67,24.67,0,0,1-3.1,7.723,20.591,20.591,0,0,0,2.611-1.38,19.251,19.251,0,0,1-.712,2.344,4.105,4.105,0,0,0,2.308-2.385c.313.7.762,1.656,1.138,2.293a12.3,12.3,0,0,0,.891-2.322,11.926,11.926,0,0,0,1.16,2.185c.194-.633.418-1.7.612-2.271a4.7,4.7,0,0,0,1.764,1.789,7.961,7.961,0,0,0-.238-2.286,8.4,8.4,0,0,0,2.341,1.284,24.905,24.905,0,0,1-2.431-6.934Z" transform="translate(-1740.111 -2576.317)" fill="#006c47"/>
        <path id="Trazado_614507" data-name="Trazado 614507" d="M1746.278,2575.91a13.847,13.847,0,0,1-.887,4.565,14.609,14.609,0,0,1-2.124,4.651,22.15,22.15,0,0,0,2.358-1.413,8.994,8.994,0,0,1-.3,2.061c.609-.853,1.28-1.61,1.888-2.463a20.718,20.718,0,0,0,.586,2.859,26.955,26.955,0,0,1,1.131-3.039,6.012,6.012,0,0,0,1.729,2.456c-.247-1.177-.18-1.652-.3-2.415a5.158,5.158,0,0,0,2.4,1.888,43.67,43.67,0,0,1-1.807-5.311,43.82,43.82,0,0,0-1.715-4.8Z" transform="translate(-1741.226 -2569.592)" fill="#007b4e"/>
        <path id="Trazado_614508" data-name="Trazado 614508" d="M1748.573,2564.9a5.23,5.23,0,0,0-.714,2,47.864,47.864,0,0,1-1.518,5.163,11.534,11.534,0,0,1-1.254,2.4,5.605,5.605,0,0,0,1.944-1.384,7.341,7.341,0,0,1-.2,2.189,12.611,12.611,0,0,0,1.317-2.4c.216.922.385,1.621.57,2.479a6.481,6.481,0,0,0,.795-2.565,13.859,13.859,0,0,0,1.2,2.26,8.3,8.3,0,0,0-.092-2.347,12.9,12.9,0,0,0,1.734,1.725,19.268,19.268,0,0,1-1.675-4.15c-.306-1.188-.668-2.361-.977-3.549-.111-.421-.49-1.952-.831-1.954A.382.382,0,0,0,1748.573,2564.9Z" transform="translate(-1742.09 -2564.768)" fill="#008e6c"/>
      </g>
      <g id="Grupo_876510" data-name="Grupo 876510" transform="translate(20.326)">
        <path id="Trazado_614509" data-name="Trazado 614509" d="M1781.451,2590.093a36.069,36.069,0,0,1-3.424,9.35h0a9.031,9.031,0,0,0,2.855-1.818c-.134,1.014-.632,1.8-.829,2.813a10.728,10.728,0,0,0,2.934-2.275,11.367,11.367,0,0,1-.207,2.537,4.816,4.816,0,0,0,1.953-2.56,7.5,7.5,0,0,0,1.258,2.581,15.571,15.571,0,0,0,.914-2.609c.693.765,1.149,1.719,2.1,2.169.006-.951.011-1.7.016-2.651a10.761,10.761,0,0,0,2.593,1.54c-.187-.635-.584-1.438-.815-2.165a4.613,4.613,0,0,0,2.471,1.224,39.32,39.32,0,0,1-3.277-5.374c-.817-1.338-.991-2.881-1.617-4.218Z" transform="translate(-1778.027 -2572.708)" fill="#005d41"/>
        <path id="Trazado_614510" data-name="Trazado 614510" d="M1782.647,2582.722a24.66,24.66,0,0,1-3.1,7.724,20.564,20.564,0,0,0,2.611-1.38,19.2,19.2,0,0,1-.713,2.344,4.106,4.106,0,0,0,2.308-2.385c.313.7.762,1.656,1.138,2.293a12.324,12.324,0,0,0,.891-2.321,11.891,11.891,0,0,0,1.16,2.185c.194-.633.418-1.7.612-2.271a4.705,4.705,0,0,0,1.765,1.789,7.978,7.978,0,0,0-.239-2.287,8.406,8.406,0,0,0,2.341,1.284,24.916,24.916,0,0,1-2.431-6.934Z" transform="translate(-1778.749 -2569.904)" fill="#006c47"/>
        <path id="Trazado_614511" data-name="Trazado 614511" d="M1784.916,2569.5a13.876,13.876,0,0,1-.887,4.565,14.6,14.6,0,0,1-2.124,4.651,22.105,22.105,0,0,0,2.358-1.413,8.959,8.959,0,0,1-.3,2.061c.61-.853,1.28-1.61,1.889-2.463a20.729,20.729,0,0,0,.585,2.86,27.085,27.085,0,0,1,1.131-3.04,6.008,6.008,0,0,0,1.729,2.456c-.247-1.176-.18-1.652-.3-2.414a5.157,5.157,0,0,0,2.4,1.887,43.488,43.488,0,0,1-1.807-5.311,43.957,43.957,0,0,0-1.715-4.8Z" transform="translate(-1779.865 -2563.179)" fill="#007b4e"/>
        <path id="Trazado_614512" data-name="Trazado 614512" d="M1787.212,2558.488a5.222,5.222,0,0,0-.714,2,48.021,48.021,0,0,1-1.519,5.162,11.465,11.465,0,0,1-1.253,2.4,5.583,5.583,0,0,0,1.944-1.385,7.348,7.348,0,0,1-.2,2.19,12.639,12.639,0,0,0,1.317-2.4c.216.921.385,1.62.571,2.479a6.487,6.487,0,0,0,.795-2.565,13.8,13.8,0,0,0,1.2,2.26,8.3,8.3,0,0,0-.092-2.348,12.8,12.8,0,0,0,1.734,1.726,19.253,19.253,0,0,1-1.675-4.151c-.306-1.188-.668-2.361-.978-3.548-.11-.421-.49-1.953-.831-1.955A.379.379,0,0,0,1787.212,2558.488Z" transform="translate(-1780.728 -2558.355)" fill="#008e6c"/>
      </g>
      <g id="Grupo_876511" data-name="Grupo 876511" transform="translate(10.521 7.458)">
        <path id="Trazado_614513" data-name="Trazado 614513" d="M1763.376,2609.494a42,42,0,0,1-3.988,10.89h0a10.523,10.523,0,0,0,3.325-2.116c-.156,1.181-.736,2.1-.966,3.277a12.52,12.52,0,0,0,3.417-2.649,13.287,13.287,0,0,1-.242,2.955,5.612,5.612,0,0,0,2.274-2.982,8.732,8.732,0,0,0,1.465,3.007,18.017,18.017,0,0,0,1.065-3.038c.807.891,1.339,2,2.445,2.527.007-1.109.013-1.979.019-3.088,1.031.6,1.839,1.49,3.021,1.794-.218-.74-.68-1.676-.949-2.522a5.361,5.361,0,0,0,2.878,1.425,45.749,45.749,0,0,1-3.817-6.258c-.951-1.558-1.154-3.355-1.883-4.912Z" transform="translate(-1759.388 -2589.248)" fill="#005d41"/>
        <path id="Trazado_614514" data-name="Trazado 614514" d="M1764.77,2600.91a28.722,28.722,0,0,1-3.607,8.994,23.942,23.942,0,0,0,3.041-1.607,22.469,22.469,0,0,1-.83,2.73,4.782,4.782,0,0,0,2.688-2.778,29.771,29.771,0,0,0,1.326,2.671,14.288,14.288,0,0,0,1.037-2.7,13.929,13.929,0,0,0,1.351,2.545c.227-.737.487-1.981.713-2.646a5.473,5.473,0,0,0,2.055,2.083,9.309,9.309,0,0,0-.278-2.663,9.78,9.78,0,0,0,2.726,1.5,29.018,29.018,0,0,1-2.831-8.076Z" transform="translate(-1760.229 -2585.982)" fill="#006c47"/>
        <path id="Trazado_614515" data-name="Trazado 614515" d="M1767.412,2585.508a16.143,16.143,0,0,1-1.033,5.317,17,17,0,0,1-2.474,5.417,25.863,25.863,0,0,0,2.747-1.645,10.492,10.492,0,0,1-.35,2.4c.71-.993,1.491-1.875,2.2-2.868.328,1.037.206,2.366.681,3.331a31.6,31.6,0,0,1,1.317-3.54,7,7,0,0,0,2.014,2.86c-.287-1.37-.209-1.924-.351-2.812a6.01,6.01,0,0,0,2.794,2.2,50.841,50.841,0,0,1-2.1-6.186,51.157,51.157,0,0,0-2-5.594Z" transform="translate(-1761.529 -2578.15)" fill="#007b4e"/>
        <path id="Trazado_614516" data-name="Trazado 614516" d="M1770.086,2572.686a6.082,6.082,0,0,0-.832,2.332,55.731,55.731,0,0,1-1.768,6.013,13.386,13.386,0,0,1-1.46,2.8,6.529,6.529,0,0,0,2.265-1.612,8.555,8.555,0,0,1-.237,2.549,14.733,14.733,0,0,0,1.533-2.8c.251,1.074.449,1.888.664,2.887a7.551,7.551,0,0,0,.926-2.988,16.122,16.122,0,0,0,1.4,2.633,9.661,9.661,0,0,0-.108-2.734,15.005,15.005,0,0,0,2.02,2.009,22.452,22.452,0,0,1-1.951-4.834c-.356-1.384-.778-2.75-1.138-4.133-.129-.49-.571-2.274-.968-2.276A.441.441,0,0,0,1770.086,2572.686Z" transform="translate(-1762.534 -2572.532)" fill="#008e6c"/>
      </g>
      <g id="Grupo_876512" data-name="Grupo 876512" transform="translate(137.823 47.437)">
        <path id="Trazado_614517" data-name="Trazado 614517" d="M2005.376,2685.494a42,42,0,0,1-3.988,10.89h0a10.524,10.524,0,0,0,3.325-2.117c-.156,1.181-.737,2.1-.966,3.277a12.512,12.512,0,0,0,3.417-2.65,13.279,13.279,0,0,1-.241,2.955,5.612,5.612,0,0,0,2.274-2.982,8.73,8.73,0,0,0,1.464,3.006,18.027,18.027,0,0,0,1.065-3.038c.807.891,1.339,2,2.445,2.527.007-1.109.013-1.979.019-3.088,1.031.6,1.838,1.49,3.02,1.794-.218-.74-.68-1.675-.949-2.522a5.36,5.36,0,0,0,2.878,1.425,45.709,45.709,0,0,1-3.817-6.258c-.951-1.558-1.154-3.355-1.883-4.912Z" transform="translate(-2001.388 -2665.249)" fill="#005d41"/>
        <path id="Trazado_614518" data-name="Trazado 614518" d="M2006.77,2676.91a28.723,28.723,0,0,1-3.607,8.995,23.959,23.959,0,0,0,3.041-1.607,22.479,22.479,0,0,1-.83,2.729,4.78,4.78,0,0,0,2.688-2.777,29.641,29.641,0,0,0,1.326,2.671,14.3,14.3,0,0,0,1.037-2.7,13.924,13.924,0,0,0,1.351,2.545c.227-.738.487-1.981.713-2.646a5.475,5.475,0,0,0,2.055,2.083,9.3,9.3,0,0,0-.278-2.663,9.792,9.792,0,0,0,2.726,1.5,29,29,0,0,1-2.831-8.076Z" transform="translate(-2002.229 -2661.982)" fill="#006c47"/>
        <path id="Trazado_614519" data-name="Trazado 614519" d="M2009.412,2661.508a16.148,16.148,0,0,1-1.033,5.317,17.008,17.008,0,0,1-2.474,5.417,25.837,25.837,0,0,0,2.746-1.645,10.481,10.481,0,0,1-.35,2.4c.71-.993,1.491-1.875,2.2-2.868.327,1.037.206,2.366.681,3.331a31.691,31.691,0,0,1,1.317-3.541,7,7,0,0,0,2.014,2.86c-.287-1.371-.209-1.924-.351-2.812a6.007,6.007,0,0,0,2.794,2.2,50.845,50.845,0,0,1-2.1-6.186,51.086,51.086,0,0,0-2-5.594Z" transform="translate(-2003.529 -2654.15)" fill="#007b4e"/>
        <path id="Trazado_614520" data-name="Trazado 614520" d="M2012.086,2648.686a6.077,6.077,0,0,0-.832,2.332,55.717,55.717,0,0,1-1.768,6.013,13.382,13.382,0,0,1-1.46,2.8,6.526,6.526,0,0,0,2.265-1.612,8.555,8.555,0,0,1-.237,2.549,14.741,14.741,0,0,0,1.533-2.8c.251,1.074.449,1.888.664,2.887a7.561,7.561,0,0,0,.926-2.988,16.08,16.08,0,0,0,1.4,2.632,9.655,9.655,0,0,0-.107-2.734,15.034,15.034,0,0,0,2.02,2.009,22.431,22.431,0,0,1-1.951-4.834c-.356-1.383-.778-2.75-1.138-4.133-.129-.49-.571-2.274-.968-2.276A.44.44,0,0,0,2012.086,2648.686Z" transform="translate(-2004.534 -2648.532)" fill="#008e6c"/>
      </g>
    </g>
    <path id="Trazado_614521" data-name="Trazado 614521" d="M2292.836,3015.326c-.885,4.664,4.112,8.367,8.739,9.429s9.781.92,13.6,3.742c4.056,3,5.33,8.373,6.8,13.2s4.029,10.107,8.907,11.388c1.559.41,3.488.526,4.251,1.946a7.862,7.862,0,0,1,.416,2.856c.4,3.334,3.893,5.251,6.96,6.62,1.11.5,2.6.918,3.387-.006a2.83,2.83,0,0,0,.511-1.413,112.292,112.292,0,0,0,1.332-24.666c-.269-4.758-.76-9.878,1.7-13.959,2.03-3.366,5.686-5.344,9.169-7.164a343.548,343.548,0,0,0-63.6-1.265" transform="translate(-286.145 -304.339)" fill="#aee0ef"/>
    <text id="AFLUENTE" transform="translate(1915 2534.086)" fill="#12263f" font-size="12" font-family="Roboto-Bold, Roboto" font-weight="700"><tspan x="-29.15" y="0">AFLUENTE</tspan></text>
    <text id="RÍO_DESEMBOCADURA" data-name="RÍO
DESEMBOCADURA" transform="translate(1910.685 2573.972)" fill="#12263f" font-size="12" font-family="Roboto-Bold, Roboto" font-weight="700"><tspan x="-9.721" y="0">RÍO</tspan><tspan x="-51.243" y="11">DESEMBOCADURA</tspan></text>
    <text id="HUMEDAL" transform="translate(1798.943 2561.1)" fill="#12263f" font-size="12" font-family="Roboto-Bold, Roboto" font-weight="700"><tspan x="-28.005" y="0">HUMEDAL</tspan></text>
    <text id="AGUAS_SUBTERRANEAS" data-name="AGUAS
SUBTERRANEAS" transform="translate(1752.825 2611.5)" fill="#fff" font-size="12" font-family="Roboto-Bold, Roboto" font-weight="700"><tspan x="-19.734" y="0">AGUAS</tspan><tspan x="-45.507" y="11">SUBTERRANEAS</tspan></text>
  </g>
</svg>
