<svg xmlns="http://www.w3.org/2000/svg" width="307.511" height="361.809" viewBox="0 0 307.511 361.809">
  <g id="Grupo_875530" data-name="Grupo 875530" transform="translate(-706 -238.852)">
    <g id="Grupo_875407" data-name="Grupo 875407" transform="translate(825.674 470.338)">
      <path id="Trazado_612686" data-name="Trazado 612686" d="M989.717,830.278c-5.423-11.151-1.839-24.13,7.328-30.044,7.234-4.667,17.085-4.38,24.914.733a22.176,22.176,0,0,1,13.19-8.793c8.295-1.681,17.163,2.059,22.716,9.526,6.03-16.733,21.822-25.973,34.441-23.449,15.552,3.111,28.347,24.5,19.785,46.165a15.632,15.632,0,0,1,10.992,6.6c4.263,6.379,1.713,13.286,1.465,13.923,3.1-1.7,9.139-4.317,14.656-2.2,8.719,3.349,14.2,17.781,8.794,34.441-74.412,36.72-139.051,32.746-157.548,3.664C987.155,875.659,979.625,860.722,989.717,830.278Z" transform="translate(-984.645 -777.839)" fill="#81ad20"/>
    </g>
    <g id="Grupo_875408" data-name="Grupo 875408" transform="translate(714.234 481.154)">
      <path id="Trazado_612687" data-name="Trazado 612687" d="M725.171,895.207a46.231,46.231,0,0,1,19.785-38.1c-8.341-12.637-7.047-27.9,1.465-35.906,7.381-6.943,17.69-6.081,19.785-5.862,4.051-9.167,9.344-11.209,10.992-11.724,10.445-3.268,26.455,7.208,35.173,28.579,2.065-3.3,6.516-9.163,13.19-10.259,10.606-1.742,24.213,8.974,28.579,27.846a32.642,32.642,0,0,1,13.923-3.664c17.78-.491,35.42,14.812,45.433,38.1Z" transform="translate(-725.171 -803.022)" fill="#9dc13a"/>
    </g>
    <g id="Grupo_875409" data-name="Grupo 875409" transform="translate(706 555.855)">
      <ellipse id="Elipse_4842" data-name="Elipse 4842" cx="153.755" cy="22.403" rx="153.755" ry="22.403" transform="translate(0 0)" fill="#d2e1f1"/>
    </g>
    <g id="Grupo_875410" data-name="Grupo 875410" transform="translate(798.47 582.685)">
      <ellipse id="Elipse_4843" data-name="Elipse 4843" cx="69.167" cy="3.872" rx="69.167" ry="3.872" transform="translate(0)" fill="#b3cce2"/>
    </g>
    <g id="Grupo_875415" data-name="Grupo 875415" transform="translate(778.345 518.867)">
      <g id="Grupo_875411" data-name="Grupo 875411" transform="translate(4.996 32.394)">
        <path id="Trazado_612688" data-name="Trazado 612688" d="M933.005,973.874a7.628,7.628,0,0,0-6.633-5.9,7.772,7.772,0,0,0-6.143,2.7,11.881,11.881,0,0,0-7.125-1.474,11.53,11.53,0,0,0-4.422,1.474,6.7,6.7,0,0,0-12.285-.737,6.744,6.744,0,0,0-5.406-1.228,6.831,6.831,0,0,0-4.914,6.388,98.925,98.925,0,0,0,46.927-1.228Z" transform="translate(-886.078 -966.257)" fill="#323d4c"/>
      </g>
      <g id="Grupo_875412" data-name="Grupo 875412" transform="translate(7.544 37.938)">
        <path id="Trazado_612689" data-name="Trazado 612689" d="M934.347,982.422c0,1.8-9.477,3.256-21.168,3.256s-21.168-1.458-21.168-3.256,9.477-3.256,21.168-3.256S934.347,980.624,934.347,982.422Z" transform="translate(-892.011 -979.166)" fill="#7ce3ff"/>
      </g>
      <g id="Grupo_875413" data-name="Grupo 875413" transform="translate(0 37.838)">
        <path id="Trazado_612690" data-name="Trazado 612690" d="M931.447,984.3a5.432,5.432,0,0,0-10.155-2.621,21.26,21.26,0,0,0-11.138,1.965,8.728,8.728,0,0,0-12.448-.655,8.641,8.641,0,0,0-7.207-1.966,7.87,7.87,0,0,0-3.931,2.293,6.559,6.559,0,0,0-12.121,1.965,164.254,164.254,0,0,0,57-.983Z" transform="translate(-874.446 -978.932)" fill="#414c5c"/>
      </g>
      <g id="Grupo_875414" data-name="Grupo 875414" transform="translate(11.539)">
        <path id="Trazado_612691" data-name="Trazado 612691" d="M917.029,929.688l3.659-.1a4,4,0,0,1-1.728-1.829c-1.669-3.832,3.849-11.1,9.858-15.347,3.512-2.483,6.021-3.107,6.2-5.183.174-2.027-1.953-4.531-4.268-4.878-4.668-.7-10.058,7.382-11.993,14.025a25.047,25.047,0,0,0-.914,4.98,20.936,20.936,0,0,1-.915-6.708c.315-10.479,8.763-15.718,6.4-20.733a5.364,5.364,0,0,0-5.082-3.049c-4.393.647-5.767,10.935-5.895,11.891a30.9,30.9,0,0,0,3.354,17.887,18.073,18.073,0,0,1-5.488-5.895c-3.562-6.294-1.617-12.585-3.862-13.314-1.429-.464-3.822,1.564-4.675,3.862-1.681,4.529,2.725,9.8,6,13.721a41.52,41.52,0,0,0,10.163,8.74Z" transform="translate(-901.312 -890.831)" fill="#00bdad"/>
      </g>
    </g>
    <g id="Grupo_875420" data-name="Grupo 875420" transform="translate(717.091 540.344)">
      <g id="Grupo_875416" data-name="Grupo 875416" transform="translate(4.996 32.394)">
        <path id="Trazado_612692" data-name="Trazado 612692" d="M790.384,1023.882a7.628,7.628,0,0,0-6.634-5.9,7.771,7.771,0,0,0-6.142,2.7,11.882,11.882,0,0,0-7.125-1.474,11.533,11.533,0,0,0-4.423,1.474,6.7,6.7,0,0,0-12.285-.737,6.744,6.744,0,0,0-5.405-1.229,6.831,6.831,0,0,0-4.914,6.388,98.94,98.94,0,0,0,46.927-1.228Z" transform="translate(-743.457 -1016.265)" fill="#323d4c"/>
      </g>
      <g id="Grupo_875417" data-name="Grupo 875417" transform="translate(7.544 37.938)">
        <path id="Trazado_612693" data-name="Trazado 612693" d="M791.726,1032.43c0,1.8-9.477,3.256-21.168,3.256s-21.168-1.458-21.168-3.256,9.477-3.256,21.168-3.256S791.726,1030.632,791.726,1032.43Z" transform="translate(-749.39 -1029.174)" fill="#7ce3ff"/>
      </g>
      <g id="Grupo_875418" data-name="Grupo 875418" transform="translate(0 37.838)">
        <path id="Trazado_612694" data-name="Trazado 612694" d="M788.826,1034.307a5.433,5.433,0,0,0-10.156-2.621,21.274,21.274,0,0,0-11.138,1.965,8.728,8.728,0,0,0-12.449-.655,8.64,8.64,0,0,0-7.207-1.966,7.869,7.869,0,0,0-3.931,2.293,6.56,6.56,0,0,0-12.121,1.966,164.229,164.229,0,0,0,57-.983Z" transform="translate(-731.825 -1028.94)" fill="#414c5c"/>
      </g>
      <g id="Grupo_875419" data-name="Grupo 875419" transform="translate(11.538)">
        <path id="Trazado_612695" data-name="Trazado 612695" d="M774.407,979.7l3.659-.1a4,4,0,0,1-1.728-1.83c-1.668-3.832,3.849-11.1,9.858-15.346,3.512-2.483,6.021-3.108,6.2-5.183.174-2.027-1.953-4.532-4.269-4.878-4.668-.7-10.058,7.381-11.992,14.025a25.05,25.05,0,0,0-.915,4.98,20.941,20.941,0,0,1-.914-6.708c.315-10.479,8.763-15.718,6.4-20.733a5.363,5.363,0,0,0-5.081-3.049c-4.393.647-5.767,10.936-5.895,11.891a30.9,30.9,0,0,0,3.354,17.888,18.075,18.075,0,0,1-5.488-5.895c-3.562-6.294-1.617-12.585-3.862-13.314-1.429-.464-3.822,1.564-4.675,3.862-1.682,4.529,2.724,9.8,6,13.72a41.513,41.513,0,0,0,10.163,8.74Z" transform="translate(-758.691 -940.839)" fill="#00bdad"/>
      </g>
    </g>
    <g id="Grupo_875421" data-name="Grupo 875421" transform="translate(751.377 505.724)">
      <path id="Trazado_612696" data-name="Trazado 612696" d="M813.787,861.3a1.066,1.066,0,1,1-1.066-1.066A1.067,1.067,0,0,1,813.787,861.3Z" transform="translate(-811.654 -860.231)" fill="#8d9103"/>
    </g>
    <g id="Grupo_875422" data-name="Grupo 875422" transform="translate(817.611 501.271)">
      <path id="Trazado_612697" data-name="Trazado 612697" d="M968.419,851.134a1.274,1.274,0,1,1-1.274-1.273A1.274,1.274,0,0,1,968.419,851.134Z" transform="translate(-965.872 -849.861)" fill="#8d9103"/>
    </g>
    <g id="Grupo_875423" data-name="Grupo 875423" transform="translate(762.033 291.695)">
      <path id="Trazado_612698" data-name="Trazado 612698" d="M934.857,361.891a14.562,14.562,0,0,1,4.93,9.86,14.241,14.241,0,0,1-2.3,8.546l-23.336,4.93q2.3,35.99,4.6,71.981a18,18,0,0,0-9.2,5.917c-3.13,4.021-1.752,6.551-4.93,10.846-3.552,4.8-6.553,3.37-10.518,8.217-4.366,5.337-3.77,10.792-5.587,10.846-2.337.07-2.132-8.99-8.874-14.791-3.748-3.224-7.345-3.464-9.2-4.273-6.231-2.713-9.377-19,1.972-75.268l-29.252,9.532a14.975,14.975,0,0,1-5.588-6.573c-3.073-7.226,1.2-14.1,1.643-14.791Z" transform="translate(-836.465 -361.891)" fill="#e26c1e"/>
    </g>
    <g id="Grupo_875424" data-name="Grupo 875424" transform="translate(752.147 295.17)">
      <rect id="Rect치ngulo_293245" data-name="Rect치ngulo 293245" width="121.551" height="8.926" transform="matrix(0.968, -0.253, 0.253, 0.968, 0, 30.705)" fill="#ffd5af"/>
    </g>
    <g id="Grupo_875425" data-name="Grupo 875425" transform="translate(830.762 290.38)">
      <path id="Trazado_612699" data-name="Trazado 612699" d="M996.492,367.95c.731,1.642,1.849,4.3,2.958,7.642,6.8,20.516,2.643,34.887,3.2,56.451a158.98,158.98,0,0,0,3.944,31.06l6.656-6.163q-2.466-35.621-4.931-71.241l22.186-4.437c3.492-6.061,3.592-8.453,2.712-9.367-1.415-1.47-5.726.5-6.163-.493-.343-.781,2.405-1.791,3.2-4.684a7.87,7.87,0,0,0-.493-4.93,8.933,8.933,0,0,0-1.972-2.958Z" transform="translate(-996.492 -358.829)" fill="#fda829"/>
    </g>
    <g id="Grupo_875426" data-name="Grupo 875426" transform="translate(836.811 352.824)">
      <path id="Trazado_612700" data-name="Trazado 612700" d="M1010.576,516.26c2.572,1.69,5.4,3.39,8.476,5.037a109.32,109.32,0,0,0,17.567,7.494l5.528-16.953-26.166-7.616Z" transform="translate(-1010.576 -504.221)" fill="#ff887c"/>
    </g>
    <g id="Grupo_875427" data-name="Grupo 875427" transform="translate(854.5 356.877)">
      <path id="Trazado_612701" data-name="Trazado 612701" d="M1081.615,516.772h-8.845l-18.181-3.112a26.5,26.5,0,0,0-2.785,13.268,25.722,25.722,0,0,0,1.474,7.207l21.621,5.242Z" transform="translate(-1051.763 -513.66)" fill="#005372"/>
    </g>
    <g id="Grupo_875428" data-name="Grupo 875428" transform="translate(818.299 325.273)">
      <path id="Trazado_612702" data-name="Trazado 612702" d="M982.466,477.667c1.438,1.241,4.453,3.843,8.195,3.511a7.678,7.678,0,0,0,1.927-.429h0a12.048,12.048,0,0,0,5.267-10.257c-4.491-6.085-9.432-12.369-14.863-18.766q-5.212-6.14-10.345-11.652l-5.173,4.505C972.517,461.977,978.513,474.255,982.466,477.667Z" transform="translate(-967.474 -440.073)" fill="#ff887c"/>
    </g>
    <g id="Grupo_875429" data-name="Grupo 875429" transform="translate(812.683 312.491)">
      <path id="Trazado_612703" data-name="Trazado 612703" d="M969.6,433.7a28.736,28.736,0,0,0,.252-6.357,21.812,21.812,0,0,0-1.242-6.4,14.288,14.288,0,0,0-2.451-4.674c-1.233-1.475-1.984-1.632-2.655-3.11-.659-1.453-.518-2.593-1.209-2.811-.546-.173-1.264.341-1.616.881-.255.391-.488,1.061.106,3.209a19.054,19.054,0,0,0,1.617,4,6.871,6.871,0,0,0-2.622-1.048c-.358-.061-3.719-.636-4.792,1.23a3.321,3.321,0,0,0-.028,2.71,3.615,3.615,0,0,0-.54,1.5,4.1,4.1,0,0,0,1.108,3.134q.093.917.187,1.834a7.239,7.239,0,0,0,1.086,2.518C960.275,435.354,969.212,433.773,969.6,433.7Z" transform="translate(-954.398 -410.311)" fill="#253153"/>
    </g>
    <g id="Grupo_875430" data-name="Grupo 875430" transform="translate(912.361 547.087)">
      <path id="Trazado_612704" data-name="Trazado 612704" d="M1205.568,956.539c.71,5.337,1.246,11.171,1.474,17.444.17,4.674.151,9.107,0,13.267a39.279,39.279,0,0,1,.737,4.177c.16,1.318.242,2.552.272,3.685h-21.436a6.6,6.6,0,0,1,1.29-5.406,6.53,6.53,0,0,1,4.586-2.293q-2.674-13.964-5.35-27.927Z" transform="translate(-1186.485 -956.539)" fill="#ffa150"/>
    </g>
    <g id="Grupo_875431" data-name="Grupo 875431" transform="translate(917.561 576.989)">
      <path id="Trazado_612705" data-name="Trazado 612705" d="M1198.594,1028.036a30.913,30.913,0,0,1,6.224,1.31c2.688.862,4.284,1.781,4.914,1.146.566-.57.157-2.2-.655-3.112C1207.389,1025.486,1203.236,1025.873,1198.594,1028.036Z" transform="translate(-1198.594 -1026.162)" fill="#df7f44"/>
    </g>
    <g id="Grupo_875432" data-name="Grupo 875432" transform="translate(912.279 547.578)">
      <path id="Trazado_612706" data-name="Trazado 612706" d="M1186.295,961.614q.8,3.133,1.6,6.265a25.235,25.235,0,0,0,19.287-3.194q-.246-3.5-.491-7Z" transform="translate(-1186.295 -957.683)" fill="#df7f44"/>
    </g>
    <g id="Grupo_875433" data-name="Grupo 875433" transform="translate(866.851 552.492)">
      <path id="Trazado_612707" data-name="Trazado 612707" d="M1092.136,969.124c.728,2.666,1.4,5.536,1.966,8.6a106.182,106.182,0,0,1,1.72,15.97,25.29,25.29,0,0,1-8.6,2.948c-2.785.4-5.056.2-6.143,1.72-.84,1.173-.569,2.8-.245,3.931h30.957a11.274,11.274,0,0,0-1.474-6.142q-.123-13.513-.246-27.026Z" transform="translate(-1080.521 -969.124)" fill="#ffa150"/>
    </g>
    <g id="Grupo_875434" data-name="Grupo 875434" transform="translate(877.514 551.387)">
      <path id="Trazado_612708" data-name="Trazado 612708" d="M1105.348,966.55q.921,3.931,1.843,7.862a26.373,26.373,0,0,0,6.879,1.351,26.807,26.807,0,0,0,11.425-1.843v-6.265Z" transform="translate(-1105.348 -966.55)" fill="#df7f44"/>
    </g>
    <g id="Grupo_875435" data-name="Grupo 875435" transform="translate(870.089 356.262)">
      <path id="Trazado_612709" data-name="Trazado 612709" d="M1124.6,512.559a34.764,34.764,0,0,1,17.69,8.353c-1.363,6.943-2.583,14.21-3.6,21.785a370.218,370.218,0,0,0-3.276,54.543,72.83,72.83,0,0,1-45.862,1.8,227.021,227.021,0,0,1,4.75-78.785,50.184,50.184,0,0,1,14.742-6.388A37.912,37.912,0,0,1,1124.6,512.559Z" transform="translate(-1088.061 -512.228)" fill="#005372"/>
    </g>
    <g id="Grupo_875436" data-name="Grupo 875436" transform="translate(888.755 337.706)">
      <path id="Trazado_612710" data-name="Trazado 612710" d="M1148.126,469.022q.635,9.607,1.27,19.215l-13.431,12.449a27.421,27.421,0,0,1-3.213-12.448q-.615-8.415-1.229-16.83a57.374,57.374,0,0,1,16.6-2.385Z" transform="translate(-1131.523 -469.022)" fill="#f07363"/>
    </g>
    <g id="Grupo_875437" data-name="Grupo 875437" transform="translate(892.096 346.787)">
      <path id="Trazado_612711" data-name="Trazado 612711" d="M1139.3,497.229a21.651,21.651,0,0,0,5.221.676,21.989,21.989,0,0,0,9.029-1.9q-.215-2.918-.43-5.835Z" transform="translate(-1139.301 -490.165)" fill="#c4574a"/>
    </g>
    <g id="Grupo_875438" data-name="Grupo 875438" transform="translate(870.395 437.345)">
      <path id="Trazado_612712" data-name="Trazado 612712" d="M1089.462,704.282q-.522,9.721-.655,19.884a482.51,482.51,0,0,0,6.715,86.1q-.123,3.194-.246,6.388a50.973,50.973,0,0,0,10.073,1.474c4.375.2,10.943.5,12.039-2.211.253-.623.429-1.937-1.474-4.422q-.777-36.988-1.556-73.977l14.578,72.994c-1.261,2.266-1.029,3.521-.737,4.177,1.913,4.3,14.685,1.518,15.969,1.228,3.537-.8,7.222-1.675,7.862-4.207.432-1.707-.705-3.437-1.474-4.392-.9-18.187-2.594-37.77-5.405-58.523-2.293-16.926-5.094-32.877-8.19-47.78Z" transform="translate(-1088.772 -701.018)" fill="#005372"/>
    </g>
    <g id="Grupo_875439" data-name="Grupo 875439" transform="translate(868.524 396.232)">
      <path id="Trazado_612713" data-name="Trazado 612713" d="M1144.851,752.336q-5.569-53.52-11.138-107.039a37.475,37.475,0,0,1-6.77-8.31c-7.36-12.315-5.356-25.386-4.422-29.974l-32.185-1.72q-1.372,8.57-2.457,17.444a483.524,483.524,0,0,0,2.594,133.858,14.55,14.55,0,0,0,12.776-.327c2.067,1.223,9.309,5.161,17.69,2.948a20.483,20.483,0,0,0,5.9-2.621,29.821,29.821,0,0,0,18.017-4.259Z" transform="translate(-1084.416 -605.293)" fill="#148d80"/>
    </g>
    <g id="Grupo_875440" data-name="Grupo 875440" transform="translate(874.359 359.162)">
      <path id="Trazado_612714" data-name="Trazado 612714" d="M1103.41,558.834a89.387,89.387,0,0,1,.163-13.595,90.371,90.371,0,0,1,6.388-26.207,30.913,30.913,0,0,0-7.78.529,142.168,142.168,0,0,0-4.013,41.075Z" transform="translate(-1098.003 -518.979)" fill="#148d80"/>
    </g>
    <g id="Grupo_875441" data-name="Grupo 875441" transform="translate(875.213 395.126)">
      <path id="Trazado_612715" data-name="Trazado 612715" d="M1099.991,604.807a1.757,1.757,0,1,0,1.725-2.089A1.933,1.933,0,0,0,1099.991,604.807Z" transform="translate(-1099.991 -602.718)" fill="#a34f38"/>
    </g>
    <g id="Grupo_875442" data-name="Grupo 875442" transform="translate(884.889 356.664)">
      <path id="Trazado_612716" data-name="Trazado 612716" d="M1130.829,525.869l-4.259-2.047-4.049,1.638,2.7-10.565,2.415-1.731.411,2.878Z" transform="translate(-1122.521 -513.164)" fill="#003b52"/>
    </g>
    <g id="Grupo_875443" data-name="Grupo 875443" transform="translate(892.181 368.346)" opacity="0.52" style="mix-blend-mode: multiply;isolation: isolate">
      <path id="Trazado_612717" data-name="Trazado 612717" d="M1139.5,540.9l1.341,7.019,1.426-7.555-1.751,1.024Z" transform="translate(-1139.5 -540.363)" fill="#730031"/>
    </g>
    <g id="Grupo_875444" data-name="Grupo 875444" transform="translate(893.197 355.446)">
      <path id="Trazado_612718" data-name="Trazado 612718" d="M1141.865,524.25l5.139-1.8,7.064,2.246,3.87-13.145-2.739-1.23.1,1.476Z" transform="translate(-1141.865 -510.326)" fill="#003b52"/>
    </g>
    <g id="Grupo_875445" data-name="Grupo 875445" transform="translate(909.066 434.356)">
      <path id="Trazado_612719" data-name="Trazado 612719" d="M1178.814,696.515l8.681-2.457a11.091,11.091,0,0,1,1.965,4.422,10.954,10.954,0,0,1,.164,3.112l-9.5,4.586Z" transform="translate(-1178.814 -694.058)" fill="#0d6d5f"/>
    </g>
    <g id="Grupo_875446" data-name="Grupo 875446" transform="translate(899.402 359.174)">
      <path id="Trazado_612720" data-name="Trazado 612720" d="M1156.313,560.119c1.029-4.028,2.269-8.246,3.767-12.612a164.377,164.377,0,0,1,12.94-28.5,12.962,12.962,0,0,1,5.733,3.6q-3.138,8.493-6.552,17.2-4.689,11.948-9.5,23.259Z" transform="translate(-1156.313 -519.007)" fill="#148d80"/>
    </g>
    <g id="Grupo_875447" data-name="Grupo 875447" transform="translate(901.547 397.667)">
      <path id="Trazado_612721" data-name="Trazado 612721" d="M1161.395,610.244a1.757,1.757,0,1,0,2.214-1.56A1.933,1.933,0,0,0,1161.395,610.244Z" transform="translate(-1161.305 -608.633)" fill="#a34f38"/>
    </g>
    <g id="Grupo_875448" data-name="Grupo 875448" transform="translate(872.992 366.231)" opacity="0.52" style="mix-blend-mode: multiply;isolation: isolate">
      <path id="Trazado_612722" data-name="Trazado 612722" d="M1095.779,552.947a22.98,22.98,0,0,1-.9-4.914,24.287,24.287,0,0,1,2.618-12.6Z" transform="translate(-1094.819 -535.438)" fill="#730031"/>
    </g>
    <g id="Grupo_875449" data-name="Grupo 875449" transform="translate(874.997 413.308)">
      <path id="Trazado_612723" data-name="Trazado 612723" d="M1125.04,646.771l-24.815-1.72q-.369,9.214-.737,18.427a23.281,23.281,0,0,0,12.53,8.845,32.49,32.49,0,0,0,13.513-8.6Q1125.285,655.248,1125.04,646.771Z" transform="translate(-1099.488 -645.051)" fill="#0d6d5f"/>
    </g>
    <g id="Grupo_875450" data-name="Grupo 875450" transform="translate(874.628 411.458)">
      <path id="Trazado_612724" data-name="Trazado 612724" d="M1124.919,642.1l-.737,3.685c-1.861.676-4.681,1.72-8.108,3.071-5.07,2-6.187,2.587-7.985,2.58-1.763-.007-5.26-.59-9.459-5.528l.491-4.791c2.414-.2,4.956-.336,7.616-.368A105.908,105.908,0,0,1,1124.919,642.1Z" transform="translate(-1098.63 -640.743)" fill="#d2e1f1"/>
    </g>
    <g id="Grupo_875451" data-name="Grupo 875451" transform="translate(880.362 317.945)">
      <path id="Trazado_612725" data-name="Trazado 612725" d="M1121.134,423.168a15.691,15.691,0,0,0-4.47,7.969,71.81,71.81,0,0,1-1.45,7.144,23.422,23.422,0,0,1-.951,2.638c-.291.67-.538,1.206-.755,1.653-.641,1.324-1.032,2.1-1.147,2.334-1.34,2.8,1.242,7.55,1.708,8.408a15.75,15.75,0,0,0,2.944,3.838,9.408,9.408,0,0,0,2.2,1.706c1.634.85,3.343.83,5.56.513,4.345-.621,6.681-.97,9.166-2.582,4.254-2.757,5.664-7.344,6.752-10.881,1.275-4.147,2.917-9.453.717-14.2C1138.607,425.659,1130.391,422.214,1121.134,423.168Z" transform="translate(-1111.979 -423.011)" fill="#ff887c"/>
    </g>
    <g id="Grupo_875452" data-name="Grupo 875452" transform="translate(890.622 339.962)">
      <path id="Trazado_612726" data-name="Trazado 612726" d="M1136.606,474.281a.728.728,0,0,0-.737.676c.012.5.852.812,1.106.614C1137.251,475.356,1137.051,474.368,1136.606,474.281Z" transform="translate(-1135.869 -474.275)" fill="#ffb2aa"/>
    </g>
    <g id="Grupo_875453" data-name="Grupo 875453" transform="translate(886.638 312.073)">
      <path id="Trazado_612727" data-name="Trazado 612727" d="M1151.9,436.936c-3.528,1.109-4.967.6-5.625-.076-2.1-2.171,2.2-7.723-.131-10.856-.954-1.283-2.22-1.049-5.86-1.847-4.188-.918-12.167-2.665-13.49-6.94a6.565,6.565,0,0,1,2.136-6.409c4.313-3.705,12.7.546,16.318,2.383,2.334,1.184,12.317,6.215,11.831,12.108-.1,1.155-.9,2.889-2.5,6.355C1153.538,433.914,1152.574,435.726,1151.9,436.936Z" transform="translate(-1126.594 -409.339)" fill="#29343b"/>
    </g>
    <g id="Grupo_875454" data-name="Grupo 875454" transform="translate(896.245 328.934)">
      <path id="Trazado_612728" data-name="Trazado 612728" d="M1154.386,451.268c-.112.138-.815-.651-2.261-1.03-1.684-.441-2.9.06-3.13-.448-.127-.284.137-.7.389-.911.821-.689,2.374.081,2.793.288C1153.59,449.866,1154.521,451.1,1154.386,451.268Z" transform="translate(-1148.963 -448.597)" fill="#29343b"/>
    </g>
    <g id="Grupo_875455" data-name="Grupo 875455" transform="translate(885.998 327.891)">
      <path id="Trazado_612729" data-name="Trazado 612729" d="M1129.1,447.844c-.321.252-.872-.261-2.047-.6s-1.924-.192-1.955-.395.685-.531,1.372-.639c1.057-.166,2.5.117,2.752.9A.707.707,0,0,1,1129.1,447.844Z" transform="translate(-1125.102 -446.167)" fill="#29343b"/>
    </g>
    <g id="Grupo_875456" data-name="Grupo 875456" transform="translate(886.653 346.186)">
      <path id="Trazado_612730" data-name="Trazado 612730" d="M1126.628,488.767c1.178.122,2.422.287,3.723.507,1.128.191,2.2.407,3.216.638a3.738,3.738,0,0,1-3.469,2.122A3.78,3.78,0,0,1,1126.628,488.767Z" transform="translate(-1126.628 -488.767)" fill="#fff"/>
    </g>
    <g id="Grupo_875457" data-name="Grupo 875457" transform="translate(884.503 331.38)">
      <path id="Trazado_612731" data-name="Trazado 612731" d="M1121.626,458.345c-.068-2.153.884-3.783,2.038-4.021a2.3,2.3,0,0,1,1.408.251,3.262,3.262,0,0,1,1.55,2.246,4.916,4.916,0,0,1-.339,3.148c-.708-.182-1.463-.4-2.255-.677C1123.156,458.991,1122.354,458.669,1121.626,458.345Z" transform="translate(-1121.623 -454.292)" fill="#fff"/>
    </g>
    <g id="Grupo_875458" data-name="Grupo 875458" transform="translate(893.783 333.85)">
      <path id="Trazado_612732" data-name="Trazado 612732" d="M1143.266,464.131a18.871,18.871,0,0,0,6.857.928c-.234-2.486-1.472-4.437-3.158-4.9a2.937,2.937,0,0,0-2.1.178A3.673,3.673,0,0,0,1143.266,464.131Z" transform="translate(-1143.23 -460.043)" fill="#fff"/>
    </g>
    <g id="Grupo_875459" data-name="Grupo 875459" transform="translate(894.464 334.039)">
      <path id="Trazado_612733" data-name="Trazado 612733" d="M1148.835,463.628a2.093,2.093,0,1,1-.94-2.979A2.216,2.216,0,0,1,1148.835,463.628Z" transform="translate(-1144.815 -460.484)" fill="#29343b"/>
    </g>
    <g id="Grupo_875460" data-name="Grupo 875460" transform="translate(893.795 333.622)">
      <path id="Trazado_612734" data-name="Trazado 612734" d="M1143.264,462.631a3.686,3.686,0,0,1,.1-.482,3.479,3.479,0,0,1,.552-1.135,2.588,2.588,0,0,1,1.406-.941,3.029,3.029,0,0,1,.957-.083,3.15,3.15,0,0,1,.98.219,3.053,3.053,0,0,1,.843.5,4.218,4.218,0,0,1,.684.707,6.19,6.19,0,0,1,.873,1.556,9.924,9.924,0,0,1,.38,1.234c.067.309.1.485.1.485s0-.181-.01-.5a6.84,6.84,0,0,0-.213-1.307,5.751,5.751,0,0,0-.786-1.725,4.056,4.056,0,0,0-.729-.815,3.453,3.453,0,0,0-.988-.6,3.662,3.662,0,0,0-1.114-.228,3.188,3.188,0,0,0-1.1.143,2.8,2.8,0,0,0-1.513,1.2,3.169,3.169,0,0,0-.417,1.271A2.481,2.481,0,0,0,1143.264,462.631Z" transform="translate(-1143.257 -459.512)" fill="#29343b"/>
    </g>
    <g id="Grupo_875461" data-name="Grupo 875461" transform="translate(884.421 331.117)">
      <path id="Trazado_612735" data-name="Trazado 612735" d="M1121.5,457.944l.038-.457a6.267,6.267,0,0,1,.237-1.157,3.986,3.986,0,0,1,.755-1.423,2.414,2.414,0,0,1,.669-.549,1.5,1.5,0,0,1,.823-.186,2.125,2.125,0,0,1,.849.239,3.3,3.3,0,0,1,.741.509,3.11,3.11,0,0,1,.813,1.346,4.927,4.927,0,0,1,.212,1.157,4.532,4.532,0,0,1,.011.456,2.634,2.634,0,0,0,.085-.453,4.006,4.006,0,0,0-.039-1.227,3.173,3.173,0,0,0-.8-1.6,3.322,3.322,0,0,0-.811-.608,2.6,2.6,0,0,0-1.039-.307,1.963,1.963,0,0,0-1.078.262,2.624,2.624,0,0,0-.777.693,3.948,3.948,0,0,0-.686,1.628,4.78,4.78,0,0,0-.065,1.224C1121.469,457.78,1121.5,457.944,1121.5,457.944Z" transform="translate(-1121.43 -453.679)" fill="#29343b"/>
    </g>
    <g id="Grupo_875462" data-name="Grupo 875462" transform="translate(893.844 338.018)">
      <path id="Trazado_612736" data-name="Trazado 612736" d="M1150.779,470.475a10.433,10.433,0,0,0-2.537-.647,10.68,10.68,0,0,0-4.871.548,6.859,6.859,0,0,0,7.409.1Z" transform="translate(-1143.37 -469.749)" fill="#ff887c"/>
    </g>
    <g id="Grupo_875473" data-name="Grupo 875473" transform="translate(870.894 443.606)">
      <g id="Grupo_875464" data-name="Grupo 875464" transform="translate(0 0.246)">
        <g id="Grupo_875463" data-name="Grupo 875463">
          <path id="Trazado_612737" data-name="Trazado 612737" d="M1091.406,717.235a.491.491,0,0,0,.04-.981l-.977-.083a.491.491,0,1,0-.085.979l.979.083Z" transform="translate(-1089.935 -716.169)" fill="#c57c55"/>
        </g>
      </g>
      <g id="Grupo_875466" data-name="Grupo 875466" transform="translate(3.021 0.276)">
        <g id="Grupo_875465" data-name="Grupo 875465">
          <path id="Trazado_612738" data-name="Trazado 612738" d="M1115.4,718.109h.5a.491.491,0,1,0,0-.983h-.329c-.581,0-1.145,0-1.718-.006h0a.492.492,0,0,0,0,.983Q1114.622,718.108,1115.4,718.109Zm2.554-.012h0q1.033-.01,2.056-.029a.492.492,0,0,0,.483-.5.5.5,0,0,0-.5-.482q-1.021.019-2.048.029a.491.491,0,0,0,0,.983Zm-6.154-.018a.492.492,0,0,0,.008-.983q-1.019-.015-2.046-.04a.474.474,0,0,0-.5.48.492.492,0,0,0,.48.5q1.031.024,2.054.04Zm10.256-.057h.013q1.032-.027,2.054-.064a.491.491,0,1,0-.034-.982q-1.018.036-2.046.063a.491.491,0,0,0,.013.983Zm-14.355-.041a.491.491,0,0,0,.016-.982l-2.047-.075h-.019a.491.491,0,0,0-.019.982l2.052.075Zm18.456-.1h.021q1.034-.044,2.053-.1a.491.491,0,0,0,.465-.516.474.474,0,0,0-.515-.466q-1.016.053-2.045.1a.491.491,0,0,0,.021.982Zm-22.554-.066a.491.491,0,0,0,.024-.982q-1.028-.05-2.044-.109a.481.481,0,0,0-.518.462.491.491,0,0,0,.463.519q1.019.059,2.051.11Zm26.651-.146h.03q1.03-.062,2.052-.132a.493.493,0,0,0,.457-.524.5.5,0,0,0-.524-.457q-1.018.07-2.044.132a.491.491,0,0,0,.03.982Zm-30.743-.089a.491.491,0,0,0,.032-.982q-1.028-.068-2.041-.143a.491.491,0,1,0-.073.98q1.018.075,2.049.144Zm34.835-.192.039,0q1.032-.079,2.049-.166a.491.491,0,0,0,.448-.531.5.5,0,0,0-.531-.448q-1.015.085-2.041.165a.491.491,0,0,0,.036.981Z" transform="translate(-1096.969 -716.239)" fill="#c57c55"/>
        </g>
      </g>
      <g id="Grupo_875468" data-name="Grupo 875468" transform="translate(43.983)">
        <g id="Grupo_875467" data-name="Grupo 875467">
          <path id="Trazado_612739" data-name="Trazado 612739" d="M1193.927,717.556a.521.521,0,0,0,.058,0,.492.492,0,0,0,.432-.544l-.113-.976a.489.489,0,0,0-.537-.433l-.976.093a.492.492,0,1,0,.092.979l.5-.048.057.5A.492.492,0,0,0,1193.927,717.556Z" transform="translate(-1192.345 -715.597)" fill="#c57c55"/>
        </g>
      </g>
      <g id="Grupo_875470" data-name="Grupo 875470" transform="translate(45.301 2.934)">
        <g id="Grupo_875469" data-name="Grupo 875469">
          <path id="Trazado_612740" data-name="Trazado 612740" d="M1205.374,815.578l.044,0a.491.491,0,0,0,.446-.533l-.177-1.965a.518.518,0,0,0-.534-.445.493.493,0,0,0-.445.534l.177,1.963A.491.491,0,0,0,1205.374,815.578Zm-.354-3.928.046,0a.492.492,0,0,0,.445-.534l-.179-1.964a.506.506,0,0,0-.535-.445.492.492,0,0,0-.445.535l.18,1.963A.492.492,0,0,0,1205.019,811.65Zm-.361-3.925.047,0a.492.492,0,0,0,.444-.535l-.181-1.964a.5.5,0,0,0-.535-.444.492.492,0,0,0-.444.534l.182,1.964A.492.492,0,0,0,1204.659,807.725Zm-.364-3.929.046,0a.492.492,0,0,0,.445-.535l-.183-1.964a.492.492,0,0,0-.979.092l.183,1.962A.491.491,0,0,0,1204.295,803.8Zm-.368-3.925.046,0a.492.492,0,0,0,.444-.534l-.185-1.965a.505.505,0,0,0-.536-.442.492.492,0,0,0-.442.536l.185,1.961A.491.491,0,0,0,1203.926,799.872Zm-.372-3.925.048,0a.492.492,0,0,0,.443-.537l-.187-1.962a.5.5,0,0,0-.536-.442.492.492,0,0,0-.442.536l.187,1.962A.492.492,0,0,0,1203.554,795.946Zm-.376-3.926.048,0a.492.492,0,0,0,.442-.536l-.19-1.963a.514.514,0,0,0-.536-.442.492.492,0,0,0-.443.536l.19,1.963A.492.492,0,0,0,1203.178,792.021Zm-.382-3.926.048,0a.492.492,0,0,0,.443-.536l-.192-1.963a.5.5,0,0,0-.538-.442.493.493,0,0,0-.441.538l.192,1.961A.492.492,0,0,0,1202.8,788.095Zm-.386-3.925.049,0a.492.492,0,0,0,.441-.538l-.195-1.962a.491.491,0,0,0-.977.1l.193,1.961A.492.492,0,0,0,1202.41,784.17Zm-.389-3.923.05,0a.491.491,0,0,0,.439-.538l-.2-1.962a.5.5,0,0,0-.537-.439.489.489,0,0,0-.439.538l.2,1.961A.491.491,0,0,0,1202.022,780.247Zm-.395-3.923a.376.376,0,0,0,.05,0,.489.489,0,0,0,.439-.537l-.2-1.963a.491.491,0,1,0-.977.1l.2,1.961A.491.491,0,0,0,1201.627,776.323Zm-.4-3.923a.416.416,0,0,0,.051,0,.49.49,0,0,0,.439-.539l-.2-1.961a.491.491,0,0,0-.977.1l.2,1.962A.491.491,0,0,0,1201.231,772.4Zm-.4-3.923a.475.475,0,0,0,.051,0,.49.49,0,0,0,.438-.539l-.2-1.961a.491.491,0,1,0-.977.1l.2,1.96A.491.491,0,0,0,1200.829,768.477Zm-.407-3.922a.5.5,0,0,0,.49-.541l-.2-1.96a.491.491,0,0,0-.977.1l.2,1.962A.491.491,0,0,0,1200.421,764.554Zm-.41-3.922.053,0a.492.492,0,0,0,.437-.541l-.208-1.96a.491.491,0,0,0-.977.1l.208,1.959A.491.491,0,0,0,1200.012,760.633Zm-.414-3.919a.422.422,0,0,0,.053,0,.491.491,0,0,0,.437-.54l-.21-1.96a.491.491,0,1,0-.977.1l.209,1.959A.492.492,0,0,0,1199.6,756.713Zm-.418-3.919a.432.432,0,0,0,.053,0,.491.491,0,0,0,.436-.542l-.211-1.959a.5.5,0,0,0-.542-.436.491.491,0,0,0-.435.541l.211,1.961A.491.491,0,0,0,1199.179,752.794Zm-.423-3.919c.018,0,.036,0,.054,0a.491.491,0,0,0,.436-.542l-.213-1.959a.5.5,0,0,0-.542-.436.491.491,0,0,0-.436.542l.213,1.959A.491.491,0,0,0,1198.755,748.875Zm-.427-3.919a.465.465,0,0,0,.054,0,.491.491,0,0,0,.435-.542l-.216-1.959a.491.491,0,1,0-.977.108l.216,1.959A.491.491,0,0,0,1198.329,744.956Zm-.431-3.918a.5.5,0,0,0,.056,0,.492.492,0,0,0,.434-.543l-.218-1.959a.492.492,0,1,0-.977.109l.218,1.959A.491.491,0,0,0,1197.9,741.038Zm-.436-3.917c.019,0,.037,0,.056,0a.491.491,0,0,0,.433-.544l-.219-1.958a.492.492,0,0,0-.977.109l.219,1.96A.493.493,0,0,0,1197.462,737.121Zm-.44-3.918a.505.505,0,0,0,.057,0,.491.491,0,0,0,.433-.543l-.222-1.958a.492.492,0,0,0-.977.11l.222,1.958A.492.492,0,0,0,1197.022,733.2Zm-.444-3.916a.409.409,0,0,0,.056,0,.49.49,0,0,0,.433-.543l-.223-1.959a.492.492,0,0,0-.977.112l.224,1.958A.491.491,0,0,0,1196.578,729.287Zm-.448-3.917a.5.5,0,0,0,.058,0,.492.492,0,0,0,.432-.545l-.226-1.958a.492.492,0,0,0-.977.113l.226,1.958A.492.492,0,0,0,1196.13,725.37Z" transform="translate(-1195.413 -722.429)" fill="#c57c55"/>
        </g>
      </g>
      <g id="Grupo_875472" data-name="Grupo 875472" transform="translate(54.948 97.053)">
        <g id="Grupo_875471" data-name="Grupo 875471">
          <path id="Trazado_612741" data-name="Trazado 612741" d="M1218.452,943.534l.045,0a.491.491,0,0,0,.445-.533l-.087-.978a.5.5,0,0,0-.533-.446.491.491,0,0,0-.446.532l.087.98A.492.492,0,0,0,1218.452,943.534Z" transform="translate(-1217.874 -941.573)" fill="#c57c55"/>
        </g>
      </g>
    </g>
    <g id="Grupo_875496" data-name="Grupo 875496" transform="translate(873.229 397.54)">
      <g id="Grupo_875475" data-name="Grupo 875475" transform="translate(0 10.839)">
        <g id="Grupo_875474" data-name="Grupo 875474">
          <path id="Trazado_612742" data-name="Trazado 612742" d="M1095.862,635.51a.491.491,0,0,0,.477-.375l.235-.953a.491.491,0,0,0-.954-.236l-.235.956a.491.491,0,0,0,.36.594A.5.5,0,0,0,1095.862,635.51Z" transform="translate(-1095.371 -633.573)" fill="#c57c55"/>
        </g>
      </g>
      <g id="Grupo_875477" data-name="Grupo 875477" transform="translate(0.774 6.46)">
        <g id="Grupo_875476" data-name="Grupo 875476">
          <path id="Trazado_612743" data-name="Trazado 612743" d="M1097.665,626.551a.49.49,0,0,0,.477-.374l.539-2.189a.491.491,0,1,0-.954-.236l-.539,2.19a.491.491,0,0,0,.36.594A.461.461,0,0,0,1097.665,626.551Z" transform="translate(-1097.173 -623.379)" fill="#c57c55"/>
        </g>
      </g>
      <g id="Grupo_875479" data-name="Grupo 875479" transform="translate(1.853 3.274)">
        <g id="Grupo_875478" data-name="Grupo 875478">
          <path id="Trazado_612744" data-name="Trazado 612744" d="M1100.177,617.939a.491.491,0,0,0,.477-.375l.141-.573a5.557,5.557,0,0,0,.664-.055.492.492,0,1,0-.14-.973,4.3,4.3,0,0,1-.877.039.481.481,0,0,0-.507.372l-.235.956a.49.49,0,0,0,.477.608Z" transform="translate(-1099.686 -615.959)" fill="#c57c55"/>
        </g>
      </g>
      <g id="Grupo_875481" data-name="Grupo 875481" transform="translate(4.466 2.042)">
        <g id="Grupo_875480" data-name="Grupo 875480">
          <path id="Trazado_612745" data-name="Trazado 612745" d="M1106.261,614.889a.49.49,0,0,0,.209-.047,5.314,5.314,0,0,0,.763-.441,5.226,5.226,0,0,0,.573-.459.491.491,0,0,0-.666-.723,4.3,4.3,0,0,1-1.088.732.492.492,0,0,0,.209.937Z" transform="translate(-1105.769 -613.091)" fill="#c57c55"/>
        </g>
      </g>
      <g id="Grupo_875483" data-name="Grupo 875483" transform="translate(6.597)">
        <g id="Grupo_875482" data-name="Grupo 875482">
          <path id="Trazado_612746" data-name="Trazado 612746" d="M1111.222,610.211a.491.491,0,0,0,.425-.245,5.339,5.339,0,0,0,.309-.62l.613.047a.491.491,0,1,0,.075-.98l-.98-.075a.491.491,0,0,0-.5.334,4.4,4.4,0,0,1-.365.8.491.491,0,0,0,.425.737Z" transform="translate(-1110.731 -608.337)" fill="#c57c55"/>
        </g>
      </g>
      <g id="Grupo_875485" data-name="Grupo 875485" transform="translate(9.729 0.208)">
        <g id="Grupo_875484" data-name="Grupo 875484">
          <path id="Trazado_612747" data-name="Trazado 612747" d="M1130.751,610.738a.491.491,0,0,0,.036-.981l-1.748-.134a.509.509,0,0,0-.528.453.491.491,0,0,0,.453.527l1.748.134Zm-3.5-.267a.491.491,0,0,0,.037-.981l-1.748-.133a.506.506,0,0,0-.528.452.491.491,0,0,0,.453.527l1.748.134Zm-3.5-.267a.491.491,0,0,0,.036-.981l-1.748-.133a.509.509,0,0,0-.528.452.493.493,0,0,0,.453.527l1.748.134Zm-3.5-.267a.491.491,0,0,0,.036-.981l-1.748-.133a.505.505,0,0,0-.528.453.492.492,0,0,0,.453.527l1.748.133Z" transform="translate(-1118.024 -608.821)" fill="#c57c55"/>
        </g>
      </g>
      <g id="Grupo_875487" data-name="Grupo 875487" transform="translate(23.711 1.276)">
        <g id="Grupo_875486" data-name="Grupo 875486">
          <path id="Trazado_612748" data-name="Trazado 612748" d="M1152.119,613.345a.5.5,0,0,0,.08-.006.491.491,0,0,0,.406-.564,4.775,4.775,0,0,1-.062-.886.492.492,0,0,0-.454-.5l-.98-.075a.508.508,0,0,0-.528.453.492.492,0,0,0,.453.527l.533.041a5.618,5.618,0,0,0,.067.6A.491.491,0,0,0,1152.119,613.345Z" transform="translate(-1150.58 -611.309)" fill="#c57c55"/>
        </g>
      </g>
      <g id="Grupo_875489" data-name="Grupo 875489" transform="translate(25.513 4.28)">
        <g id="Grupo_875488" data-name="Grupo 875488">
          <path id="Trazado_612749" data-name="Trazado 612749" d="M1156.77,620.736a.491.491,0,0,0,.255-.91,4.265,4.265,0,0,1-1.347-1.3.491.491,0,0,0-.822.539,5.175,5.175,0,0,0,.314.429,5.235,5.235,0,0,0,1.344,1.171A.484.484,0,0,0,1156.77,620.736Z" transform="translate(-1154.775 -618.302)" fill="#c57c55"/>
        </g>
      </g>
      <g id="Grupo_875491" data-name="Grupo 875491" transform="translate(28.998 6.443)">
        <g id="Grupo_875490" data-name="Grupo 875490">
          <path id="Trazado_612750" data-name="Trazado 612750" d="M1164.282,625.364a.491.491,0,0,0,.49-.46q.031-.495.073-.963a.491.491,0,0,0-.508-.534,4.88,4.88,0,0,1-.881-.062.491.491,0,1,0-.153.97c.193.031.368.05.521.061-.012.154-.023.309-.033.466a.492.492,0,0,0,.46.522Z" transform="translate(-1162.889 -623.337)" fill="#c57c55"/>
        </g>
      </g>
      <g id="Grupo_875493" data-name="Grupo 875493" transform="translate(29.824 9.346)">
        <g id="Grupo_875492" data-name="Grupo 875492">
          <path id="Trazado_612751" data-name="Trazado 612751" d="M1174.815,656.729a.485.485,0,0,0,.319-.119.49.49,0,0,0,.053-.693c-.377-.439-.769-.914-1.17-1.425a.492.492,0,0,0-.774.607c.411.523.813,1.008,1.2,1.457A.492.492,0,0,0,1174.815,656.729Zm-2.3-2.934a.491.491,0,0,0,.4-.777c-.344-.482-.692-.99-1.036-1.523a.492.492,0,0,0-.825.535q.532.819,1.063,1.56A.491.491,0,0,0,1172.514,653.8Zm-2.028-3.129a.5.5,0,0,0,.248-.067.492.492,0,0,0,.177-.672q-.452-.776-.89-1.613a.491.491,0,1,0-.871.455q.448.857.913,1.652A.49.49,0,0,0,1170.486,650.666Zm-1.723-3.307a.49.49,0,0,0,.446-.7q-.379-.819-.731-1.689a.491.491,0,1,0-.911.368c.24.6.491,1.173.75,1.733A.491.491,0,0,0,1168.763,647.36Zm-1.4-3.456a.482.482,0,0,0,.16-.027.492.492,0,0,0,.3-.625c-.2-.57-.385-1.155-.56-1.754a.491.491,0,1,0-.942.276q.269.921.574,1.8A.492.492,0,0,0,1167.367,643.9Zm-1.045-3.579a.491.491,0,0,0,.478-.605q-.134-.558-.251-1.131c-.047-.225-.089-.448-.131-.67a.491.491,0,0,0-.966.182q.064.341.135.687.121.588.257,1.161A.492.492,0,0,0,1166.323,640.325Zm-.683-3.665a.48.48,0,0,0,.066,0,.49.49,0,0,0,.421-.552q-.124-.935-.2-1.829a.491.491,0,0,0-.979.082q.077.917.205,1.877A.492.492,0,0,0,1165.639,636.66Zm-.312-3.715h.017a.492.492,0,0,0,.474-.508q-.023-.663-.023-1.3l0-.544a.492.492,0,0,0-.484-.5.477.477,0,0,0-.5.484l0,.559c0,.432.008.876.023,1.329A.492.492,0,0,0,1165.328,632.945Z" transform="translate(-1164.813 -630.098)" fill="#c57c55"/>
        </g>
      </g>
      <g id="Grupo_875495" data-name="Grupo 875495" transform="translate(40.596 36.394)">
        <g id="Grupo_875494" data-name="Grupo 875494">
          <path id="Trazado_612752" data-name="Trazado 612752" d="M1191.065,694.764a.491.491,0,0,0,.349-.837q-.316-.32-.671-.7a.491.491,0,1,0-.716.673q.363.385.688.714A.489.489,0,0,0,1191.065,694.764Z" transform="translate(-1189.894 -693.076)" fill="#c57c55"/>
        </g>
      </g>
    </g>
    <g id="Grupo_875497" data-name="Grupo 875497" transform="translate(886.667 340.036)">
      <path id="Trazado_612753" data-name="Trazado 612753" d="M1126.661,474.446c.534.194,1.373.49,2.416.817,2.4.751,3.158.811,3.2,1.17.066.558-1.618,1.642-3.137,1.284A3.611,3.611,0,0,1,1126.661,474.446Z" transform="translate(-1126.661 -474.446)" fill="#f07363"/>
    </g>
    <g id="Grupo_875498" data-name="Grupo 875498" transform="translate(886.54 331.324)">
      <path id="Trazado_612754" data-name="Trazado 612754" d="M1127.656,465.6a4.06,4.06,0,0,1-.486-3.185l-.339.308a4.228,4.228,0,0,0,1.356-.283,3.418,3.418,0,0,0,.639-.324l.149-.1c.033-.026.029-.018.092-.072l.06-.051.24-.207a4.332,4.332,0,0,0,.482-.566,3.962,3.962,0,0,0,.358-.609,5.51,5.51,0,0,0,.417-1.312,6.865,6.865,0,0,0-.081-2.65,7.569,7.569,0,0,0-.972-2.388c.083.42.156.834.221,1.245s.1.822.118,1.23a8.382,8.382,0,0,1-.192,2.373,5.4,5.4,0,0,1-.382,1.076,4.56,4.56,0,0,1-.606.882l-.232.211-.058.053c.024-.018-.024.019-.032.026l-.109.079a3.513,3.513,0,0,1-.468.28,4.356,4.356,0,0,1-1.081.337l-.3.059-.04.249A3.587,3.587,0,0,0,1127.656,465.6Z" transform="translate(-1126.364 -454.161)" fill="#c4574a"/>
    </g>
    <g id="Grupo_875499" data-name="Grupo 875499" transform="translate(891.615 340.644)">
      <path id="Trazado_612755" data-name="Trazado 612755" d="M1138.977,475.862s-.052.156-.114.359c-.022.1-.073.215-.11.332s-.083.25-.131.358c-.094.237-.195.481-.287.674s-.153.344-.153.344a1.011,1.011,0,0,0,.362-.163,1.472,1.472,0,0,0,.536-.679,1.426,1.426,0,0,0,.059-.864A1.015,1.015,0,0,0,1138.977,475.862Z" transform="translate(-1138.182 -475.862)" fill="#c4574a"/>
    </g>
    <g id="Grupo_875500" data-name="Grupo 875500" transform="translate(897.692 335.568)">
      <path id="Trazado_612756" data-name="Trazado 612756" d="M1153.863,465.174a.8.8,0,1,1-.4-1.06A.8.8,0,0,1,1153.863,465.174Z" transform="translate(-1152.33 -464.044)" fill="#fff"/>
    </g>
    <g id="Grupo_875501" data-name="Grupo 875501" transform="translate(884.992 331.646)">
      <path id="Trazado_612757" data-name="Trazado 612757" d="M1126.493,457.471a1.9,1.9,0,1,1-1.373-2.521A2.039,2.039,0,0,1,1126.493,457.471Z" transform="translate(-1122.76 -454.912)" fill="#29343b"/>
    </g>
    <g id="Grupo_875502" data-name="Grupo 875502" transform="translate(887.675 333)">
      <path id="Trazado_612758" data-name="Trazado 612758" d="M1130.54,459.195a.8.8,0,1,1-.4-1.06A.8.8,0,0,1,1130.54,459.195Z" transform="translate(-1129.008 -458.065)" fill="#fff"/>
    </g>
    <g id="Grupo_875503" data-name="Grupo 875503" transform="translate(883.65 334.839)">
      <path id="Trazado_612759" data-name="Trazado 612759" d="M1124.231,464.932a4.578,4.578,0,0,0-1.6-1.841,4.645,4.645,0,0,0-3-.72,4.524,4.524,0,0,0,1.008,1.352A5.051,5.051,0,0,0,1124.231,464.932Z" transform="translate(-1119.636 -462.347)" fill="#ff887c"/>
    </g>
    <g id="Grupo_875504" data-name="Grupo 875504" transform="translate(888.599 349.932)">
      <path id="Trazado_612760" data-name="Trazado 612760" d="M1134.113,498.141c-.048-.171-.673.073-1.714-.232-.74-.217-1.028-.518-1.171-.392-.208.183.056,1.131.692,1.456A1.887,1.887,0,0,0,1134.113,498.141Z" transform="translate(-1131.158 -497.488)" fill="#f07363"/>
    </g>
    <g id="Grupo_875505" data-name="Grupo 875505" transform="translate(895.005 346.246)">
      <path id="Trazado_612761" data-name="Trazado 612761" d="M1146.1,488.951c-.094.089.07.271.115.792.049.566-.1.8.009.88.2.135,1.095-.355,1.033-.95C1147.2,489.1,1146.28,488.784,1146.1,488.951Z" transform="translate(-1146.075 -488.907)" fill="#f07363"/>
    </g>
    <g id="Grupo_875506" data-name="Grupo 875506" transform="translate(818.1 327.158)">
      <path id="Trazado_612762" data-name="Trazado 612762" d="M990.758,461.406a22.184,22.184,0,0,1-3.159,5.679,23.679,23.679,0,0,1-12.073,8.08l-8.515-20.9a15.551,15.551,0,0,1,10.074-9.8Z" transform="translate(-967.011 -444.463)" fill="#253153"/>
    </g>
    <g id="Grupo_875507" data-name="Grupo 875507" transform="translate(884.111 350.703)">
      <path id="Trazado_612763" data-name="Trazado 612763" d="M1120.709,499.4a4.909,4.909,0,0,1,2.129,0c1.122.259,1.3.755,2.293,1.065,1.5.469,2.131-.345,3.522-.082a4.63,4.63,0,0,1,2.866,2.129,10.7,10.7,0,0,1-2.948,1.31c-1.49.405-3.857,1.05-5.733-.246A5.718,5.718,0,0,1,1120.709,499.4Z" transform="translate(-1120.709 -499.283)" fill="#29343b"/>
    </g>
    <g id="Grupo_875508" data-name="Grupo 875508" transform="translate(784.231 240.178)">
      <path id="Trazado_612764" data-name="Trazado 612764" d="M888.15,241.939A50.328,50.328,0,0,0,898.2,253.9c21.381,18.579,52.648,13.4,57.769,12.45-11.909-4.893-24.3-9.821-36.209-14.714l-17.067-6.06Z" transform="translate(-888.15 -241.939)" fill="#df7f44"/>
    </g>
    <g id="Grupo_875509" data-name="Grupo 875509" transform="translate(802.289 238.852)">
      <path id="Trazado_612765" data-name="Trazado 612765" d="M962.121,258.054h0a22.053,22.053,0,0,0,.524-5.328c-.345-6.574-10.381-10.709-12.449-11.561-1.992-.821-11.085-4.325-15.518-.7a17.689,17.689,0,0,0-3.417,3.89,12.808,12.808,0,0,0-1.065,2.417,140.511,140.511,0,0,0,18.994,7.567C953.518,255.694,962.1,258.135,962.121,258.054Z" transform="translate(-930.196 -238.852)" fill="#ffa150"/>
    </g>
    <g id="Grupo_875510" data-name="Grupo 875510" transform="translate(801.962 243.4)">
      <path id="Trazado_612766" data-name="Trazado 612766" d="M962.587,261.238a76.66,76.66,0,0,0-31.8-11.8l-1.351,2.786,32.922,11.179Q962.472,262.323,962.587,261.238Z" transform="translate(-929.435 -249.442)" fill="#fd8550"/>
    </g>
    <g id="Grupo_875511" data-name="Grupo 875511" transform="translate(886.925 377.089)">
      <path id="Trazado_612767" data-name="Trazado 612767" d="M1135.349,590.667c2.7-1.476,5.527-3.17,8.428-5.117a109.31,109.31,0,0,0,14.868-11.988l-12.369-12.844L1127.26,580.24Z" transform="translate(-1127.26 -560.719)" fill="#ff887c"/>
    </g>
    <g id="Grupo_875512" data-name="Grupo 875512" transform="translate(853.798 392.251)">
      <path id="Trazado_612768" data-name="Trazado 612768" d="M1087.928,612.978c1.771-.686,5.484-2.125,6.949-5.585a7.679,7.679,0,0,0,.527-1.9h0a12.048,12.048,0,0,0-6.581-9.468c-7.481,1.106-15.35,2.516-23.548,4.305q-7.869,1.718-15.147,3.659l1.547,6.683C1069.4,614.391,1083.06,614.864,1087.928,612.978Z" transform="translate(-1050.128 -596.022)" fill="#ff887c"/>
    </g>
    <g id="Grupo_875513" data-name="Grupo 875513" transform="translate(857.407 392.838)">
      <path id="Trazado_612769" data-name="Trazado 612769" d="M1080.176,597.389a22.194,22.194,0,0,1,3.529,5.457,23.677,23.677,0,0,1,1.461,14.453l-22.452-2.3a15.551,15.551,0,0,1-3.919-13.5Z" transform="translate(-1058.531 -597.389)" fill="#253153"/>
    </g>
    <g id="Grupo_875514" data-name="Grupo 875514" transform="translate(900.317 362.187)">
      <path id="Trazado_612770" data-name="Trazado 612770" d="M1186.709,533.747c2.444,6.979-2.937,14.014-5.669,17.586a33,33,0,0,1-10.107,8.708,20.915,20.915,0,0,1-6.409-3.944,21.324,21.324,0,0,1-6.081-9.7q4.68-4.94,9.86-10.025,5.584-5.468,11.011-10.353C1181.79,527.286,1185.287,529.685,1186.709,533.747Z" transform="translate(-1158.443 -526.023)" fill="#005372"/>
    </g>
    <g id="Grupo_875515" data-name="Grupo 875515" transform="translate(880.805 330.059)" opacity="0.44">
      <path id="Trazado_612771" data-name="Trazado 612771" d="M1114.528,451.216a50.008,50.008,0,0,1,5.752.411,51.641,51.641,0,0,1,17.749,5.752c-.111.536-1.086,4.952-4.273,6-2.73.9-6.574-.845-8.546-3.2-.805-.964-1.327-2.065-2.383-2.137-1.086-.074-1.479,1.025-2.876,1.644a5.432,5.432,0,0,1-5.752-.986C1112.584,457.005,1112.542,453.766,1114.528,451.216Z" transform="translate(-1113.011 -451.216)" fill="#00576a"/>
    </g>
    <g id="Grupo_875516" data-name="Grupo 875516" transform="translate(881.007 328.497)">
      <path id="Trazado_612772" data-name="Trazado 612772" d="M1113.482,449.717a61.824,61.824,0,0,1,7.231.74,64.5,64.5,0,0,1,24.158,9.285l.9-1.561a62.584,62.584,0,0,0-5.834-3.451,65.579,65.579,0,0,0-26.295-7.149Q1113.564,448.648,1113.482,449.717Z" transform="translate(-1113.482 -447.58)" fill="#ffd5af"/>
    </g>
    <g id="Grupo_875517" data-name="Grupo 875517" transform="translate(906.19 338.722)">
      <path id="Trazado_612773" data-name="Trazado 612773" d="M1173.39,472.707a3.507,3.507,0,0,1,3.273-1.279,3.581,3.581,0,0,1,2.778,2.284c.86,2.656-3.064,6.246-5.649,5.57a3.084,3.084,0,0,1-1.677-1.234Q1172.754,475.377,1173.39,472.707Z" transform="translate(-1172.116 -471.387)" fill="#ff887c"/>
    </g>
    <g id="Grupo_875518" data-name="Grupo 875518" transform="translate(907.093 340.325)">
      <path id="Trazado_612774" data-name="Trazado 612774" d="M1174.8,477.107a2.475,2.475,0,0,1,2.856-1.928,2.21,2.21,0,0,1,1.553,1.711c.311,1.8-2.059,3.945-3.795,3.56a2.266,2.266,0,0,1-1.2-.764,1.958,1.958,0,0,0,.965-1.361C1175.211,477.777,1174.807,477.592,1174.8,477.107Z" transform="translate(-1174.22 -475.12)" fill="#e96b5c"/>
    </g>
    <g id="Grupo_875519" data-name="Grupo 875519" transform="translate(812.683 265.555)">
      <rect id="Rect치ngulo_293246" data-name="Rect치ngulo 293246" width="7.764" height="320.105" transform="translate(7.764 320.105) rotate(180)" fill="#ffd5af"/>
    </g>
    <g id="Grupo_875520" data-name="Grupo 875520" transform="translate(799.13 248.638)">
      <path id="Trazado_612775" data-name="Trazado 612775" d="M951.268,267.719a21.364,21.364,0,0,1,5.095,9.532c3,13.125-8.761,23.789-9.368,24.323,2.944,1.537,3.572,2.863,3.616,3.779.047.99-.6,1.247-.822,2.63-.4,2.509,1.413,3.726.822,4.766-.72,1.267-3.5-.37-7.4.822-2.965.908-2.936,2.344-5.095,2.465-2.662.149-3.2-2.006-7.067-3.122-3.662-1.058-5.759.132-6.245-.822-.971-1.905,7.823-5.826,7.724-11.175-.07-3.744-4.44-5.216-7.067-8.546-3.418-4.333-4.666-12.807,3.615-30.731Z" transform="translate(-922.841 -261.638)" fill="#ffdec6"/>
    </g>
    <g id="Grupo_875521" data-name="Grupo 875521" transform="translate(806.018 283.598)">
      <path id="Trazado_612776" data-name="Trazado 612776" d="M940.567,352.658a1.563,1.563,0,0,1-1.431-.687c-1.178-1.77,1.97-4.987,3.68-6.268,5.689-4.256,13.217-2.379,16.191-1.377a.986.986,0,0,1-.632,1.868c-2.088-.705-9.3-2.711-14.376,1.088a10.752,10.752,0,0,0-3.02,3.371c.6-.1,1.595-.4,2.5-.667a65.265,65.265,0,0,1,8.393-2,55.484,55.484,0,0,1,5.649-.627.986.986,0,1,1,.115,1.968,53.417,53.417,0,0,0-5.444.606,63.481,63.481,0,0,0-8.154,1.947A14.4,14.4,0,0,1,940.567,352.658Z" transform="translate(-938.879 -343.038)" fill="#895727"/>
    </g>
    <g id="Grupo_875522" data-name="Grupo 875522" transform="translate(806.933 285.121)">
      <path id="Trazado_612777" data-name="Trazado 612777" d="M960.153,353.24a.993.993,0,0,1-.435-.1,45.068,45.068,0,0,0-17.772-4.583.987.987,0,0,1-.936-1.033.964.964,0,0,1,1.033-.937,47.085,47.085,0,0,1,18.546,4.784.986.986,0,0,1-.435,1.871Z" transform="translate(-941.009 -346.584)" fill="#895727"/>
    </g>
    <g id="Grupo_875523" data-name="Grupo 875523" transform="translate(801.924 247.452)">
      <path id="Trazado_612778" data-name="Trazado 612778" d="M959.582,269.1a25.2,25.2,0,0,1-6.081,2.3,25.87,25.87,0,0,1-12.325-.164,14.2,14.2,0,0,0-6.9,2.465c-2.736,1.954-3.766,4.362-4.273,4.109-.589-.3.017-3.944,2.137-7.067,1.837-2.707,4.066-3.921,3.779-4.437-.416-.75-5.044,1.951-6.245.658-1.023-1.1.519-5.032,2.629-6.738C938.877,254.912,956.336,266.84,959.582,269.1Z" transform="translate(-929.348 -258.875)" fill="#df9c77"/>
    </g>
    <g id="Grupo_875524" data-name="Grupo 875524" transform="translate(784.155 240.172)">
      <path id="Trazado_612779" data-name="Trazado 612779" d="M955.864,266.339a301.843,301.843,0,0,1-37.948-11.044c-13.769-5-31.232-13.613-29.866-13.363a219.984,219.984,0,0,1,67.814,24.407Z" transform="translate(-887.974 -241.927)" fill="#ffba6b"/>
    </g>
    <g id="Grupo_875525" data-name="Grupo 875525" transform="translate(760.058 306.65)">
      <path id="Trazado_612780" data-name="Trazado 612780" d="M873.483,499.012a577.121,577.121,0,0,0,1.479-73.706q-.65-14.77-1.972-28.6l-36.976,8.628a10.391,10.391,0,0,0-3.2,3.944,10.529,10.529,0,0,0-.74,6.409c4.2-1.729,5.256-1.772,5.424-1.479.328.572-2.685,2.482-2.219,3.7.393,1.023,2.781.331,3.7,1.479.628.786.685,2.583-2.219,7.149q.986,2.958,1.972,5.916l25.39-8.874q-1.6,35-3.2,70.009Z" transform="translate(-831.867 -396.711)" fill="#fda829"/>
    </g>
    <g id="Grupo_875528" data-name="Grupo 875528" transform="translate(818.299 368.526)">
      <g id="Grupo_875526" data-name="Grupo 875526" transform="translate(9.024 7.462)">
        <path id="Trazado_612781" data-name="Trazado 612781" d="M1019.425,598.83h0a2.465,2.465,0,0,1-3.45-.5l-27-36.232a2.464,2.464,0,0,1,.5-3.449h0a2.465,2.465,0,0,1,3.45.5l27,36.232A2.466,2.466,0,0,1,1019.425,598.83Z" transform="translate(-988.486 -558.156)" fill="#ffd5af"/>
      </g>
      <g id="Grupo_875527" data-name="Grupo 875527">
        <path id="Trazado_612782" data-name="Trazado 612782" d="M988.494,545.758l-15.17,11.305a1.54,1.54,0,0,1-2.156-.315L967.78,552.2a1.54,1.54,0,0,1,.507-2.278l17.041-9.144Z" transform="translate(-967.474 -540.781)" fill="#76aec5"/>
      </g>
    </g>
    <g id="Grupo_875529" data-name="Grupo 875529" transform="translate(841.087 391.556)">
      <path id="Trazado_612783" data-name="Trazado 612783" d="M1038.485,600.551l-2.746.038a24.8,24.8,0,0,0-3.51-2.3c-2.154-1.159-2.638-1-3.9-2.023-1.215-.987-1.495-1.73-2.465-1.849a2.292,2.292,0,0,0-2.219.986c-.558,1.166.938,3.356,3.821,5.423-4.372.66-7.042,2.982-6.927,4.914a3.288,3.288,0,0,0,1.645,2.391,12.38,12.38,0,0,0,7.006,7.7,40.23,40.23,0,0,0,12.4-3.719Q1040.036,606.335,1038.485,600.551Z" transform="translate(-1020.533 -594.406)" fill="#253153"/>
    </g>
  </g>
</svg>
