<svg xmlns="http://www.w3.org/2000/svg" xmlns:xlink="http://www.w3.org/1999/xlink" width="353.759" height="366.869" viewBox="0 0 353.759 366.869">
  <defs>
    <linearGradient id="linear-gradient" x1="1.106" y1="1.242" x2="0.258" y2="0.182" gradientUnits="objectBoundingBox">
      <stop offset="0" stop-color="#dae3fe"/>
      <stop offset="1" stop-color="#e9effd"/>
    </linearGradient>
    <linearGradient id="linear-gradient-2" x1="11.652" y1="-0.1" x2="12.613" y2="-0.1" gradientUnits="objectBoundingBox">
      <stop offset="0" stop-color="#09005d"/>
      <stop offset="1" stop-color="#1a0f91"/>
    </linearGradient>
    <linearGradient id="linear-gradient-3" x1="0" y1="0.5" x2="1" y2="0.5" xlink:href="#linear-gradient"/>
    <linearGradient id="linear-gradient-4" x1="88.703" y1="-162.619" x2="83.466" y2="-170.235" gradientUnits="objectBoundingBox">
      <stop offset="0" stop-color="#e1473d"/>
      <stop offset="1" stop-color="#e9605a"/>
    </linearGradient>
    <linearGradient id="linear-gradient-5" x1="70.324" y1="0.5" x2="71.324" y2="0.5" gradientUnits="objectBoundingBox">
      <stop offset="0" stop-color="#febbba"/>
      <stop offset="1" stop-color="#ff928e"/>
    </linearGradient>
    <linearGradient id="linear-gradient-6" x1="72.935" y1="0.5" x2="73.935" y2="0.5" xlink:href="#linear-gradient-5"/>
    <linearGradient id="linear-gradient-7" x1="0.968" y1="-5.419" x2="0.855" y2="-4" xlink:href="#linear-gradient-4"/>
    <linearGradient id="linear-gradient-8" x1="0.247" y1="0.046" x2="0.733" y2="0.982" xlink:href="#linear-gradient-2"/>
    <linearGradient id="linear-gradient-9" x1="1.38" y1="1.135" x2="-0.523" y2="-0.448" xlink:href="#linear-gradient-4"/>
    <linearGradient id="linear-gradient-10" x1="1.746" y1="-1.891" x2="4.673" y2="-7.718" xlink:href="#linear-gradient-4"/>
    <linearGradient id="linear-gradient-11" x1="611.951" y1="-7.014" x2="612.306" y2="-7.796" xlink:href="#linear-gradient-5"/>
    <linearGradient id="linear-gradient-12" x1="-633.81" y1="-210.358" x2="-634.19" y2="-211.332" xlink:href="#linear-gradient-5"/>
    <linearGradient id="linear-gradient-13" x1="-355.83" y1="-200.255" x2="-355.651" y2="-198.923" xlink:href="#linear-gradient-2"/>
    <linearGradient id="linear-gradient-14" x1="-2473.835" y1="-772.65" x2="-2475.165" y2="-775.864" xlink:href="#linear-gradient-5"/>
    <linearGradient id="linear-gradient-15" x1="1.087" y1="-0.957" x2="0.748" y2="-0.116" xlink:href="#linear-gradient-4"/>
    <linearGradient id="linear-gradient-16" x1="0.979" y1="-0.136" x2="3.954" y2="-3.514" xlink:href="#linear-gradient-4"/>
  </defs>
  <g id="Grupo_875633" data-name="Grupo 875633" transform="translate(-402.379 -1046.473)">
    <path id="Trazado_613167" data-name="Trazado 613167" d="M693.052,1326.02c-6.512,6.964-29.368,33.518-34.237,37.067-57.231,41.71-115.369,33.586-129.761,30.617-21.253-4.385-64.621-30.3-94.322-65.777-44.935-53.675-41.045-124.609-.8-176.618,6.671-8.619,40.673-63.533,108.5-75.971,41.107-7.537,94.111-.373,129.08,29.385C744.918,1167.186,742.406,1273.244,693.052,1326.02Z" transform="translate(0 0.537)" fill="url(#linear-gradient)"/>
    <path id="Trazado_613168" data-name="Trazado 613168" d="M403.1,1273.066c58.118,173.641,262.935,78.446,324.067,20.11C606.476,1197.867,437.162,1232.021,403.1,1273.066Z" transform="translate(0.015 3.818)" fill="#24aa97"/>
    <path id="Trazado_613169" data-name="Trazado 613169" d="M405.292,1281.032c74.7,170.66,277.034,122.323,321.529,10.95C557.469,1336.068,566.7,1189.416,405.292,1281.032Z" transform="translate(0.06 4.198)" fill="#148d80"/>
    <g id="Grupo_875614" data-name="Grupo 875614" transform="translate(449.29 1269.467)">
      <path id="Trazado_613170" data-name="Trazado 613170" d="M473.737,1310.563a.649.649,0,0,1-.647.65h0a.649.649,0,0,1-.65-.647l-.053-23.018a.649.649,0,0,1,.647-.65h0a.648.648,0,0,1,.65.647Z" transform="translate(-447.849 -1264.516)" fill="url(#linear-gradient-2)"/>
      <path id="Trazado_613171" data-name="Trazado 613171" d="M473.3,1299.448c-1.012.561-4.407-2.92-6.726-6.7-1.509-2.457-.873-2.68-2.09-4.406-2.846-4.034-6.231-3.512-7.5-6.746-.92-2.336.654-3.1-.272-5.2-1.691-3.838-7.739-3.132-8.321-5.738-.383-1.716,1.8-4.019,3.987-5.006,6.117-2.755,16.772,3.17,19.159,10.808,1.283,4.106-.87,5.36.173,13.28C472.483,1295.638,474.2,1298.948,473.3,1299.448Z" transform="translate(-448.344 -1264.967)" fill="#81ad20"/>
      <path id="Trazado_613172" data-name="Trazado 613172" d="M472.411,1287.675s3.541-17.547,13.545-13.165,1.749,10.231-3.377,10.4-3.411.389-5.734,2.431S470.84,1292.8,472.411,1287.675Z" transform="translate(-447.856 -1264.785)" fill="#81ad20"/>
      <path id="Trazado_613173" data-name="Trazado 613173" d="M452.2,1268.869a16.423,16.423,0,0,1,4.541-.318,10.046,10.046,0,0,1,1.15.151,10.628,10.628,0,0,1,1.141.261,9.361,9.361,0,0,1,2.168.944,10.909,10.909,0,0,1,1,.66,11.512,11.512,0,0,1,.89.791,13.349,13.349,0,0,1,1.525,1.806,22.428,22.428,0,0,1,2.147,4.109A56.991,56.991,0,0,1,469.3,1286q.978,4.415,1.609,8.889c-.981-2.854-1.809-5.746-2.654-8.621-.434-1.434-.834-2.874-1.3-4.289-.449-1.419-.92-2.827-1.481-4.187-1.084-2.712-2.5-5.363-4.853-6.978a10.325,10.325,0,0,0-3.974-1.594A22.241,22.241,0,0,0,452.2,1268.869Z" transform="translate(-448.264 -1264.894)" fill="#fff" opacity="0.42"/>
      <path id="Trazado_613174" data-name="Trazado 613174" d="M473.709,1287.1a20.609,20.609,0,0,1,1.49-4.366,11.78,11.78,0,0,1,2.759-3.856,7.184,7.184,0,0,1,4.484-1.831,9.044,9.044,0,0,1,4.54,1.087,15.933,15.933,0,0,0-4.422-.015,7.572,7.572,0,0,0-3.689,1.8,16.5,16.5,0,0,0-2.734,3.345C475.325,1284.5,474.571,1285.82,473.709,1287.1Z" transform="translate(-447.821 -1264.719)" fill="#fff" opacity="0.42"/>
    </g>
    <path id="Trazado_613175" data-name="Trazado 613175" d="M652.922,1371.047c5.185-5.378,5.561-11.078-5-15.806a210.614,210.614,0,0,0-102.491-17.654c-15.635,1.267-91.3,12.24-84.546,39.06,4.572,18.149,35.9,5.593,48.038,13.037,3.886,2.383,7.294,5.481,11.162,7.893,24.873,15.516,63.733-2.4,89.7-7.365C624.579,1387.385,642.147,1382.221,652.922,1371.047Z" transform="translate(1.196 5.982)" fill="url(#linear-gradient-3)"/>
    <g id="Grupo_875626" data-name="Grupo 875626" transform="translate(454.917 1046.472)">
      <g id="Grupo_875615" data-name="Grupo 875615" transform="translate(0 88.803)">
        <path id="Trazado_613176" data-name="Trazado 613176" d="M476.183,1151.695s1.28,1.4,3.521,3.861c1.123,1.225,2.486,2.712,4.052,4.417s3.356,3.6,5.355,5.619,4.207,4.162,6.636,6.313a92.686,92.686,0,0,0,7.944,6.352c2.906,2.036,5.952,4.137,8.989,6.331s6.108,4.468,9.113,6.831,5.93,4.839,8.725,7.377q1.053.946,2.069,1.918c.688.636,1.346,1.3,2.006,1.947l.494.488.489.5.948.977c.631.637,1.249,1.338,1.867,2a97.029,97.029,0,0,1,6.623,8.052,88.378,88.378,0,0,1,5.135,7.832c1.439,2.526,2.649,4.907,3.611,7.073.485,1.08.892,2.114,1.284,3.061.349.965.679,1.849.956,2.654.256.813.486,1.538.686,2.17s.326,1.182.45,1.621c.238.883.363,1.353.363,1.353l-3.129.771s-.121-.446-.348-1.283c-.119-.417-.241-.938-.431-1.538s-.41-1.288-.655-2.061c-.265-.765-.584-1.605-.913-2.525-.367-.905-.747-1.893-1.2-2.928-.9-2.075-2.044-4.364-3.407-6.8a85.586,85.586,0,0,0-4.894-7.587c-1.879-2.6-3.983-5.272-6.306-7.9-.591-.65-1.147-1.309-1.78-1.968l-.932-.992-.456-.487-.476-.485c-1.267-1.3-2.56-2.6-3.907-3.87-2.683-2.555-5.507-5.055-8.416-7.467s-5.865-4.771-8.825-7.041-5.91-4.447-8.776-6.587a87.47,87.47,0,0,1-7.88-6.725c-2.375-2.273-4.516-4.518-6.447-6.627s-3.645-4.086-5.154-5.845-2.806-3.309-3.87-4.587l-3.343-4.016Z" transform="translate(-453.402 -1133.108)" fill="#81ad20"/>
        <path id="Trazado_613177" data-name="Trazado 613177" d="M519.23,1201.6c3.146-3.049-22.043-16.387-24.224-13.378-.752,1.037,2.556,5.526.332,6-7.226-.813-17.414,6.657-28.051,15.381a1.384,1.384,0,0,0,.809,2.529c8.154-.51,14.535.655,17.671,4.893a1.479,1.479,0,0,1-.078,1.8l-.034.042a1.353,1.353,0,0,0,1.427,2.211C503.3,1215.667,507.4,1208.571,519.23,1201.6Z" transform="translate(-453.593 -1132.365)" fill="#81ad20"/>
        <path id="Trazado_613178" data-name="Trazado 613178" d="M544.628,1216.776l-.533-.527c-.348-.343-.856-.858-1.511-1.459-.646-.616-1.466-1.344-2.418-2.163s-2.056-1.7-3.3-2.62c-1.232-.932-2.626-1.857-4.122-2.8-1.513-.915-3.133-1.843-4.874-2.677a52.037,52.037,0,0,0-5.5-2.274,50.557,50.557,0,0,0-5.925-1.618,48.217,48.217,0,0,0-6.1-.805,49.417,49.417,0,0,0-5.963.012,48.812,48.812,0,0,0-5.54.723,49.869,49.869,0,0,0-4.876,1.17c-1.489.444-2.844.894-4.022,1.353-1.193.424-2.193.893-3.034,1.237-.832.367-1.471.688-1.913.891l-.677.319-.008,0a.233.233,0,0,1-.2-.418l.674-.336c.442-.214,1.079-.55,1.91-.938.841-.364,1.84-.859,3.036-1.312,1.181-.488,2.541-.971,4.041-1.452a50.248,50.248,0,0,1,4.92-1.287,49.565,49.565,0,0,1,5.622-.853,50.4,50.4,0,0,1,6.088-.138,49.633,49.633,0,0,1,6.257.7,51.912,51.912,0,0,1,6.112,1.535,53.562,53.562,0,0,1,5.691,2.218c1.805.821,3.488,1.738,5.062,2.646,1.555.938,3.007,1.86,4.291,2.79,1.3.913,2.441,1.81,3.442,2.619s1.847,1.545,2.535,2.175,1.211,1.117,1.568,1.452l.544.516a.921.921,0,0,1-1.269,1.336Z" transform="translate(-453.237 -1132.139)" fill="#81ad20"/>
        <path id="Trazado_613179" data-name="Trazado 613179" d="M503.253,1178.455c1.087,5.01-35.146-.339-35.146-.339,1.423.472,6.767-5.995,4.783-7.9-8.578-4.075-13.955-19.216-18.988-35.545a.919.919,0,0,1,1.433-1c9.206,6.9,17.67,10.592,24.655,7.869a.945.945,0,0,0,.578-.757c.218-1.619-.594-2.432-.809-4.175a.921.921,0,0,1,1.617-.727C495.65,1153.031,506.076,1165.734,503.253,1178.455Z" transform="translate(-453.857 -1133.483)" fill="#81ad20"/>
      </g>
      <g id="Grupo_875616" data-name="Grupo 875616" transform="translate(102.874 153.132)">
        <path id="Trazado_613180" data-name="Trazado 613180" d="M596.229,1210.68c-3.4,2.477,21.724,18.965,21.724,18.965-1.13-.488-.877-7.366,1.377-7.448,7.48,2.182,19.034-4.164,31.027-11.425a.754.754,0,0,0-.332-1.4c-9.408-.791-16.607-3.147-19.4-8.627a.773.773,0,0,1,.059-.779c.749-1.11,1.69-1.167,2.773-2.117a.756.756,0,0,0-.595-1.328C614.758,1199.246,601.44,1201.343,596.229,1210.68Z" transform="translate(-553.805 -1196.515)" fill="#81ad20"/>
        <path id="Trazado_613181" data-name="Trazado 613181" d="M632.854,1210l-.29.05a8.492,8.492,0,0,1-.855.117,13.131,13.131,0,0,1-3.285-.114,42.7,42.7,0,0,1-4.932-1.172,32.8,32.8,0,0,0-6.354-1.112,36.657,36.657,0,0,0-7.6.246,42.915,42.915,0,0,0-8.243,1.965,46.4,46.4,0,0,0-8.23,3.773c-.156.093-.356.2-.479.281l-.5.315-1,.632c-.662.428-1.364.831-1.981,1.293l-1.909,1.35c-.643.436-1.245.958-1.87,1.434a82.269,82.269,0,0,0-7.062,6.191c-2.169,2.214-4.267,4.429-6.116,6.73l-1.386,1.7-1.284,1.725c-.416.574-.856,1.122-1.239,1.7s-.774,1.139-1.153,1.7c-.784,1.1-1.438,2.238-2.108,3.317-.688,1.067-1.238,2.163-1.81,3.189-.588,1.02-1.052,2.044-1.519,3.008l-.677,1.407-.564,1.361c-.182.439-.358.865-.529,1.276s-.338.805-.463,1.2l-.751,2.13c-.243.639-.4,1.225-.543,1.734l-.365,1.292-.305,1.076-2.789-.688s.111-.395.318-1.135c.1-.369.233-.826.383-1.361s.316-1.156.567-1.826l.786-2.236c.136-.41.311-.823.495-1.249s.368-.872.563-1.33l.6-1.417q.347-.71.716-1.46c.493-1,.987-2.063,1.6-3.116s1.186-2.193,1.905-3.293c.7-1.11,1.392-2.283,2.21-3.415l1.207-1.742c.407-.59.871-1.148,1.31-1.732l1.355-1.756,1.459-1.728a86.773,86.773,0,0,1,6.437-6.8,84.692,84.692,0,0,1,7.426-6.185c.661-.47,1.286-.978,1.978-1.418l2.04-1.345c.674-.468,1.366-.835,2.047-1.244l1.023-.6.51-.3c.211-.128.363-.2.548-.3a48.07,48.07,0,0,1,8.654-3.636,42.507,42.507,0,0,1,8.592-1.742,37.851,37.851,0,0,1,7.839.068,33.587,33.587,0,0,1,6.457,1.4,46.683,46.683,0,0,0,4.818,1.373,12.756,12.756,0,0,0,3.174.263,8.091,8.091,0,0,0,.842-.076l.292-.036Z" transform="translate(-554.655 -1196.308)" fill="#81ad20"/>
      </g>
      <g id="Grupo_875617" data-name="Grupo 875617" transform="translate(20.306 201.309)">
        <path id="Trazado_613182" data-name="Trazado 613182" d="M519.221,1272.108c4.193-.332-6.891-27.873-10.333-26.926-1.186.326-1.361,6.132-3.325,5.022-4.974-5.491-17.126-6.339-30.362-6.485a1.434,1.434,0,0,0-.9,2.565c6.465,5.053,10.593,10.261,10.437,15.751a1.451,1.451,0,0,1-1.129,1.384l-.05.01a1.435,1.435,0,0,0-.24,2.725C498.8,1272.69,510.406,1277.051,519.221,1272.108Z" transform="translate(-473.753 -1243.719)" fill="#81ad20"/>
        <path id="Trazado_613183" data-name="Trazado 613183" d="M533.6,1294.682c2.283-1.353-10.681-12.763-12.39-11.3-.59.505.728,3.616-.65,3.583-4.144-1.5-11.2,1.47-18.7,5.111a.838.838,0,0,0,.12,1.6c4.876.848,8.473,2.434,9.724,5.373a.9.9,0,0,1-.3,1.047l-.026.019a.82.82,0,0,0,.529,1.5C522.234,1300.726,525.648,1297.122,533.6,1294.682Z" transform="translate(-473.185 -1242.905)" fill="#81ad20"/>
        <path id="Trazado_613184" data-name="Trazado 613184" d="M555.795,1326.772c.009,0-.133.019-.316.033l-.317.014-.2.008-.177-.009a1.446,1.446,0,0,1-.633-.148c-.16-.089-.164-.254-.236-.417l-1.04-2.924c-.438-1.259-.988-2.78-1.575-4.531-.6-1.74-1.283-3.7-2.025-5.843s-1.594-4.417-2.542-6.8c-.48-1.19-.993-2.4-1.528-3.631s-1.133-2.459-1.765-3.7a52.338,52.338,0,0,0-4.469-7.244,40.14,40.14,0,0,0-2.775-3.363c-1-1.09-2.05-2.133-3.14-3.164-2.177-2.055-4.476-4-6.781-5.907-2.284-1.886-4.583-3.721-6.833-5.45-4.5-3.467-8.782-6.613-12.5-9.249l-12.4-8.8,3.6,2.131,4.114,2.476c1.587.959,3.376,2.044,5.305,3.265s4.022,2.542,6.214,3.974,4.5,2.958,6.836,4.606,4.747,3.359,7.142,5.2c2.373,1.823,4.8,3.716,7.119,5.75,1.159,1.015,2.309,2.075,3.4,3.172a43.472,43.472,0,0,1,3.114,3.484,54.189,54.189,0,0,1,5.035,7.513,74.293,74.293,0,0,1,3.678,7.546c1.041,2.446,1.9,4.8,2.655,6.972s1.374,4.183,1.937,5.953,1,3.323,1.392,4.593.689,2.26.9,2.939c.041.175.138.308.064.476a1.452,1.452,0,0,1-.414.5l-.136.115-.166.115-.261.181C555.912,1326.708,555.787,1326.775,555.795,1326.772Z" transform="translate(-473.325 -1243.473)" fill="#81ad20"/>
        <path id="Trazado_613185" data-name="Trazado 613185" d="M548.711,1308.078l-.986-1.542c-.3-.506-.716-1.051-1.179-1.7-.238-.318-.465-.673-.752-1.017l-.892-1.092c-.156-.19-.314-.384-.477-.583l-.531-.573-1.117-1.2-1.26-1.188c-.219-.2-.429-.413-.659-.607l-.709-.575-.722-.584a7.727,7.727,0,0,0-.751-.568c-.521-.358-1.047-.723-1.578-1.089a31.309,31.309,0,0,0-3.435-1.863,15.28,15.28,0,0,0-1.805-.773c-.615-.218-1.222-.459-1.837-.656a30.325,30.325,0,0,0-3.7-.855l-.905-.154-.446-.076-.447-.034-1.737-.133a13.2,13.2,0,0,0-1.65-.032l-1.544.021a5.28,5.28,0,0,0-.726.045l-.691.07-1.277.13a19.135,19.135,0,0,0-2.062.328l-1.791.335-.013,0a.175.175,0,0,1-.068-.343l1.8-.382a19.57,19.57,0,0,1,2.075-.382l1.29-.162.7-.088a5.561,5.561,0,0,1,.735-.064l1.569-.059a13.319,13.319,0,0,1,1.679-.008l1.775.092.457.024.457.065.929.134a31.106,31.106,0,0,1,3.811.786c.636.187,1.265.418,1.9.629a16.15,16.15,0,0,1,1.877.749,32.1,32.1,0,0,1,3.586,1.835q.834.546,1.653,1.084a7.676,7.676,0,0,1,.79.564l.758.585.747.577c.243.194.464.408.694.608l1.331,1.2,1.182,1.209.561.579.505.588.947,1.1c.3.347.554.714.809,1.04.5.661.952,1.235,1.259,1.722l1.022,1.519a.69.69,0,1,1-1.145.772Z" transform="translate(-472.948 -1242.753)" fill="#81ad20"/>
      </g>
      <g id="Grupo_875618" data-name="Grupo 875618" transform="translate(102.184 65.875)">
        <path id="Trazado_613186" data-name="Trazado 613186" d="M559.453,1126.086c.171,7.255,8.11,11.477,14.489,12.748a13.833,13.833,0,0,0,5.562.052,13.44,13.44,0,0,0,4.766-2.07,13.3,13.3,0,0,0,5.561-8.281c.774-3.615.057-7.41-4.12-11.672a18.788,18.788,0,0,0-13.019-5.114,11.756,11.756,0,0,0-5.313,1.265,13.917,13.917,0,0,0-4.221,3.518A14.9,14.9,0,0,0,559.453,1126.086Z" transform="translate(-553.867 -1111.003)" fill="#e26c1e"/>
        <path id="Trazado_613187" data-name="Trazado 613187" d="M583.942,1127.154a8.055,8.055,0,0,0-2.413-3.943c-2.529-2.228-4.223-1.793-4.223-1.793s.016-.678,3.592-1.28a6.134,6.134,0,0,0,4.609-4.1,15.956,15.956,0,0,1-3.956,2.241c-1.872.611-3.173-.727-5.249.8,0,0-.2-2.175,1.12-3.093a8.04,8.04,0,0,0,2.174-3.167,9.128,9.128,0,0,1-3.654,1.785c-2.421.64-2.547,3.589-2.538,4.466a3.643,3.643,0,0,0-3.1-2.158c-2.564-.424-3.96-4.7-3.96-4.7s-.2,3.213,1.252,4.708c2.787,3.323,5.17,3.587,5.17,3.587s.278.876-3.078.887-3.1,4.245-3.1,4.245,1.909-2.467,4.318-2.448,3.5-.093,3.5-.093,3.241,3.376,1.048,5.487a13.2,13.2,0,0,1-3.5,1.994s3.955,1.182,5.446-1.114-.1-5.895-.1-5.895a8.776,8.776,0,0,1,3.414,1A18.7,18.7,0,0,1,583.942,1127.154Z" transform="translate(-553.725 -1110.993)" fill="#81ad20"/>
        <path id="Trazado_613188" data-name="Trazado 613188" d="M554.906,1133.464a.92.92,0,0,1-.921-.908c-.168-12.369,3.46-20.381,9.706-21.434,4.912-.827,9.921,3.377,12.193,10.223a.921.921,0,1,1-1.748.58c-1.979-5.963-6.146-9.654-10.139-8.986-4.069.686-8.353,6.193-8.17,19.593a.921.921,0,0,1-.908.933Z" transform="translate(-553.979 -1111.018)" fill="#81ad20"/>
      </g>
      <g id="Grupo_875619" data-name="Grupo 875619" transform="translate(105.003 240.724)">
        <path id="Trazado_613189" data-name="Trazado 613189" d="M567.318,1298.581c2.721,4.88,9.643,4.907,14.445,3.483a10.647,10.647,0,0,0,3.807-1.962,10.436,10.436,0,0,0,3.32-10.757c-.772-2.74-2.622-5.067-7-6.472a14.465,14.465,0,0,0-10.7,1.19,9.044,9.044,0,0,0-3.166,2.769,10.688,10.688,0,0,0-1.613,3.911A11.47,11.47,0,0,0,567.318,1298.581Z" transform="translate(-556.549 -1282.338)" fill="#e26c1e"/>
        <path id="Trazado_613190" data-name="Trazado 613190" d="M578.5,1294.413a1.849,1.849,0,0,0,.209-1.836,2.851,2.851,0,0,0-1.821-1.588s.3-.212,2.749.456a7.82,7.82,0,0,0,4.578-.2,22.147,22.147,0,0,1-3.382-.237c-1.407-.255-1.633-.994-3.557-1.007a3.1,3.1,0,0,1,2.009-.717,9.411,9.411,0,0,0,2.687-.487,12.559,12.559,0,0,1-3-.31,4.329,4.329,0,0,0-3.466.813s.415-.68-.974-1.432-.416-2.45-.416-2.45-1.5.977-1.247,1.8a3.324,3.324,0,0,0,1.633,2.387s-.2.346-2.265-.458a3.875,3.875,0,0,0-3.716.607,8.7,8.7,0,0,1,3.693.258c1.469.585,2.183.811,2.183.811s.542,1.856-1.705,2a18.24,18.24,0,0,1-3-.207,5.761,5.761,0,0,0,3.813.955,3.309,3.309,0,0,0,2.46-1.9,5.568,5.568,0,0,1,1.662,1.14A5.279,5.279,0,0,1,578.5,1294.413Z" transform="translate(-556.499 -1282.275)" fill="#81ad20"/>
        <path id="Trazado_613191" data-name="Trazado 613191" d="M557.664,1299.231a.886.886,0,0,1-.091-.005.921.921,0,0,1-.827-1.006c1.291-13.179,7.561-15.2,10.2-15.456,4.692-.457,9.542,3.091,11.04,8.078a.921.921,0,1,1-1.764.53c-1.254-4.173-5.249-7.152-9.1-6.775-4.613.449-7.726,5.481-8.541,13.8A.922.922,0,0,1,557.664,1299.231Z" transform="translate(-556.742 -1282.33)" fill="#81ad20"/>
      </g>
      <g id="Grupo_875620" data-name="Grupo 875620" transform="translate(44.918)">
        <path id="Trazado_613192" data-name="Trazado 613192" d="M539.369,1098.157c2.717-2.065-15.524-14.73-17.492-12.606-.679.732,1.462,4.512-.3,4.672-5.514-1.3-14.092,3.527-23.134,9.283a1.078,1.078,0,0,0,.391,2.032c6.354.365,11.184,1.862,13.214,5.433a1.152,1.152,0,0,1-.229,1.381l-.03.029a1.055,1.055,0,0,0,.9,1.844C525.734,1107.553,529.566,1102.447,539.369,1098.157Z" transform="translate(-497.868 -1045.672)" fill="#81ad20"/>
        <path id="Trazado_613193" data-name="Trazado 613193" d="M544.5,1089.48c3.735,1.646,6.584-25.482,3.217-26.294-1.16-.279-3.91,4.295-5.092,2.511-1.8-6.668-11.811-12.888-23.066-19.039a1.321,1.321,0,0,0-1.915,1.647c3.268,7,4.468,13.053,1.876,17.383a1.387,1.387,0,0,1-1.585.594l-.047-.014a1.3,1.3,0,0,0-1.425,2.075C526.775,1080.637,534.747,1089.423,544.5,1089.48Z" transform="translate(-497.492 -1046.472)" fill="#81ad20"/>
        <path id="Trazado_613194" data-name="Trazado 613194" d="M555.118,1122.627l-.446,0a6.178,6.178,0,0,1-.908-.038.657.657,0,0,1-.255-.074c-.044-.034-.029-.077-.043-.12l-.055-.31c-.087-.455-.213-1.123-.375-1.972s-.365-1.879-.595-3.061c-.119-.588-.246-1.215-.381-1.874s-.275-1.352-.433-2.074-.319-1.456-.509-2.252c-.181-.761-.39-1.572-.617-2.39-.458-1.642-1-3.369-1.608-5.151q-.233-.667-.469-1.347-.257-.675-.518-1.358l-1.055-2.768c-.707-1.86-1.426-3.75-2.143-5.639s-1.471-3.76-2.209-5.6-1.491-3.644-2.253-5.373-1.505-3.4-2.26-4.957c-.376-.781-.737-1.542-1.113-2.265s-.708-1.439-1.073-2.1l-1.026-1.914-.969-1.7c-.609-1.071-1.191-1.973-1.64-2.736l-1.5-2.343,1.7,2.208c.513.723,1.156,1.589,1.847,2.615l1.1,1.638c.372.586.763,1.2,1.171,1.846.805,1.294,1.654,2.713,2.5,4.244.434.759.855,1.55,1.286,2.361s.865,1.641,1.293,2.493c.861,1.7,1.713,3.476,2.562,5.287s1.67,3.668,2.488,5.524,1.607,3.721,2.4,5.552q.583,1.376,1.156,2.725.288.675.569,1.339l.6,1.317c.787,1.747,1.52,3.46,2.16,5.118.322.832.619,1.636.9,2.445.268.775.509,1.576.729,2.317s.389,1.477.557,2.168.279,1.355.4,1.977c.228,1.244.353,2.339.443,3.241s.127,1.614.155,2.1c.005.118.01.223.014.313,0,.047.021.086-.014.128a.683.683,0,0,1-.233.13,6.2,6.2,0,0,1-.878.239Z" transform="translate(-497.193 -1046.128)" fill="#81ad20"/>
        <path id="Trazado_613195" data-name="Trazado 613195" d="M554.427,1114.509l-.261-.518c-.172-.334-.415-.843-.742-1.456s-.715-1.355-1.208-2.194c-.237-.424-.5-.867-.788-1.328s-.583-.951-.917-1.443l-.5-.76-.549-.767c-.364-.53-.781-1.042-1.2-1.582a31.966,31.966,0,0,0-2.872-3.154,26.527,26.527,0,0,0-3.534-2.853,22.449,22.449,0,0,0-8.688-3.395,29.593,29.593,0,0,0-4.567-.352,36.93,36.93,0,0,0-4.3.3c-.684.073-1.341.206-1.981.3-.638.114-1.25.248-1.84.362-1.174.266-2.246.53-3.188.8-.947.25-1.756.528-2.432.726l-2.1.7-.007,0a.233.233,0,0,1-.153-.44l2.092-.765c.675-.217,1.483-.519,2.432-.8.943-.3,2.019-.592,3.2-.893.6-.133,1.212-.285,1.856-.417.649-.113,1.313-.266,2.009-.359a37.316,37.316,0,0,1,4.394-.427,30.4,30.4,0,0,1,4.739.239,23.631,23.631,0,0,1,9.226,3.329,27.971,27.971,0,0,1,3.8,2.9,33.787,33.787,0,0,1,3.088,3.216c.447.548.9,1.073,1.286,1.61l.591.781.542.772c.359.5.683.994.986,1.464s.593.918.848,1.346c.528.845.952,1.611,1.309,2.236s.6,1.113.786,1.446l.275.511a.921.921,0,1,1-1.622.873Z" transform="translate(-497.568 -1045.498)" fill="#81ad20"/>
      </g>
      <path id="Trazado_613196" data-name="Trazado 613196" d="M558.027,1358.426c.009,3.693-1.216,6.69-2.733,6.693h0c-1.519,0-2.757-2.987-2.765-6.681l-.541-237.386c-.008-3.694,1.216-6.69,2.734-6.694h0c1.518,0,2.756,2.988,2.764,6.681Z" transform="translate(-451.836 -1045.074)" fill="#81ad20"/>
      <g id="Grupo_875621" data-name="Grupo 875621" transform="translate(106.966 126.387)">
        <path id="Trazado_613197" data-name="Trazado 613197" d="M563.039,1209.8c4.224,12.653,20.087,15.881,31.688,14.749a24.11,24.11,0,0,0,9.541-2.842,23.7,23.7,0,0,0,7.031-6.15,24.475,24.475,0,0,0,5.026-17.478c-.635-6.759-3.917-13.046-13.371-18.329a33.153,33.153,0,0,0-25.036-2.115,20.6,20.6,0,0,0-8.4,5.023,25.062,25.062,0,0,0-5.314,8.406C561.887,1196.914,561.011,1203.719,563.039,1209.8Z" transform="translate(-558.598 -1170.19)" fill="#e26c1e"/>
        <path id="Trazado_613198" data-name="Trazado 613198" d="M602.249,1186.329a13.17,13.17,0,0,0-7.042-2.743c-5.5-.4-7.273,1.846-7.273,1.846s-.65-.9,3.409-5.22,1.937-9.9,1.937-9.9a26.044,26.044,0,0,1-2.93,6.833c-1.83,2.648-4.848,2.2-6.04,6.235,0,0-2.414-2.632-1.605-5.133s-.305-6.275-.305-6.275a14.934,14.934,0,0,1-2.989,5.941c-2.516,3.229.239,7.193,1.119,8.325,0,0-2.406-1.728-6.165.257s-9.8-2.194-9.8-2.194,2.922,4.378,6.291,4.889c6.917,1.564,10.279-.45,10.279-.45s1.229.865-3.127,4.2.163,8.6.163,8.6.042-5.1,3.2-7.46,4.461-3.584,4.461-3.584,7.562,1.186,6.8,6.1a21.615,21.615,0,0,1-2.585,6.062s6.315-2.376,5.985-6.839-5.967-7.573-5.967-7.573a14.351,14.351,0,0,1,5.436-2.074A30.559,30.559,0,0,1,602.249,1186.329Z" transform="translate(-558.544 -1170.309)" fill="#81ad20"/>
        <path id="Trazado_613199" data-name="Trazado 613199" d="M586.81,1189.452a.92.92,0,0,1-.867-.611c-2.891-8.1-8.446-13.359-14.153-13.409h-.082c-4.75,0-8.746,3.667-11.261,10.337a.921.921,0,0,1-1.724-.65c2.765-7.332,7.5-11.529,12.988-11.529h.095c6.487.057,12.717,5.8,15.87,14.63a.922.922,0,0,1-.867,1.231Z" transform="translate(-558.665 -1170.241)" fill="#81ad20"/>
      </g>
      <g id="Grupo_875622" data-name="Grupo 875622" transform="translate(46.88 185.615)">
        <path id="Trazado_613200" data-name="Trazado 613200" d="M552.169,1241.644a25.606,25.606,0,0,0-6.2-8.051,21.044,21.044,0,0,0-9.026-4.318,33.879,33.879,0,0,0-25.277,4.518c-9.121,6.269-11.866,12.977-11.874,19.914a25.02,25.02,0,0,0,6.767,17.311,24.22,24.22,0,0,0,7.735,5.593,24.637,24.637,0,0,0,9.977,1.991c11.912.056,27.75-4.728,30.853-18C556.613,1254.226,555.078,1247.383,552.169,1241.644Z" transform="translate(-499.791 -1228.339)" fill="#e26c1e"/>
        <path id="Trazado_613201" data-name="Trazado 613201" d="M512.076,1250.305a13.456,13.456,0,0,1,5.3-5.621c4.9-2.778,7.524-1.487,7.524-1.487s.206-1.113-5.438-3.323-6.132-8.29-6.132-8.29a26.637,26.637,0,0,0,5.7,5.021c2.852,1.641,5.438-.1,8.311,3.1,0,0,1.072-3.488-.771-5.442s-2.472-5.925-2.472-5.925a15.266,15.266,0,0,0,5.366,4.172c3.738,1.877,2.935,6.744,2.62,8.175,0,0,1.464-2.65,5.8-2.468s8.088-6.327,8.088-6.327-.777,5.322-3.662,7.272c-5.7,4.478-9.685,4.095-9.685,4.095s-.754,1.338,4.729,2.506,3.62,8.006,3.62,8.006-2.276-4.689-6.224-5.485-5.69-1.35-5.69-1.35-6.459,4.411-3.6,8.615a22.065,22.065,0,0,0,5.047,4.462s-6.873.578-8.525-3.686,2.185-9.609,2.185-9.609a14.679,14.679,0,0,0-5.927.47A31.274,31.274,0,0,0,512.076,1250.305Z" transform="translate(-499.538 -1228.342)" fill="#81ad20"/>
        <path id="Trazado_613202" data-name="Trazado 613202" d="M526.754,1244.836a.921.921,0,0,1-.867-1.231c3.221-9.017,9.58-14.881,16.2-14.938h.1c5.605,0,10.432,4.283,13.253,11.769a.921.921,0,1,1-1.723.65c-2.573-6.824-6.664-10.576-11.528-10.576H542.1c-5.84.052-11.525,5.436-14.482,13.717A.921.921,0,0,1,526.754,1244.836Z" transform="translate(-499.255 -1228.335)" fill="#81ad20"/>
      </g>
      <g id="Grupo_875623" data-name="Grupo 875623" transform="translate(101.662 62.722)">
        <path id="Trazado_613203" data-name="Trazado 613203" d="M596.868,1139.272c-4.969-.706,10.271-32.681,14.3-31.3,1.388.477,1.167,7.4,3.586,6.228,6.331-6.17,20.864-6.28,36.636-5.472a1.712,1.712,0,0,1,.877,3.121c-8.074,5.538-13.376,11.434-13.6,17.983a1.732,1.732,0,0,0,1.242,1.731l.058.016a1.712,1.712,0,0,1,.085,3.263C621.141,1141.478,607,1145.811,596.868,1139.272Z" transform="translate(-552.594 -1107.928)" fill="#81ad20"/>
        <path id="Trazado_613204" data-name="Trazado 613204" d="M599.514,1154.6c-2.408-3.375,23.324-11.485,24.84-8.311.523,1.094-3.325,4.707-1.336,5.53,6.866.478,15.074,9.176,23.485,19.117a1.31,1.31,0,0,1-1.186,2.216c-7.5-1.87-13.645-1.876-17.289,1.534a1.4,1.4,0,0,0-.234,1.684l.023.044a1.281,1.281,0,0,1-1.706,1.816C611.939,1170.415,609.337,1163.109,599.514,1154.6Z" transform="translate(-552.522 -1107.153)" fill="#81ad20"/>
        <path id="Trazado_613205" data-name="Trazado 613205" d="M554.538,1197.9c.007,0-.1-.063-.233-.165l-.224-.181-.143-.116-.113-.116a1.329,1.329,0,0,1-.34-.524c-.058-.182.041-.334.093-.526.248-.757.605-1.866,1.11-3.292.247-.711.517-1.5.835-2.347s.64-1.773,1.039-2.739.788-2.012,1.256-3.089.934-2.222,1.486-3.388c1.058-2.352,2.317-4.853,3.728-7.455s3.06-5.265,4.853-7.959a94.235,94.235,0,0,1,6.031-7.959q.845-.958,1.694-1.925c.583-.63,1.186-1.245,1.78-1.87,1.185-1.241,2.468-2.429,3.748-3.573,2.573-2.286,5.277-4.415,7.918-6.46,2.673-2.06,5.337-4.007,7.943-5.862s5.164-3.585,7.607-5.2,4.767-3.114,6.921-4.485,4.141-2.607,5.907-3.691l4.579-2.8,4.006-2.416s-5.573,3.9-13.935,9.742c-4.172,2.927-8.982,6.422-14.039,10.272-2.525,1.927-5.115,3.955-7.677,6.069-2.581,2.14-5.153,4.308-7.59,6.62-1.219,1.161-2.4,2.322-3.516,3.566-.553.621-1.116,1.23-1.658,1.854l-1.577,1.907a94.838,94.838,0,0,0-5.607,7.869c-1.674,2.658-3.157,5.309-4.525,7.844-1.326,2.56-2.561,4.993-3.6,7.287-1.059,2.287-1.994,4.4-2.782,6.3s-1.473,3.552-1.992,4.921c-.539,1.36-.94,2.464-1.216,3.212-.078.184-.1.364-.253.469a1.324,1.324,0,0,1-.592.2l-.161.021-.184,0-.287,0C554.656,1197.915,554.53,1197.9,554.538,1197.9Z" transform="translate(-553.468 -1107.685)" fill="#81ad20"/>
        <path id="Trazado_613206" data-name="Trazado 613206" d="M571.267,1161.78s.2-.131.572-.374.911-.606,1.638-1.045,1.6-.961,2.62-1.532,2.2-1.176,3.5-1.781c1.3-.624,2.745-1.211,4.289-1.8,1.554-.555,3.209-1.1,4.956-1.542a48.5,48.5,0,0,1,5.447-1.057,46.966,46.966,0,0,1,5.714-.379,45.234,45.234,0,0,1,5.709.4,46.047,46.047,0,0,1,5.422,1.113,44.973,44.973,0,0,1,4.891,1.678,45.752,45.752,0,0,1,4.195,1.952c1.263.675,2.4,1.329,3.38,1.958,1,.6,1.812,1.205,2.5,1.669.681.482,1.2.886,1.557,1.15l.548.41a.175.175,0,0,1-.206.282l-.006-.005-.552-.4c-.363-.256-.882-.649-1.566-1.117-.7-.448-1.515-1.036-2.514-1.613-.98-.607-2.119-1.236-3.38-1.882a45.18,45.18,0,0,0-4.177-1.86,44.393,44.393,0,0,0-4.848-1.572,45.194,45.194,0,0,0-5.348-1,44.23,44.23,0,0,0-5.6-.293,46.248,46.248,0,0,0-5.588.464,47.887,47.887,0,0,0-5.311,1.126c-1.7.458-3.311,1.022-4.822,1.591-1.5.6-2.9,1.2-4.166,1.829-1.27.614-2.4,1.236-3.4,1.8s-1.848,1.092-2.531,1.539c-.69.431-1.23.807-1.6,1.056l-.564.384a.691.691,0,1,1-.777-1.143Z" transform="translate(-553.107 -1107.015)" fill="#81ad20"/>
      </g>
      <g id="Grupo_875624" data-name="Grupo 875624" transform="translate(101.324 195.671)">
        <path id="Trazado_613207" data-name="Trazado 613207" d="M595.039,1244.13c-4.165,1.552,16.7,25.484,16.7,25.484-1.01-.818,1.206-7.744,3.522-7.186,6.989,4.351,20.553,1.185,34.823-2.787a.8.8,0,0,0,.06-1.515c-9.347-3.485-16-7.933-17.283-14.3a.82.82,0,0,1,.282-.776c1.079-.917,2.053-.705,3.425-1.363a.8.8,0,0,0-.227-1.52C617.147,1237.775,603,1236.115,595.039,1244.13Z" transform="translate(-552.285 -1238.196)" fill="#81ad20"/>
        <path id="Trazado_613208" data-name="Trazado 613208" d="M625.762,1251.968l-.264-.219c-.177-.14-.428-.371-.776-.629a23.865,23.865,0,0,0-3.15-2.045,30.954,30.954,0,0,0-5.362-2.281,42.16,42.16,0,0,0-7.383-1.618,56.973,56.973,0,0,0-8.931-.432,54.4,54.4,0,0,0-9.872,1.115,30.7,30.7,0,0,0-9.7,3.765,32.938,32.938,0,0,0-8.029,7.09,49,49,0,0,0-3.248,4.381c-.5.757-.988,1.528-1.462,2.3l-.352.583-.176.292-.021.036c-.014.023.044-.077.009-.016l-.041.077-.081.154a10.156,10.156,0,0,0-.514,1.116,50.24,50.24,0,0,0-1.617,5.046c-.468,1.716-.893,3.431-1.293,5.124-.791,3.391-1.514,6.689-2.157,9.827s-1.224,6.113-1.744,8.863c-1.038,5.5-1.833,10.1-2.4,13.313l-.853,5.055,0,.018a1.612,1.612,0,0,1-3.179-.534l.85-5.089c.549-3.235,1.388-7.844,2.467-13.363.54-2.76,1.14-5.748,1.812-8.9s1.4-6.48,2.261-9.9c.431-1.714.886-3.453,1.394-5.212a52.834,52.834,0,0,1,1.8-5.344,14.507,14.507,0,0,1,.663-1.384l.084-.152.042-.076.076-.129.189-.3.377-.6c.506-.8,1.037-1.586,1.585-2.366a52,52,0,0,1,3.548-4.522,39.7,39.7,0,0,1,4.126-4.057,31.509,31.509,0,0,1,4.736-3.29,32.8,32.8,0,0,1,10.488-3.669,56.192,56.192,0,0,1,10.229-.806,56.97,56.97,0,0,1,9.121.833,43.069,43.069,0,0,1,7.479,1.982,30.2,30.2,0,0,1,5.373,2.582,24.337,24.337,0,0,1,3.106,2.25c.343.282.577.52.747.671l.253.233a.153.153,0,0,1-.2.231Z" transform="translate(-553.137 -1238.093)" fill="#81ad20"/>
        <path id="Trazado_613209" data-name="Trazado 613209" d="M582.774,1259.649c-.777-3.068,17.783-1.543,18.03,1.13.085.922-3.248,2.392-2.149,3.535,4.34,2.276,7.641,10.745,10.786,20.151.326.974-.543,1.807-1.283,1.233-4.429-3.44-8.409-5.177-11.561-3.793a1.05,1.05,0,0,0-.543,1.126l.005.038c.157,1.041-.913,1.594-1.527.8C587.157,1274.347,587.166,1268.444,582.774,1259.649Z" transform="translate(-552.527 -1237.789)" fill="#81ad20"/>
        <path id="Trazado_613210" data-name="Trazado 613210" d="M564,1264.41s.117-.145.335-.416a13.454,13.454,0,0,1,1.011-1.17,14.949,14.949,0,0,1,1.818-1.65,13.454,13.454,0,0,1,1.237-.853l.7-.418c.245-.132.505-.249.764-.377a16.055,16.055,0,0,1,1.675-.683,16.893,16.893,0,0,1,1.869-.478,17.943,17.943,0,0,1,2.011-.279,20.177,20.177,0,0,1,6.444.669,26.114,26.114,0,0,1,4.232,1.537,30.706,30.706,0,0,1,3.913,2.19,33.427,33.427,0,0,1,3.46,2.605l.789.683.745.7c.5.452.944.944,1.4,1.4s.848.942,1.254,1.389.752.919,1.108,1.35c.683.888,1.293,1.714,1.792,2.474.525.743.911,1.436,1.261,1.986.333.56.572,1.014.745,1.318l.261.467a.175.175,0,0,1-.3.173l0-.007-.268-.457c-.179-.3-.424-.742-.766-1.29-.36-.537-.756-1.214-1.292-1.938-.509-.742-1.131-1.544-1.824-2.406-.36-.419-.726-.865-1.123-1.308s-.815-.9-1.266-1.342-.9-.913-1.4-1.347l-.747-.674q-.39-.324-.79-.654a32.644,32.644,0,0,0-3.441-2.477,29.681,29.681,0,0,0-3.854-2.047,25.044,25.044,0,0,0-4.111-1.4,19.222,19.222,0,0,0-6.121-.506,17.4,17.4,0,0,0-1.868.3,15.959,15.959,0,0,0-1.718.479,14.939,14.939,0,0,0-1.524.661c-.236.124-.473.235-.694.359l-.63.4a11.926,11.926,0,0,0-1.116.805,13.7,13.7,0,0,0-1.612,1.528,11.641,11.641,0,0,0-.934,1.129l-.326.422a.691.691,0,0,1-1.1-.843Z" transform="translate(-552.916 -1237.786)" fill="#81ad20"/>
      </g>
      <g id="Grupo_875625" data-name="Grupo 875625" transform="translate(58.216 79.825)">
        <path id="Trazado_613211" data-name="Trazado 613211" d="M551.018,1140.624a19.244,19.244,0,0,0-4.081-6.455,15.819,15.819,0,0,0-6.454-3.859,25.458,25.458,0,0,0-19.227,1.625c-7.261,4.057-9.781,8.885-10.269,14.076a18.8,18.8,0,0,0,3.86,13.423,18.214,18.214,0,0,0,5.4,4.723,18.52,18.52,0,0,0,7.327,2.183c8.91.87,21.093-1.609,24.337-11.327C553.467,1150.346,552.794,1145.119,551.018,1140.624Z" transform="translate(-510.898 -1124.595)" fill="#e26c1e"/>
        <path id="Trazado_613212" data-name="Trazado 613212" d="M521.536,1136.99a10.113,10.113,0,0,1,5.408-2.106c4.222-.3,5.586,1.418,5.586,1.418s.5-.689-2.618-4.009a7.707,7.707,0,0,1-1.488-7.605,20.009,20.009,0,0,0,2.25,5.248c1.405,2.034,3.723,1.686,4.639,4.789,0,0,1.853-2.023,1.233-3.943s.235-4.819.235-4.819a11.462,11.462,0,0,0,2.3,4.563c1.932,2.48-.184,5.524-.859,6.394,0,0,1.849-1.327,4.735.2s7.531-1.685,7.531-1.685-2.244,3.362-4.832,3.755c-5.312,1.2-7.894-.346-7.894-.346s-.944.664,2.4,3.226-.125,6.6-.125,6.6-.033-3.916-2.455-5.73-3.426-2.753-3.426-2.753-5.807.91-5.22,4.688a16.6,16.6,0,0,0,1.986,4.656s-4.85-1.825-4.6-5.252,4.584-5.816,4.584-5.816a11.041,11.041,0,0,0-4.175-1.593A23.5,23.5,0,0,0,521.536,1136.99Z" transform="translate(-510.679 -1124.687)" fill="#81ad20"/>
        <path id="Trazado_613213" data-name="Trazado 613213" d="M533.263,1139.607a.938.938,0,0,1-.309-.054.922.922,0,0,1-.558-1.178c2.454-6.867,7.316-11.333,12.389-11.378h.075c4.313,0,8.018,3.272,10.174,8.991a.921.921,0,0,1-1.724.65c-1.9-5.032-4.9-7.8-8.45-7.8H544.8c-4.226.038-8.514,4.119-10.67,10.156A.922.922,0,0,1,533.263,1139.607Z" transform="translate(-510.456 -1124.639)" fill="#81ad20"/>
      </g>
    </g>
    <g id="Grupo_875632" data-name="Grupo 875632" transform="translate(515.314 1174.258)">
      <path id="Trazado_613214" data-name="Trazado 613214" d="M673.8,1259.663l-5.521,1.189a4.612,4.612,0,0,0-3.173,2.489l-1.155,2.374,10.087,2.018,2.255-7.12Z" transform="translate(-509.927 -1169.867)" fill="#e26c1e"/>
      <path id="Trazado_613215" data-name="Trazado 613215" d="M679.068,1245.478c-1.124,5.347-2.786,10.2-6.111,14.6a13.529,13.529,0,0,1,5.948,2.516l13.455-16.875Z" transform="translate(-509.742 -1170.159)" fill="#81ad20"/>
      <g id="Grupo_875628" data-name="Grupo 875628" transform="translate(0 88.386)">
        <g id="Grupo_875627" data-name="Grupo 875627" transform="translate(0 50.211)">
          <path id="Trazado_613216" data-name="Trazado 613216" d="M513.5,1363.542a.46.46,0,0,1-.248-.848l3.106-1.981a.46.46,0,1,1,.495.776l-3.106,1.981A.457.457,0,0,1,513.5,1363.542Zm6.211-3.962a.46.46,0,0,1-.248-.848l3.1-1.982a.461.461,0,0,1,.5.777l-3.106,1.981A.457.457,0,0,1,519.708,1359.58Zm6.21-3.963a.46.46,0,0,1-.248-.848l3.106-1.982a.461.461,0,1,1,.495.777l-3.1,1.982A.462.462,0,0,1,525.918,1355.617Zm6.211-3.962a.461.461,0,0,1-.249-.849l3.106-1.981a.46.46,0,0,1,.5.776l-3.106,1.982A.459.459,0,0,1,532.129,1351.655Zm6.21-3.963a.46.46,0,0,1-.248-.848l3.106-1.982a.461.461,0,0,1,.495.777l-3.106,1.981A.457.457,0,0,1,538.34,1347.692Zm6.211-3.962a.461.461,0,0,1-.248-.849l3.1-1.981a.46.46,0,0,1,.5.776l-3.106,1.982A.457.457,0,0,1,544.551,1343.73Zm6.21-3.963a.461.461,0,0,1-.248-.849l3.106-1.981a.461.461,0,0,1,.495.777l-3.1,1.981A.463.463,0,0,1,550.761,1339.767Zm6.211-3.963a.46.46,0,0,1-.249-.848l3.106-1.981a.46.46,0,1,1,.5.776l-3.106,1.981A.459.459,0,0,1,556.973,1335.8Zm6.21-3.962a.461.461,0,0,1-.248-.849l3.106-1.981a.461.461,0,0,1,.495.777l-3.1,1.981A.463.463,0,0,1,563.183,1331.842Zm6.211-3.963a.46.46,0,0,1-.248-.848l3.1-1.982a.461.461,0,0,1,.5.777l-3.106,1.981A.457.457,0,0,1,569.394,1327.879Zm6.21-3.963a.46.46,0,0,1-.248-.848l3.106-1.981a.46.46,0,1,1,.495.776l-3.1,1.982A.462.462,0,0,1,575.6,1323.917Zm6.211-3.962a.46.46,0,0,1-.249-.848l3.106-1.982a.461.461,0,0,1,.5.777l-3.106,1.981A.46.46,0,0,1,581.816,1319.954Zm6.21-3.963a.46.46,0,0,1-.248-.848l3.106-1.981a.46.46,0,1,1,.495.776l-3.1,1.981A.463.463,0,0,1,588.026,1315.992Zm6.211-3.962a.461.461,0,0,1-.248-.849l3.1-1.981a.461.461,0,0,1,.5.777l-3.106,1.981A.457.457,0,0,1,594.238,1312.03Z" transform="translate(-513.035 -1307.446)" fill="#fff"/>
          <path id="Trazado_613217" data-name="Trazado 613217" d="M531.53,1369.351a.461.461,0,0,1-.3-.808l.592-.515a.461.461,0,0,1,.605.7l-.592.515A.46.46,0,0,1,531.53,1369.351Zm3.368-2.936a.46.46,0,0,1-.3-.807l2.777-2.42a.46.46,0,0,1,.605.694l-2.777,2.42A.459.459,0,0,1,534.9,1366.415Zm5.554-4.84a.46.46,0,0,1-.3-.807l2.777-2.42a.46.46,0,0,1,.605.694l-2.777,2.42A.463.463,0,0,1,540.452,1361.575Zm5.554-4.84a.46.46,0,0,1-.3-.807l2.777-2.421a.461.461,0,0,1,.605.7l-2.777,2.42A.463.463,0,0,1,546.006,1356.735Zm5.554-4.841a.46.46,0,0,1-.3-.807l2.777-2.42a.46.46,0,1,1,.605.694l-2.777,2.42A.456.456,0,0,1,551.56,1351.895Zm5.555-4.84a.46.46,0,0,1-.3-.807l2.777-2.421a.461.461,0,0,1,.605.695l-2.777,2.42A.46.46,0,0,1,557.116,1347.055Zm5.554-4.841a.46.46,0,0,1-.3-.807l2.777-2.42a.46.46,0,1,1,.605.694l-2.777,2.42A.454.454,0,0,1,562.67,1342.214Zm5.554-4.84a.461.461,0,0,1-.3-.807l2.777-2.421a.461.461,0,0,1,.605.7l-2.777,2.42A.46.46,0,0,1,568.224,1337.375Zm5.554-4.841a.46.46,0,0,1-.3-.807l2.777-2.42a.46.46,0,0,1,.605.694l-2.777,2.42A.459.459,0,0,1,573.778,1332.534Zm5.554-4.84a.46.46,0,0,1-.3-.807l2.777-2.421a.461.461,0,0,1,.605.7l-2.777,2.42A.465.465,0,0,1,579.332,1327.694Zm5.554-4.841a.46.46,0,0,1-.3-.807l2.777-2.42a.46.46,0,0,1,.605.694l-2.777,2.42A.457.457,0,0,1,584.886,1322.854Zm5.554-4.84a.46.46,0,0,1-.3-.807l2.777-2.421a.461.461,0,1,1,.605.695l-2.777,2.42A.463.463,0,0,1,590.44,1318.014Zm5.555-4.84a.461.461,0,0,1-.3-.808l2.777-2.42a.46.46,0,1,1,.605.694l-2.777,2.42A.457.457,0,0,1,596,1313.175Z" transform="translate(-512.664 -1307.431)" fill="#fff"/>
          <path id="Trazado_613218" data-name="Trazado 613218" d="M543.3,1370.056a.46.46,0,0,1-.33-.781l.451-.465a.46.46,0,1,1,.66.642l-.452.465A.456.456,0,0,1,543.3,1370.056Zm3.018-3.108a.46.46,0,0,1-.331-.781l2.567-2.642a.461.461,0,0,1,.661.642l-2.567,2.641A.455.455,0,0,1,546.313,1366.948Zm5.134-5.284a.462.462,0,0,1-.331-.782l2.567-2.642a.46.46,0,0,1,.66.642l-2.566,2.642A.461.461,0,0,1,551.447,1361.665Zm5.133-5.286a.46.46,0,0,1-.33-.781l2.566-2.642a.461.461,0,0,1,.661.642l-2.567,2.642A.458.458,0,0,1,556.579,1356.379Zm5.134-5.284a.461.461,0,0,1-.331-.782l2.567-2.642a.46.46,0,1,1,.66.641l-2.566,2.643A.462.462,0,0,1,561.713,1351.1Zm5.133-5.286a.46.46,0,0,1-.33-.781l2.567-2.642a.461.461,0,0,1,.66.642l-2.567,2.641A.456.456,0,0,1,566.846,1345.81Zm5.134-5.285a.46.46,0,0,1-.331-.781l2.567-2.642a.46.46,0,0,1,.66.641l-2.566,2.643A.466.466,0,0,1,571.979,1340.525Zm5.133-5.285a.46.46,0,0,1-.33-.781l2.566-2.642a.46.46,0,0,1,.661.641l-2.567,2.642A.455.455,0,0,1,577.112,1335.24Zm5.134-5.285a.46.46,0,0,1-.331-.782l2.567-2.641a.46.46,0,0,1,.66.641l-2.566,2.643A.466.466,0,0,1,582.245,1329.956Zm5.133-5.285a.46.46,0,0,1-.331-.781l2.567-2.642a.461.461,0,1,1,.661.641l-2.567,2.642A.457.457,0,0,1,587.378,1324.671Zm5.134-5.285a.454.454,0,0,1-.32-.131.459.459,0,0,1-.01-.65l2.567-2.642a.46.46,0,1,1,.66.642l-2.567,2.641A.459.459,0,0,1,592.511,1319.386Zm5.133-5.285a.457.457,0,0,1-.32-.13.462.462,0,0,1-.01-.652l2.567-2.641a.46.46,0,0,1,.661.641l-2.567,2.642A.461.461,0,0,1,597.644,1314.1Z" transform="translate(-512.422 -1307.417)" fill="#fff"/>
          <path id="Trazado_613219" data-name="Trazado 613219" d="M526.428,1367.333a.46.46,0,0,1-.289-.82l2.869-2.31a.461.461,0,1,1,.578.718l-2.869,2.309A.462.462,0,0,1,526.428,1367.333Zm5.739-4.62a.461.461,0,0,1-.289-.82l2.869-2.311a.46.46,0,0,1,.577.718l-2.869,2.311A.458.458,0,0,1,532.167,1362.713Zm5.738-4.621a.46.46,0,0,1-.289-.819l2.869-2.311a.461.461,0,0,1,.578.718l-2.869,2.311A.462.462,0,0,1,537.9,1358.092Zm5.739-4.62a.46.46,0,0,1-.29-.818l2.87-2.311a.46.46,0,1,1,.577.717l-2.869,2.311A.457.457,0,0,1,543.644,1353.471Zm5.738-4.62a.46.46,0,0,1-.289-.818l2.869-2.311a.461.461,0,0,1,.578.717l-2.869,2.311A.461.461,0,0,1,549.381,1348.851Zm5.739-4.62a.461.461,0,0,1-.29-.819l2.87-2.31a.46.46,0,1,1,.577.718l-2.869,2.309A.457.457,0,0,1,555.12,1344.231Zm5.738-4.62a.461.461,0,0,1-.289-.82l2.869-2.311a.461.461,0,0,1,.578.718l-2.87,2.311A.457.457,0,0,1,560.858,1339.611Zm5.739-4.62a.461.461,0,0,1-.29-.82l2.869-2.311a.461.461,0,0,1,.578.718l-2.869,2.311A.458.458,0,0,1,566.6,1334.99Zm5.738-4.621a.46.46,0,0,1-.289-.82l2.869-2.31a.461.461,0,1,1,.578.717l-2.869,2.311A.461.461,0,0,1,572.335,1330.369Zm5.738-4.62a.46.46,0,0,1-.289-.82l2.87-2.31a.46.46,0,1,1,.577.717l-2.869,2.311A.457.457,0,0,1,578.072,1325.749Zm5.739-4.62a.461.461,0,0,1-.289-.819l2.869-2.31a.461.461,0,0,1,.578.718l-2.869,2.31A.462.462,0,0,1,583.811,1321.129Zm5.739-4.62a.461.461,0,0,1-.29-.82l2.87-2.311a.46.46,0,0,1,.577.718l-2.869,2.311A.458.458,0,0,1,589.55,1316.508Zm5.738-4.62a.461.461,0,0,1-.289-.82l2.869-2.311a.461.461,0,0,1,.578.718l-2.87,2.311A.458.458,0,0,1,595.288,1311.888Z" transform="translate(-512.769 -1307.456)" fill="#fff"/>
          <path id="Trazado_613220" data-name="Trazado 613220" d="M539.926,1368.781a.461.461,0,0,1-.32-.791l2.645-2.564a.46.46,0,1,1,.641.661l-2.644,2.563A.457.457,0,0,1,539.926,1368.781Zm5.29-5.128a.461.461,0,0,1-.32-.791l2.645-2.564a.461.461,0,0,1,.642.661l-2.645,2.564A.461.461,0,0,1,545.216,1363.654Zm5.291-5.128a.456.456,0,0,1-.331-.14.461.461,0,0,1,.01-.651l2.644-2.563a.46.46,0,1,1,.642.66l-2.645,2.564A.459.459,0,0,1,550.507,1358.526Zm5.29-5.127a.46.46,0,0,1-.32-.791l2.644-2.564a.461.461,0,0,1,.642.661l-2.645,2.564A.46.46,0,0,1,555.8,1353.4Zm5.29-5.128a.46.46,0,0,1-.32-.791l2.644-2.564a.461.461,0,0,1,.642.661l-2.645,2.564A.458.458,0,0,1,561.086,1348.271Zm5.29-5.127a.46.46,0,0,1-.32-.791l2.645-2.564a.46.46,0,1,1,.641.66l-2.645,2.565A.457.457,0,0,1,566.376,1343.143Zm5.29-5.128a.46.46,0,0,1-.32-.791l2.645-2.563a.46.46,0,1,1,.641.66l-2.645,2.564A.458.458,0,0,1,571.666,1338.015Zm5.29-5.128a.46.46,0,0,1-.32-.791l2.645-2.564a.461.461,0,0,1,.641.661l-2.645,2.564A.456.456,0,0,1,576.955,1332.887Zm5.29-5.127a.461.461,0,0,1-.32-.791l2.645-2.564a.46.46,0,1,1,.641.661l-2.645,2.564A.456.456,0,0,1,582.245,1327.76Zm5.291-5.127a.46.46,0,0,1-.32-.791l2.644-2.564a.46.46,0,0,1,.642.66l-2.645,2.565A.459.459,0,0,1,587.536,1322.632Zm5.29-5.129a.46.46,0,0,1-.32-.791l2.644-2.563a.461.461,0,0,1,.642.66l-2.645,2.564A.46.46,0,0,1,592.826,1317.5Zm5.29-5.127a.46.46,0,0,1-.32-.791l2.644-2.564a.461.461,0,0,1,.642.661l-2.645,2.564A.459.459,0,0,1,598.115,1312.376Z" transform="translate(-512.491 -1307.451)" fill="#fff"/>
          <path id="Trazado_613221" data-name="Trazado 613221" d="M519.463,1366.453a.461.461,0,0,1-.269-.834l2.991-2.151a.46.46,0,1,1,.538.747l-2.991,2.15A.459.459,0,0,1,519.463,1366.453Zm5.983-4.3a.46.46,0,0,1-.269-.834l2.991-2.15a.461.461,0,0,1,.538.748l-2.991,2.149A.455.455,0,0,1,525.446,1362.152Zm5.982-4.3a.46.46,0,0,1-.269-.834l2.991-2.15a.46.46,0,0,1,.538.747l-2.991,2.15A.462.462,0,0,1,531.428,1357.853Zm5.983-4.3a.46.46,0,0,1-.269-.834l2.99-2.15a.46.46,0,1,1,.538.747l-2.99,2.15A.462.462,0,0,1,537.41,1353.553Zm5.982-4.3a.46.46,0,0,1-.269-.834l2.991-2.151a.461.461,0,0,1,.538.748l-2.991,2.149A.455.455,0,0,1,543.392,1349.252Zm5.982-4.3a.461.461,0,0,1-.269-.834l2.991-2.151a.46.46,0,0,1,.538.747l-2.991,2.15A.459.459,0,0,1,549.374,1344.952Zm5.983-4.3a.461.461,0,0,1-.269-.835l2.99-2.15a.46.46,0,1,1,.538.747l-2.99,2.15A.462.462,0,0,1,555.357,1340.652Zm5.982-4.3a.46.46,0,0,1-.27-.834l2.991-2.15a.461.461,0,0,1,.538.748l-2.991,2.149A.455.455,0,0,1,561.338,1336.352Zm5.983-4.3a.46.46,0,0,1-.27-.834l2.99-2.15a.46.46,0,1,1,.538.747l-2.99,2.15A.462.462,0,0,1,567.321,1332.052Zm5.982-4.3a.461.461,0,0,1-.269-.835l2.991-2.149a.46.46,0,0,1,.538.747l-2.991,2.151A.462.462,0,0,1,573.3,1327.752Zm5.982-4.3a.46.46,0,0,1-.269-.834l2.991-2.15a.461.461,0,0,1,.538.748l-2.991,2.149A.452.452,0,0,1,579.284,1323.451Zm5.982-4.3a.461.461,0,0,1-.269-.834l2.991-2.151a.46.46,0,1,1,.538.747l-2.991,2.15A.458.458,0,0,1,585.266,1319.152Zm5.983-4.3a.461.461,0,0,1-.269-.835l2.99-2.149a.46.46,0,1,1,.538.747l-2.99,2.15A.462.462,0,0,1,591.249,1314.852Zm5.982-4.3a.46.46,0,0,1-.269-.834l2.991-2.15a.461.461,0,0,1,.538.748l-2.991,2.149A.455.455,0,0,1,597.231,1310.551Z" transform="translate(-512.912 -1307.48)" fill="#fff"/>
        </g>
        <rect id="Rect치ngulo_293278" data-name="Rect치ngulo 293278" width="69.553" height="2.307" transform="translate(149.104 14.462) rotate(147.842)" fill="#81ad20"/>
        <path id="Trazado_613222" data-name="Trazado 613222" d="M658.428,1275.216A97.146,97.146,0,0,0,682.55,1260.8l-4.2-2.522c-10.087,4.923-15.5,8.619-21.1,11.1-.673.136-2.246,1.126-2.112,1.8l1.826,3.066A1.241,1.241,0,0,0,658.428,1275.216Z" transform="translate(-510.109 -1258.282)" fill="url(#linear-gradient-4)"/>
        <path id="Trazado_613223" data-name="Trazado 613223" d="M606.148,1303.258l-13.01,7.12,3.109,4.1,11.129-9.268Z" transform="translate(-511.386 -1257.356)" fill="#81ad20"/>
      </g>
      <path id="Trazado_613224" data-name="Trazado 613224" d="M681.856,1390.65s.931,5.27,1.387,10.488a3.594,3.594,0,0,1-3.438,3.894c-6.948.289-21.809.852-27.143.614a1.169,1.169,0,0,1-1.029-1.6h0a2.619,2.619,0,0,1,1.339-1.411l24.549-11.283Z" transform="translate(-510.183 -1167.17)" fill="#148d80"/>
      <path id="Trazado_613225" data-name="Trazado 613225" d="M682.152,1387.635l-.748,6.3s-4.3,2-7.237-.252l1.781-7.026Z" transform="translate(-509.717 -1167.252)" fill="url(#linear-gradient-5)"/>
      <path id="Trazado_613226" data-name="Trazado 613226" d="M709.112,1393.344s1.482,2.661,2.917,9.73a2.193,2.193,0,0,1-1.93,2.627c-2.294.225-5.826.515-8.655.5a2.187,2.187,0,0,1-2.165-2.439,18.442,18.442,0,0,1,4.3-10.115Z" transform="translate(-509.2 -1167.114)" fill="#148d80"/>
      <path id="Trazado_613227" data-name="Trazado 613227" d="M710.328,1385.406l-1.748,9.533s-1.728,1.285-5.147.353l.835-10.257Z" transform="translate(-509.114 -1167.285)" fill="url(#linear-gradient-6)"/>
      <path id="Rect치ngulo_293279" data-name="Rect치ngulo 293279" d="M0,0H31.341a0,0,0,0,1,0,0V10.52a0,0,0,0,1,0,0H6.288A6.288,6.288,0,0,1,0,4.232V0A0,0,0,0,1,0,0Z" transform="matrix(-0.999, 0.053, -0.053, -0.999, 218.049, 34.593)" fill="url(#linear-gradient-7)"/>
      <path id="Trazado_613228" data-name="Trazado 613228" d="M696.635,1281.268l42.063-2.221a3.327,3.327,0,0,0,3.137-3.487l-3.608-68.342a5.35,5.35,0,0,0-5.608-5.046l-40.048,2.115a1.6,1.6,0,0,0-1.507,1.675l3.9,73.8A1.6,1.6,0,0,0,696.635,1281.268Z" transform="translate(-509.369 -1171.051)" fill="#e26c1e"/>
      <path id="Trazado_613229" data-name="Trazado 613229" d="M683.579,1265.943c.2,3.911-1.461,24.829-1.442,24.845-.331,28.17-1.964,77.528-7.955,103.567-.14.61-1.03,1.808-.724,2.334.747,1.277,6.246.919,9.348,1.027.96.033,1.476-1.094,1.747-2.049,2.215-7.817,11.079-53.96,14.123-91.4,3.448,29.428,3.955,83.588,4.272,92.046a1.814,1.814,0,0,0,1.257,1.681,12.291,12.291,0,0,0,5.505.229,1.944,1.944,0,0,0,1.541-1.511c2.427-10.732,10-119.688,8.368-125.464-.839-2.948-2.078-6.418-3.362-9.945C706.779,1266.482,694.989,1266.626,683.579,1265.943Z" transform="translate(-509.733 -1169.833)" fill="url(#linear-gradient-8)"/>
      <path id="Trazado_613230" data-name="Trazado 613230" d="M709.586,1242.031c-.67-3.06.068-5.587.7-8.606a42.968,42.968,0,0,0,1.141-7.754c.088-3.636-2.131-6.836-4.47-9.415-2.693-2.97-6.068-5.835-10.111-6.63-3.385-.667-6.572-1.641-9.95-.145-1.5.655-2.758.831-4.191,1.618a23.791,23.791,0,0,0-5.637,3.872c-2.16,2.178-3.087,5.25-3.454,8.245-.061.5-.105,1-.135,1.5-.41,7.056,1.4,13.994,3.4,20.69q.135.453.272.906c1.469,4.9,5.763,15.272,6.4,20.361.012.094.021.212.029.351,11.409.684,23.2.54,32.679-4.636-1.6-4.4-3.275-8.892-4.329-12.569C711.182,1247.216,710.166,1244.683,709.586,1242.031Z" transform="translate(-509.732 -1170.917)" fill="#81ad20"/>
      <path id="Trazado_613231" data-name="Trazado 613231" d="M734.025,1335.967c13.368.048,17.77-16.058,16.1-26.895-1.636-10.644-8.624-19.714-11.486-30.1-.2-.733-.093-4.444.395-5.027a16.873,16.873,0,0,1-5.284,3.722c-.258.086,2.2,8.107,2.43,8.792a47.988,47.988,0,0,0,3.495,6.962,55.5,55.5,0,0,1,5.61,16.224c.789,4.409,1.018,9.071-.566,13.262-4.052,10.718-14.818,9.044-22.808,3.545a36.123,36.123,0,0,1-12.58-14.4c-3.786-8.274-3.514-17.742-1.867-26.5,1.422-7.562,2.115-16.282-3.709-22.255-3.655-3.748-18.916-7.644-25.879-5l4.443,4.323c4.158-.786,11.551.9,15.377,2.469,5.454,2.241,6.405,8.813,6.012,14.132-.334,4.509-1.591,8.9-2.081,13.4a40.475,40.475,0,0,0,4.6,23.386c5.141,9.551,15.771,19.457,27.175,19.943C733.613,1335.962,733.82,1335.966,734.025,1335.967Z" transform="translate(-509.64 -1169.913)" fill="url(#linear-gradient-9)"/>
      <path id="Trazado_613232" data-name="Trazado 613232" d="M706.689,1243.024c4.6,1.729,8.152,1.569,11.565,1.854a.668.668,0,0,1,.609.677l-.1,8.616a.4.4,0,0,1-.564.351c-5.558-2.6-8.687-3.05-13.019-6.531Z" transform="translate(-509.078 -1170.21)" fill="url(#linear-gradient-10)"/>
      <path id="Trazado_613233" data-name="Trazado 613233" d="M689.259,1197.956l4.493,12.732a1.985,1.985,0,0,1-.582,2.175c-1.693,1.444-5.533,3.645-11.333.923a1.849,1.849,0,0,1-1.05-1.657l-.136-11.035Z" transform="translate(-509.583 -1171.138)" fill="url(#linear-gradient-11)"/>
      <g id="Grupo_875629" data-name="Grupo 875629" transform="translate(156.965 7.496)">
        <path id="Trazado_613234" data-name="Trazado 613234" d="M672.063,1191.626s.443,13.643,3.578,17.458,9.845-.437,13.889-7.316l-2.276-13.7Z" transform="translate(-666.725 -1178.837)" fill="url(#linear-gradient-12)"/>
        <path id="Trazado_613235" data-name="Trazado 613235" d="M686.192,1196.563a.5.5,0,0,1-.55-.524,12.957,12.957,0,0,0-.337-4.167s.632-1.212-3.394-.029-10.06,2.9-12.9.519c-2.768-2.317-4.163-11.336,3.749-8.051a.5.5,0,0,0,.686-.387c.189-1.394.991-4.523,4.4-4.862,3.192-.318,4.546,1.379,5.049,2.337a.493.493,0,0,0,.759.147c1.144-.981,4.1-2.959,7.355-.623,2.678,1.924,2.753,3.839,2.466,4.962a.5.5,0,0,0,.593.608c.992-.225,2.491-.136,3.517,1.9,1.417,2.819-1.777,4.331-2.719,4.706a.5.5,0,0,0-.305.354c-.273,1.253-1.623,6.687-5.018,9.2a.5.5,0,0,1-.785-.312l-1.051-5.479a.5.5,0,0,0-.542-.4Z" transform="translate(-666.832 -1179.024)" fill="url(#linear-gradient-13)"/>
        <path id="Trazado_613236" data-name="Trazado 613236" d="M685.547,1197.269s2.4-4.983,4-2.863-1.664,5.353-4.059,5.595Z" transform="translate(-666.448 -1178.718)" fill="url(#linear-gradient-14)"/>
      </g>
      <g id="Grupo_875630" data-name="Grupo 875630" transform="translate(144.717)">
        <ellipse id="Elipse_4895" data-name="Elipse 4895" cx="6.109" cy="27.627" rx="6.109" ry="27.627" transform="translate(0 22.443) rotate(-89.697)" fill="url(#linear-gradient-15)"/>
        <path id="Trazado_613237" data-name="Trazado 613237" d="M669.369,1189.306a2.053,2.053,0,0,1-1.563-2.523l2.884-12.364a1.912,1.912,0,0,1,1.607-1.343l15.619-1.389a1.929,1.929,0,0,1,1.932,1.147l5.173,14.314C685.7,1190.127,678.563,1191.045,669.369,1189.306Z" transform="translate(-654.565 -1171.679)" fill="#e26c1e"/>
      </g>
      <g id="Grupo_875631" data-name="Grupo 875631" transform="translate(151.099 46.156)">
        <path id="Trazado_613238" data-name="Trazado 613238" d="M677.817,1260.39a2.5,2.5,0,0,0-2.166.194c-1.048.624-1.749,1.65-2.793,2.3-2.174,1.352-4.858-.085-7.131,1.079a5.463,5.463,0,0,1-4.4.562.16.16,0,0,0-.1-.016c-.048.011-.075.062-.091.109a1.177,1.177,0,0,0,.017.74c.713,2.221,3.928,0,5.269,1.357,1.069,1.084,2.174,3.884.074,4.534-.058.8,2.588,1.078,3.081,1.022a8.649,8.649,0,0,0,4.94-2.906,22.625,22.625,0,0,0,4.018-4.975,4.284,4.284,0,0,0,.612-2.1A2.038,2.038,0,0,0,677.817,1260.39Z" transform="translate(-661.085 -1216.012)" fill="#e26c1e"/>
        <path id="Trazado_613239" data-name="Trazado 613239" d="M709.349,1236.146q.668-2.889,1.251-5.8a15.972,15.972,0,0,0,.3-7.107c-1.513-5.823-9.054-8.764-13.241-3.858-2.01,2.354-2.725,5.549-2.975,8.634-.5,6.216,1.623,14.393-2.3,19.708s-12.505,12.138-18.651,14.009c-.7,2.351,1.738,3.094,2.962,5.684.515,1.092,12.3-5.052,13.768-5.524,3.729-1.193,6.74-3.514,9.9-5.862,3.884-2.892,5.407-6.268,6.674-10.791Q708.292,1240.722,709.349,1236.146Z" transform="translate(-660.827 -1216.904)" fill="#81ad20"/>
      </g>
      <path id="Trazado_613240" data-name="Trazado 613240" d="M707.278,1215.823c-6.365,3.138-9.914,8.636-13.2,15.519-.253-8.6,2.894-13.18,7.5-19.718a.441.441,0,0,1,.509-.159,10.935,10.935,0,0,1,5.321,3.647A.451.451,0,0,1,707.278,1215.823Z" transform="translate(-509.307 -1170.86)" fill="url(#linear-gradient-16)"/>
    </g>
  </g>
</svg>
