<svg xmlns="http://www.w3.org/2000/svg" width="505" height="256.524" viewBox="0 0 505 256.524">
  <g id="Grupo_875398" data-name="Grupo 875398" transform="translate(-810 -7495.476)">
    <g id="Grupo_875353" data-name="Grupo 875353" transform="translate(1 1033)">
      <g id="Grupo_874640" data-name="Grupo 874640" transform="translate(810 6695.817)">
        <rect id="Rectángulo_5140" data-name="Rectángulo 5140" width="4" height="23" transform="translate(0 0.183)" fill="#81ad20"/>
        <text id="Imagen:_Drenaje_superficial" data-name="Imagen: Drenaje superficial" transform="translate(13 15.184)" fill="#12263f" font-size="13" font-family="Roboto-Bold, Roboto" font-weight="700"><tspan x="0" y="0">Imagen: </tspan><tspan y="0" font-family="Roboto-Regular, Roboto" font-weight="400">Drenaje superficial</tspan></text>
      </g>
    </g>
    <g id="Grupo_875397" data-name="Grupo 875397" transform="translate(434.5 6042.976)">
      <g id="Grupo_875356" data-name="Grupo 875356" transform="translate(375.5 1452.5)">
        <g id="Grupo_875354" data-name="Grupo 875354" transform="translate(0.993 0.993)">
          <path id="Trazado_612648" data-name="Trazado 612648" d="M478.414,1454,377,1573.135l125.754,26.474,50.707-129.81Z" transform="translate(-377 -1454)" fill="#dcad7e"/>
        </g>
        <g id="Grupo_875355" data-name="Grupo 875355">
          <path id="Trazado_612649" data-name="Trazado 612649" d="M502.247,1600.095a1.037,1.037,0,0,1-.205-.021L376.288,1573.6a.994.994,0,0,1-.551-1.616l101.414-119.135a.994.994,0,0,1,.961-.328l75.046,15.8a.993.993,0,0,1,.72,1.333l-50.707,129.81A.993.993,0,0,1,502.247,1600.095ZM378.331,1572l123.3,25.958L551.6,1470.023l-73.322-15.437Z" transform="translate(-375.5 -1452.5)" fill="#174956"/>
        </g>
      </g>
      <g id="Grupo_875357" data-name="Grupo 875357" transform="translate(376.493 1572.628)">
        <line id="Línea_251" data-name="Línea 251" x2="125.754" y2="26.474" fill="#dcad7e"/>
      </g>
      <g id="Grupo_875360" data-name="Grupo 875360" transform="translate(501.254 1452.5)">
        <g id="Grupo_875358" data-name="Grupo 875358" transform="translate(0.993 0.993)">
          <path id="Trazado_612650" data-name="Trazado 612650" d="M692.754,1454l-75.046,15.8L567,1599.609l125.754-26.474Z" transform="translate(-567 -1454)" fill="#dcad7e"/>
        </g>
        <g id="Grupo_875359" data-name="Grupo 875359" transform="translate(0 0)">
          <path id="Trazado_612651" data-name="Trazado 612651" d="M566.493,1600.095a.992.992,0,0,1-.925-1.354l50.707-129.81a.993.993,0,0,1,.72-.61l75.046-15.8a.993.993,0,0,1,1.2.972v119.135a.994.994,0,0,1-.788.972L566.7,1600.074A1.029,1.029,0,0,1,566.493,1600.095Zm51.437-129.942-49.844,127.6,123.168-25.93V1454.717Z" transform="translate(-565.5 -1452.5)" fill="#174956"/>
        </g>
      </g>
      <g id="Grupo_875361" data-name="Grupo 875361" transform="translate(502.246 1572.628)">
        <line id="Línea_252" data-name="Línea 252" y1="26.474" x2="125.754" fill="#dcad7e"/>
      </g>
      <g id="Grupo_875364" data-name="Grupo 875364" transform="translate(627.007 1452.5)">
        <g id="Grupo_875362" data-name="Grupo 875362" transform="translate(0.993 0.993)">
          <path id="Trazado_612652" data-name="Trazado 612652" d="M882.754,1599.609,757,1573.135V1454l75.046,15.8Z" transform="translate(-757 -1454)" fill="#dcad7e"/>
        </g>
        <g id="Grupo_875363" data-name="Grupo 875363" transform="translate(0 0)">
          <path id="Trazado_612653" data-name="Trazado 612653" d="M882.246,1600.095a1.03,1.03,0,0,1-.2-.021L756.288,1573.6a.994.994,0,0,1-.788-.972V1453.493a.993.993,0,0,1,1.2-.972l75.046,15.8a1,1,0,0,1,.721.61l50.707,129.81a.992.992,0,0,1-.925,1.354Zm-124.761-28.273,123.168,25.93-49.844-127.6-73.323-15.437Z" transform="translate(-755.5 -1452.5)" fill="#174956"/>
        </g>
      </g>
      <g id="Grupo_875365" data-name="Grupo 875365" transform="translate(628 1572.628)">
        <line id="Línea_253" data-name="Línea 253" x1="125.754" y1="26.474" transform="translate(0)" fill="#dcad7e"/>
      </g>
      <g id="Grupo_875368" data-name="Grupo 875368" transform="translate(702.053 1452.5)">
        <g id="Grupo_875366" data-name="Grupo 875366" transform="translate(0.993 0.993)">
          <path id="Trazado_612654" data-name="Trazado 612654" d="M1046.848,1573.135,945.434,1454l-75.047,15.8,50.707,129.81Z" transform="translate(-870.387 -1454)" fill="#dcad7e"/>
        </g>
        <g id="Grupo_875367" data-name="Grupo 875367">
          <path id="Trazado_612655" data-name="Trazado 612655" d="M920.586,1600.095a.993.993,0,0,1-.924-.631l-50.708-129.81a.993.993,0,0,1,.721-1.333l75.047-15.8a.994.994,0,0,1,.96.328L1047.1,1571.984a.994.994,0,0,1-.552,1.616l-125.754,26.474A1.041,1.041,0,0,1,920.586,1600.095ZM871.23,1470.023l49.975,127.935L1044.5,1572l-99.949-117.415Z" transform="translate(-868.886 -1452.5)" fill="#174956"/>
        </g>
      </g>
      <g id="Grupo_875369" data-name="Grupo 875369" transform="translate(753.753 1572.628)">
        <line id="Línea_254" data-name="Línea 254" y1="26.474" x2="125.754" fill="#dcad7e"/>
      </g>
      <g id="Grupo_875370" data-name="Grupo 875370" transform="translate(495.626 1462.672)">
        <path id="Trazado_612656" data-name="Trazado 612656" d="M563.616,1610.92a6.624,6.624,0,0,1-6.163-9.029l50.707-129.81a6.619,6.619,0,0,1,12.33,4.817l-50.707,129.81A6.62,6.62,0,0,1,563.616,1610.92Z" transform="translate(-556.997 -1467.869)" fill="#148d80"/>
      </g>
      <g id="Grupo_875371" data-name="Grupo 875371" transform="translate(696.426 1462.672)">
        <path id="Trazado_612657" data-name="Trazado 612657" d="M917.714,1610.92a6.621,6.621,0,0,1-6.167-4.212L860.839,1476.9a6.619,6.619,0,0,1,12.33-4.817l50.707,129.81a6.624,6.624,0,0,1-6.163,9.029Z" transform="translate(-860.384 -1467.869)" fill="#148d80"/>
      </g>
      <g id="Grupo_875375" data-name="Grupo 875375" transform="translate(501.824 1467.637)">
        <g id="Grupo_875372" data-name="Grupo 875372" transform="translate(2.361 0)">
          <path id="Trazado_612658" data-name="Trazado 612658" d="M571.584,1599.291a1.656,1.656,0,0,1-1.541-2.258l47.113-120.609a1.654,1.654,0,1,1,3.082,1.2l-47.113,120.61A1.657,1.657,0,0,1,571.584,1599.291Z" transform="translate(-569.93 -1475.371)" fill="#fff"/>
        </g>
        <g id="Grupo_875374" data-name="Grupo 875374" transform="translate(0 115.706)">
          <g id="Grupo_875373" data-name="Grupo 875373">
            <path id="Trazado_612659" data-name="Trazado 612659" d="M566.362,1650.19l4.76,4.654,6.655-.2-10.992,11.3Z" transform="translate(-566.362 -1650.19)" fill="#fff"/>
          </g>
        </g>
      </g>
      <g id="Grupo_875379" data-name="Grupo 875379" transform="translate(701.391 1467.637)">
        <g id="Grupo_875376" data-name="Grupo 875376" transform="translate(0)">
          <path id="Trazado_612660" data-name="Trazado 612660" d="M916.655,1599.29a1.657,1.657,0,0,1-1.542-1.054L868,1477.627a1.655,1.655,0,1,1,3.083-1.2L918.2,1597.033a1.656,1.656,0,0,1-1.541,2.258Z" transform="translate(-867.886 -1475.37)" fill="#fff"/>
        </g>
        <g id="Grupo_875378" data-name="Grupo 875378" transform="translate(41.37 115.706)">
          <g id="Grupo_875377" data-name="Grupo 875377">
            <path id="Trazado_612661" data-name="Trazado 612661" d="M930.392,1654.649l6.655.2,4.76-4.654-.422,15.759Z" transform="translate(-930.392 -1650.19)" fill="#fff"/>
          </g>
        </g>
      </g>
      <g id="Grupo_875380" data-name="Grupo 875380" transform="translate(375.5 1571.635)">
        <path id="Trazado_612662" data-name="Trazado 612662" d="M754.261,1660.474,628.507,1634l-125.754,26.474L377,1634v82.071H880.014V1634Z" transform="translate(-376.007 -1633.007)" fill="#e26c1e"/>
        <path id="Trazado_612663" data-name="Trazado 612663" d="M879.507,1716.556H376.493a.993.993,0,0,1-.993-.993v-82.071a.993.993,0,0,1,1.2-.972l125.549,26.432L627.8,1632.521a.991.991,0,0,1,.409,0l125.549,26.432L879.3,1632.521a.993.993,0,0,1,1.2.972v82.071A.993.993,0,0,1,879.507,1716.556Zm-502.021-1.985H878.514v-79.854l-124.556,26.222a1,1,0,0,1-.409,0L628,1634.507l-125.549,26.431a1,1,0,0,1-.409,0l-124.556-26.222Z" transform="translate(-375.5 -1632.5)" fill="#174956"/>
      </g>
      <g id="Grupo_875384" data-name="Grupo 875384" transform="translate(429.772 1506.354)">
        <g id="Grupo_875381" data-name="Grupo 875381">
          <path id="Trazado_612664" data-name="Trazado 612664" d="M547.776,1555.835a1.65,1.65,0,0,1-.342-.036l-88.62-18.657a1.654,1.654,0,0,1,.682-3.238l88.621,18.656a1.655,1.655,0,0,1-.34,3.275Z" transform="translate(-457.5 -1533.867)" fill="#fff"/>
        </g>
        <g id="Grupo_875383" data-name="Grupo 875383" transform="translate(84.465 13.359)">
          <g id="Grupo_875382" data-name="Grupo 875382">
            <path id="Trazado_612665" data-name="Trazado 612665" d="M585.118,1566.043l3.81-5.46-1.285-6.532,12.951,8.988Z" transform="translate(-585.118 -1554.051)" fill="#fff"/>
          </g>
        </g>
      </g>
      <g id="Grupo_875388" data-name="Grupo 875388" transform="translate(529.714 1506.354)">
        <g id="Grupo_875385" data-name="Grupo 875385" transform="translate(8.011)">
          <path id="Trazado_612666" data-name="Trazado 612666" d="M622.257,1555.835a1.655,1.655,0,0,1-.34-3.275l88.621-18.656a1.654,1.654,0,0,1,.682,3.238L622.6,1555.8A1.649,1.649,0,0,1,622.257,1555.835Z" transform="translate(-620.604 -1533.867)" fill="#fff"/>
        </g>
        <g id="Grupo_875387" data-name="Grupo 875387" transform="translate(0 13.359)">
          <g id="Grupo_875386" data-name="Grupo 875386">
            <path id="Trazado_612667" data-name="Trazado 612667" d="M623.976,1566.043l-3.81-5.46,1.285-6.532L608.5,1563.04Z" transform="translate(-608.5 -1554.051)" fill="#fff"/>
          </g>
        </g>
      </g>
      <g id="Grupo_875392" data-name="Grupo 875392" transform="translate(626.345 1506.354)">
        <g id="Grupo_875389" data-name="Grupo 875389">
          <path id="Trazado_612668" data-name="Trazado 612668" d="M844.776,1555.835a1.644,1.644,0,0,1-.342-.036l-88.62-18.657a1.654,1.654,0,0,1,.682-3.238l88.62,18.656a1.655,1.655,0,0,1-.339,3.275Z" transform="translate(-754.5 -1533.867)" fill="#fff"/>
        </g>
        <g id="Grupo_875391" data-name="Grupo 875391" transform="translate(84.465 13.359)">
          <g id="Grupo_875390" data-name="Grupo 875390">
            <path id="Trazado_612669" data-name="Trazado 612669" d="M884.642,1554.051l1.285,6.532-3.81,5.46,15.476-3Z" transform="translate(-882.118 -1554.051)" fill="#fff"/>
          </g>
        </g>
      </g>
      <g id="Grupo_875396" data-name="Grupo 875396" transform="translate(726.286 1506.354)">
        <g id="Grupo_875393" data-name="Grupo 875393" transform="translate(8.011)">
          <path id="Trazado_612670" data-name="Trazado 612670" d="M919.257,1555.835a1.655,1.655,0,0,1-.339-3.275l88.62-18.656a1.654,1.654,0,0,1,.682,3.238L919.6,1555.8A1.653,1.653,0,0,1,919.257,1555.835Z" transform="translate(-917.604 -1533.867)" fill="#fff"/>
        </g>
        <g id="Grupo_875395" data-name="Grupo 875395" transform="translate(0 13.359)">
          <g id="Grupo_875394" data-name="Grupo 875394">
            <path id="Trazado_612671" data-name="Trazado 612671" d="M920.976,1566.043l-3.81-5.46,1.285-6.532L905.5,1563.04Z" transform="translate(-905.5 -1554.051)" fill="#fff"/>
          </g>
        </g>
      </g>
    </g>
  </g>
</svg>
