<svg xmlns="http://www.w3.org/2000/svg" xmlns:xlink="http://www.w3.org/1999/xlink" width="360" height="362.42" viewBox="0 0 360 362.42">
  <defs>
    <linearGradient id="linear-gradient" x1="1.061" y1="1.13" x2="0.324" y2="0.337" gradientUnits="objectBoundingBox">
      <stop offset="0" stop-color="#dae3fe"/>
      <stop offset="1" stop-color="#e9effd"/>
    </linearGradient>
    <linearGradient id="linear-gradient-2" x1="0.516" y1="-1.979" x2="0.491" y2="1.913" gradientUnits="objectBoundingBox">
      <stop offset="0" stop-color="#4f52ff"/>
      <stop offset="1" stop-color="#4042e2"/>
    </linearGradient>
    <linearGradient id="linear-gradient-3" x1="76.659" y1="13.9" x2="76.643" y2="16.841" xlink:href="#linear-gradient-2"/>
    <linearGradient id="linear-gradient-4" x1="-345.119" y1="-10.571" x2="-346.087" y2="-8.603" gradientUnits="objectBoundingBox">
      <stop offset="0" stop-color="#febbba"/>
      <stop offset="1" stop-color="#ff928e"/>
    </linearGradient>
    <linearGradient id="linear-gradient-5" x1="149.009" y1="-10.562" x2="147.873" y2="-8.632" xlink:href="#linear-gradient-4"/>
    <linearGradient id="linear-gradient-6" x1="-240.528" y1="16.253" x2="-240.955" y2="19.807" xlink:href="#linear-gradient-4"/>
    <linearGradient id="linear-gradient-7" x1="146.84" y1="14.387" x2="146.397" y2="17.632" xlink:href="#linear-gradient-4"/>
    <linearGradient id="linear-gradient-8" x1="-114.784" y1="63.662" x2="-115.324" y2="66.156" xlink:href="#linear-gradient-2"/>
    <linearGradient id="linear-gradient-9" x1="-14.887" y1="63.398" x2="-15.427" y2="65.889" xlink:href="#linear-gradient-2"/>
    <linearGradient id="linear-gradient-10" x1="53.602" y1="0.5" x2="54.602" y2="0.5" gradientUnits="objectBoundingBox">
      <stop offset="0" stop-color="#f9b776"/>
      <stop offset="1" stop-color="#f47960"/>
    </linearGradient>
    <linearGradient id="linear-gradient-11" x1="53.571" y1="0.5" x2="54.571" y2="0.5" xlink:href="#linear-gradient-10"/>
    <linearGradient id="linear-gradient-12" x1="-0.008" y1="0.516" x2="1.008" y2="0.516" gradientUnits="objectBoundingBox">
      <stop offset="0" stop-color="#e1473d"/>
      <stop offset="1" stop-color="#e9605a"/>
    </linearGradient>
    <linearGradient id="linear-gradient-13" x1="602.216" y1="-7.134" x2="602.571" y2="-7.916" xlink:href="#linear-gradient-10"/>
    <linearGradient id="linear-gradient-14" x1="402.678" y1="-6.407" x2="401.639" y2="-5.657" xlink:href="#linear-gradient-4"/>
    <linearGradient id="linear-gradient-15" x1="1651.752" y1="-24.497" x2="1647.479" y2="-21.885" xlink:href="#linear-gradient-10"/>
    <linearGradient id="linear-gradient-16" x1="150.947" y1="36.824" x2="150.324" y2="36.128" xlink:href="#linear-gradient"/>
    <linearGradient id="linear-gradient-17" x1="2754.507" y1="-1305.276" x2="2751.642" y2="-1296.579" xlink:href="#linear-gradient-12"/>
    <linearGradient id="linear-gradient-18" x1="0" y1="0.5" x2="1" y2="0.5" xlink:href="#linear-gradient-12"/>
    <linearGradient id="linear-gradient-20" x1="-0.998" y1="4.952" x2="2.46" y2="-5.325" xlink:href="#linear-gradient-4"/>
    <linearGradient id="linear-gradient-22" x1="0.34" y1="4.708" x2="0.885" y2="-10.449" xlink:href="#linear-gradient-4"/>
    <linearGradient id="linear-gradient-23" x1="0.449" y1="3.821" x2="0.909" y2="-27.929" xlink:href="#linear-gradient-4"/>
  </defs>
  <g id="Grupo_875613" data-name="Grupo 875613" transform="translate(-469.952 -1072.594)">
    <path id="Trazado_613084" data-name="Trazado 613084" d="M814.532,1319.006c-36.435,85.162-132.611,121.742-207.968,115.505-20.575-1.7-61.973-5.129-94.3-35.7-62.076-58.7-52.515-181.408,6.908-253.651,7.653-9.3,60.623-71.634,143.168-70.8,60.434.61,102.852,34.749,108.01,39a166.334,166.334,0,0,1,33.839,38.394C834.626,1199.351,837.3,1265.788,814.532,1319.006Z" transform="translate(0 -0.176)" fill="url(#linear-gradient)"/>
    <g id="Grupo_875591" data-name="Grupo 875591" transform="translate(658.691 1261.527)">
      <path id="Trazado_613085" data-name="Trazado 613085" d="M849.225,1282.931a.921.921,0,0,1,1.692.526c-1.637,14.391-4,69.823-55.936,109.214-47.525,36.04-76.887,54.927-109.338,57.168-3.211.222-6.272-.984-5.958-3.989,1.86-17.812,9.882-67.437,42.465-88.279C761.085,1332.664,824.822,1319.813,849.225,1282.931Z" transform="translate(-679.662 -1282.52)" fill="#91b3fa"/>
      <path id="Trazado_613086" data-name="Trazado 613086" d="M823.021,1330.006s-18.92,46.888-137.252,120.837C685.769,1450.843,800.449,1370.685,823.021,1330.006Z" transform="translate(-680.273 -1287.269)" fill="#fff" opacity="0.5"/>
    </g>
    <g id="Grupo_875593" data-name="Grupo 875593" transform="translate(490.005 1082.994)">
      <circle id="Elipse_4862" data-name="Elipse 4862" cx="4.19" cy="4.19" r="4.19" transform="translate(15.346 9.527) rotate(-80.783)" fill="url(#linear-gradient-2)"/>
      <g id="Grupo_875592" data-name="Grupo 875592" transform="translate(15.964 4.671)">
        <path id="Trazado_613087" data-name="Trazado 613087" d="M524.78,1095.179c-.05-.113-.1-.225-.153-.337-2.55-5.379-6.77-6.493-10.489-4.729a6.865,6.865,0,0,0-4.138,5.7,10.519,10.519,0,0,0,1.158,5.416c.022.046.046.092.068.139A34.806,34.806,0,0,1,524.78,1095.179Z" transform="translate(-509.97 -1089.339)" fill="url(#linear-gradient-3)"/>
        <path id="Trazado_613088" data-name="Trazado 613088" d="M511.367,1102.015c2.586,5.323,8.457,9.976,12.145,8.229,3.643-1.727,3.8-9.06,1.409-14.416A34.806,34.806,0,0,0,511.367,1102.015Z" transform="translate(-510.11 -1089.987)" fill="#148d80"/>
      </g>
      <path id="Trazado_613089" data-name="Trazado 613089" d="M516.334,1097.6s2.181,19.675-5.519,20.758S503.714,1108.157,516.334,1097.6Z" transform="translate(-493.588 -1085.495)" fill="#91b3fa"/>
      <path id="Trazado_613090" data-name="Trazado 613090" d="M517.507,1097.518s13.848,14.145,19.561,8.871S533.665,1094.43,517.507,1097.518Z" transform="translate(-494.76 -1085.408)" fill="#91b3fa"/>
      <path id="Trazado_613091" data-name="Trazado 613091" d="M518.812,1097.656s18.6,6.76,21.473-.466S532.042,1087.881,518.812,1097.656Z" transform="translate(-494.891 -1084.837)" fill="#81ad20"/>
      <path id="Trazado_613092" data-name="Trazado 613092" d="M514.756,1099.407s-6.548,18.681-13.957,16.326S498.813,1103.459,514.756,1099.407Z" transform="translate(-492.763 -1085.675)" fill="#81ad20"/>
      <path id="Trazado_613093" data-name="Trazado 613093" d="M511.037,1117.948a.47.47,0,0,1-.2.045c-1.754,0-2.94-.549-3.525-1.643-1.719-3.215,2.8-10.006,2.99-10.294a.464.464,0,0,1,.77.517c-1.229,1.831-4.152,7.078-2.942,9.34.41.768,1.32,1.155,2.7,1.152a.464.464,0,0,1,.2.883Z" transform="translate(-493.702 -1086.319)" fill="#fff" opacity="0.78"/>
      <path id="Trazado_613094" data-name="Trazado 613094" d="M517.914,1097.033s6.569-10.187,10.427-12.015c4.158-1.97,10.5-.132,13.612,1a.668.668,0,0,1-.049,1.27C534.793,1089.377,526.565,1092.928,517.914,1097.033Z" transform="translate(-494.801 -1084.149)" fill="#148d80"/>
      <path id="Trazado_613095" data-name="Trazado 613095" d="M516.018,1098.057s-12.045-1.365-15.9.464c-4.157,1.972-6.749,8.042-7.844,11.17a.669.669,0,0,0,1.014.767C499.405,1106.274,507.363,1102.153,516.018,1098.057Z" transform="translate(-492.233 -1085.491)" fill="#148d80"/>
      <path id="Trazado_613096" data-name="Trazado 613096" d="M494.969,1107.616a.464.464,0,0,1-.623-.607c.167-.378,4.158-9.247,10.795-8.645a.464.464,0,1,1-.084.924c-5.98-.543-9.824,8.008-9.862,8.1A.464.464,0,0,1,494.969,1107.616Z" transform="translate(-492.44 -1085.568)" fill="#91b3fa"/>
    </g>
    <g id="Grupo_875595" data-name="Grupo 875595" transform="translate(513.535 1072.594)">
      <g id="Grupo_875594" data-name="Grupo 875594">
        <path id="Trazado_613097" data-name="Trazado 613097" d="M521.638,1128.066a10.3,10.3,0,0,1,7.965-2.741c31.284,2.813,89.651-12.256,127.8-51.286,2.649-2.711,7.477-1.179,10.513,1.09,42.424,31.708,112.748,38.274,137.16,39.616a10.3,10.3,0,0,1,9.668,9.226c22.2,214.422-117.408,292.121-146.363,305.836a10.327,10.327,0,0,1-9.865-.57c-144.311-89.889-138.137-206.787-140.133-293.4A10.315,10.315,0,0,1,521.638,1128.066Z" transform="translate(-518.378 -1072.594)" fill="#d2e1f1"/>
        <path id="Trazado_613098" data-name="Trazado 613098" d="M666.253,1415.863a2.948,2.948,0,0,1-1.587-.462c-55.231-35.307-91.227-77.508-110.041-129.015-16.809-46.018-17.633-92.912-18.36-134.285q-.047-2.781-.1-5.522a2.891,2.891,0,0,1,.833-2.094,2.927,2.927,0,0,1,2.106-.88h0c34.356,0,85.919-15.168,123.735-49.053a2.93,2.93,0,0,1,3.573-.257c41.536,27.56,100.747,35.583,132.346,37.912a2.915,2.915,0,0,1,2.7,2.667c7.323,83.541-10.047,154.175-51.627,209.941-31.05,41.642-67.861,63.335-82.247,70.729h0A2.919,2.919,0,0,1,666.253,1415.863ZM539.135,1144.028a2.527,2.527,0,0,0-1.832.753,2.474,2.474,0,0,0-.712,1.789q.05,2.742.1,5.521c.727,41.343,1.55,88.2,18.335,134.15,18.781,51.416,54.72,93.548,109.871,128.8a2.514,2.514,0,0,0,2.5.123h0c14.359-7.381,51.1-29.035,82.1-70.606,41.516-55.68,58.858-126.217,51.545-209.651a2.494,2.494,0,0,0-2.308-2.281c-31.64-2.332-90.933-10.368-132.549-37.982a2.5,2.5,0,0,0-3.055.221c-17.339,15.536-39.192,28.407-63.2,37.222-20.964,7.7-42.553,11.938-60.791,11.938Z" transform="translate(-520.157 -1074.715)" fill="#91b3fa"/>
      </g>
    </g>
    <g id="Grupo_875599" data-name="Grupo 875599" transform="translate(560.515 1120.234)">
      <g id="Grupo_875597" data-name="Grupo 875597" transform="translate(0 0)">
        <g id="Grupo_875596" data-name="Grupo 875596">
          <circle id="Elipse_4863" data-name="Elipse 4863" cx="75.562" cy="75.562" r="75.562" transform="translate(18.442 38.369) rotate(-7.577)" fill="#fff"/>
          <circle id="Elipse_4864" data-name="Elipse 4864" cx="73.05" cy="73.05" r="73.05" transform="translate(0 103.308) rotate(-45)" fill="#e26c1e"/>
          <path id="Trazado_613099" data-name="Trazado 613099" d="M759.99,1236.082h.041a.772.772,0,0,0,.73-.811,68.522,68.522,0,0,0-.991-8.567.772.772,0,0,0-1.519.274,67.139,67.139,0,0,1,.969,8.373A.771.771,0,0,0,759.99,1236.082Z" transform="translate(-589.344 -1135.582)" fill="#fff" opacity="0.75"/>
          <path id="Trazado_613100" data-name="Trazado 613100" d="M744.163,1203.162a.771.771,0,0,0,.688-1.119,67.919,67.919,0,0,0-60.925-37.513,68.783,68.783,0,0,0-12.3,1.108.772.772,0,1,0,.276,1.518,67.269,67.269,0,0,1,12.027-1.083,66.385,66.385,0,0,1,59.547,36.664A.771.771,0,0,0,744.163,1203.162Z" transform="translate(-580.619 -1129.428)" fill="#fff" opacity="0.75"/>
          <circle id="Elipse_4865" data-name="Elipse 4865" cx="61.828" cy="61.828" r="61.828" transform="translate(25.896 148.448) rotate(-74.872)" fill="#fff"/>
        </g>
      </g>
      <g id="Grupo_875598" data-name="Grupo 875598" transform="translate(54.203 27.843)">
        <ellipse id="Elipse_4866" data-name="Elipse 4866" cx="23.019" cy="40.357" rx="23.019" ry="40.357" transform="translate(23.132 45.355)" fill="#148d80"/>
        <ellipse id="Elipse_4867" data-name="Elipse 4867" cx="12.61" cy="10.648" rx="12.61" ry="10.648" transform="translate(33.571 34.005)" fill="#148d80"/>
        <path id="Trazado_613101" data-name="Trazado 613101" d="M717.221,1156.784l-.583.2-.7.235c-.276.094-.595.192-.944.336l-1.165.455c-.427.161-.865.382-1.346.594-.239.11-.488.218-.739.339l-.767.393-.807.414-.825.473-.859.5-.868.556c-.6.366-1.18.8-1.788,1.226s-1.2.918-1.813,1.4c-.587.516-1.211,1.02-1.794,1.589a43.291,43.291,0,0,0-3.469,3.628,50.211,50.211,0,0,0-3.155,4.114c-1,1.423-1.9,2.912-2.767,4.387s-1.623,2.984-2.3,4.463c-.659,1.489-1.232,2.954-1.709,4.364-.236.705-.465,1.391-.673,2.059s-.389,1.318-.556,1.944-.326,1.226-.463,1.8-.27,1.117-.376,1.632c-.221,1.028-.394,1.927-.518,2.671s-.216,1.33-.268,1.732l-.082.615.2.05.229-.576c.148-.375.357-.928.625-1.63l.951-2.528c.364-.976.781-2.071,1.24-3.261.224-.6.474-1.211.73-1.849s.517-1.3.792-1.969c.569-1.34,1.159-2.752,1.8-4.2s1.306-2.938,2.047-4.424,1.554-2.966,2.45-4.395a48.445,48.445,0,0,1,2.882-4.123,42.036,42.036,0,0,1,3.209-3.668c.542-.579,1.127-1.093,1.676-1.622.283-.256.572-.5.853-.743s.554-.492.843-.713c.569-.452,1.114-.9,1.678-1.294l.818-.592.814-.535.783-.51.77-.452.732-.429c.241-.134.48-.254.709-.375.912-.5,1.734-.865,2.408-1.182.334-.165.648-.284.916-.4l.684-.281.57-.233Z" transform="translate(-636.311 -1156.496)" fill="#148d80"/>
        <ellipse id="Elipse_4868" data-name="Elipse 4868" cx="15.465" cy="3.658" rx="15.465" ry="3.658" transform="matrix(0.758, -0.652, 0.652, 0.758, 55.061, 62.616)" fill="#148d80"/>
        <ellipse id="Elipse_4869" data-name="Elipse 4869" cx="22.433" cy="3.134" rx="22.433" ry="3.134" transform="translate(49.573 73.011)" fill="#148d80"/>
        <path id="Trazado_613102" data-name="Trazado 613102" d="M689.323,1270.846l4.785.171,4.785.149,4.785.149,4.785.135-.734-.734c-.062,2.375-.133,4.751-.18,7.126l-.161,7.126c-.028,1.188-.071,2.376-.11,3.564s-.087,2.375-.115,3.563c-.015.594-.032,1.188-.036,1.781s-.019,1.188-.013,1.782,0,1.188.012,1.782l.037,1.781.017.827.69.33q1.816.869,3.649,1.706c1.224.553,2.448,1.108,3.688,1.63.619.263,1.235.533,1.858.788l1.87.763c.629.244,1.255.495,1.886.732s1.266.473,1.908.69l.119-.231c-.552-.394-1.112-.772-1.674-1.146s-1.13-.737-1.694-1.107l-1.711-1.075c-.571-.357-1.149-.7-1.724-1.049-1.147-.7-2.311-1.373-3.474-2.046s-2.336-1.324-3.514-1.97l.707,1.157.036-1.781c.013-.594.008-1.188.013-1.782s-.007-1.188-.013-1.782-.022-1.187-.036-1.781c-.028-1.188-.077-2.376-.115-3.563s-.082-2.376-.111-3.564l-.16-7.126c-.048-2.375-.118-4.751-.18-7.126l-.02-.755-.715.02-4.785.136-4.785.149-4.785.149-4.785.171Z" transform="translate(-636.655 -1167.814)" fill="#148d80"/>
        <path id="Trazado_613103" data-name="Trazado 613103" d="M643.252,1156.653l.57.233.684.281c.269.111.583.231.916.4.675.317,1.5.686,2.409,1.183.229.121.468.241.708.374l.733.43.77.452.783.509.814.535.818.593c.563.39,1.108.842,1.678,1.294.289.22.561.47.843.713s.57.487.853.742c.549.529,1.134,1.042,1.675,1.622a41.741,41.741,0,0,1,3.21,3.668,48.392,48.392,0,0,1,2.882,4.123c.9,1.428,1.706,2.911,2.45,4.394s1.4,2.981,2.047,4.425,1.234,2.858,1.8,4.2c.275.673.544,1.328.792,1.968s.506,1.252.729,1.849c.46,1.19.877,2.285,1.241,3.261l.951,2.528c.266.7.476,1.255.625,1.63l.228.576.2-.05-.082-.615c-.052-.4-.139-.987-.268-1.731s-.3-1.643-.517-2.671c-.106-.516-.237-1.058-.376-1.632s-.284-1.177-.463-1.8-.36-1.273-.557-1.944-.437-1.354-.672-2.06c-.478-1.41-1.05-2.875-1.71-4.363-.679-1.479-1.437-2.984-2.3-4.463s-1.766-2.965-2.767-4.388a50,50,0,0,0-3.156-4.115,43.119,43.119,0,0,0-3.469-3.627c-.581-.57-1.206-1.072-1.794-1.589-.613-.487-1.2-.976-1.812-1.406s-1.192-.859-1.789-1.225l-.868-.556-.859-.5-.825-.473-.808-.415-.766-.393c-.251-.121-.5-.229-.739-.338-.482-.211-.919-.433-1.346-.594l-1.165-.455c-.349-.144-.668-.243-.944-.336l-.7-.234-.583-.2Z" transform="translate(-632.048 -1156.464)" fill="#148d80"/>
        <ellipse id="Elipse_4870" data-name="Elipse 4870" cx="3.658" cy="15.465" rx="3.658" ry="15.465" transform="matrix(0.556, -0.831, 0.831, 0.556, 9.331, 49.737)" fill="#148d80"/>
        <ellipse id="Elipse_4871" data-name="Elipse 4871" cx="24.218" cy="3.743" rx="24.218" ry="3.743" transform="translate(0 72.867)" fill="#148d80"/>
        <path id="Trazado_613104" data-name="Trazado 613104" d="M670.986,1270.266l-4.785-.17-4.785-.149-4.785-.149-4.786-.136-.715-.02-.02.755c-.062,2.375-.133,4.75-.18,7.126l-.161,7.126c-.028,1.188-.071,2.376-.11,3.563s-.087,2.376-.115,3.563c-.015.594-.032,1.188-.036,1.782s-.019,1.188-.013,1.782,0,1.187.012,1.781l.037,1.782.706-1.157q-1.764.968-3.513,1.97c-1.164.672-2.327,1.343-3.475,2.046-.574.35-1.153.692-1.724,1.049l-1.711,1.075c-.564.369-1.133.731-1.695,1.106s-1.121.752-1.673,1.147l.119.23c.642-.218,1.275-.453,1.907-.69s1.258-.489,1.887-.732l1.87-.763c.623-.256,1.238-.526,1.858-.788,1.24-.522,2.463-1.077,3.688-1.63s2.438-1.126,3.649-1.706l.69-.33.017-.827.036-1.782c.013-.594.008-1.187.013-1.781s-.007-1.188-.013-1.782-.022-1.188-.036-1.782c-.028-1.187-.077-2.375-.115-3.563s-.082-2.375-.111-3.563l-.16-7.126c-.048-2.376-.118-4.751-.18-7.126l-.735.734,4.786-.136,4.785-.149,4.785-.149,4.785-.17Z" transform="translate(-631.469 -1167.781)" fill="#148d80"/>
      </g>
      <path id="Trazado_613105" data-name="Trazado 613105" d="M714.913,1289.025l4.754-3.259-72.906-106.342-4.275,3.957Z" transform="translate(-577.768 -1130.917)" fill="#e26c1e"/>
    </g>
    <g id="Grupo_875600" data-name="Grupo 875600" transform="translate(543.96 1144.041)">
      <ellipse id="Elipse_4872" data-name="Elipse 4872" cx="14.781" cy="8.431" rx="14.781" ry="8.431" transform="matrix(0.228, -0.974, 0.974, 0.228, 7.138, 43.18)" fill="#e26c1e"/>
      <ellipse id="Elipse_4873" data-name="Elipse 4873" cx="3.9" cy="4.619" rx="3.9" ry="4.619" transform="matrix(0.228, -0.974, 0.974, 0.228, 16.765, 18.812)" fill="#e26c1e"/>
      <path id="Trazado_613106" data-name="Trazado 613106" d="M592.4,1158.513l-.221.008-.266.01c-.1,0-.225.006-.36.019l-.445.036c-.164.011-.335.039-.521.06-.093.013-.189.023-.286.038l-.3.05-.316.054-.327.068-.34.074-.348.09c-.238.057-.474.134-.721.208s-.49.168-.742.259-.5.2-.748.313a14.438,14.438,0,0,0-1.484.769,15.6,15.6,0,0,0-1.407.937c-.454.331-.876.69-1.286,1.048a14.6,14.6,0,0,0-1.125,1.11,14.09,14.09,0,0,0-.907,1.13c-.132.186-.261.367-.381.545s-.229.352-.331.521-.2.33-.288.486-.173.3-.246.445c-.148.282-.272.529-.366.736s-.168.37-.214.482l-.071.173.067.031.121-.149c.078-.1.191-.241.334-.424l.512-.658c.2-.254.419-.539.665-.848.12-.156.251-.314.386-.479s.273-.335.417-.508c.294-.344.6-.706.93-1.074s.666-.749,1.032-1.121a15.324,15.324,0,0,1,1.173-1.077,15.009,15.009,0,0,1,1.31-.962,13.638,13.638,0,0,1,1.4-.8c.232-.124.476-.225.708-.334.118-.051.238-.1.355-.145s.231-.1.349-.138c.234-.085.46-.171.687-.238l.332-.1.327-.088.314-.084.305-.068.291-.064c.095-.019.188-.034.278-.05.359-.069.678-.108.94-.144.13-.02.251-.029.355-.039l.263-.025.219-.021Z" transform="translate(-554.799 -1152.632)" fill="#e26c1e"/>
      <ellipse id="Elipse_4874" data-name="Elipse 4874" cx="5.664" cy="1.34" rx="5.664" ry="1.34" transform="translate(22.605 23.559) rotate(-27.549)" fill="#e26c1e"/>
      <ellipse id="Elipse_4875" data-name="Elipse 4875" cx="1.26" cy="6.657" rx="1.26" ry="6.657" transform="matrix(0.228, -0.974, 0.974, 0.228, 20.42, 28.917)" fill="#e26c1e"/>
      <path id="Trazado_613107" data-name="Trazado 613107" d="M573.954,1193.555l1.692.46,1.694.453,1.695.453,1.7.447-.2-.323c-.22.842-.444,1.683-.659,2.526l-.653,2.528c-.109.421-.223.841-.337,1.262s-.229.84-.338,1.261c-.054.211-.11.421-.161.633s-.106.422-.153.635-.1.423-.144.636l-.136.638-.063.3.219.175q.575.462,1.159.913c.391.3.78.6,1.179.888.2.146.4.293.6.437l.6.428c.2.139.407.281.612.418s.412.275.623.406l.062-.073c-.164-.186-.332-.368-.5-.548s-.342-.357-.512-.536l-.52-.526c-.174-.175-.352-.346-.527-.518-.351-.346-.71-.682-1.068-1.019s-.723-.668-1.089-1l.156.472.162-.632c.054-.211.1-.423.153-.634s.1-.424.144-.636.091-.426.136-.638c.089-.427.17-.854.256-1.281s.169-.854.258-1.28l.537-2.555c.181-.851.354-1.7.53-2.557l.056-.271-.256-.052-1.718-.351-1.719-.346-1.719-.347-1.721-.338Z" transform="translate(-554.36 -1156.127)" fill="#e26c1e"/>
      <path id="Trazado_613108" data-name="Trazado 613108" d="M566.34,1152.027l.187.116.224.139c.089.054.193.115.3.191.219.149.487.325.779.545.073.054.15.109.227.168l.232.186.244.2.244.213.254.224.252.24c.174.16.337.338.51.517.087.088.167.184.252.277s.17.19.254.287c.159.2.333.4.487.612a13.673,13.673,0,0,1,.895,1.335,14.926,14.926,0,0,1,.748,1.44A15.382,15.382,0,0,1,573,1160.2c.163.494.3.984.429,1.458s.246.934.357,1.372c.052.22.1.433.148.639s.1.407.134.6c.083.384.157.738.22,1.052l.167.815c.048.227.085.405.112.526l.042.186.074,0,.013-.185c.008-.121.017-.3.022-.526s.006-.5,0-.821c0-.158-.012-.328-.023-.506s-.022-.366-.043-.562-.041-.4-.066-.612-.064-.43-.1-.655a14.009,14.009,0,0,0-.313-1.412,14.271,14.271,0,0,0-.517-1.491c-.209-.5-.428-1.01-.689-1.507a15.636,15.636,0,0,0-.845-1.461,14.507,14.507,0,0,0-.99-1.345c-.169-.214-.357-.412-.532-.612s-.363-.384-.551-.56-.366-.349-.554-.506l-.272-.234-.272-.217-.263-.206-.259-.188-.247-.178c-.082-.057-.163-.109-.24-.16-.157-.1-.3-.2-.44-.285l-.384-.229c-.115-.071-.221-.126-.314-.176l-.234-.127-.194-.105Z" transform="translate(-553.599 -1151.979)" fill="#e26c1e"/>
      <ellipse id="Elipse_4876" data-name="Elipse 4876" cx="1.34" cy="5.664" rx="1.34" ry="5.664" transform="translate(9.815 16.045) rotate(-43.034)" fill="#e26c1e"/>
      <ellipse id="Elipse_4877" data-name="Elipse 4877" cx="1.431" cy="7.638" rx="1.431" ry="7.638" transform="translate(5.331 25.619) rotate(-76.834)" fill="#e26c1e"/>
      <path id="Trazado_613109" data-name="Trazado 613109" d="M567.132,1191.92l-1.692-.46-1.694-.453-1.695-.453-1.7-.447-.253-.067-.07.267c-.221.842-.444,1.684-.659,2.527l-.652,2.528c-.109.421-.224.841-.337,1.261s-.229.841-.338,1.262c-.055.211-.111.42-.161.632s-.106.422-.153.635-.1.424-.145.636l-.135.639.348-.354q-.71.2-1.417.409c-.471.143-.942.285-1.409.44-.234.077-.469.151-.7.23l-.7.24c-.232.085-.465.167-.7.254s-.463.175-.693.269l.023.093c.248-.024.492-.056.738-.087s.49-.069.733-.1l.731-.116c.244-.04.486-.085.729-.127.485-.082.968-.178,1.451-.274s.964-.2,1.444-.3l.274-.06.075-.293.162-.633c.054-.211.1-.423.153-.635s.1-.424.144-.636.092-.426.136-.638c.089-.426.171-.854.257-1.281s.168-.854.257-1.28l.537-2.555c.182-.851.355-1.7.53-2.557l-.323.2,1.718.35,1.719.346,1.719.346,1.721.339Z" transform="translate(-552.183 -1155.785)" fill="#e26c1e"/>
      <path id="Trazado_613110" data-name="Trazado 613110" d="M575.414,1170.941c-5.944-1.468-16.151,17.5-7.7,26.827Z" transform="translate(-553.414 -1153.867)" fill="url(#linear-gradient-4)"/>
      <path id="Trazado_613111" data-name="Trazado 613111" d="M576.06,1170.95c5.98,1.321,6.6,22.826-5.1,27.435Z" transform="translate(-554.06 -1153.876)" fill="url(#linear-gradient-5)"/>
    </g>
    <g id="Grupo_875601" data-name="Grupo 875601" transform="translate(650.553 1342.945)">
      <ellipse id="Elipse_4878" data-name="Elipse 4878" cx="15.628" cy="8.914" rx="15.628" ry="8.914" transform="matrix(0.862, -0.506, 0.506, 0.862, 7.516, 27.146)" fill="#e26c1e"/>
      <ellipse id="Elipse_4879" data-name="Elipse 4879" cx="4.123" cy="4.883" rx="4.123" ry="4.883" transform="matrix(0.862, -0.506, 0.506, 0.862, 33.199, 16.763)" fill="#e26c1e"/>
      <path id="Trazado_613112" data-name="Trazado 613112" d="M733.422,1398.329l-.168-.164-.2-.2c-.079-.077-.169-.167-.276-.261l-.353-.317c-.128-.116-.274-.227-.426-.354-.076-.062-.155-.129-.238-.193l-.257-.193-.272-.2-.291-.2-.305-.208-.321-.2c-.218-.14-.449-.266-.686-.4s-.486-.253-.739-.38-.516-.242-.786-.345a15.281,15.281,0,0,0-1.671-.577,16.645,16.645,0,0,0-1.742-.394c-.585-.107-1.168-.168-1.741-.221a15.313,15.313,0,0,0-1.67-.053,14.944,14.944,0,0,0-1.527.129c-.239.034-.472.068-.695.105s-.436.081-.64.126-.4.087-.582.133-.358.089-.519.137c-.324.091-.6.176-.832.255s-.4.141-.526.188l-.184.071.024.074.2-.016c.131-.011.324-.03.568-.053l.877-.087c.338-.035.719-.071,1.134-.108.207-.022.424-.036.648-.053s.455-.035.693-.051c.478-.024.979-.054,1.5-.07s1.059-.035,1.61-.025a15.594,15.594,0,0,1,3.371.415,14.654,14.654,0,0,1,1.632.484c.264.088.519.2.771.3.125.054.247.112.37.166s.243.106.36.167c.235.118.465.228.682.353l.322.179.306.185.292.18.275.185.26.175c.084.059.164.12.241.176.315.225.577.441.8.616.11.085.2.17.288.242l.211.183.175.153Z" transform="translate(-675.135 -1375.032)" fill="#e26c1e"/>
      <ellipse id="Elipse_4880" data-name="Elipse 4880" cx="1.417" cy="5.989" rx="1.417" ry="5.989" transform="translate(32.901 27.376) rotate(-71.119)" fill="#e26c1e"/>
      <ellipse id="Elipse_4881" data-name="Elipse 4881" cx="1.333" cy="7.039" rx="1.333" ry="7.039" transform="translate(28.121 26.927) rotate(-30.404)" fill="#e26c1e"/>
      <path id="Trazado_613113" data-name="Trazado 613113" d="M693.258,1409.084l.881,1.632.887,1.628.888,1.627.893,1.625.1-.39c-.805.445-1.613.886-2.415,1.337l-2.412,1.343c-.4.224-.807.442-1.212.661s-.81.437-1.212.661c-.2.111-.4.221-.6.337s-.4.227-.6.345-.4.232-.592.353l-.589.362-.273.167.025.3q.065.776.145,1.553c.056.517.11,1.034.179,1.551.033.258.064.517.1.775l.112.775c.042.257.08.516.125.773s.09.516.143.772l.1-.005c.023-.262.04-.523.055-.784s.025-.522.038-.783l.023-.781c.007-.261.008-.521.013-.782.01-.52.005-1.04,0-1.561s-.016-1.04-.032-1.56l-.247.462.6-.336c.2-.113.4-.23.6-.346s.4-.235.592-.353.393-.24.589-.362c.391-.242.778-.491,1.167-.736s.778-.493,1.168-.735l2.349-1.451c.784-.482,1.564-.97,2.344-1.457l.248-.154-.147-.235-.983-1.572-.988-1.569-.987-1.569-1-1.565Z" transform="translate(-672.258 -1376.589)" fill="#e26c1e"/>
      <path id="Trazado_613114" data-name="Trazado 613114" d="M719.629,1372.99l.048.228.058.273c.022.107.05.231.071.369.046.276.107.609.15.994.012.1.026.2.037.3l.026.313.028.329.014.344.013.356v.368c0,.251-.013.505-.023.768,0,.131-.018.262-.03.4s-.021.269-.035.4c-.036.268-.061.545-.113.819a14.419,14.419,0,0,1-.37,1.659,15.851,15.851,0,0,1-.559,1.622,16.264,16.264,0,0,1-.717,1.52c-.259.485-.537.946-.8,1.391s-.536.869-.79,1.274c-.13.2-.255.4-.381.58s-.242.369-.361.539c-.234.344-.451.659-.645.936l-.5.722c-.14.2-.249.36-.322.469l-.112.169.052.057.151-.125c.1-.082.242-.2.419-.366s.39-.363.626-.6c.12-.118.242-.248.371-.386s.266-.283.4-.443.276-.324.421-.5.283-.363.429-.554a15.034,15.034,0,0,0,.854-1.269,15.469,15.469,0,0,0,.765-1.482c.231-.526.462-1.064.653-1.625a16.7,16.7,0,0,0,.5-1.712,15.4,15.4,0,0,0,.309-1.739c.041-.285.055-.574.081-.853s.03-.558.028-.83,0-.535-.017-.794l-.018-.379-.033-.366-.032-.351-.045-.336-.043-.32c-.016-.1-.036-.2-.053-.3-.037-.195-.062-.376-.1-.545l-.1-.462c-.029-.139-.065-.262-.094-.369l-.073-.272-.061-.226Z" transform="translate(-674.989 -1372.984)" fill="#e26c1e"/>
      <ellipse id="Elipse_4882" data-name="Elipse 4882" cx="5.989" cy="1.417" rx="5.989" ry="1.417" transform="translate(29.544 21.379) rotate(-86.604)" fill="#e26c1e"/>
      <ellipse id="Elipse_4883" data-name="Elipse 4883" cx="1.513" cy="8.075" rx="1.513" ry="8.075" transform="matrix(0.862, -0.506, 0.506, 0.862, 19.652, 12.965)" fill="#e26c1e"/>
      <path id="Trazado_613115" data-name="Trazado 613115" d="M689.225,1403.34l-.88-1.632-.888-1.628-.888-1.627-.892-1.625-.134-.242-.256.141c-.806.445-1.613.886-2.416,1.336l-2.412,1.343c-.4.223-.807.442-1.211.661s-.811.437-1.212.66c-.2.112-.4.222-.6.337s-.4.226-.6.345-.4.233-.593.354l-.588.361.525.01q-.67-.4-1.346-.787c-.453-.257-.9-.515-1.364-.76-.229-.123-.457-.249-.688-.37l-.695-.361c-.234-.116-.466-.236-.7-.349s-.472-.228-.711-.334l-.054.085c.2.172.4.338.6.5s.409.325.615.487l.621.475c.208.158.419.311.628.466.417.312.842.612,1.266.913s.854.593,1.285.884l.246.167.279-.156.6-.338c.2-.112.4-.23.6-.345s.4-.235.593-.354.392-.24.588-.361c.391-.242.779-.491,1.167-.737s.778-.493,1.169-.735l2.348-1.45c.785-.481,1.564-.97,2.345-1.457l-.39-.1.984,1.572.987,1.569.988,1.57.994,1.564Z" transform="translate(-670.62 -1375.344)" fill="#e26c1e"/>
      <path id="Trazado_613116" data-name="Trazado 613116" d="M710.319,1394.424c-3.207-5.624-25.178.383-26.165,13.649Z" transform="translate(-671.973 -1374.917)" fill="url(#linear-gradient-6)"/>
      <path id="Trazado_613117" data-name="Trazado 613117" d="M710.477,1394.658c3.345,5.542-12.675,21.692-24.737,16.082Z" transform="translate(-672.132 -1375.151)" fill="url(#linear-gradient-7)"/>
    </g>
    <g id="Grupo_875604" data-name="Grupo 875604" transform="translate(609.439 1073.798)">
      <g id="Grupo_875603" data-name="Grupo 875603" transform="translate(0 0)">
        <g id="Grupo_875602" data-name="Grupo 875602">
          <ellipse id="Elipse_4884" data-name="Elipse 4884" cx="8.57" cy="15.026" rx="8.57" ry="15.026" transform="translate(14.618 26.882) rotate(-42.226)" fill="#148d80"/>
          <ellipse id="Elipse_4885" data-name="Elipse 4885" cx="4.695" cy="3.964" rx="4.695" ry="3.964" transform="translate(14.656 21.141) rotate(-42.226)" fill="#148d80"/>
          <path id="Trazado_613118" data-name="Trazado 613118" d="M646.125,1073.932l-.112.2-.135.24c-.052.1-.115.2-.176.329l-.208.417c-.077.151-.142.321-.222.5-.039.09-.08.182-.119.278l-.113.3-.119.316-.109.337-.113.353-.1.371c-.073.25-.126.514-.186.785s-.1.553-.148.841c-.032.29-.078.585-.1.887a15.954,15.954,0,0,0-.049,1.867,18.322,18.322,0,0,0,.159,1.924c.08.643.2,1.278.335,1.9s.3,1.229.482,1.806.4,1.123.62,1.631c.112.254.221.5.33.736s.222.461.333.676.217.419.322.612.205.375.305.544c.2.339.374.63.526.866s.274.42.359.544l.131.19.067-.035-.081-.216c-.053-.14-.134-.345-.236-.606l-.371-.935c-.144-.36-.3-.766-.473-1.21-.088-.221-.173-.453-.262-.692s-.182-.486-.275-.741c-.178-.512-.369-1.049-.553-1.608s-.375-1.138-.543-1.733-.313-1.207-.424-1.824a18.259,18.259,0,0,1-.238-1.858,15.782,15.782,0,0,1-.032-1.815c0-.294.037-.582.056-.866.014-.141.033-.281.05-.419s.03-.274.054-.408c.044-.266.081-.528.139-.777l.078-.368.091-.35.088-.337.1-.318.095-.3c.032-.1.068-.19.1-.28.128-.365.262-.673.369-.929.05-.13.107-.241.153-.338l.119-.248.1-.207Z" transform="translate(-626.855 -1073.932)" fill="#148d80"/>
          <ellipse id="Elipse_4886" data-name="Elipse 4886" cx="5.758" cy="1.362" rx="5.758" ry="1.362" transform="translate(27.74 23.652) rotate(-82.941)" fill="#148d80"/>
          <path id="Trazado_613119" data-name="Trazado 613119" d="M657.833,1104.627c.433.477,3.553-1.649,6.969-4.749s5.834-6,5.4-6.477-3.553,1.65-6.969,4.749S657.4,1104.15,657.833,1104.627Z" transform="translate(-628.222 -1075.872)" fill="#148d80"/>
          <path id="Trazado_613120" data-name="Trazado 613120" d="M666.255,1112.679l1.362-1.15,1.356-1.156,1.357-1.156,1.354-1.16-.387-.019c.578.671,1.152,1.344,1.733,2.011l1.739,2c.29.335.575.673.861,1.011s.571.677.86,1.011c.144.167.288.336.436.5s.292.332.442.494.3.328.449.488l.456.482.211.224.273-.082q.718-.214,1.433-.443c.476-.154.952-.307,1.425-.473.237-.083.474-.162.709-.247l.707-.257c.234-.091.469-.177.7-.271s.467-.186.7-.286l-.025-.094c-.25.029-.5.066-.748.1s-.5.079-.744.119l-.741.131c-.247.045-.491.1-.737.142-.492.094-.981.2-1.47.305s-.976.22-1.462.337l.484.142-.436-.5c-.145-.167-.3-.329-.443-.494s-.3-.326-.449-.489-.3-.322-.455-.482c-.305-.32-.616-.636-.923-.954s-.617-.635-.923-.955l-1.827-1.924c-.607-.643-1.221-1.281-1.833-1.92l-.194-.2-.192.185-1.285,1.235-1.282,1.238-1.282,1.238-1.276,1.245Z" transform="translate(-629.062 -1077.285)" fill="#148d80"/>
          <path id="Trazado_613121" data-name="Trazado 613121" d="M624.965,1093.123l.215-.078.259-.094c.1-.036.219-.082.352-.12.265-.082.584-.186.959-.277.094-.023.19-.05.289-.074l.31-.065.325-.068.344-.055.358-.056.373-.041c.253-.034.517-.045.787-.063.135-.012.272-.011.411-.015s.279-.009.42-.009c.284.008.574,0,.868.028a15.47,15.47,0,0,1,1.8.208,18.172,18.172,0,0,1,1.827.416c.6.17,1.2.375,1.775.6s1.132.471,1.671.707,1.056.479,1.548.706c.244.116.482.23.711.344s.453.219.663.328c.425.213.814.411,1.158.589l.895.459c.249.127.445.227.58.293l.207.1.041-.063-.176-.149c-.115-.1-.286-.238-.508-.41s-.493-.379-.811-.607c-.158-.115-.33-.232-.512-.355s-.373-.254-.578-.381-.418-.261-.64-.4-.459-.264-.7-.4c-.484-.27-1.009-.53-1.563-.776s-1.143-.464-1.751-.654-1.229-.375-1.86-.518a18.611,18.611,0,0,0-1.9-.345,16.2,16.2,0,0,0-1.865-.132c-.3-.011-.6.006-.892.011-.291.02-.575.032-.851.067s-.544.061-.8.11l-.379.063-.361.078-.346.076-.327.088-.31.083c-.1.03-.2.062-.289.092-.185.062-.362.111-.519.173l-.435.167c-.132.048-.245.1-.345.143l-.252.111-.21.093Z" transform="translate(-624.937 -1075.708)" fill="#148d80"/>
          <ellipse id="Elipse_4887" data-name="Elipse 4887" cx="5.758" cy="1.362" rx="5.758" ry="1.362" transform="translate(11.51 28.849) rotate(-8.426)" fill="#148d80"/>
          <ellipse id="Elipse_4888" data-name="Elipse 4888" cx="9.016" cy="1.393" rx="9.016" ry="1.393" transform="matrix(0.74, -0.672, 0.672, 0.74, 15.124, 40.255)" fill="#148d80"/>
          <path id="Trazado_613122" data-name="Trazado 613122" d="M661.455,1116.746l-1.362,1.15-1.357,1.156-1.356,1.156-1.354,1.16-.2.174.184.213c.578.671,1.152,1.343,1.733,2.01l1.739,2.005c.29.334.575.672.861,1.01s.571.677.86,1.011c.144.167.288.336.436.5s.292.332.443.494.3.328.449.489l.455.482-.095-.5q-.244.709-.476,1.423c-.152.476-.305.952-.445,1.433-.071.24-.145.48-.213.721l-.2.724c-.063.243-.13.485-.19.729s-.122.488-.175.734l.09.034c.123-.22.239-.444.354-.668s.224-.449.337-.673l.325-.679c.108-.227.21-.455.315-.682.211-.454.41-.913.609-1.372s.39-.921.579-1.383l.108-.264-.2-.232-.436-.5c-.145-.167-.3-.329-.443-.494s-.3-.326-.449-.488-.3-.322-.455-.482c-.305-.321-.616-.635-.923-.954s-.617-.634-.922-.954l-1.827-1.925c-.608-.643-1.221-1.28-1.833-1.92l-.018.387,1.285-1.235,1.282-1.239,1.282-1.238,1.276-1.245Z" transform="translate(-628.026 -1078.213)" fill="#148d80"/>
        </g>
        <path id="Trazado_613123" data-name="Trazado 613123" d="M648.345,1098.946c-4.66,4.126,5.691,22.735,18.37,21.05Z" transform="translate(-627.164 -1076.433)" opacity="0.33" fill="url(#linear-gradient-8)"/>
        <path id="Trazado_613124" data-name="Trazado 613124" d="M649.807,1097.637c4.557-4.24,22.078,7.862,19.175,20.319Z" transform="translate(-627.424 -1076.216)" opacity="0.33" fill="url(#linear-gradient-9)"/>
      </g>
      <path id="Trazado_613125" data-name="Trazado 613125" d="M648.471,1098.946l18.37,21.05Z" transform="translate(-627.29 -1076.433)" fill="#148d80"/>
      <path id="Trazado_613126" data-name="Trazado 613126" d="M651.288,1095.079c-1.539-3.417-4.7-2.352-6.25.108Z" transform="translate(-626.947 -1075.829)" fill="#148d80"/>
    </g>
    <g id="Grupo_875605" data-name="Grupo 875605" transform="translate(721.17 1296.403)">
      <path id="Trazado_613127" data-name="Trazado 613127" d="M752.62,1457.364a1.112,1.112,0,0,0,1.112-1.112V1323.272a1.112,1.112,0,1,0-2.225,0v132.979A1.112,1.112,0,0,0,752.62,1457.364Z" transform="translate(-749.325 -1321.36)" fill="#148d80"/>
      <path id="Trazado_613128" data-name="Trazado 613128" d="M786.119,1457.364a1.113,1.113,0,0,0,1.112-1.112V1323.272a1.112,1.112,0,1,0-2.225,0v132.979A1.112,1.112,0,0,0,786.119,1457.364Z" transform="translate(-752.675 -1321.36)" fill="#148d80"/>
      <path id="Trazado_613129" data-name="Trazado 613129" d="M862.1,1458.208a1.113,1.113,0,0,0,1.024-1.548l-56.892-133.823a1.113,1.113,0,1,0-2.048.871l56.891,133.822A1.113,1.113,0,0,0,862.1,1458.208Z" transform="translate(-754.584 -1321.36)" fill="#148d80"/>
      <path id="Trazado_613130" data-name="Trazado 613130" d="M823.054,1458.208a1.113,1.113,0,0,0,1.023-1.548l-56.892-133.823a1.113,1.113,0,1,0-2.047.871L822.03,1457.53A1.111,1.111,0,0,0,823.054,1458.208Z" transform="translate(-750.679 -1321.36)" fill="#148d80"/>
      <rect id="Rectángulo_293272" data-name="Rectángulo 293272" width="55.25" height="3.136" rx="1.568" transform="translate(55.25 3.136) rotate(180)" fill="#148d80"/>
      <path id="Trazado_613131" data-name="Trazado 613131" d="M775.711,1347.121h35.246a1.112,1.112,0,0,0,0-2.225H775.711a1.112,1.112,0,0,0,0,2.225Z" transform="translate(-751.634 -1323.633)" fill="#148d80"/>
      <rect id="Rectángulo_293273" data-name="Rectángulo 293273" width="35.245" height="2.225" transform="translate(34.892 46.572)" fill="#148d80"/>
      <rect id="Rectángulo_293274" data-name="Rectángulo 293274" width="35.245" height="2.225" transform="translate(45.361 71.881)" fill="#148d80"/>
      <path id="Trazado_613132" data-name="Trazado 613132" d="M811.559,1431.485h35.246a1.112,1.112,0,1,0,0-2.225H811.559a1.112,1.112,0,0,0,0,2.225Z" transform="translate(-755.219 -1332.07)" fill="#148d80"/>
      <path id="Trazado_613133" data-name="Trazado 613133" d="M823.353,1459.607H858.6a1.112,1.112,0,0,0,0-2.225H823.353a1.112,1.112,0,0,0,0,2.225Z" transform="translate(-756.398 -1334.882)" fill="#148d80"/>
    </g>
    <g id="Grupo_875608" data-name="Grupo 875608" transform="translate(659.22 1089.585)">
      <path id="Trazado_613134" data-name="Trazado 613134" d="M787.3,1308.677s.821,4.652,1.224,9.257a3.172,3.172,0,0,1-3.035,3.437c-6.132.256-19.248.752-23.955.542a1.032,1.032,0,0,1-.908-1.414h0a2.313,2.313,0,0,1,1.182-1.245l21.667-9.958Z" transform="translate(-688.28 -1113.193)" fill="#7d97f4"/>
      <path id="Trazado_613135" data-name="Trazado 613135" d="M790.241,1305.545l-.66,5.565s-3.8,1.767-6.387-.223l1.571-6.2Z" transform="translate(-690.544 -1112.794)" fill="url(#linear-gradient-10)"/>
      <path id="Trazado_613136" data-name="Trazado 613136" d="M817,1311.374s1.309,2.348,2.574,8.588a1.936,1.936,0,0,1-1.7,2.318c-2.025.2-5.142.454-7.638.438a1.929,1.929,0,0,1-1.911-2.153,16.272,16.272,0,0,1,3.8-8.927Z" transform="translate(-693.055 -1113.463)" fill="#7d97f4"/>
      <path id="Trazado_613137" data-name="Trazado 613137" d="M818.57,1303.386l-1.543,8.414s-1.525,1.134-4.542.312l.736-9.053Z" transform="translate(-693.473 -1112.631)" fill="url(#linear-gradient-11)"/>
      <path id="Rectángulo_293275" data-name="Rectángulo 293275" d="M0,0H27.661a0,0,0,0,1,0,0V9.285a0,0,0,0,1,0,0H6.27A6.27,6.27,0,0,1,0,3.015V0A0,0,0,0,1,0,0Z" transform="matrix(-0.999, 0.053, -0.053, -0.999, 136.294, 26.946)" fill="url(#linear-gradient-12)"/>
      <path id="Trazado_613138" data-name="Trazado 613138" d="M805.145,1189.845l36.748-1.94a3.191,3.191,0,0,0,3.01-3.345l-3.149-59.654a5.132,5.132,0,0,0-5.379-4.84l-34.816,1.838a1.533,1.533,0,0,0-1.446,1.606l3.426,64.889A1.533,1.533,0,0,0,805.145,1189.845Z" transform="translate(-692.235 -1094.331)" fill="#e26c1e"/>
      <ellipse id="Elipse_4889" data-name="Elipse 4889" cx="9.746" cy="2.911" rx="9.746" ry="2.911" transform="translate(92.622 23.058) rotate(-0.612)" fill="#148d80"/>
      <path id="Trazado_613139" data-name="Trazado 613139" d="M797.281,1115.822l3.965,11.236a1.753,1.753,0,0,1-.513,1.92c-1.495,1.275-4.883,3.217-10,.815a1.636,1.636,0,0,1-.927-1.463l-.12-9.739Z" transform="translate(-691.193 -1093.908)" fill="url(#linear-gradient-13)"/>
      <g id="Grupo_875606" data-name="Grupo 875606" transform="translate(93.224 8.503)">
        <path id="Trazado_613140" data-name="Trazado 613140" d="M789.374,1100.92s-4.122,6.817-4.842,10.589-1.87,6.127,2.421,7.481a9.423,9.423,0,0,0,10.8-3.856s3.923-5.412,3.539-7.894S789.374,1100.92,789.374,1100.92Z" transform="translate(-783.831 -1100.92)" fill="url(#linear-gradient-14)"/>
        <path id="Trazado_613141" data-name="Trazado 613141" d="M797.779,1113.859s1.822-4.463,3.721-2.889-1.77,5.037-3.46,4.988Z" transform="translate(-785.226 -1101.891)" fill="url(#linear-gradient-15)"/>
      </g>
      <path id="Trazado_613142" data-name="Trazado 613142" d="M823.22,1182.612c-1.665-5.848-5.113-14.026-6.789-19.87-.66-2.3-1.555-4.535-2.068-6.876-.591-2.7.06-4.931.62-7.6a37.955,37.955,0,0,0,1.007-6.843c.135-5.59-2.818-13.575-8.718-15.306a26.2,26.2,0,0,0-10.582-.5c-1.762.218-3.487.184-5.234.544q-1.531.315-3.026.777a12.521,12.521,0,0,0-2.8,1.036.18.18,0,0,0-.088.091.194.194,0,0,0,.036.142c.6,1.068,1.2,2,.589,3.222-.3.588-.907.9-1.347,1.363a5.528,5.528,0,0,0-1.081,1.8c-.12.3-.224.612-.315.923a28.386,28.386,0,0,0-.831,9.646c.305,4.944,1.724,9.742,3.146,14.487,1.3,4.324,5.087,13.478,5.647,17.969.3,2.435-1.264,22.224-1.247,22.238-.292,24.863-1.733,68.424-7.021,91.406-.124.539-.909,1.6-.638,2.06.659,1.128,5.513.811,8.249.906.847.03,1.3-.966,1.542-1.809,1.956-6.9,9.778-47.624,12.465-80.663,3.043,25.973,3.49,73.773,3.771,81.239a1.6,1.6,0,0,0,1.109,1.483,10.85,10.85,0,0,0,4.859.2,1.716,1.716,0,0,0,1.36-1.335C817.976,1283.872,824.662,1187.709,823.22,1182.612Z" transform="translate(-690.466 -1094.857)" fill="#81ad20"/>
      <path id="Trazado_613143" data-name="Trazado 613143" d="M783.773,1099.18a41.428,41.428,0,0,0-1.618,17.344c2.669,3.519,3.453,2.718,8.256,4.232,1.453.458,3.684-.853,4.179-3.053l2.439-10.85Z" transform="translate(-690.408 -1092.244)" fill="#91b3fa" opacity="0.37"/>
      <path id="Trazado_613144" data-name="Trazado 613144" d="M790.222,1119.862a11.932,11.932,0,0,1-7.7-3.226,7.138,7.138,0,0,1,.745,1.815c.248,1.011.534,2.013.86,3,.516,1.559,1.247,3,1.852,4.514.7,1.743-.18,2.427-1.463,3.5a21.088,21.088,0,0,0,16.641-.848,10.321,10.321,0,0,0,4.982-4.666c-2.129-.941-2.021-2.946-1.893-4.923.258-3.966,1.949-7.661,2.646-11.547a25.776,25.776,0,0,0,.584-5.787c-.237-4.839-3.775-7.663-7.933-9.38a11.48,11.48,0,0,0-9.311.3,13.781,13.781,0,0,0-5.693,5.171,5.489,5.489,0,0,0-.942,2.2c.012-.124,5.463,1.708,5.927,1.9a20.364,20.364,0,0,1,5.492,3.221c1.442,1.232.809,2.792.679,4.472a48.244,48.244,0,0,1-1.514,7.982c-.216.859-.376,1.582-1.2,1.993A5.575,5.575,0,0,1,790.222,1119.862Z" transform="translate(-690.476 -1091.473)" fill="#81ad20"/>
      <path id="Trazado_613145" data-name="Trazado 613145" d="M837.009,1244.7c6.629,0,11.813-4.414,13.99-12.234a26.675,26.675,0,0,0-.733-15.706,81.65,81.65,0,0,0-4.726-11.725c-.386-.751-.816-1.48-1.232-2.185a15.955,15.955,0,0,1-2.051-4.387c-.259-1.187-.45-2.38-.651-3.643a29.7,29.7,0,0,0-.758-4.157l-3.749,2.51a10.086,10.086,0,0,1,.385,2.3c.2,1.266.41,2.573.695,3.876a19.231,19.231,0,0,0,2.534,5.614c.4.685.785,1.332,1.116,1.976a77.963,77.963,0,0,1,4.484,11.155,22.526,22.526,0,0,1,.665,13.25c-.946,3.4-4.116,11.053-13.113,8.761a25.385,25.385,0,0,1-8.269-4.12,28.829,28.829,0,0,1-8.175-8.915c-4.046-6.54-5.767-12.948-5.117-19.048.211-1.975.59-3.918.994-5.975a51.862,51.862,0,0,0,1.224-9.11c.086-5.014-1.454-9.519-4.225-12.361-3.226-3.308-13.821-5.288-17.916-4.518l.773,4.1c3.353-.634,12.354,1.483,14.155,3.331,1.969,2.02,3.106,5.525,3.041,9.377a48.075,48.075,0,0,1-1.148,8.379c-.4,2.055-.818,4.179-1.048,6.335-.751,7.042,1.174,14.338,5.718,21.685a33.239,33.239,0,0,0,9.326,10.135,29.335,29.335,0,0,0,9.637,4.749A16.937,16.937,0,0,0,837.009,1244.7Z" transform="translate(-691.462 -1099.915)" fill="#148d80"/>
      <rect id="Rectángulo_293276" data-name="Rectángulo 293276" width="1.878" height="56.608" transform="matrix(0.574, -0.819, 0.819, 0.574, 38.585, 39.431)" fill="#81ad20"/>
      <path id="Trazado_613146" data-name="Trazado 613146" d="M772.288,1171.155c5.081,4.856,9.925,7.552,19.071,8.156l1.777-4.183c-7.416-1.159-13.214-3.283-16.843-6.7-.314-.462-1.553-1.33-2.015-1.016l-1.723,2.337A1.011,1.011,0,0,0,772.288,1171.155Z" transform="translate(-689.435 -1099.06)" fill="#e26c1e"/>
      <g id="Grupo_875607" data-name="Grupo 875607" transform="translate(84.842 38.982)">
        <path id="Trazado_613147" data-name="Trazado 613147" d="M788.256,1176.475a1.553,1.553,0,0,0-.037-.2,2.28,2.28,0,0,0-1.162-1.352c-.94-.522-2.036-.6-3-1.109-2-1.057-2.093-3.741-3.991-4.959a4.821,4.821,0,0,1-2.384-3.108.144.144,0,0,0-.031-.081.134.134,0,0,0-.123-.021,1.033,1.033,0,0,0-.556.342c-.84.933.006,1.779.613,2.552.512.654,1.064,1.6.584,2.433a5.3,5.3,0,0,1-1.092,1.251,5.6,5.6,0,0,1-1.343.958.634.634,0,0,1-.511.073c-.083-.023-.6-.375-.613-.366-.317.2.23,1.584.351,1.877a2.965,2.965,0,0,0,.59.932,9.141,9.141,0,0,0,3.4,2.028,29.8,29.8,0,0,0,4.353.9,6.538,6.538,0,0,0,3.24.109A2.313,2.313,0,0,0,788.256,1176.475Z" transform="translate(-774.518 -1137.872)" fill="#81ad20"/>
        <path id="Trazado_613148" data-name="Trazado 613148" d="M814.24,1151.768q.589-2.549,1.1-5.116a14.078,14.078,0,0,0,.262-6.272c-1.336-5.14-7.991-7.735-11.687-3.4-1.773,2.078-2.4,4.9-2.625,7.62-.445,5.487.627,11.754-2.839,16.445s-9.338,7.307-14.764,8.959a8.706,8.706,0,0,0,.381,6.5c.455.963,11.6-2.237,12.9-2.653a31.655,31.655,0,0,0,9.322-4.528c3.429-2.552,4.773-5.533,5.891-9.524Q813.305,1155.806,814.24,1151.768Z" transform="translate(-775.39 -1134.786)" fill="url(#linear-gradient-16)"/>
      </g>
      <path id="Rectángulo_293277" data-name="Rectángulo 293277" d="M0,0H2.6a0,0,0,0,1,0,0V.018A1.234,1.234,0,0,1,1.365,1.252H1.031A1.031,1.031,0,0,1,0,.221V0A0,0,0,0,1,0,0Z" transform="translate(87.796 71.862) rotate(-124.238)" fill="url(#linear-gradient-17)"/>
      <path id="Trazado_613149" data-name="Trazado 613149" d="M724.454,1133.8l-38.9-29.816-5.3,9.984,38.763,18.315Z" transform="translate(-680.249 -1092.724)" fill="#91b3fa" opacity="0.56"/>
      <path id="Trazado_613150" data-name="Trazado 613150" d="M728.083,1136.277l-9.45-7.509-2.094,3.627,10.468,5.42Z" transform="translate(-683.878 -1095.202)" fill="#81ad20"/>
      <path id="Trazado_613151" data-name="Trazado 613151" d="M816.056,1132.636c-5.925,2.725-9.953,7.719-12.933,13.966a38.667,38.667,0,0,1,6.989-20.092C812.83,1126.749,816.056,1129.6,816.056,1132.636Z" transform="translate(-692.536 -1094.977)" fill="url(#linear-gradient-18)"/>
      <path id="Trazado_613152" data-name="Trazado 613152" d="M815.564,1160.928c4.307,1.618,3.643,1.445,6.824,1.771l1.2,8.691c-5.216-2.5-5.411-2.905-9.36-6.079Z" transform="translate(-693.647 -1098.418)" fill="url(#linear-gradient-18)"/>
      <path id="Trazado_613153" data-name="Trazado 613153" d="M788.967,1169.662a.2.2,0,0,1-.052-.387c9.495-2.633,13.609-9.32,12.577-20.444a.2.2,0,0,1,.178-.215.194.194,0,0,1,.215.178c1.053,11.346-3.155,18.17-12.865,20.861A.176.176,0,0,1,788.967,1169.662Z" transform="translate(-691.101 -1097.187)" fill="#7d97f4"/>
      <path id="Trazado_613154" data-name="Trazado 613154" d="M802.483,1174.34a.2.2,0,0,1-.039-.391c8.359-1.674,11.417-10.885,13.477-20.591a.2.2,0,0,1,.386.082c-2.087,9.838-5.2,19.177-13.785,20.9A.2.2,0,0,1,802.483,1174.34Z" transform="translate(-692.453 -1097.646)" fill="#7d97f4"/>
    </g>
    <g id="Grupo_875610" data-name="Grupo 875610" transform="translate(470.551 1219.121)">
      <g id="Grupo_875609" data-name="Grupo 875609">
        <path id="Trazado_613155" data-name="Trazado 613155" d="M576.246,1240.081c1.991,3.345,2.391,8.5,2.758,13.2.425,5.464,1,12.89-1.066,17.755-1.911,4.493-3.319,3.752-6.412,4.606-6.08,1.678-42.445,7.593-50.149,1.28-7.583-6.215-10.229-18.458-5.269-27.958,3.062-5.861,10.326-14.048,48.2-13.536C572.654,1235.538,574.58,1237.282,576.246,1240.081Z" transform="translate(-474.914 -1235.401)" fill="#7d97f4"/>
        <path id="Trazado_613156" data-name="Trazado 613156" d="M580.56,1258.739a5,5,0,0,0,6.136,4.472c2.13-.507,4.043-.956,4.043-.956l.07-13.481-4.777-.908a4.994,4.994,0,0,0-5.911,5.3Z" transform="translate(-481.566 -1236.639)" fill="#81ad20"/>
        <path id="Trazado_613157" data-name="Trazado 613157" d="M533.739,1277.11s4.765,31.04,18,48.665c24.953,33.234,19.016,80.294,18.986,108.479a13.47,13.47,0,0,1-11.129,13.493c-12.6,2.322-46.557,4.167-76.126-1.709a16.024,16.024,0,0,1-12.5-14.142c-2.45-26.644,7.855-84.234,30.426-107.423,7.493-7.7,10.2-13.064,8.985-42.018Z" transform="translate(-470.617 -1239.572)" fill="#7d97f4"/>
        <path id="Trazado_613158" data-name="Trazado 613158" d="M586.588,1324.349c-17.071-20.369-13.806-56.367-13.806-56.367l-19.8,6.7c4.3,36.305,20.848,50.045,29.54,53.537C583.639,1328.662,587.373,1325.286,586.588,1324.349Z" transform="translate(-478.854 -1238.66)" fill="#7d97f4"/>
        <path id="Trazado_613159" data-name="Trazado 613159" d="M583.033,1326.688c-17.071-20.369-18.593-56-18.593-56l-15.01,6.33c4.3,36.305,23.633,48.062,32.325,51.554A1.175,1.175,0,0,0,583.033,1326.688Z" transform="translate(-478.499 -1238.93)" fill="#91b3fa"/>
        <path id="Trazado_613160" data-name="Trazado 613160" d="M564.521,1239.4c2.258,3.665,2.692,9.228,3.087,14.3.459,5.9,1.084,13.921-1.293,19.266-2.216,4.983-4.509,2.561-31.94,8.995-16.848,3.952-30.274,7.8-41.229.64a24.852,24.852,0,0,1-7.245-34.331c4.628-7.133,14.025-13.606,64.339-12.7C560.22,1235.756,562.619,1236.314,564.521,1239.4Z" transform="translate(-471.744 -1235.411)" fill="#91b3fa"/>
        <ellipse id="Elipse_4890" data-name="Elipse 4890" cx="6.741" cy="3.089" rx="6.741" ry="3.089" transform="matrix(0.005, -1, 1, 0.005, 106.084, 25.6)" fill="#7d97f4"/>
      </g>
      <path id="Trazado_613161" data-name="Trazado 613161" d="M490.536,1398.269l-2.51,31.274c-.257,3.191,3.015,5.888,7.142,5.888H552c3.952,0,7.155-2.482,7.155-5.543v-29.38c0-2.965-3.01-5.4-6.834-5.538L498,1393.076C494.1,1392.94,490.778,1395.251,490.536,1398.269Z" transform="translate(-472.357 -1251.168)" fill="#91b3fa"/>
    </g>
    <g id="Grupo_875612" data-name="Grupo 875612" transform="translate(539.71 1294.167)">
      <path id="Trazado_613162" data-name="Trazado 613162" d="M604.21,1455.942H604c.047,0,.074.024.074.118,0,1.119-3.064,2.05-8.017,2.782a139.367,139.367,0,0,1-19.283,1.145c-15.075,0-27.3-1.67-27.3-3.907,0-.093.026-.138.073-.138H549.2V1352.347h55.01Z" transform="translate(-547.635 -1322.142)" fill="#e26c1e"/>
      <path id="Trazado_613163" data-name="Trazado 613163" d="M594.74,1341.251a7.865,7.865,0,0,0-5.91-2.288H564.774a7.863,7.863,0,0,0-5.909,2.288L549.5,1351.1l27.3,5.369,27.3-5.336Z" transform="translate(-547.665 -1320.803)" fill="#e26c1e"/>
      <ellipse id="Elipse_4891" data-name="Elipse 4891" cx="16.702" cy="3.329" rx="16.702" ry="3.329" transform="translate(12.824 16.175)" fill="#e26c1e"/>
      <path id="Trazado_613164" data-name="Trazado 613164" d="M587.078,1319.708h-.227c-.442-.4-3.825-.629-7.938-.629s-7.5.228-7.938.629h-.36v18.872h.36c-.032,0-.052,0-.052.026,0,.392,3.578.682,7.99.682s7.99-.278,7.99-.669c0-.027-.02-.04-.052-.04h.227Z" transform="translate(-549.776 -1318.815)" fill="#e26c1e"/>
      <ellipse id="Elipse_4892" data-name="Elipse 4892" cx="7.964" cy="0.86" rx="7.964" ry="0.86" transform="translate(21.199)" fill="#d8dee8"/>
      <g id="Grupo_875611" data-name="Grupo 875611" transform="translate(25.225 7.047)">
        <circle id="Elipse_4893" data-name="Elipse 4893" cx="3.912" cy="3.912" r="3.912" fill="url(#linear-gradient-20)"/>
        <circle id="Elipse_4894" data-name="Elipse 4894" cx="1.235" cy="1.235" r="1.235" transform="translate(2.677 2.677)" fill="url(#linear-gradient-18)"/>
      </g>
      <path id="Trazado_613165" data-name="Trazado 613165" d="M605.778,1353.117a1.227,1.227,0,0,1-.956,1.429,149.565,149.565,0,0,1-56.385,0,1.218,1.218,0,0,1-.955-1.429c.013-.073.026-.145.04-.218a1.182,1.182,0,0,1,1.372-.973,147.16,147.16,0,0,0,55.472,0,1.184,1.184,0,0,1,1.372.973C605.752,1352.973,605.765,1353.045,605.778,1353.117Z" transform="translate(-547.461 -1322.098)" fill="url(#linear-gradient-22)"/>
      <path id="Trazado_613166" data-name="Trazado 613166" d="M605.112,1467.792a1.226,1.226,0,0,1-.934,1.429,143.089,143.089,0,0,1-55.14,0,1.217,1.217,0,0,1-.934-1.429c.013-.073.026-.145.039-.218a1.158,1.158,0,0,1,1.342-.973,140.8,140.8,0,0,0,54.247,0,1.16,1.16,0,0,1,1.342.973C605.087,1467.647,605.1,1467.72,605.112,1467.792Z" transform="translate(-547.523 -1333.565)" fill="url(#linear-gradient-23)"/>
    </g>
  </g>
</svg>
