<svg id="Grupo_875271" data-name="Grupo 875271" xmlns="http://www.w3.org/2000/svg" width="165.766" height="170.669" viewBox="0 0 165.766 170.669">
  <g id="Grupo_875265" data-name="Grupo 875265" transform="translate(0 0)">
    <path id="Trazado_612485" data-name="Trazado 612485" d="M1198.781,240.878c18.908-41.017,65.016-61.553,107.908-46.755.868.267,3.265,1.217,4.163,1.574.777.272,1.963.811,2.728,1.17l2.7,1.244c1.285.6,2.666,1.44,3.942,2.081,1.515.807,3.633,2.173,5.1,3.056.738.5,2.9,2.012,3.674,2.54a85.557,85.557,0,0,1,30.908,96.447c-.369.92-1.193,3.374-1.579,4.276-.3.684-.886,2.113-1.182,2.8-.4,1.071-1.47,3.086-1.94,4.128-.618,1.282-1.492,2.76-2.155,4.021-.555,1.019-1.787,2.9-2.367,3.9-.575.772-1.99,3.008-2.586,3.763-.459.583-1.389,1.83-1.849,2.418-1.445,1.845-3.34,4.074-4.964,5.762-19.254,20.9-49.46,30.851-77.3,25.065a2.392,2.392,0,0,1,.728-4.724,89.959,89.959,0,0,0,22.553-.173c.986-.14,3.219-.539,4.157-.674.787-.19,3.268-.7,4.11-.9,2.941-.744,5.837-1.651,8.705-2.632,1.484-.61,3.077-1.178,4.543-1.814.908-.4,2.938-1.378,3.8-1.761a82.336,82.336,0,0,0,17.349-11.6c1.2-.995,2.982-2.656,4.113-3.772.563-.5,1.407-1.453,1.941-2,28.093-29.37,29.578-76.8,3.169-107.845-32.661-39.11-93.9-38.226-124.988,2.375a75.991,75.991,0,0,0-10.967,19.869,2.393,2.393,0,1,1-4.415-1.838Z" transform="translate(-1198.555 -189.329)" fill="#fda829"/>
  </g>
  <g id="Grupo_875266" data-name="Grupo 875266" transform="translate(9.989 15.599)">
    <ellipse id="Elipse_4839" data-name="Elipse 4839" cx="69.067" cy="69.067" rx="69.067" ry="69.067" fill="#148d80"/>
  </g>
  <g id="Grupo_875269" data-name="Grupo 875269" transform="translate(50.614 29.293)">
    <g id="Grupo_875267" data-name="Grupo 875267">
      <path id="Trazado_612486" data-name="Trazado 612486" d="M1291.47,335.559a26.959,26.959,0,0,1-15.54-48.991V243.042a15.542,15.542,0,1,1,31.083,0v43.526a26.96,26.96,0,0,1-15.543,48.991Zm0-104.222a11.717,11.717,0,0,0-11.7,11.705v44.544a1.92,1.92,0,0,1-.873,1.609,23.125,23.125,0,1,0,25.155,0,1.917,1.917,0,0,1-.873-1.609V243.042A11.719,11.719,0,0,0,1291.47,231.337Z" transform="translate(-1264.509 -227.5)" fill="#fff"/>
    </g>
    <g id="Grupo_875268" data-name="Grupo 875268" transform="translate(10.523 35.347)">
      <path id="Trazado_612487" data-name="Trazado 612487" d="M1294.66,335.75a16.438,16.438,0,0,1-8.934-30.236l3.915-2.546V273.56h10.04v29.408l3.915,2.546a16.437,16.437,0,0,1-8.936,30.236Z" transform="translate(-1278.221 -273.56)" fill="#fff"/>
    </g>
  </g>
</svg>
