<svg id="Grupo_875275" data-name="Grupo 875275" xmlns="http://www.w3.org/2000/svg" width="165.766" height="170.669" viewBox="0 0 165.766 170.669">
  <g id="Grupo_875272" data-name="Grupo 875272" transform="translate(0 0)">
    <path id="Trazado_612481" data-name="Trazado 612481" d="M927.781,240.878c18.908-41.017,65.016-61.553,107.908-46.755.868.267,3.264,1.217,4.163,1.574.777.272,1.963.811,2.728,1.17l2.7,1.244c1.285.6,2.666,1.44,3.942,2.081,1.515.807,3.633,2.173,5.1,3.056.738.5,2.9,2.012,3.674,2.54a85.557,85.557,0,0,1,30.908,96.447c-.369.92-1.193,3.374-1.578,4.276-.3.684-.886,2.113-1.182,2.8-.4,1.071-1.47,3.086-1.94,4.128-.618,1.282-1.492,2.76-2.155,4.021-.555,1.019-1.787,2.9-2.367,3.9-.575.772-1.99,3.008-2.586,3.763-.459.583-1.389,1.83-1.849,2.418-1.445,1.845-3.34,4.074-4.964,5.762-19.254,20.9-49.46,30.851-77.3,25.065a2.392,2.392,0,0,1,.728-4.724,89.959,89.959,0,0,0,22.553-.173c.986-.14,3.219-.539,4.157-.674.787-.19,3.268-.7,4.11-.9,2.941-.744,5.837-1.651,8.705-2.632,1.484-.61,3.077-1.178,4.543-1.814.908-.4,2.938-1.378,3.8-1.761a82.335,82.335,0,0,0,17.349-11.6c1.2-.995,2.982-2.656,4.113-3.772.563-.5,1.407-1.453,1.941-2,28.093-29.37,29.578-76.8,3.169-107.845-32.661-39.11-93.9-38.226-124.987,2.375A75.992,75.992,0,0,0,932.2,242.716a2.393,2.393,0,1,1-4.415-1.838Z" transform="translate(-927.555 -189.329)" fill="#fda829"/>
  </g>
  <g id="Grupo_875273" data-name="Grupo 875273" transform="translate(9.989 15.599)">
    <ellipse id="Elipse_4838" data-name="Elipse 4838" cx="69.067" cy="69.067" rx="69.067" ry="69.067" transform="translate(0 0)" fill="#148d80"/>
  </g>
  <g id="Grupo_875274" data-name="Grupo 875274" transform="translate(31.768 50.763)">
    <g id="Grupo_875261" data-name="Grupo 875261" transform="translate(16.483 0)">
      <path id="Trazado_612482" data-name="Trazado 612482" d="M1028.765,290.008H992.349a1.919,1.919,0,1,1,0-3.837h36.416c5.165,0,10.678-4.617,12.823-10.741.86-2.457,2.275-8.642-3.171-12.992-5.426-4.335-10.943-3.617-14-.978-1.913,1.65-3.315,4.519-1.51,7.622a1.918,1.918,0,1,1-3.317,1.928,9.687,9.687,0,0,1,2.32-12.456c4.258-3.673,11.754-4.825,18.9.886,5.109,4.081,6.753,10.534,4.4,17.258C1042.507,284.41,1035.591,290.008,1028.765,290.008Z" transform="translate(-990.43 -255.478)" fill="#fff"/>
    </g>
    <g id="Grupo_875262" data-name="Grupo 875262" transform="translate(0 43.008)">
      <path id="Trazado_612483" data-name="Trazado 612483" d="M1018.883,341.663c-4.3,0-8.185-2.593-10.737-7.306a1.919,1.919,0,0,1,3.374-1.827c2.269,4.191,5.539,5.991,9.207,5.058,4.054-1.028,8.248-5.614,8.248-11.513,0-9.325-11.335-10.717-18.091-10.717H970.87a1.919,1.919,0,1,1,0-3.837h40.014c13.935,0,21.928,5.3,21.928,14.554,0,7.075-4.79,13.624-11.144,15.233A11.353,11.353,0,0,1,1018.883,341.663Z" transform="translate(-968.951 -311.521)" fill="#fff"/>
    </g>
    <g id="Grupo_875263" data-name="Grupo 875263" transform="translate(66.647 41.213)">
      <path id="Trazado_612484" data-name="Trazado 612484" d="M1080.132,332.661a12.75,12.75,0,0,1-6.789-1.81,7.869,7.869,0,0,1-3.657-5.6,1.918,1.918,0,1,1,3.795-.562,4.031,4.031,0,0,0,1.934,2.935,9.771,9.771,0,0,0,7.223.886,7.211,7.211,0,0,0,4.337-3.44,7.375,7.375,0,0,0,.174-5.911c-1.78-5.341-9.349-6.139-13.7-6.139h-15.731a1.919,1.919,0,0,1,0-3.837h15.731c9.3,0,15.459,3.112,17.344,8.763a10.606,10.606,0,0,1-7.079,14.248A13.081,13.081,0,0,1,1080.132,332.661Z" transform="translate(-1055.797 -309.181)" fill="#fff"/>
    </g>
  </g>
</svg>
