<svg xmlns="http://www.w3.org/2000/svg" width="160" height="160" viewBox="0 0 160 160">
  <g id="Grupo_876661" data-name="Grupo 876661" transform="translate(0 -3511.472)">
    <circle id="Elipse_4953" data-name="Elipse 4953" cx="80" cy="80" r="80" transform="translate(0 3511.472)" fill="#fda829"/>
    <g id="Grupo_876480" data-name="Grupo 876480" transform="translate(31.228 3542.7)">
      <g id="Grupo_875546" data-name="Grupo 875546">
        <path id="Trazado_612854" data-name="Trazado 612854" d="M313.06,306.9c-5.179,0-9.233-2.582-9.233-5.881,0-2.1,1.618-3.94,4.3-4.989v-4.91a3.425,3.425,0,0,0-2.686-3.3,30.408,30.408,0,0,1-7.966-3.3,3.444,3.444,0,0,0-4.253.427l-3.472,3.472c1.155,2.635.994,5.082-.488,6.566-2.337,2.335-7.034,1.288-10.686-2.368s-4.7-8.353-2.369-10.684c1.48-1.485,3.927-1.645,6.562-.493l3.475-3.47a3.444,3.444,0,0,0,.427-4.253,30.59,30.59,0,0,1-3.3-7.968,3.429,3.429,0,0,0-3.3-2.684h-4.908c-1.045,2.677-2.891,4.3-4.989,4.3-3.3,0-5.881-4.054-5.881-9.229s2.584-9.231,5.881-9.231c2.1,0,3.942,1.616,4.989,4.3h4.908a3.429,3.429,0,0,0,3.3-2.686,30.524,30.524,0,0,1,3.3-7.964,3.449,3.449,0,0,0-.429-4.255l-3.472-3.472c-2.633,1.155-5.082.994-6.564-.489-2.333-2.335-1.292-7.027,2.369-10.686s8.351-4.7,10.686-2.369c1.482,1.482,1.643,3.929.488,6.566l3.472,3.47a3.439,3.439,0,0,0,4.253.429,30.637,30.637,0,0,1,7.966-3.3,3.429,3.429,0,0,0,2.686-3.3v-4.908c-2.679-1.045-4.3-2.889-4.3-4.989,0-3.3,4.054-5.881,9.233-5.881s9.229,2.584,9.229,5.881c0,2.1-1.618,3.944-4.3,4.989v4.908a3.427,3.427,0,0,0,2.684,3.3,30.561,30.561,0,0,1,7.968,3.3,3.432,3.432,0,0,0,4.251-.429l3.472-3.472c-1.153-2.635-.992-5.082.491-6.564,2.339-2.335,7.029-1.288,10.686,2.369s4.7,8.351,2.366,10.686c-1.482,1.482-3.927,1.643-6.564.489l-3.472,3.472a3.449,3.449,0,0,0-.427,4.255,30.42,30.42,0,0,1,3.3,7.966,3.425,3.425,0,0,0,3.3,2.684h4.908c1.051-2.679,2.9-4.3,4.991-4.3,3.3,0,5.881,4.054,5.881,9.231s-2.584,9.229-5.881,9.229c-2.1,0-3.942-1.618-4.991-4.3H346.05a3.425,3.425,0,0,0-3.3,2.684,30.518,30.518,0,0,1-3.3,7.968,3.447,3.447,0,0,0,.427,4.253l3.475,3.47c2.635-1.148,5.084-.99,6.562.493,2.333,2.33,1.294,7.023-2.366,10.684s-8.349,4.7-10.686,2.368c-1.482-1.482-1.643-3.931-.489-6.564l-3.475-3.475a3.444,3.444,0,0,0-4.253-.427,30.417,30.417,0,0,1-7.968,3.3,3.423,3.423,0,0,0-2.681,3.3v4.91c2.677,1.047,4.3,2.893,4.3,4.989C322.289,304.319,318.235,306.9,313.06,306.9Zm-17.481-26.081a6.9,6.9,0,0,1,3.508.969,27.287,27.287,0,0,0,7.137,2.961,6.637,6.637,0,0,1,5.071,6.372v6.055a1.587,1.587,0,0,1-1.163,1.527c-2.058.569-3.134,1.6-3.134,2.318,0,1.1,2.362,2.709,6.061,2.709s6.057-1.605,6.057-2.709c0-.721-1.076-1.749-3.132-2.318a1.584,1.584,0,0,1-1.163-1.527V291.12a6.635,6.635,0,0,1,5.067-6.372,27.284,27.284,0,0,0,7.137-2.961,6.662,6.662,0,0,1,8.114.916l4.28,4.28a1.588,1.588,0,0,1,.258,1.905c-1.051,1.855-1.085,3.341-.575,3.851.778.778,3.582.247,6.2-2.366s3.147-5.42,2.366-6.2c-.514-.512-2-.474-3.853.577a1.588,1.588,0,0,1-1.9-.258l-4.28-4.282a6.657,6.657,0,0,1-.916-8.112,27.234,27.234,0,0,0,2.959-7.137,6.639,6.639,0,0,1,6.374-5.069H352.1a1.586,1.586,0,0,1,1.529,1.165c.569,2.053,1.6,3.13,2.318,3.13,1.1,0,2.709-2.36,2.709-6.057s-1.605-6.059-2.709-6.059c-.721,0-1.749,1.074-2.318,3.132a1.589,1.589,0,0,1-1.529,1.163H346.05a6.641,6.641,0,0,1-6.374-5.069,27.222,27.222,0,0,0-2.959-7.139,6.657,6.657,0,0,1,.916-8.112l4.28-4.28a1.586,1.586,0,0,1,1.9-.258c1.857,1.057,3.343,1.085,3.853.577.78-.78.247-3.585-2.366-6.2s-5.418-3.149-6.2-2.369c-.51.51-.476,2,.575,3.851a1.584,1.584,0,0,1-.258,1.9l-4.28,4.282a6.66,6.66,0,0,1-8.112.916,27.369,27.369,0,0,0-7.139-2.961,6.638,6.638,0,0,1-5.067-6.374v-6.052a1.583,1.583,0,0,1,1.163-1.529c2.055-.565,3.132-1.592,3.132-2.316,0-1.1-2.36-2.709-6.057-2.709S307,214.134,307,215.238c0,.721,1.076,1.749,3.132,2.316a1.585,1.585,0,0,1,1.165,1.529v6.052a6.64,6.64,0,0,1-5.069,6.374,27.386,27.386,0,0,0-7.139,2.961,6.654,6.654,0,0,1-8.112-.916l-4.28-4.282a1.585,1.585,0,0,1-.258-1.9c1.053-1.855,1.087-3.341.577-3.851-.782-.785-3.585-.25-6.2,2.369s-3.149,5.416-2.368,6.2c.514.514,2,.478,3.853-.577a1.586,1.586,0,0,1,1.9.258l4.28,4.28a6.657,6.657,0,0,1,.918,8.112,27.319,27.319,0,0,0-2.961,7.139,6.641,6.641,0,0,1-6.374,5.069h-6.052a1.589,1.589,0,0,1-1.529-1.163c-.569-2.058-1.595-3.132-2.316-3.132-1.1,0-2.709,2.36-2.709,6.059s1.605,6.057,2.709,6.057c.723,0,1.749-1.076,2.316-3.13a1.583,1.583,0,0,1,1.529-1.165h6.052a6.639,6.639,0,0,1,6.374,5.067A27.294,27.294,0,0,0,289.4,272.1a6.652,6.652,0,0,1-.916,8.112l-4.28,4.282a1.588,1.588,0,0,1-1.9.258c-1.85-1.051-3.339-1.089-3.853-.577-.78.78-.245,3.584,2.368,6.2s5.42,3.151,6.2,2.366c.51-.51.476-2-.577-3.851a1.588,1.588,0,0,1,.258-1.905l4.28-4.28A6.484,6.484,0,0,1,295.579,280.819Z" transform="translate(-264.287 -209.357)" fill="#fff"/>
      </g>
      <g id="Grupo_875547" data-name="Grupo 875547" transform="translate(31.565 34.596)">
        <path id="Trazado_612855" data-name="Trazado 612855" d="M289.628,246.544a10.414,10.414,0,1,1,10.413-10.415A10.426,10.426,0,0,1,289.628,246.544Zm0-17.656a7.242,7.242,0,1,0,7.241,7.241A7.25,7.25,0,0,0,289.628,228.888Z" transform="translate(-279.213 -225.716)" fill="#fff"/>
      </g>
      <g id="Grupo_875548" data-name="Grupo 875548" transform="translate(59.807 37.762)">
        <path id="Trazado_612856" data-name="Trazado 612856" d="M297.039,240.161a1.573,1.573,0,0,1-.918-.294,8.517,8.517,0,0,1-3.25-4.559,8.933,8.933,0,0,1,1.438-7.45,1.586,1.586,0,0,1,2.553,1.884,5.667,5.667,0,0,0-.939,4.7,5.317,5.317,0,0,0,2.036,2.838,1.587,1.587,0,0,1-.92,2.88Z" transform="translate(-292.568 -227.213)" fill="#fff"/>
      </g>
      <g id="Grupo_875549" data-name="Grupo 875549" transform="translate(44.745 61.096)">
        <path id="Trazado_612857" data-name="Trazado 612857" d="M287.031,244.238a1.586,1.586,0,0,1-1.121-2.707,11.28,11.28,0,0,1,7.173-3.269,11.049,11.049,0,0,1,5.247,1.034,1.586,1.586,0,1,1-1.351,2.87,7.607,7.607,0,0,0-3.714-.736,8.069,8.069,0,0,0-5.111,2.343A1.578,1.578,0,0,1,287.031,244.238Z" transform="translate(-285.445 -238.247)" fill="#fff"/>
      </g>
    </g>
  </g>
</svg>
